<svg fill-rule="evenodd" stroke-linecap="round" stroke-linejoin="round" viewBox="0 0 256 256" xmlns="http://www.w3.org/2000/svg"><g transform="translate(0 256) scale(.1 -.1)" fill="currentColor"><path d="m1195 2358c-22-6-45-16-51-22-35-33-58-48-61-39-2 6-28 6-70 1-92-11-133-54-133-141 0-39 5-64 15-73 17-17 20-70 5-79-6-4-8-10-5-15 8-14-24-34-37-23-7 6-20 11-28 11-86 5-168 17-164 23 3 5-23 9-58 9-38 0-58-4-50-9s-15-10-59-14c-42-4-76-11-80-19-5-7-12-13-16-12-14 2-43-8-43-15 0-3-14-20-30-38-17-18-30-37-30-42 0-6-4-11-10-11-5 0-7-7-4-15 4-8 1-15-5-15-13 0-16-176-2-184 4-3 11-18 14-34 6-29 68-140 99-177 28-34 102-127 113-141 7-11 2-22-22-45-18-16-33-33-33-37s-16-24-35-45c-18-21-40-51-47-67-7-17-17-30-21-30-5 0-5-5-2-10 3-6 1-10-4-10-6 0-11-6-11-12 0-7-6-25-14-39-22-42-28-80-27-156 2-49-3-79-13-95-22-35-29-92-16-132 13-39 74-96 103-96 10 0 15-4 12-10-19-31 80 1 121 39 19 17 27 18 65 9 31-7 64-6 111 2 37 6 73 8 79 4 8-4 9-3 5 4-5 8 3 12 24 12 17 0 46 6 64 14 35 15 56 7 56-22 0-7 8-32 19-55 28-65 34-81 33-89-1-5 2-8 8-8 5 0 10-5 10-10 0-26 116-160 138-160 6 0 18-8 28-17 21-22 204-26 211-5 3 6 10 12 18 12 7 0 18 7 25 15 10 12 16 13 28 3 8-7 40-13 72-13 98 0 155 65 148 169-2 20-5 36-8 36s-11 13-18 29c-13 29-11 41 21 108 10 22 37 32 37 15 0-4 8-8 18-9 69-7 121-16 118-22-2-3 51-3 117 0 218 11 307 85 307 256 0 135-72 285-207 433-28 31-28 31 1 59 23 22 26 22 48 7 39-28 140-22 179 11 86 73 69 203-33 259-15 8-16 17-7 74 20 123 5 200-49 255-41 41-100 75-132 75-12 0-19 4-16 9 7 11-247 12-254 1-8-12-133-23-125-11 3 6 3 11-2 11-4 0-13 17-20 38-6 20-16 48-21 62s-9 29-8 33c0 4-4 11-9 15-6 4-19 24-30 45-26 49-108 132-153 153-44 21-144 27-197 12zm173-56c2-7 9-12 16-12 25 0 132-120 119-134-3-3-1-6 5-6 7 0 12-6 12-14s3-16 8-18c7-3 44-91 57-135 6-22-24-50-39-36-3 3-6 2-6-4s-16-14-35-17c-19-4-47-13-62-21s-36-15-45-15c-10 0-18-4-18-9s-12-12-27-16c-15-3-30-10-33-13-20-27-71-40-97-27-16 8-34 15-40 15-7 0-13 4-13 9s-13 12-30 16c-16 4-30 10-30 15 0 4-18 11-40 15s-40 10-40 15-18 11-40 15c-47 8-54 16-45 54 6 28 8 29 78 33 78 4 106 19 133 70 18 35 18 119-1 144-27 35-15 57 45 86 25 12 163 4 168-10zm-289-58c59-42 60-132 1-174-89-63-196 41-144 141 24 48 97 65 143 33zm980-310c17-10 31-22 31-27 0-4 4-6 10-2 14 9 58-64 70-118 7-34 7-67-1-117-12-69-12-70-50-80-72-20-120-104-105-185 5-27 3-37-8-41-8-3-18-14-21-25-10-30-25-23-96 44-61 58-80 73-150 127-21 15-27 31-32 77-12 105-35 247-46 283-15 47-15 46 19 60 82 34 324 36 379 4zm-1324 6c4-6 10-8 15-5 20 12 120-26 120-45 0-10-4-21-9-24-4-3-11-36-15-72-4-37-10-72-14-78-3-6-7-15-7-21-4-63-19-161-26-166-22-13-149-119-196-163l-54-49-34 33c-19 19-35 38-35 42 0 5-10 19-23 31-32 30-85 113-93 142-3 14-10 25-14 25-9 0-25 67-22 93 1 9-3 17-8 17-6 0-10 16-10 35s4 35 9 35 11 18 15 40c3 22 10 40 15 40 6 0 12 9 16 19 7 22 108 76 124 67 6-4 11-2 11 3 0 14 226 15 235 1zm881-84c7-26 10-55 7-64-4-9-2-13 4-9 10 6 23-71 28-170 3-55 7-56-82 17-7 6-15 10-18 10-7 0-68 42-75 52-3 3-9 7-15 8-22 6-55 24-55 31 0 4-13 10-30 14-16 4-30 11-30 16s-9 9-20 9-20 5-20 11 9 13 20 16 20 9 20 14 5 9 11 9c9 0 45 15 136 56 17 8 38 14 46 14 9 0 19 5 22 11 15 23 39 2 51-45zm-614 14c29-12 67-27 85-35 17-8 36-15 42-15s11-4 11-10c0-5 9-10 20-10s20-7 20-15-5-15-12-15c-10 0-94-50-123-73-22-17-175-117-180-117-14 0 19 224 35 240 3 3 6 14 8 25 8 53 16 55 94 25zm268-120c0-5 5-10 12-10 6 0 49-22 95-50 46-27 87-50 91-50s19-11 34-25 31-25 36-25 18-8 30-17c12-10 39-31 62-46l40-28v-224-223l-37-23c-21-13-42-26-48-28-5-2-14-8-20-13-5-4-21-17-34-28s-30-20-37-20-14-4-16-8c-4-12-121-82-136-82-6 0-12-3-12-8 0-4-16-16-36-27l-35-19-65 34c-35 19-64 38-64 42s-6 8-14 8-37 16-66 35-55 35-59 35c-3 0-20 13-37 28-18 15-42 34-54 42s-29 20-38 27c-14 9-17 34-20 145-4 196 8 318 33 332 10 6 26 17 34 24 25 24 148 102 160 102 6 0 11 3 11 8 0 4 21 19 47 32 26 14 54 31 61 38 7 6 20 12 28 12s14 5 14 10c0 6 9 10 20 10s20-4 20-10zm960-227c59-54 42-146-33-178-104-43-192 92-113 174 41 42 102 44 146 4zm-1427-139c-2-38-5-111-9-161-3-62-2-93 5-93 6 0 8-7 5-15-10-25-23-18-97 48-108 95-130 118-121 126 25 20 171 148 183 159 26 25 36 7 34-64zm1e3 11c136-120 134-116 71-171-94-82-140-119-148-119-7 0-15 307-9 348 2 14 15 5 86-58zm-1200-205c28-28 84-76 126-107l76-58 11-95c6-52 18-129 27-170 27-121 26-123-20-136-94-27-139-34-205-34h-70v58c0 101-55 155-155 150l-60-3 2 69c1 38 5 72 10 75s14 24 21 46c6 23 21 50 32 62s20 26 20 31c0 9 11 23 79 108 24 30 46 54 50 54 3-1 29-23 56-50zm1401 4c21-26 48-61 59-78 10-17 22-33 25-36 18-14 64-107 81-162 50-165-13-275-178-314-62-14-77-14-173 1-85 13-170 37-170 48 0 1 5 18 11 37 16 52 48 239 49 282 0 41 8 68 20 68 5 0 21 12 37 28 16 15 40 35 54 44 13 10 49 42 79 72 30 31 58 55 61 56 3 0 23-21 45-46zm-1e3 -288c36-22 67-43 70-46 3-4 12-10 20-13 43-20 114-65 117-74 2-6-47-32-109-57-62-26-121-51-130-56-10-6-20-10-22-10-8 0-26 62-20 71 3 5 1 9-4 9-9 0-31 117-40 204l-4 50 28-19c16-10 58-37 94-59zm686 62c4-6 2-14-4-16-7-2-10-8-7-12 8-13-18-180-28-180-4 0-5-4-2-10 7-11-15-90-25-90-12 0-134 41-175 60-22 9-55 23-73 31-17 8-31 18-29 24 4 10 147 97 147 89 0-3 7 1 15 10 8 8 40 29 70 46s57 36 60 41c4 5 11 7 16 4 5-4 9-1 9 4 0 15 17 14 26-1zm-1195-237c66-66 18-181-76-181-40 0-95 59-95 102 0 95 106 144 171 79zm816 2c21-10 40-21 43-24s59-25 125-49c147-53 143-50 120-100l-18-40-48 6c-59 8-126-21-152-65-19-32-24-136-7-146 21-13 9-43-22-56-108-46-241 23-309 159-13 26-26 49-29 52-13 12-41 87-43 114-2 28 2 31 63 53 103 38 223 94 228 106 5 10 6 9 49-10zm276-283c83-92-24-228-127-161-56 37-71 98-39 152 34 57 118 62 166 9z"/><path d="m1170 1510c0-5-12-11-26-14-40-10-114-97-114-134 0-10-3-22-6-25-8-7-9-101-2-113 3-5 8-22 12-38 4-15 13-35 21-43s18-19 22-26c24-36 115-77 174-77 77 0 219 81 219 126 0 8 4 14 8 14s8 8 9 18c1 9 5 38 9 63 10 72-16 138-78 194-27 25-56 45-64 45s-14 4-14 9-38 8-85 8-85-3-85-7zm193-69c128-82 116-265-23-338-192-102-378 157-224 312 48 47 60 52 145 54 45 1 63-4 102-28z"/></g></svg>
