<svg fill-rule="evenodd" stroke-linecap="round" stroke-linejoin="round" viewBox="0 0 256 256" xmlns="http://www.w3.org/2000/svg"><g transform="translate(0 256) scale(.1 -.1)" fill="currentColor"><path d="m1252 2198c-57-9-106-40-116-73-14-49-6-132 14-150 11-10 20-22 20-27 0-16-550-10-566 7-25 24-124 9-108-16 3-5 1-9-4-9s-9-7-9-15 4-12 9-9c4 3 8-1 8-10 0-8 5-16 11-18 13-4-9-88-23-88-5 0-7-4-3-9 3-5 1-12-4-15s-12-22-15-41c-4-19-11-35-15-35-5 0-14-20-20-44-6-25-15-48-21-51-5-3-10-12-10-20s-5-26-12-42c-6-15-12-30-13-33s-7-18-13-33c-7-16-12-33-12-38s-4-9-10-9c-5 0-9-3-8-7 3-15-25-93-34-93-4 0-8-6-8-14s-5-27-12-43c-6-15-12-30-13-33s-5-13-8-22c-4-10-9-25-12-33-2-8-13-15-23-15-89 0 34-251 135-276 13-4 23-10 23-14 0-5 26-14 58-20 31-7 65-16 74-21 23-12 63-12 86 0 9 5 43 14 75 20s65 17 73 26c9 8 19 15 24 15 15 0 107 95 114 118 4 12 11 22 15 22 11 0 34 107 26 120-3 5-15 10-26 10s-23 8-26 18c-4 9-9 19-13 22s-19 41-35 85c-15 44-40 107-55 140-31 69-55 137-52 148 1 4-2 7-7 7s-12 18-16 40-10 40-14 40c-8 0-36 79-33 93 1 4-2 7-8 7-5 0-10 6-10 13s-9 29-20 49c-18 35-18 37-1 57 18 20 26 21 325 21h306v-610-610h-105-106l-32-32c-18-18-33-37-33-43-4-62-14-72-72-74-98-3-116-15-143-95-30-93-64-87 515-85 321 1 506 5 514 11 16 14 15 51-3 94-24 57-41 68-118 74l-70 5-12 40c-27 92-37 98-180 105l-110 5-3 585c-1 322 0 595 3 608l5 22h319c300 0 319-1 335-19 13-14 15-24 7-38-6-10-31-67-56-128-26-60-53-124-61-142-8-17-14-35-14-39 0-30-156-374-170-374-24 0-40-21-31-39 5-9 11-32 15-52 9-53 125-189 161-189 8 0 15-4 15-9s24-14 53-21c28-6 71-16 95-22 29-7 50-8 65-1 12 6 48 15 79 21 32 6 63 16 70 22 7 5 33 25 58 44 25 18 56 52 70 74 14 23 28 42 32 42s11 18 14 40c4 22 10 43 14 45 17 10-3 45-25 45-30 0-41 15-57 75-7 28-15 52-19 55-6 5-28 67-30 85 0 6-4 12-8 15s-20 41-36 85-32 85-37 91c-7 9-58 138-90 229-6 17-15 34-19 40-14 15-10 42 6 49 21 8 19 49-3 69-23 21-75 22-92 2-13-16-580-24-580-8 0 3 6 14 14 22 22 25 35 86 26 124-18 81-74 118-158 105zm75-50c45-22 63-89 38-138-45-88-167-76-196 19-29 98 62 166 158 119zm-751-335c4-16 10-32 15-38 4-5 8-14 9-20 1-5 6-20 11-33s9-29 9-37 5-17 10-20c6-3 15-26 21-51 6-24 15-44 19-44s10-13 13-30c4-16 16-50 27-74 11-25 20-52 20-60s4-17 9-20c5-4 15-29 22-56 7-28 16-50 21-50 4 0 8-6 8-13s9-30 20-51c10-22 17-43 14-47-8-13-521-11-529 1-4 6 0 22 9 35 8 13 20 44 27 69 6 25 15 46 19 46s13 25 20 55 17 55 21 55c5 0 11 16 15 35 3 19 10 35 16 35 5 0 7 4 3 9-3 5-1 12 4 15 4 3 11 18 14 33 3 16 16 51 28 78 13 28 24 52 24 55 1 3 7 18 13 33 7 16 12 33 12 38s5 9 11 9c5 0 8 4 4 9-6 11 15 61 26 61 5 0 12-12 15-27zm1437-5c7-29 34-103 51-143 8-16 37-91 66-165s70-177 91-229 36-98 33-103c-7-11-521-11-528 1-7 10 73 215 86 219 4 2 5 8 2 13-3 6-2 15 3 22s22 46 38 87 32 77 35 80 15 35 27 71c50 149 83 200 96 147zm-1132-703c-5-39-29-81-67-124-162-181-477-134-569 84-8 21-12 42-7 47 8 8 557 16 611 8 19-3 33-9 32-15zm1430 10c14-9-25-87-68-136-151-167-454-134-553 61-41 80-58 74 240 81 257 5 364 4 381-6zm-793-501c12-14 22-36 22-50v-24l-240-2c-132-1-252-2-267-2-39-1-45 49-11 81 29 28 80 32 303 27 167-4 170-5 193-30zm195-134c30-24 44-69 25-81-7-5-224-9-481-9-514 0-504-1-460 58 38 52 39 52 479 52 395 0 412-1 437-20z"/></g></svg>
