<svg fill-rule="evenodd" stroke-linecap="round" stroke-linejoin="round" viewBox="0 0 256 256" xmlns="http://www.w3.org/2000/svg"><g transform="translate(0 256) scale(.1 -.1)" fill="currentColor"><path d="m810 1827c-62-31-59-130 5-152 56-19 56-19 53-225-2-130-7-193-15-198-6-4-12-11-12-17-2-14-39-111-50-132-10-18-52-119-73-178-6-16-16-33-22-37s-7-8-2-8 4-6-1-12c-6-7-16-30-22-50-7-21-17-38-22-38s-8-3-7-7c3-10-21-81-35-108-6-11-12-22-13-25 0-3-9-23-19-45-28-61-43-177-26-200 5-5 11-23 15-38 11-44 89-121 138-137 24-7 46-15 50-17 12-6 1e3 -4 1064 3 162 51 229 187 174 352-12 37-27 73-32 80-6 6-7 12-2 12s4 4-2 8c-11 7-50 111-46 125 1 4-3 7-8 7s-9 3-8 8c1 4-7 25-17 47s-19 42-20 45c0 3-15 35-32 71-17 37-36 84-43 105-7 22-16 44-21 50s-6 14-2 17c3 4 2 7-4 7-5 0-16 19-23 42-7 24-18 52-26 63-11 15-14 65-14 217v197l40 11c66 18 86 108 34 149-26 21-36 21-478 21-343 0-457-3-476-13zm934-46c32-27 5-81-40-81-50 0-54-16-54-229 0-190 12-280 40-301 4-3 26-54 50-115 24-60 47-115 52-121 4-6 14-28 22-50 8-21 31-77 51-124 112-263 123-314 86-395-20-44-67-95-87-95-7 0-14-6-16-12-5-14-1e3 -25-1104-13-17 3-42 14-54 25-13 11-26 20-31 20-16 0-68 94-74 134-10 68 28 176 180 511 12 28 26 61 30 75s25 61 45 105c67 146 68 152 69 359 0 203-4 226-46 226-51 0-79 46-48 80 20 22 902 23 929 1z"/><path d="m1e3 1467c-8-14-1-16 82-18 76-2 85 0 85 19 0 11-160 9-167-1z"/><path d="m1068 1372c-53-5-47-22 7-22 25 0 45 4 45 9 0 14-11 17-52 13z"/><path d="m1e3 1244c-17-18 14-24 114-24 90 0 109 3 109 15 0 16-208 24-223 9z"/><path d="m1e3 1091c-15-16 7-21 87-21 68 0 90 3 86 13-4 11-161 19-173 8z"/><path d="m993 917c-10-16 6-19 86-18 111 0 106 0 96 10-13 12-175 19-182 8z"/><path d="m985 761c-3-6 0-14 8-17 24-9 182 0 177 11-7 13-176 19-185 6z"/><path d="m980 585c0-13 14-15 98-13 128 4 128 22 0 26-84 2-98 0-98-13z"/></g></svg>
