<svg fill-rule="evenodd" stroke-linecap="round" stroke-linejoin="round" viewBox="0 0 256 256" xmlns="http://www.w3.org/2000/svg"><g transform="translate(0 256) scale(.1 -.1)" fill="currentColor"><path d="m1180 2364c-70-8-189-34-255-56-42-14-197-90-215-106-8-7-17-11-20-10s-16-9-30-22c-38-37-141-124-151-128-5-2-9-9-9-15 0-7-14-27-30-46-17-18-30-37-30-40 0-4-8-16-18-27-9-10-31-46-47-79-17-33-32-62-35-65-14-14-74-192-89-265-43-208-5-530 81-683 10-18 16-37 13-42-3-4 1-10 8-13 6-3 21-22 32-43 11-22 22-41 25-44s24-30 47-61c60-81 210-229 232-229 5 0 16-6 23-12 29-27 149-88 172-88 9 0 16-4 16-10 0-5 12-10 26-10s23-4 20-9 22-12 57-15c34-4 66-11 72-15 8-7 152-22 200-22 63 1 195 16 195 22 0 5 15 9 33 9 35 0 184 45 204 62 7 5 16 7 22 4 5-3 11 1 15 9 3 9 12 12 22 8 11-4 15-2 11 4-3 5 6 16 21 24s35 21 45 29 19 13 20 10c2-3 21 12 43 32 21 21 44 38 49 38 6 1 30 26 55 56s60 71 78 90c17 19 32 38 32 43s6 16 13 23c26 29 107 189 107 212 0 11 5 14 12 10 6-4 9-3 5 2-5 8 10 76 26 114 23 60 40 278 27 378-19 162-22 177-31 186-5 6-9 19-9 30 0 21-31 128-40 136-11 11-101 180-95 180 2 0-17 20-41 45s-44 52-44 60-3 14-7 13c-5-1-27 16-50 37-64 61-123 113-123 108 0-2-12 4-27 15-43 31-163 92-179 92-9 0-12 5-8 11 4 7 1 10-7 7s-36 4-64 14c-27 10-64 18-80 18-17 0-35 4-40 9-11 10-227 22-285 15zm195-64c-4-6 1-7 10-3 66 25 388-106 486-198 22-20 39-34 39-31 0 4 25-18 55-48 30-29 52-57 49-62-3-4 0-8 6-8 12 0 120-161 120-179 0-6 3-11 8-11 12 0 34-59 26-71-4-7-3-9 2-6 9 5 43-90 49-133 1-8 6-24 11-35 4-11 8-37 9-57 0-21 4-38 9-38 23 0-11-390-37-416-4-4-7-16-7-27 0-28-22-87-33-87-4 0-6-4-2-10 5-8-10-45-25-60-9-9-51-85-57-103-3-9-9-17-14-17s-9-5-9-10c0-36-299-318-300-283 0 4-4 3-8-3-4-5-37-24-73-42-62-29-85-38-199-73-60-19-403-20-422-1-6 6-22 12-34 12-31 0-86 25-77 35 5 4 0 5-9 2-19-7-181 71-216 103-12 11-25 20-29 20-20 0-223 210-223 230 0 6-3 10-7 10-5 0-13 10-19 23-7 12-33 64-59 115-47 93-54 111-81 211-33 122-24 431 16 526 4 11 21 57 36 102 15 46 36 92 46 103 10 10 18 23 18 27 0 27 195 271 207 259 3-2 17 9 32 25 16 16 31 29 35 29s16 9 28 19c80 76 290 149 458 161 153 11 192 11 185 0zm-535-64c0-2-39-27-87-57-48-29-120-84-160-122-86-82-99-80-15 2 89 89 262 205 262 177zm1e3 -94c29-25 18-20-42 19-98 63-118 82-48 43 29-16 70-44 90-62zm151-132c18-19 40-48 48-65 11-22 0-14-41 30-61 66-94 112-59 85 10-8 34-31 52-50zm-1538-66c0-3-13-23-30-43-16-21-48-72-70-114-42-78-57-98-40-51 33 87 140 246 140 208zm1697-172c8-18 13-35 10-38-5-5-74 117-85 151-7 19 59-80 75-113zm34-873c-11-24-20-41-20-37-1 12 31 89 35 85 3-2-4-24-15-48zm-1762-216c33-49 79-107 102-130 23-24 38-43 32-43-22 0-203 226-203 255 0 14 14-2 69-82zm1620-51c-21-29-74-88-87-96-16-10-15-1 1 16 7 7 30 34 51 61 37 45 63 60 35 19zm-206-206c-28-24-175-107-161-91 4 4 43 32 85 61 80 54 127 73 76 30zm-925-123c24-8 41-17 38-20-7-7-77 17-101 35l-20 14 20-7c11-4 39-14 63-22zm590-33c-9-6-38-12-65-15l-48-4 44 9c24 5 46 12 49 15s12 5 21 5c14-1 14-2-1-10z"/><path d="m1704 1763c-31-4-164-128-164-152 0-5-3-11-7-13-5-1-25-23-47-48-21-25-66-74-100-110-33-36-78-86-99-110-62-72-168-180-178-180-4 0-12 6-16 14-7 13-75 88-174 194-79 83-176 81-230-6-28-44-26-182 2-182 5 0 9-5 9-11s6-16 13-23c60-63 107-116 107-121 0-3 19-26 41-50 23-25 49-55 57-67 9-13 37-45 64-73l47-50h73c40 0 80 2 88 5 15 5 101 90 150 148 37 44 179 200 227 249 22 24 39 43 35 43-3 0 28 35 69 78 41 42 97 104 124 136 28 33 55 64 61 71 23 22 37 108 25 150-23 85-82 121-177 108zm86-43c28-15 60-74 60-111 0-44-20-75-116-180-44-47-171-189-284-315-288-321-280-314-324-314-54 0-83 20-161 111-38 44-112 129-163 188-118 135-129 182-61 251 54 54 85 45 171-52 40-46 101-112 135-147 75-76 69-78 183 51 404 460 470 528 507 528 19 0 43-4 53-10z"/></g></svg>
