<svg fill-rule="evenodd" stroke-linecap="round" stroke-linejoin="round" viewBox="0 0 256 256" xmlns="http://www.w3.org/2000/svg"><g transform="translate(0 256) scale(.1 -.1)" fill="currentColor"><path d="m1240 2212c-89-61-81-186 15-222 51-19 85-12 122 25 97 97-26 273-137 197zm109-48c59-50 20-144-59-144-29 0-80 48-80 75 0 30 21 65 47 79 40 22 57 20 92-10z"/><path d="m575 2119c-185-62-193-72-107-162 33-34 81-84 107-112 30-31 41-39 31-22-17 28-17 28 2 18 25-13 34-35 20-49-7-7-4-17 10-33 12-12 19-26 16-31-3-4-1-8 3-8 10 0 49-62 45-72-1-5 2-8 8-8 5 0 10-6 10-14s3-16 8-18c11-5 42-64 42-82 0-9 4-16 10-16 5 0 12-16 16-35 3-19 10-32 15-29s9-4 9-15 4-22 9-26c6-3 13-27 16-53 4-26 10-56 15-67s11-36 15-56c12-75 59-75 72-1 27 155-5 430-65 566-12 27-22 55-22 62 0 8-5 14-11 14s-8 7-5 16c3 8 2 12-4 9s-10 3-10 14c0 12-4 21-10 21-5 0-10 5-10 11 0 14-81 138-113 172-31 32-43 33-122 6zm151-121c89-133 156-309 173-450 25-213 13-275-28-142-50 160-172 363-315 526-90 102-94 108-73 108 7 0 46 13 87 29 88 34 86 35 156-71z"/><path d="m2e3 1917c-58-39-81-59-164-142-106-105-158-183-238-362-10-23-3-43 16-43 7 0 30 35 51 78 22 42 42 79 46 82 3 3 17 23 32 45 62 94 200 239 268 280 54 34 62 43 49 67-13 23-19 23-60-5zm29-20c-25-24-79-59-84-54-3 3 14 19 38 36 44 31 70 41 46 18zm-208-184c-62-69-68-73-36-28 28 39 63 75 73 75 3 0-14-21-37-47z"/><path d="m1314 1587c-24-29-39-53-60-94-9-18-21-33-26-33s-6-5-3-10c4-6 2-16-3-23-13-17-62-160-62-181 0-9-3-15-7-13-5 3-9-5-9-16-1-12-8-60-17-107-17-86-11-114 16-91 8 6 19 37 26 69 31 154 95 320 176 458 31 51 6 84-31 41z"/><path d="m2075 1542c-97-54-104-147-19-241 49-54 100-62 170-26 142 72 177 197 74 268-34 23-182 23-225-1zm204-30c57-29 70-63 40-106-31-46-152-126-179-119-29 8-97 89-105 124-18 81 150 150 244 101z"/><path d="m261 1352c-13-24-10-26 76-67 35-17 63-33 63-37 0-5 6-8 13-8 13 0 62-36 105-77 12-13 27-23 31-23 5 0 17-12 27-26 10-15 28-36 40-48 34-35 84-103 84-115 0-6 5-11 10-11 6 0 10-5 10-11s7-17 15-25c8-9 15-24 15-35s5-17 10-14c6 3 10 0 10-8s7-28 15-43c8-16 15-37 15-46 0-10 5-18 10-18 6 0 10-9 10-19 0-11 5-23 11-26 6-4 8-13 5-21s-2-14 2-14 13-20 20-45c12-47 17-51 41-36 12 8 13 16 2 53-23 83-74 233-80 238-3 3-15 21-25 40-47 87-129 200-180 248-31 29-56 58-56 63 0 6-4 8-8 5-5-3-25 9-44 27s-37 32-39 33c-20 5-69 37-69 45 0 6-4 8-9 5s-21 1-37 8c-55 27-81 30-93 8zm269-141c40-31 149-151 137-151-2 0-35 30-73 66-59 56-142 125-210 172-11 7 8-2 41-19 33-18 80-48 105-68zm246-304c14-27 23-51 21-53-5-6-80 112-90 141-11 33 41-34 69-88z"/><path d="m1755 1191c-3-5-19-12-35-16-17-4-30-10-30-14 0-3-12-12-27-18-85-37-323-282-323-333 0-6-4-8-10-5-5 3-10 0-10-7s-7-26-16-43c-30-57-74-176-74-200 0-13-4-27-10-30-5-3-10-22-10-41s-3-33-7-31c-13 8-8-102 5-115 10-10 17-7 37 14 14 15 25 30 25 33 0 25 230 285 252 285 7 0 43 28 74 58 7 6 16 12 21 12s26 12 46 26c21 14 41 23 44 20 3-2 14 4 26 15 11 10 28 19 37 19s20 4 26 9c15 14 163 63 172 57 17-10 36 42 22 59-7 8-9 15-4 15s4 4-2 8-37 46-68 94c-32 48-69 99-83 113-26 25-67 33-78 16zm122-161c32-47 58-89 58-93 0-5-39-21-86-36-91-30-229-98-276-138l-28-24 50 12-24-20c-24-22-47-28-36-11 33 53-136-89-207-176-86-102-90-101-52 12 80 241 233 439 430 556l79 47 17-22c10-12 44-60 75-107z"/><path d="m393 798c-22-27-43-78-43-102 0-27-3-28-85-41-22-4-50-16-62-27l-22-20 22-34c12-19 27-34 32-34 35 0 65-51 65-111 0-38-4-58-10-54-15 9-12-15 4-31 18-17 68-18 84-2 7 7 12 9 12 5s10 1 22 13c12 11 32 20 44 20 25 0 87-24 80-31-3-3 10-3 29-1 52 6 59 21 45 94l-13 63 42 59c46 67 48 76 23 99-21 19-117 24-127 7-11-17-32-11-38 11-4 16-3 18 9 8 11-9 14-8 14 5 0 9-4 16-10 16-5 0-10 6-10 14s-4 16-8 18c-5 2-15 17-23 33-16 33-58 46-76 23zm72-93c32-60 38-64 108-66 56-3 62-21 21-60-42-39-45-52-30-118 17-73 11-79-50-52s-80 26-121-5c-51-38-65-27-57 44l6 58-47 43c-53 49-53 67 2 76 64 10 70 17 102 98 20 50 31 47 66-18z"/><path d="m1689 484c-7-9-16-37-19-63-7-60 23-91 87-91 73 0 105 69 63 138-18 29-24 32-69 32-32 0-53-5-62-16zm103-21c27-31 30-57 8-81-42-44-119-10-105 46 12 50 67 69 97 35z"/></g></svg>
