<svg fill-rule="evenodd" stroke-linecap="round" stroke-linejoin="round" viewBox="0 0 256 256" xmlns="http://www.w3.org/2000/svg"><g transform="translate(0 256) scale(.1 -.1)" fill="currentColor"><path d="m365 2091c-84-21-148-84-165-163-15-72-14-1234 2-1296 17-68 87-135 153-148 30-5 422-7 965-4l915 5 35 24c19 14 38 31 43 38 4 6 13 18 20 25 34 33 37 102 37 720 0 594-3 669-31 702-5 6-17 21-27 33-10 11-38 32-62 45l-45 23-905 2c-498 0-918-2-935-6zm1838-22c40-11 127-86 127-110 0-8-18 7-40 33-67 77-8 73-1e3 73-838 0-902-1-934-18-19-9-36-15-39-12-4 4 25 19 78 38 29 11 1783 7 1823-4zm12-45c35-16 76-57 89-89 12-28 16-1231 4-1278-5-21-21-51-35-67-56-63-3-60-988-60h-898l-44 22c-94 47-88-5-90 723l-3 640 23 40c12 22 40 50 62 62l40 23h903c799 0 908-2 937-16zm132-261c-2-16-4-5-4 22 0 28 2 40 4 28 2-13 2-35 0-50zm-2058-1195c39-37 39-49 1-28-29 16-58 62-65 105l-6 40 15-40c8-22 33-57 55-77zm1464-65c-238-2-628-2-865 0-238 1-44 2 432 2s670-1 433-2z"/><path d="m498 1701-33-29v-395-395l25-21c14-11 39-21 55-21 26-1 27-3 10-10-12-5 110-8 290-7 306 1 307 1 100 7l-210 6 223 2c206 2 223 3 242 22 30 30 31 41 28 438l-3 374-65 58h-315-315l-32-29zm668-46c11-15 14-91 14-375 0-342-1-358-20-375-33-30-587-33-624-4l-26 20v350c0 365 2 383 43 398 12 5 152 8 311 6 268-2 290-3 302-20z"/><path d="m1440 1275c-10-12-10-18 0-30 20-24 628-18 644 7 5 9 7 20 3 24-16 16-634 15-647-1zm565-15c-4-6-60-10-135-10s-131 4-135 10 43 10 135 10 139-4 135-10z"/><path d="m1446 968c-17-23-20-55-10-82 11-27 24-17 24 17 0 50 28 71 81 62 29-5 40-4 35 4-5 7 2 11 16 11 18 0 20-2 8-10-10-6 47-10 171-10 199 0 209-2 209-52 0-15 5-28 10-28 14 0 12 84-2 98-9 9-83 12-269 12-255 0-258 0-273-22z"/></g></svg>
