<svg fill-rule="evenodd" stroke-linecap="round" stroke-linejoin="round" viewBox="0 0 256 256" xmlns="http://www.w3.org/2000/svg"><g transform="translate(0 256) scale(.1 -.1)" fill="currentColor"><path d="m364 2144c-24-9-61-35-86-62-83-87-79-48-75-817 4-689 5-715 19-715 4 0 8-5 8-10 0-15 44-66 82-95 59-46 47-46 818-42 399 1 734 5 745 7 17 4 63 42 130 107 7 7 15 9 19 6 3-4 6-1 6 5 0 17 37 52 46 44 4-4 4-2 1 4-8 13 16 37 26 27 4-3 7-2 7 3 0 14 229 241 237 235 3-3 3 0-1 7s-3 18 2 25 12 30 15 52c9 56 10 983 2 1e3 -21 96-78 169-155 198-64 24-1779 25-1846 1zm469-11c-73-2-193-2-266 0-72 1-13 3 133 3s205-2 133-3zm240 0c-13-2-35-2-50 0-16 2-5 4 22 4 28 0 40-2 28-4zm395 0c-32-2-84-2-115 0-32 2-6 3 57 3s89-1 58-3zm535 0c-83-2-223-2-310 0-87 1-18 3 152 3 171 0 242-2 158-3zm303-99c14-24 24-48 20-51-3-4-6-1-6 6s-24 37-52 68c-48 50-50 54-21 39 18-9 44-37 59-62zm-112 51c49-23 91-74 110-129 22-69 25-956 2-975-10-8-67-10-200-6-323 10-334 0-338-307l-3-203-682-3c-439-1-683 1-683 8 0 5-7 7-15 4-19-8-119 92-111 111 3 8 1 15-4 15-19 0-13 1334 5 1378 21 49 52 81 100 103 56 26 1765 29 1819 4zm-2e3 -942c0-21-5-45-10-53-7-11-10 0-10 38 0 28 5 52 10 52 6 0 10-17 10-37zm2052-243c-8-33-358-384-416-417-45-26-46-24-46 178 0 204 4 223 49 242 40 17 417 13 413-3zm8-61c0-11-207-214-256-251-16-11 34 43 111 120 149 151 145 148 145 131zm-499-127c1-34-1-65-4-69-4-3-7 27-7 67 0 88 8 90 11 2zm-1490-217c40-36 42-43 8-24-25 13-79 87-79 108 0 9 8 1 16-16 9-18 34-49 55-68z"/><path d="m695 1800-129-5-22-32c-21-31-22-43-22-265v-232l58-56h217c156 1 223 4 234 13 35 27 39 53 39 282 0 300 5 291-160 297-47 2-143 1-215-2zm316-59c17-21 19-42 19-237 0-277 21-254-229-254-256 0-235-23-234 253 0 228 2 240 48 257 11 4 100 7 199 6 174-1 178-2 197-25z"/><path d="m1311 1723c-12-9-14-16-5-30 17-27 636-33 666-7 17 16 17 18 1 37-17 18-32 19-331 16-227-3-319-7-331-16zm126-20c-20-2-52-2-70 0-17 2 0 4 38 4 39 0 53-2 32-4zm416 0c-23-2-64-2-90 0s-7 3 42 3c50 0 71-1 48-3z"/><path d="m1310 1360c-12-7-12-13-4-27 15-24 645-33 669-9 12 12 12 16-3 29-20 18-635 25-662 7zm158-17c-15-2-42-2-60 0s-6 4 27 4 48-2 33-4zm190 0c-21-2-57-2-80 0-24 2-7 4 37 4s63-2 43-4zm292-1c0-4-17-6-37-4-65 6-70 10-15 11 28 0 52-3 52-7z"/><path d="m590 890c-37-4-45-9-45-25 0-20 7-20 460-20h460l3 23c2 12 0 22-5 22-4 0-192 1-418 3-225 1-430 0-455-3zm513-27c-84-2-222-2-305 0-84 1-16 3 152 3s236-2 153-3z"/></g></svg>
