<svg fill-rule="evenodd" stroke-linecap="round" stroke-linejoin="round" viewBox="0 0 256 256" xmlns="http://www.w3.org/2000/svg"><g transform="translate(0 256) scale(.1 -.1)" fill="currentColor"><path d="m1e3 2083c-5-10-8-21-7-25s2-56 3-117c1-91 4-112 18-126 32-28 39 0 31 134-8 126-26 179-45 134z"/><path d="m1450 2e3c-11-24-20-49-20-55 0-7-4-13-9-13-6 0-10-8-9-17 0-10-9-44-20-75-18-49-18-58-6-69 21-17 40 4 55 62 7 27 17 49 21 49 5 0 7 4 4 8-2 4 4 35 15 67 29 89 5 122-31 43z"/><path d="m593 2e3c-12-15-13-48-2-48 7 0 33-60 30-72 0-5 3-8 8-8s12-13 16-30c4-16 11-30 17-30s8-3 5-7c-9-9 23-43 40-43 25 0 24 26-1 75-15 26-26 56-26 66 0 9-4 19-8 21s-17 21-28 42c-23 44-36 53-51 34z"/><path d="m2054 1943c-25-111-41-151-78-192-24-26-63-45-86-42-8 2-11-1-7-5 5-5-11-14-35-19-66-16-59-42 19-70 117-42 169-104 180-214 8-68 24-89 53-68 11 7 17 16 15 19-3 3 2 38 11 78 19 84 82 161 143 175 30 6 58 18 88 38 22 14 2 35-38 42-21 4-39 11-39 16s-3 8-7 7c-15-4-53 13-53 23 0 6-4 8-9 4-24-14-118 181-97 202 8 8-21 33-38 33-9 0-18-12-22-27zm112-224c21-21 50-41 65-44 40-9 45-23 12-36-68-26-127-98-147-182-7-30-26-28-26 4 0 57-65 137-137 169-53 23-53 26-3 46s96 72 127 143l24 55 24-59c13-32 41-75 61-96z"/><path d="m954 1561c-10-11-108-32-142-32-13 1-21-3-18-8s-9-12-27-15-51-15-72-26c-22-11-45-20-52-20s-13-4-13-8c0-8-27-24-55-32-5-2-15-8-22-14-27-24-40-34-59-44-32-17-164-144-210-202-56-70-55-69-83-108l-23-32 23-38c13-20 25-39 29-42 3-3 25-30 50-60 61-75 128-140 203-195 34-25 70-53 80-61 9-8 19-14 21-14s46-20 98-45c51-25 100-45 109-45s19-3 23-7c3-4 14-8 24-9 9-2 55-10 102-18 157-28 292-20 455 29 44 13 84 23 88 22s11 3 15 8c4 6 42 28 86 50 43 22 90 50 105 62 14 13 30 23 35 23 11 0 226 218 226 230 0 4 7 15 15 24 43 42 46 126 7 156-4 3-20 23-36 45-32 44-203 215-214 215-6 0-34 21-82 62-8 7-17 12-20 12-10-2-50 19-50 28 0 4-3 7-7 6-5-1-21 4-36 10-16 7-33 12-38 12s-9 4-9 9-16 12-35 15c-19 4-35 10-35 14s-8 8-17 9c-10 1-47 9-83 19-72 18-340 30-356 15zm314-56c270-61 463-187 639-413l57-73-19-31c-19-33-27-43-89-117-106-125-270-240-428-299-226-84-461-78-683 17-65 28-159 78-176 94-10 10-19 15-19 11 0-27-236 203-282 275-37 59-38 55 43 152 99 117 175 187 248 229 14 8 28 18 31 22 8 10 140 74 192 94 176 65 323 77 486 39z"/><path d="m1e3 1428c-33-4-66-8-72-9-7-1-13-6-13-11 0-4-7-8-15-8-36 0-113-66-195-167-5-7-15-32-22-57-7-26-15-46-19-46s-7-52-7-115 4-115 8-115 11-16 14-35c4-19 11-35 16-35s12-10 16-22c23-72 153-164 268-188 55-11 186-10 186 1 0 4 18 9 40 13 22 3 40 10 40 15s11 12 26 15c60 15 184 180 184 245 0 12 4 20 9 17s9 42 9 99c0 59-4 102-9 99s-9 4-9 15-5 32-11 48c-6 15-9 28-7 28 9 1-122 137-153 160-60 44-182 67-284 53zm223-72c284-146 274-539-17-675-84-39-212-37-296 4-179 86-258 294-185 480 30 78 125 174 201 204 81 32 223 26 297-13z"/><path d="m1e3 1210c-170-51-178-296-13-371 145-66 310 85 261 239-7 22-36 31-36 12 0-18-39-11-65 12-29 25-31 45-10 75 14 20 13 22-17 32-35 13-81 13-120 1z"/></g></svg>
