<svg fill-rule="evenodd" stroke-linecap="round" stroke-linejoin="round" viewBox="0 0 256 256" xmlns="http://www.w3.org/2000/svg"><g transform="translate(0 256) scale(.1 -.1)" fill="currentColor"><path d="m927 2350c-16-5-35-6-43-3s-14 1-14-5c0-9-55-27-72-23-5 0-8-3-8-9 0-5-5-10-10-10-18 0-112-74-158-124-24-25-41-46-37-46 3 0-5-17-18-37-29-47-57-127-57-164 0-15-4-31-10-34-12-8-13-92-1-99 7-5 19-62 24-118 1-10 4-18 8-18s10-13 14-30c4-16 10-30 15-30s10-7 12-15c3-17 109-143 120-144 4-1 26-14 50-30 84-56 160-75 293-75 89 1 130 5 159 17 21 9 42 14 47 11s9 0 9 5c0 6 5 11 11 11s31 14 56 30c24 17 48 30 54 30 5 0 9 3 9 8 0 4 18 25 39 47 60 63 94 134 137 282 1 7 26 13 56 15 69 4 68 22-2 28l-55 5-6 70c-6 70-48 196-76 223-7 7-13 18-13 23 0 11-108 119-119 119-4 0-16 9-26 20s-24 20-32 20c-7 0-13 4-13 8 0 5-6 9-12 10-7 0-46 10-87 21-77 22-192 27-244 11zm248-62c329-107 433-507 197-759-255-273-712-154-806 208-90 348 260 665 609 551z"/><path d="m854 2e3c-10-24 6-36 160-115 80-41 146-79 146-85-1-5-69-45-153-87-115-58-153-81-155-97-6-35 24-35 90 2 35 19 113 61 173 92 130 67 154 87 136 109-16 19-357 196-378 196-7 0-16-7-19-15z"/><path d="m1767 1813c-17-16-3-23 48-23 42 0 55 3 55 15 0 16-89 23-103 8z"/><path d="m2e3 1800c0-6 8-13 18-17 26-9 52-34 46-44-8-13 10-11 24 3 9 9 6 18-15 40-26 27-73 39-73 18z"/><path d="m2e3 1595c0-40 4-55 12-53 7 3 12 24 12 53s-5 50-12 53c-8 2-12-13-12-53z"/><path d="m2e3 1400c0-45 3-61 13-58 17 6 19 94 1 109-12 10-14 1-14-51z"/><path d="m2e3 1213c-34-36-35-43-5-47 20-3 64 43 64 68s-22 17-59-21z"/><path d="m1310 1220c-154-21-299-125-377-268-13-22-23-48-23-56 0-9-4-16-8-16-20 0-25-315-6-328 7-4 15-22 19-39 3-18 10-33 15-33 4 0 10-8 14-17 28-85 211-233 287-233 10 0 19-3 19-7 0-20 297-25 309-5 3 5 23 13 44 17 20 4 37 11 37 16s6 9 14 9c7 0 19 7 26 15 7 9 15 13 18 11 10-11 139 134 164 185 54 107 58 126 58 245 0 63-4 122-9 132-5 9-19 44-32 77-22 58-42 87-105 149-49 49-80 73-103 81-12 3-21 10-21 14 0 30-239 66-340 51zm250-66c238-79 373-355 291-593-106-306-503-414-758-205-312 255-177 740 227 818 48 9 186-2 240-20z"/><path d="m1490 894c-25-14-101-55-170-91-138-72-153-83-145-104 5-14 346-201 377-207 26-5 35 28 12 42-22 13-249 134-281 150-13 6-23 16-23 23 0 9 210 125 280 154 23 10 43 37 35 49-10 16-37 12-85-16z"/><path d="m518 889c-10-5-23-19-29-31-18-33 9-41 38-12 13 13 28 24 33 24 6 0 10 7 10 15 0 17-27 19-52 4z"/><path d="m482 723c-12-20 34-63 67-63 27 0 28 27 1 35-11 3-20 10-20 15 0 20-39 31-48 13z"/><path d="m666 681c-14-22 7-41 44-41 25 0 40 5 44 16 10 25-2 34-44 34-21 0-41-4-44-9z"/></g></svg>
