<svg fill-rule="evenodd" stroke-linecap="round" stroke-linejoin="round" viewBox="0 0 256 256" xmlns="http://www.w3.org/2000/svg"><g transform="translate(0 256) scale(.1 -.1)" fill="currentColor"><path d="m1585 2363c-179-2-303-7-309-13-13-13-46-13-46 0 0 7-167 10-481 10h-480l-30-28c-24-22-32-40-38-87-13-99 2-938 17-943 16-5 16-39 0-45-10-3-13-109-13-488 0-516 2-538 49-545 10-1 23-7 29-13 15-15 913-15 922-1 4 6 10 8 15 5 4-3 13 2 20 10 16 19 39 19 46 0 4-8 11-12 16-9 6 4 13 2 17-3 4-7 125-7 346-2 187 4 405 8 483 8l144 1 58 62v482c0 456-1 482-19 506-19 24-19 25 0 51 18 26 19 50 19 473 0 433-6 526-32 526-5 0-8 6-8 14 0 24-92 36-263 34-89-2-297-4-462-5zm-365-72c5-11 10-78 10-149 0-146 6-159 62-147 119 25 169 13 206-47 45-75 40-158-15-219-44-48-84-57-153-34-40 13-57 15-76 6-24-11-24-11-24-184 0-123-4-178-12-189-10-13-41-18-153-23-162-7-176-3-157 48 28 77 8 154-52 204-163 134-418-18-341-204 21-49 13-53-122-53-104 0-113 1-127 22-24 34-24 949 0 972 14 14 71 16 479 16 449 0 465-1 475-19zm1054-3c25-35 24-923-1-950-14-16-33-18-163-18-166 0-178-4-166-62 26-124 14-169-56-208-135-76-289 54-222 189 14 29 14 34 0 56-16 25-17 25-184 25-221 0-207-11-207 167 0 171 2 177 49 158 188-79 343 196 201 354-57 63-122 80-216 56-31-8-39 20-39 143 0 124-53 112 505 112h484l15-22zm-1483-748c74-38 95-102 62-192-16-45-16-48 2-68 17-19 30-20 187-20 151 0 169-2 175-17 16-40 9-288-7-283-103 31-208-4-255-84-102-175 37-395 216-343 29 9 55 14 58 12 10-11-1-270-12-277-7-4-218-8-469-8h-457l-15 22c-14 20-16 83-16 490 0 452 1 468 19 478 11 5 81 10 155 10 157 0 170 7 141 77-63 150 72 276 216 203zm818-269c12-8 13-16 3-49-41-137 41-241 191-242 154 0 237 102 195 242-16 54-8 58 139 58 179 0 163 51 163-513 0-459 0-461-22-484l-21-23h-473-473l-12 22c-8 14-14 77-15 161-2 76-6 142-9 147-9 15-48 12-91-6-129-54-250 87-200 231 31 88 111 129 197 101 93-31 92-33 90 158-3 208-12 200 229 204 52 1 101-2 109-7z"/></g></svg>
