<svg fill-rule="evenodd" stroke-linecap="round" stroke-linejoin="round" viewBox="0 0 256 256" xmlns="http://www.w3.org/2000/svg"><g transform="translate(0 256) scale(.1 -.1)" fill="currentColor"><path d="m1612 2348c-9-9-12-88-12-292 0-155-4-286-8-292s-24-17-45-24c-42-13-84-50-107-96l-16-29-269-6c-360-8-484-24-612-80-24-11-45-19-48-19-13 0-115-109-115-123 0-8-6-17-12-19-23-8-17-167 7-203 34-52 119-125 144-125 6 0 11-5 11-10 0-6 3-9 8-8 6 2 79-20 172-50 8-2 26-6 40-7 14-2 77-11 140-20s134-19 158-22c23-3 42-8 42-13 0-4 11-5 25-2 14 2 31 0 38-5 6-6 32-13 57-17 51-8 100-27 100-39 0-5 4-6 9-3 5 4 28-11 50-32 58-54 58-96 0-146-23-19-46-33-50-30-5 3-9 1-9-3 0-12-89-35-102-27-6 4-8 3-5-3 8-12-165-34-212-26-24 4-32 2-27-6 14-22-271-15-300 8-13 10-20 22-16 26s0 6-8 5c-21-3-61 11-56 19 8 12-132 4-166-10-37-14-98-73-98-94 0-7-6-15-12-17-18-6-18-180 0-185 6-3 12-10 12-16 1-16 39-58 73-80 38-24 120-37 169-25 46 10 138 67 138 85 0 6 6 18 13 25 6 7 13 22 15 33 13 92 14 106 2 120-30 36-7 45 127 46 150 1 288 12 358 29 134 31 245 107 245 166 0 12 6 25 13 28 10 5 10 7 0 12-7 3-13 17-13 31 0 31-74 109-113 118-15 4-24 11-21 16s-1 6-9 3-18-1-22 5c-3 6-17 11-31 11s-33 4-43 9c-10 6-80 20-157 31-349 54-530 104-598 168-33 31-66 96-66 132 0 56 81 180 117 180 7 0 13 4 13 8 0 18 198 72 315 86 105 13 384 22 528 18 46-2 47-3 47-34 1-18 7-44 15-58 26-46 24-47-142-54-306-11-403-45-403-140 0-25 66-103 78-92 3 3 10 1 17-4 6-5 45-15 86-21 135-20 273-39 377-50 56-7 102-16 102-22 0-5 6-7 13-4 15 5 166-17 222-34 151-45 277-93 309-120 6-5 24-19 40-31 60-45 86-95 86-165 0-40-4-62-10-58-5 3-7 0-4-9 6-16-102-136-123-136-11 0-18 14-10 23 1 2-5 10-13 19s-22 26-30 38c-19 29-84 70-110 70-11 0-20 4-20 8 0 12-99-10-136-30-97-52-137-205-76-288 12-16 22-31 22-34 0-13-175-50-193-40-7 4-8 3-4-2 11-11-182-34-243-28-33 3-40 2-25-5 13-6-52-10-195-10-142-1-210 3-200 9 11 7 1 10-35 9-37 0-45-3-30-9 18-8 17-9-6-9-25-1-47-26-34-39 3-3 105-7 228-10 281-5 495 14 663 59 116 31 133 33 159 19 21-11 111-11 155 1 32 9 108 95 119 136 8 29 21 47 49 65 81 54 146 143 158 216 7 44-10 136-29 158-6 7-25 31-42 52-16 22-42 44-56 51-14 6-34 19-45 29-10 10-23 20-29 21-25 8-62 22-80 31-33 16-104 37-200 60-49 11-108 26-130 32s-74 14-115 18c-480 50-617 84-594 145 8 20 70 49 85 39 7-4 9-3 6 3-8 13 282 37 369 30 45-3 57-3 34 2l-35 8 40 2c22 0 53-6 69-14 38-20 148-20 186 0 17 9 30 13 30 10 0-18 59 67 73 105 21 57 21 70 0 136-19 63-62 108-118 126l-40 13v60c0 73 8 76 151 50 85-15 101-15 205-1 164 23 159 16 159 245 0 208 1 206-85 190-78-15-156-3-298 48-47 16-159 17-175 1zm20-135c-4-211-8-231-10-55-1 94 1 172 6 172 4 0 6-53 4-117zm217 97c42-11 105-26 141-34 63-14 64-14 21-15-48-1-129 18-206 48-64 26-51 26 44 1zm-7-36c62-21 106-28 173-30l90-2 6-302-28-11c-46-18-190-21-313-7l-115 14-3 174c-1 96 0 181 3 189 8 19 82 9 187-25zm308-185c0-44-4-68-10-64-17 10-11 135 6 135 2 0 4-32 4-71zm-523-271c-2-24-4-7-4 37s2 63 4 43c2-21 2-57 0-80zm418 72c-3-5-27-9-53-8l-47 1 50 7c28 4 51 8 53 8 2 1 0-2-3-8zm-355-212c132-68 83-277-65-278-163-1-201 253-43 290 52 12 61 11 108-12zm-185-4c-44-44-56-134-31-224 4-14-1-5-12 20s-23 59-28 75c-9 29-11 30-89 35l-80 5 47 9c27 4 63 5 81 2 26-5 35-2 47 15 30 44 62 79 72 79 5 0 2-7-7-16zm304-129c0-16-9-46-19-65-20-34-20-34-13-5 5 17 8 59 7 94 0 61 1 63 13 35 6-16 12-42 12-59zm-736 38c-13-2-35-2-50 0-16 2-5 4 22 4 28 0 40-2 28-4zm-163-9c-38-8-90-9-90-2 0 4 24 7 53 7 28-1 45-3 37-5zm-365-82c-70-38-113-79-141-132-12-25-23-39-24-32-2 56 140 192 200 192 8 0-8-13-35-28zm1177-93c-18-12-54-23-80-25l-47-3 48 9c27 5 58 15 70 24 12 8 27 15 32 15 6 1-5-9-23-20zm-317-8c-16-4-55-4-85-1-50 7-48 7 30 8 54 0 74-3 55-7zm-369-27c-27-9-61-22-75-30l-26-16 24 19c29 22 79 41 106 42 11 0-2-7-29-15zm164-190c60-6 119-23 80-23-35 0-191 27-198 34-4 4 7 5 23 2 17-3 59-9 95-13zm-687-91c16-8 26-17 23-20-9-10-90 44-113 76-34 45-28 46 19 0 23-22 55-47 71-56zm1269 1c20-3 54-13 75-20l38-15-40 6c-50 8-145 35-145 41 0 3 8 3 18 0 9-3 34-8 54-12zm-822-115c47-6 88-14 93-18 11-11-140 8-198 25-34 9-39 12-15 9 19-3 73-10 120-16zm1236-83c24-26 44-56 43-65 0-13-2-12-12 4-7 11-41 49-77 84-50 50-57 60-31 45 18-10 53-41 77-68zm-883 4c23-10 56-31 72-45l30-25-40 22c-21 13-62 33-90 45-27 12-42 22-32 23 10 0 37-9 60-20zm107-219c-13-26-78-68-117-77-18-4-9 4 26 22 29 16 63 41 75 55 24 30 33 30 16 0zm348-41c-9-6-28-25-42-43-14-17-26-29-26-25 0 13 62 78 74 78 6 0 3-5-6-10zm180-20c169-103 13-363-159-264-90 52-94 211-6 264 43 27 121 26 165 0zm272 10c0-13-61-82-68-76-3 3 10 23 29 45 38 44 39 45 39 31zm-1473-82c49-1 52-2 16-5-28-3-47-11-56-24-13-18-14-18-25 6-6 13-23 31-37 41-14 9-25 21-25 26 0 6 15-1 34-16 27-20 47-26 93-28zm-160 25c89-42 116-157 59-244-88-132-296-65-296 96 0 123 125 202 237 148zm1449-170c-10-28-50-70-76-78-17-5-12 2 18 30 23 20 44 46 47 57 4 11 9 17 12 15 3-3 2-14-1-24zm-308-86c-23-10-46-16-52-13-6 2-4 5 4 5 9 1 23 10 33 21 16 19 16 23 1 53-16 31-15 31 19-8l35-40-40-18zm-323-68c-22-4-56-8-75-7h-35l30 8c17 4 50 8 75 8h45l-40-9zm-253-16c-40-2-103-2-140 0s-4 3 73 3 107-2 67-3z"/><path d="m1583 1945c0-38 2-53 4-32 2 20 2 52 0 70-2 17-4 1-4-38z"/></g></svg>
