<svg fill-rule="evenodd" stroke-linecap="round" stroke-linejoin="round" viewBox="0 0 256 256" xmlns="http://www.w3.org/2000/svg"><g transform="translate(0 256) scale(.1 -.1)" fill="currentColor"><path d="m449 2341c-14-15-24-32-21-39 2-7-1-12-7-12-19 0-15-370 5-408 38-76-1-72 637-72h570l67 51v228 228l-52 48-1173 3-26-27zm1185-37c14-13 16-47 16-214 0-194-1-199-22-214-34-24-1109-24-1132 0-19 19-17-7-22 215-4 176-3 187 17 207l20 22h554c490 0 555-2 569-16z"/><path d="m1584 1642c-41-35-43-50-44-333-1-297 3-319 59-327 12-2 19-8 16-13-4-5 99-9 259-9 171 0 266 4 266 10s7 10 16 10c19 0 40 23 55 60 12 28 14 514 3 546-4 10-18 31-32 47l-26 27h-275c-248-1-278-2-297-18zm569-62c18-26 14-514-4-536-19-23-516-20-541 3s-28 494-2 531c15 22 18 22 274 22 247 0 259-1 273-20z"/><path d="m398 1614c-15-8-32-23-38-34-14-26-14-1068 0-1085 5-7 8-15 5-18-3-4-2-5 1-2 4 2 16-2 28-10 16-12 55-15 170-15 203 0 186-30 186 323 0 184 4 293 12 318 12 42 70 109 93 109 7 0 15 5 17 12 3 8 39 14 110 16 99 4 107 6 112 26 4 16 9 264 6 322 0 6-8 21-19 32-18 22-23 22-337 22-262-1-324-3-346-16zm635-50c22-8 26-269 5-277-7-2-51-5-98-6s-86-6-88-12c-2-5-9-9-16-9-25 0-99-74-117-118-17-39-19-71-19-332 0-253-2-289-16-294-30-12-262-7-270 6-13 20-12 1e3 1 1e3 6 8 19 17 30 20 26 8 567-1 588-9z"/><path d="m975 1e3c-53-29-53-30-54-267-2-236 4-279 43-296 13-6 114-8 253-5 307 7 279-22 275 283-4 265-2 257-41 280-35 21-440 25-476 5zm463-273c2-198 1-221-15-232-21-16-394-18-424-3-18 10-19 23-19 223 0 154 3 216 12 225s69 12 228 10l215-3 3-220z"/><path d="m1665 753-25-28v-240c1-255 1-255 52-288 24-15 55-17 235-17 308 0 301-7 302 313 0 128-4 217-10 217-5 0-9 6-9 14s-12 24-26 35c-25 20-39 21-260 21h-233l-26-27zm487-40c26-24 28-426 1-455-23-26-422-28-447-2-14 13-16 48-16 229s2 216 16 229c24 24 419 24 446-1z"/></g></svg>
