<svg fill-rule="evenodd" stroke-linecap="round" stroke-linejoin="round" viewBox="0 0 256 256" xmlns="http://www.w3.org/2000/svg"><g transform="translate(0 256) scale(.1 -.1)" fill="currentColor"><path d="m960 2350c-8-5-29-10-46-10-58 0-180-42-236-82-16-11-28-17-28-13 0 3-10-3-22-15-12-11-25-20-30-20-22 0-143-119-188-185-19-27-40-56-47-63s-13-20-13-28-4-14-10-14c-5 0-10-7-10-15s-5-15-11-15c-5 0-8-4-4-10 3-5 2-17-3-27-37-71-55-182-55-323 0-127 19-280 35-280 4 0 8-5 8-10 0-6 14-41 31-78 18-37 32-69 31-72 0-3 3-7 7-10 3-3 25-31 48-62 43-57 89-108 99-108 3 0 15-10 27-21 28-27 152-109 165-109 6 0 12-3 14-7 4-10 99-43 121-43 8 0 17-4 19-10 10-28 316-21 423 10 22 6 48 12 58 13 9 1 17 5 17 9s9 8 20 8 20 5 20 10c0 6 6 10 14 10s30 9 48 20l34 20 48-49c29-29 45-54 41-61-18-29 6-99 48-142 23-23 41-46 39-50-1-4 2-7 6-6 4 2 71-60 147-138 181-182 196-190 305-173 60 9 168 107 162 147-2 12 1 22 7 22 13 0 15 73 2 98-5 9-14 28-20 42-7 14-96 111-199 216-170 173-192 191-229 197-23 4-49 4-58 1-11-5-29 6-56 32-45 44-47 52-18 85 17 20 75 131 100 194 58 143 60 411 5 574-21 62-41 100-119 226-11 19-156 165-163 165-2 0-22 13-46 29-41 28-117 65-185 91-74 28-324 50-353 30zm-65-39c-6-5-26-12-45-15l-35-6 35 14c42 17 58 20 45 7zm350-31c85-24 206-84 247-122 17-15 33-28 38-28 11 0 160-162 160-175 0-3 11-22 23-43 30-46 70-155 92-247 19-76 16-200-6-305-35-171-167-375-294-455-16-11-32-22-35-25-9-11-174-88-210-99-176-51-342-34-529 56-81 38-87 42-138 91-19 17-39 32-44 32s-13 8-16 17c-4 9-22 30-40 46s-33 35-33 43-4 14-8 14c-13 0-88 140-102 190-7 25-19 65-26 89-8 27-14 89-14 153 0 360 203 648 531 753 46 15 89 28 94 30 39 13 247 3 310-15zm95 5c32-18 5-19-35 0-23 10-25 13-10 14 11 0 31-6 45-14zm-650-55c-14-11-54-41-90-66-65-46-65-46-30-9 30 31 124 95 140 95 3 0-6-9-20-20zm1e3 -220c23-30 46-66 50-80s-16 9-45 50c-28 41-66 91-83 110l-32 35 34-30c18-17 52-55 76-85zm-1256-10c-42-61-71-91-49-49 13 25 79 109 85 109 2 0-15-27-36-60zm-124-249c-7-29-16-56-19-59-10-9-7 23 5 59 6 19 13 40 15 48 12 38 11-2-1-48zm1533-161v-55l-8 50c-4 28-10 68-14 90l-6 40 14-35c8-19 14-60 14-90zm-53-366c-8-20-18-35-21-32-2 3 3 25 12 49 10 23 19 38 21 32s-3-28-12-49zm-1421-64c21-41 31-68 23-60-20 20-67 111-67 129 0 19 1 17 44-69zm1310-139c-7-35 57-120 90-121 20 0 20 0 0-15-25-19-34-19-34 3 0 26-75 96-95 88-17-6-14 1 20 47 25 33 26 33 19-2zm-1135-86c18-16 39-35 45-40 6-6 24-20 40-33 16-12 24-22 19-22-6 0-20 9-33 20s-26 20-29 20c-9 0-81 69-101 95-14 19-14 19 5 5 11-8 35-28 54-45zm1e3 -11c-52-46-59-43-11 6 21 22 41 37 44 34s-12-21-33-40zm80 28c-3-5 8-19 24-31 38-28 38-31-13-85-49-53-61-56-99-19-37 35-37 35 24 93 46 44 79 65 64 42zm284-184c156-143 288-291 295-329 17-92-96-203-186-184-23 5-77 53-199 175-265 267-257 248-144 358 98 97 108 96 234-20zm-279 18-54-54-34 31c-34 31-60 67-48 67 4 0 24-18 46-40l40-40 47 45c65 62 67 56 3-9zm-236 34c-7-12-97-52-103-46-2 3 20 16 49 30 62 29 62 29 54 16zm-395-90c21-7 19-8-15-8-22 0-51 4-65 8-21 7-19 8 15 8 22 0 51-4 65-8z"/><path d="m960 2118c-25-5-60-14-77-19-18-6-38-7-44-3-8 4-9 3-5-4 5-8 0-12-13-12-12 0-21-5-21-11s-6-9-13-6-19-4-25-14c-7-10-18-19-25-19-13 0-149-135-161-160-21-45-53-99-57-96-2 3-5-5-5-17-1-12-9-48-18-80-54-192 11-435 155-579 164-163 429-214 636-122 17 8 38 14 47 14s16 4 16 8 12 15 28 24c81 48 221 226 222 281 0 10 3 16 8 14 4-3 8 5 9 16 1 12 7 47 14 77 18 85 11 251-12 275-5 5-9 21-9 35 0 90-160 290-275 344-126 59-259 78-375 54zm272-66c387-130 494-632 196-924-158-155-397-195-596-101-64 30-178 134-222 203-177 275-68 660 226 800 138 66 247 72 396 22z"/></g></svg>
