<svg fill-rule="evenodd" stroke-linecap="round" stroke-linejoin="round" viewBox="0 0 256 256" xmlns="http://www.w3.org/2000/svg"><g transform="translate(0 256) scale(.1 -.1)" fill="currentColor"><path d="m1170 2349c-14-5-33-8-42-5-10 2-18 0-18-5s-9-9-19-9c-11 0-21-3-23-7-1-5-21-17-43-28-38-18-174-142-175-158 0-4-11-25-25-47s-25-49-25-60c0-12-3-19-7-17-15 9-18-69-17-413 0-360 3-422 16-414 4 3 8-4 8-14 0-45 132-232 163-232 3 0 25-13 49-29 140-93 375-95 521-4 20 13 37 21 37 18 0-2 27 21 59 53 32 31 57 60 55 63s6 15 16 27c11 12 20 24 20 27s9 25 19 49c37 79 42 155 37 496-5 374-5 372-17 364-5-3-9 6-9 20s-4 26-10 26c-5 0-10 7-10 16 0 71-210 264-287 264-8 0-12 3-10 8 6 8-7 10-138 17-60 3-110 1-125-6zm59-23c-2-2-26-6-54-10-34-4-43-3-30 3 19 9 93 15 84 7zm198-11c28-8 56-22 63-30 9-11-8-7-56 11-99 37-102 47-7 19zm-39-29c154-41 291-190 320-347 18-97 15-615-4-690-36-141-126-253-251-312-101-48-255-48-356 0-130 62-233 190-257 322-16 88-13 624 5 699 57 240 306 391 543 328zm-333-14c-6-5-33-25-62-45-30-22-71-66-99-107-52-77-67-86-34-19 27 53 70 97 139 143 48 33 79 48 56 28zm685-295c5-26 9-74 9-105-2-57-2-57-9 18-4 41-17 98-28 125-33 85-34 91-8 50 14-21 30-61 36-88zm-931-249c0-143-4-194-10-173-15 47-9 375 7 375 2 0 4-91 3-202zm938-135c-2-38-3-7-3 67s1 105 3 68c2-38 2-98 0-135zm3-318c-16-78-19-67-12 50 6 94 6 97 15 53 6-30 5-65-3-103zm-917-81c8-23 23-56 32-74 9-17 14-34 12-37-8-7-65 118-76 167-5 25-7 65-3 90 7 44 7 43 13-30 3-41 13-94 22-116zm858-86c-24-39-28-30-5 13 8 17 18 28 21 25s-4-20-16-38zm-654-162c72-43 105-53 228-73l50-7-38-4c-90-8-238 50-318 125-27 25-49 50-49 55s11-4 25-20c14-17 60-51 102-76zm523 15c0-12-110-68-150-75-28-6-24-2 20 17 30 13 71 33 90 45 40 25 40 25 40 13z"/><path d="m522 1359c-23-36-1-222 36-312 7-16 12-35 12-43s5-12 10-9c6 3 10 1 10-5 0-10 22-44 105-168 14-22 45-53 45-46 0 3 6-1 14-8 46-45 101-85 129-94 9-4 17-10 17-15s9-9 20-9 20-5 20-12c0-6 3-8 7-5 3 4 11 3 17-2 17-13 172-53 251-64 19-2 20-10 20-152v-150l-194-3c-217-3-250-12-205-57 15-14 61-16 441-13 233 1 429 6 435 9 6 4 8 18 4 33l-6 26h-200-201l3 153 3 152 30 3c34 3 147 29 185 42 44 15 55 17 63 16 4 0 11 4 15 10 4 5 23 18 42 27 111 55 255 201 300 304 8 17 19 29 24 26 5-4 7 1 3 10-3 9-2 19 3 22 6 4 10 15 10 26 0 10 4 19 8 19 10 0 34 131 40 218 2 38 0 62-6 62s-12 7-14 15c-3 14-5 14-25 0s-23-25-23-87c0-71-4-88-43-203-39-110-154-254-258-322-24-15-46-30-49-33-14-14-52-30-60-25-6 4-10 1-10-4 0-6-7-11-15-11s-23-4-33-9c-62-34-334-59-316-29 5 8 2 9-10 5-24-9-104 10-183 43-37 16-63 30-58 30 6 0-10 10-35 22-77 38-253 230-232 253 4 5 2 6-3 2-6-3-17 9-24 26-7 18-16 39-21 48-19 37-40 146-40 213 0 66-2 74-23 83-19 9-26 8-35-8zm1485-106c-4-47-12-91-18-97-9-8-10-7-6 5 3 9 9 53 12 98 4 44 10 81 13 81s2-39-1-87zm-1387-235c17-34 41-79 53-98l21-35-21 18c-31 27-90 145-97 192-5 31-4 34 3 13 5-14 23-55 41-90zm1315-26c-22-42-55-89-55-77 0 15 63 125 69 120 3-3-4-22-14-43zm-119-170c-50-46-56-35-9 17 21 24 39 37 42 30 2-6-13-27-33-47zm-981-66c17-12 32-23 35-27 31-34 234-107 345-123 17-3-2-3-41 0-78 4-108 13-202 55-35 16-68 29-73 29s-9 5-9 10c0 6-6 10-12 10-7 0-33 18-58 41-45 41-40 43 15 5zm840-46c-10-16-116-67-155-74-34-6-33-6 10 14 25 12 65 32 90 45 49 27 65 31 55 15zm-398-347c-2-37-3-9-3 62 0 72 1 102 3 68s2-93 0-130zm-229-140c-32-2-84-2-115 0-32 2-6 3 57 3s89-1 58-3zm495 0c-24-2-62-2-85 0-24 2-5 4 42 4s66-2 43-4z"/></g></svg>
