<svg fill-rule="evenodd" stroke-linecap="round" stroke-linejoin="round" viewBox="0 0 256 256" xmlns="http://www.w3.org/2000/svg"><g fill="none" stroke="currentColor" stroke-width="9"><path d="M34 86 C34 78 41 71 49 71 L207 71 C215 71 222 78 222 86 L222 196 C222 204 215 211 207 211 L49 211 C41 211 34 204 34 196 Z"/><line x1="34" y1="130" x2="222" y2="130"/><rect x="112" y="118" width="32" height="26" rx="5"/><line x1="128" y1="124" x2="128" y2="138"/><path d="M102 71 L102 56 C102 50 107 45 113 45 L143 45 C149 45 154 50 154 56 L154 71"/></g></svg>
