<svg fill-rule="evenodd" stroke-linecap="round" stroke-linejoin="round" viewBox="0 0 256 256" xmlns="http://www.w3.org/2000/svg"><g transform="translate(0 256) scale(.1 -.1)" fill="currentColor"><path d="m1248 2355c-3-4-43-10-89-15-149-15-416-120-495-195-6-5-25-21-43-35-76-59-231-239-231-268 0-7-4-10-10-7-5 3-10 0-10-8 0-22-36-98-43-91-3 4-5-2-5-12 1-11-6-35-15-54-46-97-69-229-69-398 0-107 4-168 11-175 6-6 11-22 11-36 0-28 29-141 40-156 4-5 11-26 15-45s10-37 14-40c12-10 41-69 41-84 0-9 5-16 10-16 6 0 10-7 10-15s4-15 9-15 12-8 16-19c16-52 235-266 311-306 22-11 41-22 44-25 5-5 39-22 126-63 28-13 79-30 113-38 33-7 61-16 61-19 0-7 34-9 218-16 91-3 152-2 152 4 0 8 77 20 153 25 9 1 17 5 17 9s9 8 20 8 28 4 38 9c25 14 56 24 65 23 4-1 7 2 7 8 0 5 9 10 20 10s20 5 20 10c0 6 5 10 10 10 6 0 28 11 50 25s40 23 40 20 8 3 19 13c10 9 29 25 42 35 33 25 203 191 201 197 0 3 9 16 21 30 13 14 23 27 23 30s19 43 42 90c75 155 112 294 84 322-17 17-52-18-52-51 0-39-25-113-35-104-4 4-5 2 0-5 4-8 3-24-3-35-5-12-18-40-27-62-25-57-124-205-137-205-6 0-9-3-5-6 7-7-92-114-105-114-5 0-21-11-36-25s-30-25-33-25c-4 0-21-14-39-30-18-17-43-33-56-36s-24-9-24-13-17-13-37-20c-21-7-51-19-68-26-53-23-97-35-106-29-5 3-9 1-9-3 0-18-113-33-253-33-81 0-147 4-147 8s-15 9-32 10c-18 2-35 7-36 12-2 6-7 8-12 5-13-8-201 61-208 77-2 5-10 8-18 8s-14 4-14 10c0 5-7 7-15 4-8-4-15-1-15 5s-5 11-11 11-16 6-23 13c-7 6-25 21-41 32-265 189-415 483-415 814 0 132 3 156 47 340 10 41 99 206 147 273 48 68 177 198 195 198 6 0 11 4 11 8 0 13 113 77 130 74 8-2 12-1 8 4-22 22 247 116 288 100 8-3 13-2 9 3-18 30 277 24 409-8 76-19 266-107 266-123 0-4 5-8 10-8 30 0 168-124 225-202 30-42 41-41 90 9 31 31 49 43 56 36 9-9 31-208 33-298 1-22 4-42 7-45 4-3 8-32 10-65l4-60-35 2c-235 12-427 26-434 33-5 5 14 33 43 64 43 45 51 58 43 73-17 29-83 88-142 125-49 31-78 46-155 79-76 32-141 41-269 36-134-5-164-12-271-63-84-39-234-160-235-188 0-5-6-17-14-25-86-100-145-380-106-505 5-17 17-59 27-93 10-35 21-63 26-63 4 0 7-5 7-10 0-47 179-250 221-250 5 0 7-5 4-10-4-6-3-10 2-8 4 1 38-12 75-30s75-32 86-32c10 0 22-4 28-10 16-16 213-23 284-10 36 7 75 13 88 14 12 0 22 4 22 8 0 3 17 12 38 19 20 6 39 15 42 18s20 15 39 25c61 34 152 118 184 168 37 59 57 99 57 114 0 8 5 12 10 9 6-3 10 3 10 15s-4 18-10 15c-5-3-10 2-10 12 0 19-59 63-85 63-38 0-86-36-119-90-32-51-114-132-122-120-2 3-9-4-17-14-9-12-19-16-27-11s-11 4-7-2c14-22-145-57-233-50-85 6-114 13-180 45-68 33-179 143-204 203-10 24-23 55-30 68-6 13-11 73-11 135 0 108 1 113 39 190 94 194 291 300 493 266 84-15 162-50 215-98 18-17 43-39 56-50 12-11 22-31 22-44 0-36 16-45 90-51 36-3 117-10 180-16 318-27 308-26 336 0 17 16 23 30 19 44-10 34-34 297-28 314 4 13 3 13-5 2-7-10-12 3-16 50-18 214-44 242-139 154-50-46-37-50-112 35-22 25-40 43-41 40s-22 14-46 36c-24 23-54 45-66 48-12 4-22 11-22 16s-10 12-22 16c-13 3-34 14-48 24-14 9-47 24-75 34-27 10-59 21-70 26-22 10-129 34-221 50-65 11-147 13-156 5zm349-70c71-23 159-64 140-65-4 0-24 7-45 16-20 9-80 29-132 45-53 15-83 28-68 28 15 1 62-10 105-24zm-661-40c-60-24-137-61-170-81-81-49-80-49-72-36 22 36 270 160 321 161 21 0-4-13-79-44zm1e3 -183c30-29 52-55 49-58-5-6-30 15-132 110l-40 38 34-19c19-10 59-42 89-71zm267-187c4-40 3-55-3-45-6 8-12 56-15 105-6 99 7 55 18-60zm-1760 35c-47-61-65-77-45-39 19 34 75 99 86 99 3 0-16-27-41-60zm1e3 -42c91-28 166-67 234-123 69-57 69-59 13-114l-44-44-44 36c-93 77-229 127-343 127-424 0-652-495-371-807 101-112 206-157 366-158 170 0 312 73 406 210 49 73 81 88 122 58 52-38 30-98-79-217-186-203-477-254-737-129-105 50-224 168-276 274-187 381 42 834 462 909 68 13 215 1 291-22zm-1170-224c-34-88-45-105-36-58 7 37 55 149 62 143 2-3-9-41-26-85zm1945-90c8-92 1-98-85-86l-64 10 56 1c75 1 83 12 74 98-4 44-3 64 3 58 5-5 12-42 16-81zm-359-54c65-8 62-8-42-7-66 1-117 7-123 13-12 12 22 10 165-6zm-1658-247c-2-16-4-5-4 22 0 28 2 40 4 28 2-13 2-35 0-50zm42-258c20-68 23-81 11-63-15 24-40 109-39 133 1 20 6 8 28-70zm1910-200c-23-47-44-83-47-80-2 2 9 30 25 62 17 32 36 76 44 98 8 25 14 34 17 23 2-10-16-56-39-103zm-1629-269c21-24 22-27 5-18-25 13-66 58-90 97-18 31 19-4 85-79zm1500 70c0-15-118-136-134-136-5 0 15 26 45 58 30 31 61 65 69 74 18 21 20 22 20 4zm-1278-233c21-13 42-23 48-23 5 0 10-4 10-10 0-14-2-13-47 11-50 27-96 62-68 52 11-3 37-17 57-30zm1058 32c0-19-193-115-206-102-4 4 183 104 199 106 4 1 7-1 7-4zm-745-146c13-13-23-10-70 6l-40 13 50-5c28-3 54-10 60-14z"/></g></svg>
