<svg fill-rule="evenodd" stroke-linecap="round" stroke-linejoin="round" viewBox="0 0 256 256" xmlns="http://www.w3.org/2000/svg"><g transform="translate(0 256) scale(.1 -.1)" fill="currentColor"><path d="m973 2360c-45-23-52-36-80-150-10-41-21-77-24-80-4-3-10-29-14-57-4-29-10-55-15-58-4-3-11-30-15-60-3-30-10-55-15-55-4 0-11-27-15-60-4-38-11-58-18-53-6 3-7 1-3-6 21-33-4-51-71-51-68 0-174-23-200-43-45-35-143-134-143-144 0-7-4-13-10-13-5 0-9-3-8-7 1-5-4-21-10-36-7-16-12-35-12-43s-4-14-8-14c-11 0-32-190-29-272 1-38 4-68 7-68s3-114 2-252c-5-352 3-468 33-490 24-18 184-42 360-53 55-3 125-10 155-15s109-15 175-21 158-15 205-20 96-9 110-9 52-4 85-9c33-6 113-15 179-21 116-10 119-10 171 15 30 14 59 25 64 25 6 0 11 5 11 11s6 9 12 7c7-3 21 4 32 14s25 17 30 15c6-2 19 5 30 15s25 17 30 15c6-2 20 5 30 15 11 10 26 16 33 14 7-3 13-1 13 4 0 4 14 11 30 15 17 4 30 11 30 16s11 11 25 15c14 3 25 10 25 14s12 11 26 14c14 4 37 18 50 31l24 25v370c-1 204 2 375 5 380 10 17 6 343-5 385-6 22-15 57-21 78-5 21-14 44-19 50-6 7-20 25-31 40-35 46-93 77-144 77-32 0-44 3-39 12 4 6 3 8-4 4-6-3-63-1-127 6l-117 12 7 35c6 34 16 75 50 195 11 39 13 61 5 80-5 14-7 26-3 26 7 0-34 30-64 48-13 6-45 12-71 12-27 0-52 3-55 6-3 4-26 8-49 10-24 1-95 10-158 19s-142 18-175 21-67 7-75 10-35 7-60 8c-25 2-56 6-70 10-17 4-39 0-67-14zm312-65c61-8 187-24 280-36 176-22 215-36 215-78 0-18-57-244-90-356-11-38-23-85-27-102-3-18-10-33-15-33-6 0-8-6-5-14 3-7-3-44-14-82s-22-84-26-101c-3-18-10-33-15-33s-7-3-5-7c4-7-14-101-41-213l-8-35-139 4c-129 3-142 6-171 28-43 32-346 55-406 30-38-16-74-12-95 9-16 16-16 30 1 85 7 24 21 80 31 124 25 110 58 240 116 450 12 44 24 97 26 118 3 20 9 37 15 37 5 0 7 4 4 8-10 16 36 177 58 201 24 26 85 26 311-4zm484-481c-13-14-25-20-27-14-7 20 7 40 29 40h22l-24-26zm191 11c0-2-22-26-49-53-91-91-173-298-209-527l-7-50-45-3c-79-4-78-10-16 238 53 210 58 226 98 278 82 105 105 121 176 122 28 0 52-2 52-5zm172-51c73-69 92-138 96-350 3-152 1-192-10-201-8-7-77-39-153-71-196-84-256-110-288-127-40-21-47-13-47 62 0 190 104 566 170 613 4 3 12 15 19 28 42 80 151 103 213 46zm-1412-103c0-5-17-15-37-22-41-13-122-85-152-133-26-41-71-181-71-218v-29l-57 3c-32 1-61 7-65 13-8 11-1 79 12 110 4 11 16 41 25 68 9 26 23 53 30 61 8 7 12 16 9 18-16 17 109 108 176 129 36 11 130 11 130 0zm-32-457 72-6-6-66c-4-37-7-68-8-68 0-1-55 2-121 7s-156 11-199 13c-49 3-83 10-88 18-8 13-11 111-4 119 4 4 208-6 354-17zm356 9c178-9 166 9 166-248s4-251-134-241c-209 15-225 18-251 42l-25 23v193c0 231 11 258 95 242 11-2 78-7 149-11zm511-69c139-5 135-3 135-79 0-35-3-66-7-68-10-5-393 21-410 27-9 4-13 27-13 72v67l103-7c56-5 143-10 192-12zm663-331-3-328-234-118c-129-64-236-116-238-113-14 13-27 663-14 684 6 10 76 42 92 42 5 0 9-123 9-274 0-235 2-275 16-286 13-11 16-10 20 6 4 14 45 39 135 81l129 62v250c0 254-3 273-35 242-13-13-204-91-221-91-54 0 21 42 213 121 43 17 82 36 88 40 5 5 17 9 27 9 17 0 18-17 16-327zm-1760-43c1-145 6-268 10-271 4-4 68-12 142-18 120-10 237-21 794-76 81-8 152-12 157-9s9 129 9 280c0 309-9 280 84 268l47-7-1-251c-1-138-4-295-7-348l-6-98h-36c-20 0-144 11-276 25-132 13-332 33-445 45-113 11-269 27-348 35-78 8-158 15-178 15-63 0-62-5-70 354l-7 327 128-6 3-265zm295 243c4-2 7-55 7-116 0-186 14-198 246-211 233-13 246-4 254 174l5 105 124-2c68-1 128-6 133-11 13-13 16-498 3-510-10-9-66-6-290 18-55 5-183 17-285 26s-243 21-315 28l-130 11-5 105c-3 58-4 172-2 253l3 149 122-7c67-4 125-9 130-12zm1344-207 2-217-113-54c-63-30-117-55-120-55-4 0-5 102-4 226l3 226 105 48c58 26 110 47 115 46 6-2 11-85 12-220z"/><path d="m2e3 1638c-60-61-126-234-155-405-9-56-7-56 158 17 75 33 139 60 144 60s7 48 5 108c-7 223-65 307-152 220zm93-40c13-27 20-71 24-150l6-113-114-48c-137-57-131-57-123-4 14 103 79 266 130 326 33 40 54 37 77-11z"/><path d="m940 1080c-25-25-26-70-1-102 14-17 21-44 23-84l3-59 75-6v59c0 46 4 63 20 77 24 22 27 81 4 113-21 30-95 31-124 2z"/><path d="m515 2160c-8-13 4-70 15-70 5 0 11-13 15-30 4-16 10-30 15-30s13-15 20-34c14-43 47-55 56-20 4 15 0 29-10 39-9 9-16 23-16 31s-4 14-9 14-12 12-16 27c-13 54-55 97-70 73z"/><path d="m331 1921c-25-16 2-37 84-67 66-25 87-29 95-19 19 23 0 41-73 64-95 31-92 30-106 22z"/></g></svg>
