<svg fill-rule="evenodd" stroke-linecap="round" stroke-linejoin="round" viewBox="0 0 256 256" xmlns="http://www.w3.org/2000/svg"><g fill="none" stroke="currentColor" stroke-width="9"><path d="M88 50 C88 36 104 24 128 24 C152 24 168 36 168 50 L168 78 L88 78 Z"/><path d="M62 116 C62 84 91 64 128 64 C165 64 194 84 194 116 L194 198 C194 212 183 223 169 223 L87 223 C73 223 62 212 62 198 Z"/><path d="M62 124 C70 110 95 100 128 100 C161 100 186 110 194 124"/><path d="M94 148 L162 148 C168 148 172 152 172 158 L172 223 L84 223 L84 158 C84 152 88 148 94 148 Z"/><rect x="116" y="170" width="24" height="22" rx="5"/></g></svg>
