<svg fill-rule="evenodd" stroke-linecap="round" stroke-linejoin="round" viewBox="0 0 256 256" xmlns="http://www.w3.org/2000/svg"><g transform="translate(0 256) scale(.1 -.1)" fill="currentColor"><path d="m467 1432c-26-29-25-302 1-325 24-22 69-22 90 0 25 25 31 283 8 319-20 30-75 33-99 6zm58-157c0-86-3-119-12-122-10-4-13 25-13 122s3 126 13 123c9-4 12-37 12-123z"/><path d="m2282 1313c-7-7-12-30-10-51 6-67 98-54 98 14 0 25-7 32-48 43-19 6-31 4-40-6z"/><path d="m210 1303c-29-34-5-83 39-83 34 0 51 17 51 50 0 49-59 70-90 33z"/></g></svg>
