<svg fill-rule="evenodd" stroke-linecap="round" stroke-linejoin="round" viewBox="0 0 256 256" xmlns="http://www.w3.org/2000/svg"><g transform="translate(0 256) scale(.1 -.1)" fill="currentColor"><path d="m1930 2350c-19-5-43-7-54-3-12 3-16 1-12-6 5-7-2-11-18-11-14 0-28-5-31-11-4-6-13-8-21-5-7 3-16 1-19-4-4-6-15-10-26-10-10 0-19-4-19-9s-12-12-27-16c-15-3-30-10-33-13-3-4-21-16-41-27-60-33-189-141-189-158 0-4-15-27-34-51-107-141-154-376-111-561 15-63 15-69-6-126-12-33-27-58-33-56-6 3-10 10-9 16 2 6-2 11-7 11-6 0-10 7-10 15 0 9-7 27-16 40-15 23-15 28 0 65 34 85 18 354-26 425-3 6-9 25-13 43-3 17-10 32-15 32-4 0-10 8-14 18-10 32-31 57-112 137-96 94-104 100-132 109-12 4-22 11-22 16 0 6-26 18-52 24-3 0-10 4-14 9-4 4-16 7-26 7s-18 4-18 9-24 12-52 16c-29 4-57 11-63 15-21 17-223 25-322 14-87-11-97-28-88-143 4-53 8-115 9-138 0-23 3-40 7-37 5 3 15-48 22-118 1-10 5-18 9-18s8-11 8-25 3-25 8-25c4 0 16-21 26-48 40-100 168-260 242-304 150-88 237-111 398-105 72 3 142 7 155 9 28 4 50-29 81-123 18-52 20-81 18-217l-3-157-40-9c-22-4-47-10-55-13-8-2-17-5-20-5-3-1-23-18-45-39l-39-37-86 5c-140 9-224-36-305-163-29-44-40-54-63-54-79 0-222-97-222-150 0-11-3-20-8-20-4 0-7-21-7-47 0-41 5-54 37-88l37-40h830 830l30 29c17 17 31 36 31 43s3 13 8 13c11 0 7 72-7 105-34 81-131 155-204 155-30 0-40 4-44 20-3 11-9 20-14 20s-9 6-9 14c0 25-89 113-138 137-47 22-212 43-212 27 0-17-25-6-62 27-43 39-62 49-125 65l-43 11v157c0 150 15 242 42 262 3 3 10 18 13 33 4 15 11 27 16 27s9 6 9 14c0 12 6 12 38 0 58-21 263-18 348 5 161 43 318 150 404 276 14 20 30 42 35 48 6 7 10 17 10 22 0 9 27 70 56 127 5 10 9 26 9 36s3 22 7 26c8 8 11 23 19 90 4 33 9 44 15 35s8 0 8 26c-1 22 2 92 5 155 10 161 18 154-187 157-89 1-178-2-197-7zm319-46c24-7 24-7 17-117-17-283-132-547-287-662-83-62-127-87-139-80-5 3-10 1-12-5-4-12-138-47-217-56-86-9-221 12-221 36 0 51 210 303 337 405 49 39 88 77 88 85 0 99-393-280-458-442-28-70-37 199-11 315 16 68 64 176 91 205 7 7 13 16 13 20s25 34 55 67 55 56 55 52 11 4 25 18 29 25 34 25c4 0 17 9 29 20 12 12 22 18 22 15 0-4 12 2 28 13 28 20 71 37 85 34 4-1 7 3 7 8 0 6 9 10 19 10 11 0 23 5 26 11 4 6 13 8 21 5 7-3 16-1 19 4 4 6 33 10 66 10 43 0 58 3 53 11-8 13 210 7 255-7zm-1607-60c133-27 263-93 349-178 55-53 129-154 129-175 0-6 5-11 10-11 6 0 10-7 10-15s4-15 8-15c21 0 45-158 40-269-5-114-12-140-32-107-103 175-381 445-419 407-9-10-6-18 19-39 17-15 59-51 93-81 98-84 281-311 281-348 0-18-76-33-163-33s-240 27-232 40c3 4-11 11-30 14-19 4-35 11-35 16 0 6-7 10-15 10s-15 5-15 10c0 6-6 10-13 10-45 0-187 159-238 267-72 154-128 473-86 500 38 24 216 23 339-3zm693-1445c27-7 56-28 88-61 45-48 48-50 76-38 116 48 276-27 331-156 17-39 23-44 52-44 138 0 260-146 191-229-18-20-21-20-768-21-412-1-778-1-812-1-95 1-123 43-87 129 32 77 129 133 204 117 27-6 30-4 41 34 7 23 16 41 21 41 4 0 8 7 8 15 0 9 7 18 15 21 8 4 15 12 15 20s6 14 14 14 16 7 20 15c3 8 12 15 21 15 8 0 15 4 15 9 0 32 156 51 217 26 39-16 57-10 68 26 4 10 13 19 21 19s14 4 14 8c0 9 38 30 75 43 32 11 116 10 160-2z"/><path d="m1155 620c-4-7-3-16 3-22 14-14 47-6 47 12s-40 26-50 10z"/><path d="m1324 589c-10-17 23-46 37-32 7 7 9 19 6 27-7 18-33 21-43 5z"/></g></svg>
