<svg fill-rule="evenodd" stroke-linecap="round" stroke-linejoin="round" viewBox="0 0 256 256" xmlns="http://www.w3.org/2000/svg"><g transform="translate(0 256) scale(.1 -.1)" fill="currentColor"><path d="m1233 2347c-42-16-72-39-157-119-108-101-140-127-148-122-4 3-8-2-8-10s-6-19-14-23-64-56-125-115c-61-60-114-108-117-108-4 0-47-39-96-87-118-116-135-173-72-236 26-27 28-27 168-27 99 0 147-4 159-13 16-11 17-33 15-234-2-121 0-219 5-216 4 2 7-5 7-16s11-28 25-39c13-11 22-22 19-25-7-7-44-6 381-9 193-2 356-7 364-12 9-6 12-5 8 1s4 14 18 17c74 19 87 76 84 359-1 91 2 170 5 176 5 7 58 11 156 11h149l30 37c31 38 46 123 21 123-5 0-10 7-10 15s-4 15-8 15c-5 0-15 11-22 25s-17 25-22 25-50 39-100 88c-50 48-108 104-129 124-22 21-39 35-39 33 0-4-85 74-187 173-30 28-57 52-60 52-2 0-10 6-17 13-90 86-127 117-140 117-9 0-16 3-16 8 0 12-93 12-127-1zm114-64c44-25 677-606 708-651 14-19 14-24-1-47-16-25-17-25-169-25-213 0-196 23-196-267-1-216-2-235-21-258l-19-25h-359-359l-15 22c-13 19-16 61-16 260 0 292 18 268-194 266-144-1-150-1-167 21-29 36-26 42 99 156 64 60 151 140 192 179 190 178 406 373 420 379 29 11 66 7 97-10zm313-232c0-3-19 13-42 34-22 22-49 48-60 58-10 9-18 20-18 24s27-19 60-52 60-62 60-64zm-630 86c0-2-19-19-42-37l-43-33 34 36c30 32 51 46 51 34zm955-379 60-62-60 54c-33 29-64 57-69 62-6 5-6 8 0 8 5 0 36-28 69-62zm-1395-21c0-2-18-21-40-42s-40-36-40-32 17 23 37 42c35 33 43 39 43 32zm1109-733c-32-34-44-30-18 6 12 16 26 27 31 24 5-4-1-17-13-30z"/><path d="m765 761c-51-30-64-60-67-153l-3-83-93 3c-51 2-107-2-125-8-41-13-97-62-97-84 0-10-4-14-10-11-6 4-10-12-10-41 0-48 33-134 51-134 6 0 7-5 4-10-4-6-3-10 2-9 17 3 52-14 47-22-3-6 332-9 816-8 505 0 818 4 815 10-4 5 1 9 9 9 20 0 76 49 76 67 0 7 5 13 10 13 6 0 10 24 10 53 0 54-23 105-63 140-11 9-20 18-21 18-1 1-55 4-121 8l-120 6-1 75c-1 90-12 120-57 154l-34 26h-494c-464 0-496-1-524-19zm1e3 -73c28-30 30-37 25-86-3-29-10-59-16-65-7-10-133-13-510-15-578-3-541-10-541 92 0 48 3 57 31 80l31 26h475 475l30-32zm319-256c42-46 40-93-5-138l-34-34h-790-790l-30 25c-38 32-48 72-29 118 28 66 0 64 910 63l739-1 29-33z"/></g></svg>
