<svg fill-rule="evenodd" stroke-linecap="round" stroke-linejoin="round" viewBox="0 0 256 256" xmlns="http://www.w3.org/2000/svg"><g transform="translate(0 256) scale(.1 -.1)" fill="currentColor"><path d="m262 2279c-33-13-52-34-63-71-5-20-9-409-9-953l1-920 32-31c48-46 127-44 168 5 28 34 29 37 31 174l3 140 235 2 14-35c28-70 68-95 149-95 84 0 113 18 153 98 30 58 38 59 59 3 30-77 66-101 156-101 76 0 77 0 117 41 22 22 44 52 47 66 11 44 62 37 81-12 28-70 68-95 150-95 74 0 144 34 144 71 0 7 4 14 9 14s11 10 13 22c3 23 4 23 153 20 95-2 161 0 179 8 43 16 47 6 50-152 2-134 4-146 24-166 49-49 129-55 172-13l25 25 3 941c2 660-1 948-9 966-24 60-125 74-181 25-26-24-27-26-29-158-2-73-5-146-9-163l-6-30-465-4-16 37c-22 54-60 89-113 107-46 15-50 15-102-8-51-23-98-69-98-96 0-20-19-11-25 12-11 35-53 74-102 92-75 29-161-10-194-87-15-35-24-35-39 1-12 30-53 71-70 71-6 0-10 5-10 11 0 5-4 8-9 4-5-3-21 0-35 7-19 8-32 8-49 0-12-6-33-14-47-18-28-8-57-42-82-93l-16-36-109 4c-59 1-111 5-115 8-5 2-8 67-8 144 0 156-9 188-60 214-32 17-64 18-98 4zm73-41c14-6 25-17 25-25 0-7 5-13 10-13 7 0 10-313 10-918 0-910 0-918-20-940-25-26-76-29-102-5-17 15-18 57-18 935 0 631 3 926 11 939 8 16 28 30 56 38 1 1 14-4 28-11zm2e3 -14c20-15 20-28 23-936l2-921-22-24c-27-29-71-30-98-1-32 34-32 1842 0 1876 24 25 66 28 95 6zm-1398-220c86-56 81-198-8-246-94-50-199 14-199 122 0 115 116 184 207 124zm319 7c106-48 106-204 0-255-94-45-197 21-198 127-2 110 96 174 198 128zm332-1c107-48 104-203-4-255-160-75-273 166-119 252 49 28 68 28 123 3zm-879-186c26-71 78-105 169-108 42-1 52 3 89 38 24 21 45 47 48 57 7 21 25 26 25 7 2-29 77-90 119-98 82-15 165 25 186 88 7 23 23 27 27 7 10-47 90-95 158-95 79 0 113 24 155 106l20 39 230-4c127-2 231-4 232-5 4-4 5-84 4-313l-1-253h-161-160l-16 37c-13 33-64 104-67 95-1-2-14 2-31 8-82 32-179-12-211-96l-17-44h-57c-57 0-58 0-73 38-47 118-188 149-276 61-22-22-41-50-43-61-4-30-28-35-28-7 0 33-81 106-126 115-63 12-113-3-157-46-22-22-36-40-31-40 4 0 3-5-4-12s-12-20-12-30c0-17-9-18-117-16l-118 3-3 260c-1 143 0 270 3 282 5 21 11 22 108 25 125 4 120 5 136-38zm236-433c61-34 83-127 45-189-92-151-323-40-252 121 39 88 122 115 207 68zm348 2c63-31 86-127 47-191-76-124-260-78-260 66 0 117 106 179 213 125zm443 8c135-61 89-271-60-271-136 0-191 178-80 257 51 36 84 39 140 14zm-221-172c9-17 14-33 12-36-7-6 62-67 88-78 85-34 171 1 213 88l22 47h161c104 0 158-3 154-10-3-5-1-10 5-10 7 0 9-38 6-117-2-65-5-189-5-276l-1-157-187 2c-179 3-188 4-192 23-15 80-126 139-208 111-49-17-103-60-103-83 0-7-4-13-9-13s-8-8-7-17c2-34-56-23-67 12-22 65-117 123-182 110-45-8-115-45-115-60 0-8-7-20-15-29-9-8-16-18-15-21 3-49-31-49-49 0-27 77-116 125-191 105-44-12-110-64-110-86 0-8-4-14-10-14-5 0-10-9-10-20 0-20-5-21-117-18l-118 3v280 280l223 6 22-43c22-44 65-87 88-88 6 0 12-4 12-8 0-5 24-9 53-10 66-2 123 33 152 95 21 43 45 57 45 25 0-10 5-23 12-30s9-12 5-12c-14 0 38-45 68-59 90-43 210 6 234 95 6 23 15 30 42 35 68 13 78 10 94-22zm-578-449c84-51 91-168 15-232-91-76-222-15-222 104 0 117 112 186 207 128zm363 5c60-31 92-121 64-180-46-97-159-118-233-45-111 112 28 298 169 225zm396-1c44-21 74-70 74-123 0-184-253-201-276-19-14 111 99 191 202 142z"/></g></svg>
