<svg fill-rule="evenodd" stroke-linecap="round" stroke-linejoin="round" viewBox="0 0 256 256" xmlns="http://www.w3.org/2000/svg"><g transform="translate(0 256) scale(.1 -.1)" fill="currentColor"><path d="m627 2349c-10-6-25-8-33-5s-14 1-14-4c0-6-9-10-20-10s-20-4-20-9c0-7-34-23-50-23-8 0-166-162-169-173-1-5-8-23-15-40-66-150-59-337 15-475 50-93 208-220 273-220 9 0 16-3 16-7 0-11 51-17 140-17 94 1 149 7 143 17-2 4 5 7 17 7 33 0 133 57 176 100 65 66 64 70 64-229v-268l65-68 113-1c125-1 130-3 114-39-8-18-12-114-12-306 0-410-36-379 432-379 254 0 347 3 356 12 7 7 12 8 12 3s13 4 30 20c16 15 27 32 24 36-2 4 0 10 6 14s10 106 10 283c0 397 3 392-234 392-120 0-146 3-146 14 0 8 5 18 10 21 15 9 13 608-2 623-7 7-9 12-5 12s-3 10-15 23c-23 22-26 22-356 25l-333 3 7 22c36 111 40 172 18 273-9 46-20 84-24 84-5 0-11 12-14 26-4 14-15 35-26 46-11 12-18 24-17 27 2 3-21 29-50 57s-53 50-53 47c0-2-10 5-21 16-48 44-181 81-292 81-56 0-110-5-120-11zm222-40c53-16 141-60 141-70 0-5 6-9 13-9 17 0 77-55 77-70 0-8 3-10 6-7 8 7 44-36 44-52 0-6 5-11 10-11 6 0 10-7 10-15s4-15 8-15c13 0 32-69 25-88-5-10-3-13 6-8 10 7 12-16 9-105-3-105-6-119-36-184-84-173-268-280-452-260-58 6-137 30-150 44-3 3-18 13-34 21-99 51-190 187-208 310-12 80-3 204 15 193 6-4 8 0 4 10-11 28 37 117 97 185 93 103 297 167 415 131zm1e3 -705c34-39 35-574 0-611l-21-23h-305c-270 0-308 2-324 17-17 15-18 38-18 313v298l24 16c26 17 306 27 521 18 91-3 102-6 123-28zm351-711c20-17 21-26 22-306 1-261-1-290-17-308-26-29-691-30-718 0-15 17-18 51-20 302-3 275-3 285 17 307s21 22 358 22c306 0 339-2 358-17z"/><path d="m485 951c-65-40-63-28-64-376-2-219 1-315 8-310 10 5 15-7 9-20-2-2 15-14 37-25 37-19 58-20 331-20 422 0 389-32 389 385 0 418 33 385-387 385-269 0-295-2-323-19zm639-63c24-33 24-573 0-606-15-22-17-22-313-22-272 0-299 2-314 18-26 29-29 582-3 611 31 34 607 32 630-1z"/></g></svg>
