<svg fill-rule="evenodd" stroke-linecap="round" stroke-linejoin="round" viewBox="0 0 256 256" xmlns="http://www.w3.org/2000/svg"><g transform="translate(0 256) scale(.1 -.1)" fill="currentColor"><path d="m1185 2360c-109-17-185-34-185-42 0-4-6-8-12-8-12 0-137-59-148-70-3-3-27-23-55-45-64-51-91-79-140-140-22-27-42-52-45-55-25-25-100-219-100-257 0-12-4-25-10-28-6-4-10-68-10-160s4-156 10-160c6-3 10-17 10-30 0-34 26-109 63-185 32-65 44-81 105-151 26-30 31-42 26-68-4-17-10-29-14-26s-11-12-15-33c-4-20-10-41-14-47-4-5-21-45-37-87-16-43-32-78-36-78s-5-6-2-14 1-17-5-21c-6-3-11-15-11-26 0-10-5-19-11-19-5 0-8-4-4-10 3-5 1-17-4-27-18-35-41-91-41-102 0-6-5-20-12-31-9-15-9-24 1-43 12-23 15-23 40-11 14 7 51 17 81 23 92 16 154 31 172 41 14 8 24-1 58-51 22-33 40-62 40-65 0-2 7-12 15-21 8-10 16-22 16-28 1-5 9-17 19-25 9-8 22-25 29-37 7-14 21-23 35-23 23 0 24 2 67 105 17 41 91 231 101 260 6 17 17 44 24 60 6 17 20 51 29 78 16 42 21 47 49 47 42 0 52-9 71-55 9-22 20-49 24-60 5-11 16-40 26-65s21-54 26-65c13-29 60-156 66-180 3-11 9-24 13-30 4-5 13-27 19-48 26-80 50-71 127 45 26 40 51 75 54 78 4 3 15 20 25 37 21 37 60 43 140 22 22-6 68-16 102-23s68-18 76-24c18-15 46 30 30 50-5 7-24 54-42 103-18 50-42 109-52 133-11 24-27 64-35 90-9 26-22 61-29 77-57 137-59 147-33 181 12 16 25 31 28 34 13 12 70 108 70 118 0 7 5 12 10 12 6 0 10 7 10 15s5 15 11 15c5 0 7 5 4 10-4 6-2 16 3 23s15 35 22 64c8 29 16 50 19 48 14-8 25 283 12 309-5 12-12 46-14 77-3 31-10 65-15 75-18 34-42 92-42 102 0 6-3 12-7 14-5 2-19 26-32 53-15 30-60 85-110 135-110 109-123 119-198 155-35 16-63 32-63 35s-8 6-17 7c-28 3-127 27-138 34-17 11-188 17-240 9zm313-86c501-168 680-767 357-1190-282-367-857-373-1155-11-54 66-128 210-151 292-26 93-18 335 13 425 96 273 323 466 601 511 92 14 250 2 335-27zm-578-28c0-2-21-16-47-30l-48-26 35 30c31 26 60 39 60 26zm850-82c65-53 82-69 91-86 18-33-19-7-81 58-49 51-54 63-10 28zm-1e3 -67c-81-105-117-146-121-143-9 10 116 166 134 166 3 0-3-11-13-23zm1262-219c8-21 13-38 11-38-3 0-13 17-22 38-10 20-20 42-22 47-3 7-1 7 6 0 6-5 18-27 27-47zm-1436-65c-20-58-31-64-14-8 8 28 15 52 15 54s3 2 6-2c3-3 0-23-7-44zm-10-483c1-20-1-22-9-10-5 8-9 29-9 45 0 26 2 27 9 10 5-11 9-31 9-45zm1466-45c-10-25-20-43-23-41-2 3 4 25 13 51 10 25 20 43 23 41 2-3-4-25-13-51zm-1274-280c12-16-7-2-40 33-34 34-61 68-61 75 1 13 66-57 101-108zm1114 9c-20-26-24-39-16-47 22-22 11-36-12-14l-23 22 29 38c16 20 33 37 39 37s-2-16-17-36zm-1053-109c54-46 190-111 275-131 127-31 121-12 54-176-31-79-73-182-91-230-19-49-37-88-40-88-4 0-39 48-79 106s-80 108-88 111c-9 4-72-6-140-21-69-15-127-25-130-22-5 4 41 125 133 353 20 48 40 98 45 111 11 29 13 28 61-13zm1e3 -2c87-211 177-439 177-450 0-10-7-12-20-8-10 3-61 17-112 30s-103 26-114 30c-23 7-64-39-149-168-21-31-41-57-44-57-17 0-193 460-178 464 7 2 48 14 92 26 98 27 204 77 270 129 62 49 60 49 78 4zm-890-37c9-7 17-16 17-20 0-12-18-6-41 14-28 22-6 28 24 6zm296-107c-17-17-23-19-30-8-11 19-2 29 27 29h24l-21-21zm-369-340c0-6-11 3-25 19-14 17-25 34-25 38 1 12 50-45 50-57z"/><path d="m1175 2074c-302-77-473-340-411-630 87-406 584-555 877-263 262 260 189 688-146 849-86 42-93 44-195 46-58 2-114 1-125-2zm226-52c171-48 323-212 345-375 4-25 13-48 20-51 18-7 20-120 2-114-7 3-22-26-38-73-149-446-743-454-912-13-18 48-22 78-22 165 1 105 1 108 44 195 110 222 335 328 561 266z"/></g></svg>
