<svg fill-rule="evenodd" stroke-linecap="round" stroke-linejoin="round" viewBox="0 0 256 256" xmlns="http://www.w3.org/2000/svg"><g transform="translate(0 256) scale(.1 -.1)" fill="currentColor"><path d="m245 2153c-10-21-29-55-42-76-20-33-21-38-8-44 10-3 22 3 31 16 9 12 20 19 25 16 5-4 9-338 9-845 0-645 3-841 12-846 16-10 2085-12 2101-2 23 14-5 23-86 28l-82 5-3 521c-2 466-4 523-18 535-20 16-301 14-321-3-10-8-13-127-13-534v-524h-90-90v353c0 193-4 358-8 365-12 18-307 25-321 8-7-8-12-142-13-367l-3-354h-90-90l-10 500-158 3c-127 2-158 0-163-11-3-8-6-122-7-253l-2-239-515-5-1 42c-3 167 4 1564 8 1571 3 5 0 12-6 16-12 8-5 41 9 41 4 0 10-9 13-21 4-13 12-20 24-17 18 3 25 28 11 38-4 3-20 30-36 60-36 67-45 70-67 23zm1923-1225-3-523-285-6v525 524l290 2-2-522zm-530-170-3-353h-140-140l-3 353-2 352h145 145l-2-352zm-533-113v-240h-130-130l-8 228c-5 126-7 234-4 241 4 9 39 12 139 12l133-1v-240z"/><path d="m2e3 2064c-39-30-54-78-46-147 3-29 2-49-2-45s-13 2-20-5c-46-45-145-120-145-110 0 4-4 3-8-2-4-6-33-24-64-39l-57-29-35 31c-60 52-131 55-184 8-40-36-60-95-44-131 10-22 8-27-26-54-20-17-39-29-42-28s-19-10-35-26c-27-24-171-107-202-115-6-2-14 5-17 16-4 10-18 25-31 32-14 7-25 17-25 22 0 14-89 9-120-7-54-28-90-108-71-158 8-21-3-36-104-138l-114-114-44 3c-61 5-99-27-101-85-1-58 32-93 89-93 61 0 90 34 89 105l-2 53 107 106 106 106 40-21c88-45 197 12 197 103 0 32 3 35 118 91 65 32 127 66 138 75 73 62 74 62 126 38 89-40 169 5 186 104 5 34 71 85 93 73 4-2 7 1 7 6 0 6 4 11 9 11s37 19 72 43c95 65 102 70 127 95 22 21 26 22 46 9 91-60 206 4 206 114 0 106-134 169-217 103zm170-39c42-88-2-175-88-175-61 0-105 42-105 100 0 80 30 109 116 110 59 0 61-1 77-35zm-567-329c45-45 47-91 3-140-54-62-138-55-174 14-59 115 80 217 171 126zm-602-280c50-21 77-64 67-107-19-75-47-99-121-99-110 0-139 154-38 203 41 20 50 21 92 3zm-399-433c18-20 24-35 20-51-22-88-135-78-135 12 0 33 20 62 33 49 4-3 7-1 7 5 0 23 49 12 75-15z"/></g></svg>
