<svg fill-rule="evenodd" stroke-linecap="round" stroke-linejoin="round" viewBox="0 0 256 256" xmlns="http://www.w3.org/2000/svg"><g transform="translate(0 256) scale(.1 -.1)" fill="currentColor"><path d="m1323 2312c-7-4-35-46-63-92-28-47-55-92-60-100s-27-47-49-86c-22-40-46-78-53-85-7-8-19-25-25-39-24-51-85-155-93-160-4-3-9-9-10-15-6-24-14-42-35-70-12-16-28-43-37-60-31-63-80-150-89-160-14-15-10-41 9-58 17-15 67-17 520-17 534 0 552 1 552 47 0 24-55 132-114 226-18 29-44 75-57 102-13 28-27 52-30 55-16 12-99 159-99 174 0 10-3 15-8 12-4-2-16 13-26 35-11 21-23 39-28 39-4 0-8 5-8 10 0 6-11 27-23 48-13 20-22 44-19 52s1 12-3 8-17 11-29 33c-49 90-89 123-123 101zm42-69c3-10 44-81 90-158 85-143 215-366 313-535 30-52 58-100 63-106s6-14 2-17c-12-12-963-8-963 4 0 6 43 86 96 177 204 353 328 569 351 610 27 46 37 51 48 25z"/><path d="m555 1189c-105-34-143-56-207-117-62-59-118-145-118-179 0-8-4-12-8-9-10 6-15-45-15-164-1-112 5-170 16-163 4 2 7-2 7-10 0-48 105-181 186-235 28-19 77-42 90-42 8 0 14-3 14-7 0-11 61-17 160-17 103 1 160 6 160 17 0 4 7 7 15 7 9 0 33 11 55 25s40 22 40 18c0-3 33 27 74 68 41 40 74 76 73 79s5 16 12 28c59 108 69 281 24 402-4 8-5 18-5 23 1 4-2 7-8 7-5 0-10 8-10 18s-5 23-12 30-9 12-4 12c4 0-28 35-71 79-43 43-81 77-85 74-7-4-48 16-58 28-28 33-251 52-325 28zm201-40c293-54 453-396 302-647-95-158-289-246-460-207-174 39-309 167-341 325-64 313 193 585 499 529z"/><path d="m1454 1145c-27-28-20-850 7-878 14-14 63-16 428-17 411-1 442 2 463 34 4 6 8 198 8 427 0 382-1 417-17 435-28 30-859 29-889-1zm851-440v-400l-394-3c-282-1-398 1-407 9-17 14-21 795-4 801 5 2 189 1 407-2l398-5v-400z"/></g></svg>
