<svg fill-rule="evenodd" stroke-linecap="round" stroke-linejoin="round" viewBox="0 0 256 256" xmlns="http://www.w3.org/2000/svg"><g transform="translate(0 256) scale(.1 -.1)" fill="currentColor"><path d="m635 2348c-60-15-145-106-145-154 0-19-4-33-9-29-6 3-9-360-10-927 0-568 4-926 10-917 6 10 9 6 9-16 0-31 29-71 67-92 27-15 123-17 123-3 0 6 7 10 15 10 9 0 28 11 43 25s30 25 34 25c5 0 16 8 27 18 10 9 31 27 47 39s39 31 51 42c12 12 25 21 28 21s18 11 33 25 30 25 34 25c8 0 36 22 64 48 8 7 14 10 14 7 0-4 14 7 32 24 17 17 35 31 40 31 4 0 22 13 39 30 18 16 35 27 39 25 4-3 10 2 14 10 14 37 95 11 161-53 8-6 17-12 22-12s23-13 41-29c17-17 32-28 32-26 0 4 25-14 54-40 6-6 36-28 66-50s60-44 66-50c6-5 29-23 50-40 21-16 46-38 56-47 10-10 18-15 18-11 0 3 10-3 23-14 35-33 62-43 111-43 57 0 116 31 116 59 0 6 5 11 10 11 6 0 10 12 10 26s3 23 8 21c4-3 7 413 7 923s-3 923-7 917c-4-7-8 2-8 19 0 66-71 150-146 172-53 15-1228 15-1289 0zm51-30c-91-17-142-66-162-157-11-51-12-53-13-19-3 97 86 187 184 186h40l-49-10zm1309-41c32-32 56-90 54-132 0-11-7 1-15 26-7 25-32 67-55 92-46 53-34 64 16 14zm-61-10c81-46 76 25 76-1e3 0-922 0-926-21-953-43-55-62-46-355 175-147 110-280 207-295 215-66 34-114 16-255-93-447-344-460-351-512-303l-22 21v932c0 1e3 -5 978 76 1e3l39 23h615 615l39-23zm113-439c-2-29-3-6-3 52s1 81 3 53c2-29 2-77 0-105zm-1560-35c-2-21-4-6-4 32 0 39 2 55 4 38 2-18 2-50 0-70zm0-140c-2-16-4-5-4 22 0 28 2 40 4 28 2-13 2-35 0-50zm1560-155c-2-18-4-4-4 32s2 50 4 33c2-18 2-48 0-65zm-1560-540c-2-35-3-7-3 62s1 97 3 63c2-35 2-91 0-125zm1560-110c-2-24-4-7-4 37s2 63 4 43c2-21 2-57 0-80zm-782-190c-16-6-41-19-55-28-76-52-92-43-18 11 26 18 53 29 72 28l31-1-30-10zm165-69c64-43 91-71 44-45-33 19-119 86-110 86 4 0 33-18 66-41zm622-212c-8-46-10-37-10 68 1 117 1 118 10 52 6-43 6-87 0-120zm-1084 76c-18-15-35-30-38-33-17-18-82-61-86-57-9 9 125 113 149 116 5 1-6-11-25-26zm757-83c29-22 56-44 60-50 10-16-27 1-55 26-14 12-36 32-50 43-44 36-11 22 45-19zm-1160-118c-7-7-45 29-45 41 0 6 11 0 25-13s23-26 20-28z"/></g></svg>
