<svg fill-rule="evenodd" stroke-linecap="round" stroke-linejoin="round" viewBox="0 0 256 256" xmlns="http://www.w3.org/2000/svg"><g transform="translate(0 256) scale(.1 -.1)" fill="currentColor"><path d="m1105 2354c-154-37-198-50-240-67-48-20-137-70-162-92-37-31-43-35-43-31 0 3-25-19-55-49s-55-58-55-61c0-4-14-23-30-43-51-60-48-55-56-88-4-13-10-23-15-23s-6-6-3-14 1-17-5-21c-6-3-11-15-11-26s-3-18-7-16c-9 6-11-5-19-107-3-38-9-64-12-59-4 6-7-20-8-58 0-38 3-69 6-69 7 0 21-75 21-113 0-9 4-15 10-12 5 4 9 0 9-9 0-8 2-21 5-28 5-13-3-25-45-76-6-7-14-43-17-80-12-149 71-252 203-252 49 0 53-2 63-30 5-16 7-30 3-30s-2-4 3-8c12-8 31-38 44-67 5-12 16-27 25-34s16-17 16-22c0-10 38-50 44-46 2 1 17-9 33-23s42-32 58-40c43-23 40-32-23-65-80-41-195-157-208-210-3-14-10-25-14-25-5 0-11-18-15-40s-10-42-14-45c-4-2-8-22-9-45-3-73 51-64 61 10 31 235 356 451 452 301 89-140 273-146 356-12 29 47 33 49 85 56 72 9 160-31 243-110 82-78 106-126 136-267 6-29 23-36 42-17 14 14-10 129-43 196-37 76-115 157-193 200-36 20-68 38-70 40-6 4 40 43 50 43 27 0 149 125 174 179 11 22 23 41 28 41 4 0 7 9 7 19 0 33 26 49 79 49 65 1 99 22 165 102 39 48 30 221-13 260-30 27-32 38-11 91 11 30 20 67 20 82 0 16 4 26 8 23 4-2 8 58 9 135 1 81-3 137-8 133-5-3-9 4-9 15 0 67-84 193-159 240-56 34-60 43-31 68 29 26 27 78-5 99-26 17-205 27-205 12 0-5-10-8-22-8s-18 3-15 7c4 3-6 13-21 21s-37 20-49 27c-13 6-19 16-15 20 4 5 1 5-6 1s-18-4-25 2c-7 5-37 17-67 26-30 10-68 22-85 28-31 11-305 20-340 12zm377-93c79-21 122-39 165-69l58-41 103 6c112 6 113 6 77-41-36-48-33-72 12-87 51-17 114-78 164-161 42-70 43-72 47-182 4-112-17-264-40-293-6-7-31-13-57-13h-46l-19 65c-23 80-41 104-113 152-56 37-129 119-168 189-31 55-41 53-120-23-66-64-111-92-245-151-83-36-257-65-365-60-82 4-85 12-35 105 27 50 27 53 9 69-10 9-23 13-31 8-36-20-186-141-211-168-27-31-67-121-67-154 0-26-16-46-30-37-7 4-29 8-48 9-54 2-66 44-64 222 3 202 49 320 176 449 130 132 262 196 496 239 69 13 248-4 352-33zm504-242c19-11 39-30 45-40 7-14-5-9-40 17-28 20-51 38-51 40 0 8 14 3 46-17zm-340-316c35-46 80-91 142-141 99-79 101-82 111-227 6-83 8-90 29-93 16-2 22 2 22 15 1 47 69 83 109 57 43-29 51-41 63-97 12-58 7-97-18-121-8-9-12-16-7-16 4 0-7-13-25-29-39-35-93-47-133-31-39 16-56 8-64-32-19-90-152-263-217-284-13-4-25-10-28-14-19-26-192-72-290-77-113-6-243 3-235 17 3 4-1 7-8 7-32-3-106 16-100 26 3 5 2 7-4 4-11-7-73 13-73 24 0 4-11 9-23 13-30 7-140 117-171 171-13 22-32 65-41 95-23 71-27 75-64 56-104-54-238 95-189 211 15 36 48 73 65 73 7 0 13 5 13 10 0 6 12 10 27 10 14 0 23-3 20-7-4-3 3-11 15-17s25-22 28-36c4-16 13-25 25-25 18 0 21 9 25 95 7 118 17 140 91 213 60 57 85 66 70 24-16-46 1-71 54-80 65-11 285 7 356 28 105 32 195 68 237 96 24 16 46 29 50 29 4 1 27 21 52 45 54 54 51 54 86 8zm149-112c-3-3-22 12-43 33l-37 39 42-33c24-18 41-36 38-39zm-1164-236c-6-79-8-85-15-52-8 34-4 83 10 130 10 34 12 12 5-78zm1464 22c-5-26-1-38 19-60 14-16 26-32 26-37s-18 10-39 33c-22 23-36 44-32 47 5 3 11 15 15 28 11 33 18 27 11-11zm-1632-334c11-13 16-23 10-23-12 0-47 37-62 67-20 38-12 49 10 13 12-19 30-45 42-57zm1661 16c-11-18-25-34-32-37-7-2-1 14 15 36 33 47 44 47 17 1zm-1402-219c29-52 29-53 5-25-15 17-34 46-43 65s-24 52-34 72c-9 21-15 40-12 43s17-18 30-47 37-78 54-108zm1153 56c-20-41-46-83-57-93-24-21-20-10 24 54 15 23 28 47 28 53 0 15 33 71 38 65 2-2-12-38-33-79zm-1e3 -181c11-8 17-17 14-21-3-3-21 9-40 26-32 30-14 27 26-5zm911 23c-6-14-66-58-80-58-6 0 75 70 82 70 1 0 0-6-2-12zm-284-153c-27-19-38-22-53-14-32 17-9 29 71 38 8 0 0-10-18-24zm-198-26c57 0 111 3 120 7 22 8 22-8 0-33-56-63-180-63-235 0-17 19-15 43 3 32 5-3 55-6 112-6zm477-6c0-5 13-17 30-28 16-11 32-26 35-33 2-7-16 4-40 25-48 40-51 43-35 43 6 0 10-3 10-7zm-576-52c11-12 16-21 12-21-16 0-46 22-57 41-9 18-8 19 8 11 10-6 27-20 37-31z"/><path d="m968 1299c-14-8-18-24-18-73 0-58 2-65 27-81 51-34 101 25 87 103-11 56-51 78-96 51z"/><path d="m1507 1292c-42-46-10-162 44-162 49 0 78 108 43 158-19 27-64 29-87 4zm39-109c7-3 12-9 9-14-14-22-35 5-33 45 1 37 2 38 5 8 3-18 11-36 19-39z"/><path d="m1120 947c0-26 43-71 77-81 101-31 233 15 233 81 0 26-33 33-47 10-33-55-150-63-201-14-35 34-62 35-62 4z"/></g></svg>
