<svg fill-rule="evenodd" stroke-linecap="round" stroke-linejoin="round" viewBox="0 0 256 256" xmlns="http://www.w3.org/2000/svg"><g transform="translate(0 256) scale(.1 -.1)" fill="currentColor"><path d="m1135 2353c-49-8-98-15-107-16-10-1-18-4-18-8 0-7-56-23-77-22-7 0-13-3-13-7s-12-11-27-15c-15-3-30-10-33-14s-27-20-54-35c-97-56-246-202-278-272-6-13-15-24-20-24-4 0-8-7-8-15s-5-15-11-15c-5 0-7-4-4-10 3-5 2-10-4-10-5 0-12-13-16-30-4-16-10-30-15-30-4 0-11-17-15-37-4-21-11-44-17-50-6-7-7-13-4-13 4 0 2-8-3-18-23-43-32-244-16-357 18-133 19-138 27-150 3-6 9-27 13-48 4-20 11-37 15-37 5 0 11-13 15-30 4-16 11-30 16-30 6 0 7-4 4-10-3-5-2-10 2-10 5 0 17-17 28-37s41-60 67-88c58-61 58-59 5-84-60-29-85-111-57-185 9-24 6-28-38-50-77-39-117-103-110-173 6-58 110-134 206-149 23-4 42-9 42-13 0-3 10-7 23-7 12-1 65-9 117-19 173-30 273-38 505-38 226 0 296 6 505 39 58 9 113 17 123 17 9 1 17 5 17 9s8 8 18 8c24 0 120 41 164 70 75 50 77 144 4 216-25 25-46 45-48 45-33-4-49 14-43 48 4 20 10 37 15 39 4 2 1 29-7 61-13 50-20 61-54 82-46 28-46 32-14 67 14 15 38 47 52 72s29 47 32 50c17 14 69 141 95 233 35 119 30 346-9 477-9 30-17 62-17 70-1 8-4 17-7 20-4 3-18 28-31 55-14 28-27 52-30 55s-23 31-44 62c-34 50-197 220-200 209-1-5-55 28-66 39-3 3-27 16-55 30-27 14-52 28-55 31-7 8-124 38-215 54-97 18-152 17-270-2zm280-43c38-6 74-15 79-20 6-6 19-10 31-10 11 0 40-10 65-22s48-20 53-20c4 1 7-2 7-7s12-12 26-15c24-6 71-35 100-61 6-5 34-30 63-55 290-250 361-692 167-1e3 -41-75-42-76-116-156-75-82-109-101-225-127-133-30-175-43-175-52 0-4-10-10-22-12-13-2-4-5 19-6 105-3 334 58 380 101 23 22 24 22 57 4 129-69 59-188-141-241-314-84-954-59-1153 45-48 25-83 91-67 128 31 74 66 83 152 42 76-36 219-69 330-74 44-3 67-3 50 0-16 3-40 9-52 14-56 24-73 30-153 50-47 12-103 30-125 39-37 17-165 134-165 152 0 4-6 14-13 21-21 22-74 111-82 138-4 14-11 30-15 35-8 10-34 92-35 110 0 6-4 13-10 17-18 13-12 355 7 408 9 25 19 60 23 78 4 17 10 32 15 32 4 0 11 12 15 28 6 24 54 108 80 139 5 7 19 24 30 39 30 39 98 104 164 157 29 23 93 57 108 57 7 0 13 5 13 12 0 6 3 9 6 5 3-3 20 2 37 12 112 62 298 86 472 61zm-789-1744c290-135 1070-135 1301 0l41 24 44-19c90-38 131-119 89-173-131-166-1e3 -214-1496-77-182 56-229 129-136 212 66 58 91 64 157 33z"/><path d="m1585 1387c23-13 48-37 57-57 17-33 18-34 18-9 0 28-18 48-67 73-48 24-54 19-8-7z"/><path d="m1223 693c15-2 37-2 50 0 12 2 0 4-28 4-27 0-38-2-22-4z"/></g></svg>
