<svg fill-rule="evenodd" stroke-linecap="round" stroke-linejoin="round" viewBox="0 0 256 256" xmlns="http://www.w3.org/2000/svg"><g transform="translate(0 256) scale(.1 -.1)" fill="currentColor"><path d="m1160 2349c0-7-21-10-55-7-30 1-56-1-58-5-1-4-16-9-32-10-17-1-33-6-36-10s-16-9-27-10c-12-1-22-5-22-9s-7-8-15-8-30-9-50-20c-19-11-42-17-51-13-12 4-15 3-10-5s0-12-13-12c-12 0-21-5-21-11s-7-9-15-5c-8 3-15 2-15-2 0-5-33-31-72-59-63-44-250-223-233-223 3 0-3-10-15-22-11-12-20-26-20-30 0-5-4-7-9-4-5 4-12-7-16-24-4-16-11-30-16-30s-9-7-9-15-4-15-10-15c-5 0-10-9-10-21 0-13-4-18-12-13-7 5-8 3-3-5 4-7-2-31-13-54-25-50-66-188-81-273-14-77-15-288-1-279 6 4 10-12 10-42 0-26 10-79 21-118 11-38 22-79 25-90 4-11 12-34 20-52 8-17 14-38 14-47s5-16 10-16c6 0 10-7 10-15s3-15 8-15c4 0 16-19 27-43 11-23 28-49 37-58 10-9 18-19 18-23 0-18 128-153 184-193 28-21 61-49 73-63 13-14 23-22 23-17 0 4 17-3 38-16 92-58 249-111 380-129 107-14 385-11 375 5-4 6 28 11 65 10 6-1 12 3 12 8s14 9 31 9 28 4 24 10 5 10 19 10 26 5 26 10c0 6 6 10 13 10s31 9 54 19c22 11 46 21 53 23s24 13 37 25c14 12 35 25 46 29s32 17 46 30 28 24 32 24c6 0 139 132 154 153 6 8 25 35 43 60 69 97 147 277 175 402 21 96 10 454-14 480-5 5-9 18-9 30 0 51-54 178-123 290-45 73-167 226-167 209 0-3-26 18-58 47-32 30-77 63-100 74s-42 26-42 33-5 10-10 7c-6-4-16-2-23 3-7 6-32 18-57 28s-47 20-50 24c-7 8-136 50-155 50-8 0-15 3-15 8 0 4-27 5-60 4-34-2-60 0-60 6 0 5-48 10-110 10-71 1-110-3-110-9zm115-198c0-162 3-156-82-156-28 0-46-3-40-7 7-4-1-8-18-8s-55-9-84-20c-30-11-58-17-62-14-5 3-9 1-9-5 0-5-16-15-35-22s-35-17-35-21-6-8-13-8-32-16-54-35-43-31-47-28c-3 3-6-1-6-10s-7-17-15-17-15-6-15-13c0-8-10-22-21-33-44-40-129-181-129-215 0-11-4-18-9-14-6 3-9-3-9-12 1-10-7-53-16-95-18-79-15-310 4-328 4-3 12-25 18-50 12-41 60-148 72-160 3-3 17-22 33-42 29-39 147-161 147-152 0 3 13-4 29-15 16-12 34-21 40-21s11-5 11-12c0-6 3-8 6-5 4 4 25-3 48-14 23-12 49-25 58-30 10-5 29-9 43-9 15 0 24-4 21-8-2-4 71-8 164-8 93-1 167 3 164 8-3 4 11 8 30 8 20 0 36 5 36 11s10 9 23 8c12-2 38 7 57 19s39 21 43 19c11-3 69-107 60-107-4 0 0-6 9-12 8-7 24-29 34-48 11-19 25-41 32-48 6-7 12-20 12-28 0-15-107-71-117-61-3 3-12-1-21-9-8-9-23-13-34-11-10 3-16 2-13-2 2-5-21-14-53-21-31-7-73-16-92-21-50-13-263-11-334 2-118 23-342 112-354 141-2 5-10 8-18 8s-14 5-14 10c0 6-6 10-13 10s-24 11-39 25-30 25-33 25c-7 0-115 108-115 115 0 3-16 22-35 42s-35 43-35 50-4 13-8 13c-30 0-143 274-161 390-18 111-3 440 19 440 4 0 10 18 13 39 5 40 93 233 108 239 5 2 9 10 9 17 0 8 9 20 20 28s18 16 15 19 8 19 25 36c16 18 30 34 30 36 0 18 165 166 185 166 3 0 16 9 28 21 12 11 59 38 103 59 72 35 110 47 269 88 22 5 69 9 105 8l65-1v-144zm178 129c222-45 389-132 537-280 103-103 200-249 178-268-11-9-236-122-243-122-1 0-22 29-45 65-114 175-280 281-493 315l-77 13v148c0 174-15 160 143 129zm-543-24c-14-7-36-16-50-20-14-3-7 3 15 14 45 22 74 27 35 6zm-245-132c-22-20-58-50-80-66l-40-31 40 39c43 42 107 94 115 93 3 0-13-16-35-35zm1369-113c16-17 27-33 25-36-3-2-30 21-60 52-34 35-43 48-24 35 17-11 43-34 59-51zm-594-82c37-11 50-16 115-44 57-25 195-123 195-138 0-3 16-21 35-40s35-42 35-52c0-9 4-14 8-11 9 5 67-103 83-154 58-195 44-350-48-531-31-62-134-189-153-189-4 0-22-13-39-29-18-17-42-33-54-37s-24-10-27-13c-8-10-74-40-128-57-26-9-99-18-163-21-197-10-357 56-497 202-117 122-176 249-187 401-9 133 11 249 60 345 15 30 33 64 39 76 6 13 14 23 19 23 4 0 7 5 7 11 0 23 172 177 191 172 5-2 9 1 9 6s15 14 33 22c17 7 34 15 37 18 40 45 321 71 430 40zm349-175c28-30 51-61 51-67 0-7-3-7-8-1-5 5-32 35-62 67-29 31-48 57-42 57 5 0 33-25 61-56zm424-81c3-10 17-50 30-89 112-325 17-740-227-1e3 -62-66-177-162-194-162-6 0-38 46-72 103-34 56-67 110-73 120-10 15-7 21 23 45 202 156 293 347 292 608-1 92-5 125-26 188-14 42-26 79-26 82 0 7 241 123 256 123 7 1 14-7 17-16zm-1479-816c21-26 36-50 34-53-6-5-60 62-78 96-15 29-8 23 44-43zm1e3 -65c-10-19-37-44-61-57-8-4 3 11 25 34 43 45 51 50 36 23zm-1341-124c29-42 35-56 19-40-23 20-76 102-66 102 2 0 24-28 47-62zm265-261c6-5-4-2-20 6-17 8-50 34-75 57l-45 42 65-48c36-26 70-52 75-57zm1105-34c-25-18-38-10-21 11 7 8 19 12 27 9 12-4 11-8-6-20z"/></g></svg>
