<svg fill-rule="evenodd" stroke-linecap="round" stroke-linejoin="round" viewBox="0 0 256 256" xmlns="http://www.w3.org/2000/svg"><g transform="translate(0 256) scale(.1 -.1)" fill="currentColor"><path d="m875 2348c-16-5-52-16-80-24-75-23-114-42-185-92-60-43-170-148-170-164 0-4-6-13-13-20-18-19-67-117-67-135 0-8-5-11-11-7-7 4-10 1-7-7s-1-32-9-54c-19-54-41-205-31-211 5-3 5-10 2-16-4-6-2-8 4-4 6 3 14 1 17-5 13-20 32 25 40 91 14 129 69 266 138 343 18 19 37 43 43 53s18 22 28 28 33 25 51 42c41 38 147 90 235 115 139 40 391 11 460-53 11-10 20-16 20-13 0 15 93-57 153-119 67-70 128-173 131-221 0-13 4-21 7-19 24 15 36-276 15-359-24-95-98-264-125-287-3-3-20-23-36-45s-37-49-47-60c-94-112-146-180-163-212-11-21-22-40-26-43-17-14-33-83-60-250-11-68-48-157-83-198-40-48-89-91-98-86-4 3-8-1-8-8 0-25-92-48-194-48-54 0-95 4-92 9s-6 8-20 8c-15 0-29 5-33 11-3 5-9 9-13 9-3-1-23 12-44 28-78 62-103 101-125 190-19 81-21 84-48 74-22-9-23-13-16-62 4-28 8-60 8-69 1-10 5-18 9-18s8-7 8-15 3-15 8-15c4 0 13-14 20-30 20-44 104-124 154-144 24-10 53-23 65-29 34-16 227-14 247 2 9 7 22 11 30 8s16-3 18 1 23 20 48 34c53 31 175 148 155 148-3 0 4 15 14 34 24 42 51 146 51 195 0 63 64 233 102 272 8 8 30 36 50 62 20 27 57 71 82 99 26 27 46 53 46 57s8 16 18 27c31 34 100 149 114 192 8 23 18 39 22 35s4 1 0 10c-4 10-2 28 4 40 41 88 42 377 2 457-4 9-11 31-15 50s-10 37-14 40c-3 3-15 21-25 40-70 127-267 300-341 300-8 0-15 4-15 8s-10 9-22 9c-13 1-24 6-26 11-1 5-15 7-31 4-16-2-32 1-35 7-9 14-248 13-291-1zm413-63c-6-6-88 19-88 26 0 4 20 1 46-8 25-8 44-17 42-18zm-488 11c0-6-112-57-117-53-2 3 20 16 48 31 50 25 69 31 69 22zm-135-65c-10-17-125-101-125-93 0 13 102 93 128 101 2 1 1-3-3-8zm849-101c57-59 95-108 112-144 34-74 74-238 73-295-1-37-4-28-15 44-30 194-116 348-258 463-24 19-32 29-19 26 11-3 59-45 107-94zm-1085-154c-21-35-29-44-29-28 0 12 41 74 46 69 3-2-5-21-17-41zm1249-501c-5-28-15-54-20-60-7-7-8-3-5 10 3 11 11 40 17 64 15 58 21 48 8-14zm-93-233c-31-59-96-140-84-105 6 18 114 181 117 178 2-2-13-35-33-73zm-173-229c-36-50-94-110-81-84 11 23 87 111 96 111 2 0-5-12-15-27zm-172-313c-10-41-18-63-19-49-1 26 28 134 34 127 2-1-5-37-15-78zm-766-252c8-18 25-49 38-67 12-19 17-31 10-27-13 8-72 105-72 119 0 16 11 5 24-25zm688-30c-36-62-82-111-135-145-61-39-65-21-4 19 57 38 113 100 141 156 10 19 20 31 23 29 3-3-9-30-25-59zm-413-184c15-14-15-14-46 0l-38 16 40-6c22-4 42-8 44-10z"/><path d="m922 2e3c-13-5-28-7-33-3-5 3-9 0-9-5 0-6-7-11-15-11-38 0-166-106-179-147-4-13-12-23-17-23s-9-7-9-15-4-15-10-15c-5 0-10-9-10-20s-4-20-10-20c-5 0-7-6-4-14s1-17-5-21c-6-3-11-19-11-36 0-16-3-29-7-29-5 0-9-47-9-105-1-58 3-105 7-105 5 0 9-8 9-19 0-39 50-51 64-15 3 8-1 30-8 49-19 45 11 76 81 82 125 12 220-65 243-198 10-60 9-70-20-164-24-78-30-116-29-175 2-124-27-181-115-227-56-29-166 17-166 71 0 26-25 37-47 19-17-14-18-20-8-51 15-42 76-102 104-102 12 0 21-3 21-7 0-10 93-11 100-1 3 3 14 8 25 10 25 4 115 93 115 114 0 9 5 12 11 8 7-4 10-1 7 7s-2 21 3 30 10 59 12 110c3 66 13 119 32 179 34 108 31 195-10 283-62 130-211 196-344 152-23-8-24-7-17 31 19 105 89 234 127 234 7 0 9 3 6 7-4 3 8 17 27 29 166 113 395 61 494-114 36-64 37-289 1-326-15-17-10-66 8-73 52-20 106 188 79 307-20 84-39 140-48 140-5 0-8 6-8 13 0 17-73 97-88 97-7 0-12 3-12 8 0 10-54 37-113 56-52 17-178 20-215 5zm38-28c-14-4-38-11-55-14l-30-7 25 15c14 8 39 14 55 14 29-1 29-1 5-8zm225-20c22-10 47-26 55-36 12-15-100 33-119 51-12 11 29 1 64-15zm-446-116c-43-57-49-62-49-45 0 10 78 100 87 100 2 0-15-25-38-55zm612-47c11-21 22-59 24-85l6-48-25 68c-13 37-31 79-40 92-45 70-49 81-16 45 17-19 40-52 51-72zm-701-244c0-21-4-33-10-29-5 3-10 22-10 41 0 21 4 33 10 29 6-3 10-22 10-41zm233 7c38-15 86-61 107-102 30-58 23-70-10-17-31 49-73 86-136 119-40 21-16 21 39 0zm475-114c-11-34-28-51-28-27 0 15 30 73 35 68 3-2-1-21-7-41zm-376-464c1-89-22-151-70-195-24-22-22-9 3 22 31 38 51 123 54 229 2 66 11 23 13-56zm-298-207c26-23 60-36 92-36 14 0 22-4 19-10-26-41-165 43-165 99l1 26 16-30c9-16 25-38 37-49z"/><path d="m743 1254c-3-8-1-26 6-40 22-50 0-164-31-164-5 0-8-6-8-14s-6-16-12-19c-17-6 21-38 42-34 24 3 79 125 80 175 0 59-23 112-50 112-11 0-23-7-27-16zm46-93-2-66-7 55c-4 30-11 66-16 80-7 23-6 24 9 11 13-10 17-29 16-80z"/></g></svg>
