<svg fill-rule="evenodd" stroke-linecap="round" stroke-linejoin="round" viewBox="0 0 256 256" xmlns="http://www.w3.org/2000/svg"><g transform="translate(0 256) scale(.1 -.1)" fill="currentColor"><path d="m745 2239c-58-9-155-38-171-50-6-5-14-6-17-2-4 3-7 1-7-5 0-7-7-12-15-12s-15-4-15-10c0-5-10-12-22-15-37-10-179-161-194-207-4-10-11-18-16-18s-6-4-3-10c3-5 2-10-3-10-6 0-13-16-16-35-4-19-11-35-15-35-5 0-12-17-16-37-4-21-10-42-15-48-5-5-10-50-12-100-3-84-2-90 17-90 17 0 22 14 38 110 11 61 23 112 27 115s10 22 14 43c4 20 11 37 16 37 6 0 10 6 10 14s6 21 14 28c7 8 17 24 21 36 9 30 143 164 156 157 5-4 9-2 9 3s24 20 53 34c154 76 314 86 457 29 47-19 87-37 90-41s14-10 26-14c11-3 53-38 92-78 186-184 227-468 108-738-8-19-15-30-16-25 0 6-9-8-19-30-19-40-42-71-93-127-16-17-28-33-28-37 0-3-16-24-35-46s-38-45-43-51c-21-30-33-51-38-66-4-10-11-18-17-18s-7-3-4-7c4-3 3-11-2-17-10-13-38-134-45-199-13-115-137-277-212-277-12 0-24-4-26-9-1-6-30-10-63-11-82-2-97 0-110 9-5 5-24 12-41 15-17 4-41 16-53 27-11 11-21 17-21 14 0-2-9 3-20 12-11 10-20 21-20 26s-7 15-15 23c-8 9-15 24-15 35 0 10-4 19-9 19s-13 24-16 54c-5 35-13 57-22 61-25 9-43-14-37-48 3-18 6-40 8-49 1-10 5-21 9-24 4-4 7-16 7-26s5-18 10-18c6 0 10-6 10-13 0-19 99-119 138-140 75-39 295-43 318-5 3 5 10 6 15 3 5-4 9-1 9 4 0 6 6 11 14 11 49 0 185 199 186 272 1 46 36 188 45 181 4-4 5-3 1 4-12 22 110 213 137 213 6 0 8 3 4 6-5 5 16 31 68 88 96 103 176 358 160 510-4 39-8 83-9 99 0 15-4 27-8 27-5 0-8 11-8 25 0 93-173 322-286 380-22 11-40 23-42 28-2 4-10 7-17 7-8 0-26 5-42 12-30 12-37 14-128 28-69 11-119 11-190-1z"/><path d="m704 1895c-47-23-85-51-115-84-63-70-65-73-80-117-8-21-18-42-24-46-15-11-13-250 2-268 7-8 35-41 63-73 47-54 50-60 50-112 0-48-4-58-27-78-100-83-128-139-105-214 20-68 62-98 137-98 76 0 101 18 146 108 16 31 34 57 41 57 6 0 9 3 5 6-7 7 60 44 80 44 7 0 13 4 13 9s10 13 22 17c53 16 111 104 129 193 26 132-35 266-141 313-86 38-228 20-230-30 0-19 30-27 51-14 10 7 26 9 35 5 12-4 15-3 10 5-11 18 36 15 86-4 94-37 138-105 138-216 0-115-39-175-148-230-65-33-122-82-122-105 0-7-4-13-10-13-5 0-9-3-8-7 4-13-23-56-46-75-68-56-169 31-136 118 12 29 42 64 58 64 12 0 62 54 62 68 0 7 4 12 9 12 13 0 10 132-3 149-6 8-30 33-53 57-65 66-76 94-71 188 3 77 31 163 67 208 52 66 86 98 112 103 16 4 29 10 29 15 0 15 111 32 164 26 58-8 141-43 169-72 68-72 97-133 104-222 6-66 15-81 37-62 15 12 27 90 14 90-5 0-8 13-8 29 0 65-64 171-132 217-23 16-45 31-48 34-18 18-118 40-181 40-64 0-84-5-145-35z"/></g></svg>
