<svg fill-rule="evenodd" stroke-linecap="round" stroke-linejoin="round" viewBox="0 0 256 256" xmlns="http://www.w3.org/2000/svg"><g transform="rotate(-12 128 128)" fill="none" stroke="currentColor" stroke-width="9"><path d="M44 96 C44 88 51 81 59 81 L197 81 C205 81 212 88 212 96 L196 66 C194 62 190 60 186 60 L70 60 C66 60 62 62 60 66 Z"/><path d="M44 96 L44 176 C44 184 51 191 59 191 L197 191 C205 191 212 184 212 176 L212 96 C212 88 205 81 197 81 L59 81 C51 81 44 88 44 96 Z"/><line x1="44" y1="120" x2="212" y2="120"/></g></svg>
