<svg fill-rule="evenodd" stroke-linecap="round" stroke-linejoin="round" viewBox="0 0 256 256" xmlns="http://www.w3.org/2000/svg"><g transform="translate(0 256) scale(.1 -.1)" fill="currentColor"><path d="m1131 2346c-9-11-10-25-2-53 29-102 1-272-67-413-15-30-29-57-32-60s-21-30-40-60-38-56-42-58c-5-2-8-10-8-18s-10-24-22-36c-13-13-22-24-20-25 1-2 0-3-3-3h-14c-5 0-14 15-22 33-7 17-32 52-56 75-24 24-43 48-43 54 0 5-4 7-10 3-5-3-18 0-29 7-30 18-45-2-42-56 1-24-3-47-9-51-5-3-10-17-10-31 0-13-4-24-9-24s-11-13-14-29c-7-35-100-184-110-176-4 3-5 2-2-2 3-3 1-11-4-17-17-21-61-109-61-122 0-8-4-14-9-14s-13-25-16-55c-4-30-11-58-16-61-16-10-10-304 7-354 9-25 16-53 17-62 1-10 5-18 9-18s8-6 8-14 15-44 34-80 33-66 31-66 6-10 18-23 38-42 57-65 38-42 43-42c4 0 15-8 25-17 10-10 35-31 56-48 21-16 44-34 50-40 6-5 16-10 21-11 23-3 55-17 55-25 0-5 3-8 8-7 8 2 47-9 77-22 45-20 136-40 179-40 25 0 46-4 46-10 0-12 226-14 234-1 3 4 36 11 74 14 37 3 81 11 97 17 17 7 39 16 50 20 22 9 65 27 133 56 23 10 42 21 42 26 0 4 4 8 10 8 30 0 220 196 220 227 0 7 3 13 8 13 8 0 27 36 55 100 80 185 76 483-9 677-8 17-14 38-14 47s-4 16-10 16c-5 0-10 5-10 10 0 15-68 121-93 144-25 24-46 13-62-33-6-18-14-29-18-24-5 4-5 0-2-9 4-11-14-37-57-82-62-64-97-85-84-49 25 64 10 303-24 388-4 11-16 43-25 70-10 28-22 55-27 62s-7 17-3 23c3 5 2 10-3 10s-15 12-22 28c-35 69-240 305-240 275 0-3-10 3-22 15-30 28-173 102-197 102-10 0-24-6-30-14zm116-78c237-136 408-397 433-660 8-83 0-235-14-269-12-28 19-44 56-28 79 32 134 85 194 185 16 28 34 8 83-89 67-133 85-216 84-392 0-130-3-160-24-230-60-197-211-369-393-450-81-36-95-33-56 12 56 63 91 151 96 240 3 68 2 74-7 43l-12-35-12 60c-7 33-16 74-20 90-11 42 2 26 26-31l20-49-6 43c-12 95-113 232-170 232-80 0-175 179-175 331 0 74-16 89-68 65-105-51-298-240-372-366-124-210-116-473 18-612 48-50 35-58-40-22-291 137-437 373-426 691 6 158 30 229 142 406 74 118 116 215 116 269 0 35 10 35 42 1 44-49 68-90 81-142 17-67 30-80 57-56 11 10 20 25 20 33s36 69 79 136c141 214 179 318 186 501 2 61 4 111 4 113 2 7 24-1 58-20zm-411-612c13-28 13-29 0-11-9 11-19 25-24 30-22 27-26 40-8 26 9-8 24-28 32-45zm464-435c0-127 116-331 188-331 91 0 187-192 163-326-20-109-94-219-174-261-128-66-322-57-430 20-279 198-212 599 147 883 98 78 106 79 106 15zm-210-74c0-2-19-21-42-42l-42-40 33 43c27 34 51 53 51 39zm-571-512c2-20-28 33-34 61-4 25-2 23 14-11 11-22 20-44 20-50zm344-32c2-51 1-90-3-88-14 8-22 100-14 151 9 61 11 52 17-63zm-138-197c37-34 37-36 10-22-16 8-48 33-70 57-47 50-10 28 60-35zm915 19c0-8-14-29-31-47-32-34-28-17 9 40 17 26 22 28 22 7zm-575-144c3-5 31-17 63-27 31-9 51-19 44-21-7-3-36 3-65 12-29 10-61 19-72 20-38 5-40 6-20 15 27 12 43 12 50 1zm445-9c0-13-48-32-78-31-25 1-24 2 13 20 43 20 65 24 65 11z"/></g></svg>
