<svg fill-rule="evenodd" stroke-linecap="round" stroke-linejoin="round" viewBox="0 0 256 256" xmlns="http://www.w3.org/2000/svg"><g transform="translate(0 256) scale(.1 -.1)" fill="currentColor"><path d="m1370 2331c-25-5-48-7-52-4-4 2-15-1-25-6s-56-15-103-21-116-16-155-21c-38-6-86-11-105-13s-42-5-50-8-69-13-135-23c-66-9-144-21-172-27-29-5-58-6-64-2-7 4-9 3-6-3 4-6-24-13-73-17-114-9-167-32-205-85l-30-43-3-256c-6-537 11-1206 31-1226 9-10 17-23 17-29 0-25 60-47 130-47 48 0 71-4 80-15 7-8 9-15 5-15-5 0 12-20 37-45 35-34 54-45 78-45 18 0 29-4 25-10s5-10 20-10 24 4 20 10c-3 6 3 10 14 10 12 0 21-4 21-10 0-5 12-9 28-8 36 1 163-12 182-20 17-6 20-7 158-17 56-4 102-12 102-17s8-8 18-7c32 5 202-12 202-21 0-4 45-11 100-15s100-10 100-14 15-8 33-9c17-1 64-7 102-13 180-30 226-22 295 51 32 33 70 124 70 165 0 8 4 15 9 15s8 6 8 13c-1 22 15 77 23 77 5 0 6 8 3 19-3 10 0 22 6 25 6 4 11 16 11 27 0 10 4 19 9 19s8 6 8 13c-1 22 15 77 23 77 4 0 7 6 7 13-1 24 16 97 23 97 3 0 7 6 8 13 6 46 16 76 24 71 5-3 8 0 7 7-3 23 13 79 23 79 5 0 8 6 7 12-3 20 13 78 21 78 4 0 8 10 8 23 0 24 35 137 55 176 7 14 12 65 12 122v98l-41 39c-23 21-63 46-88 56-44 17-46 19-46 57 0 22 4 38 8 35 5-3 8 26 8 65 0 38-3 69-7 69s-10 12-14 28c-6 26-70 82-94 82-6 0-11 4-11 10 0 5-6 7-14 4s-17-1-21 5c-3 6-18 11-33 11-41 0-73 22-86 56-25 70-115 124-208 124-56 0-78 11-84 39-11 49-30 78-78 119-20 16-118 23-176 13zm148-58c66-43 61 16 62-775 0-472-3-718-10-718-5 0-10-6-10-13 0-42-93-85-190-88-30-1-60-6-66-10-6-5-56-12-112-15-56-4-102-10-102-14 0-8-152-25-187-22-13 2-23-1-23-6 0-9-140-26-193-23-16 1-26-3-23-7 5-9-141-26-201-23-18 0-33-4-33-9 0-6-22-10-50-10-27 0-50 4-50 9s-10 11-23 15c-57 14-56 4-63 766l-7 699 27 41c15 22 31 38 36 35 4-3 10 0 12 6 4 11 224 49 305 52 24 1 43 5 43 8 0 4 21 9 48 12 151 19 362 51 597 91 117 20 181 19 213-1zm264-175c20-6 50-24 65-40 35-36 37-123 10-368-10-85-24-213-32-285-51-473-95-798-112-825-39-67-73-75-523-115-579-51-601-52-645-25-38 23-55 58-34 71 7 4 47 10 89 14 41 3 95 10 120 16 25 5 83 13 130 18 47 6 128 15 180 20 52 6 113 15 135 21 22 5 90 14 150 20 135 14 192 26 212 45 8 8 20 15 26 15 7 0 23 17 37 38l25 37 6 365c4 201 7 508 8 684l1 318 58-7c31-3 74-11 94-17zm238-173c61-20 99-44 100-62 0-6 6-13 13-16 32-10 11-164-73-522-61-261-176-789-185-845-12-74-42-117-102-145l-53-26-237 21c-131 12-294 25-362 31-68 5-128 12-132 15-21 13 6 23 79 29 42 3 131 13 197 20 66 8 176 19 245 25 212 20 258 59 279 238 6 53 36 308 66 567 31 259 60 515 66 570 12 117 15 129 32 122 6-2 37-12 67-22zm277-424c35-51 31-70-83-426-59-181-133-418-167-525-80-261-108-295-235-288-63 3-68 16-12 35 45 16 96 71 109 120 6 21 43 193 81 383s90 435 115 545 45 208 45 217 6 18 13 21c21 8 110-46 134-82z"/><path d="m1140 1875c-27-71-207-274-230-260-6 4-10 2-10-4 0-12-106-63-189-91-144-48-256-132-227-172 18-25 21-24 62 17 55 55 159 105 186 89 4-3 8 0 8 5 0 6 7 11 15 11s38 11 66 25c29 13 56 22 62 18 6-3 7-1 3 5-4 7-2 12 4 12 21 0 124 73 176 124 74 74 143 197 130 231-9 24-45 18-56-10z"/></g></svg>
