<svg fill-rule="evenodd" stroke-linecap="round" stroke-linejoin="round" viewBox="0 0 256 256" xmlns="http://www.w3.org/2000/svg"><g transform="translate(0 256) scale(.1 -.1)" fill="currentColor"><path d="m1217 2358c-7-4-42-8-79-8s-69-4-72-9c-4-5-29-12-56-16-28-4-72-18-99-31s-61-26-75-30c-14-3-26-10-26-14 0-5-13-11-30-15-16-4-30-11-30-16s-6-9-14-9-21-6-28-13-33-28-58-46c-69-52-147-130-198-196-25-33-49-62-52-65s-14-23-25-44c-11-22-24-44-30-50-10-11-43-94-52-133-3-13-9-23-13-23-5 0-12-25-15-55-4-30-11-52-16-50-4 3-8-3-7-12 0-10-5-68-13-129-13-112 2-374 22-374 4 0 11-25 14-55 4-30 10-55 14-55s18-29 32-65c13-36 27-65 31-65 3 0 9-14 13-30 4-17 10-30 15-30s12-10 16-22c7-25 5-21 82-113 60-71 120-130 180-175 19-14 40-30 47-37s32-22 56-35c24-12 46-24 49-27 6-7 95-40 128-48 12-3 22-9 22-13 0-5 23-11 50-15 28-4 50-10 50-14 0-11 72-15 230-16 152 0 240 6 240 18 0 4 11 7 24 7 12 0 54 12 92 26s84 31 102 37c17 5 32 14 32 18s12 10 26 13c15 4 32 12 39 19s23 19 35 27 28 21 36 27c7 7 17 13 22 13 8 0 167 162 198 202 32 42 84 125 84 135 0 7 4 13 9 13s12 13 16 30c4 16 11 30 16 30s9 8 9 18c0 9 6 29 14 44s17 42 21 60 11 38 15 43c4 6 15 80 25 166 16 144 16 162 1 249-9 51-16 106-16 121s-7 40-15 55c-8 16-15 39-15 52 0 12-4 22-9 22s-12 16-15 35c-4 19-11 35-16 35s-12 16-16 35c-3 19-9 35-13 35s-12 12-18 28c-12 27-34 63-43 72-3 3-27 32-52 65-63 82-248 252-248 228 0-4-4-3-8 3-11 16-108 73-137 80-14 3-25 10-25 14 0 5-18 11-40 15s-40 10-40 15c0 4-25 11-57 15-31 4-63 11-72 16-21 12-249 27-264 17zm8-568v-515h-475-475l-3 40c-4 51 24 220 49 293 124 362 419 619 788 687 131 24 116 88 116-505zm240 505c22-3 47-9 55-12 8-4 20-5 27-4 6 1 14-3 18-9 3-5 15-10 26-10 24 0 122-40 127-52 2-4 8-8 12-8 13 0 131-69 155-90 70-62 175-165 175-171 0-5 10-19 23-33 33-36 59-74 79-116 7-14 22-41 34-60 23-39 64-162 64-195 0-11 5-26 11-32 16-16 25-223 11-232-7-4-234-7-504-7l-493 1-3 523-2 524 72-5c40-3 91-8 113-12zm-234-1088c1-22-3-892-5-922-1-29-2-30-51-29-53 1-156 19-190 33-11 5-48 19-82 32-35 13-63 27-63 31 0 5-5 8-11 8-17 0-151 82-156 97-3 7-10 13-17 13-13 0-128 116-173 175-114 150-187 331-208 512l-7 63 204 2c396 6 758-2 759-15zm1e3 14c16-10 9-157-9-175-6-6-10-25-10-43s-4-33-9-33-7-8-4-19c3-10 0-22-6-25-6-4-11-16-11-27 0-10-4-19-10-19-5 0-7-7-4-15 4-8 2-15-4-15-5 0-13-12-17-27-3-15-10-30-13-33-4-3-18-26-32-52-13-27-28-48-32-48-5 0-8-6-8-12 0-22-89-120-178-198-72-62-147-112-156-103-3 4-6 1-6-5 0-7-7-12-15-12s-15-5-15-11-7-9-15-5c-8 3-15 2-15-2 0-13-105-54-196-76-49-12-160-20-221-17-10 1-13 105-13 485 0 378 3 485 13 489 23 9 972 7 986-2z"/></g></svg>
