<svg fill-rule="evenodd" stroke-linecap="round" stroke-linejoin="round" viewBox="0 0 256 256" xmlns="http://www.w3.org/2000/svg"><g transform="translate(0 256) scale(.1 -.1)" fill="currentColor"><path d="m1146 2363c-49-8-106-50-106-78 0-9-4-14-8-11-5 3-7-7-5-22s0-54-4-87l-8-59-62-31-61-32-38 31c-21 17-49 41-61 53-13 12-23 19-23 16 0-4-5-2-12 5-16 16-81 15-121-2-33-14-191-168-214-208-35-64-13-148 59-222 42-42 46-57 23-80-8-8-15-21-15-30 0-55-36-76-132-76-65 0-141-45-130-78 2-6-1-12-7-12-7 0-11-52-11-160s4-160 11-160c6 0 9-6 7-12-13-37 63-74 166-82 72-6 82-12 92-56 3-14 9-33 15-42 12-24 11-47-4-63-16-19-27-32-60-76-23-30-27-46-27-98v-62l96-99c105-109 169-144 214-120 12 6 24 9 27 6 3-2 14 4 26 14 11 11 24 17 29 14 4-3 8-1 8 4s19 22 43 39c42 30 42 30 72 12 17-10 40-18 53-18 12-1 22-6 22-11 0-6 6-9 13-8 9 2 12-19 12-80 0-45 3-82 8-82 4 0 7-6 7-13 0-18 49-61 86-76 21-8 73-11 160-8 160 5 161 5 204 44 34 31 35 35 40 125 4 67 9 92 18 90 6-1 12 2 12 6 0 5 18 15 40 22s40 17 40 22c0 21 39 4 80-36 112-107 187-95 334 54l96 98v55c0 30-6 65-12 78-16 30-71 103-80 107-12 6-9 33 9 82 24 65 26 67 104 74 103 11 169 47 161 90-2 10 1 23 7 29 15 15 15 260-1 290-6 12-14 29-18 37-15 34-69 58-144 65-84 7-86 9-115 82-16 42-18 55-8 65 19 20 70 90 85 115 6 13 12 48 12 78v56l-97 101c-54 55-110 106-125 114-32 16-104 19-113 3-4-5-12-8-17-7-6 2-21-5-32-16-12-12-39-35-60-52l-37-30-52 23c-29 13-59 28-67 32-11 6-16 32-20 97-4 75-9 94-28 114-12 13-22 28-22 32 0 5-5 6-11 2-6-3-15-1-19 6-9 14-242 24-304 13zm304-40c27-19 40-33 40-47 0-6-14 3-31 20-25 23-42 30-92 35l-62 6 60 1c42 2 68-3 85-15zm-12-42c26-27 30-38 36-118 7-88 22-123 53-123 7 0 40-13 73-30 75-38 65-40 158 30 114 86 122 85 238-36 124-129 126-142 40-243-66-76-68-80-46-130 11-23 24-60 30-81 15-55 33-70 88-70 161-2 182-26 182-206v-132l-35-31c-33-29-41-31-108-31-75 0-117-16-117-46 0-8-14-44-30-81-16-36-30-67-30-69 0-1 30-40 66-86 84-107 83-113-33-230-124-125-142-127-253-33-64 54-75 54-185 8-81-34-93-55-95-158-1-104-33-125-190-125-167 0-186 15-197 150-7 98-9 100-103 139-98 41-104 40-183-24-102-82-116-80-234 38-120 121-122 136-32 246 33 41 58 79 55 85-2 6-19 47-36 91-39 96-31 91-142 100-133 10-138 17-138 194 0 182 15 201 161 201 73 0 89 14 123 110 34 98 34 97-25 165-88 101-87 117 10 220 138 146 157 151 253 74 93-76 90-75 193-30l90 39 5 88c9 151 25 164 201 164h127l30-29zm-668-168c14-9 39-29 57-46 17-16 46-33 65-37 26-6 29-9 15-15-18-7-26-3-141 80-47 34-44 51 4 18zm1e3 -13c-24-16-63-43-86-61l-42-32-76 33c-42 18-78 37-81 42-11 17 6 21 23 6 24-20 111-58 134-58 11 0 36 15 56 33 51 45 84 67 102 67 8 0-5-13-30-30zm220-66c24-25 41-47 39-50-3-2-26 18-52 46-26 27-43 50-38 50s28-21 51-46zm-1570-131c-6-15-7-43-4-61 4-23 3-32-4-27-14 8-14 70-1 96 16 28 21 23 9-8zm1664-100c-10-15-35-50-55-76-21-27-38-59-38-70-1-20-1-21-11-4-8 13-7 23 3 36 7 10 34 46 61 81 30 40 48 73 49 94l1 31 4-32c3-20-3-43-14-60zm-1728-303c-90-10-110-25-142-105-10-27-12-27-12-7-3 71 64 123 154 121l60-2-60-7zm1869-1c14-7 27-18 30-25 4-11-1-10-19 2-14 9-48 20-77 24l-53 8 47 1c26 0 58-4 72-10zm-2e3 -387c7-8 27-23 43-34 25-15 27-18 10-18-46 0-96 62-94 117 0 26 1 25 15-11 8-21 20-46 26-54zm2e3 -2c-20-38-69-61-127-58-40 1-40 1-8 5 19 2 45 5 56 8 26 6 84 63 85 84 0 10 3 11 5 4 3-6-2-26-11-43zm-1805-76c15-38 13-40-15-14-14 13-44 27-68 31-41 6-41 7 16 8 53 1 58-1 67-25zm-9-235c-23-29-41-56-41-62s-3-8-6-4c-11 11 59 117 78 117 6 0-9-23-31-51zm1619-41c34-57 22-115-35-168-23-22-22-18 9 29 41 60 44 82 17 134-23 46-18 48 9 5zm-1616-157c9-8 26-28 37-45s-5-4-35 28c-31 33-56 66-56 75 0 10 8 4 18-14 11-16 26-36 36-44zm1240-87c52-43 62-54 52-54-2 0-26 18-52 40-27 22-56 40-65 40-23 0-115-43-139-65-18-16-20-16-20-2 0 9 6 19 13 24 12 8 137 60 148 62 4 1 32-20 63-45zm295 29c-53-69-154-131-177-109-3 3 2 6 12 6 29 0 89 37 131 79 40 42 57 54 34 24zm-1433-44c10-12 33-30 49-40 19-12 24-19 14-19-18 0-110 79-93 80 6 0 19-10 30-21zm239 10c-12-19-88-69-104-69-9 0 7 14 36 30 28 16 54 34 58 40 3 5 8 10 11 10s2-5-1-11zm184 0c24-9 31-17 31-37-1-24-2-25-11-9-6 10-25 27-42 38-36 21-26 25 22 8zm447-248c-24-26-92-41-146-31-43 7-42 8 25 9 51 1 78 6 100 21 38 25 43 25 21 1z"/><path d="m1207 1720c-261-44-427-332-338-586 118-334 562-395 763-105 150 216 76 530-152 646-88 45-181 60-273 45zm240-55c28-15 57-33 64-41 8-10-2-7-24 6-21 12-63 31-95 41-47 15-51 18-26 18 16 1 53-10 81-24zm-79-11c66-19 132-61 183-116 43-47 81-116 72-131-3-7-2-8 2-4 18 16 36-114 24-173-14-69-29-110-40-110-5 0-8-3-7-7 5-17-34-73-77-111-149-131-361-126-503 11-52 50-96 122-86 138 4 7 3 9-3 6-14-9-36 108-30 161 11 90 47 161 120 235 37 37 71 65 76 62s11 0 13 6c4 13 126 47 171 48 16 1 54-6 85-15zm-365-82c-49-49-93-132-114-212-6-25-14-39-16-33-7 18 26 123 50 163 26 42 106 130 119 130 5 0-13-22-39-48zm646-113c34-78 20-74-17 4-18 38-26 64-18 58 7-6 24-34 35-62zm-673-434 38-50-38 35c-37 34-86 119-86 150 0 8 11-7 25-35 13-27 41-72 61-100zm660 57c-9-17-20-33-26-37-5-3 0 12 12 34 12 23 23 39 26 37 2-2-4-18-12-34zm-391-202c27-7 27-8 5-8-14 0-36 4-50 8-34 11 3 11 45 0z"/></g></svg>
