<svg fill-rule="evenodd" stroke-linecap="round" stroke-linejoin="round" viewBox="0 0 256 256" xmlns="http://www.w3.org/2000/svg"><g transform="translate(0 256) scale(.1 -.1)" fill="currentColor"><path d="m1230 2320c-68-14-70-15-145-82-23-21-45-38-48-38s-18-12-34-27c-16-16-51-47-78-69-28-23-67-58-87-78-21-21-38-35-38-32s-30-24-67-59c-38-36-74-65-82-65s-12-3-8-6c3-3-33-40-80-82-169-151-325-308-345-346-17-33-19-51-14-115 3-42 6-84 6-94 1-9 5-15 10-12s12-4 15-16c6-19 45-66 45-54 0 3 10-1 23-8 42-27 112-40 137-27 15 8 20 8 16 1-4-6-1-11 6-11 9 0 14-12 14-35 0-19-4-35-8-35-5 0-4-8 1-18 12-23 13-526 0-559-6-16-6-22 1-18 6 4 10-6 10-23 0-63 56-131 129-157 69-24 1281-23 1343 2 46 18 110 78 117 109 3 11 7 183 10 384 6 337 7 365 24 368 9 2 17-1 17-7s14-11 30-11c17 0 30 5 30 10 0 6 10 10 23 10s28 5 35 12 12 8 12 3c0-8 51 44 80 81 17 22 20 37 27 114 5 60-17 127-56 167-12 12-21 27-21 32s-6 11-14 13-51 38-96 81l-81 78 3 229c3 219 2 229-17 242-35 23-327 28-350 6-26-25-36-134-11-125 13 5 16 0 16-28 0-22 9-45 28-66l27-34-30 22c-51 36-92 83-72 83 23 0 21 17-3 30-11 6-20 17-20 25s-4 14-8 13c-8-3-58 36-146 112-23 19-43 37-46 41-44 47-161 83-230 69zm158-50c46-28 40-34-10-9-51 26-56 29-37 29 8 0 29-9 47-20zm-260-45c-26-25-52-45-59-45-17 0 7 27 55 62 56 41 58 34 4-17zm250 4c24-16 122-98 218-182s204-177 238-207c178-154 418-374 437-401 64-90 16-237-85-259-72-16-88-6-274 164-97 89-203 185-236 215-34 30-106 96-161 147-170 157-198 174-266 159-42-9-137-92-622-547-155-145-177-158-251-144-70 13-116 77-116 160 0 89-8 80 490 531 65 59 389 337 422 364 61 47 138 47 206 0zm-328-63c0-2-19-19-42-36l-43-32 39 36c37 34 46 41 46 32zm978-2c17-3 33-13 36-20 4-11-1-11-26 2-22 11-46 15-77 11-25-3-64-2-86 3-34 6-27 8 41 9 45 0 95-2 112-5zm4-47c10-15 10-357 1-357-15 0-73 46-73 57 0 7-4 12-8 10-4-1-41 27-81 63-126 112-121 105-121 152 0 70 8 87 44 90 68 7 231-4 238-15zm35-254c-1-49-3-9-3 87s2 136 3 88c2-49 2-127 0-175zm-1154 183c-12-20-146-136-158-136-17 0 144 148 163 150 2 0-1-6-5-14zm447-242 35-36-46 31c-68 45-98 39-181-37-15-14-31-23-34-19-10 9 62 75 100 92 44 20 86 10 126-31zm571 6c24-22 38-40 31-40s-32 18-55 40c-55 52-34 52 24 0zm-1268 17c-13-22-155-148-160-143-5 4 51 59 132 129 34 30 39 32 28 14zm637-26c0-5 6-11 14-13 16-4 117-91 196-167 30-30 58-55 61-55 7-1 140-124 297-273 47-46 88-83 91-83s18-12 33-27l28-27v-374c0-323-2-379-16-408-9-19-20-34-24-34-5 0-16-7-25-16s-44-20-80-24c-66-8-290-4-306 6-5 3-9 135-9 293 0 212-3 295-12 313-48 90-93 108-276 108-169 0-205-13-257-95-18-28-20-53-21-323-1-161-4-295-7-298s-81-5-173-5c-190 2-219 9-256 70-23 36-23 40-24 400-2 382-1 391 24 391 8 0 13 2 10 5-6 6 186 195 273 269 19 16 70 63 114 105s111 103 148 136c38 33 86 77 108 98 37 34 89 51 89 28zm-250-140c-5-11-36-41-67-68-32-26-100-88-151-138-96-92-122-113-122-97 0 5 37 42 83 83 45 41 102 95 127 120 44 47 128 119 136 119 3 0 0-9-6-19zm507-22c26-23 73-66 103-97 82-82 15-39-90 58-88 82-98 112-13 39zm696-120c31-31 57-62 57-69s-25 12-56 41c-81 78-94 92-94 102 0 12 23-6 93-74zm-1929-12c-72-75-90-88-59-40 22 34 37 49 83 86 57 44 50 31-24-46zm1551-163c108-93 179-163 172-171-7-6-51 33-202 182-88 86-78 82 30-11zm-1253-85c-87-84-129-103-51-23 39 40 116 101 129 103 3 0-32-36-78-80zm1693-16c-7-29-32-63-46-63-4 0 4 20 18 45 28 51 38 57 28 18zm-2e3 -101c-15-4-65 26-65 38 0 5 18-1 40-13s33-23 25-25zm152-279c-2-27-3-5-3 47s1 74 3 48c2-27 2-69 0-95zm936 122c20-8 38-19 42-24 3-6-10-4-29 4-20 9-67 15-108 15-40 0-80 5-88 10-26 17 143 12 183-5zm-303-8c-19-6-51-28-72-49-35-35-40-25-8 18 21 29 50 44 85 43l30-1-35-11zm315-47c54-50 54-56 52-351l-2-274h-225-225l-3 272c-4 385-4 386 235 381 135-3 143-4 168-28zm82-342c-2-35-3-9-3 57s1 94 3 63c2-32 2-86 0-120zm520 65c-2-21-4-4-4 37s2 58 4 38c2-21 2-55 0-75zm-1e3 -95c-7-69-7-66-7 47-1 91 1 109 7 73 5-25 5-79 0-120zm-523-35c-2-16-4-3-4 27s2 43 4 28c2-16 2-40 0-55zm1533-158c-6-19-23-44-37-55-43-33-47-23-8 22 19 23 39 54 42 68 4 14 8 19 10 13 3-7-1-29-7-48zm-1426-75c6-1 25-7 41-15l30-14-30 6c-53 11-104 42-121 76-16 31-16 31 27-10 23-24 48-43 53-43zm671-19c28-6-4-9-105-8-90 0-130 3-105 7 56 10 163 10 210 1zm324-7c2-2-38-3-90-2-74 1-84 2-49 8 41 6 129 2 139-6zm234-1c-24-2-62-2-85 0-24 2-5 4 42 4s66-2 43-4z"/><path d="m1573 410c0-47 2-66 4-42 2 23 2 61 0 85-2 23-4 4-4-43z"/></g></svg>
