<svg fill-rule="evenodd" stroke-linecap="round" stroke-linejoin="round" viewBox="0 0 256 256" xmlns="http://www.w3.org/2000/svg"><g transform="translate(0 256) scale(.1 -.1)" fill="currentColor"><path d="m1521 2245c-41-7-83-10-93-7-10 2-18 0-18-5 0-6-39-13-87-18-124-10-136-12-153-18-8-3-31-8-50-11-67-10-155-30-160-36-5-7-53-20-82-23-10-1-18-5-18-9s-8-8-18-8-22-3-26-7c-4-5-11-9-14-9-26-6-52-18-52-24 0-5-14-11-30-15s-30-10-30-15-10-12-22-16c-12-3-26-10-32-15s-27-23-46-39-38-30-41-30c-9 0-97-89-137-138-19-23-42-51-53-63-10-12-19-28-19-36 0-7-3-13-7-13-19 0-103-213-103-260 0-12-4-19-8-16-10 6-16-81-16-224 0-136 5-200 14-200 7 0 17-41 22-92 1-10 6-18 10-18s8-9 8-19c0-11 4-22 9-26 5-3 12-19 16-35 4-17 11-30 16-30s9-5 9-11 14-32 32-58c31-45 42-105 21-120-4-3-9-15-11-26-9-53-15-75-21-75-4 0-8-12-8-27-1-16-5-49-11-75-13-64 2-89 36-60 21 19 31 39 13 28-9-6 9 81 35 168 8 26 14 54 14 61 0 25 29 39 56 27 119-55 452-21 612 62 15 8 31 13 35 12 4 0 11 4 15 9 4 6 27 26 52 45 102 79 116 92 160 150 19 25 37 47 41 50 13 10 66 118 85 171 10 30 22 56 25 59s9 23 13 45c5 22 11 44 14 50 15 23 42 185 43 255 1 50 3 67 8 50 4-14 6 27 3 90-8 202 20 456 60 537 14 29 3 69-19 69-10 0-51-5-92-11zm59-50c0-3-12-49-26-102-22-86-26-129-34-358-12-343-27-438-98-605-126-299-354-472-665-505-68-7-294 11-310 25-5 4 20 68 55 141l64 134 175 19c176 18 212 28 187 51-10 9-48 8-168-5-85-10-157-16-159-14-5 5 1 16 73 134l65 104 223 67c163 49 224 71 226 83 6 27-22 28-104 3-44-14-118-37-167-51-48-15-94-29-102-32-8-4-15-1-15 5 0 13 162 238 285 396 47 61 104 134 127 163 31 40 38 56 30 64-19 19-83-51-270-297-46-60-87-110-90-110-4 0-8 16-9 35-5 112-16 218-23 231-20 31-40-11-30-62 5-25 12-94 15-155l7-109-34-45c-19-25-74-105-122-178-48-72-89-132-90-132-2 0-9 57-15 128-18 195-21 212-37 212-17 0-17-8-3-240l10-175-73-152c-40-84-76-152-80-153-13 0-68 118-99 212-85 262-51 538 97 774 45 73 213 244 238 244 8 0 16 7 20 15 3 8 15 15 26 15 12 0 19 4 16 9-4 5 7 12 24 16 16 4 30 10 30 15 0 8 38 23 53 21 4-1 7 3 7 7 0 5 26 17 58 28 31 10 59 22 62 25 4 5 30 13 80 23 8 2 22 6 30 8 15 6 137 24 350 52 63 9 126 18 140 20 43 6 50 6 50 1z"/><path d="m2e3 1502c-17-15-34-37-37-49-4-13-11-23-16-23-4 0-10-8-14-17-5-18-26-53-36-63-3-3-16-27-30-55-13-27-27-52-31-55-3-3-33-59-65-125s-62-122-67-123c-4-2-4-8-1-13 3-6 2-15-4-22-39-51-53-230-25-331 23-87 117-206 162-206 6 0 11-4 11-9s18-12 40-16 42-11 46-16c17-28 247 2 282 37 7 8 17 14 22 14 16 0 77 67 101 112 13 24 27 45 30 48 18 15 29 160 18 226-6 38-11 77-11 87 0 9-3 15-9 12-5-4-9 7-9 22 0 16-5 34-12 41s-9 12-5 12c3 0-12 34-33 76-22 42-40 83-40 92 0 8-3 12-6 9-4-4-22 24-41 61s-39 69-44 70c-5 2-9 8-9 13s-11 27-24 48c-14 21-22 42-19 45 4 3 2 6-3 6s-18 20-29 45-23 45-27 45-13 7-21 14c-13 13-18 12-44-12zm44-72c3-11 8-20 12-20 3 0 18-21 31-47 14-27 27-50 30-53s14-23 25-45 22-42 25-45c5-5 28-47 65-120 52-100 65-132 65-150 0-11 4-20 9-20 10 0 25-56 21-84-1-11 3-16 9-12 8 5 11-18 11-73 0-50-4-81-11-81-5 0-8-4-5-8 7-11-15-82-25-82-4 0-9-10-13-23-23-91-213-177-328-148-137 35-251 151-252 258 0 20-3 28-8 20-4-7-8 9-8 36 0 34 3 46 12 41 8-5 9 1 5 22-6 31 15 139 25 129 3-4 9 12 13 34 4 23 11 41 16 41s9 9 9 20 5 20 10 20c6 0 10 3 9 8-3 17 14 51 22 46 5-3 9 2 9 12 0 18 40 97 53 102 4 2 7 10 7 18s5 14 12 14c6 0 9 3 5 6-3 3 5 24 19 45 13 21 24 43 24 49 0 5 4 10 9 10s12 8 15 18c6 15 16 34 39 70 12 18 28 15 34-8z"/></g></svg>
