<svg fill-rule="evenodd" stroke-linecap="round" stroke-linejoin="round" viewBox="0 0 256 256" xmlns="http://www.w3.org/2000/svg"><g transform="translate(0 256) scale(.1 -.1)" fill="currentColor"><path d="m1133 2079c-24-6-43-15-43-20 0-6-4-7-10-4-5 3-10 2-10-4 0-5-7-11-15-13-54-12-151-123-189-218-24-58-35-231-17-255 4-5 14-31 21-57 6-25 22-59 34-74 29-39 106-114 116-114 17 0 53-139 40-155-5-6-10-28-12-50l-3-40-260-5c-279-5-297-9-316-58-11-28-13-520-3-547 12-31 49-40 194-45 137-5 145-6 145-25-1-29 22-48 64-54 36-6 36-6 39-61 5-94-12-90 373-84 216 3 338 9 346 16 7 6 13 31 13 57 0 58 7 69 49 73 20 2 37 10 42 21 5 9 13 25 18 35 7 15 26 17 142 20 134 2 171 10 186 41 10 21 20 541 11 541-5 0-8 6-8 13 0 8-9 22-21 33-19 17-44 19-288 24l-266 5-3 40c-2 22-7 45-12 50-5 7-3 35 5 70 12 51 22 68 72 117 58 58 94 96 92 101 0 1 5 16 11 32 7 17 14 45 17 63 3 17 9 32 13 32s7 41 7 90c-1 50-5 90-8 90-4 0-10 17-14 38-4 20-20 58-36 85-16 26-29 51-29 55-1 13-104 89-159 118-50 25-66 28-170 31-64 1-135-3-158-8zm231-34c129-34 205-96 263-213 35-71 38-82 37-161-1-119-26-179-113-273-82-88-89-100-97-172l-7-56h-53-54v58c0 109 13 242 23 242 19 0 57 43 57 63 0 26-28 57-51 57-25 0-49-38-49-78 0-33 0-33-42-30s-43 4-46 39c-4 44-32 74-61 64-51-16-51-84-1-110 28-15 30-19 30-78 0-34 3-99 7-144l6-83h-55-55l-7 52c-10 70-29 103-101 173-173 168-140 471 64 600 91 57 206 75 305 50zm21-511c0-19-6-30-17-32-18-4-27 46-11 62 14 13 28-1 28-30zm-185-4c0-32-26-43-36-15-9 21 3 45 21 45 10 0 15-10 15-30zm115-207c-8-158-7-153-45-153h-28l-6 108c-4 59-9 124-11 145l-5 37h51 51l-7-137zm148-190c3-5 2-22 0-40l-5-32-177-3c-97-2-182 1-188 6-14 9-18 58-6 69 9 10 371 9 376 0zm-419-109c3-9 6-27 6-42 0-31 26-62 52-62 10 0 38-20 61-45 42-44 45-45 105-45 75 0 100 11 131 56 13 18 31 34 40 34 35 0 60 29 63 73l3 42 506 5 49-49v-249c0-316 14-294-178-290l-137 3-3 28c-4 29-34 52-59 43-28-11-43 14-43 73 0 31-5 62-12 69-9 9-100 12-349 12-390 0-369 5-369-91v-59h-32c-43-1-79-30-71-59 5-21 3-21-135-21-194 0-182-20-182 291v238l59 61h245c213 0 245-2 250-16zm247 6h170l-3-32-3-33h-179-180l-7 29c-10 34-3 50 18 42 8-3 91-6 184-6zm79-117c15-14-54-53-95-53-45 0-105 36-93 56 6 9 178 6 188-3zm-220-473v-210h-94c-65 0-97 4-104 13-13 15-12 374 1 395 6 8 38 12 103 12h94v-210zm455 0v-205l-415-5v203c0 112 3 207 7 211 4 3 97 5 207 4l201-3v-205zm-699 5c7-49-5-75-34-71-22 4-39 81-21 102 24 30 47 17 55-31zm802-11c3-48 1-52-22-56-33-7-36-3-36 52 0 53 6 62 35 58 17-3 20-11 23-54z"/></g></svg>
