<svg fill-rule="evenodd" stroke-linecap="round" stroke-linejoin="round" viewBox="0 0 256 256" xmlns="http://www.w3.org/2000/svg"><g transform="translate(0 256) scale(.1 -.1)" fill="currentColor"><path d="m2e3 2348c-6-7-13-31-17-53-14-72-82-174-107-159-4 3-8 0-8-5 0-6-9-11-20-11s-20-4-20-10c0-5-9-10-19-10-25 0-50-35-44-60 3-11 18-21 41-25 21-4 39-10 42-13 3-4 21-15 42-26 40-20 88-98 88-145 0-53 51-92 77-58 6 6 13 36 16 66 8 72 44 117 127 158 89 44 94 50 78 75-7 11-30 26-51 33-56 19-114 61-123 87-3 13-11 25-15 29-5 3-12 27-15 55-9 69-44 105-72 72zm38-97c0-11 4-22 9-25 4-3 11-19 14-35 8-36 70-101 98-101 13 0 18-4 13-12-5-7-2-9 8-6 8 4 21 2 29-3 17-11-13-39-43-39-32 0-103-81-117-133-16-55-22-53-56 16-35 69-67 102-115 116-50 15-51 34-2 54 53 22 81 52 113 124 29 63 49 81 49 44z"/><path d="m1246 2159c-22-5-48-20-58-32-9-12-42-53-73-92-30-38-55-77-54-85 3-32-2-40-23-40-17 0-19 3-9 9 24 15-4 21-126 27-150 7-183-7-183-81 0-26 5-45 11-45s9-6 6-14 1-17 10-20c9-4 13-13 9-22-3-8-2-12 4-9s10-1 10-9c0-9 5-16 12-16 6 0 8-3 5-6-6-7 23-55 51-83 17-18 28-6 12 14-7 9-10 18-7 21 8 9 39-55 33-69-2-7-5-3-5 8-1 23-31-26-31-51 0-8-4-14-10-14-5 0-10-12-10-26 0-16-4-23-12-18-6 4-8 3-5-3 4-6-2-34-13-64-36-97-19-159 42-159 10 0 18-3 18-6 0-6-59-84-70-94-4-3-26-32-50-65s-48-64-52-70c-23-29-81-102-92-116-8-9-15-21-17-26-5-12-74-97-109-133-13-14-23-27-23-30 1-3-8-16-20-30s-40-51-62-83c-21-32-46-62-55-67-8-5-12-10-8-10s-4-16-17-36c-34-50-36-157-3-215 12-22 24-39 27-39 4 0 17-10 31-22 31-29 105-39 190-27 29 5 89 60 116 107 10 17 22 32 26 32s8 6 8 13 20 44 45 81c25 38 45 73 45 77 0 5 3 9 8 9 4 0 16 18 26 40 11 22 23 40 28 40 4 0 8 6 8 13s20 41 44 76c24 34 50 75 56 92 7 16 16 29 21 29s9 6 9 13c0 20 56 98 64 90 4-5 6-3 4 3s36 74 84 151 90 148 94 157c8 21 30 21 43-1 6-10 11-15 11-11s16-4 36-17c47-32 105-34 132-5 22 24 32 87 32 210v85l38 25c20 14 41 27 46 29 10 4 59 46 113 97 41 39 45 89 10 122-13 12-29 22-35 22-7 0-12 4-12 8 0 5-6 9-12 10-44 5-78 16-78 23 0 5-15 9-32 9-26 0-30 3-18 11s12 10-5 8c-49-4-75 17-75 60 0 15-4 31-8 36-5 6-17 37-28 70-21 68-51 125-66 125-5 0-6 5-3 10 7 11 4 11-49-1zm43-78c11-21 34-85 51-142s34-106 38-110c4-3 44-18 90-33 129-40 183-66 180-85-2-9-56-56-121-104l-117-89-1-91c-1-136-11-201-30-205-16-3-62 26-185 116l-72 53-127-31c-204-48-203-49-140 123 25 69 45 131 45 138s-27 55-61 107c-110 171-107 175 90 167l136-6 93 116c52 63 98 115 103 115s17-17 28-39zm-134-776 29-24-23-32c-13-18-72-111-131-208-58-97-144-234-190-306-45-71-126-199-179-283-111-177-132-197-212-197-149 0-209 160-104 275 21 23 80 100 343 445 261 342 226 306 318 332 102 27 113 27 149-2zm90-29 30-24-37 11c-21 7-38 18-38 24 0 19 11 16 45-11zm-521-223c-26-27-27-27-12-3 8 14 18 32 23 40 6 9 10 10 13 2 2-6-9-24-24-39zm316-50c-1-5-12-21-26-38-23-27-24-27-14-5 20 40 41 62 40 43z"/></g></svg>
