<svg fill-rule="evenodd" stroke-linecap="round" stroke-linejoin="round" viewBox="0 0 256 256" xmlns="http://www.w3.org/2000/svg"><g transform="translate(0 256) scale(.1 -.1)" fill="currentColor"><path d="m1582 2353c-15-6-54-79-50-96 4-24-41-97-57-91-8 4-15 10-15 15 0 19-50 8-64-13-15-26-68-121-100-183-12-22-24-41-28-43-5-2-8-8-8-14s-45-91-100-189c-55-99-100-183-100-189 0-5-5-10-11-10-5 0-7-4-4-10 3-5 2-10-3-10-6 0-12-10-16-22-3-13-12-32-21-43-8-11-26-40-38-65-19-35-30-46-57-51-19-4-40-15-47-25-18-24-16-84 3-105 14-15 13-22-13-70-15-30-31-55-36-57-14-7 58-67 113-95 30-15 84-43 119-62 72-40 92-36 120 21 8 16 17 31 21 34 3 3 9 13 13 23 7 19 32 23 42 7s50-11 73 9c25 21 40 75 24 85-11 6 63 147 80 154 5 2 6 7 4 11-3 4 5 20 17 35 22 27 24 28 67 16 25-7 67-10 95-6 42 5 54 2 67-13 31-36 61-134 62-201 1-66-30-200-45-200-5 0-9-6-9-13 0-24-108-139-122-131-4 3-8 1-8-5 0-22-65-32-103-16-20 8-48 15-61 15-15 0-30 8-36 20-10 19-21 20-335 20-370 0-365 1-365-80 0-72 18-80 175-80h135l54-42c65-51 65-53 21-111l-35-46-173-3c-166-3-175-4-210-28-37-26-57-57-57-90 0-11-4-20-8-20-14 0-1-64 16-77 12-10 160-13 663-13h648l25 24c26 23 35 56 16 56-5 0-10 9-10 20 0 80-68 130-175 130-48 0-85 21-85 49 0 7 34 26 53 30 14 2 157 137 157 149 0 4 15 23 33 42 19 19 42 58 52 85 11 28 22 52 26 55s14 48 23 100c43 257-6 438-162 595-27 28-54 66-60 85-7 20-32 53-58 76l-47 41 44 79c24 43 53 99 64 123l19 43-33 30c-30 27-32 31-17 47 9 10 16 25 16 34 0 10 8 17 20 17 14 0 25 11 34 30 7 17 15 28 18 25s9 7 13 22c7 28 8 27-62 83-7 6-16 10-20 10-5 0-39 18-77 40-68 40-79 43-104 33zm123-87c50-27 92-51 94-52 8-7-11-55-24-60-14-6-189 88-200 106-6 10 24 62 34 58 3-2 47-25 96-52zm-49-98c41-23 74-46 74-50 0-16-31-69-38-66-21 10-149 79-160 86-16 11 15 72 37 72 7 0 47-19 87-42zm-196-39c0-5 5-7 10-4 6 3 10 3 10-2 0-4 15-14 33-22 17-8 34-17 37-20 3-4 43-26 90-50 101-53 115-64 97-83-7-7-20-31-30-53s-33-64-50-93l-32-54-60-2c-186-5-280-221-157-358l24-27-19-28c-11-15-32-54-49-86-49-97-64-111-99-96-17 8-32 16-35 19-6 6-40 26-108 62-30 15-66 37-82 48-15 11-33 20-38 20-19 0-22 18-8 51 21 50 97 183 110 191 6 4 8 8 4 8s22 51 57 114c36 63 65 119 65 124 0 6 4 12 8 14 9 3 64 100 108 189 15 30 30 56 33 59 4 3 15 24 25 48 18 39 56 61 56 31zm198-441c82-39 117-150 73-236-87-171-342-110-341 81 1 145 130 219 268 155zm183-220c22-24 45-58 51-75 7-18 15-33 19-33 7 0 35-86 44-133 2-9 7-22 10-28 10-15 8-221-2-228-4-3-9-13-10-21-13-97-83-230-163-310-54-55-144-120-164-120-7 0-106 147-106 157 0 4 24 21 53 37 49 27 132 115 150 159 4 11 15 36 25 56 21 45 25 278 5 303-7 8-10 18-6 21 3 4 1 7-5 7-7 0-12 6-12 13s-9 23-20 35c-26 27-25 30 9 61 32 29 61 81 61 109 0 18 8 32 18 32 2 0 22-19 43-42zm-783-246c75-44 161-91 190-107 54-29 56-32 46-59s-33-19-204 74c-205 112-204 112-196 144 9 36 10 35 164-52zm45-146c37-20 67-42 67-48 0-18-43-88-54-88-17 0-250 127-254 138-1 5 4 17 13 25 8 9 15 19 15 24s7 18 15 30l15 22 58-33c31-18 87-50 125-70zm135-326c2 0-18-20-45-45l-47-45h-215c-228 0-251 5-251 51 0 42 13 44 291 42 145-2 265-3 267-3zm171-34c15-8 44-33 63-54 35-38 158-215 158-227 0-3-128-5-285-5-190 0-285 3-285 10 0 10 22 48 42 75 5 6 29 42 54 80 61 92 73 105 109 121 40 18 109 17 144 0zm-279-94c0-5-6-17-14-27-14-19-14-19-50 0-49 26-45 35 14 35 28 0 50-4 50-8zm706-263c29-29 37-45 38-75l1-39-641-3c-508-2-643 0-646 10-8 22 10 72 38 103l26 30 156 5c86 3 345 5 574 5h418l36-36z"/><path d="m1509 1601c-40-40-41-101-3-136 61-56 164-12 164 70 0 27-8 44-29 66-22 21-39 29-66 29s-44-8-66-29zm104-13c27-22 31-61 7-91-26-33-56-34-87-5-57 54 17 143 80 96z"/></g></svg>
