<svg fill-rule="evenodd" stroke-linecap="round" stroke-linejoin="round" viewBox="0 0 256 256" xmlns="http://www.w3.org/2000/svg"><g transform="translate(0 256) scale(.1 -.1)" fill="currentColor"><path d="m695 2203c-41-3-218-23-245-28-8-1-28-7-43-14-16-6-32-11-37-11-19 0-50-53-44-76 12-49-3-74-45-74-29 0-44-7-64-30l-26-29-1-681c0-729-2-710 49-753 20-16 56-17 450-17h428l7-62c10-81 20-94 53-68 14 11 30 20 35 20s16 7 24 15c21 21 51 19 81-5 14-11 32-20 39-20 8 0 14-4 14-10 0-16 47-11 54 6 3 9 6 40 6 70v54h424c476 0 473 0 496 70 8 25 10 227 8 712l-3 678-27 25c-16 15-39 25-57 25-54 0-61 8-61 65 0 48-19 85-43 85-3 0-18 5-34 12-31 13-28 12-133 27-95 13-265 13-355 0-38-5-77-10-85-11-8 0-19-4-25-8-12-10-99-33-103-29-1 2-6 0-10-6-4-5-32-23-62-38s-62-33-70-38c-12-8-28-3-70 25-30 20-60 36-67 36s-13 4-13 9-15 12-32 16c-18 4-61 15-95 25-34 11-97 22-140 25s-91 7-108 9c-16 1-48 1-70-1zm217-58c94-14 278-78 278-97 0-4 6-8 13-8 6-1 22-9 35-19l22-19v-646c0-407-4-647-10-651-5-3-38 5-72 19-176 68-353 100-513 92-126-6-168-10-181-18-5-3-31-8-59-9l-50-4v660 659l57 18c81 24 263 48 328 42 30-3 99-12 152-19zm1e3 5c99-11 207-38 216-52 7-11 8-1307 2-1314-2-2-53 4-113 13-145 21-425 23-425 2 0-4-19-9-42-12-50-7-186-51-240-77-34-16-39-16-50-2-10 12-10 16 0 19 8 3 11 30 10 91l-2 87-6-75c-4-41-6 206-6 549l1 625 55 33c171 103 369 140 600 113zm-1630-778v-592l27-28c20-20 26-35 25-62-4-65-3-65 183-51 209 17 388 7 528-30 35-9 38-13 35-42l-3-32h-423-424l-19 24c-18 22-19 48-19 692 0 439 3 669 10 669 6 0 10 7 10 15 0 16 35 35 58 32 11-2 13-115 12-595zm2e3 571c27-24 28-1355 1-1385s-863-28-863 2c0 24 20 34 115 54 75 16 317 38 350 32 11-2 58-7 105-10 47-4 96-9 110-12 39-7 62 16 66 65 1 27 11 52 23 65 21 22 21 30 21 614v592h27c14 0 35-7 45-17zm-1434-1172c24 0 41-4 38-9s7-9 23-9c57 0 199-52 205-76 8-32-6-39-55-27-119 31-383 41-580 24l-79-7v36c0 34 3 37 39 47 21 5 47 7 57 3 11-4 15-3 10 5-8 14 70 20 204 16 52-1 115-2 138-3zm1055 2c4-4 32-5 63-4 32 1 54-1 50-7-3-5 15-9 40-10 55 0 72-13 67-49l-5-28h-261c-215 0-275-3-334-17-98-24-103-24-103 12 0 24 5 31 28 36 15 3 41 12 57 19 33 14 120 30 148 26 9-1 17 2 17 8 0 14 221 27 233 14zm-665-125c18-9 30-9 55 1 73 30 73 30 80-46 11-109 9-193-5-193-6 0-30 11-54 25-46 27-56 26-116-12-20-12-39-19-42-15-3 6-1 203 3 259 1 13 30 6 79-19z"/><path d="m1304 1725c0-132 2-185 3-117 2 68 2 176 0 240-1 64-3 9-3-123z"/><path d="m1677 1839c-7-4-32-10-57-14-77-11-133-36-118-51 10-10 23-11 58-3 158 36 390 46 390 17 0-5 7-2 16 6 8 9 13 20 10 25-11 18-271 35-299 20z"/><path d="m1697 1538c2-5-13-8-34-8-45 0-153-26-168-41-6-6-3-15 8-27 13-12 20-14 25-5 8 13 109 36 165 37 20 1 37 5 37 10 0 11 167 0 201-12 29-11 49-5 49 13 0 17-22 25-68 25-20 0-32 4-25 8 6 4-35 7-92 7s-101-3-98-7z"/><path d="m1304 1145c0-77 2-107 3-67 2 40 2 103 0 140s-3 4-3-73z"/><path d="m1670 1234c-51-8-155-37-168-47-21-17 13-45 36-30 51 31 227 51 377 42 48-3 60-1 60 11 0 24-201 39-305 24z"/></g></svg>
