<svg fill-rule="evenodd" stroke-linecap="round" stroke-linejoin="round" viewBox="0 0 256 256" xmlns="http://www.w3.org/2000/svg"><g transform="translate(0 256) scale(.1 -.1)" fill="currentColor"><path d="m561 2359c-22-21-23-28-19-124 2-72 8-107 18-118 50-54 50-45-6-118s-102-161-110-211c-4-21-10-38-15-38-4 0-7-58-7-130 1-71 5-130 10-130 4 0 8-8 8-19 0-10 11-44 25-76 26-57 25-65-5-95-3-3-18-23-33-46-15-22-36-50-48-62-24-26-43-120-36-180 3-27 0-48-8-55-40-40-41-202-2-258 31-43 88-98 109-104 33-11 38-22 38-90 1-68 13-91 56-101 16-4 48-15 72-26 42-18 43-21 41-61-4-99 58-163 122-124 17 9 23 9 26 0 6-17 75-17 92-1 11 10 14 10 18 1 10-27 70-15 101 21 31 35 57 39 90 13 6-5 12-6 12-2s6 3 13-3c6-5 28-13 47-17s40-12 47-17 36-8 65-6c49 5 76 12 153 44 68 28 88 26 110-9s83-50 110-27c9 8 15 8 20 0 9-14 68-13 83 2 9 9 15 9 24 0 33-33 118 9 118 59 0 10 5 19 10 19 6 0 10 23 10 50 0 43 3 50 19 50 11 0 23 5 26 11 4 6 13 8 21 5s14-1 14 4c0 6 6 10 13 10 20 0 47 33 47 58 0 12 5 22 11 22s9 16 7 38c-5 58-30 48-42-18-11-52-13-55-56-72-49-19-90-23-90-9 0 20-59 34-90 21-26-11-33-10-49 4-22 20-49 20-72 0-15-13-23-14-51-4-64 23-118-29-118-113v-35l-101-34c-65-23-102-31-104-24-2 6-6 150-9 320-5 288-11 344-33 322-4-3-8-136-9-294-2-365-2-352-16-352-7 0-53 13-103 28l-90 29-5 57c-8 82-76 136-118 94-9-9-19-7-45 7-32 17-36 17-67 2-24-12-37-14-51-6-22 12-56 4-82-19-15-14-23-13-77 3-73 22-76 25-84 96l-6 56 43 6c66 9 112 78 75 115-10 10-10 17 0 32 17 28 15 70-5 92-14 16-15 23-5 38 44 70-25 150-129 150-31 0-39 15-39 76 0 57 14 84 45 84 17 0 25 6 27 23 3 23 23 26 78 13 14-3 40-9 58-12 17-3 32-10 32-15s11-9 24-9c14 0 27-4 31-10 3-5 12-7 20-3 8 3 15 1 15-5 0-5 19-12 42-16s49-12 57-19 15-10 15-8c2 7 86-22 86-31 0-4 6-8 13-8 12 0 104-46 187-94 79-45 91-49 133-35 20 7 37 15 37 19s21 18 48 31c26 13 49 27 52 30s41 23 85 43c44 21 88 43 98 48s22 6 27 3c6-4 10-2 10 3s10 12 23 15c12 3 42 13 67 22s53 17 62 18c10 1 18 4 18 8s25 11 55 14c30 4 58 11 61 16s21 9 39 9c28 0 36-4 41-24 4-17 14-26 32-28 31-3 39-38 27-115-6-40-8-43-38-43-94-1-153-67-121-135 16-34 16-38 2-46-25-14-31-56-11-89 13-23 15-32 5-42-20-20-14-63 14-89 33-31 149-35 181-6 11 9 24 17 29 17 10 0 44 36 44 46 0 2 9 17 21 33 36 49 35 261-1 261-6 0-10 37-10 84s-5 88-10 91c-6 4-8 11-5 16 4 5 2 9-4 9-5 0-13 10-17 22-3 12-12 27-18 34-6 6-18 22-26 34-8 13-28 39-45 58-16 20-30 36-30 36 0 1 10 16 23 34 13 17 20 32 16 32-3 0-2 6 4 13s14 32 18 55 10 42 15 42c10 0 9 189-2 195-4 3-10 28-14 55-4 28-11 50-16 50s-9 5-9 11c0 12-40 99-50 109-3 3-21 28-39 55-19 28-40 53-45 57-7 4-2 18 12 37 12 17 22 35 22 41 0 5 4 10 8 10 10 0 10 1 18 94 5 56 3 76-11 102-26 48-39 48-87-2-45-47-139-100-157-89-6 3-11 1-11-4 0-6-9-11-20-11s-20 4-20 10c0 5-18 13-40 16-22 4-37 10-34 15s-5 8-18 8c-13-1-70 8-128 20-152 32-462 17-546-27-11-5-36-12-56-16-21-4-38-11-38-16 0-6-11-10-25-10s-25 5-25 10c0 6-6 10-12 9-20-3-68 12-68 22 0 5-7 9-15 9s-36 23-62 50c-54 57-52 57-82 29zm49-61c1-18 80-75 115-83 17-4 47-13 68-21 37-14 43-13 104 11 235 94 517 96 753 4l76-29 54 20c74 27 109 47 147 83 17 16 36 26 42 23 32-20-9-166-58-210-28-25-27-41 5-74 14-15 38-45 52-67 15-22 29-42 32-45 16-16 57-107 52-119-3-8 0-11 7-7 6 4 11 0 12-11 0-10 4-45 9-78 8-67-5-228-20-233-6-2-8-8-5-12 7-12-41-100-85-154-37-47-38-47-240-107-41-12-82-26-90-30-8-5-37-18-65-30-27-11-68-29-91-40-22-10-46-19-52-19-7 0-12-4-12-9s-8-11-17-15c-10-3-43-21-73-40-54-33-80-35-100-6-17 25-307 156-430 194-30 10-62 20-70 23-22 9-21 9-62 17-96 20-208 236-208 400 0 66 49 230 75 248 5 4 6 8 1 8-10 0 31 56 106 143 30 35 31 29-27 102-36 46-52 175-21 175 9 0 16-6 16-12zm1457-1e3c10-16 20-30 23-33 12-11 31-52 27-57-10-9-43 15-57 41-9 19-19 25-32 20-21-6-23 8-6 36 17 26 24 25 45-7zm-1539 5c17-17 15-28-5-28-10 0-25-15-34-33-15-30-49-50-49-28 0 12 61 101 70 101 3 0 11-5 18-12zm-106-210c4-67-8-96-36-85-19 7-20 40-5 88 6 19 12 40 15 47 9 31 23 6 26-50zm1754-9c13-68 5-95-20-69-16 17-19 34-17 98 2 65 23 48 37-29zm-1601-124c14-14 25-29 25-33 0-18-33-52-51-52-13 0-19-7-19-21 0-11 4-18 9-14 13 7 59-14 65-31 8-20-4-44-20-44-8 0-14-4-14-10 0-5-9-10-20-10s-20-4-20-10c0-5 7-10 15-10 17 0 55-35 55-50 0-23-50-43-92-36-138 22-216 229-119 313 13 12 28 20 33 17 4-3 8 0 8 5 0 7 24 11 60 11 50 0 63-4 85-25zm1555 14c0-5 4-8 9-5 14 9 59-43 66-76 31-140-119-305-226-248-34 19-15 80 25 80 9 0 16 5 16 10 0 6-8 10-17 10-22 0-53 29-53 50 0 22 26 44 53 45 26 0 34 23 11 32-91 35-51 113 59 113 33 0 57-4 57-11zm-1248-569c15-35 24-38 33-10 13 39 46 46 73 14 21-24 24-35 19-82-9-86-56-119-94-66l-19 26-17-26c-22-34-50-33-77 2-12 15-23 22-26 16-32-75-94-30-94 68 0 68 61 104 85 51 13-30 17-29 37 7 23 41 61 41 80 0zm740 13c10-9 18-22 18-29 0-29 20-23 34 11 9 21 22 35 32 35 21 0 54-28 54-47 0-20 18-16 25 7 22 70 85 31 85-52 0-93-51-143-83-83l-14 27-16-26c-23-35-62-35-80 1l-14 26-18-26c-38-59-84-23-92 73-5 49-3 60 16 79 25 25 29 26 53 4z"/><path d="m812 2e3c-70-21-145-89-180-162-24-49-27-68-27-159 0-65 4-105 11-110 6-4 15-17 19-30 9-29 110-132 130-132 8 0 15-4 15-8 0-11 5-12 118-18 80-5 98-3 137 15 25 12 49 21 54 21s11 7 15 15c8 22 34 18 42-7 3-12 15-31 25-42 11-11 19-25 19-30 1-15 46-46 78-56 23-6 33-1 70 37 23 24 42 47 42 51 1 4 10 18 21 31l20 24 56-29c77-39 214-46 285-16 66 29 152 117 164 169 4 15 10 33 14 38 11 15 13 171 2 192-5 10-17 35-28 56-64 134-264 206-404 145-19-8-37-14-40-14-29 5-126-127-139-189-10-43-86-48-103-7-77 193-227 270-416 215zm229-60c100-54 147-132 148-245 1-64-1-70-33-106-19-21-38-50-41-65-13-52-119-106-208-107-41 0-56 3-51 12 4 7 3 8-4 4-23-14-152 70-152 100 0 8-4 14-8 14-44 0-59 188-21 263 24 47 88 117 107 117 6 0 12 4 12 9 0 4 21 15 48 25 65 22 138 15 203-21zm710 3c63-29 115-94 144-175 18-53 21-126 3-115-8 5-9 2-5-9 6-16-9-71-24-92-64-82-133-133-165-121-9 3-12 1-9-4 4-6-18-10-57-10-93 0-189 49-201 103-5 20-13 37-17 37-5 0-22 19-39 42-32 43-44 129-21 143 5 3 7 11 4 18-2 7 10 35 27 62 90 142 223 187 360 121zm-439-256c0-16 1-35 2-42s-14-13-36-13c-37-2-38-1-38 35 0 44 5 50 42 50 24 0 28-4 30-30zm28-112c69-48 71-68 15-149-78-114-87-113-166 4-47 71-47 77-9 121 45 50 108 60 160 24z"/><path d="m955 1742c-32-4-74-46-76-77-4-45-4-83 0-80 2 2 11-6 21-17 72-90 216-5 174 103-16 38-17 39-31 19-17-25-49-26-62-3-7 13-5 23 5 35 18 19 9 25-31 20z"/><path d="m1545 1743c-42-11-80-86-68-135 29-118 210-88 206 33-3 56-17 79-32 51s-57-29-71-3c-7 15-6 23 5 34 23 23 6 31-40 20z"/></g></svg>
