<svg fill-rule="evenodd" stroke-linecap="round" stroke-linejoin="round" viewBox="0 0 256 256" xmlns="http://www.w3.org/2000/svg"><g transform="translate(0 256) scale(.1 -.1)" fill="currentColor"><path d="m322 1665c-199-61-160-355 47-355 121 0 191 82 179 209-11 110-118 179-226 146zm89-26c161-54 129-299-39-299-169 0-196 251-33 300 36 11 34 11 72-1z"/><path d="m2103 1652c-130-72-123-269 11-330 36-16 109-15 150 2 35 14 99 84 90 98-3 4 0 8 6 8 8 0 11 20 9 58-7 146-146 232-266 164zm168-35c134-90 44-303-116-273-104 20-145 159-74 250 41 52 131 63 190 23z"/><path d="m1564 1661c-2-2-4-82-4-178v-173l173 2 172 3v168c0 102-4 171-10 175-11 7-324 10-331 3zm316-171v-150h-144-144l-3 38c-2 20-2 88-1 150l4 112h144 144v-150z"/><path d="m666 1652c-7-12-9-322-2-330 10-9 318-4 325 5 3 4 4 80 1 168l-5 160-157 3c-86 1-159-2-162-6zm298-74c8-68 8-157 0-197l-6-31h-134-133l-3 136c-2 75-1 138 1 140s64 4 136 4h132l7-52z"/><path d="m1205 1646c-156-69-115-322 54-334 134-10 216 75 196 203-5 39-51 125-64 123-3-1-19 4-34 10-37 16-115 14-152-2zm146-29c96-64 105-178 20-250-60-50-170-32-211 36-80 130 69 296 191 214z"/><path d="m360 1155c0-22 5-35 13-35 9 0 12 11 9 35-2 19-8 35-13 35s-9-16-9-35z"/><path d="m820 1149c0-24 4-38 10-34 6 3 10 22 10 41s-4 34-10 34c-5 0-10-18-10-41z"/><path d="m1280 1149c0-24 4-38 10-34 6 3 10 22 10 41s-4 34-10 34c-5 0-10-18-10-41z"/><path d="m1730 1156c0-19 5-38 10-41 6-4 10 10 10 34 0 23-4 41-10 41-5 0-10-15-10-34z"/><path d="m2190 1149c0-23 3-40 6-36 9 9 11 68 2 73-4 3-8-14-8-37z"/><path d="m2165 1e3c-13-26-13-31-1-31 7 0 17 12 20 26 10 38 0 41-19 5z"/><path d="m788 1e3c-9-17-13-30-8-30s16 14 25 30c20 39 5 39-17 0z"/><path d="m1750 1e3c0-12 28-48 33-42 8 8-11 50-23 50-5 0-10-4-10-8z"/><path d="m1697 1e3c-10-16-14-30-8-30 10 0 41 39 41 52 0 17-17 6-33-22z"/><path d="m1221 989c-13-17-20-33-16-37 7-7 55 46 55 61s-16 5-39-24z"/><path d="m1834 934c15-14 31-22 35-19 7 7-39 45-54 44-5 0 3-11 19-25z"/><path d="m2088 942c-38-23-36-36 2-17 17 9 30 20 30 25 0 13 0 13-32-8z"/><path d="m685 929c-16-10-24-19-17-19 15 0 72 28 72 35 0 10-26 3-55-16z"/><path d="m1616 935c-8-8-19-15-25-15s-11-4-11-8c0-5 7-9 15-9s15 4 15 8 9 11 20 14 20 11 20 16c0 14-17 11-34-6z"/><path d="m952 922c2-9 5-15 8-13s15-1 28-8c34-18 26 2-9 21-29 17-30 17-27 0z"/><path d="m1113 917c-18-6-33-15-33-20 0-4 10-5 23-1 12 4 28 7 35 7 6 0 12 6 12 14 0 7-1 12-2 12-2-1-18-7-35-12z"/><path d="m540 900c20-13 73-13 65 0-3 6-23 10-43 10-28 0-33-3-22-10z"/><path d="m1450 900c0-6 16-10 35-10 45 0 45 14 0 17-19 2-35-2-35-7z"/><path d="m1920 901c0-15 60-25 73-12 6 6 9 11 7 12-50 8-80 8-80 0z"/></g></svg>
