<svg fill-rule="evenodd" stroke-linecap="round" stroke-linejoin="round" viewBox="0 0 256 256" xmlns="http://www.w3.org/2000/svg"><g transform="translate(0 256) scale(.1 -.1)" fill="currentColor"><path d="m1165 2351c-11-5-36-10-55-11-65-1-183-38-300-93-36-16-150-88-180-112-95-77-270-285-270-322 0-7-3-13-8-13-8 0-19-24-57-120-14-35-25-72-25-82 0-11-3-17-7-15-5 3-9-5-10-16-1-12-9-67-18-122-17-108-15-240 5-360 6-38 11-80 12-92 0-13 4-20 9-17s9-8 9-25c0-16 5-33 11-36 6-4 8-13 5-20-3-8-1-15 4-17 4-2 10-12 12-23 1-11 5-22 8-25s18-30 34-60c49-95 136-208 233-300 51-49 93-87 93-84s13-4 29-15c16-12 34-21 41-21 6 0 8-5 5-10-3-6 3-10 14-10s26-6 33-14c8-7 25-17 38-21 14-4 43-15 65-25 113-48 204-63 385-63 80 0 174 6 210 13s73 13 82 13c9 1 14 5 12 9-3 4 4 8 16 8 11 0 29 5 40 10 11 6 29 15 40 20 12 6 25 8 30 5 6-4 10-1 10 4 0 6 6 11 14 11s16 3 18 8c2 4 28 20 58 35 66 33 111 68 208 163 39 39 74 68 77 66 3-3 5 2 5 12 0 9 11 28 25 41 13 14 22 25 19 25s4 13 15 29c12 16 21 34 21 41 0 6 5 8 10 5 6-3 10 0 10 8s13 42 30 75c16 34 30 68 30 77 0 8 4 23 9 33 5 9 16 44 24 77 9 33 20 79 26 101 14 53 15 334 1 334-5 0-10 16-10 35 0 39-26 160-40 186-5 9-12 33-15 53-4 20-11 33-16 30s-9 4-9 15c0 12-4 21-10 21-5 0-10 5-10 10 0 6-19 41-42 78-104 164-264 309-433 392-16 8-33 19-37 25-4 5-8 7-8 3s-17 0-37 9c-125 52-427 91-488 64zm105-31c-63-4-137-11-165-15s-46-4-42 1c12 13 99 21 217 21h105l-115-7zm166-41c32-5 73-14 89-19 17-5 49-14 72-21 24-7 40-16 36-22-3-6-1-7 5-3 19 11 218-98 230-126 2-5 9-8 15-8 11 0 115-103 162-161 100-120 166-265 214-462 26-109 8-373-34-492-25-71-82-190-120-250-47-75-232-265-258-265-10 0-15-4-12-10 3-5-1-10-9-10-9 0-16-4-16-9s-14-12-31-16-28-9-25-12c9-9-85-53-97-46-5 3-7 2-4-4 4-6-12-16-36-23-23-7-54-17-69-22-15-6-31-7-37-4-5 3-11 2-13-4-1-5-22-11-45-12s-40-5-37-10-57-7-143-4c-153 4-236 13-229 25 2 3-6 7-17 8-45 4-87 16-87 24 0 5-5 9-12 9-19 0-178 81-178 91 0 5-5 9-10 9-41 0-270 227-270 268 0 5-7 12-14 15-37 15-156 319-159 407-1 26-6 45-11 42-15-8 2 267 20 333 8 33 18 72 21 88 3 15 9 30 14 33s9 11 9 19c0 38 73 169 165 294 37 51 182 180 203 181 6 0 12 4 12 8 0 7 44 37 65 43 6 2 18 10 27 18 20 18 120 60 168 72 19 4 62 15 95 23 72 17 268 20 351 5zm184-9c58-24 31-24-35 0-27 10-41 19-30 19s40-9 65-19zm-786-58c-137-71-175-100-293-221-61-63-87-84-75-62 45 81 245 243 378 307 116 56 109 38-10-24zm991-39c57-37 127-94 121-100-2-3-28 13-58 34-67 50-166 113-176 113-5 0-17 7-28 15-28 22 94-31 141-62zm314-313c29-44 51-85 49-91-2-7-23 17-45 52-23 35-51 79-63 97-15 21-17 30-8 27 8-3 38-42 67-85zm-1711-2c-8-13-25-43-37-66-12-24-25-42-27-39-7 7 62 127 73 127 3 0-1-10-9-22zm-124-268c-13-41-25-83-25-95-1-17-2-17-6-2-6 23 42 185 52 175 2-2-7-37-21-78zm2e3 -115c0-11-7 3-15 30-18 65-17 93 2 35 7-25 13-54 13-65zm20-135c0-32-2-41-9-30-5 8-9 42-9 75 2 71 16 33 18-45zm-2e3 -295 6-50-14 35c-7 19-13 53-13 75 0 50 12 17 21-60zm2e3 -56c-16-62-20-73-26-67-3 3 2 31 11 63 19 65 32 68 15 4zm-1879-216c23-43 49-89 57-103 12-21 10-20-12 5-31 35-69 100-84 144-17 49-7 37 39-46zm1750-70c-17-26-31-41-31-32s7 22 15 29 15 18 15 24c0 14 22 38 28 31 3-2-9-26-27-52zm-1474-260c27-24 0-13-36 14-47 36-131 123-131 137 0 6 35-23 77-64s83-81 90-87zm1323 67c-6-11-14-20-18-20s-18-10-32-23c-30-28-80-62-80-54 0 5 131 117 138 117 1 0-2-9-8-20zm-250-175c0-6-73-39-119-54-36-12-58-7-25 6 10 4 44 17 74 29 59 24 70 27 70 19zm-755-52c114-33 163-43 207-43 25 0 38-4 33-9-23-22-297 38-330 72-7 7-5 8 5 5 8-3 47-14 85-25zm418-50c-13-2-35-2-50 0-16 2-5 4 22 4 28 0 40-2 28-4z"/><path d="m920 1792c-19-9-45-32-57-51l-23-34v-434c0-471 0-468 56-512 40-32 177-30 225 2 59 39 60 52 57 531-3 481-2 472-75 502-46 20-141 18-183-4zm174-63 26-20v-435-435l-25-24c-38-38-126-36-166 4l-29 29v431 430l26 20c20 16 41 21 84 21s64-5 84-21zm13-944c-23-20-38-25-80-24l-52 1 55 9c30 5 64 16 75 24 32 22 33 17 2-10z"/><path d="m1445 1796c-83-37-86-52-85-537 1-458 1-457 61-500 49-35 208-25 242 15 45 53 48 84 45 516-3 456-5 465-79 502-41 21-140 23-184 4zm181-80 24-27v-419-419l-23-27c-39-44-135-48-177-6l-30 30v425 424l26 28c36 39 143 34 180-9z"/></g></svg>
