<svg fill-rule="evenodd" stroke-linecap="round" stroke-linejoin="round" viewBox="0 0 256 256" xmlns="http://www.w3.org/2000/svg"><g transform="translate(0 256) scale(.1 -.1)" fill="currentColor"><path d="m1588 2262c-27-2-48-8-48-14 0-5-6-8-14-5s-22-3-31-13c-10-11-20-18-24-17-3 1-24-17-45-38-21-22-38-40-36-40s-4-13-12-30c-29-58-43-131-43-220 0-90 21-205 37-205 4 0 8-6 8-13 0-39 102-114 184-136 90-24 276 62 276 128 0 8 3 11 7 8 7-8 32 51 40 96 3 15 9 30 14 33 12 7 12 219 0 242-5 9-17 37-27 62-45 112-150 171-286 162zm92-63c0-5 4-8 10-4 30 19 114-67 141-146 65-189-16-417-163-458-153-43-268 80-276 297-3 70-1 102 7 102 6 0 11 14 11 30 0 17 5 30 10 30s9 3 8 8c-3 15 22 63 37 68 8 4 15 13 15 21s4 12 9 8c6-3 13 1 18 9 20 37 173 68 173 35z"/><path d="m810 2239c-56-32-128-110-136-147-3-18-10-35-15-38s-9-23-9-45-4-38-9-35-8-23-8-59 3-62 8-59 9-18 9-45c0-28 5-51 10-51 6 0 10-8 10-18s3-22 7-26c5-4 8-11 8-14 0-11 37-60 70-95 59-62 161-96 234-77 54 14 111 41 111 53 0 4 4 6 8 3 13-8 69 85 92 155 21 64 27 285 8 272-5-2-8 6-8 19-1 41-83 178-107 178-6 0-18 9-27 19-10 11-24 17-32 14s-14 0-14 6c0 21-170 12-210-10zm208-47c2-7 8-12 13-12 6 0 20-10 33-22 113-113 129-365 30-495-158-207-447 22-393 313 17 91 82 204 118 204 6 0 11 4 11 9 0 23 180 26 188 3z"/><path d="m400 1750c0-5-8-10-18-10-41 0-152-81-152-110 0-7-6-26-14-43-15-35-29-98-29-137 0-44 15-135 25-146 5-7 8-16 7-20-2-16 13-54 22-54 5 0 9-5 9-10 0-18 53-72 99-101 38-25 55-29 113-29 128 0 199 63 238 210 19 68-6 280-32 280-4 0-8 5-8 10 0 13-70 116-70 104 0-5-4-4-8 1-13 19-61 45-82 45-11 0-20 5-20 10 0 6-18 10-40 10s-40-4-40-10zm93-61c165-85 210-422 69-516-111-73-248-3-294 150-22 73-17 225 10 270 55 93 143 133 215 96z"/><path d="m2100 1750c0-5-13-10-30-10-16 0-30-5-30-11s-6-9-12-7c-24 8-110-85-142-152-29-61-31-71-30-180 0-153 29-215 128-278 47-29 171-37 200-12 9 7 16 9 16 5 0-14 106 99 122 130 58 112 67 233 25 335-36 89-82 149-114 150-7 0-13 5-13 10 0 6-11 10-24 10-14 0-28 5-31 10-3 6-19 10-36 10-16 0-29-4-29-10zm70-60c79-23 127-106 137-236 25-323-313-443-392-139-15 58-12 191 4 181 3-2 7 7 8 21 0 14 6 28 11 32 6 3 10 8 10 11 2 20 21 50 51 80 58 58 101 70 171 50z"/><path d="m1180 1453c-51-9-125-34-160-54-8-5-22-12-30-16-19-8-150-135-150-146 0-14-110-147-122-147-6 0-8-3-5-6 4-4-24-38-61-77-90-93-83-85-115-147-15-30-27-67-27-82 0-16-3-28-7-28-5 0-8-36-8-80s3-80 8-80c4 0 7-16 7-35s3-35 8-35c4 0 13-14 20-30 17-37 68-90 110-115 17-10 28-23 25-28-3-6-1-7 5-3 7 4 18 4 25-1 48-31 279-48 325-24 26 14 130 31 150 25 14-5 15-4 2 5-11 8 13 11 93 11s106-3 101-12c-5-8-2-9 9-5 16 6 136-15 156-28 17-10 236-8 257 2 11 6 44 22 74 37s64 34 75 44c33 28 85 113 85 138 0 8 5 14 10 14 7 0 10 43 9 120 0 68-5 117-10 114s-9 4-9 15-9 36-20 56c-11 19-17 35-14 35 2 0-4 10-16 22-11 12-20 25-20 30s-33 42-72 84c-40 42-74 82-76 90s-7 14-12 14-23 21-41 48c-40 59-208 224-220 216-5-3-12 2-15 10-3 9-11 13-16 10-6-4-13-2-17 3-20 30-213 53-311 36zm177-49c72-16 163-54 163-66 0-5 6-8 13-8 17 0 116-105 182-194 30-41 85-106 121-143 118-122 164-211 164-318 0-102-46-207-105-239-11-6-22-14-25-17-14-18-85-49-131-57-58-11-145-2-244 24-162 43-284 43-443 0-133-37-246-30-347 21-38 19-116 94-109 105 3 4 1 8-3 8-18 0-47 114-44 167 2 46 40 163 51 163 6 0 10 6 10 13 0 12 22 40 93 117 61 65 138 158 179 215 63 88 161 163 253 193 110 37 128 38 222 16z"/><path d="m2063 665c0-33 2-45 4-27s2 45 0 60-4 0-4-33z"/></g></svg>
