<svg fill-rule="evenodd" stroke-linecap="round" stroke-linejoin="round" viewBox="0 0 256 256" xmlns="http://www.w3.org/2000/svg"><g transform="translate(0 256) scale(.1 -.1)" fill="currentColor"><path d="m1179 2356c-5-6-139-27-181-29-10-1-18-5-18-9s-9-8-19-8c-34 0-230-90-265-122-10-10-24-15-29-11-6 3-7 2-4-4 4-6-9-18-27-28s-66-50-105-90c-39-39-73-70-76-67s-5-2-5-12c0-9-11-28-25-41-13-14-22-25-20-25 3 0-15-32-40-70-25-39-45-75-45-80 0-6-4-10-10-10-5 0-9-3-8-7 2-9-8-46-22-78-22-55-45-157-61-275-11-82-3-297 12-306 5-3 9-19 9-36 0-37 27-125 64-210 9-20 16-41 16-47s3-11 8-11c4 0 12-10 18-23 24-52 61-111 82-133 12-13 22-30 22-39s3-15 8-13c9 4 140-130 134-137-3-3 2-5 11-5s27-11 41-25 29-25 35-25c5 0 16-6 23-13 7-6 32-21 55-32 24-11 43-23 43-26 0-4 12-10 26-13 14-4 45-15 68-25 49-22 112-41 181-54 76-14 336-20 348-8 6 6 24 11 41 11 59 0 157 30 254 79 34 17 69 31 78 31 8 0 13 3 10 8-2 4 14 16 35 26 41 20 93 62 160 128 20 20 39 36 40 35 2-1 3 0 2 2-2 2 10 18 25 35 15 18 36 45 47 60 11 16 28 37 38 48 9 10 15 18 12 18s5 17 18 38c12 20 29 51 37 67 8 17 19 33 25 37 5 4 7 8 3 8s2 21 12 46c11 25 20 57 20 70 0 14 4 23 9 20s9 4 9 17c0 12 5 54 12 92 16 89 16 288 0 385-7 41-12 85-12 97 0 13-4 20-9 17s-9 3-9 13-9 43-21 73c-11 30-23 63-26 73-3 9-8 17-12 17s-15 20-26 45-23 45-27 45c-5 0-8 6-8 13 0 26-141 186-225 257-52 43-156 110-204 131-157 69-185 77-286 91-99 13-258 21-266 14zm266-42 50-13-50 6c-27 3-72 9-100 13l-50 7 50 1c28 0 73-6 100-14zm15-39c62-13 107-25 157-40 13-4 20-12 16-18-3-6-1-7 5-3 12 7 90-30 104-49 4-5 8-6 8-2 0 8 59-29 70-44 3-3 10-8 16-10 46-16 225-195 243-242 2-6 13-20 23-31 21-23 98-176 98-195 0-6 4-19 9-29 16-29 41-125 43-164 2-21 6-38 11-38 11 0 9-218-3-225-6-3-7-17-4-30 5-22-29-180-46-214-5-9-16-38-26-66-9-27-28-67-41-87-12-21-23-40-23-42 0-17-100-142-157-197-73-71-178-149-200-149-7 0-13-4-13-10 0-5-7-10-15-10s-15-3-15-7c0-11-51-33-61-27-5 3-9 0-9-5 0-6-9-11-19-11-11 0-22-4-25-9s-16-11-28-14c-13-3-58-15-102-26-81-22-336-31-336-13 0 5-8 9-17 9-56-1-84 4-78 13 3 6-1 7-10 4-14-6-33-1-107 30-16 6-28 14-28 19 0 4-6 7-12 5-17-3-100 37-93 44 3 3-7 9-22 13-15 3-30 10-33 13-3 4-23 19-45 34-64 42-190 170-231 233-10 17-27 39-37 50-9 10-15 26-12 34 3 9 3 12-1 8-14-14-110 225-98 244 4 7 3 9-3 6-17-10-24 52-30 231-4 159 7 260 36 327 5 11 22 52 37 90 16 39 32 72 36 73 5 2 8 10 8 17s3 15 8 17c4 2 16 21 27 43s28 47 37 57c10 10 15 18 11 18s38 45 92 99c55 55 103 97 107 95 4-3 8-1 8 4 0 15 150 102 222 128 165 61 402 82 548 49zm151 1c52-16 133-55 127-62-4-3-97 32-173 66-31 14-5 11 46-4zm-661 0c0-3-50-30-110-60-61-31-127-67-147-81-20-13-39-22-42-20-2 3-2 6 0 8 2 1 22 16 44 33 67 52 255 140 255 120zm1058-255c51-51 74-81 59-81-1 0-38 37-82 81-91 93-72 92 23 0zm-1518-70c0-5-6-16-13-23s-34-46-61-86c-47-71-72-92-43-35 18 33 105 153 112 153 3 0 5-4 5-9zm1650-100c0-6 4-11 9-11 9 0 75-139 69-145-2-3-13 12-24 33-11 20-35 63-52 94-35 63-40 77-17 54 8-8 15-19 15-25zm-1855-306c-16-63-25-80-25-48 0 23 30 116 36 110 3-2-2-30-11-62zm2e3 -85c-1-43-17-1-23 60l-6 55 14-45c8-25 15-56 15-70zm18-160c0-47-2-58-8-40-4 14-8 54-8 90 0 47 2 58 8 40 4-14 8-54 8-90zm-2e3 -324c22-76 15-78-12-2-13 38-26 92-29 120l-5 51 16-60c8-33 22-82 30-109zm109-236c32-52 65-106 74-120 27-41-4-14-47 42-22 29-55 85-72 123-38 86-30 78 45-45zm1744-22c-26-50-100-146-143-186-66-62-57-39 19 47 36 41 78 94 93 118 28 44 52 60 31 21zm-1534-240c35-36 36-38 10-21-36 25-72 63-59 63 6 0 28-19 49-42zm1228-82c-49-41-199-113-211-102-2 3 27 20 64 39 38 19 89 46 114 60 56 33 70 34 33 3zm-953-83c25-12 40-22 33-22-19-1-133 51-133 60s21 1 100-38zm159-49c36-8 67-17 70-21 13-14-102 8-141 27-24 11-32 18-18 14 14-3 54-12 89-20zm376-30c-85-16-115-17-115-4 0 8 58 14 155 17 17 0-1-5-40-13z"/><path d="m975 1819c-41-10-85-59-85-94 0-9-3-14-7-12-5 3-8-192-8-433s3-436 8-433c4 2 7-6 7-19 0-26 60-96 77-91 6 2 14-1 18-6 10-18 82-12 119 8 19 11 37 17 40 14 3-4 6-2 6 4 0 5 17 18 37 29 21 10 46 27 57 36 10 10 23 15 28 12 4-3 8-1 8 4 0 9 111 82 124 82 4 0 16 9 28 20 12 10 24 17 28 15 3-2 13 5 20 16 8 10 20 19 27 19s13 3 13 8c0 4 18 16 40 26 22 11 40 23 40 27s10 11 22 15c12 3 30 15 41 25s24 16 29 13c4-3 8 0 8 5 0 6 7 11 15 11s15 4 15 8c0 5 10 14 23 21 43 23 80 166 48 186-5 3-12 19-16 35-4 17-11 28-16 24-5-3-9-1-9 4s-43 35-95 68c-52 32-95 62-95 66 0 5-5 8-11 8-13 0-234 137-255 157-8 8-14 12-14 9s-42 21-92 53c-100 63-151 76-223 60zm185-113c561-347 584-364 583-419-1-69-8-75-346-290-356-227-372-233-422-182l-25 24v433c0 468 0 466 54 488 32 14 63 3 156-54zm140-37c44-28 80-55 80-59 0-11-115 56-160 94-50 41-12 25 80-35zm-380-306-7-178v245c0 145 3 218 7 178 3-37 4-147 0-245zm721 91c53-34 100-68 105-75 6-10 1-10-16 2-14 9-69 44-122 79-54 34-98 64-98 66 0 9 43-15 131-72zm48-318c-17-15-92-57-95-53-6 6 89 66 95 61 2-2 2-6 0-8zm-772-213c-2-32-3-6-3 57s1 89 3 58c2-32 2-84 0-115zm548 72c-16-14-46-33-65-43s-47-26-62-36c-16-10-28-15-28-12 0 8 162 115 175 116 6 0-3-11-20-25zm-230-146c-4-5-17-15-28-20-12-5-40-23-62-39-40-29-65-38-65-22 0 8 37 30 126 77 35 18 37 18 29 4z"/></g></svg>
