<svg fill-rule="evenodd" stroke-linecap="round" stroke-linejoin="round" viewBox="0 0 256 256" xmlns="http://www.w3.org/2000/svg"><g transform="translate(0 256) scale(.1 -.1)" fill="currentColor"><path d="m1215 1900c-3-11-11-20-16-20-6 0-8-4-5-9 4-5 3-11-1-13-5-1-39-66-77-143s-74-143-80-147-11-11-10-15c1-16-50-123-58-123-5 0-6-4-3-10 3-5 2-10-3-10-6 0-13-12-16-26-5-19-20-31-59-48-81-35-91-39-99-38-5 1-8-2-8-7s-30-21-67-37c-38-16-70-31-73-34-5-5-121-63-322-160-70-33-130-65-133-70-14-23 35-5 175 65 82 41 150 71 150 67s4-2 8 4c8 11 366 184 382 184 6 0 10-4 10-10 0-5-4-10-10-10-5 0-10-4-10-8 0-9-140-274-149-282-3-3-23-39-43-80-21-41-58-115-84-163-39-74-45-90-33-100 11-9 176-11 662-9 640 3 647 3 647 23 0 17-117 257-139 285-5 6-46 83-91 170-78 149-143 273-196 372-12 23-19 42-16 42 4 0 2 4-5 8-6 4-44 70-83 147-120 234-131 249-145 205zm131-257c59-115 118-224 130-244 13-20 20-40 17-43-4-3-1-6 5-6 7 0 12-4 12-10 0-5 23-51 51-101 27-50 48-93 45-96s-27 2-53 11c-92 33-364 115-398 122-19 3-35 10-35 16 0 5-5 6-10 3-6-4-16-2-23 3-7 6-34 16-60 22-26 7-49 16-52 20-5 8 73 171 86 180 4 3 7 7 7 10-1 16 158 320 168 320 1 0 51-93 110-207zm-206-388c85-26 232-73 325-104l170-58 103-194c57-107 106-200 109-206 4-10-126-13-606-13-374 0-611 4-611 9 0 19 53 131 61 131 5 0 9 5 9 12 0 10 170 336 228 436 16 29 29 41 41 38 9-2 86-25 171-51z"/><path d="m2092 1869c-12-29-25-48-32-44-5 3-10 1-10-6s-3-9-6-6c-9 8-44-11-44-23 0-6 9-10 21-10 26 0 79-52 79-79 0-11 5-23 10-26 6-3 10 0 10 9 0 8 3 16 8 18 4 2 14 17 22 33 10 19 27 34 48 40 42 12 40 19-8 38-29 11-41 22-46 44-16 63-29 66-52 12zm38-24c0-7 11-22 25-33l25-20-25-16c-14-9-25-23-25-31 0-22-7-19-45 19l-34 34 24 16c13 8 26 25 30 36 7 22 25 18 25-5z"/></g></svg>
