<svg fill-rule="evenodd" stroke-linecap="round" stroke-linejoin="round" viewBox="0 0 256 256" xmlns="http://www.w3.org/2000/svg"><g transform="translate(0 256) scale(.1 -.1)" fill="currentColor"><path d="m1150 2351c-8-5-40-11-70-14-62-6-158-36-233-73-27-13-54-21-58-18-5 3-9 1-9-5 0-5-24-23-53-40s-62-40-72-51-23-20-29-21c-6 0-49-43-96-95-113-125-106-117-114-140-3-11-14-29-24-40-9-10-26-39-37-64s-24-48-30-52c-5-4-7-8-3-8s-2-21-12-46c-11-25-20-55-20-65 0-13-4-18-12-13-6 4-9 3-6-2s-2-45-11-89c-20-100-20-475-1-475 3 0 12-28 19-61 8-34 25-84 38-110 12-27 23-56 23-64s4-15 9-15 12-11 15-24c19-77 180-266 306-359 30-22 56-44 58-49 2-4 10-8 18-8s14-4 14-8 22-16 50-27c27-11 50-22 50-25s29-14 65-25c36-10 65-22 65-26s10-7 23-7c12 0 66-7 119-16 111-18 208-20 270-6 24 5 68 14 98 20 91 18 104 21 138 36 20 10 32 22 32 35 0 36-36 35-117-3-12-6-28-8-37-5-8 3-16 2-18-4-2-5-33-10-71-11-37-1-67-6-67-10s-44-8-97-8c-68 0-93 3-83 10 11 8 8 10-15 8-51-3-96 2-92 10 3 4-7 8-21 8-46 3-96 20-173 59-41 21-84 43-96 49-13 6-23 14-23 19 0 4-6 7-13 7-17 0-65 39-142 115-152 150-228 290-286 528-33 136-22 408 21 512 4 11 14 36 21 55 23 67 61 145 72 152 7 4 9 8 4 8-15 0 54 98 111 156 12 13 22 26 22 29 0 9 40 45 50 45 6 0 10 4 10 8 0 11 125 112 138 112 6 0 12 4 14 8 4 12 143 77 203 95 126 38 154 42 295 42 139 0 230-11 295-36 113-43 264-128 320-180 11-10 46-42 77-70 32-28 55-55 52-60s0-9 5-9c10 0 98-130 94-140 0-3 2-7 7-10 17-11 59-100 84-180 15-47 32-101 38-120s11-107 11-200c1-165-1-174-45-322-9-31-8-39 6-53 28-29 38-10 85 171 13 49 15 370 2 378-4 3-11 29-15 58-7 52-19 102-35 143-23 56-96 201-108 213-7 7-13 18-13 23s-11 22-25 37-25 30-25 34c0 10-167 178-172 173-2-3-18 8-34 23s-33 27-37 27c-3 0-14 7-24 15s-46 28-80 45c-35 16-63 33-63 38 0 4-5 5-11 1-6-3-21-2-32 4-39 19-130 42-168 42-21 0-41 5-44 10-8 12-253 13-275 1zm80-21c0-6-24-10-52-9-42 1-48 3-28 9 36 12 80 12 80 0zm336-31c38-11 74-26 79-31 7-8 4-9-10-4-11 4-54 17-95 28s-77 22-79 24c-12 11 45 2 105-17zm-631-38c-22-10-71-33-110-52-90-43-95-45-65-19 33 27 74 49 135 71 65 24 91 24 40 0zm918-99c20-13 37-28 37-33 0-9-127 68-136 83-7 12 47-16 99-50zm-1173-34c0-2-46-48-102-103s-92-86-80-68c44 63 183 193 182 171zm1412-196c11-18 18-35 15-38-5-6-107 119-107 132s70-58 92-94zm-1639-49c-10-25-83-140-83-130 0 17 75 147 85 147 2 0 1-8-2-17zm1763-168c8-19 12-35 9-35-5 0-55 96-55 107 0 13 30-35 46-72zm-1937-559c1-54-5-42-12 24-4 36-3 48 3 35 5-11 9-38 9-59zm136-424c-5-6-70 130-80 168-3 14 14-17 40-69 25-52 43-96 40-99zm126-152c70-79 76-93 21-46-28 24-112 131-112 142 0 9-5 14 91-96zm176-160c18-13 31-25 29-28-7-6-80 44-106 74l-25 28 35-25c19-14 50-36 67-49zm367-159c33-6 62-14 65-17 11-12-101 7-133 21-17 8-22 13-11 10 11-2 47-9 79-14zm451 0c-27-11-85-22-85-16s61 23 85 23l20 1-20-8z"/><path d="m1160 1940c-203-58-320-204-320-402 0-68 31-110 94-128 95-26 186 30 186 114 0 22 4 35 10 31 6-3 7 1 4 9-16 43 111 115 164 94 58-23 72-32 72-46 0-9 3-12 7-9 11 11 33-43 33-82 0-53-28-91-103-139-134-85-197-186-197-316 0-98 40-138 145-146l70-5 38 38c26 27 37 48 37 68 0 16 11 46 24 67 24 37 76 91 76 79 0-4 14 5 31 20 17 16 32 26 33 23 2-4 61 60 108 118 10 12 20 33 24 47 3 14 10 28 15 31 12 7 11 241-1 249-5 3-10 16-10 29 0 12-5 27-12 34s-9 12-5 12c8 0-30 45-88 104-53 54-135 94-225 108-104 17-145 17-210-2zm233-45c230-60 351-298 257-508-25-57-108-142-185-191-62-40-95-86-95-132 0-59-38-99-98-102-91-5-129 39-118 136 11 96 57 161 168 239 88 62 112 91 128 155 52 204-262 296-351 103-10-22-19-52-19-67 0-64-107-102-162-58-32 25-39 60-26 130 40 219 271 355 501 295z"/><path d="m1733 1530c0-36 2-50 4-32 2 17 2 47 0 65-2 17-4 3-4-33z"/><path d="m1220 843c-14-3-33-12-42-20-10-9-18-12-18-7-1 19-29-42-30-63 0-13-5-23-11-23-10 0-9-40 2-107 1-6 19-26 39-44 33-30 40-32 99-30 35 1 70 8 78 14 106 88 91 243-28 277-35 10-46 11-89 3zm109-67c57-51 56-113-1-161-54-45-130-26-166 42-54 100 81 197 167 119z"/></g></svg>
