<svg fill-rule="evenodd" stroke-linecap="round" stroke-linejoin="round" viewBox="0 0 256 256" xmlns="http://www.w3.org/2000/svg"><g transform="translate(0 256) scale(.1 -.1)" fill="currentColor"><path d="m1226 2333c-51-8-122-91-131-151-14-103 17-164 108-212l37-20v-85c0-128 0-128-243-137-246-9-238-9-232-18 3-5-13-11-35-15s-40-11-40-16-5-9-11-9c-34 0-189-155-189-189 0-6-3-11-8-11-7 0-35-91-47-157-6-29-11-33-38-34-78-2-141-48-177-129-33-75-36-269-6-340 36-83 109-140 180-140 38 0 37 2 51-80 6-39 41-116 63-142 8-10 12-18 9-18-4 0 19-26 51-59 31-32 60-57 63-55 4 2 12-3 19-11s18-15 25-15c8 0 15-4 17-8s40-18 84-30c78-21 100-22 500-22 422 0 517 7 561 42 7 5 17 7 23 3 5-3 10-2 10 2 0 5 17 17 37 28 35 19 151 125 137 125-4 0 0 8 8 18 24 26 48 79 48 102 0 12 4 19 8 16 5-3 10 15 11 41 2 59 5 63 51 63 21 0 42 5 45 11 4 5 12 8 18 6 21-7 95 73 111 121 26 74 22 275-6 342-19 46-63 105-78 104-3-1-20 5-39 13-18 8-43 13-55 11-30-4-46 9-46 39 0 115-106 277-220 339-22 12-36 24-33 28 4 4 0 4-9 1-9-4-19-2-23 4-3 6-15 11-26 11-10 0-19 4-19 8 0 13-7 13-226 19-252 6-244 1-244 137 0 91 1 94 24 100 14 3 31 12 38 19s26 22 42 35c16 12 25 22 21 22s-1 7 6 16c9 11 13 43 13 90 0 77-26 129-79 158-11 6-22 13-25 16-12 12-91 20-134 13zm120-59c104-50 101-211-5-259-73-33-164 0-193 69-51 125 76 248 198 190zm-56-408c0-72 3-88 25-120l24-36h-87-87l43 21c53 26 62 48 62 145 0 43 4 74 10 74s10-35 10-84zm480-203c105-31 212-120 260-213 47-93 50-115 50-480 0-380 0-383-66-485-30-48-134-157-134-142 0 4-9-1-20-11-49-46-129-52-599-52-490 1-471-1-588 74-34 22-60 43-57 48 3 4-1 8-8 8-13 0-55 47-58 65-1 6-5 12-9 15-11 8-38 70-50 115-17 63-15 698 3 756 38 125 117 218 238 279l79 40 177 2c404 6 724-1 782-19zm78 3c26-13 58-34 72-45 19-17 14-16-19 5-25 15-63 35-85 45-23 10-35 19-28 19s34-11 60-24zm-1200-47c-15-11-50-46-78-77-27-31-50-54-50-50 0 20 130 149 149 148 3 0-6-10-21-21zm-223-644c0-274 2-266-61-251-79 20-124 111-124 251 0 158 62 260 155 252l30-2v-250zm1807 230c62-42 83-100 83-235 0-104-2-119-25-160-31-55-83-92-125-88l-30 3-3 253-2 252h33c18 0 48-11 69-25zm-1662-798c0-5-11 5-25 21-14 17-25 34-25 38 1 11 50-48 50-59zm1360-62c0-6-85-55-96-55-5 0 14 13 41 30 55 32 55 32 55 25zm-1215-41c20-8 35-17 32-20s-22 4-44 15c-46 24-40 27 12 5z"/><path d="m855 1393c-11-3-29-9-40-13s-24-9-30-11c-25-8-79-68-99-109-30-65-33-513-2-570 22-43 85-110 103-110 7 0 13-4 13-8 0-14 11-15 460-19 481-4 484-4 557 60 71 62 78 94 78 347 0 263-7 300-69 365-69 73-86 75-550 74-221-1-410-4-421-6zm358-60c67-4 109-10 92-13-45-8-39-34 8-38 29-2 37-7 33-18-3-8 1-14 11-14 13 0 14-7 9-40-6-36-4-40 15-40s21-4 16-30c-5-23-3-30 8-30 15 0 15-11-1-70-6-21 1-17 40 23 25 26 51 47 56 47 6 0-5-13-23-30-62-54-73-123-23-155 29-19 48-12 81 31 33 44 45 43 94-7 44-43 63-43 94 2 43 60-66 175-159 167-24-2-44 0-44 4 0 14 104 8 130-7 32-18 41-18 34 0-4 8 1 17 10 21 9 3 16 12 16 20s7 14 15 14 15 5 15 11c0 7-10 9-25 5-14-4-25-2-25 4 0 5 20 10 45 10 33 0 45 4 45 15 0 8 5 15 10 15 6 0 10 7 10 16 0 22 26 1 46-37 22-44 6-239-21-239-25 0-68-46-61-67 9-28 46-37 62-16 10 14 14 5 24-55 16-87-1-124-60-130-30-3-32-6-27-32 4-18 1-32-8-40-8-7-13-16-10-20 15-24-99-30-275-14-41 3-113 5-160 3-133-6-493 0-499 9-3 4-14 12-24 17-10 6-28 27-40 48-20 36-21 39-4 48 9 6 17 17 17 24 0 8 5 15 10 15 14 0 12 48-2 52-9 3-8 9 5 22 9 10 17 22 17 28s9 8 19 5c11-2 43 0 73 7 64 14 108 10 108-10 0-8 4-14 10-14 5 0 7-7 4-15-7-18 0-19 27-5 40 22-4 140-53 140-8 0-20-6-27-12-10-11-11-10-6 5 12 29 58 22 83-13 43-58 127-16 103 52-22 62-96 118-158 118-67 0-147-76-148-141 0-37-20-45-27-11-2 10-7-12-11-47-8-69-13-83-26-63-6 10-11 9-21-4-24-28-40 72-29 176 5 47 9 92 9 100 0 10 10 15 33 15 28 0 32 4 35 28 3 23 0 27-22 27-34 0-39 12-26 60 18 65 116 95 283 84 37-2 123-7 190-11zm523-9 29-19-24-3c-46-7-72-65-33-75 10-3 6-5-10-6-26-1-68-31-68-49 0-4-12-13-28-19-26-12-39-10-104 13-10 4-18 16-18 29s-5 25-11 27c-8 3-8 14 0 42 11 43 8 56-15 56-35 0-1 17 37 18 23 1 45 5 48 8 14 14 169-3 197-22zm-705-240c72-30 117-134 60-142-16-3-33 7-56 32-43 47-75 48-111 1-29-39-58-45-74-16-19 36 25 99 88 127 37 17 45 16 93-2zm590 2c73-31 114-101 80-135-28-28-37-27-63 13-36 55-91 57-121 5-12-22-23-29-38-27-64 9-38 96 41 136 52 26 57 26 101 8zm-706-185c-8-13-45-15-45-2 0 5 10 11 23 13 27 5 31 3 22-11z"/><path d="m893 1169c-13-5-23-17-23-28s-3-27-6-36c-6-14-1-13 32 4 21 12 47 21 56 21 27 0 22 18-9 34-19 9-36 11-50 5z"/><path d="m1245 915c-3-30-11-55-16-55s-9-4-9-9c0-14 46-22 72-12 17 7 18 10 6 10-10 1-18 2-18 4 0 1 4 17 10 36 7 25 6 38-7 57-23 36-30 30-38-31z"/><path d="m1497 902c-15-17-15-19 3-35 30-25 42-21 38 15-4 38-18 45-41 20z"/><path d="m1113 853c-35-24-30-63 15-105 94-93 226-89 312 8 35 40 38 66 10 94-27 27-51 25-86-5-41-35-123-35-170 0-38 29-50 30-81 8zm71-28c49-45 148-43 191 5 30 33 75 20 75-22 0-28-66-86-106-94-104-19-215 20-230 82-13 51 28 68 70 29z"/><path d="m1228 653c10-4 10-8 1-19-10-12 0-14 61-14 72 0 73 0 55 20-14 16-30 20-74 19-31 0-50-3-43-6z"/></g></svg>
