<svg fill-rule="evenodd" stroke-linecap="round" stroke-linejoin="round" viewBox="0 0 256 256" xmlns="http://www.w3.org/2000/svg"><g transform="translate(0 256) scale(.1 -.1)" fill="currentColor"><path d="m783 2321c-10-11-29-55-42-98s-27-82-31-88c-4-5-11-34-15-62-4-29-10-53-15-53-4 0-10-18-14-40-3-23-10-49-16-58-9-17-27-84-37-134-3-16-8-28-12-28s-7-8-8-17c-4-41-16-83-22-79-3 2-7-6-8-17-4-49-16-86-25-81-5 3-8 0-7-7 4-25-13-99-23-99-5 0-8-6-7-12 4-21-13-88-21-88-4 0-11-20-14-45-4-24-11-47-17-50-5-4-9-19-9-35s-4-31-10-35c-5-3-7-12-3-20 3-8 0-15-6-15s-11-13-11-30c0-16-5-30-11-30-5 0-7-5-4-10 4-6 2-16-3-23s-13-32-17-57c-4-24-11-51-15-60-4-8-16-42-26-75s-21-65-26-71c-4-6-11-32-14-57-4-26-11-44-15-41-5 3-9-5-9-18 1-36-11-88-20-88-4 0-7-6-7-12 2-24-15-88-23-88-5 0-9-8-9-17 0-10-3-37-7-60-6-39 22-104 38-87 7 6 88-19 88-27 0-4 23-10 50-14 28-4 47-11 44-17-3-5 0-8 7-7 18 4 81-11 94-22 6-4 41-11 78-15 95-10 104 0 152 171 20 70 45 152 109 360 68 218 71 230 104 340 57 189 93 310 102 335 12 35 64 206 100 330 47 163 63 214 71 225 4 6 7 12 7 15 0 16 16 87 21 95 14 20 13 85-2 99-18 18-83 46-108 46-11 0-19 5-19 11 0 5-4 8-8 5-9-5-77 16-88 27-4 4-18 7-30 7-13 0-25 4-29 10-3 5-12 7-20 3-9-3-21-1-28 5s-40 14-73 17c-54 6-63 5-81-14zm132-44c240-72 310-96 313-110 3-15-9-63-43-177-9-30-19-67-22-82-3-16-10-28-15-28s-7-4-4-8c3-5-1-28-8-53-8-24-34-109-59-189s-82-266-127-415c-45-148-94-310-110-360-16-49-61-196-100-324-38-129-75-241-82-248-13-12-102 10-343 84-73 23-76 35-35 163 28 92 27 91 98 75 53-12 46 30-8 46-45 14-46 18-24 97 23 82 29 86 93 61 57-21 81-20 81 5 0 10-22 21-61 32-69 19-76 29-59 79 9 28 16 35 29 30 49-21 68 5 21 30-25 13-29 19-20 35 5 10 10 28 10 39 0 25 18 27 86 6 47-14 73-8 60 14-4 5-31 18-61 27-48 15-55 21-55 43 0 38 14 53 45 49 36-4 44 19 11 32-29 11-30 15-15 59 13 36 8 35 75 15 50-17 84-14 84 5 0 5-29 19-65 31-66 22-68 25-56 70 5 19 15 26 41 30 40 6 45 21 13 35-13 5-23 17-23 26 0 14 19 79 23 79 1 0 26-9 56-21 57-21 81-20 81 6 0 9-21 21-60 32-63 19-72 32-49 74 7 14 16 18 30 14 23-8 27 22 4 31-18 7-20 44-2 67 11 16 16 15 70-5 44-16 61-18 69-10 17 17 0 31-63 53-64 23-62 20-51 60 8 31 12 34 47 34 50 0 56 20 12 39-35 14-35 14-24 55 13 47 22 49 92 26 25-9 50-13 55-10 24 15 6 35-47 53-67 22-69 30-40 137 17 62 41 90 67 81 8-2 38-11 65-19z"/><path d="m1329 1717c-9-7-20-28-24-47s-10-39-14-45c-7-12-6-8-16-62-4-24-11-43-16-43s-9-11-9-24c0-25-30-127-40-136-3-3-5-9-6-15 0-16-14-64-45-159-16-49-29-98-29-108s-5-18-11-18c-5 0-8-4-5-8 6-10-44-184-55-192-4-3-7-7-8-10-3-41-15-90-22-90-5 0-9-11-9-25 0-22-25-109-49-170-5-11-15-45-24-75s-23-78-31-107c-20-67-20-75 4-101l21-22h694 694l19 25c21 26 16 79-9 109-40 48-49 60-49 68 0 5-6 15-12 23-21 22-47 59-48 70-1 6-7 13-15 17-7 5-26 29-41 55s-31 52-36 58c-5 5-17 21-28 34s-20 30-20 38c0 7-4 13-10 13-5 0-12 11-16 24-3 14-12 27-20 30s-14 10-14 16-6 18-12 25c-29 32-41 48-84 110-24 36-44 68-44 71 0 2-5 10-10 17-41 48-50 62-50 73 0 7-4 14-8 16-8 3-70 85-110 144-7 11-28 42-47 69-19 28-56 82-82 120-26 39-55 79-65 90-9 11-39 49-65 85-51 69-88 86-124 57zm103-102c87-122 395-565 504-723 55-81 150-219 210-307 61-88 125-181 143-207 60-84 108-78-647-78-769 0-708-8-673 93 12 34 26 80 31 102s18 67 30 100 25 76 29 95c16 69 43 150 52 155 5 4 9 19 9 34 0 26 17 86 39 136 5 11 18 58 31 105 12 47 27 103 34 125 28 88 39 121 49 145 5 14 11 32 12 40 13 75 73 260 85 260 5 0 33-34 62-75z"/><path d="m1453 1088c-6-7-20-42-31-78s-46-145-77-243c-76-239-96-220 225-216 135 1 253 7 263 12 30 14 17 42-74 171-46 65-123 173-170 240-85 119-113 143-136 114zm66-90c13-23 28-47 33-52 25-31 134-186 161-230 17-28 37-57 44-64 46-47 40-52-64-53-54-1-153-3-220-5s-125 1-127 5c-3 5 8 46 24 92s30 92 30 102c0 9 4 17 9 17s8 6 8 13c-1 24 16 77 25 77 5 0 7 4 4 8-7 11 18 94 26 86 4-3 5 2 4 13-8 47 13 43 43-9z"/></g></svg>
