<svg fill-rule="evenodd" stroke-linecap="round" stroke-linejoin="round" viewBox="0 0 256 256" xmlns="http://www.w3.org/2000/svg"><g transform="translate(0 256) scale(.1 -.1)" fill="currentColor"><path d="m1181 2e3c-19-6-45-9-58-6-12 2-20 0-17-4 3-5-5-9-17-9-28 0-119-32-119-42 0-5-5-8-10-8-45 0-250-212-250-259 0-6-5-11-11-11-5 0-7-4-4-10 3-5 1-18-5-29-9-19-28-115-33-171-1-19-8-26-27-28-85-8-173-35-215-64-99-72-174-171-198-263-30-120-39-164-32-175 8-13 26-107 27-137 0-13 4-20 9-17s9-2 9-11c0-43 115-186 162-201 10-3 18-10 18-15s7-9 15-9 15-4 15-10c0-5 7-7 15-4 8 4 15 1 15-5s12-11 26-11 23-4 20-8c-8-14 15-14 764-19 672-4 742-3 813 13 42 10 77 22 77 27s6 7 13 4c11-4 149 122 139 126-2 1 6 25 18 52 60 137 13 310-106 393-28 19-32 28-37 85-14 153-124 265-287 291-74 12-75 12-82 46-28 144-86 256-168 326-14 12-38 34-55 50-80 74-330 141-424 113zm232-72c206-75 366-269 367-446 0-52 8-58 77-58 155-2 295-138 298-291 0-52 2-55 46-87 85-61 113-125 107-238-6-115-66-203-173-257l-50-25-710-2c-429-2-739 1-784 7-224 30-382 252-342 479 36 202 196 355 385 367 72 4 66-2 71 76 14 212 175 413 384 478 88 28 243 26 324-3zm215-85c24-19 52-49 64-66 18-26-32 17-127 107-21 20 21-7 63-41zm-729 12c-13-14-37-35-54-46s-8 1 20 26c54 50 72 61 34 20zm906-314c5-23 4-32-3-25-5 6-12 30-15 55-7 49 5 29 18-30zm-1390-219c-3-5-24-24-48-41l-42-32 42 41c40 38 62 53 48 32z"/><path d="m984 1219c-44-49-14-159 43-159 39 0 63 34 63 88 0 83-59 123-106 71zm79-45c12-43-6-84-38-84-24 0-25 3-25 55 0 30 4 55 9 55s7-10 4-21c-5-19-4-20 16-9 19 10 20 14 9 27-11 14-11 15 2 11 8-2 18-18 23-34z"/><path d="m1445 1220c-67-74 15-210 85-140 25 25 27 105 4 138-19 28-64 29-89 2zm79-54c6-26 5-28-8-17-9 8-16 22-16 32 0 24-24 15-38-14-9-18-11-19-11-4-1 9 8 26 20 38 25 25 42 14 53-35z"/><path d="m1196 926c-57-21-104-70-86-91 12-14 16-13 39 8 69 64 156 63 215-2 15-16 22-18 33-10 62 52-105 130-201 95z"/></g></svg>
