<svg fill-rule="evenodd" stroke-linecap="round" stroke-linejoin="round" viewBox="0 0 256 256" xmlns="http://www.w3.org/2000/svg"><g transform="translate(0 256) scale(.1 -.1)" fill="currentColor"><path d="m485 2351c-11-5-24-6-28-4-7 4-65-51-107-103-11-14-15-46-15-135v-117l32-30c33-32 52-37 167-46 38-3 74-10 79-15 14-14 4-537-16-751-15-174-21-209-30-203-6 3-7 1-4-5 9-13-13-112-25-112-4 0-8-10-8-22 0-47-11-51-88-38-92 15-146-5-177-66-11-21-22-41-25-44-17-17-19-232-2-238 7-2 12-8 12-14 0-13 70-81 90-88 8-3 102-6 208-8 105-2 192-7 192-12s60-10 133-13c228-8 507-29 613-47 33-5 89-10 123-10 44 0 60-3 55-11s3-10 27-7c30 5 166-9 286-28 24-4 48-2 55 3 7 6 26 13 42 17 39 9 116 103 116 142 0 8 4 13 8 10 5-3 9 40 10 95 0 61-3 97-9 94-5-4-9 0-9 8 0 35-60 72-128 78-70 7-134 18-141 25-2 2 2 23 8 48s11 68 11 96c0 30 4 49 9 45 6-3 8 4 5 17-8 41 18 893 27 896 5 2 9 14 9 26 0 23 1 23 118 18l118-4 34 33c91 91 97 273 13 362-15 15-33 27-40 27-8 0-12 4-9 8 3 5-41 9-97 10-300 5-537 16-537 25 0 5-16 8-37 5s-108 1-193 9-191 16-235 19-82 9-85 12c-3 4-25 8-50 9-121 4-240 17-229 24 8 4-8 7-36 6s-88 2-135 6-94 3-105-2zm173-48c39-3 72-9 72-12s21-6 48-6c26-1 97-6 157-13 61-7 151-17 200-22 152-17 471-39 650-45 391-13 414-15 451-47 67-59 67-212 1-285-45-51-107-16-107 60 0 49 15 77 41 77 14 0 19 5 17 18-6 33-58 22-79-18-20-37-26-115-9-125 6-3 10-13 10-22 0-13-9-14-57-8-32 4-59 8-61 10-2 1 2 42 8 90 10 83 34 149 68 188 27 31-21 21-49-10-50-55-89-241-89-424 0-66-3-88-12-83-6 4-8 3-5-3 3-5 2-194-3-419-10-446-13-473-76-663-33-99-44-194-25-211 38-33 42-90 6-90-5 0-3 4 5 10 10 6 5 9-20 8-53-2-182 12-205 22-11 5-58 11-105 14-110 6-261 18-485 40-22 2-140 7-262 11-133 5-220 12-216 17 3 6-27 9-73 8-105-3-100-4-133 28-36 34-42 56-43 140-1 79 6 105 39 150 34 46 58 52 134 38 81-15 96-12 115 25 19 38 54 173 54 211 0 15 3 28 8 28 4 0 8 19 9 43 1 23 7 103 13 177 7 74 14 275 16 445 6 514 6 507 55 598 8 14 5 17-15 17-48 0-74-67-85-215l-6-90-90 3c-122 5-155 38-155 156 0 40 27 116 42 116 4 0 8 6 8 14 0 28 81 68 125 61 22-3 73-8 113-12zm1330-1717c3-4-2-20-11-35-9-16-17-43-17-59 0-36-14-47-55-43-45 4-47 11-22 85l22 68 38-5c21-3 41-8 45-11zm138-30c31-31 34-39 34-93 0-135-66-223-166-223-83 0-123 35-138 123-9 48 0 51 94 38 40-5 78-7 86-4 24 9 16 31-16 42-33 11-35 18-19 74 22 81 71 97 125 43z"/><path d="m785 681c-3-8-3-17 1-20 7-7 152-19 252-20 40-1 71-5 68-10s48-9 115-10 126-4 131-7c6-4 46-6 89-5 49 1 85-3 99-11 17-11 22-11 30 2 23 36-21 47-181 49-47 1-88 4-92 7-3 4-30 7-59 9-29 1-127 6-218 10-92 5-156 11-145 16 12 4 0 6-32 6-35-1-54-7-58-16z"/></g></svg>
