<svg fill-rule="evenodd" stroke-linecap="round" stroke-linejoin="round" viewBox="0 0 256 256" xmlns="http://www.w3.org/2000/svg"><g transform="translate(0 256) scale(.1 -.1)" fill="currentColor"><path d="m1240 2357c-14-7-54-34-89-60s-69-47-77-47-14-5-14-11c0-5-4-8-9-5-5 4-11 2-13-3-5-14-214-112-252-118-20-3-36-9-36-13 0-9-76-25-103-22-10 1-15-3-12-8 4-6-7-10-24-10s-31-5-31-11c0-7-18-10-49-7-27 1-47 0-44-4 2-5-21-8-53-8-72 0-93-20-96-94-4-93-5-111-13-128-4-9-4-131-1-270 4-139 7-271 7-292 0-23 4-34 9-27 6 11 18-42 23-106 1-13 5-23 10-23 4 0 7-13 7-29 0-17 4-32 9-35 8-6 26-73 23-88-1-5 3-8 8-8 6 0 10-9 10-19 0-11 5-23 11-26 6-4 8-14 4-23-3-9-3-13 1-9 8 7 64-89 77-133 1-5 26-35 52-64 6-6 28-33 50-60 43-55 88-98 152-150 23-18 39-36 36-40-4-3 1-6 10-6 8 0 22-6 29-14 8-7 24-17 36-20 12-4 22-12 22-17s5-9 11-9c7 0 33-13 58-28 25-16 63-34 84-41 20-7 37-17 37-22 0-6 5-7 10-4 6 4 16 2 23-3 7-6 29-13 50-17 20-4 40-11 43-16 16-27 186 18 314 81 30 15 58 27 61 26 3 0 13 6 22 16 9 9 33 26 54 39 71 43 233 178 233 195 0 2 8 12 18 22 33 35 57 67 82 107 13 22 27 42 30 45 6 5 66 125 82 165 25 63 58 162 58 178 0 10 4 16 8 13 5-3 6 9 4 25-3 17 0 40 6 52 32 68 58 527 31 554-7 7-10 54-8 137 2 69 1 118-3 108-5-14-7-12-7 6-2 41-22 50-129 57-56 4-102 11-102 15s-17 10-37 13c-58 9-133 31-133 39 0 5-11 8-25 8s-25 4-25 10c0 5-6 7-14 4s-17-1-21 5c-3 6-13 11-21 11-9 0-57 21-107 46-51 26-102 52-114 58-13 6-23 14-23 19 0 4-6 7-13 7-12 0-26 9-74 50-7 5-15 10-19 10-3 0-17 9-31 20-30 23-49 25-83 7zm127-92c43-30 83-59 88-63 6-4 55-29 110-55s108-52 117-57c10-6 25-10 33-10s15-5 15-11c0-5 4-8 10-4 5 3 38-4 73-15 67-22 122-33 252-54 44-6 85-15 91-19 6-3 16-50 22-104 16-141 25-326 15-320-4 3-6-18-4-46 9-130-33-382-88-532-18-48-113-234-131-256-11-13-24-29-30-36-5-7-10-16-10-20 0-10-172-183-182-183-4 0-19-10-34-23-14-12-29-21-32-21-4 1-13-7-20-17-7-11-19-19-27-19-7 0-15-4-17-9-5-13-174-95-260-125l-76-27-68 20c-37 12-104 40-148 63-45 22-91 46-103 52-13 6-23 14-23 19 0 4-5 7-11 7-11 0-79 48-91 65-4 5-8 6-8 1 0-14-189 176-213 214-12 19-27 41-34 48s-13 20-13 28-4 14-9 14-11 8-14 17c-3 10-19 41-34 68-80 141-157 434-137 523 4 21 3 24-5 12-8-11-11 45-10 200 0 139 4 208 10 195 6-15 8-5 7 35-5 149 1 159 108 176 43 6 108 18 144 25s75 13 87 13c11 1 19 4 17 7-3 6 37 17 78 22 9 1 14 5 12 9-3 4 1 8 9 8 7 0 31 9 53 19 21 11 42 17 46 14 5-2 8 0 8 5 0 9 26 20 43 18 4-1 11 4 15 10 4 5 25 18 47 28s63 36 92 57c29 22 57 39 63 39 5 0 10 4 10 10 0 5 11 12 25 16 14 3 22 10 19 15-16 27 45 2 113-46z"/><path d="m1225 2e3c-16-8-32-19-35-23s-18-11-33-14c-15-4-27-11-27-16s-7-9-15-9-15-4-15-9-13-12-30-16c-16-4-30-11-30-15 0-5-16-12-35-16-19-3-35-9-35-13 0-3-28-14-62-25-35-10-71-22-80-27-10-5-42-12-73-15-30-4-55-10-55-14s-25-10-57-12c-92-8-96-19-96-265 0-128 21-345 33-338 4 2 10-23 14-57 3-34 10-64 15-67 8-6 25-61 23-73-1-5 3-8 8-8 6 0 10-7 10-15s5-15 11-15 9-7 5-15c-3-8-1-15 4-15 6 0 10-7 10-15s4-15 9-15 11-8 14-17c15-47 221-277 252-281 6-1 18-9 28-17 9-8 21-15 26-15s16-6 23-13c7-6 32-21 55-32 24-11 43-24 43-28 0-5 4-6 10-2 5 3 17 1 27-4 76-42 150-42 226 0 10 5 22 7 27 4 6-4 10-1 10 4 0 6 7 11 15 11s15 5 15 10c0 6 5 10 10 10 6 0 28 11 50 25s40 23 40 20 10 3 22 14c11 11 24 19 27 17 7-3 213 206 212 214-1 3 5 12 13 21s17 26 21 38c3 12 11 21 16 21s9 5 9 11c0 10 33 90 50 121 6 10 10 27 10 38 0 12 4 19 8 16 4-2 8 3 9 12 0 9 6 40 13 67 6 28 14 69 17 92 3 24 8 41 12 39 9-6-2 467-12 482-5 6-15 12-23 12s-14 3-14 8c0 4-17 6-39 4-21-2-42 1-45 7-4 6-25 11-47 11-21 0-39 4-39 10 0 5-7 7-16 3-8-3-25-1-37 5s-47 18-77 28c-52 16-269 119-280 133-29 36-99 47-145 23zm111-58c132-84 389-179 541-199 90-12 88-6 88-227 0-200-6-245-56-428-72-259-306-501-575-595-66-23-106-13-237 59-235 130-367 289-445 536-52 165-57 201-57 420v204l25 12c14 7 64 20 112 28 157 30 370 115 488 194 57 38 49 39 116-4z"/><path d="m1e3 1551c-125-44-183-176-142-323 39-137 298-378 408-378 63 0 239 121 310 212 109 142 137 273 82 383-66 132-250 161-351 55l-37-38-32 33c-65 67-151 87-238 56zm160-47c15-8 44-34 65-59l37-45 51 54c79 86 175 96 264 29 151-115 50-372-214-549-96-63-90-62-156-23-288 169-405 426-257 566 55 52 139 63 210 27z"/></g></svg>
