<svg fill-rule="evenodd" stroke-linecap="round" stroke-linejoin="round" viewBox="0 0 256 256" xmlns="http://www.w3.org/2000/svg"><g transform="translate(0 256) scale(.1 -.1)" fill="currentColor"><path d="m1651 2343c-18-2-40-10-47-16-86-72-104-104-104-182 0-88 60-185 114-185 8 0 18-4 21-10 3-5 30-10 60-10s57 5 60 10c3 6 14 10 24 10 20 0 71 43 93 80 40 64 27 194-23 243-16 15-29 32-29 38 0 5-5 7-11 3-6-3-14-2-18 4-7 12-93 21-140 15zm126-59c136-65 94-280-59-300-59-7-125 27-155 81-78 140 67 288 214 219z"/><path d="m1095 2314c-16-7-42-13-56-14-27 0-130-30-139-40-3-3-18-12-33-19-15-8-48-37-74-64-41-44-44-50-30-64 13-14 18-14 30-2 74 72 158 129 191 129 9 0 16 5 16 10 0 6 15 10 34 10s38 5 42 11c3 6 16 8 29 5 14-4 28 0 35 9 8 9 8 15 2 15s-12 6-14 13c-2 11-8 12-33 1z"/><path d="m411 2e3c-27-26-34-41-40-92-4-34-4-62 1-62 4 0 8-5 8-11 0-7 11-22 24-34 14-13 22-26 18-29-3-4 1-4 10-1 9 4 19 2 23-4 18-29 100-5 145 44 42 45 37 145-10 188-50 46-132 47-179 1zm148-35c63-63 26-159-61-159-74 0-116 66-83 130 34 66 95 78 144 29z"/><path d="m2e3 1816c-9-12-6-19 16-38 117-97 215-251 218-342 0-24 4-42 9-39 4 2 7-35 7-82 0-54-4-84-10-80-6 3-7-1-4-10 8-19-17-135-28-135-4 0-8-8-8-18s-8-27-18-38c-10-10-18-22-18-26 1-4-7-17-16-28-10-11-18-23-18-26 0-19-134-142-149-137-9 4-13 2-9-2 5-5-1-14-12-22-24-17-26-43-4-43 31 0 71 28 156 111 32 31 60 53 63 51 3-3 5 4 5 16 0 11 7 27 15 36 8 8 15 22 15 31s5 13 10 10c6-3 10 3 10 14 0 12 4 21 10 21 5 0 7 6 4 14s-1 17 5 21c6 3 11 19 11 35 0 15 5 30 12 32 8 3 11 21 9 52s1 46 8 42c6-4 9 17 6 61-5 102-16 183-26 183-5 0-9 12-9 26 0 23-58 147-85 182-21 28-120 122-128 122-5 0-5 5-2 10 10 16-31 12-45-4z"/><path d="m1216 1793c-3-10-8-36-11-58-11-67-54-198-78-236-36-59-99-129-115-129-9 0-12-3-9-6 6-7-29-39-48-44-5-2-15-10-21-18-7-9-16-12-24-7-9 5-11 4-6-3 4-7 2-12-4-12s-30-9-52-20c-23-11-54-20-68-20s-30-4-35-9c-6-5-25-11-44-13-65-6-59-78 7-78 68 0 242-76 289-126 13-14 23-22 23-18 0 13 90-92 107-126 10-19 21-37 24-40 15-14 51-123 47-145-3-13-1-22 3-19 5 3 9-6 9-20 0-41 18-76 39-76 24 0 33 13 42 65 21 108 22 113 65 200 76 158 221 264 419 308 52 12 60 17 60 37 0 26-11 33-75 50-121 31-190 59-190 78 0 7-5 10-11 7-5-4-18 3-28 14-10 12-23 21-29 21-14 0-122 120-122 136 0 8-3 14-8 14-9 0-42 74-42 94 0 8-4 17-9 20s-11 18-14 33c-3 16-10 48-16 73s-13 55-16 68c-7 27-51 31-59 5zm56-186c36-174 198-336 412-411 21-7 5-36-21-36-8 0-49-17-91-37-151-73-264-219-297-383-7-36-14-56-14-45-1 12-6 26-12 32s-22 41-34 78c-58 165-213 312-361 343-62 13-52 38 27 72 127 54 188 100 248 190 44 65 101 182 101 208 0 47 32 38 42-11z"/><path d="m373 1483c-32-32-66-72-75-88-26-47-58-138-58-163 0-13-4-21-9-18-21 13-1-323 21-351 5-7 7-16 4-22-3-5-3-11 1-13 5-1 19-25 33-53 14-27 35-61 47-75 13-14 23-29 23-35 0-14 52-43 68-38 18 7 15 19-13 47-14 14-25 30-25 36 0 5-4 10-10 10-5 0-12 11-16 25-3 14-9 25-13 25s-13 16-21 35-16 35-19 35c-9 0-30 72-46 157-15 80-2 239 17 211 6-9 7-5 3 9-5 19 28 110 46 123 3 3 9 14 13 26 3 11 31 49 61 84s52 66 48 69c-5 4-11 10-15 15-3 4-33-18-65-51z"/><path d="m1779 656c-9-6-14-16-12-23 13-39-131-225-198-255-16-7-29-17-29-22 0-4-9-6-20-3s-18 1-15-3c10-16-129-50-199-50-68 0-98-19-65-42 25-16 220 13 278 42 9 4 34 16 56 26 63 30 165 126 188 176 6 16 15 28 19 28 5 0 8 8 8 18 0 9 9 35 19 58 17 38 17 41 2 51-12 8-22 7-32-1z"/><path d="m735 468c-75-28-103-107-66-184 51-104 198-91 237 21 12 37 11 49-19 112-19 41-103 69-152 51zm93-54c61-42 54-121-13-153-64-30-139 46-111 113 23 55 78 73 124 40z"/></g></svg>
