<svg fill-rule="evenodd" stroke-linecap="round" stroke-linejoin="round" viewBox="0 0 256 256" xmlns="http://www.w3.org/2000/svg"><g transform="translate(0 256) scale(.1 -.1)" fill="currentColor"><path d="m1248 2057c-9-9-33-47-54-84-20-37-40-70-43-73s-14-21-24-40c-9-19-31-57-47-85-16-27-37-65-46-82-10-18-21-33-26-33-14 0-9-22 10-36 18-14 452-21 486-8 29 11 17 46-68 188-46 77-91 155-99 171-9 17-28 45-44 64-27 31-30 32-45 18zm44-79c9-18 54-98 102-177 47-79 86-145 86-147s-94-4-210-4c-115 0-210 4-210 8s25 50 55 102 74 130 97 172c48 87 57 92 80 46z"/><path d="m471 2e3c-88-31-142-104-149-202-19-266 355-351 449-102 72 191-107 372-300 304zm162-34c146-75 159-269 23-354-126-77-282 3-294 151-10 125 67 214 185 214 35 0 74-5 86-11z"/><path d="m1789 2e3c-25-6-29-33-29-225v-177l27-21c26-20 36-21 204-18 131 2 180 7 192 17 25 20 25 391 1 415-15 15-344 23-395 9zm377-34c10-16 4-352-6-363-17-17-336-18-350-1-18 22-27 339-10 360 16 19 354 23 366 4z"/><path d="m2e3 1474c-10-25-7-74 4-74 6 0 10 20 10 45 0 47-4 55-14 29z"/><path d="m540 1441c0-23 5-41 10-41 8 0 14 44 9 65-6 24-19 8-19-24z"/><path d="m1260 1440c0-22 5-40 10-40 6 0 10 18 10 40s-4 40-10 40c-5 0-10-18-10-40z"/><path d="m544 1317c-8-22-1-73 10-69 11 2 13 69 3 78-4 4-9 0-13-9z"/><path d="m1260 1285c0-25 5-45 10-45 6 0 10 20 10 45s-4 45-10 45c-5 0-10-20-10-45z"/><path d="m2e3 1323c-7-11-1-72 7-80 3-3 6 15 6 40 0 45-4 56-13 40z"/><path d="m547 1173c-10-10-8-66 3-83 7-11 10 0 10 38 0 53-1 57-13 45z"/><path d="m1260 1141c0-23 5-41 10-41 6 0 10 15 10 34s-4 38-10 41c-6 4-10-10-10-34z"/><path d="m2e3 1173c-11-10-8-71 3-78 6-4 10 12 10 39 0 47-2 51-13 39z"/><path d="m209 994c-16-17-19-30-14-60 3-22 12-86 21-144 25-172 37-223 62-250l23-25 247 5c246 5 272 8 272 36 0 8 3 14 8 14 4 0 8 10 8 23 2 37 35 261 41 277 3 8 7 36 9 61 7 80 14 78-344 81-308 3-314 3-333-18zm645-22c6-11-51-370-64-399-10-23-10-23-242-23-128 0-239 4-246 9-24 14-83 396-65 414 9 10 611 9 617-1z"/><path d="m940 995c-10-12-10-33 0-108 8-50 15-103 16-117s3-25 4-25c2 0 10-45 19-100 22-139 13-135 310-130 281 5 271 0 290 150 7 55 19 127 26 160 43 198 67 185-334 185-273 0-320-2-331-15zm639-24c17-11-49-398-70-412-8-5-114-9-236-9-267 0-240-20-277 207-35 219-36 211 17 216 88 8 553 6 566-2z"/><path d="m1680 992c-21-17-22-21-11-71 6-29 8-57 5-63-4-6-3-8 3-5 5 3 16-48 26-126 9-73 18-141 19-152 6-46 28-50 290-55l246-5 21 23c12 13 21 34 21 46 0 13 3 26 7 30 4 3 8 14 9 24 19 151 38 268 43 272 14 11 11 63-5 81-26 29-639 29-674 1zm638-21c13-8 5-80-33-291-8-47-15-88-15-92 0-34-31-38-261-38-268 0-236-19-269 160-31 164-37 250-19 261 17 11 579 11 597 0z"/></g></svg>
