<svg fill-rule="evenodd" stroke-linecap="round" stroke-linejoin="round" viewBox="0 0 256 256" xmlns="http://www.w3.org/2000/svg"><g transform="translate(0 256) scale(.1 -.1)" fill="currentColor"><path d="m1342 2168c-6-13-14-48-17-78-15-120-63-284-91-306-8-6-11-14-8-17 7-7-74-129-93-140-7-5-11-12-9-16 6-10-167-191-183-191-6 0-11-4-11-10 0-5-7-10-15-10s-15-4-15-10c0-5-7-10-15-10s-15-4-15-10c0-5-7-10-15-10s-15-5-15-11-6-9-14-6-17-1-20-10c-4-8-13-13-21-9-8 3-15 2-15-2 0-23-163-72-241-72-87 0-98-60-14-72 76-11 148-24 170-32 55-21 223-111 219-118-3-4 2-8 12-8 19 0 90-60 86-73-1-5 2-5 8-2 6 4 20-4 31-17 68-78 107-125 128-157 42-61 102-184 96-199-2-7-1-11 4-8 12 8 41-88 53-179 15-116 17-125 34-132 31-12 54 26 54 90 0 33 4 74 9 91s15 51 22 76c20 70 63 162 114 242 50 77 217 254 249 264 11 4 29 15 40 25 11 11 35 24 53 31s33 16 33 20 7 8 15 8 15 5 15 10c0 6 7 10 15 10s34 8 58 18c68 30 111 42 150 42 34 0 37 2 37 29 0 32-14 41-65 41-106 0-333 129-461 261-67 71-163 199-147 199 4 0 0 6-9 13-24 19-73 115-92 182-9 33-21 74-26 90-5 17-10 59-11 95-3 88-40 131-67 78zm31-55c-8-52-13-54-13-5 0 23 4 42 9 42 6 0 7-17 4-37zm28-273c81-233 281-460 514-584 27-14 56-26 62-26 32 0 8-31-42-54-137-63-297-194-395-325-49-65-135-227-149-279-11-41-31-32-50 23-89 251-380 550-583 599-44 10-34 23 46 59 247 115 453 351 550 630 10 30 27 15 47-43zm-90 7c-6-6-11-21-11-32 0-20-73-145-84-145-3 0 19 49 47 109 29 59 54 102 55 94 2-8-1-20-7-26zm169-87c1-41-50 38-55 85l-6 50 30-60c17-33 30-67 31-75zm340-387c31-20 49-38 41-41-21-7-115 64-196 149-104 109-95 123 13 16 48-48 112-104 142-124zm-729 130c-22-40-183-170-180-146 0 8 178 163 186 163 2 0-1-8-6-17zm943-250c4-5 38-15 74-24 61-15 64-17 37-23-16-4-46-11-66-16-62-17-76-14-53 11 19 21 18 21-5 40-15 12-18 19-9 19 8 0 18-3 22-7zm-1359-47c26-11 51-38 33-36-13 2-110 39-115 44-12 12 48 6 82-8zm1155-137c-188-156-285-269-359-418-18-34-35-61-38-58-30 30 211 369 311 436 78 53 132 78 86 40zm-788-83c61-62 85-99 44-70-14 11-26 22-26 25s-34 33-75 65-75 62-75 66c0 17 85-38 132-86zm139-158c24-30 102-169 96-174-2-2-10 8-17 24-8 15-33 54-55 87s-44 66-48 73c-13 20 4 13 24-10z"/><path d="m2070 645c-12-22-11-27 5-45 26-29 52-21 67 20 16 46-48 69-72 25z"/></g></svg>
