<svg fill-rule="evenodd" stroke-linecap="round" stroke-linejoin="round" viewBox="0 0 256 256" xmlns="http://www.w3.org/2000/svg"><g transform="translate(0 256) scale(.1 -.1)" fill="currentColor"><path d="m1150 2055c-6-8-21-17-33-21s-30-17-40-30-23-24-28-24-15-5-22-10c-7-6-28-24-47-40s-38-30-41-30-16-9-28-19c-35-30-90-75-166-132-38-29-77-59-87-68-14-12-45-14-166-12-165 3-205-6-249-57-41-47-45-82-41-354l3-258 98-90h173c141 0 174-3 184-15 7-8 47-41 89-72 75-57 90-68 114-88 7-6 32-26 57-45s50-38 55-43c62-50 195-139 222-148 43-14 119 11 148 50 20 25 20 41 20 739v714l-37 34c-35 31-43 34-102 34-43 0-67-5-76-15zm138-15c17-11 32-22 32-25s-11 2-25 11-40 20-58 24c-27 7-28 8-7 9 14 0 40-8 58-19zm-102-3c-10-7-45-31-78-55s-62-41-65-39c-6 7 137 107 151 106 6 0 3-6-8-12zm108-48 26-31-2-680-3-680-28-24c-54-46-65-40-347 172l-260 197v343 343l96 73c401 306 418 317 456 318 28 0 42-7 62-31zm-412-172c-14-17-102-80-102-73 0 5 101 84 109 85 2 1-1-5-7-12zm-169-133c-29-25-53-53-53-61 0-14-2-15-17-1-10 9-25 18-33 21-9 3-5 6 10 6 14 1 50 19 80 41 73 52 77 50 13-6zm-93-394v-330h-146-146l-68 68v251c0 345-4 340 223 341h137v-330zm120-421c44-34 80-63 80-65 0-9-12-1-62 39-29 23-70 55-91 70-33 25-36 31-26 50 9 15 10 88 7 252-3 126-3 246 1 265 3 19 7-96 9-257l2-292 80-62zm-513 484c-2-16-4-5-4 22 0 28 2 40 4 28 2-13 2-35 0-50zm59-380c18-18 28-33 23-33-18 0-69 58-68 77 0 14 2 15 6 3 3-8 21-30 39-47zm849-400c32-24 54-43 48-43-12 0-133 87-133 96 0 7 13-1 85-53z"/><path d="m2e3 2e3c3-5-2-12-11-15-9-4-13-10-8-13 9-6 115-131 146-172 9-13 17-29 17-36s5-13 10-13c6 0 10-6 10-14s3-16 8-18c26-12 86-186 109-320 30-172-6-388-94-562-57-114-85-151-199-270-14-15 7-36 34-36 38 0 232 257 232 307 0 7 5 13 11 13 5 0 7 5 3 11-3 6-3 14 2 18 9 6 30 71 41 123 3 15 8 26 12 24 9-6 15 75 15 234 0 166-6 250-16 243-5-2-8 6-8 19 0 29-24 92-78 203-24 50-43 90-41 90 16 0-161 183-181 188-11 3-17 1-14-4zm73-77 35-47-46 40c-25 22-47 45-47 52-2 22 23 3 58-45zm171-259c11-30 20-57 20-61-1-7-110 199-110 208 0 18 73-103 90-147zm78-323c0-65-13-15-20 75l-5 70 12-50c7-27 13-70 13-95zm-28-320c-7-28-14-49-17-46s1 28 8 55c7 28 15 49 17 46 2-2-1-27-8-55zm-136-307c-42-62-144-174-144-158 1 6 19 28 41 50s61 70 86 107c26 38 49 66 51 63 3-3-12-31-34-62z"/><path d="m1787 1760c-25-25-22-33 38-102 30-34 55-69 55-75 0-7 3-13 8-13 8 0 22-30 49-105 22-62 27-325 6-347-7-6-13-20-13-30 0-30-57-130-110-191-53-63-54-65-41-86 38-60 173 131 221 311 22 86 27 215 9 282-37 144-58 193-120 276-66 90-80 101-102 80zm157-215c27-59 41-109 28-101-6 3-13 18-17 33-3 15-22 59-41 98-24 48-28 62-14 45 12-14 32-47 44-75zm33-429c-6-36-56-150-63-143-3 2 9 38 26 80 16 41 30 80 30 86s3 11 6 11c4 0 4-15 1-34zm-103-213c-28-44-64-79-64-64s60 89 74 90c4 1 0-11-10-26z"/><path d="m1570 1511c-8-16-4-25 20-50 17-16 30-33 30-37s7-16 17-26c12-14 16-39 17-106 0-97-9-122-72-197-35-42 10-70 51-32 65 60 100 191 77 289-29 124-110 215-140 159zm57-33c49-54 80-163 64-228-8-31-9-28-10 30-2 69-23 129-67 187-28 37-18 45 13 11z"/></g></svg>
