<svg fill-rule="evenodd" stroke-linecap="round" stroke-linejoin="round" viewBox="0 0 256 256" xmlns="http://www.w3.org/2000/svg"><g transform="translate(0 256) scale(.1 -.1)" fill="currentColor"><path d="m1095 2269c-16-5-46-7-65-4-26 4-31 3-20-4 12-9 9-11-15-11-44 0-293-96-315-121-3-3-32-23-65-45-157-103-325-317-361-458-3-15-10-29-15-32s-9-16-9-30c0-13-3-24-7-24-5 0-9-10-9-22-1-13-7-65-14-117-10-75-10-114 0-195 7-55 13-109 13-118 1-10 5-18 9-18s8-8 8-19c0-10 7-32 15-47 8-16 15-37 15-46 0-10 4-18 9-18 7 0 12-11 22-50 0-3 4-7 8-10s24-30 43-61c20-31 50-70 67-88 17-17 27-31 23-31s-1-4 6-8c8-6 10-22 6-55-4-28-11-44-17-40s-8 0-4-11c4-10-2-35-13-59-11-22-20-47-20-54s-4-13-10-13c-5 0-10-6-10-14s-6-21-12-28c-79-86-54-146 54-133 35 4 73 7 86 7 12 0 22 4 22 9s11 9 25 9 25 4 25 9c0 8 56 25 73 22 4 0 7 3 7 8s16 12 35 15c19 4 35 11 35 16 0 6 7 10 15 10s15 4 15 9 10 13 23 17c12 4 25 11 28 16s21 1 40-8c62-31 69-34 87-34 10 0 22-3 26-7 8-9 27-13 91-20 28-3 55-9 60-13 13-11 345-11 345-1 0 5 26 11 58 15 78 9 91 11 98 19 4 4 20 7 35 7s31 4 34 10c3 5 13 10 21 10s42 13 76 30c33 16 66 30 74 30s14 5 14 10c0 6 5 10 11 10s31 13 56 30c24 16 46 30 49 30 18 0 237 224 228 233-3 2 2 10 11 17 8 7 15 19 15 26 0 8 3 14 8 14 4 0 16 20 27 45s23 45 27 45c5 0 8 9 8 19 0 11 5 23 10 26 6 4 8 10 5 15s-1 11 5 15c5 3 10 16 10 29 0 12 3 26 7 30 4 3 8 14 9 24 22 162 24 208 15 313-12 128-14 145-24 155-4 4-7 15-7 24 0 22-79 192-92 198-5 2-8 8-8 13 0 29-154 201-232 258-11 9-31 26-44 38s-24 19-24 16-6-1-12 5c-49 39-299 142-346 142-13 0-21 3-19 8 6 9-18 11-243 17-108 2-197 0-215-6zm410-58c126-28 305-94 305-112 0-5 3-8 8-7 10 4 72-35 72-45 0-4 4-6 8-3 5 3 21-6 37-20 15-13 31-24 34-24 8 0 116-101 116-109 0-3 11-18 25-33 42-44 110-149 110-168 0-6 3-10 8-10 20 0 90-248 77-271-4-5-1-9 4-9 7 0 11-35 11-95 0-52-4-95-8-95s-8-17-9-38c-2-43-61-225-74-230-5-2-9-10-9-18s-5-14-10-14c-6 0-9-3-8-7 3-8-38-79-57-99-5-7-19-25-30-40-34-48-160-164-178-164-6 0-17-8-26-19-21-25-194-113-225-115-13 0-22-4-19-8 2-5-4-8-14-8s-36-7-58-15-59-14-82-15c-23 0-45-5-48-10-12-19-306-11-413 11-54 11-109 23-124 26-16 3-28 9-28 14s-10 9-22 9c-13 0-35 7-51 15-27 14-84-3-95-27-2-5-10-8-18-8s-14-4-14-9-13-12-30-16c-16-4-30-11-30-15 0-5-16-12-35-16-19-3-35-10-35-14 0-7-48-22-77-24-6-1-15-5-19-9-12-11-84-8-84 4 0 10 29 68 40 79 3 3 6 10 7 15 1 6 15 47 32 92 53 148 52 152-18 231-34 38-61 74-61 80 0 7-4 12-9 12-13 0-83 149-75 162 4 6 3 8-3 5-6-4-13 5-16 21-3 15-10 45-16 67-5 22-12 63-15 90-2 28-7 57-11 66-9 23 22 230 45 300 20 62 48 119 65 131 6 4 6 8 2 8-7 0 47 91 73 123 73 91 228 227 259 227 5 0 11 3 13 8 6 15 144 81 213 102 126 39 141 42 221 50 90 10 309 4 369-9z"/></g></svg>
