<svg fill-rule="evenodd" stroke-linecap="round" stroke-linejoin="round" viewBox="0 0 512 512" xmlns="http://www.w3.org/2000/svg"><g transform="translate(0 512) scale(.1 -.1)" fill="currentColor"><path d="m2913 4750c-59-6-84-25-115-87-21-41-40-54-52-34-7 10-67 39-134 65-53 20-154 21-191 2-15-8-39-36-53-63-23-44-63-118-111-203-11-19-71-127-133-240-63-113-118-212-124-220s-20-35-33-60c-12-25-25-47-28-50s-14-23-25-45c-10-22-21-42-24-45-6-5-18-27-79-145-14-27-28-52-31-55s-15-23-27-45c-68-130-79-151-90-163-7-7-13-18-13-23s-15-7-32-6c-78 8-134-55-130-144 1-33-2-49-11-50-34-2-52-10-73-32-28-31-47-98-37-134 4-15 7-31 8-35 0-3 3-10 8-14 17-17-30-135-83-209-7-9-24-39-102-180-15-27-33-61-40-75s-22-41-34-60c-11-19-46-83-77-143-67-127-79-147-93-167-6-8-30-51-54-95-23-44-46-84-50-90-4-5-26-46-50-90-23-44-58-108-76-142-58-104-45-180 45-274 54-56 60-69 36-89-8-7-20-30-25-52-40-148 160-331 362-333 46 0 48-1 49-30 2-71 13-96 77-167 94-104 244-151 356-112 22 8 40 13 41 12 1-2 12-23 24-48 105-206 435-269 501-95l10 25 62-50c97-78 214-110 316-85 34 8 112 92 112 120 0 7 7 18 15 25s13 16 10 20c-3 5-1 11 4 14s18 24 29 45c31 60 46 85 53 91 3 3 14 23 25 45 10 22 20 42 23 45 4 3 14 21 25 40 10 19 26 49 36 65 35 62 74 132 113 205 56 105 65 120 93 165 13 22 29 51 34 64 6 13 19 35 29 50 10 14 36 59 57 99 22 40 46 85 54 100 9 15 35 62 59 105 41 74 61 94 99 102 88 16 150 123 114 195-17 36-9 65 19 65 4 0 11 3 15 7 4 5 15 8 24 8 10 0 38 19 62 43 54 51 67 97 44 152-17 40-13 56 37 140 25 43 53 92 111 195 20 36 40 72 46 80 5 8 20 35 33 60s34 63 47 85 34 60 48 85 32 56 41 70 23 39 31 55c8 17 17 32 20 35s11 16 17 30c7 14 26 48 43 75 16 28 37 66 47 85 9 19 19 37 22 40 4 3 13 19 21 35 8 17 17 32 20 35s12 19 20 35c8 17 28 53 45 80 68 111 75 147 40 202-27 40-87 98-133 127l-42 26 26 48c14 26 31 53 36 60 20 24 11 105-16 140-34 45-102 101-162 134-84 45-108 51-204 52l-76 1 4 26c7 49-49 126-138 189-119 85-305 119-352 65l-21-24-33 46c-85 120-262 207-391 193zm183-94c81-40 169-119 180-160 26-103-217-52-346 73-128 123-21 179 166 87zm-485-20c141-49 268-174 228-222-22-26-132-14-213 24-86 40-196 144-196 186 0 40 87 46 181 12zm379-181 55-28-35-12c-31-10-89-78-103-120-2-5-15-2-30 8l-27 17 25 40c35 55 33 106-4 158-16 22-34 43-40 47-6 3-11 13-11 21s26-12 58-44c31-33 82-72 112-87zm-434-42c54-28 67-43 39-43-36 0-94-91-415-655-416-730-367-651-391-629-44 39-112 152-107 178 3 13 163 310 357 659l352 634 55-57c31-32 80-71 110-87zm1e3 53c124-59 213-158 181-202-11-14-24-16-79-12-163 13-386 189-311 245 30 23 126 9 209-31zm-227-105c59-74 202-149 315-166 53-8 52-6 33-44l-15-28-68 23c-39 13-92 24-124 24-52 0-57 2-68 28-13 32-62 86-111 123-33 25-34 28-21 53 19 34 22 33 59-13zm-187-22c140-55 260-186 201-218-75-40-259 32-355 138-88 97-2 142 154 80zm-443-40c115-39 242-143 242-199 0-90-243-25-362 97-101 104-40 156 120 102zm267-97c74-71 162-118 257-138 40-8 74-17 76-19 8-8-30-66-41-62-111 47-152 60-204 65l-63 5v42c0 43-47 131-77 142-11 4-19 23-10 23 2 0 30-26 62-58zm-285-146c45-22 103-41 145-48 39-6 71-12 73-14 2-1-69-128-158-281s-257-442-373-643-212-367-214-369c-6-9-124 90-237 200l-120 116 685 1200 62-62c41-41 87-74 137-99zm1271 138c163-48 327-216 233-240-87-22-235 35-326 127-105 104-60 158 93 113zm-388-95c115-39 247-148 247-205 0-58-167-36-281 37-185 118-162 234 34 168zm388-153c41-20 105-42 142-49 69-11 77-17 53-36-10-8-31-7-85 5-114 26-166 7-212-80-13-25-30-46-36-46-19 0-16 15 17 73 48 85 40 127-40 211-77 81-56 100 23 21 41-41 87-74 138-99zm-554 23c21-23 59-56 86-74l48-32-43-7c-23-4-48-12-55-18-8-7-17-7-22-2-4 5-28 32-54 59l-46 51 21 32c25 40 21 40 65-9zm-261 5c134-45 270-183 224-227-18-19-120-12-179 12-117 47-221 140-221 198 0 45 72 52 176 17zm-125-180c58-49 158-94 241-108l67-11-78-135c-43-74-151-261-240-415-90-154-215-371-279-482-65-112-123-203-130-203-46 0-397 211-389 234 5 13 203 355 556 964l153 262 28-35c15-19 47-51 71-71zm1084 6c164-56 291-203 202-234-118-42-431 162-367 239 18 21 95 19 165-5zm-421-43c83-39 171-117 181-160 34-136-354 2-404 144-25 72 88 80 223 16zm235-72c47-69 199-158 290-171 87-11 85-9 52-67-16-29-112-198-213-377-102-179-242-428-313-553-70-125-136-232-146-237-43-24-351-24-388 0-9 5 88 181 353 635 399 685 389 662 342 739-38 64-18 90 23 31zm-319-142c36-18 88-38 115-44 28-6 62-14 77-18l26-6-68-115c-38-63-190-324-339-580-148-256-274-471-279-479-17-29-462 86-462 119 0 5 44 85 98 177 55 93 143 245 197 338 165 287 416 719 431 742 14 22 15 22 77-40 37-37 88-75 127-94zm-2e3 -306c58-171 445-543 750-722 343-202 754-314 1109-302 83 3 160 7 171 9 37 6 32-47-7-86-45-45-90-56-228-56-329 0-738 112-1065 292-491 271-926 757-794 889 28 28 49 21 64-24zm-106-210c76-158 431-477 732-657 49-29 112-73 141-98s107-85 173-134 131-98 145-108c33-26-116 25-254 86-593 263-1163 798-1e3 949 35 35 40 32 74-38zm-79-215c0-5 27-42 61-82 52-62 60-76 51-94-5-11-123-221-262-466s-293-517-343-605-92-162-94-164c-2-3-21 13-43 34-45 44-75 112-66 148 3 13 104 201 224 418s271 490 336 607c103 186 136 235 136 204zm257-277c82-72 203-167 251-196 12-8 22-18 22-22 0-7-586-1e3 -704-1242-49-82-72-97-146-92-105 6-227 84-269 171-37 76-80-11 543 1089 115 202 211 367 213 367s43-34 90-75zm451-322c64-36 154-84 199-105 46-22 83-42 83-46s-68-124-150-267c-83-143-260-451-393-684-145-253-252-430-266-440-87-57-296 31-355 151-42 84-86-7 457 943 276 484 295 515 304 515 3 0 57-30 121-67zm572-59c69-23 163-52 209-64s110-35 143-51c128-65 234-93 346-94 112 0 116-3 90-60-68-150-441-39-855 253-90 63-111 82-75 67 9-4 73-27 142-51zm-111-158c64-24 161-56 216-71s102-29 103-30c8-7-801-1412-826-1434-75-68-300 18-362 140-39 75-39 74 226 536 135 235 307 535 382 666 75 130 138 237 141 237 2 0 56-20 120-44zm843 24c46 0 43-15-4-23-38-5-156 11-178 25-10 6 12 7 64 4 43-3 97-6 118-6zm-366-189c55-22 128-45 164-52s69-16 73-19c10-9-695-1274-730-1310-35-37-146-36-221 3-54 29-132 92-132 109 0 8 741 1308 746 1308 1 0 46-18 100-39z"/><path d="m3062 1658c-35-43-579-1e3 -575-1e3 19-49 48-7 290 417 342 597 337 588 323 605-15 18-24 19-38 3z"/></g></svg>
