<svg fill-rule="evenodd" stroke-linecap="round" stroke-linejoin="round" viewBox="0 0 256 256" xmlns="http://www.w3.org/2000/svg"><g transform="translate(0 256) scale(.1 -.1)" fill="currentColor"><path d="m1061 2334c-30-25-31-29-31-103 0-89 12-108 73-118 65-10 54-67-15-78-23-4-70-18-104-30-35-13-65-20-68-17s-6 0-6-6c0-7-7-12-15-12-60 0-286-187-372-309-26-36-50-67-54-69-5-2-5-10-2-18s1-14-5-14-13-13-17-30c-4-16-11-30-16-30s-9-11-9-25-4-25-8-25-9-8-10-17c-6-55-15-94-21-85-10 16-15-70-14-235 1-179 5-233 15-227 5 3 8-6 8-20s6-40 14-58c15-33 27-69 28-78 0-3 3-7 6-10 7-5 23-33 59-100 10-19 20-37 23-40s34-39 69-80c74-87 87-101 76-80-7 12 56-39 75-61 3-4 15-9 28-13 12-4 22-12 22-17s7-9 15-9 15-5 15-10c0-6 3-9 8-8 7 2 103-42 112-51 3-3 14-7 25-9s35-6 52-9c18-3 31-9 28-13s5-8 18-9c12 0 88-3 168-7 116-5 160-3 220 10 112 25 189 49 189 59 0 5 7 7 15 3 8-3 15-1 15 4 0 6 7 10 15 10s15 5 15 10c0 6 5 10 10 10 6 0 28 11 50 25s40 23 40 19c0-16 174 161 218 221 63 87 142 264 142 318 0 10 3 16 8 14 8-6 10 9 18 173 3 76 1 148-6 185-6 33-14 74-17 90-3 17-9 35-13 40-4 6-11 24-15 42-11 52-77 179-130 252-20 28-181 186-200 198-11 7-46 28-78 47-32 20-64 36-70 36-7 0-23 6-37 13-14 8-47 20-73 27-26 8-47 17-47 20 0 4-8 7-17 7-63-1-71 3-78 34-8 37-7 39 44 46 60 8 76 32 76 113 0 64-19 125-36 114-4-2-10 0-14 6s-78 10-195 10c-188 0-189 0-219-26zm398-33c24-24 30-108 9-129-20-20-362-17-382 4-22 22-21 96 2 116 25 22 28 23 196 27 146 3 155 2 175-18zm-99-219v-29l-82-2c-45 0-87-6-92-11-6-6-16-10-23-10-8 0-6 7 7 20 11 11 20 29 20 40 0 18 7 20 85 20h85v-28zm15-82c643-74 983-824 621-1369-287-431-870-518-1272-190-283 231-393 618-274 964 111 324 394 556 725 595 89 11 102 11 200 0zm-771-285c-15-20-29-33-32-30-5 5 46 65 55 65 2 0-8-16-23-35zm1280-1266c-10-11-28-25-39-31-12-5-7 3 13 21 37 35 55 42 26 10zm-93-72c-6-8-34-26-63-42-63-33-53-20 17 24 56 34 62 37 46 18z"/><path d="m1195 1864c-11-2-43-9-72-15-291-58-531-310-574-601-78-533 367-961 887-854 209 43 402 198 499 400 50 106 66 180 66 316 0 160-13 225-74 350-115 236-352 391-619 404-51 3-102 3-113 0zm250-60c100-24 277-119 258-138-3-3 0-6 8-6 24 0 159-152 159-179 0-6 5-11 10-11 6 0 10-6 10-12 0-7 7-26 15-41 29-56 65-218 65-292-1-151-48-294-138-415-69-93-91-115-167-165-33-22-62-42-65-45-13-13-51-29-84-35-20-4-36-10-36-14s-45-15-99-25c-95-18-103-18-203 0-56 9-105 21-108 24-3 4-23 10-44 13-22 4-42 10-45 14s-22 16-41 26c-81 41-240 196-240 234 0 7-4 13-8 13-40 0-112 238-112 371 0 77 45 289 62 289 4 0 8 5 8 11 0 43 134 206 225 276 148 113 372 155 570 107z"/><path d="m1262 1618c-9-9-12-68-12-206 0-176-2-194-17-198-10-3-29-21-42-41-49-76-2-163 88-163 97 0 140 123 66 189l-35 30-5 192c-6 215-9 231-43 197zm23-60c-8-58-15-61-15-5 0 26 4 47 10 47s8-17 5-42zm-53-398c-12-21-18-25-20-14-4 16 15 44 29 44 4 0 0-13-9-30z"/></g></svg>
