<svg fill-rule="evenodd" stroke-linecap="round" stroke-linejoin="round" viewBox="0 0 256 256" xmlns="http://www.w3.org/2000/svg"><g transform="translate(0 256) scale(.1 -.1)" fill="currentColor"><path d="m665 2359c-79-15-135-33-135-41 0-4-5-8-10-8-22 0-108-68-150-118-25-29-50-58-56-65s-12-16-13-22c-8-25-15-40-20-45-4-3-14-36-24-75-23-95-22-197 4-271 11-32 23-69 26-81 3-13 9-23 13-23 5 0 12-9 15-21 16-50 124-152 200-188 122-59 224-73 345-47 89 19 94 20 100 26 3 3 22 14 44 25 21 11 61 41 89 68 79 73 74 86 74-225 0-218 2-249 17-273 29-44 74-56 181-51 98 5 135-8 107-36-17-17-17-587 0-622 28-64 44-66 424-66h344l80 80v307 307l-83 77-153-3c-139-3-154-1-154 14 0 9 7 23 15 32 18 18 23 582 5 571-6-3-10 4-10 18 0 13-13 36-31 53l-30 29-307 1c-320 0-339 2-322 34 5 10 10 42 10 70s3 49 8 47c8-6 8 41-1 63-5 14-17 86-20 123-1 9-4 17-8 17-7 0-44 84-37 86 1 0-35 39-82 85-78 78-113 105-132 101-5-1-8 3-8 8 0 6-9 10-20 10s-20 4-20 8-8 9-17 10c-10 1-45 6-78 11-72 11-126 11-180 0zm187-53c102-27 209-91 253-151 11-15 28-36 39-48 20-24 42-77 38-91-2-5 1-12 5-15 11-7 33-116 33-159 0-41-22-125-35-134-5-4-6-8-2-8 9 0-34-83-45-88-5-2-8-10-8-17s-25-38-56-69-62-56-69-56-15-3-17-7c-6-15-67-43-92-43-14 0-26-4-26-10 0-17-212-12-256 6-98 39-121 53-183 115-60 60-83 96-116 184-20 54-27 240-9 253 5 4 10 18 12 31 3 31 32 91 43 91 5 0 9 7 9 16 0 22 96 115 154 149 99 58 227 78 328 51zm1e3 -684c22-18 22-21 23-315 1-250-1-299-13-311s-72-16-313-21l-297-6-30 30-31 30 1 277 2 277 56 57h290c264 0 292-2 312-18zm378-737c18-23 19-40 17-303-2-214-6-283-16-300-21-34-685-35-715-1-31 34-35 574-4 607 21 22 22 22 360 22h339l19-25z"/><path d="m497 959c-10-6-21-8-24-5s-17-9-30-26c-23-32-23-32-23-345 0-187 4-313 9-313s12-8 15-18c15-46 57-52 375-52 164 0 301 3 305 8 4 4 12 7 18 7s20 13 32 28c20 27 21 41 24 330 4 432 37 397-380 397-195 0-310-4-321-11zm633-61c19-21 20-34 20-310v-289l-25-24-24-25h-289c-278 0-290 1-316 21l-26 20v292c0 285 0 291 22 314l21 23h298c294 0 299 0 319-22z"/></g></svg>
