<svg fill-rule="evenodd" stroke-linecap="round" stroke-linejoin="round" viewBox="0 0 256 256" xmlns="http://www.w3.org/2000/svg"><g transform="translate(0 256) scale(.1 -.1)" fill="currentColor"><path d="m1135 2348c-27-6-84-19-125-30s-83-20-92-21-14-5-12-9c3-4-1-8-8-8-18 0-121-51-130-64-4-6-10-7-14-3s-13-2-21-13-18-20-23-20c-10 0-44-27-82-62-10-10-20-18-23-18-6 0-30-26-91-98-45-52-103-142-104-159 0-7-4-13-10-13-5 0-10-6-10-14s-3-16-7-18c-5-1-16-27-26-57-17-48-17-55-4-69 19-18 47 3 47 36 0 19 114 218 141 244 8 8 28 30 44 49 37 41 139 129 180 155 17 10 32 21 35 25 8 10 210 89 229 89 9 0 36 8 61 17 62 22 306 22 405-1 69-16 205-64 215-75 3-3 22-15 43-25 20-11 37-23 37-28 0-4 6-8 13-8 12 0 54-32 112-86 19-17 37-29 40-26s5-1 5-9c1-19 48-52 66-45 29 11 12 44-61 115-41 40-75 70-75 67 0-4-15 4-33 18-19 15-39 26-45 26s-12 4-14 9c-1 5-31 23-65 39s-60 32-57 35-3 3-14 0c-11-2-23 0-26 6-4 6-21 11-37 11-19 0-28 4-24 11 4 6 1 10-6 8-30-4-70 1-66 9 6 8-21 10-193 16-69 2-147-1-175-6zm-275-116c-41-21-99-55-127-76-29-21-53-34-53-29 0 11 123 91 185 119 80 37 77 27-5-14zm901-13c33-18 57-34 55-36-3-3-33 11-68 31-78 44-68 48 13 5zm-1196-207c-21-20-32-28-25-17 26 37 53 65 59 60 3-3-12-22-34-43zm-141-202c-15-28-29-48-32-46-5 6 46 96 54 96 3 0-7-23-22-50z"/><path d="m1155 2e3c-192-27-390-167-472-333-21-42-41-77-45-79s-4-10-1-18 1-20-5-27c-5-6-13-32-16-57-4-25-10-59-13-76-8-49 37-94 91-94 51 0 96 37 96 78 0 108 110 279 225 349 112 69 276 81 398 29 37-15 67-32 67-36 0-5 8-11 18-14 19-7 98-76 86-76-4 0-1-6 8-12 23-19 67-103 59-115s-71-34-81-28c-12 7-32-40-28-69 2-18 13-33 33-44 17-9 32-20 33-24 2-5 13-8 23-8 13 0 18-4 13-12-5-7-3-8 5-3 7 4 23 3 34-3 35-17 88-32 112-32 23 0 110 86 155 153 14 20 28 37 33 37 4 0 7 17 7 38 0 52-31 71-90 53-49-15-56-11-64 34-4 19-11 35-16 35-6 0-10 7-10 15s-4 15-10 15c-5 0-10 5-10 11 0 16-93 140-127 169-54 46-162 104-216 115-17 4-36 11-42 15-12 9-206 20-250 14zm236-40c194-57 365-216 419-389 17-55 23-59 58-41 45 23 92 21 92-4 0-34-159-202-184-194-57 17-171 73-180 88-13 20 15 46 49 46 48 0 61 22 41 74-95 248-400 365-643 247-158-77-229-173-283-378-17-68-74-83-113-31-21 28-21 28-2 100 45 177 144 314 297 412 120 76 320 108 449 70z"/><path d="m580 1111c-24-19-25-25-25-124 0-58 3-100 7-93 4 6 8-28 8-75 0-76 2-88 23-107 34-32 68-28 111 15l37 37 45-47c24-26 47-47 50-47s25-13 48-29c94-65 150-83 334-108 42-6 231 23 242 37 7 9 76 40 89 40 6 0 11 5 11 11s5 9 11 7c14-5 53 28 138 112 107 107 182 285 139 328-7 7-8 12-3 12 6 0-3 7-19 15-66 35-104 14-157-85-19-36-43-76-54-89-38-47-98-101-112-101-7 0-13-4-13-9 0-12-83-51-145-67-128-35-290 3-393 92-69 58-71 69-23 118 73 75 52 116-69 136-41 6-95 15-120 20-122 21-134 22-160 1zm238-52c105-20 112-23 112-45 0-16-13-32-45-54-25-17-45-36-45-43 0-6 29-39 65-74 249-238 636-164 791 152 36 75 41 80 74 83 108 11 61-164-87-319-261-273-677-257-922 36l-24 28-43-46c-71-76-78-66-94 141-16 197-32 186 218 141z"/><path d="m2187 1073c-3-5-12-37-21-73-24-96-84-260-96-260-3 0-14-17-25-37-11-21-22-40-25-43s-17-23-32-46c-30-47-178-197-186-189-3 2-11-4-19-15s-21-20-29-20-14-4-14-10c0-5-11-12-25-16-14-3-25-9-25-13 0-6-23-17-95-46-64-25-97-34-112-28-11 4-14 2-9-5 5-8-4-12-28-12-19 0-38-5-41-10-4-7-40-10-86-9-88 2-115-9-87-37 14-14 27-15 114-4 55 6 114 12 132 13 17 1 32 5 32 10 0 4 16 7 35 7s35 5 35 10c0 6 9 10 19 10 11 0 23 5 26 11 4 6 13 8 21 5s14-1 14 4c0 6 6 10 13 10 6 0 23 9 36 19 14 10 31 16 40 13s12-1 7 6c-4 7-2 12 5 12s27 11 46 26c18 14 33 23 33 20s42 36 93 87c52 50 92 94 90 96-2 3 6 14 16 25 27 29 124 220 141 279 8 26 17 47 20 47s6 12 7 28c0 15 6 47 11 71 5 25 8 51 5 58-6 14-29 18-36 6zm-72-318c-15-31-29-54-32-51s7 30 23 60c37 71 43 65 9-9zm-238-321c-15-13-33-24-40-24s4 14 23 29c42 35 57 30 17-5zm-142-94c-8-13-66-43-71-37-3 3 12 14 33 25 45 25 46 25 38 12z"/></g></svg>
