<svg fill-rule="evenodd" stroke-linecap="round" stroke-linejoin="round" viewBox="0 0 256 256" xmlns="http://www.w3.org/2000/svg"><g transform="translate(0 256) scale(.1 -.1)" fill="currentColor"><path d="m1485 2350c-3-5-17-10-31-10-42 0-144-78-144-110 0-6-4-10-9-10s-11-18-15-40c-7-42-27-60-70-60-14 0-26-5-26-11 0-5-4-7-10-4-5 3-10 2-10-3 0-13 25-22 65-22 36 0 49-11 59-53 12-49 81-114 141-132 160-46 290 35 311 195 12 94-47 210-122 237-97 35-128 40-139 23zm78-51c99-27 167-144 137-234-51-155-256-185-344-50-10 15-20 54-23 85-13 139 99 236 230 199z"/><path d="m1e3 2122c20-7 12-10-40-15-77-7-100-14-100-32 0-24 17-26 106-14 108 15 133 51 44 64-27 4-29 3-10-3z"/><path d="m675 2054c-77-22-125-46-125-60 0-25 39-25 101 1 34 14 71 25 81 25 13 0 18 7 18 25 0 28-6 29-75 9z"/><path d="m403 1927c-6-7-27-27-47-46-19-18-41-46-48-61-7-16-16-26-20-24-14 9-9-7 7-22 14-15 57-11 53 4-3 10 45 82 55 82 22 0 58 51 47 65-15 18-31 19-47 2zm-45-92c-17-25-34-43-36-40-4 4 56 85 64 85 2 0-11-20-28-45z"/><path d="m1205 1693c-50-12-95-82-95-147 0-38 25-159 40-191 5-11 11-33 13-50 6-37 26-113 37-140 16-42 31-125 24-136-4-7-3-9 3-6 6 4 13-6 17-23 22-107 26-103-60-60-57 30-174 41-174 18 0-5-5-8-10-8-14 0-60-46-60-60 0-5-4-10-10-10-5 0-10-17-10-37 0-28-3-34-10-23s-10 6-9-20c0-29 2-31 9-15s9 13 9-17c1-21 6-38 11-38 6 0 10-6 10-14s19-29 42-48c66-51 90-71 115-95 13-13 27-23 31-23s23-15 42-33 49-42 67-52 30-22 27-27c-3-4 2-8 10-8s26-11 40-25 27-25 30-25 33-21 67-47c33-27 77-57 97-68 21-11 39-23 42-26s32-13 66-22c117-33 264-17 409 43 26 11 49 18 55 17s48 34 94 78c96 92 125 173 133 369 3 69 0 113-6 119s-11 24-11 41c0 27-7 58-42 191-6 22-15 52-20 67-6 16-8 39-6 53 3 13 1 22-3 19-5-3-9 4-9 16 0 11-5 26-10 33-6 7-18 21-28 32-46 54-115 70-174 39-29-15-31-15-57 9-48 46-138 54-197 17-19-12-25-10-56 13-42 32-132 38-173 11-24-16-25-15-35 11-5 14-10 32-10 40s-4 16-9 19-11 20-14 38c-27 172-103 235-242 201zm141-75c26-26 37-53 58-133 14-55 35-134 47-175s22-87 23-102c1-16 4-28 8-28s10-16 14-35c5-26 11-35 26-35 17 0 19 4 14 28-4 15-11 45-15 67-5 22-12 48-16 57-8 20 29 78 51 78 8 0 14 5 14 10 0 22 61 9 93-20 27-24 36-44 51-110 15-65 22-80 37-80 20 0 27 34 10 45-6 3-13 26-17 51-7 50 22 99 54 87 10-4 13-2 8 5-15 25 52 12 83-15 29-27 60-98 61-138 0-11 7-28 14-37 12-17 14-17 31 2 10 11 13 20 8 20-12 0-22 65-15 93 2 9 11 17 19 17s12 4 9 9c-5 8 35 31 55 31 24 0 88-66 95-98 13-57 35-148 44-177 39-128 61-288 50-368-11-85-38-177-52-177-4 0-8-7-8-16 0-20-125-144-145-144-8 0-15-4-15-8 0-12-68-34-81-26-7 4-9 3-6-3 4-6-5-14-21-17-164-40-207-43-284-15-35 12-66 27-70 33s-11 10-15 9c-17-4-73 30-66 40 3 5 1 7-4 4-6-4-24 7-42 23-17 17-34 30-38 30-5 0-24 14-43 30-52 45-53 45-108 85-29 20-52 41-52 46s-4 8-9 6c-5-1-23 10-40 26-17 15-31 25-31 22 0-6-34 22-103 86-45 41-50 50-55 97-4 49-3 53 32 88s39 36 88 32c29-3 54-11 56-17s10-11 18-11 14-4 14-9 10-11 23-15c12-3 31-14 42-24s27-21 35-25 23-13 33-19c22-16 43 8 25 29-5 7-8 25-5 40 4 16 3 21 0 13-4-9-14 17-24 60-9 41-24 102-34 135-9 33-21 76-26 95-30 126-53 208-62 227-5 12-7 29-3 38 3 9 2 13-4 10s-10 3-10 14-5 31-11 45c-13 28-6 68 17 90 8 9 12 16 8 16-10 0 28 35 46 43 32 13 84-3 116-35zm419-284c-11-8-25-21-31-29-10-13-14-12-27 9-15 22-15 24 3 19 10-3 27 0 37 6 27 16 41 13 18-5zm-461-466c9-36 7-41-9-28s-21 50-6 50c5 0 11-10 15-22zm-204-253c56-43 92-79 59-60-24 15-130 105-124 105 4 0 33-20 65-45zm327-259c10-11-10 2-44 29-35 26-63 50-63 52 0 7 89-60 107-81z"/><path d="m257 1633c-10-9-8-81 2-87 4-3 11-24 14-47 6-47 32-72 58-56 15 10 15 13-2 51-10 23-19 62-19 87 0 50-28 77-53 52z"/><path d="m391 1334c-7-8-10-18-7-21 3-4 6-4 6-1 0 2 23-18 52-45 54-51 84-68 106-60 24 10 3 63-25 63-4 0-19 10-33 23-29 27-72 57-80 57-3-1-11-8-19-16z"/><path d="m662 1153c-11-19 7-43 32-43 9 0 16-4 16-9s10-11 23-14c12-3 37-11 55-18 28-12 34-12 42 1 12 20 9 23-70 64-80 41-86 42-98 19zm148-65c0-8-70 19-85 33-5 6 12 2 38-8 26-9 47-21 47-25z"/></g></svg>
