<svg fill-rule="evenodd" stroke-linecap="round" stroke-linejoin="round" viewBox="0 0 256 256" xmlns="http://www.w3.org/2000/svg"><g transform="translate(0 256) scale(.1 -.1)" fill="currentColor"><path d="m494 2109c-3-6-17-9-30-6-13 2-24 0-24-4 0-5-5-9-10-9-16 0-38-20-105-94-6-6-19-30-30-53-11-24-23-43-26-43-4 0-10-21-13-47-4-27-11-59-16-73-12-31-28-270-18-264 4 3 5-2 2-10-3-9-10-16-15-16s-9-60-9-134c0-132 1-135 25-154l25-20v-312c0-347 2-361 65-400 49-30 1875-32 1926-1 65 40 64 33 67 390l3 325 25 21c23 20 24 25 24 153 0 89-4 132-11 132s-10 33-7 104c1 57 0 102-4 99-5-2-8 14-8 36s-4 42-9 45c-4 3-11 25-13 48-9 80-111 248-151 248-5 0 7-18 27-40 49-54 46-61-3-9-23 23-37 47-34 55 3 10-5 16-26 20-17 4-34 11-37 15-8 14-1581 12-1590-2zm1437-9c20 0 27-4 23-14-4-11 10-15 64-18 159-9 258-162 269-418 5-102 8-118 30-144 30-36 23-45-13-17-15 11-23 22-18 23s-45 4-111 8l-120 5-6 130c-10 186-31 281-85 373-19 32-29 41-37 33s-16-6-30 7c-28 25-1129 32-1177 7-17-9-30-11-30-6s-10 13-22 18c-22 8 1096 23 1191 16 24-2 57-3 72-3zm-1281-44c0-7-6-19-14-25-45-37-104-245-114-405l-7-101-245-6v89c0 203 83 391 195 443 50 23 185 27 185 5zm1245-20c62-81 108-271 103-421l-3-90-288-3c-255-2-291 0-320 15-42 22-156 22-217 0-38-14-90-17-319-17h-273l4 121c3 101 2 118-9 103-7-10-13-27-13-38 0-10-3-17-6-14-10 11 8 127 23 145 13 16 14 14 8-22-9-58 8-33 35 49 25 77 54 132 93 176l27 30h565 564l26-34zm137-281c3-59-1-169-7-163-7 7-23 201-17 211 9 17 21-9 24-48zm-888-260c-10-8-23-15-27-15-5 0-17-10-28-22-10-13-18-18-19-13 0 15 12 29 40 48 31 22 63 24 34 2zm246-17c99-42 151-121 158-239 19-314-349-438-505-172-51 87-43 238 16 320 82 113 204 146 331 91zm-343-14c3-8-3-25-13-37-28-32-41-58-48-97-4-19-14-50-22-67l-15-33h-340c-282 0-343 2-355 14-20 21-20 212 0 223 8 4 188 9 401 10 337 2 387 0 392-13zm1260 0c17-17 18-205 1-222-9-9-103-12-360-12-342 0-348 0-348 20 0 11-4 28-10 38-5 9-14 36-20 60-6 23-25 58-42 78-26 29-29 37-17 45 24 15 780 9 796-7zm-2e3 -254c5 0 9-4 9-10 0-16-26-12-41 7-12 15-12 16 4 10 10-4 23-7 28-7zm309-10c0-10-19-14-52-11-9 1-20-3-24-10s-3-10 2-7c8 5 10-196 6-553l-2-116-61-7c-70-8-121 5-142 37-15 23-34 607-21 641 5 13 25 16 109 16 59 0 107 4 110 10s22 10 41 10 34-4 34-10zm1460 2c0-5 46-10 102-11s106-5 110-7c17-11 9-593-8-630-24-49-61-66-142-62l-67 3-1 275c-2 393-3 412-14 405-5-3-11-21-11-38l-2-32-4 30c-7 48-29 65-85 63-27 0-52 2-55 6-3 3 35 6 85 6 51 0 92-4 92-8zm-1102-21c6-1 12-12 12-26s9-48 19-75c82-216 358-279 522-119 50 49 99 139 99 182 0 40 12 42 204 39l186-3v-339-340h-705-705v339c0 223 4 340 10 343 9 2 317 2 358-1zm1072-427c0-83-4-134-10-134s-10 54-10 141c0 91 4 138 10 134s10-62 10-141z"/><path d="m1215 1335c-33-32-35-103-5-130 16-14 20-31 20-80 0-70 12-88 57-83 27 3 28 5 33 73 4 55 10 75 28 93 32 32 30 91-4 126-36 35-95 36-129 1zm106-119c-12-12-21-34-21-49 0-40-32-36-46 6-6 17-14 40-18 49-6 13-3 15 14 11 13-4 26 0 31 8 8 12 10 12 18 1 7-12 11-11 22 1 8 8 16 11 18 5 2-5-6-20-18-32z"/></g></svg>
