<svg fill-rule="evenodd" stroke-linecap="round" stroke-linejoin="round" viewBox="0 0 256 256" xmlns="http://www.w3.org/2000/svg"><g transform="translate(0 256) scale(.1 -.1)" fill="currentColor"><path d="m800 2319c-14-6-38-15-55-19-16-5-54-18-84-29s-58-18-62-15c-5 3-9 1-9-4s-10-12-22-15c-13-3-69-22-126-42-56-20-107-33-112-30-6 3-10 1-10-4 0-6-7-11-16-11-14 0-44-27-84-76-13-16-15-122-15-819v-800l23-33c63-87 141-82 457 33 170 62 185 66 197 59 7-4 8-3 4 4-5 8 4 12 28 12 20 0 36-5 36-11 0-5 4-8 9-5 12 8 141-44 141-56 0-5 9-8 20-8s20-4 20-10c0-5 7-7 15-4 8 4 15 1 15-5s5-11 12-11c6 0 38-13 72-28 34-16 96-44 139-62 42-19 77-38 77-42 0-5 5-6 11-2 6 3 14 2 18-3 15-23 182-75 224-70 50 6 125 25 149 37 9 6 35 13 57 16 23 4 38 10 35 15s3 9 14 9c10 0 50 10 88 21 229 70 249 81 284 154 19 40 20 61 20 796 0 521-4 766-11 794-10 37-23 53-75 95-31 25-126 18-224-17-364-128-386-133-477-97-39 15-69 32-66 37 3 4-1 7-8 6-17-3-39 6-155 62-49 24-91 47-92 51-2 5-7 6-11 4-3-2-29 6-56 20-28 13-56 24-62 24-7 0-13 5-13 11 0 5-5 7-10 4-6-3-13 0-16 9-3 8-12 12-20 9s-14 0-14 6-3 10-7 9c-5-1-26 7-48 17-47 21-169 30-205 14zm18-24c-6-6-175-65-185-65-18 0 15 15 89 41 81 28 107 34 96 24zm147-38c17-6 86-37 155-69 69-33 134-63 145-68s70-32 130-61c206-97 213-99 272-99 50 0 96 11 168 40 11 5 88 30 170 57 159 51 239 61 266 33 40-43 40-40 41-750 1-916 4-843-36-885-19-19-43-35-55-35-11 0-21-4-21-9s-20-12-45-15c-24-4-47-11-50-16s-26-12-50-16c-25-3-45-10-45-13 0-4-19-12-42-18-24-6-68-19-98-28-30-10-65-18-77-19-13 0-23-5-23-10 0-23-128 2-213 42-48 23-99 45-112 48-14 3-25 10-25 14s-11 11-25 14c-13 3-63 24-110 46s-90 40-96 40c-5 0-9 4-9 10 0 5-7 7-15 4-8-4-15-1-15 5s-6 11-12 11c-7 0-40 14-73 31-96 49-158 50-291 5-60-21-117-42-127-47s-22-7-27-4c-4 3-10 1-12-3-3-8-143-56-163-57-5 0-13-4-17-10-12-17-108-8-130 12-49 44-48 23-48 817 0 889-13 813 150 869 41 14 134 47 205 72 72 26 152 53 179 60 26 8 51 16 54 20 8 8 89-3 127-18zm115-13c36-19 54-32 40-28-30 8-120 52-120 59 0 10 16 4 80-31zm-595-64c-7-11-166-63-173-56-3 3 3 9 13 12 14 6 149 50 163 53 2 1 0-3-3-9zm1815-67c18-17 32-42 36-63l5-35-19 41c-14 29-32 47-63 62-40 20-41 22-17 22 16 0 40-12 58-27zm-884-23c80-37 120-66 52-36-94 41-148 66-148 71 0 9 10 5 96-35zm609 1c-15-14-225-83-239-78-6 2 45 23 114 45 142 46 137 45 125 33zm-426-84c30-12 49-23 42-25-6-2-39 10-74 27-66 33-57 32 32-2zm-1372-139c-2-18-4-4-4 32s2 50 4 33c2-18 2-48 0-65zm2120-385c-2-16-4-5-4 22 0 28 2 40 4 28 2-13 2-35 0-50zm0-486c-2-23-3-1-3 48 0 50 1 68 3 42s2-67 0-90zm-2120-334c-2-16-4-3-4 27s2 43 4 28c2-16 2-40 0-55zm879-164c36-17 64-33 61-36-3-2-38 11-79 30-40 20-67 36-60 36 7 1 42-13 78-30zm-812-92c7-6 6-7-4-4-16 4-60 63-60 80 0 5 12-8 26-29 15-21 32-43 38-47zm381 68c-16-8-37-14-45-14s-1 7 15 14c17 8 37 14 45 14s2-7-15-14zm1655-12c-2-27-78-83-112-82-18 0-14 5 18 19 23 10 50 30 60 44 19 25 34 34 34 19zm-275-132c-6-5-26-12-45-15-35-7-35-7-10 8 27 17 70 22 55 7zm-474-48c30-14 83-30 119-34l65-7-65 2c-59 2-180 43-180 61 0 8 2 7 61-22z"/><path d="m675 1833c-176-63-200-314-37-397 33-17 38-25 24-42-16-17-54-133-47-143 12-20 35-11 45 17 6 15 15 36 20 47s16 37 24 57c13 34 18 37 45 34 17-2 28 0 26 4-3 4 12 10 32 13 26 5 49 19 77 50 54 57 69 61 117 36 39-20 41-20 54-2 15 21 8 27-60 53-39 15-40 17-46 75-8 78-20 105-64 148-61 60-135 77-210 50zm153-33c17-11 32-23 32-26 0-4-7-1-15 6s-32 18-52 26c-23 8-30 13-18 14 11 0 35-9 53-20zm-12-31c121-75 99-255-38-298-73-24-160 27-187 108-45 136 105 264 225 190zm13-314c-17-17-121-37-144-28-30 11-14 18 33 15 28-2 62 3 83 11 44 20 46 20 28 2z"/><path d="m1855 1698c-36-13-93-72-101-104-3-13-9-22-13-20-8 5-6-78 3-132 11-58 78-130 130-139 21-3 44-15 55-29l18-22 17 23c9 12 29 25 44 28 69 15 142 112 142 189 0 61-11 119-21 112-5-3-9 0-9 7 0 10-48 72-60 76-3 1-18 6-33 12-35 14-132 13-172-1zm216-57c22-21 39-44 39-51 0-6-12 3-27 21-15 17-41 40-58 50-22 14-25 19-11 19 10 0 36-17 57-39zm-42-8c48-35 76-108 62-162-36-137-206-166-276-46-81 138 86 301 214 208zm-222-242 27-35-27 19c-26 20-48 71-46 110 1 11 5 2 10-19 5-22 22-56 36-75zm260-28c-32-35-124-70-140-54-8 8-3 11 16 11 30 0 77 21 116 51 35 27 39 23 8-8z"/><path d="m1130 1425c-10-12-6-24 19-65 17-28 31-54 31-59 0-4 9-19 21-32 17-19 22-21 29-9 14 21 13 24-20 95-33 70-60 94-80 70z"/><path d="m1937 1164c-4-4-7-35-7-68 0-34-4-67-9-75-14-22 15-47 35-30 11 9 14 30 12 92-3 74-13 99-31 81z"/><path d="m1253 1135c-3-10-1-26 5-36 7-10 12-26 12-34 0-48 57-114 74-86 5 7-28 100-53 150-11 22-30 25-38 6z"/><path d="m572 1118c-7-7-12-21-12-32 0-16-3-17-9-8s-8 5-8-15c-1-15-4-47-8-70-9-52 9-86 30-56 7 10 15 34 18 53s10 54 16 78c15 56 2 79-27 50z"/><path d="m1905 877c-11-7-38-19-61-25-44-13-77-42-109-99-19-35-23-37-63-35-36 3-42 1-42-16 0-21 21-34 58-36 18-1 27-10 37-38 7-21 10-38 7-38-4 0 15-20 41-45 30-28 57-45 73-45 13 0 24-3 24-7 0-5 14-8 30-9 17-1 30 3 30 7 0 5 11 9 25 9 35 0 101 66 114 115 11 44 11 150-1 132-5-7-8-4-8 9 0 11-9 29-20 39s-17 22-13 28c3 5 2 7-4 4-5-4-19 2-30 13-12 10-23 16-26 14-3-3-10 4-17 15-13 25-19 26-45 8zm110-82c14-14 25-31 25-38-1-7-10-1-21 13s-28 31-37 38c-9 6-11 12-4 12 6 0 23-11 37-25zm-56-3c108-58 81-221-40-247-66-15-144 56-144 130 0 97 101 161 184 117z"/><path d="m1386 863c-5-11 10-32 48-70 58-55 96-69 96-33 0 11-5 20-11 20-5 0-7 5-4 10 3 6-1 10-10 10s-33 18-54 40c-40 44-55 49-65 23z"/><path d="m512 798c-7-7-12-40-12-80 0-61 2-68 20-68 17 0 20 7 22 55 1 30 2 65 2 77 1 25-15 33-32 16z"/></g></svg>
