<svg fill-rule="evenodd" stroke-linecap="round" stroke-linejoin="round" viewBox="0 0 256 256" xmlns="http://www.w3.org/2000/svg"><g transform="translate(0 256) scale(.1 -.1)" fill="var(--icon-white, #FFFFFF)"><path d="m2260 895c-17-18-20-28-12-37 6-8 11-85 11-203l2-190 29-30 30-30v218c0 138-4 217-10 217-5 0-10 15-10 34 0 45-12 51-40 21z"/><path d="m1816 242c-260-2-286-7-286-49 0-19 535-20 544 0 5 10 7 10 12 0 3-7 16-13 29-13s26 6 29 13c5 10 7 10 12 0 3-7 13-13 22-13 11 0 6 10-18 35-26 27-41 34-64 32-17-1-143-3-280-5z"/></g><g transform="translate(0 256) scale(.1 -.1)" fill="var(--icon-coral, #FF8A65)"><path d="m1477 910-43-39 2-312c2-299 2-312 22-332s30-20 326-18c273 2 306 1 306-13 0-19 46-22 54-3 5 9 7 9 12 0 20-44 144 38 144 94 0 13 5 23 12 23 6 0 4 7-5 18-15 16-17 51-17 279v260l-45 42-45 41h-340-340l-43-40z"/></g><g transform="translate(0 256) scale(.1 -.1)" fill="var(--icon-yellow, #FFD85A)"><path d="m444 939c-24-25-27-32-16-49 21-34 17-497-4-479-15 12-16 6-13-66 5-89 37-145 86-145 12 0 23-6 23-12 1-7 9-3 19 10 19 21 25 22 186 22 108 0 164-3 160-10-3-5 3-10 14-10 12 0 21-4 21-10s30-10 69-10 73 5 76 10c3 6 23 10 43 10 71 0 70-2 72 362l1 323-78 76-306-1c-168-1-310 1-315 4s-22-8-38-25z"/></g><g transform="translate(0 256) scale(.1 -.1)" fill="var(--icon-blue, #5EC8F8)"><path d="m650 2370c0-5-12-10-26-10-25 0-94-27-104-41-3-3-16-10-30-14-37-10-168-143-175-177-4-15-10-28-15-28-11 0-25-44-36-112-3-21-10-38-15-38s-9-40-9-90c0-53 4-90 10-90s10-15 10-34 5-38 10-41c6-4 8-10 5-15-5-8 11-46 25-60 8-8 29-44 39-65 5-11 21-31 35-44l27-25 26 26c23 23 25 29 13 43-15 18-34 49-46 75-4 8-10 17-13 20-18 15-33 59-38 107-3 29-10 56-14 59-12 7-12 104 0 104 4 0 11 24 14 53s15 68 26 87 24 42 28 50c9 19 94 104 113 113 8 4 29 16 47 27 17 10 48 22 67 26 20 3 39 10 42 15 6 11 178 12 188 2 19-19 85-31 97-17 6 8 8 14 4 14-5 0-1 8 9 19 23 25 4 40-63 48-28 3-51 10-51 14 0 5-45 9-100 9-60 0-100-4-100-10z"/><path d="m1090 2224c-22-26-16-72 13-102 15-16 27-33 27-40s5-12 10-12c6 0 10-9 10-19 0-11 5-21 11-23s14-45 18-101l6-98 34 35c42 43 53 114 27 167-9 17-16 40-16 49 0 10-7 20-15 24-8 3-15 12-15 19 0 8-9 22-20 32s-20 23-20 30c0 11-41 55-52 55-3 0-11-7-18-16z"/><path d="m712 2118c-8-8-12-46-12-105v-93l-72-1c-40-1-77-1-82 0-14 3-56-41-56-59 0-32 22-40 117-40h93v-93c0-85 2-96 23-115 53-50 77-15 77 111v97h98c94 0 97 1 109 25 9 21 8 28-12 47-27 26-22 25-120 27l-75 1v93c0 101-7 117-50 117-14 0-31-5-38-12z"/><path d="m1202 1627-42-43v-287-287l72-80h308 307l42 45 41 45v280 280l-41 45-42 45h-301-302l-42-43z"/></g><g transform="translate(0 256) scale(.1 -.1)" fill="var(--icon-green, #66DDAA)"><path d="m1900 1636c-8-11-11-83-10-253l1-238 70-70-1 252c-1 203-4 258-16 283-19 38-29 43-44 26z"/><path d="m2273 848c-23-24-23-29-23-279v-256l50-46v21c0 12 5 22 10 22 6 0 10 95 10 265 0 156-4 265-9 265s-11 7-13 16c-2 13-7 11-25-8z"/><path d="m1417 823c-11-11-8-543 3-543 6 0 10-6 10-13 0-21 54-67 78-67 12 0 22-4 22-10 0-16 537-13 544 3 5 9 7 9 12-1 3-6 10-9 16-6 5 4-3 19-18 35l-28 30-271-1c-265-1-270-1-287 20-16 20-18 48-18 264v242l-28 27c-16 15-31 24-35 20z"/></g><g transform="translate(0 256) scale(.1 -.1)" fill="var(--icon-purple, #BFA7FF)"><path d="m900 2344c-7-8-9-14-4-14 4 0-3-11-16-25-19-21-21-25-7-25 22 0 97-33 97-42 0-5 6-8 13-8 8 0 22-10 33-21 10-12 29-25 42-30 12-5 22-15 22-24 0-21 8-19 47 11l35 26-33 34c-18 19-38 34-44 34-7 0-20 9-30 20s-24 20-31 20-17 6-21 13c-8 12-41 30-75 40-9 3-22-1-28-9z"/><path d="m750 2115c-9-10-12-46-11-108 2-84 4-94 28-119 26-27 26-28 8-48l-18-20-47 44-22-22c-19-19-20-22-5-22s17-12 17-93c0-85 2-96 23-115 53-50 77-15 77 111 0 83 2 97 16 97s14 3 4 15c-11 13-5 15 41 15 44 0 58 5 81 27 27 26 36 44 21 42-5-1-43-1-85 0l-78 1v93c0 107-17 142-50 102z"/><path d="m381 1562-32-27 44-44c44-43 76-65 110-77 9-3 17-10 17-15s11-9 25-9 25-4 25-9 25-13 55-16c30-4 58-11 61-16 7-12 134-12 134 0 0 5 25 12 56 16 41 5 53 10 45 18s-5 17 11 34c26 28 9 64-20 41-39-33-362-10-362 24 0 5-6 8-13 8-8 0-22 9-32 20s-24 20-31 20-23 13-37 29l-24 30-32-27z"/><path d="m502 978c-9-9-7-17 10-35 21-23 25-23 243-23h221l27 28c15 16 24 31 20 35-12 13-508 8-521-5z"/><path d="m1167 882c-14-16-17-43-17-183v-165l60-58-2 209c-3 214-7 234-41 197z"/></g><g transform="translate(0 256) scale(.1 -.1)" fill="var(--icon-orange, #FFB84D)"><path d="m434 929c-18-20-19-42-22-317l-3-296 26 24c19 18 28 21 37 12s18-6 40 15l28 27v241 241l-38 37c-44 43-43 43-68 16z"/><path d="m526 291c-19-20-24-31-16-36s5-14-11-31l-22-24h21c12 0 22-4 22-10 0-14 28-12 32 3 4 9 49 13 169 15 161 4 164 4 192 30l27 26-54 56h-166-166l-28-29z"/></g><g transform="translate(0 256) scale(.1 -.1)" fill="var(--icon-skin, #F0D8C0)"><path d="m1130 1e3c0-4 5-13 12-20 17-17 0-28-22-14-31 19-587 17-627-3-50-25-70-52-51-71 14-14 20-14 59 7 43 21 49 22 319 17 225-4 281-8 306-21 31-16 32-15 63 17l31 32-33 32c-31 30-57 41-57 24z"/></g><g transform="translate(0 256) scale(.1 -.1)" fill="var(--icon-slate, #606078)"><path d="m1224 2e3c-34-39-43-70-47-168-4-94-40-200-68-200-5 0-9-6-9-13 0-34-138-134-223-161-10-3-15-11-12-17 4-6-6-24-21-41l-29-31 55 7c30 4 57 11 58 17 2 5 12 9 21 9 24 0 81 29 81 41 0 5 5 9 12 9s29 17 50 37l38 37v-255c0-183 3-258 12-267 17-17 0-28-22-14-11 7-20 8-20 3 0-6 5-13 10-16 6-4 8-11 4-16-3-5-1-16 5-23 8-9 4-19-14-36l-25-23v-282-282l25-23c17-16 22-27 15-34-6-6-4-16 7-28 15-17 17-16 47 15l31 32 3 308c2 229 0 313-9 323-8 10-9 18-2 25 8 8 13 7 17 0 5-7 47-11 112-11 94 0 122-7 94-25-17-10-13-605 3-605 42 0 47 28 47 246 0 254 7 349 26 334 8-7 129-11 356-10 285 0 347-2 363-14 18-13 22-13 37 0 11 10 18 12 23 5 13-23 25-9 25 29 0 27-5 43-15 46-8 4-15 12-15 20 0 26-40 34-184 34-131 0-166 6-137 24 13 8 14 183 1 191-7 5-10 74-9 215 1 233-5 265-53 276-16 3-28 10-28 15s-126 9-304 9c-302 0-336 4-307 33 6 6 11 24 11 39s5 28 10 28c6 0 10 28 10 65s-4 65-10 65c-5 0-10 18-10 40 0 46-8 50-36 18zm606-688v-270h-285-285v270 270h285 285v-270z"/></g><g transform="translate(0 256) scale(.1 -.1)" fill="var(--icon-stroke, #24324B)"><path d="m627 2349c-10-6-25-8-33-5s-14 1-14-4c0-6-9-10-20-10s-20-4-20-9c0-7-34-23-50-23-8 0-166-162-169-173-1-5-8-23-15-40-66-150-59-337 15-475 50-93 208-220 273-220 9 0 16-3 16-7 0-11 51-17 140-17 94 1 149 7 143 17-2 4 5 7 17 7 33 0 133 57 176 100 65 66 64 70 64-229v-268l65-68 113-1c125-1 130-3 114-39-8-18-12-114-12-306 0-410-36-379 432-379 254 0 347 3 356 12 7 7 12 8 12 3s13 4 30 20c16 15 27 32 24 36-2 4 0 10 6 14s10 106 10 283c0 397 3 392-234 392-120 0-146 3-146 14 0 8 5 18 10 21 15 9 13 608-2 623-7 7-9 12-5 12s-3 10-15 23c-23 22-26 22-356 25l-333 3 7 22c36 111 40 172 18 273-9 46-20 84-24 84-5 0-11 12-14 26-4 14-15 35-26 46-11 12-18 24-17 27 2 3-21 29-50 57s-53 50-53 47c0-2-10 5-21 16-48 44-181 81-292 81-56 0-110-5-120-11zm222-40c53-16 141-60 141-70 0-5 6-9 13-9 17 0 77-55 77-70 0-8 3-10 6-7 8 7 44-36 44-52 0-6 5-11 10-11 6 0 10-7 10-15s4-15 8-15c13 0 32-69 25-88-5-10-3-13 6-8 10 7 12-16 9-105-3-105-6-119-36-184-84-173-268-280-452-260-58 6-137 30-150 44-3 3-18 13-34 21-99 51-190 187-208 310-12 80-3 204 15 193 6-4 8 0 4 10-11 28 37 117 97 185 93 103 297 167 415 131zm1e3 -705c34-39 35-574 0-611l-21-23h-305c-270 0-308 2-324 17-17 15-18 38-18 313v298l24 16c26 17 306 27 521 18 91-3 102-6 123-28zm351-711c20-17 21-26 22-306 1-261-1-290-17-308-26-29-691-30-718 0-15 17-18 51-20 302-3 275-3 285 17 307s21 22 358 22c306 0 339-2 358-17z"/><path d="m485 951c-65-40-63-28-64-376-2-219 1-315 8-310 10 5 15-7 9-20-2-2 15-14 37-25 37-19 58-20 331-20 422 0 389-32 389 385 0 418 33 385-387 385-269 0-295-2-323-19zm639-63c24-33 24-573 0-606-15-22-17-22-313-22-272 0-299 2-314 18-26 29-29 582-3 611 31 34 607 32 630-1z"/></g></svg>
