<svg fill-rule="evenodd" stroke-linecap="round" stroke-linejoin="round" viewBox="0 0 256 256" xmlns="http://www.w3.org/2000/svg"><g transform="translate(0 256) scale(.1 -.1)" fill="var(--icon-coral, #FF8A65)"><path d="m1206 2371c-3-4-19-11-36-15-17-3-42-18-56-33-19-20-27-24-36-15-32 32-138-3-184-62-38-48-37-141 3-188 10-11 11-18 3-23-5-3-8-11-4-16 3-5 0-17-7-25-13-16-122-11-144 7-16 12-265 11-265-1 0-6-9-10-20-10-20 0-88-32-99-47-3-4-15-13-26-19-30-17-68-94-54-111 8-9 15-10 24-3 8 6 15 6 23-2 9-9 12-8 12 5 0 9 3 17 8 17 4 0 12 10 17 23 6 12 20 26 33 32 12 5 22 13 22 17s16 10 35 14c19 3 38 10 41 15 6 11 238 12 248 2 4-5 29-13 54-18l47-11-2-54c-2-30-8-65-14-77-18-33-4-61 19-39 14 12 21 13 30 4s12-7 12 10c0 12 4 22 9 22s11 23 15 50c8 58 20 67 62 45 16-8 35-15 42-15s20-4 30-9c9-5 38-18 65-31 46-21 61-40 32-40-8 0-15-4-15-10 0-5-7-10-17-10-14 0-14-2 2-20 21-23 48-19 83 14 13 11 31 21 40 21 10 0 58 20 107 44 139 66 155 72 208 76 21 2 37-1 37-7s9-3 20 7c14 13 17 22 10 29-18 18-11 21 40 22 48 0 110 38 110 66 0 12-64 10-77-3-15-15-58-7-58 11 0 8-3 20-7 25-3 6-9 25-13 43-3 17-10 32-15 32s-11 14-15 30c-4 17-10 30-15 30-4 0-11 11-14 25-9 35-132 155-167 162-16 3-32 10-35 14-3 5-36 9-74 9s-71-4-74-9zm134-71c0-5 8-10 19-10 29 0 141-119 141-150 0-5 4-10 9-10s12-13 16-30c4-16 10-30 15-30 4 0 11-20 14-45 4-25 11-45 17-45 22 0 6-19-21-25-16-4-30-10-30-15 0-4-20-11-45-14-25-4-45-11-45-16s-14-11-30-15c-17-4-56-20-87-37-54-29-123-34-123-8 0 4-13 11-30 15-16 4-30 11-30 16s-7 9-16 9c-15 0-29 5-126 48-35 16-52 42-28 42 6 0 10 7 10 16 0 10 5 12 12 7 38-23 130 9 173 60 39 45 48 114 20 151-40 53 3 94 103 95 35 1 62-3 62-9z"/></g><g transform="translate(0 256) scale(.1 -.1)" fill="var(--icon-blue, #5EC8F8)"><path d="m1750 2e3c-51-5-77-20-61-36 7-7 6-16-5-29-23-25 7-36 43-17 42 23 267 19 318-5 85-40 115-93 115-203 0-42-4-73-10-73-5 0-10-8-10-19 0-12-14-25-37-36-48-22-93-64-93-86 0-10-5-21-11-24-6-4-9-33-8-68 4-88-15-97-78-35-51 49-87 66-98 48-4-7 5-25 21-41 15-16 24-32 21-36-4-4 7-22 25-40l32-33-20-22c-47-53-14-111 36-63 28 27 60 29 60 4 0-6 10-21 23-33 29-29 67-82 67-96 0-5 5-10 10-10 6 0 10-6 10-14 0-7 6-19 14-25 8-7 17-27 20-46 4-19 11-35 16-35 6 0 10-7 10-16 0-8 5-12 11-9 6 4 21-3 34-15 12-12 25-18 28-13 7 12-4 83-13 83-5 0-11 14-15 30-4 17-11 30-17 30s-8 3-5 7c4 3-4 21-18 39s-25 36-25 41-20 31-45 60c-25 28-45 56-45 62 0 7-7 14-15 17-20 8-19 28 1 45 14 11 21 10 46-4 105-60 238 26 238 155 0 47-3 52-56 106-31 31-52 58-45 60 21 7 14 201-9 247-23 45-68 95-86 95-6 0-14 7-18 15-3 8-16 15-30 15-13 0-26 5-28 11-4 13-213 21-298 12z"/></g><g transform="translate(0 256) scale(.1 -.1)" fill="var(--icon-green, #66DDAA)"><path d="m421 1186c-26-28-36-43-78-126-15-30-31-57-34-60-4-3-10-25-14-50s-11-49-15-55c-4-5-10-50-12-99-3-56-9-91-16-94-18-6-14-89 6-120 41-64 87-92 152-92 27 0 50 5 50 10 0 6 6 10 14 10 7 0 19 7 26 15 14 17 75 20 85 5 8-12 55-13 55-1 0 4 37 11 82 15s87 10 92 15c23 18 66 22 66 6 0-8 5-15 11-15 5 0 8-4 4-9-3-5-1-12 4-15 4-3 11-19 15-36 9-47 30-64 50-41 18 20 21 47 5 57-6 4-8 20-4 40 3 21 2 34-5 34-19 0-10 17 16 29l27 12-23 25-24 24-30-27c-17-15-25-21-18-13 19 23 14 47-19 85-39 44-47 39-41-25 4-44 2-50-15-50-10 0-24-5-30-11-7-7-57-12-124-13l-114-1 3 36c2 21-1 40-7 44-6 3-11 15-11 25s-21 37-46 59c-41 36-53 41-95 41-27 0-49-4-49-10 0-5-4-10-10-10-5 0-10 20-10 44 0 25 5 48 10 51 6 3 10 16 10 27 0 25 70 168 82 168 4 0 8 5 8 12 0 6 10 22 22 35l22 24-50 50-23-25z"/></g><g transform="translate(0 256) scale(.1 -.1)" fill="var(--icon-purple, #BFA7FF)"><path d="m1200 1785c-19-13-43-21-52-19-10 3-18 1-18-5 0-5-13-12-29-16-16-3-32-13-35-21s-12-14-19-14c-8 0-22-9-32-20s-14-20-10-20c5 0-2-11-15-25-23-24-23-26-7-43 11-10 20-13 25-7 11 15 70 55 82 55 5 0 10 3 10 8 0 7 14 16 76 45 17 8 35 20 38 26 11 16 57 13 78-5 15-14 20-15 33-4 14 12 12 18-22 52-43 44-55 46-103 13z"/><path d="m1140 1508c-61-31-87-58-106-110-3-10-11-18-16-18-12 0-3-100 13-163 11-42 73-115 123-146 78-49 167-36 246 36 136 123 117 282-46 380-17 10-31 23-30 28 2 22-137 16-184-7zm50-62c0-4-102-106-106-106-14 0 3 25 43 64 40 40 63 55 63 42z"/><path d="m1431 716c-9-10-8-16 3-25 8-7 12-19 10-26-6-15 25-35 55-35 12 0 21-4 21-10 0-15 26-12 39 4 9 10 9 16 1 21-6 4-9 13-6 20 7 19-12 32-56 40-21 4-38 11-38 16 0 13-16 11-29-5z"/><path d="m1442 543c-18-4-21-8-12-17 8-10-2-25-40-62-71-69-70-97 8-176 78-77 102-78 178-7 73 70 76 116 12 185-31 34-38 48-30 56 7 7 12 14 12 18 0 6-96 9-128 3zm48-71c0-4-15-14-32-22-18-7-36-15-40-18-22-12-4 16 20 30 30 18 52 22 52 10z"/></g><g transform="translate(0 256) scale(.1 -.1)" fill="var(--icon-skin, #F0D8C0)"><path d="m1665 2e3c-51-31-99-111-67-111 6 0 14-30 17-67 4-38 11-72 15-78 4-5 10-35 12-67l4-56-25 16c-14 9-28 19-31 22-19 19-49 28-58 17-20-25 6-87 36-87 5 0 17-9 27-20s24-20 30-20c7 0 16-7 19-16 9-22 7-437-2-449-11-15-70-55-81-55-5 0-11-3-13-7-5-13-66-53-79-53-8 0-9-3 0-13 8-11 6-18-9-32-37-33-6-47 43-19 23 13 52 28 65 34 12 5 22 14 22 20 0 5 5 10 12 10 6 0 19 7 29 16 16 15 17 12 12-48-3-35-9-67-14-73-11-12-12-75-1-75 5 0 17 9 27 20s21 17 25 15c18-11 30 28 37 124 7 88 11 106 28 115 10 6 30 23 44 39 14 15 30 27 36 27 17 0 121 113 120 131 0 9-6 24-14 33-13 15-20 11-77-44-60-58-78-68-87-52-2 4-2 1 0-7 4-18-34-55-42-41-3 6-1 10 4 10 14 0 15 246 1 255-12 7-14 55-2 55 5 0 19-11 32-25s28-25 34-25 32-21 58-47c40-40 49-44 63-33 14 12 13 15-7 37-13 14-23 34-23 46s-10 26-22 32c-13 7-34 24-47 38-14 15-29 27-34 27-4 0-20 12-34 28-23 24-27 39-33 122-4 52-12 101-17 107-6 7-8 24-6 38 3 14 1 25-3 25-5 0-9 18-9 39 0 22-5 43-10 46-15 9-2 25 19 25 10 0 30 6 45 13l26 14-23 21c-28 27-34 27-72 3z"/><path d="m331 1876c-7-8-18-13-25-10-35 13-62-217-30-257 7-8 15-29 19-46 3-18 11-33 16-33s9-5 9-11 13-28 29-48 28-39 27-43c0-3 25-36 57-71 31-36 57-72 57-79s-21-37-46-66l-47-54 50-50 49 56c26 31 52 56 57 56s50-39 100-86c51-48 102-90 115-95 16-6 22-17 22-38 0-16 4-32 9-35 4-3 12-46 15-96 4-49 11-92 16-95 4-2 11-25 14-50 6-36 18-57 63-105 31-34 58-58 62-55 3 3-1 10-9 15s-12 11-10 13c3 2 28 17 56 35 72 45 99 76 81 91-11 9-21 8-43-3-45-23-101-46-112-46s-22 47-22 91c0 16-4 29-9 29-9 0-25 149-17 157 3 3 17-4 32-16 15-11 33-21 40-21s17-6 21-12c9-15 37-33 72-48 36-16 50 4 24 32-11 13-18 29-16 35 3 7-8 18-24 25-15 7-44 25-63 40-19 16-40 33-47 38-7 6-16 10-21 10s-16 8-25 18c-27 29-25 441 1 465 10 10 23 17 29 17s13 3 15 8c5 11 66 52 78 52 5 0 10 4 10 9s9 13 21 16c11 4 18 12 16 18-3 7 4 22 15 34s17 26 13 32c-9 16-41 13-55-4-7-8-18-15-25-15s-15-7-19-15c-3-8-10-15-17-15-6 0-22-9-36-20s-30-20-35-20c-13 0 1 153 15 162 7 4 6 12-2 22-10 12-17 13-26 6-9-8-15-8-20 0-14 23-35-43-42-129-3-47-11-89-17-93-8-6-7-10 2-16 12-8-28-55-55-63-7-2-50-39-97-81-46-43-89-78-94-78-13 0-116 119-125 143-4 9-11 17-17 17-5 0-10 6-10 14 0 7-6 19-14 25-8 7-18 27-22 44-3 18-11 35-17 39-16 10-15 197 0 206 16 10 21 54 7 59-6 2-17-3-23-11zm459-596c0-94-4-160-9-160-6 0-37 25-69 55-33 30-64 55-69 55-6 0-18 10-29 21-19 21-19 22 70 105 50 46 93 84 98 84 4 0 8-72 8-160z"/></g><g transform="translate(0 256) scale(.1 -.1)" fill="var(--icon-slate, #606078)"><path d="m1545 1944c-22-8-49-18-60-24-59-27-115-50-123-50-18 0-103-83-98-96 3-7 0-16-5-20-11-7 1-15 89-58 28-15 52-31 52-35 0-5 14-12 30-16 17-4 30-10 30-15s20-19 45-31 45-26 45-31c0-13 27-9 39 6 9 10 9 16 1 21-6 4-8 14-5 24 4 13-4 21-30 31-19 8-35 17-35 20 0 4-20 17-45 29s-45 26-45 31-13 11-30 15c-16 4-30 11-30 16s-7 9-15 9-15 7-15 15 6 15 13 15c6 0 41 14 77 31 36 18 72 35 80 39 39 19 80 22 80 6 0-9 5-16 10-16 6 0 10-10 10-22v-21l25 23c14 13 25 31 25 40 0 15-60 82-70 79-3-1-23-8-45-15z"/><path d="m1253 1513c16-18 16-21 2-33-21-17 13-55 68-77 101-41 90-225-15-253-117-32-188 22-188 143 0 30-4 40-20 44-11 3-20 11-20 18s-10 19-23 28c-38 25-51-1-51-104v-88l40-47c82-97 105-109 202-109 125 0 190 39 237 140 10 22 22 48 26 57 12 23 11 85 0 92-4 3-11 23-14 43-12 71-114 151-206 160-55 6-56 6-38-14z"/><path d="m2136 991c-7-11 4-44 18-53 19-13 14-203-6-225-10-11-18-24-18-30s-8-13-17-17c-10-3-25-10-33-15-52-31-78-36-192-35-75 1-123 5-130 12s-26 12-44 12c-17 0-37 7-44 15-9 10-9 15-1 15 6 0 11 13 11 29 0 17 4 32 8 35 5 3 7 18 4 34-2 16 1 33 7 36 13 8 15 76 3 76-5 0-17-9-27-20s-21-17-25-15c-15 9-27-21-34-85-8-79-20-95-59-75-15 8-43 17-62 21-19 3-35 10-35 15s-10 9-23 9-32 7-43 15c-10 8-27 15-36 15-25 0-22 19 5 30 23 10 58 31 67 40s45 30 74 44c19 9 25 16 17 21-9 5-7 13 9 30 28 30 2 59-28 31-10-9-24-16-30-16-7 0-12-4-12-9s-8-12-17-15c-10-4-36-18-58-31-22-14-48-28-57-31-10-4-18-10-18-15 0-4-15-11-33-14-33-6-166 52-175 76-2 5-8 9-14 9-5 0-21 9-35 20-43 34-92 19-60-18 7-9 17-25 20-35 4-9 18-22 32-27s25-14 25-19 13-12 30-16 30-11 30-16 7-9 15-9 15-7 15-15-7-15-15-15-15-4-15-9-14-11-30-15c-51-10-223-136-186-136 5 0 3-7-4-15-8-9-9-25-4-42 4-16 8-41 10-57 1-16 6-31 12-35 6-3 14-19 17-34 4-15 11-27 16-27s9-6 9-13c0-8 9-22 20-32s20-22 20-26c0-11 68-79 79-79 5 0 14-6 20-14 7-8 30-17 52-21 21-4 41-11 45-16 7-12 81-12 88 0 3 5 21 12 40 15 19 4 36 12 38 18 5 15 82 12 107-4 14-8 23-9 33-1 7 6 27 14 44 17 30 7 81 49 85 71 1 6 4 16 6 23 9 22-4 126-15 130-13 4-16 54-4 66 4 4 7 17 7 29 0 20 5 22 50 19 27-2 56-9 64-15 20-17 293-16 298 1 3 6 15 12 28 12 14 0 40 14 58 30 19 16 40 30 46 30 7 0 10 4 7 9s1 14 9 21 15 18 15 25c0 8 6 15 13 18 19 6 17 255-2 266-8 5-19 7-26 5-6-3-18 2-25 11-14 17-26 19-34 6zm-826-281c3-5 18-12 33-15 15-4 27-11 27-15 0-5 15-12 33-15 17-4 41-14 52-21 11-8 30-14 42-14 13 0 23-4 23-10 0-5 8-10 18-10 25 0 49-18 36-27-6-5-14-16-17-26-6-15-13-17-36-12-53 11-101-5-148-51l-45-43 4-71c2-45 9-74 17-80 17-10-16-30-48-30-12 0-21-4-21-10 0-5-13-10-30-10-16 0-30 5-30 10 0 6-8 10-18 10-54 0-125 61-167 145-8 17-19 37-24 45-17 28-41 88-41 104 0 9-4 16-10 16-36 0 28 43 84 56 16 4 67 26 115 50 84 43 134 50 151 24zm180-238c0-4-15-14-32-22-18-7-36-15-40-18-22-12-4 16 20 30 30 18 52 22 52 10zm24-41c29-32 18-95-17-99-56-7-77 50-35 95 26 28 30 28 52 4z"/></g><g transform="translate(0 256) scale(.1 -.1)" fill="var(--icon-stroke, #24324B)"><path d="m1195 2358c-22-6-45-16-51-22-35-33-58-48-61-39-2 6-28 6-70 1-92-11-133-54-133-141 0-39 5-64 15-73 17-17 20-70 5-79-6-4-8-10-5-15 8-14-24-34-37-23-7 6-20 11-28 11-86 5-168 17-164 23 3 5-23 9-58 9-38 0-58-4-50-9s-15-10-59-14c-42-4-76-11-80-19-5-7-12-13-16-12-14 2-43-8-43-15 0-3-14-20-30-38-17-18-30-37-30-42 0-6-4-11-10-11-5 0-7-7-4-15 4-8 1-15-5-15-13 0-16-176-2-184 4-3 11-18 14-34 6-29 68-140 99-177 28-34 102-127 113-141 7-11 2-22-22-45-18-16-33-33-33-37s-16-24-35-45c-18-21-40-51-47-67-7-17-17-30-21-30-5 0-5-5-2-10 3-6 1-10-4-10-6 0-11-6-11-12 0-7-6-25-14-39-22-42-28-80-27-156 2-49-3-79-13-95-22-35-29-92-16-132 13-39 74-96 103-96 10 0 15-4 12-10-19-31 80 1 121 39 19 17 27 18 65 9 31-7 64-6 111 2 37 6 73 8 79 4 8-4 9-3 5 4-5 8 3 12 24 12 17 0 46 6 64 14 35 15 56 7 56-22 0-7 8-32 19-55 28-65 34-81 33-89-1-5 2-8 8-8 5 0 10-5 10-10 0-26 116-160 138-160 6 0 18-8 28-17 21-22 204-26 211-5 3 6 10 12 18 12 7 0 18 7 25 15 10 12 16 13 28 3 8-7 40-13 72-13 98 0 155 65 148 169-2 20-5 36-8 36s-11 13-18 29c-13 29-11 41 21 108 10 22 37 32 37 15 0-4 8-8 18-9 69-7 121-16 118-22-2-3 51-3 117 0 218 11 307 85 307 256 0 135-72 285-207 433-28 31-28 31 1 59 23 22 26 22 48 7 39-28 140-22 179 11 86 73 69 203-33 259-15 8-16 17-7 74 20 123 5 200-49 255-41 41-100 75-132 75-12 0-19 4-16 9 7 11-247 12-254 1-8-12-133-23-125-11 3 6 3 11-2 11-4 0-13 17-20 38-6 20-16 48-21 62s-9 29-8 33c0 4-4 11-9 15-6 4-19 24-30 45-26 49-108 132-153 153-44 21-144 27-197 12zm173-56c2-7 9-12 16-12 25 0 132-120 119-134-3-3-1-6 5-6 7 0 12-6 12-14s3-16 8-18c7-3 44-91 57-135 6-22-24-50-39-36-3 3-6 2-6-4s-16-14-35-17c-19-4-47-13-62-21s-36-15-45-15c-10 0-18-4-18-9s-12-12-27-16c-15-3-30-10-33-13-20-27-71-40-97-27-16 8-34 15-40 15-7 0-13 4-13 9s-13 12-30 16c-16 4-30 10-30 15 0 4-18 11-40 15s-40 10-40 15-18 11-40 15c-47 8-54 16-45 54 6 28 8 29 78 33 78 4 106 19 133 70 18 35 18 119-1 144-27 35-15 57 45 86 25 12 163 4 168-10zm-289-58c59-42 60-132 1-174-89-63-196 41-144 141 24 48 97 65 143 33zm980-310c17-10 31-22 31-27 0-4 4-6 10-2 14 9 58-64 70-118 7-34 7-67-1-117-12-69-12-70-50-80-72-20-120-104-105-185 5-27 3-37-8-41-8-3-18-14-21-25-10-30-25-23-96 44-61 58-80 73-150 127-21 15-27 31-32 77-12 105-35 247-46 283-15 47-15 46 19 60 82 34 324 36 379 4zm-1324 6c4-6 10-8 15-5 20 12 120-26 120-45 0-10-4-21-9-24-4-3-11-36-15-72-4-37-10-72-14-78-3-6-7-15-7-21-4-63-19-161-26-166-22-13-149-119-196-163l-54-49-34 33c-19 19-35 38-35 42 0 5-10 19-23 31-32 30-85 113-93 142-3 14-10 25-14 25-9 0-25 67-22 93 1 9-3 17-8 17-6 0-10 16-10 35s4 35 9 35 11 18 15 40c3 22 10 40 15 40 6 0 12 9 16 19 7 22 108 76 124 67 6-4 11-2 11 3 0 14 226 15 235 1zm881-84c7-26 10-55 7-64-4-9-2-13 4-9 10 6 23-71 28-170 3-55 7-56-82 17-7 6-15 10-18 10-7 0-68 42-75 52-3 3-9 7-15 8-22 6-55 24-55 31 0 4-13 10-30 14-16 4-30 11-30 16s-9 9-20 9-20 5-20 11 9 13 20 16 20 9 20 14 5 9 11 9c9 0 45 15 136 56 17 8 38 14 46 14 9 0 19 5 22 11 15 23 39 2 51-45zm-614 14c29-12 67-27 85-35 17-8 36-15 42-15s11-4 11-10c0-5 9-10 20-10s20-7 20-15-5-15-12-15c-10 0-94-50-123-73-22-17-175-117-180-117-14 0 19 224 35 240 3 3 6 14 8 25 8 53 16 55 94 25zm268-120c0-5 5-10 12-10 6 0 49-22 95-50 46-27 87-50 91-50s19-11 34-25 31-25 36-25 18-8 30-17c12-10 39-31 62-46l40-28v-224-223l-37-23c-21-13-42-26-48-28-5-2-14-8-20-13-5-4-21-17-34-28s-30-20-37-20-14-4-16-8c-4-12-121-82-136-82-6 0-12-3-12-8 0-4-16-16-36-27l-35-19-65 34c-35 19-64 38-64 42s-6 8-14 8-37 16-66 35-55 35-59 35c-3 0-20 13-37 28-18 15-42 34-54 42s-29 20-38 27c-14 9-17 34-20 145-4 196 8 318 33 332 10 6 26 17 34 24 25 24 148 102 160 102 6 0 11 3 11 8 0 4 21 19 47 32 26 14 54 31 61 38 7 6 20 12 28 12s14 5 14 10c0 6 9 10 20 10s20-4 20-10zm960-227c59-54 42-146-33-178-104-43-192 92-113 174 41 42 102 44 146 4zm-1427-139c-2-38-5-111-9-161-3-62-2-93 5-93 6 0 8-7 5-15-10-25-23-18-97 48-108 95-130 118-121 126 25 20 171 148 183 159 26 25 36 7 34-64zm1e3 11c136-120 134-116 71-171-94-82-140-119-148-119-7 0-15 307-9 348 2 14 15 5 86-58zm-1200-205c28-28 84-76 126-107l76-58 11-95c6-52 18-129 27-170 27-121 26-123-20-136-94-27-139-34-205-34h-70v58c0 101-55 155-155 150l-60-3 2 69c1 38 5 72 10 75s14 24 21 46c6 23 21 50 32 62s20 26 20 31c0 9 11 23 79 108 24 30 46 54 50 54 3-1 29-23 56-50zm1401 4c21-26 48-61 59-78 10-17 22-33 25-36 18-14 64-107 81-162 50-165-13-275-178-314-62-14-77-14-173 1-85 13-170 37-170 48 0 1 5 18 11 37 16 52 48 239 49 282 0 41 8 68 20 68 5 0 21 12 37 28 16 15 40 35 54 44 13 10 49 42 79 72 30 31 58 55 61 56 3 0 23-21 45-46zm-1e3 -288c36-22 67-43 70-46 3-4 12-10 20-13 43-20 114-65 117-74 2-6-47-32-109-57-62-26-121-51-130-56-10-6-20-10-22-10-8 0-26 62-20 71 3 5 1 9-4 9-9 0-31 117-40 204l-4 50 28-19c16-10 58-37 94-59zm686 62c4-6 2-14-4-16-7-2-10-8-7-12 8-13-18-180-28-180-4 0-5-4-2-10 7-11-15-90-25-90-12 0-134 41-175 60-22 9-55 23-73 31-17 8-31 18-29 24 4 10 147 97 147 89 0-3 7 1 15 10 8 8 40 29 70 46s57 36 60 41c4 5 11 7 16 4 5-4 9-1 9 4 0 15 17 14 26-1zm-1195-237c66-66 18-181-76-181-40 0-95 59-95 102 0 95 106 144 171 79zm816 2c21-10 40-21 43-24s59-25 125-49c147-53 143-50 120-100l-18-40-48 6c-59 8-126-21-152-65-19-32-24-136-7-146 21-13 9-43-22-56-108-46-241 23-309 159-13 26-26 49-29 52-13 12-41 87-43 114-2 28 2 31 63 53 103 38 223 94 228 106 5 10 6 9 49-10zm276-283c83-92-24-228-127-161-56 37-71 98-39 152 34 57 118 62 166 9z"/><path d="m1170 1510c0-5-12-11-26-14-40-10-114-97-114-134 0-10-3-22-6-25-8-7-9-101-2-113 3-5 8-22 12-38 4-15 13-35 21-43s18-19 22-26c24-36 115-77 174-77 77 0 219 81 219 126 0 8 4 14 8 14s8 8 9 18c1 9 5 38 9 63 10 72-16 138-78 194-27 25-56 45-64 45s-14 4-14 9-38 8-85 8-85-3-85-7zm193-69c128-82 116-265-23-338-192-102-378 157-224 312 48 47 60 52 145 54 45 1 63-4 102-28z"/></g></svg>
