<svg fill-rule="evenodd" stroke-linecap="round" stroke-linejoin="round" viewBox="0 0 256 256" xmlns="http://www.w3.org/2000/svg"><g transform="translate(0 256) scale(.1 -.1)" fill="var(--icon-coral, #FF8A65)"><path d="m683 1e3c-7-3-13-11-13-18s6-16 13-19c10-5 10-7 0-12-7-3-13-16-13-28s-7-31-15-42c-8-10-15-29-15-41 0-13-4-23-9-23s-13-14-16-32c-4-17-16-47-26-65s-18-37-18-41c2-14-13-52-21-52-4 0-10-18-14-40-3-22-11-40-16-40-6 0-10-10-10-22 0-13-7-32-15-42-8-11-15-30-15-43s-4-23-10-23c-5 0-10-10-10-22 0-24 55-64 65-48 3 4 32 11 65 15s62 11 65 15 32 11 65 15 60 11 60 17c0 30 43-19 70-79 5-13 14-23 19-23s11-8 15-18c3-9 14-28 23-42 10-14 27-40 38-58 29-47 70-42 101 13 13 22 23 50 24 63 0 12 4 22 10 22 5 0 12 17 16 38 4 20 10 39 13 42 10 9 31 49 31 61 0 6 6 25 14 42 22 50 29 71 28 79-1 4 7 24 18 43s23 53 26 75c6 37 9 40 38 40 34 0 56-15 56-38 0-8 6-28 14-45 12-28 25-61 31-77s19-49 31-77c8-17 14-36 14-42s4-19 9-29c18-34 41-90 41-101 0-6 9-26 19-45 11-19 17-37 14-40-4-3 4-17 17-31 33-36 70-33 95 7 11 18 28 44 38 58 9 14 20 33 23 43 4 9 10 17 15 17s14 10 19 23c27 60 70 109 70 79 0-6 27-13 60-17s62-11 65-15 32-11 65-15 62-11 65-15c10-16 65 24 65 48 0 12-4 22-9 22s-13 14-16 32c-4 17-16 47-26 65s-22 51-25 73c-4 22-10 40-14 40-5 0-11 14-15 30-4 17-11 30-16 30s-9 11-9 24c0 14-4 27-9 30s-12 22-15 41c-4 19-11 35-16 35-6 0-10 10-10 23 0 12-7 31-15 41-8 11-15 30-15 42s-6 25-12 28c-10 5-10 7 0 12 6 3 12 12 12 19 0 17-25 26-38 13-6-6-12-6-17 2-8 13-65-35-65-55 0-29-203-128-320-156-30-7-64-21-75-31-20-16-22-17-37-1-14 13-20 14-32 3-13-10-22-8-52 15s-40 26-55 17c-35-22-172 14-210 55-40 43-79 63-99 51-19-12-70 13-105 52-10 11-23 20-28 20-6 0-20 8-31 19-12 10-27 16-33 14z"/></g><g transform="translate(0 256) scale(.1 -.1)" fill="var(--icon-yellow, #FFD85A)"><path d="m1e3 2352c-16-2-28-8-28-13s-11-9-25-9-25-4-25-9-12-12-27-16c-16-3-42-17-60-31-17-13-36-24-41-24-4 0-19-11-32-25s-29-25-36-25c-17 0-35-25-37-52-3-31-155-208-178-208-4 0-10-13-14-30-4-16-11-30-16-30s-9-10-9-23-6-29-12-35c-10-10-13-77-13-267s3-257 13-266c6-7 12-23 12-36s4-23 9-23 12-13 16-30 10-30 15-30c4 0 11-8 14-17 10-28 31-62 55-87 11-12 21-26 21-31s12-20 28-34c17-15 23-25 15-28-7-3-13-11-13-18 0-18 25-26 39-12 8 8 14 8 23-1 8-8 15-8 23-2 14 11 66-26 110-79 32-38 81-66 90-51 4 6 19 4 41-5 19-8 65-22 102-31s80-28 97-42 31-20 33-13c5 15 65 14 80-1 14-14 45 9 38 29-4 9 3 13 22 13 90 1 271 74 360 147 35 29 45 33 58 23 11-10 18-9 33 4 12 11 21 13 25 7 9-13 36-3 36 14 0 7-6 15-12 18-9 3-5 11 11 26 25 22 46 53 57 84 3 9 10 17 14 17 11 0 90 161 90 183 0 9 4 17 9 17s12 27 16 60 11 63 16 66c11 7 12 244 0 244-4 0-11 30-14 67-4 38-11 69-17 71-5 2-10 11-10 20 0 24-87 196-110 217-11 10-20 22-20 27 0 13-114 128-126 128-6 0-21 11-34 25s-28 25-32 25c-5 0-24 11-41 24-18 13-43 27-57 30-35 10-74 29-82 41-7 9-437 16-500 7zm340-435c18-18 34-31 35-29s10 0 20-3c9-4 30-5 44-2 41 8 80-18 118-78 19-30 35-58 35-62 0-5 8-19 17-32 20-29 19-138-2-161-8-8-12-26-9-40 15-86 15-98-3-145-15-39-23-49-39-47-24 3-109-80-101-100 6-18-19-35-66-43-32-6-41-3-86 35-41 35-53 40-65 31-10-8-16-9-21-1-12 19-47 10-89-25-40-33-45-34-77-24-44 15-60 29-52 43 4 6 8 16 8 21 1 6 5 18 9 28 15 32-93 122-117 98-17-17-24-13-35 19-20 56-26 170-10 170 8 0 26 13 41 28 24 25 26 31 16 64-5 21-14 40-19 43-30 19 21 132 56 127 14-2 35 12 63 43 62 67 98 81 206 77 86-3 92-5 123-35z"/></g><g transform="translate(0 256) scale(.1 -.1)" fill="var(--icon-orange, #FFB84D)"><path d="m1110 2059c-55-19-122-73-117-94 3-17-70-78-78-64-5 7-19-1-42-22-44-44-75-96-62-105 6-3 9-20 6-38-3-19 1-37 10-48 14-16 13-21-17-55l-33-37 7-83c9-119 54-213 140-292 15-15 24-31 21-41-9-30 99-117 122-98 9 7 25 7 52 0 37-9 41-8 70 22 17 18 28 35 25 39-4 4 0 7 9 7s19-5 23-11c3-6 15-8 27-5 15 4 17 2 8-7-8-8-4-18 15-38 24-25 31-27 75-22 31 4 54 1 63-6 25-21 166 74 150 101-3 5 26 42 64 82 85 90 101 131 109 281 4 77 10 115 20 127 21 24 10 60-29 95-47 41-111 139-102 154 5 8-12 30-47 60-49 44-55 47-70 33-11-10-19-12-23-5-5 7-13 7-26-1-16-10-24-8-47 12-47 42-70 50-142 50-49 0-72 4-81 15-16 19-32 18-100-6z"/></g><g transform="translate(0 256) scale(.1 -.1)" fill="var(--icon-slate, #606078)"><path d="m1140 2370c0-5-17-10-37-10-57 0-68-12-38-40 17-16 36-23 55-22 16 1 31-2 35-8 10-17 41-11 61 11 17 19 25 20 109 13 49-3 96-11 103-17 9-7 21-2 42 18 36 34 31 45-21 45-21 0-39 5-39 10 0 6-52 10-135 10s-135-4-135-10z"/><path d="m770 2203c-19-7-130-119-130-131 0-5-10-17-21-28-12-10-25-28-30-39-12-27-32-59-42-66-13-9-14-71-1-76 23-8 282 275 266 291-3 4-7 17-7 28 0 23-11 30-35 21z"/><path d="m484 1773c-3-29-10-53-15-53s-9-74-9-165c0-103 4-165 10-165s10-12 11-27c1-60 12-69 42-33 28 33 34 55 17 65-6 4-10 68-10 160s4 156 10 160c18 11 10 44-19 77l-30 33-7-52z"/><path d="m1727 1622c-41-43-39-117 6-160 17-17 40-30 49-28 28 4 70 48 58 60-5 5-10 28-10 51 0 33-6 47-33 73-40 39-37 39-70 4z"/></g><g transform="translate(0 256) scale(.1 -.1)" fill="var(--icon-stroke, #24324B)"><path d="m1185 2360c-109-17-185-34-185-42 0-4-6-8-12-8-12 0-137-59-148-70-3-3-27-23-55-45-64-51-91-79-140-140-22-27-42-52-45-55-25-25-100-219-100-257 0-12-4-25-10-28-6-4-10-68-10-160s4-156 10-160c6-3 10-17 10-30 0-34 26-109 63-185 32-65 44-81 105-151 26-30 31-42 26-68-4-17-10-29-14-26s-11-12-15-33c-4-20-10-41-14-47-4-5-21-45-37-87-16-43-32-78-36-78s-5-6-2-14 1-17-5-21c-6-3-11-15-11-26 0-10-5-19-11-19-5 0-8-4-4-10 3-5 1-17-4-27-18-35-41-91-41-102 0-6-5-20-12-31-9-15-9-24 1-43 12-23 15-23 40-11 14 7 51 17 81 23 92 16 154 31 172 41 14 8 24-1 58-51 22-33 40-62 40-65 0-2 7-12 15-21 8-10 16-22 16-28 1-5 9-17 19-25 9-8 22-25 29-37 7-14 21-23 35-23 23 0 24 2 67 105 17 41 91 231 101 260 6 17 17 44 24 60 6 17 20 51 29 78 16 42 21 47 49 47 42 0 52-9 71-55 9-22 20-49 24-60 5-11 16-40 26-65s21-54 26-65c13-29 60-156 66-180 3-11 9-24 13-30 4-5 13-27 19-48 26-80 50-71 127 45 26 40 51 75 54 78 4 3 15 20 25 37 21 37 60 43 140 22 22-6 68-16 102-23s68-18 76-24c18-15 46 30 30 50-5 7-24 54-42 103-18 50-42 109-52 133-11 24-27 64-35 90-9 26-22 61-29 77-57 137-59 147-33 181 12 16 25 31 28 34 13 12 70 108 70 118 0 7 5 12 10 12 6 0 10 7 10 15s5 15 11 15c5 0 7 5 4 10-4 6-2 16 3 23s15 35 22 64c8 29 16 50 19 48 14-8 25 283 12 309-5 12-12 46-14 77-3 31-10 65-15 75-18 34-42 92-42 102 0 6-3 12-7 14-5 2-19 26-32 53-15 30-60 85-110 135-110 109-123 119-198 155-35 16-63 32-63 35s-8 6-17 7c-28 3-127 27-138 34-17 11-188 17-240 9zm313-86c501-168 680-767 357-1190-282-367-857-373-1155-11-54 66-128 210-151 292-26 93-18 335 13 425 96 273 323 466 601 511 92 14 250 2 335-27zm-578-28c0-2-21-16-47-30l-48-26 35 30c31 26 60 39 60 26zm850-82c65-53 82-69 91-86 18-33-19-7-81 58-49 51-54 63-10 28zm-1e3 -67c-81-105-117-146-121-143-9 10 116 166 134 166 3 0-3-11-13-23zm1262-219c8-21 13-38 11-38-3 0-13 17-22 38-10 20-20 42-22 47-3 7-1 7 6 0 6-5 18-27 27-47zm-1436-65c-20-58-31-64-14-8 8 28 15 52 15 54s3 2 6-2c3-3 0-23-7-44zm-10-483c1-20-1-22-9-10-5 8-9 29-9 45 0 26 2 27 9 10 5-11 9-31 9-45zm1466-45c-10-25-20-43-23-41-2 3 4 25 13 51 10 25 20 43 23 41 2-3-4-25-13-51zm-1274-280c12-16-7-2-40 33-34 34-61 68-61 75 1 13 66-57 101-108zm1114 9c-20-26-24-39-16-47 22-22 11-36-12-14l-23 22 29 38c16 20 33 37 39 37s-2-16-17-36zm-1053-109c54-46 190-111 275-131 127-31 121-12 54-176-31-79-73-182-91-230-19-49-37-88-40-88-4 0-39 48-79 106s-80 108-88 111c-9 4-72-6-140-21-69-15-127-25-130-22-5 4 41 125 133 353 20 48 40 98 45 111 11 29 13 28 61-13zm1e3 -2c87-211 177-439 177-450 0-10-7-12-20-8-10 3-61 17-112 30s-103 26-114 30c-23 7-64-39-149-168-21-31-41-57-44-57-17 0-193 460-178 464 7 2 48 14 92 26 98 27 204 77 270 129 62 49 60 49 78 4zm-890-37c9-7 17-16 17-20 0-12-18-6-41 14-28 22-6 28 24 6zm296-107c-17-17-23-19-30-8-11 19-2 29 27 29h24l-21-21zm-369-340c0-6-11 3-25 19-14 17-25 34-25 38 1 12 50-45 50-57z"/><path d="m1175 2074c-302-77-473-340-411-630 87-406 584-555 877-263 262 260 189 688-146 849-86 42-93 44-195 46-58 2-114 1-125-2zm226-52c171-48 323-212 345-375 4-25 13-48 20-51 18-7 20-120 2-114-7 3-22-26-38-73-149-446-743-454-912-13-18 48-22 78-22 165 1 105 1 108 44 195 110 222 335 328 561 266z"/></g></svg>
