<svg fill-rule="evenodd" stroke-linecap="round" stroke-linejoin="round" viewBox="0 0 256 256" xmlns="http://www.w3.org/2000/svg"><g transform="translate(0 256) scale(.1 -.1)" fill="var(--icon-coral, #FF8A65)"><path d="m1785 1776c-16-13-47-29-67-37-21-7-38-17-38-21 0-14-48-9-53 6-3 8-19 17-36 21s-31 11-31 16c0 16-89 10-118-8-47-30-72-57-72-80 0-13-4-23-9-23-13 0-10-41 3-59 11-14-53-80-78-81-6-1-27-15-47-33-31-27-35-36-28-55 10-26 34-24 78 7 13 9 31 21 40 26 9 6 18 12 21 15 29 30 60 39 87 25 56-30 118-20 168 26 25 23 42 45 40 50-3 4 0 18 6 31 7 13 15 30 19 38s11 15 16 16c17 2 79 32 104 51 14 11 33 22 42 26 18 6 20 30 5 55-11 17-17 15-52-12z"/><path d="m1130 875c-7-9-15-13-18-10s-18-7-34-22l-28-27v-161-161l56-54 54 56v197c0 191-4 214-30 182z"/></g><g transform="translate(0 256) scale(.1 -.1)" fill="var(--icon-yellow, #FFD85A)"><path d="m833 896c-21-26-30-138-34-394-2-89 0-94 25-121 27-29 29-29 149-29s122 1 152 29l30 28-2 238c0 131-2 245-2 254-1 14-21 16-150 18-148 2-149 2-168-23z"/></g><g transform="translate(0 256) scale(.1 -.1)" fill="var(--icon-blue, #5EC8F8)"><path d="m1215 1462c-16-10-32-20-35-24-3-3-18-10-33-13-15-4-27-11-27-15s-12-11-26-14c-21-6-34 0-66 30-39 35-43 36-100 32-87-6-121-42-126-135l-4-68-86-87c-78-79-85-89-71-103 21-22 50-5 129 73 62 63 83 70 115 41 19-18 105-10 136 14 31 22 69 87 69 117 0 12 32 33 98 65 53 26 99 49 101 51 6 5-28 54-37 53-4 0-20-8-37-17z"/></g><g transform="translate(0 256) scale(.1 -.1)" fill="var(--icon-green, #66DDAA)"><path d="m2e3 2100c0-5-9-10-19-10-11 0-34-14-51-31-30-30-31-35-29-101 2-67 1-70-32-98-19-16-38-29-43-30-16 0-81-64-81-79-1-32 14-40 45-24 17 8 30 19 30 24s5 9 11 9 30 16 53 35c22 20 45 39 51 44 5 4 23 1 40-7 16-9 38-19 49-25 12-5 22-5 29 2 6 6 18 11 27 11 22 0 90 69 90 91 0 10 5 21 10 24 6 3 10 17 10 31 0 13-4 24-10 24-5 0-10 9-10 19 0 25-56 81-81 81-10 0-19 5-19 10 0 6-16 10-35 10s-35-4-35-10z"/><path d="m1858 1473c-17-18-18-58-18-540v-521l-47 6-48 5 29-32c38-40 63-47 86-26 12 11 20 13 25 6 4-7 56-11 139-11 132 0 132 0 159 28l26 28 1 509c0 428-3 550-14 556 0 0-73 3-161 6-150 5-161 4-177-14z"/></g><g transform="translate(0 256) scale(.1 -.1)" fill="var(--icon-purple, #BFA7FF)"><path d="m240 904c0-287 3-524 7-527 3-4 17 3 30 15 35 33 36 508 1 545l-21 23 21 23c21 22 22 32 22 203v180l-60 58v-520z"/><path d="m2177 1162-27-28v-210-210l28-27c16-15 31-24 35-20 10 9 9 511-1 517-5 3-21-7-35-22z"/><path d="m1322 1128c-9-9-12-103-12-362v-350l27-28c27-28 27-28 158-28 128 0 132 1 156 26l24 26-4 346c-3 296-5 350-19 365-19 21-309 26-330 5z"/></g><g transform="translate(0 256) scale(.1 -.1)" fill="var(--icon-orange, #FFB84D)"><path d="m1053 539c-7-7-13-9-13-4 0 4-8 0-19-9-10-9-28-18-40-19s-33-13-46-27l-25-26 33-31c65-63 187-41 187 34 0 34-61 98-77 82z"/></g><g transform="translate(0 256) scale(.1 -.1)" fill="var(--icon-skin, #F0D8C0)"><path d="m2153 1481c-5-3-5-94-1-221 5-118 6-356 2-528l-6-314 33-34c42-43 70-43 117 1l37 34-57 1h-58v503c0 522-2 550-41 560-9 3-21 2-26-2z"/><path d="m812 908c-8-8-12-52-12-133 0-110 2-124 20-140 20-18 21-18 52 12 30 30 31 36 38 135 5 83 4 106-8 121-17 20-72 23-90 5z"/><path d="m1125 820-30-31 3-182 4-182 31-32c41-44 82-44 122-3l29 30h-62-62l-2 216-3 215-30-31z"/></g><g transform="translate(0 256) scale(.1 -.1)" fill="var(--icon-slate, #606078)"><path d="m231 2145c-18-36-36-65-42-65-13 0-11-57 2-65 5-4 19 1 30 11 19 17 19 7 19-812s0-830 20-847c19-16 91-17 1070-17h1e3v29c0 35-13 41-96 41h-64v497 497l-54 56-56-54v-478-478h-85-85v383 383l-29 28c-19 18-31 24-36 16s-10-8-21 1c-12 10-14-51-14-426 0-394-2-437-16-431-9 3-44 6-79 6h-63l6 45c3 27 0 50-7 59-8 10-11 99-11 311 1 163-1 300-4 302-10 11-330 2-343-9-10-8-13-88-13-359v-349h-75-75v178c0 98-3 182-7 185-4 4-19-5-35-20l-28-27v-163-163h-115-115v225 225h122c119 0 123-1 150-27l28-27v35c0 84 9 80-184 77l-171-3-3-247-2-248h-250-250l-2 811c-2 446 0 813 4 815 4 3 13-4 20-16 15-24 36-26 44-5 6 15-30 100-47 111-5 3-9 13-9 23 0 16-29 51-42 51-3 0-20-29-37-65zm1349-1390v-295h-85-85v295 295h85 85v-295z"/><path d="m695 1130c-4-6-10-8-14-6-4 3-27-15-51-39-40-41-46-44-84-39-44 6-96-22-96-52 0-8-4-14-10-14-5 0-10-18-10-40 0-51 49-104 99-108 40-3 101 39 101 69 0 10 5 19 10 19 6 0 10 9 10 19 0 11-4 23-10 26-21 13-8 36 46 90 47 46 54 58 44 70-15 17-26 19-35 5zm-123-149c16-16 19-27 14-55-7-34-9-36-45-36-42 0-51 11-51 59 0 51 43 67 82 32z"/></g><g transform="translate(0 256) scale(.1 -.1)" fill="var(--icon-stroke, #24324B)"><path d="m245 2153c-10-21-29-55-42-76-20-33-21-38-8-44 10-3 22 3 31 16 9 12 20 19 25 16 5-4 9-338 9-845 0-645 3-841 12-846 16-10 2085-12 2101-2 23 14-5 23-86 28l-82 5-3 521c-2 466-4 523-18 535-20 16-301 14-321-3-10-8-13-127-13-534v-524h-90-90v353c0 193-4 358-8 365-12 18-307 25-321 8-7-8-12-142-13-367l-3-354h-90-90l-10 500-158 3c-127 2-158 0-163-11-3-8-6-122-7-253l-2-239-515-5-1 42c-3 167 4 1564 8 1571 3 5 0 12-6 16-12 8-5 41 9 41 4 0 10-9 13-21 4-13 12-20 24-17 18 3 25 28 11 38-4 3-20 30-36 60-36 67-45 70-67 23zm1923-1225-3-523-285-6v525 524l290 2-2-522zm-530-170-3-353h-140-140l-3 353-2 352h145 145l-2-352zm-533-113v-240h-130-130l-8 228c-5 126-7 234-4 241 4 9 39 12 139 12l133-1v-240z"/><path d="m2e3 2064c-39-30-54-78-46-147 3-29 2-49-2-45s-13 2-20-5c-46-45-145-120-145-110 0 4-4 3-8-2-4-6-33-24-64-39l-57-29-35 31c-60 52-131 55-184 8-40-36-60-95-44-131 10-22 8-27-26-54-20-17-39-29-42-28s-19-10-35-26c-27-24-171-107-202-115-6-2-14 5-17 16-4 10-18 25-31 32-14 7-25 17-25 22 0 14-89 9-120-7-54-28-90-108-71-158 8-21-3-36-104-138l-114-114-44 3c-61 5-99-27-101-85-1-58 32-93 89-93 61 0 90 34 89 105l-2 53 107 106 106 106 40-21c88-45 197 12 197 103 0 32 3 35 118 91 65 32 127 66 138 75 73 62 74 62 126 38 89-40 169 5 186 104 5 34 71 85 93 73 4-2 7 1 7 6 0 6 4 11 9 11s37 19 72 43c95 65 102 70 127 95 22 21 26 22 46 9 91-60 206 4 206 114 0 106-134 169-217 103zm170-39c42-88-2-175-88-175-61 0-105 42-105 100 0 80 30 109 116 110 59 0 61-1 77-35zm-567-329c45-45 47-91 3-140-54-62-138-55-174 14-59 115 80 217 171 126zm-602-280c50-21 77-64 67-107-19-75-47-99-121-99-110 0-139 154-38 203 41 20 50 21 92 3zm-399-433c18-20 24-35 20-51-22-88-135-78-135 12 0 33 20 62 33 49 4-3 7-1 7 5 0 23 49 12 75-15z"/></g></svg>
