<svg fill-rule="evenodd" stroke-linecap="round" stroke-linejoin="round" viewBox="0 0 256 256" xmlns="http://www.w3.org/2000/svg"><g transform="translate(0 256) scale(.1 -.1)" fill="var(--icon-white, #FFFFFF)"><path d="m2066 2141c-26-29-24-1770 2-1794 43-39 42-58 42 884 0 956 0 959-44 910z"/></g><g transform="translate(0 256) scale(.1 -.1)" fill="var(--icon-coral, #FF8A65)"><path d="m615 2312c-37-23-93-86-106-119-5-13-9-71-9-129 0-78-3-103-12-101-10 1-13-41-13-188s3-189 13-187c9 1 12-35 12-158s-3-159-12-157c-10 1-13-45-13-208s3-209 13-208c8 2 12-16 12-63 0-58-2-65-15-54s-15 8-15-14c0-14-4-26-10-26s-10-32-10-75c0-41 4-75 9-75 6 0 11-15 13-32 2-20 8-32 16-30 8 1 12-15 12-58s-4-59-12-58c-20 4-22-69-3-109 9-19 27-38 41-43 13-6 27-17 30-25 7-16 114-23 114-7 0 5 16 14 35 22s45 24 57 37 27 23 33 23c7 0 20 9 30 20s23 20 30 20c6 0 29 18 50 40s45 40 51 40c7 0 21 11 32 25s25 25 32 25 25 14 40 30c15 17 32 30 37 30s20 11 33 25 29 25 35 25 24 14 40 30c42 43 123 36 165-15 7-8 18-15 24-15 7 0 23-11 36-25s28-25 33-25 22-14 37-30c15-17 33-30 39-30 7 0 25-16 42-35s37-35 43-35c7 0 25-13 41-30 16-16 34-30 40-30s22-11 35-25 29-25 35-25 24-13 40-30c16-16 35-30 42-30s13-4 13-10c0-17 127-13 133 4 3 8 18 20 34 28 30 14 44 55 21 63-11 4-12 173-10 938 2 672 0 944-9 973-13 50-71 110-120 124-20 6-276 10-654 10-583 0-622-1-650-18z"/></g><g transform="translate(0 256) scale(.1 -.1)" fill="var(--icon-green, #66DDAA)"><path d="m705 2350 29-30h156 156l58 60h-214-214l29-30z"/><path d="m1365 2350 29-30h241c240 0 242 0 263 23 12 13 22 26 22 30s-131 7-292 7h-292l29-30z"/></g><g transform="translate(0 256) scale(.1 -.1)" fill="var(--icon-skin, #F0D8C0)"><path d="m2063 2148c-23-24-23-27-23-324v-300l28-27c16-15 31-24 35-20 11 10 8 663-2 663-5 0-11 7-13 16-2 13-7 11-25-8z"/><path d="m2067 1e3 -27-28v-180-180l28-27c16-15 31-24 35-20 10 9 9 451-1 457-5 3-21-7-35-22z"/></g><g transform="translate(0 256) scale(.1 -.1)" fill="var(--icon-slate, #606078)"><path d="m623 2366c-13-6-23-14-23-18 0-5-7-8-15-8-21 0-95-74-95-94 0-9-4-16-10-16-5 0-10-16-10-35s-4-35-10-35c-5 0-10-25-10-55s5-55 10-55c6 0 10-12 10-27v-27l30 29c17 16 30 34 30 40 0 7 9 20 19 29 12 11 22 38 26 68 9 64 48 108 75 83 21-19 1262-24 1286-4 9 7 14 8 14 1 0-6-4-13-10-17s-6-15 0-31 10-381 10-948v-923l25-23c14-13 25-31 25-41 0-21 26-43 44-36 17 7 46 63 46 89 0 10 5 18 10 18 7 0 10 308 10 905s-3 905-10 905c-5 0-10 20-10 45s-4 45-10 45c-5 0-10 7-10 16 0 20-74 94-95 94-8 0-15 3-15 8 0 4-12 13-27 20-36 16-1276 15-1310-2z"/></g><g transform="translate(0 256) scale(.1 -.1)" fill="var(--icon-stroke, #24324B)"><path d="m635 2348c-60-15-145-106-145-154 0-19-4-33-9-29-6 3-9-360-10-927 0-568 4-926 10-917 6 10 9 6 9-16 0-31 29-71 67-92 27-15 123-17 123-3 0 6 7 10 15 10 9 0 28 11 43 25s30 25 34 25c5 0 16 8 27 18 10 9 31 27 47 39s39 31 51 42c12 12 25 21 28 21s18 11 33 25 30 25 34 25c8 0 36 22 64 48 8 7 14 10 14 7 0-4 14 7 32 24 17 17 35 31 40 31 4 0 22 13 39 30 18 16 35 27 39 25 4-3 10 2 14 10 14 37 95 11 161-53 8-6 17-12 22-12s23-13 41-29c17-17 32-28 32-26 0 4 25-14 54-40 6-6 36-28 66-50s60-44 66-50c6-5 29-23 50-40 21-16 46-38 56-47 10-10 18-15 18-11 0 3 10-3 23-14 35-33 62-43 111-43 57 0 116 31 116 59 0 6 5 11 10 11 6 0 10 12 10 26s3 23 8 21c4-3 7 413 7 923s-3 923-7 917c-4-7-8 2-8 19 0 66-71 150-146 172-53 15-1228 15-1289 0zm51-30c-91-17-142-66-162-157-11-51-12-53-13-19-3 97 86 187 184 186h40l-49-10zm1309-41c32-32 56-90 54-132 0-11-7 1-15 26-7 25-32 67-55 92-46 53-34 64 16 14zm-61-10c81-46 76 25 76-1e3 0-922 0-926-21-953-43-55-62-46-355 175-147 110-280 207-295 215-66 34-114 16-255-93-447-344-460-351-512-303l-22 21v932c0 1e3 -5 978 76 1e3l39 23h615 615l39-23zm113-439c-2-29-3-6-3 52s1 81 3 53c2-29 2-77 0-105zm-1560-35c-2-21-4-6-4 32 0 39 2 55 4 38 2-18 2-50 0-70zm0-140c-2-16-4-5-4 22 0 28 2 40 4 28 2-13 2-35 0-50zm1560-155c-2-18-4-4-4 32s2 50 4 33c2-18 2-48 0-65zm-1560-540c-2-35-3-7-3 62s1 97 3 63c2-35 2-91 0-125zm1560-110c-2-24-4-7-4 37s2 63 4 43c2-21 2-57 0-80zm-782-190c-16-6-41-19-55-28-76-52-92-43-18 11 26 18 53 29 72 28l31-1-30-10zm165-69c64-43 91-71 44-45-33 19-119 86-110 86 4 0 33-18 66-41zm622-212c-8-46-10-37-10 68 1 117 1 118 10 52 6-43 6-87 0-120zm-1084 76c-18-15-35-30-38-33-17-18-82-61-86-57-9 9 125 113 149 116 5 1-6-11-25-26zm757-83c29-22 56-44 60-50 10-16-27 1-55 26-14 12-36 32-50 43-44 36-11 22 45-19zm-1160-118c-7-7-45 29-45 41 0 6 11 0 25-13s23-26 20-28z"/></g></svg>
