<svg fill-rule="evenodd" stroke-linecap="round" stroke-linejoin="round" viewBox="0 0 256 256" xmlns="http://www.w3.org/2000/svg"><g transform="translate(0 256) scale(.1 -.1)" fill="var(--icon-green, #66DDAA)"><path d="m1646 1708c-34-35-147-159-251-275-131-147-195-211-206-208-8 3-26-6-39-20-32-34-32-34-107 40-36 36-71 64-77 62-6-3-39 22-73 54-78 75-96 76-168 8-86-81-87-129-4-222 39-45 49-61 40-71s-3-20 24-43c19-17 35-35 35-41s20-31 45-55c25-25 45-49 45-54 0-16 58-65 69-59 6 4 28-7 49-24 90-72 132-54 288 123 60 67 158 176 219 243 348 381 354 389 355 448 0 35-7 46-58 98-81 80-104 80-186-4z"/></g><g transform="translate(0 256) scale(.1 -.1)" fill="var(--icon-slate, #606078)"><path d="m1080 2370c0-5-16-10-35-10s-35-4-35-9c0-4-20-11-45-14-47-5-235-92-235-108 0-5-6-9-13-9-8 0-22-9-32-20s-23-20-30-20c-6 0-26-16-45-35s-38-35-43-35c-12 0-67-56-67-68 0-4-20-28-45-52-24-24-42-46-40-50 3-4-4-15-15-25s-20-24-20-32c0-7-4-13-10-13-5 0-10-9-10-20s-4-20-10-20c-5 0-10-5-10-12 0-15-52-121-63-129-6-4-7-14-4-23 3-8 2-18-3-21-6-4-10-17-10-31 0-13-4-24-10-24-5 0-10-20-10-45s-4-45-10-45-10-77-10-210 4-210 10-210 10-15 10-34 5-38 10-41c6-3 10-19 10-35s5-32 11-35c6-4 8-13 5-21-5-13 9-50 25-64 3-3 13-23 23-45 33-76 41-90 57-105 8-8 19-22 23-30s13-26 21-39c18-32 215-230 240-242 31-14 58-32 76-51 9-10 20-18 24-18 7 0 98-40 137-61 10-5 26-9 36-9s23-5 28-10c6-6 34-13 62-17 29-3 52-10 52-14 0-5 32-9 70-9 40 0 70-4 70-10 0-5 25-10 55-10s55 5 55 10c0 6 30 10 70 10 39 0 70 4 70 9s29 12 65 16c36 3 67 11 70 16 4 5 17 9 30 9s25 4 27 8c3 8 110 62 123 62 4 0 15 8 24 18 18 19 45 37 76 51 11 5 33 23 49 40 17 17 35 31 41 31 14 0 55 42 55 56 0 6 18 28 41 49 22 22 45 49 50 60 13 29 32 58 50 75 14 14 26 38 60 118 8 17 17 32 21 32 5 0 8 11 8 24 0 14 5 28 10 31 6 4 10 12 9 18-3 19 13 77 22 83 5 3 9 23 9 44s5 42 10 45c14 8 14 385 0 385-5 0-10 20-10 45s-4 45-10 45c-5 0-10 15-10 34s-4 37-10 41c-5 3-6 13-3 21 3 9 2 19-3 23-15 10-34 50-34 70 0 10-7 24-15 31s-15 19-15 26c0 8-4 14-10 14-5 0-10 9-10 20s-4 20-10 20c-5 0-10 6-10 13 0 8-9 22-20 32s-18 21-15 25c2 4-16 26-40 50-25 24-45 48-45 52 0 12-55 68-67 68-5 0-24 16-43 35s-38 35-44 35c-5 0-22 11-36 25-30 29-176 105-201 105-10 0-19 5-21 11s-25 13-51 16-47 10-47 14c0 5-16 9-35 9s-35 5-35 10c0 6-72 10-195 10s-195-4-195-10zm385-101c5-5 24-9 42-9s33-4 33-10c0-5 11-10 24-10 14 0 28-4 31-10 3-5 13-10 22-10 23 0 183-79 183-91 0-5 6-9 13-9s26-13 42-30c15-16 31-27 35-25 9 5 132-120 125-127-3-3 8-17 25-31 16-14 30-33 30-41 0-9 3-16 8-16 4 0 12-9 17-19 50-96 75-151 75-164 0-9 5-19 10-22 6-3 10-17 10-31 0-13 5-24 10-24 6 0 10-10 10-23s6-29 13-36c17-17 17-463-1-469-6-2-12-19-12-38s-4-34-10-34c-5 0-10-11-10-24 0-14-4-27-9-30-4-3-11-24-15-46-3-22-11-40-16-40-6 0-10-6-10-13 0-8-9-22-20-32s-20-22-20-28c0-15-33-80-51-102-56-65-154-165-162-165-6 0-24-15-42-32-34-37-49-47-120-81-91-45-123-57-144-57-12 0-21-4-21-10 0-5-15-10-34-10s-38-5-41-10c-3-6-24-10-45-10s-42-4-45-10c-8-13-232-13-240 0-3 5-24 10-45 10s-42 5-45 10c-3 6-22 10-41 10s-34 5-34 10c0 6-9 10-21 10-20 0-89 28-99 40-7 8-76 40-87 40-6 0-18 9-28 20s-22 20-27 20-28 20-52 45c-25 25-48 45-53 45-13 1-73 59-73 72 0 6-15 25-33 42-32 30-38 41-73 121-10 22-21 42-24 45s-14 23-24 45c-9 22-21 48-26 57-6 10-10 27-10 38s-4 20-10 20c-5 0-10 15-10 34s-6 36-12 38c-18 6-18 430 0 436 6 2 12 19 12 38s5 34 10 34c6 0 10 11 10 24 0 14 4 27 9 30 4 3 11 23 14 43 9 52 65 162 100 194 9 9 17 21 17 26s11 20 25 33 25 28 25 35c0 14 104 117 111 110 3-2 18 9 34 25 16 17 35 30 42 30s13 4 13 9c0 12 160 91 183 91 9 0 19 5 22 10 3 6 17 10 31 10 13 0 24 5 24 10 0 6 15 10 33 10s37 4 43 10c20 20 358 20 379-1z"/><path d="m1735 1790c-3-5-19-10-35-10-27 0-160-117-160-141 0-5-25-34-55-64-30-29-55-57-55-62s-38-46-85-93-85-89-85-95-29-39-65-75c-61-60-64-65-48-82 12-14 19-15 30-7 10 9 18 8 31-4 21-20 36-5 277 263 231 258 223 250 254 250 36 0 51-17 51-59-1-57 26-24-390-485-243-270-243-270-289-263-22 3-53 14-69 25-26 19-30 20-45 5-12-13-19-14-30-5s-18 8-30-6c-16-17-13-21 38-72 53-52 57-54 119-58 47-3 73 0 102 14 37 18 114 86 114 102 0 4 32 39 70 77 39 38 70 74 70 80s36 46 80 90 80 84 80 90 38 48 85 95 85 88 85 93c0 4 20 28 45 53 25 24 45 51 45 59s3 15 8 15c14 0 32 54 32 97 0 24-6 53-12 65-23 40-86 98-107 98-11 0-23 5-26 10-3 6-10 10-15 10s-12-4-15-10z"/><path d="m785 1440c-3-5-14-10-24-10-22 0-101-76-101-96 0-8-4-14-10-14-31 0-2-139 35-170 8-7 15-17 15-23 0-5 23-32 51-60l52-51 66 79-33 35c-56 60-76 92-76 122 0 80 48 90 119 23 42-39 50-43 61-30 10 12 16 13 26 4 11-9 18-8 29 1 21 17 19 29-10 52-14 11-25 25-25 32 0 15-62 76-78 76-7 0-12 3-12 8 0 20-74 39-85 22z"/></g><g transform="translate(0 256) scale(.1 -.1)" fill="var(--icon-stroke, #24324B)"><path d="m1180 2364c-70-8-189-34-255-56-42-14-197-90-215-106-8-7-17-11-20-10s-16-9-30-22c-38-37-141-124-151-128-5-2-9-9-9-15 0-7-14-27-30-46-17-18-30-37-30-40 0-4-8-16-18-27-9-10-31-46-47-79-17-33-32-62-35-65-14-14-74-192-89-265-43-208-5-530 81-683 10-18 16-37 13-42-3-4 1-10 8-13 6-3 21-22 32-43 11-22 22-41 25-44s24-30 47-61c60-81 210-229 232-229 5 0 16-6 23-12 29-27 149-88 172-88 9 0 16-4 16-10 0-5 12-10 26-10s23-4 20-9 22-12 57-15c34-4 66-11 72-15 8-7 152-22 200-22 63 1 195 16 195 22 0 5 15 9 33 9 35 0 184 45 204 62 7 5 16 7 22 4 5-3 11 1 15 9 3 9 12 12 22 8 11-4 15-2 11 4-3 5 6 16 21 24s35 21 45 29 19 13 20 10c2-3 21 12 43 32 21 21 44 38 49 38 6 1 30 26 55 56s60 71 78 90c17 19 32 38 32 43s6 16 13 23c26 29 107 189 107 212 0 11 5 14 12 10 6-4 9-3 5 2-5 8 10 76 26 114 23 60 40 278 27 378-19 162-22 177-31 186-5 6-9 19-9 30 0 21-31 128-40 136-11 11-101 180-95 180 2 0-17 20-41 45s-44 52-44 60-3 14-7 13c-5-1-27 16-50 37-64 61-123 113-123 108 0-2-12 4-27 15-43 31-163 92-179 92-9 0-12 5-8 11 4 7 1 10-7 7s-36 4-64 14c-27 10-64 18-80 18-17 0-35 4-40 9-11 10-227 22-285 15zm195-64c-4-6 1-7 10-3 66 25 388-106 486-198 22-20 39-34 39-31 0 4 25-18 55-48 30-29 52-57 49-62-3-4 0-8 6-8 12 0 120-161 120-179 0-6 3-11 8-11 12 0 34-59 26-71-4-7-3-9 2-6 9 5 43-90 49-133 1-8 6-24 11-35 4-11 8-37 9-57 0-21 4-38 9-38 23 0-11-390-37-416-4-4-7-16-7-27 0-28-22-87-33-87-4 0-6-4-2-10 5-8-10-45-25-60-9-9-51-85-57-103-3-9-9-17-14-17s-9-5-9-10c0-36-299-318-300-283 0 4-4 3-8-3-4-5-37-24-73-42-62-29-85-38-199-73-60-19-403-20-422-1-6 6-22 12-34 12-31 0-86 25-77 35 5 4 0 5-9 2-19-7-181 71-216 103-12 11-25 20-29 20-20 0-223 210-223 230 0 6-3 10-7 10-5 0-13 10-19 23-7 12-33 64-59 115-47 93-54 111-81 211-33 122-24 431 16 526 4 11 21 57 36 102 15 46 36 92 46 103 10 10 18 23 18 27 0 27 195 271 207 259 3-2 17 9 32 25 16 16 31 29 35 29s16 9 28 19c80 76 290 149 458 161 153 11 192 11 185 0zm-535-64c0-2-39-27-87-57-48-29-120-84-160-122-86-82-99-80-15 2 89 89 262 205 262 177zm1e3 -94c29-25 18-20-42 19-98 63-118 82-48 43 29-16 70-44 90-62zm151-132c18-19 40-48 48-65 11-22 0-14-41 30-61 66-94 112-59 85 10-8 34-31 52-50zm-1538-66c0-3-13-23-30-43-16-21-48-72-70-114-42-78-57-98-40-51 33 87 140 246 140 208zm1697-172c8-18 13-35 10-38-5-5-74 117-85 151-7 19 59-80 75-113zm34-873c-11-24-20-41-20-37-1 12 31 89 35 85 3-2-4-24-15-48zm-1762-216c33-49 79-107 102-130 23-24 38-43 32-43-22 0-203 226-203 255 0 14 14-2 69-82zm1620-51c-21-29-74-88-87-96-16-10-15-1 1 16 7 7 30 34 51 61 37 45 63 60 35 19zm-206-206c-28-24-175-107-161-91 4 4 43 32 85 61 80 54 127 73 76 30zm-925-123c24-8 41-17 38-20-7-7-77 17-101 35l-20 14 20-7c11-4 39-14 63-22zm590-33c-9-6-38-12-65-15l-48-4 44 9c24 5 46 12 49 15s12 5 21 5c14-1 14-2-1-10z"/><path d="m1704 1763c-31-4-164-128-164-152 0-5-3-11-7-13-5-1-25-23-47-48-21-25-66-74-100-110-33-36-78-86-99-110-62-72-168-180-178-180-4 0-12 6-16 14-7 13-75 88-174 194-79 83-176 81-230-6-28-44-26-182 2-182 5 0 9-5 9-11s6-16 13-23c60-63 107-116 107-121 0-3 19-26 41-50 23-25 49-55 57-67 9-13 37-45 64-73l47-50h73c40 0 80 2 88 5 15 5 101 90 150 148 37 44 179 200 227 249 22 24 39 43 35 43-3 0 28 35 69 78 41 42 97 104 124 136 28 33 55 64 61 71 23 22 37 108 25 150-23 85-82 121-177 108zm86-43c28-15 60-74 60-111 0-44-20-75-116-180-44-47-171-189-284-315-288-321-280-314-324-314-54 0-83 20-161 111-38 44-112 129-163 188-118 135-129 182-61 251 54 54 85 45 171-52 40-46 101-112 135-147 75-76 69-78 183 51 404 460 470 528 507 528 19 0 43-4 53-10z"/></g></svg>
