<svg fill-rule="evenodd" stroke-linecap="round" stroke-linejoin="round" viewBox="0 0 256 256" xmlns="http://www.w3.org/2000/svg"><g transform="translate(0 256) scale(.1 -.1)" fill="var(--icon-coral, #FF8A65)"><path d="m1612 1568c-7-7-12-18-12-25s-4-13-10-13c-5 0-10-5-10-11 0-10-16-51-43-106-13-28 5-53 39-53 17 0 28 10 41 38 9 20 20 39 24 42s8 7 8 10c10 39 15 50 22 50 16 0 10 26-12 54-23 29-30 31-47 14z"/><path d="m1703 1186c-34-17-72-41-86-54-13-12-28-22-33-22-13 0-194-183-194-196 0-6-11-21-25-34s-25-29-25-37c0-7-4-13-9-13s-12-8-15-17c-13-33-31-63-38-63-4 0-11-18-14-40-4-22-10-40-14-40-8 0-22-34-24-57-1-6-5-15-9-19s-7-22-7-41c0-18-4-33-10-33-5 0-10-17-10-38s-3-42-7-45c-24-25 9-127 42-127 11 0 45 41 45 54 0 8 7 16 15 20 8 3 15 11 15 19 0 7 11 24 25 37s25 28 25 33c0 11 188 197 199 197 4 0 16 9 26 20s38 30 62 42 43 25 43 29 14 10 30 14c17 4 30 11 30 16s10 9 23 9c12 0 31 7 41 15 11 8 28 15 38 15s27 5 38 10c48 24 57 28 88 35 18 3 32 13 32 20s6 16 13 18c9 4 9 8 1 14-6 4-15 19-19 33s-18 38-31 53c-13 16-24 34-24 41s-11 23-25 36-25 29-25 36-11 21-25 32-25 23-25 27c0 14-35 34-55 33-11 0-48-15-82-32z"/><path d="m1156 1160c-20-22-36-50-36-63 0-12-6-34-14-49-12-23-12-29-1-38 25-21 60-8 63 23 2 15 8 27 13 27s9 16 9 35 4 35 8 35c5 0 9 16 9 35 0 45-7 44-51-5z"/></g><g transform="translate(0 256) scale(.1 -.1)" fill="var(--icon-yellow, #FFD85A)"><path d="m640 2161c0-6-11-11-24-11-14 0-28-4-31-10-3-5-14-10-23-10s-29-6-43-14c-14-7-39-16-55-20-35-9-74-43-74-66 0-9 34-49 75-89s75-77 75-83c0-5 16-24 36-41 20-18 40-41 45-52 10-21 31-57 39-65 10-10 30-45 47-82 10-21 21-38 25-38 3 0 9-13 13-30 4-16 11-30 16-30s9-5 9-11c0-10 22-64 40-99 4-9 11-35 15-58s11-44 16-48c5-3 9-20 9-38 0-17 4-36 9-41 5-6 11-21 13-35 2-19 10-26 31-28 39-5 57 14 57 59 0 22 5 39 10 39 6 0 10 47 10 120s-4 120-10 120-10 28-10 64-4 67-9 70c-5 4-12 29-16 56s-11 52-16 56c-5 3-9 12-9 21 0 15-24 75-41 103-5 8-12 22-16 30s-9 17-13 20c-7 6-40 75-40 84 0 8-8 19-59 77-23 25-41 51-41 56 0 6-8 13-17 17-10 3-24 9-30 12-7 3-13 1-13-5z"/><path d="m1310 1610c-22-24-37-50-57-92-10-21-21-38-25-38-3 0-9-13-13-30-4-16-11-30-16-30s-12-18-15-40c-4-22-10-40-15-40s-9-11-9-24c0-14-4-27-9-30-4-3-11-28-15-55-4-28-11-53-16-56-6-3-10-24-10-46 0-21-4-39-10-39-5 0-10-16-10-35 0-20 5-35 12-35 17 0 68 51 68 67 0 8 5 11 10 8 6-3 10 3 10 14 0 12 5 21 10 21 6 0 8 11 6 25-3 13 0 27 5 30 5 4 9 19 9 35s5 32 10 35c6 3 10 15 10 27 0 18 27 76 41 88 3 3 9 22 13 43 4 20 10 37 14 37s13 15 21 33c8 17 19 39 26 47 28 33 27 57-2 77-26 18-29 18-43 3z"/><path d="m380 811c-18-20-47-78-52-106-2-15-15-22-53-28-59-10-95-39-95-79 0-15 5-28 10-28 6 0 10-7 10-15s5-15 11-15 24-13 40-29c27-27 29-35 29-103 0-44 5-79 12-86 17-17 73-15 88 3 7 8 19 15 26 15 8 0 14 5 14 10 0 13 67 13 75 1 13-23 95-24 118-3 21 20 30 92 13 109-10 10-7 58 5 70 14 14 36 52 45 76 3 9 10 17 15 17 17 0 9 24-18 52-22 24-35 28-78 28-56 0-85 20-100 69-16 54-83 78-115 42z"/><path d="m830 652c0-65 38-104 84-86 27 10 18 29-34 73l-50 42v-29z"/></g><g transform="translate(0 256) scale(.1 -.1)" fill="var(--icon-green, #66DDAA)"><path d="m1250 2208c-47-32-73-72-73-109 0-41 77-119 119-119 38 0 124 87 124 125 0 33-86 125-117 125-11 0-35-10-53-22z"/></g><g transform="translate(0 256) scale(.1 -.1)" fill="var(--icon-purple, #BFA7FF)"><path d="m2132 1557c-40-12-127-88-135-116-12-47 104-191 153-191 42 0 186 115 216 172 14 27 13 30-28 74-65 71-123 88-206 61z"/></g><g transform="translate(0 256) scale(.1 -.1)" fill="var(--icon-orange, #FFB84D)"><path d="m494 619c-16-17-38-35-49-40-72-35-125-83-118-109 3-10 18-30 33-45 27-26 31-27 59-15 26 10 37 10 70-3 38-16 39-15 65 12 23 24 25 33 20 72s-3 49 20 75l25 31-27 26c-37 35-62 34-98-4z"/></g><g transform="translate(0 256) scale(.1 -.1)" fill="var(--icon-skin, #F0D8C0)"><path d="m1702 467c-42-43-40-67 8-111 49-44 45-45 97 6 51 50 52 57 12 103-41 46-74 46-117 2z"/></g><g transform="translate(0 256) scale(.1 -.1)" fill="var(--icon-slate, #606078)"><path d="m1244 2236c-129-72-100-256 43-273 49-5 53-4 95 35 42 40 43 42 43 105 0 56-4 69-24 91-48 51-111 68-157 42zm76-131c0-18-5-25-19-25-24 0-33 13-25 34 10 27 44 20 44-9z"/><path d="m1945 1927c-16-12-37-30-46-39-9-10-20-18-25-18-12 0-164-153-164-165 0-5-10-19-23-30s-26-27-30-35-16-28-27-45c-39-59-40-68-12-97 29-31 42-35 42-13 0 8 4 15 9 15s12 8 15 18c10 27 31 61 55 86 11 12 21 25 21 29 0 10 182 192 200 200 71 33 96 71 70 103-17 20-50 17-85-9z"/><path d="m1308 1609c-25-27-22-45 11-69 31-22 32-21 57 27 10 18 8 25-10 42-27 25-36 25-58 0z"/><path d="m2106 1571c-3-5-18-12-32-15-28-7-70-46-91-84-14-24-18-82-5-82 4 0 13-15 21-32 31-73 130-150 168-130 10 6 34 18 53 26 68 32 140 93 140 120 0 9 5 16 10 16 6 0 10 22 10 50 0 52-20 83-82 123-30 18-182 25-192 8zm149-111c22-8 24-13 15-30-16-30-97-82-123-78-24 3-59 61-51 83 11 27 111 43 159 25z"/><path d="m258 1374c-20-19-4-84 20-84 14 0 114-46 156-73 11-7 33-27 49-44 16-18 34-33 41-33 14 0 89-74 81-81-2-3 11-21 30-39 19-19 35-40 35-47s4-13 10-13c5 0 19-20 30-45s24-45 28-45c9 0 32-50 32-70 0-9 7-25 15-36 8-10 15-29 15-41 0-13 4-23 10-23 5 0 12-17 15-37 15-86 42-115 89-97 18 7 22 59 6 69-5 3-10 19-10 35s-4 31-10 35c-5 3-7 12-4 19 3 8 1 17-5 21-6 3-11 17-11 31 0 13-4 24-9 24s-12 14-16 30c-4 17-10 30-13 30-7 0-42 73-42 85 0 3-4 11-10 18-44 54-60 76-60 82 0 16-141 174-155 175-5 0-24 14-41 31-33 32-65 54-96 65-10 3-18 10-18 14s-12 11-27 15c-15 3-31 11-34 17-8 13-91 23-101 12z"/><path d="m1110 1107c0-9-4-17-10-17-15 0-12-66 4-80 54-44 86 37 35 86-23 22-29 24-29 11z"/><path d="m1676 489c-40-47-31-144 14-156 11-3 20-9 20-14s20-9 45-9c104 0 141 115 63 193-30 31-111 23-142-14z"/></g><g transform="translate(0 256) scale(.1 -.1)" fill="var(--icon-stroke, #24324B)"><path d="m1240 2212c-89-61-81-186 15-222 51-19 85-12 122 25 97 97-26 273-137 197zm109-48c59-50 20-144-59-144-29 0-80 48-80 75 0 30 21 65 47 79 40 22 57 20 92-10z"/><path d="m575 2119c-185-62-193-72-107-162 33-34 81-84 107-112 30-31 41-39 31-22-17 28-17 28 2 18 25-13 34-35 20-49-7-7-4-17 10-33 12-12 19-26 16-31-3-4-1-8 3-8 10 0 49-62 45-72-1-5 2-8 8-8 5 0 10-6 10-14s3-16 8-18c11-5 42-64 42-82 0-9 4-16 10-16 5 0 12-16 16-35 3-19 10-32 15-29s9-4 9-15 4-22 9-26c6-3 13-27 16-53 4-26 10-56 15-67s11-36 15-56c12-75 59-75 72-1 27 155-5 430-65 566-12 27-22 55-22 62 0 8-5 14-11 14s-8 7-5 16c3 8 2 12-4 9s-10 3-10 14c0 12-4 21-10 21-5 0-10 5-10 11 0 14-81 138-113 172-31 32-43 33-122 6zm151-121c89-133 156-309 173-450 25-213 13-275-28-142-50 160-172 363-315 526-90 102-94 108-73 108 7 0 46 13 87 29 88 34 86 35 156-71z"/><path d="m2e3 1917c-58-39-81-59-164-142-106-105-158-183-238-362-10-23-3-43 16-43 7 0 30 35 51 78 22 42 42 79 46 82 3 3 17 23 32 45 62 94 200 239 268 280 54 34 62 43 49 67-13 23-19 23-60-5zm29-20c-25-24-79-59-84-54-3 3 14 19 38 36 44 31 70 41 46 18zm-208-184c-62-69-68-73-36-28 28 39 63 75 73 75 3 0-14-21-37-47z"/><path d="m1314 1587c-24-29-39-53-60-94-9-18-21-33-26-33s-6-5-3-10c4-6 2-16-3-23-13-17-62-160-62-181 0-9-3-15-7-13-5 3-9-5-9-16-1-12-8-60-17-107-17-86-11-114 16-91 8 6 19 37 26 69 31 154 95 320 176 458 31 51 6 84-31 41z"/><path d="m2075 1542c-97-54-104-147-19-241 49-54 100-62 170-26 142 72 177 197 74 268-34 23-182 23-225-1zm204-30c57-29 70-63 40-106-31-46-152-126-179-119-29 8-97 89-105 124-18 81 150 150 244 101z"/><path d="m261 1352c-13-24-10-26 76-67 35-17 63-33 63-37 0-5 6-8 13-8 13 0 62-36 105-77 12-13 27-23 31-23 5 0 17-12 27-26 10-15 28-36 40-48 34-35 84-103 84-115 0-6 5-11 10-11 6 0 10-5 10-11s7-17 15-25c8-9 15-24 15-35s5-17 10-14c6 3 10 0 10-8s7-28 15-43c8-16 15-37 15-46 0-10 5-18 10-18 6 0 10-9 10-19 0-11 5-23 11-26 6-4 8-13 5-21s-2-14 2-14 13-20 20-45c12-47 17-51 41-36 12 8 13 16 2 53-23 83-74 233-80 238-3 3-15 21-25 40-47 87-129 200-180 248-31 29-56 58-56 63 0 6-4 8-8 5-5-3-25 9-44 27s-37 32-39 33c-20 5-69 37-69 45 0 6-4 8-9 5s-21 1-37 8c-55 27-81 30-93 8zm269-141c40-31 149-151 137-151-2 0-35 30-73 66-59 56-142 125-210 172-11 7 8-2 41-19 33-18 80-48 105-68zm246-304c14-27 23-51 21-53-5-6-80 112-90 141-11 33 41-34 69-88z"/><path d="m1755 1191c-3-5-19-12-35-16-17-4-30-10-30-14 0-3-12-12-27-18-85-37-323-282-323-333 0-6-4-8-10-5-5 3-10 0-10-7s-7-26-16-43c-30-57-74-176-74-200 0-13-4-27-10-30-5-3-10-22-10-41s-3-33-7-31c-13 8-8-102 5-115 10-10 17-7 37 14 14 15 25 30 25 33 0 25 230 285 252 285 7 0 43 28 74 58 7 6 16 12 21 12s26 12 46 26c21 14 41 23 44 20 3-2 14 4 26 15 11 10 28 19 37 19s20 4 26 9c15 14 163 63 172 57 17-10 36 42 22 59-7 8-9 15-4 15s4 4-2 8-37 46-68 94c-32 48-69 99-83 113-26 25-67 33-78 16zm122-161c32-47 58-89 58-93 0-5-39-21-86-36-91-30-229-98-276-138l-28-24 50 12-24-20c-24-22-47-28-36-11 33 53-136-89-207-176-86-102-90-101-52 12 80 241 233 439 430 556l79 47 17-22c10-12 44-60 75-107z"/><path d="m393 798c-22-27-43-78-43-102 0-27-3-28-85-41-22-4-50-16-62-27l-22-20 22-34c12-19 27-34 32-34 35 0 65-51 65-111 0-38-4-58-10-54-15 9-12-15 4-31 18-17 68-18 84-2 7 7 12 9 12 5s10 1 22 13c12 11 32 20 44 20 25 0 87-24 80-31-3-3 10-3 29-1 52 6 59 21 45 94l-13 63 42 59c46 67 48 76 23 99-21 19-117 24-127 7-11-17-32-11-38 11-4 16-3 18 9 8 11-9 14-8 14 5 0 9-4 16-10 16-5 0-10 6-10 14s-4 16-8 18c-5 2-15 17-23 33-16 33-58 46-76 23zm72-93c32-60 38-64 108-66 56-3 62-21 21-60-42-39-45-52-30-118 17-73 11-79-50-52s-80 26-121-5c-51-38-65-27-57 44l6 58-47 43c-53 49-53 67 2 76 64 10 70 17 102 98 20 50 31 47 66-18z"/><path d="m1689 484c-7-9-16-37-19-63-7-60 23-91 87-91 73 0 105 69 63 138-18 29-24 32-69 32-32 0-53-5-62-16zm103-21c27-31 30-57 8-81-42-44-119-10-105 46 12 50 67 69 97 35z"/></g></svg>
