<svg fill-rule="evenodd" stroke-linecap="round" stroke-linejoin="round" viewBox="0 0 256 256" xmlns="http://www.w3.org/2000/svg"><g transform="translate(0 256) scale(.1 -.1)" fill="var(--icon-blue, #5EC8F8)"><path d="m2079 1674c-91-44-153-89-144-104 3-4-1-13-9-19-12-10-10-21 7-74 24-75 29-279 8-367-25-106-103-250-181-333-40-42-69-77-64-77 4 0 1-8-7-17-39-50-39-54 13-140 44-74 115-153 137-153 4 0 41 28 82 63 279 239 405 497 404 832-1 199-32 324-98 393-23 23-44 42-47 42-4 0-49-21-101-46z"/></g><g transform="translate(0 256) scale(.1 -.1)" fill="var(--icon-green, #66DDAA)"><path d="m1365 2350c-3-5-14-10-23-10s-29-12-44-27c-28-27-28-27-28-163v-136l33-32c26-25 48-35 102-45 38-6 69-16 69-22 0-15 23-35 40-35 18 0 109-49 114-62 2-4 9-8 16-8s27-16 46-35 40-35 47-35 13-6 13-13 16-28 35-47 35-40 35-47 4-13 9-13 11-10 15-22c5-22 6-22 23-6 16 17 18 17 38-2l22-20 114 56c144 70 184 105 164 144-12 23-12 29 2 43 17 16 18 15-47 94-6 7-10 16-10 21 0 4-16 23-35 42s-35 39-35 45c0 14-42 55-56 55-5 0-32 23-59 50-27 28-55 50-62 50s-13 4-13 9-20 19-44 31c-24 11-50 27-56 35-6 7-25 17-42 20-16 4-55 20-86 37-33 17-80 32-110 35-29 3-55 10-58 14-7 12-121 11-129-1z"/></g><g transform="translate(0 256) scale(.1 -.1)" fill="var(--icon-purple, #BFA7FF)"><path d="m2055 1654c-49-24-103-58-120-74l-30-30 30-30 30-29 100 50c55 28 111 61 125 74l24 25-29 30c-35 36-21 38-130-16z"/><path d="m1809 823c-41-43-99-98-128-122l-52-44 95-97 28 27c19 18 26 33 22 45-4 14 15 41 70 99 100 106 102 110 67 143l-27 26-75-77z"/></g><g transform="translate(0 256) scale(.1 -.1)" fill="var(--icon-skin, #F0D8C0)"><path d="m1180 2370c0-6-26-10-59-10s-62-4-65-9-31-12-61-16c-30-3-55-11-55-16s-8-9-17-9c-10 0-66-24-125-53l-108-54 23-20c16-16 28-19 44-12 12 4 25 4 28-1 6-10 45-1 45 11 0 5 9 9 20 9s36 9 56 21c20 11 59 23 85 26 27 3 49 10 49 14 0 5 16 9 35 9s35 5 35 10c0 6 33 10 80 10 77 0 91-5 70-26-5-5-11-61-12-124l-3-115-40-3c-55-4-60-14-27-45 35-34 77-29 118 14 26 27 27 32 31 164l4 135-48 50c-45 47-103 70-103 40z"/></g><g transform="translate(0 256) scale(.1 -.1)" fill="var(--icon-slate, #606078)"><path d="m1173 2366c-14-17 22-56 51-56 15 0 16-3 6-15-11-13-8-15 15-15 21 0 26-4 21-16-3-9-6-70-6-137v-122l-82-2c-45-1-91-6-102-11-65-31-103-45-116-45-8 0-22-8-30-17s-31-23-50-32-48-30-64-47c-17-17-36-31-43-31s-13-6-13-13-18-31-40-52-40-43-40-49c0-5-7-17-15-26-23-25-75-131-75-152 0-10-4-18-9-18s-12-26-16-57c-3-32-10-66-15-75-12-22-13-185-1-192 5-3 12-40 16-81s11-75 16-75 9-11 9-25 5-25 10-25c6 0 10-9 10-20s4-20 9-20 12-8 15-17c9-26 30-60 51-83 10-11 14-20 10-20-12 0 120-130 148-146 12-7 39-21 60-31 20-10 37-21 37-25 0-3 13-9 30-13 16-4 32-11 35-16 4-5 17-9 30-9s25-6 27-12c4-10 55-13 213-13s209 3 213 13c2 6 14 12 26 12s26 4 31 9c20 19 85 25 85 7 0-9 3-16 8-16 7 0 10-4 46-77 11-21 27-45 37-53 24-22 34-60 16-60-9 0-17-3-19-7-7-17-96-55-140-60-27-3-48-10-48-14 0-5-15-9-34-9s-38-5-41-10c-8-13-352-13-360 0-3 5-22 10-41 10s-34 4-34 9-17 11-38 14c-20 4-69 22-107 42-39 19-76 35-82 35-7 0-13 4-13 8 0 5-16 14-35 22s-45 24-57 37-26 23-31 23c-12 0-137 126-137 137 0 5-15 24-33 41-19 18-40 48-47 67-8 19-17 35-22 35-4 0-8 4-8 10 0 17-34 90-42 90-5 0-8 9-8 20s-5 20-11 20-9 9-6 20 1 23-4 26-9 16-9 30c0 13-4 24-10 24-5 0-10 16-10 35s-4 35-10 35-10 38-10 93c0 60-4 97-12 105-10 10-10 17 0 32 6 11 12 49 12 85 0 37 4 65 10 65s10 20 10 45 5 45 10 45c6 0 10 11 10 24 0 14 4 27 9 30s7 15 4 26 0 20 6 20 11 9 11 20 3 20 8 20c8 0 42 73 42 90 0 6 5 10 10 10 6 0 10 6 10 13 0 8 9 22 20 32s20 23 20 30c0 6 11 22 25 35s25 27 25 32c0 12 125 138 137 138 6 0 18 9 28 20 11 12 35 28 54 38 20 9 42 22 49 29s20 13 28 13 14 5 14 10c0 6 8 10 17 10 14 0 13 4-6 24-36 39-125 21-184-38-14-14-30-26-35-26-4 0-52-46-106-102-129-136-141-150-173-220-10-21-21-38-25-38-5 0-8-6-8-12 0-7-11-35-25-62s-25-58-25-68-4-18-9-18-13-25-16-55c-4-30-11-58-16-61s-9-34-9-69-4-67-10-70-10-50-10-106c0-59 4-99 10-99s10-26 10-59 4-62 9-65 12-31 16-61c3-30 11-55 16-55s9-8 9-18 11-41 25-68 25-55 25-61c0-7 3-13 8-13 4 0 15-17 25-37 23-50 38-74 60-94 9-9 17-20 17-25 0-13 193-204 205-204 6 0 17-9 25-20s19-20 26-20c6 0 19-9 30-21 18-20 93-59 113-59 6 0 11-4 11-10 0-5 11-10 24-10 14 0 28-4 31-10 3-5 17-10 31-10 13 0 24-4 24-9s26-12 58-16c31-3 65-10 74-15 10-6 38-10 63-10s45-4 45-10 42-10 105-10 105 4 105 10 22 10 49 10c28 0 52 4 55 9s31 12 61 16c30 3 55 11 55 16s9 9 20 9 34 8 53 19c18 10 47 22 64 25 18 4 37 14 43 21 6 8 32 24 56 35 24 12 44 26 44 31s6 9 13 9c8 0 24 11 37 25s28 25 34 25c14 0 126 112 126 126 0 7 16 26 35 43s35 37 35 45c0 7 7 16 15 20 8 3 15 15 15 26s3 20 8 20c8 0 42 73 42 90 0 6 3 10 8 10 10 0 32 50 32 72 0 10 4 18 9 18s13 25 16 55c4 30 11 58 16 61s9 21 9 40 5 34 10 34c6 0 10 63 10 169 0 103-4 172-10 176-5 3-10 24-10 45s-4 41-9 44-12 31-16 61c-3 30-11 55-16 55s-9 8-9 18c0 22-22 72-32 72-5 0-8 5-8 11 0 19-32 83-54 107l-20 22-42-41c-35-34-41-46-33-61 9-16-1-23-82-63-51-25-95-43-97-40-3 3-15-4-27-15-20-18-23-19-35-5-10 12-16 13-26 4-15-12-19-35-6-41 15-7 62-109 62-137 0-17 5-33 10-36 6-3 10-28 10-56 0-27 5-49 10-49 6 0 10-30 10-70s-4-70-10-70c-5 0-10-18-10-39 0-22-4-43-10-46-5-3-10-19-10-36 0-25-43-124-61-139-3-3-9-12-13-20-27-58-109-150-133-150-7 0-18-9-25-20s-21-20-30-20-21-6-25-13c-11-17-49-37-71-37-10 0-23-5-29-11-5-5-36-13-67-16s-59-10-62-14c-7-12-214-12-214 0 0 4-23 11-52 14-28 4-56 11-62 17-5 5-19 10-29 10-11 0-32 11-49 25-16 14-36 25-44 25-7 0-32 20-55 45s-48 45-55 45c-8 0-14 6-14 14s-13 26-30 39c-16 14-30 30-30 36 0 5-6 16-12 23-21 21-58 99-53 108 3 5 1 11-5 15-5 3-10 17-10 30s-4 27-10 30c-5 3-10 35-10 70s-4 67-10 70c-13 8-13 62 0 70 5 3 10 28 10 56 0 27 5 49 10 49 6 0 10 15 10 34s5 38 10 41c6 4 8 10 5 15-6 10 10 43 36 75 9 11 20 30 23 42 7 22 147 164 169 172 7 2 14 7 17 11 10 14 101 60 120 60 10 0 20 5 22 11s41 13 91 16c48 3 90 10 93 14 7 12 94 12 94 0 0-4 32-11 72-14 39-3 74-10 77-15 8-12 69-23 75-13 13 20-79 89-135 102l-57 13-1 124-2 123 103 119h-51c-28 0-51 5-51 10 0 16-183 12-197-4zm1e3 -760c0-2 10-41 22-87 26-103 31-337 9-434-52-230-163-429-303-544-35-28-66-51-69-51s-27 36-54 80l-47 81 96 99c103 108 178 238 207 360 21 89 16 292-8 368l-21 63 66 34c58 30 102 43 102 31z"/></g><g transform="translate(0 256) scale(.1 -.1)" fill="var(--icon-stroke, #24324B)"><path d="m1160 2349c0-7-21-10-55-7-30 1-56-1-58-5-1-4-16-9-32-10-17-1-33-6-36-10s-16-9-27-10c-12-1-22-5-22-9s-7-8-15-8-30-9-50-20c-19-11-42-17-51-13-12 4-15 3-10-5s0-12-13-12c-12 0-21-5-21-11s-7-9-15-5c-8 3-15 2-15-2 0-5-33-31-72-59-63-44-250-223-233-223 3 0-3-10-15-22-11-12-20-26-20-30 0-5-4-7-9-4-5 4-12-7-16-24-4-16-11-30-16-30s-9-7-9-15-4-15-10-15c-5 0-10-9-10-21 0-13-4-18-12-13-7 5-8 3-3-5 4-7-2-31-13-54-25-50-66-188-81-273-14-77-15-288-1-279 6 4 10-12 10-42 0-26 10-79 21-118 11-38 22-79 25-90 4-11 12-34 20-52 8-17 14-38 14-47s5-16 10-16c6 0 10-7 10-15s3-15 8-15c4 0 16-19 27-43 11-23 28-49 37-58 10-9 18-19 18-23 0-18 128-153 184-193 28-21 61-49 73-63 13-14 23-22 23-17 0 4 17-3 38-16 92-58 249-111 380-129 107-14 385-11 375 5-4 6 28 11 65 10 6-1 12 3 12 8s14 9 31 9 28 4 24 10 5 10 19 10 26 5 26 10c0 6 6 10 13 10s31 9 54 19c22 11 46 21 53 23s24 13 37 25c14 12 35 25 46 29s32 17 46 30 28 24 32 24c6 0 139 132 154 153 6 8 25 35 43 60 69 97 147 277 175 402 21 96 10 454-14 480-5 5-9 18-9 30 0 51-54 178-123 290-45 73-167 226-167 209 0-3-26 18-58 47-32 30-77 63-100 74s-42 26-42 33-5 10-10 7c-6-4-16-2-23 3-7 6-32 18-57 28s-47 20-50 24c-7 8-136 50-155 50-8 0-15 3-15 8 0 4-27 5-60 4-34-2-60 0-60 6 0 5-48 10-110 10-71 1-110-3-110-9zm115-198c0-162 3-156-82-156-28 0-46-3-40-7 7-4-1-8-18-8s-55-9-84-20c-30-11-58-17-62-14-5 3-9 1-9-5 0-5-16-15-35-22s-35-17-35-21-6-8-13-8-32-16-54-35-43-31-47-28c-3 3-6-1-6-10s-7-17-15-17-15-6-15-13c0-8-10-22-21-33-44-40-129-181-129-215 0-11-4-18-9-14-6 3-9-3-9-12 1-10-7-53-16-95-18-79-15-310 4-328 4-3 12-25 18-50 12-41 60-148 72-160 3-3 17-22 33-42 29-39 147-161 147-152 0 3 13-4 29-15 16-12 34-21 40-21s11-5 11-12c0-6 3-8 6-5 4 4 25-3 48-14 23-12 49-25 58-30 10-5 29-9 43-9 15 0 24-4 21-8-2-4 71-8 164-8 93-1 167 3 164 8-3 4 11 8 30 8 20 0 36 5 36 11s10 9 23 8c12-2 38 7 57 19s39 21 43 19c11-3 69-107 60-107-4 0 0-6 9-12 8-7 24-29 34-48 11-19 25-41 32-48 6-7 12-20 12-28 0-15-107-71-117-61-3 3-12-1-21-9-8-9-23-13-34-11-10 3-16 2-13-2 2-5-21-14-53-21-31-7-73-16-92-21-50-13-263-11-334 2-118 23-342 112-354 141-2 5-10 8-18 8s-14 5-14 10c0 6-6 10-13 10s-24 11-39 25-30 25-33 25c-7 0-115 108-115 115 0 3-16 22-35 42s-35 43-35 50-4 13-8 13c-30 0-143 274-161 390-18 111-3 440 19 440 4 0 10 18 13 39 5 40 93 233 108 239 5 2 9 10 9 17 0 8 9 20 20 28s18 16 15 19 8 19 25 36c16 18 30 34 30 36 0 18 165 166 185 166 3 0 16 9 28 21 12 11 59 38 103 59 72 35 110 47 269 88 22 5 69 9 105 8l65-1v-144zm178 129c222-45 389-132 537-280 103-103 200-249 178-268-11-9-236-122-243-122-1 0-22 29-45 65-114 175-280 281-493 315l-77 13v148c0 174-15 160 143 129zm-543-24c-14-7-36-16-50-20-14-3-7 3 15 14 45 22 74 27 35 6zm-245-132c-22-20-58-50-80-66l-40-31 40 39c43 42 107 94 115 93 3 0-13-16-35-35zm1369-113c16-17 27-33 25-36-3-2-30 21-60 52-34 35-43 48-24 35 17-11 43-34 59-51zm-594-82c37-11 50-16 115-44 57-25 195-123 195-138 0-3 16-21 35-40s35-42 35-52c0-9 4-14 8-11 9 5 67-103 83-154 58-195 44-350-48-531-31-62-134-189-153-189-4 0-22-13-39-29-18-17-42-33-54-37s-24-10-27-13c-8-10-74-40-128-57-26-9-99-18-163-21-197-10-357 56-497 202-117 122-176 249-187 401-9 133 11 249 60 345 15 30 33 64 39 76 6 13 14 23 19 23 4 0 7 5 7 11 0 23 172 177 191 172 5-2 9 1 9 6s15 14 33 22c17 7 34 15 37 18 40 45 321 71 430 40zm349-175c28-30 51-61 51-67 0-7-3-7-8-1-5 5-32 35-62 67-29 31-48 57-42 57 5 0 33-25 61-56zm424-81c3-10 17-50 30-89 112-325 17-740-227-1e3 -62-66-177-162-194-162-6 0-38 46-72 103-34 56-67 110-73 120-10 15-7 21 23 45 202 156 293 347 292 608-1 92-5 125-26 188-14 42-26 79-26 82 0 7 241 123 256 123 7 1 14-7 17-16zm-1479-816c21-26 36-50 34-53-6-5-60 62-78 96-15 29-8 23 44-43zm1e3 -65c-10-19-37-44-61-57-8-4 3 11 25 34 43 45 51 50 36 23zm-1341-124c29-42 35-56 19-40-23 20-76 102-66 102 2 0 24-28 47-62zm265-261c6-5-4-2-20 6-17 8-50 34-75 57l-45 42 65-48c36-26 70-52 75-57zm1105-34c-25-18-38-10-21 11 7 8 19 12 27 9 12-4 11-8-6-20z"/></g></svg>
