<svg fill-rule="evenodd" stroke-linecap="round" stroke-linejoin="round" viewBox="0 0 256 256" xmlns="http://www.w3.org/2000/svg"><g transform="translate(0 256) scale(.1 -.1)" fill="var(--icon-white, #FFFFFF)"><path d="m1160 2333c-21-8-100-85-100-98 0-6 13-23 28-38l28-27 23 24c20 21 32 24 132 28 104 4 111 6 139 33l30 29-27 28c-26 27-29 28-132 27-58 0-113-3-121-6z"/><path d="m642 2097-32-33 28-27c18-17 35-25 45-22 19 8 49-7 107-55 77-63 87-66 121-34 35 33 34 34-70 113-141 107-149 109-199 58z"/><path d="m1197 1783-27-29 27-26c23-21 41-26 106-32 53-4 101-15 147-35l69-28 52 54-41 37c-61 55-121 77-220 83-84 5-85 5-113-24z"/><path d="m412 1510c-88-8-117-21-156-73l-20-27 58-60 21 20c16 15 35 20 76 20 72 0 116 14 151 47l28 27-27 28c-15 15-32 27-37 27-6-1-49-5-94-9z"/><path d="m1430 897c-39-14-84-20-157-21-96-1-104-3-128-26l-25-26 30-29c66-63 283-40 358 38l32 33-27 25-28 25-55-19z"/><path d="m468 713c-16-16-28-35-28-41 0-7 51-62 113-122 131-128 150-135 215-76l37 35-29 30c-20 21-33 28-40 21-35-35-94 5-201 134l-40 48-27-29z"/><path d="m1097 342-27-28 81-79 251-4 89 82-28 29c-18 19-30 25-37 18-13-13-279-13-292 0-7 7-19 1-37-18z"/></g><g transform="translate(0 256) scale(.1 -.1)" fill="var(--icon-purple, #BFA7FF)"><path d="m1135 2331c-17-10-43-32-57-49-23-27-28-29-39-16-19 24-29-1-29-79 0-61-2-69-20-74-20-5-20-7-4-24 10-11 15-20 13-22-19-12-102-47-112-47-6 0-46 27-87 60-107 86-107 86-251-56-152-151-155-161-60-269 31-35 51-68 51-82 0-30-28-85-39-78-5 2-25-13-44-34-29-33-44-40-89-46-44-6-60-14-95-50l-43-42v-137-137l91-97 84-7c91-7 94-9 68-37-12-13-14-21-6-29 6-6 9-17 7-24-3-7-1-16 5-20 6-3 11-24 11-46 0-41 9-49 30-24 7 9 15 13 18 11 2-3-21-35-52-73-88-106-85-119 58-260 139-138 149-141 246-63 60 48 96 66 70 35-13-16-8-19 23-15 10 1 35-6 55-16s44-18 52-19c12 0 16-17 18-77 3-72 11-93 27-67 4 6 22-7 43-32 50-58 82-69 209-69 89 0 114 3 139 19 52 32 84 82 84 132 0 99 7 112 68 138 98 40 108 39 185-24 103-83 114-81 245 48 147 144 153 162 77 252-80 96-79 90-42 177l32 76 156 7 50 52 49 52v121c0 135-7 158-63 207-25 22-48 32-87 36-61 7-67 11-50 32 10 12 10 15-2 15-18 0-51 34-42 43 13 13-18 38-31 27-10-8-16-2-25 25-13 40-16 33 56 120 77 92 73 104-84 258-132 129-135 130-236 54-39-30-77-57-84-61-8-5-44 6-86 25l-74 33-6 51c-3 27-6 64-6 81 0 25-11 42-54 83l-55 51h-118c-97 0-123-3-148-19zm290-672c172-64 254-200 243-403-11-208-127-338-326-368-88-13-170 0-256 40-270 127-268 582 4 714 102 50 230 56 335 17z"/></g><g transform="translate(0 256) scale(.1 -.1)" fill="var(--icon-slate, #606078)"><path d="m1094 2366c-47-26-84-91-84-149 0-36 22-45 57-24 6 4 15 2 18-4 5-7 21 2 44 25l38 37 238-6 10-92c12-104 42-151 114-174 20-7 57-22 83-35 62-31 54-33 146 36 102 77 115 77 194 3 102-98 106-121 34-208-77-93-75-80-21-135 27-27 52-47 56-45 19 12 31-25 16-49-11-17-13-26-5-34s8-15 0-25c-23-27 34-64 112-71 38-4 73-9 78-12 10-6 11-255 1-252-5 0-15-1-23-5-8-3-45-7-82-9-61-4-71-7-103-38-19-19-35-39-35-44 0-6-16-47-35-91-39-90-41-83 40-180 70-84 66-114-28-202-77-73-102-72-194 2-78 64-87 65-193 20-66-28-135-83-146-119-4-10-9-51-13-90l-6-71-105-3c-114-3-150 2-150 20 0 7-12 24-27 40-25 26-28 27-45 11-17-15-19-15-36 0-30 28-35 20-29-49 4-60 8-70 43-105 22-23 48-39 61-39s23-4 23-10c0-13 257-14 264-1 3 5 21 12 39 15 19 4 48 21 68 42 32 33 34 39 39 127 4 73 8 92 20 92 8 1 30 8 49 18 47 24 55 22 94-18 19-19 39-35 44-35 6 0 16-7 23-15 18-21 158-21 166 0 4 8 11 15 17 15 16 0 187 172 187 187 0 7 5 13 10 13 12 0 13 107 1 114-5 3-12 18-15 32-4 15-23 42-42 60-34 34-47 85-23 99 6 4 8 13 5 20-7 19 26 45 57 45 14 0 28 4 31 8 3 5 22 9 42 10 78 3 121 34 130 94 4 21 10 38 15 38s9 59 9 130c0 72-4 130-8 130-5 0-12 19-18 42-6 28-17 46-30 53-12 6-28 16-36 23-9 7-34 13-57 14s-44 5-47 10c-3 4-17 8-31 8-31 0-64 26-57 45 3 7 1 16-5 20-24 14-11 65 23 99 19 18 38 45 42 60 3 14 10 29 15 32 12 7 11 114-1 114-5 0-10 6-10 12 0 17-201 218-217 218-7 0-13 5-13 10 0 6-22 10-50 10-27 0-50-3-50-8 0-4-15-13-32-21-18-7-37-19-43-25-5-6-25-23-44-37l-33-26-118 59v65c0 80-35 163-68 163-5 0-15 7-22 15-16 19-332 20-366 1z"/><path d="m655 2170c-3-5-14-10-23-10-22 0-222-200-222-222 0-9-4-20-10-23-5-3-10-31-10-61s5-54 10-54c6 0 10-7 10-16 0-10 24-40 52-67 31-29 48-52 40-55-6-2-12-15-12-28s-4-24-9-24-11-8-14-19c-6-26-53-46-112-49-88-5-128-29-140-83-4-16-11-29-16-29s-9-65-9-150 4-150 9-150 12-13 16-29c12-54 52-78 140-82 67-4 129-37 119-64-3-7-1-16 5-20 24-14 11-65-24-99-19-19-35-39-35-44s-7-15-15-22c-17-14-22-140-5-140 6 0 10-6 10-13 0-8 47-60 104-115l105-102h65c36 0 68 5 71 10 4 6 10 8 14 5 5-2 16 4 26 15s24 20 31 20 22 12 33 26c17 22 26 25 51 21 40-9 47 9 16 42-14 15-24 30-21 32 3 3-8 18-23 33l-29 27-63-51c-89-71-111-69-196 13-87 85-88 113-8 210l57 68-29 30c-25 26-29 27-44 14s-19-13-38 8l-22 23 40 39c49 48 49 56 2 107-38 40-42 42-128 52l-89 11-6 252 32 7c17 3 50 6 73 6 33 0 48 6 69 28l27 29-20 18c-14 12-17 22-10 29 6 6 16 4 28-7 17-16 20-15 44 11 30 31 68 114 68 147 0 12-22 48-51 80-89 102-88 124 11 219 88 85 101 86 200 6 41-33 79-60 85-60 27 0 184 76 212 104l33 31-41 48c-23 26-44 46-47 43s-11-1-19 5c-10 9-13 7-13-9 0-15-16-28-59-50l-59-29-33 25c-19 15-38 32-42 39s-14 13-21 13-21 9-31 20c-20 22-98 29-110 10z"/><path d="m1190 1776c-187-40-367-233-400-428-52-297 252-604 552-560 108 16 179 57 276 155 108 112 143 183 150 313 8 157-34 257-158 379-132 128-269 174-420 141zm165-136c3-5 13-10 22-10 30 0 131-57 168-95 36-38 75-128 75-174 0-22 5-43 10-46 12-8 13-62 1-69-4-3-11-31-14-62-4-37-13-64-26-78-12-12-21-27-21-32 0-43-165-144-235-144-25 0-46-5-49-12-5-10-7-10-12 0-3 7-24 12-49 12-122 0-285 152-285 264 0 20-4 36-10 36s-10 27-10 60 4 60 10 60 10 11 10 25c0 28 31 105 42 105 5 0 8 6 8 13 1 25 106 119 140 125 8 1 32 5 53 8 20 3 37 10 37 15 0 12 127 11 135-1z"/></g><g transform="translate(0 256) scale(.1 -.1)" fill="var(--icon-stroke, #24324B)"><path d="m1146 2363c-49-8-106-50-106-78 0-9-4-14-8-11-5 3-7-7-5-22s0-54-4-87l-8-59-62-31-61-32-38 31c-21 17-49 41-61 53-13 12-23 19-23 16 0-4-5-2-12 5-16 16-81 15-121-2-33-14-191-168-214-208-35-64-13-148 59-222 42-42 46-57 23-80-8-8-15-21-15-30 0-55-36-76-132-76-65 0-141-45-130-78 2-6-1-12-7-12-7 0-11-52-11-160s4-160 11-160c6 0 9-6 7-12-13-37 63-74 166-82 72-6 82-12 92-56 3-14 9-33 15-42 12-24 11-47-4-63-16-19-27-32-60-76-23-30-27-46-27-98v-62l96-99c105-109 169-144 214-120 12 6 24 9 27 6 3-2 14 4 26 14 11 11 24 17 29 14 4-3 8-1 8 4s19 22 43 39c42 30 42 30 72 12 17-10 40-18 53-18 12-1 22-6 22-11 0-6 6-9 13-8 9 2 12-19 12-80 0-45 3-82 8-82 4 0 7-6 7-13 0-18 49-61 86-76 21-8 73-11 160-8 160 5 161 5 204 44 34 31 35 35 40 125 4 67 9 92 18 90 6-1 12 2 12 6 0 5 18 15 40 22s40 17 40 22c0 21 39 4 80-36 112-107 187-95 334 54l96 98v55c0 30-6 65-12 78-16 30-71 103-80 107-12 6-9 33 9 82 24 65 26 67 104 74 103 11 169 47 161 90-2 10 1 23 7 29 15 15 15 260-1 290-6 12-14 29-18 37-15 34-69 58-144 65-84 7-86 9-115 82-16 42-18 55-8 65 19 20 70 90 85 115 6 13 12 48 12 78v56l-97 101c-54 55-110 106-125 114-32 16-104 19-113 3-4-5-12-8-17-7-6 2-21-5-32-16-12-12-39-35-60-52l-37-30-52 23c-29 13-59 28-67 32-11 6-16 32-20 97-4 75-9 94-28 114-12 13-22 28-22 32 0 5-5 6-11 2-6-3-15-1-19 6-9 14-242 24-304 13zm304-40c27-19 40-33 40-47 0-6-14 3-31 20-25 23-42 30-92 35l-62 6 60 1c42 2 68-3 85-15zm-12-42c26-27 30-38 36-118 7-88 22-123 53-123 7 0 40-13 73-30 75-38 65-40 158 30 114 86 122 85 238-36 124-129 126-142 40-243-66-76-68-80-46-130 11-23 24-60 30-81 15-55 33-70 88-70 161-2 182-26 182-206v-132l-35-31c-33-29-41-31-108-31-75 0-117-16-117-46 0-8-14-44-30-81-16-36-30-67-30-69 0-1 30-40 66-86 84-107 83-113-33-230-124-125-142-127-253-33-64 54-75 54-185 8-81-34-93-55-95-158-1-104-33-125-190-125-167 0-186 15-197 150-7 98-9 100-103 139-98 41-104 40-183-24-102-82-116-80-234 38-120 121-122 136-32 246 33 41 58 79 55 85-2 6-19 47-36 91-39 96-31 91-142 100-133 10-138 17-138 194 0 182 15 201 161 201 73 0 89 14 123 110 34 98 34 97-25 165-88 101-87 117 10 220 138 146 157 151 253 74 93-76 90-75 193-30l90 39 5 88c9 151 25 164 201 164h127l30-29zm-668-168c14-9 39-29 57-46 17-16 46-33 65-37 26-6 29-9 15-15-18-7-26-3-141 80-47 34-44 51 4 18zm1e3 -13c-24-16-63-43-86-61l-42-32-76 33c-42 18-78 37-81 42-11 17 6 21 23 6 24-20 111-58 134-58 11 0 36 15 56 33 51 45 84 67 102 67 8 0-5-13-30-30zm220-66c24-25 41-47 39-50-3-2-26 18-52 46-26 27-43 50-38 50s28-21 51-46zm-1570-131c-6-15-7-43-4-61 4-23 3-32-4-27-14 8-14 70-1 96 16 28 21 23 9-8zm1664-100c-10-15-35-50-55-76-21-27-38-59-38-70-1-20-1-21-11-4-8 13-7 23 3 36 7 10 34 46 61 81 30 40 48 73 49 94l1 31 4-32c3-20-3-43-14-60zm-1728-303c-90-10-110-25-142-105-10-27-12-27-12-7-3 71 64 123 154 121l60-2-60-7zm1869-1c14-7 27-18 30-25 4-11-1-10-19 2-14 9-48 20-77 24l-53 8 47 1c26 0 58-4 72-10zm-2e3 -387c7-8 27-23 43-34 25-15 27-18 10-18-46 0-96 62-94 117 0 26 1 25 15-11 8-21 20-46 26-54zm2e3 -2c-20-38-69-61-127-58-40 1-40 1-8 5 19 2 45 5 56 8 26 6 84 63 85 84 0 10 3 11 5 4 3-6-2-26-11-43zm-1805-76c15-38 13-40-15-14-14 13-44 27-68 31-41 6-41 7 16 8 53 1 58-1 67-25zm-9-235c-23-29-41-56-41-62s-3-8-6-4c-11 11 59 117 78 117 6 0-9-23-31-51zm1619-41c34-57 22-115-35-168-23-22-22-18 9 29 41 60 44 82 17 134-23 46-18 48 9 5zm-1616-157c9-8 26-28 37-45s-5-4-35 28c-31 33-56 66-56 75 0 10 8 4 18-14 11-16 26-36 36-44zm1240-87c52-43 62-54 52-54-2 0-26 18-52 40-27 22-56 40-65 40-23 0-115-43-139-65-18-16-20-16-20-2 0 9 6 19 13 24 12 8 137 60 148 62 4 1 32-20 63-45zm295 29c-53-69-154-131-177-109-3 3 2 6 12 6 29 0 89 37 131 79 40 42 57 54 34 24zm-1433-44c10-12 33-30 49-40 19-12 24-19 14-19-18 0-110 79-93 80 6 0 19-10 30-21zm239 10c-12-19-88-69-104-69-9 0 7 14 36 30 28 16 54 34 58 40 3 5 8 10 11 10s2-5-1-11zm184 0c24-9 31-17 31-37-1-24-2-25-11-9-6 10-25 27-42 38-36 21-26 25 22 8zm447-248c-24-26-92-41-146-31-43 7-42 8 25 9 51 1 78 6 100 21 38 25 43 25 21 1z"/><path d="m1207 1720c-261-44-427-332-338-586 118-334 562-395 763-105 150 216 76 530-152 646-88 45-181 60-273 45zm240-55c28-15 57-33 64-41 8-10-2-7-24 6-21 12-63 31-95 41-47 15-51 18-26 18 16 1 53-10 81-24zm-79-11c66-19 132-61 183-116 43-47 81-116 72-131-3-7-2-8 2-4 18 16 36-114 24-173-14-69-29-110-40-110-5 0-8-3-7-7 5-17-34-73-77-111-149-131-361-126-503 11-52 50-96 122-86 138 4 7 3 9-3 6-14-9-36 108-30 161 11 90 47 161 120 235 37 37 71 65 76 62s11 0 13 6c4 13 126 47 171 48 16 1 54-6 85-15zm-365-82c-49-49-93-132-114-212-6-25-14-39-16-33-7 18 26 123 50 163 26 42 106 130 119 130 5 0-13-22-39-48zm646-113c34-78 20-74-17 4-18 38-26 64-18 58 7-6 24-34 35-62zm-673-434 38-50-38 35c-37 34-86 119-86 150 0 8 11-7 25-35 13-27 41-72 61-100zm660 57c-9-17-20-33-26-37-5-3 0 12 12 34 12 23 23 39 26 37 2-2-4-18-12-34zm-391-202c27-7 27-8 5-8-14 0-36 4-50 8-34 11 3 11 45 0z"/></g></svg>
