<svg fill-rule="evenodd" stroke-linecap="round" stroke-linejoin="round" viewBox="0 0 512 512" xmlns="http://www.w3.org/2000/svg"><g transform="translate(0 512) scale(.1 -.1)" fill="var(--icon-yellow, #FFD85A)"><path d="m1147 2343c-15-15-15-18 0-28 14-10 14-14-1-43-9-17-16-49-16-72 0-31-4-40-17-40-14 0-14-2 2-20s20-19 33-6 20 7 57-42c79-107 215-222 264-222 19 0 21-3 12-14-29-35 55-23 103 15 23 18 29 19 44 8 9-7 4 1-12 19-22 24-26 34-18 45 9 10 5 21-17 48-40 48-113 164-146 229-45 90-69 110-135 110-31 0-61-5-68-12-9-9-18-6-40 15-26 25-29 26-45 10z"/><path d="m3927 2333c-21-21-29-25-39-15-7 7-37 12-68 12-65 0-90-20-130-100-36-72-90-160-136-221-32-42-40-59-32-67 9-9 4-20-18-44-16-18-21-26-11-19 15 12 20 11 37-4 10-9 36-23 57-30 24-8 40-21 43-35l5-22 23 25c20 21 21 25 7 37-14 11-11 15 23 30 49 22 171 136 227 212 37 49 44 55 57 42s17-12 33 6 16 20 2 20c-13 0-17 9-17 40 0 23-7 55-16 72-15 29-15 33 0 43 14 11 14 13-2 28-17 15-20 15-45-10z"/></g><g transform="translate(0 512) scale(.1 -.1)" fill="var(--icon-blue, #5EC8F8)"><path d="m2117 1409c-286-39-607-216-755-416-102-140-144-257-101-286 34-25 58-3 29 28-11 12-20 25-20 28 0 4 14-8 31-27 16-19 39-38 50-41 16-5 18-10 8-21-9-11 1-19 57-45 277-125 593-218 849-250 209-27 632-10 785 31 19 5 80 21 135 34 114 29 297 90 400 134 168 72 168 71 156 86-10 11-8 16 9 21 11 3 35 18 53 33 17 15 26 20 19 11-20-26 8-43 37-22 69 48-79 304-260 447-142 112-444 251-404 185 3-5-1-6-10-3-11 4-12 10-6 18 8 9-12 18-78 34-84 21-172 30-158 16 4-4-9-24-28-46-19-21-35-45-35-53 0-9-11-37-24-63-117-229-516-207-605 34-12 32-34 71-48 86-14 14-22 31-19 36 10 17-5 19-67 11z"/></g><g transform="translate(0 512) scale(.1 -.1)" fill="var(--icon-skin, #F0D8C0)"><path d="m3e3 3948c-14-18-52-71-85-117-147-212-305-341-517-423-41-16-77-27-80-25-2 3 7 24 21 46 15 23 35 63 45 90l20 48-52 52-66-61c-206-188-460-294-786-328-103-11-112-14-142-43-33-33-53-120-53-228 0-37-12-51-25-29-19 31-104 4-165-53-36-34-38-35-12-6l32 35-31 30-31 29 3-26c3-17-7-39-29-66-128-162-88-406 87-527 37-26 81-30 66-6-3 5 14 1 37-10 56-26 106-25 133 0l22 20 41-82c55-111 107-189 193-287 56-66 68-85 59-96-16-19-11-24 82-99 62-50 85-63 95-55 7 6 10 16 6 22-5 8 33-15 66-40 2-1-2-9-8-17-10-12-7-18 19-31 33-17 66-13 54 6-4 8-3 9 5 5 9-6 9-11 1-21-14-16 17-34 125-75l70-26 3-48c3-38 6-45 16-37 11 9 14-4 18-66 14-239 279-411 487-318 110 50 231 201 231 289 0 14 3 16 13 7 11-8 18-6 32 9 17 18 17 20 1 20-15 0-16 10-14 72l3 72 70 26c101 38 119 49 105 65-14 17 8 26 31 12 24-15 123 41 107 60-18 22 6 41 31 26 21-13 50 4 136 79 34 31 38 38 26 51-11 14-4 26 54 89 81 89 161 207 211 311l37 78 21-21c28-26 77-26 134 0 23 11 40 15 37 10-13-21 26-21 59-1 116 72 192 245 165 376-14 70-37 119-76 165-18 22-27 42-24 59l3 26-31-29c-17-16-28-33-24-39 3-5-8 0-24 12-35 26-107 39-126 22-19-15-27-4-27 40 0 158-41 248-123 270-63 16-196 81-268 130-146 98-278 270-370 483-28 65-72 126-90 126-4 0-19-15-34-32zm-931-1154c18-17 21-80 6-104-6-10-25-15-55-15-53 0-65 12-65 67 0 46 21 68 65 68 18 0 41-7 49-16zm1150 0c18-17 21-80 6-104-6-10-25-15-55-15-53 0-65 12-65 67 0 46 21 68 65 68 18 0 41-7 49-16z"/></g><g transform="translate(0 512) scale(.1 -.1)" fill="var(--icon-slate, #606078)"><path d="m2512 4753c-19-4-21-7-11-19 9-12 6-14-21-14-29 0-31 2-19 17 27 32-223 3-411-48-68-18-80-24-75-39 4-14-4-21-40-33-25-9-43-12-40-6 33 53-200-52-327-149-174-131-331-299-307-329 6-7 16-10 21-7s4-3-3-15c-12-18-15-19-30-5s-20 10-52-43c-53-88-82-149-116-247-59-166-107-520-66-486 13 11 15 9 15-15s-2-26-16-14c-21 18-13-143 14-293 11-60 15-101 9-107-5-5-6-15-2-21 5-8 16-3 36 16 28 27 28 28 12 48-10 12-4 9 13-7 68-62 185-5 198 96 4 29 11 77 17 108l11 55 121 12c356 35 583 137 813 367l110 111-8-58c-4-32-17-85-28-119l-21-62 54-56 61 31c188 95 392 292 531 513 43 69 56 84 61 69 100-288 280-529 507-681 65-43 221-113 252-113 21 0 32-33 46-137 9-76 15-92 41-119 38-40 120-54 152-26 11 9 17 12 13 6-9-15 49-69 58-54 4 6 2 17-4 24s-9 15-7 17c10 10 46 262 46 319 0 54-2 61-15 50s-15-7-15 25c0 33 2 36 15 25 40-33-8 312-66 476-118 334-349 594-674 760-101 51-160 66-141 35 3-5-3-7-14-4-16 4-18 8-9 19 15 18 14 18-43 38-138 46-353 86-467 86-37 0-42-2-31-15s8-15-20-15c-26 0-30 3-21 14 17 20-43 31-107 19zm-1e3 -416c0-1-26-27-57-57l-58-55 55 58c50 53 60 62 60 54zm2250-84c0-8-9 0-50 45l-45 47 48-45c26-24 47-45 47-47z"/><path d="m1130 2192c0-22-5-32-15-32-17 0-19-12-5-26 6-6-1-14-21-21-25-10-29-10-19 2 22 27-11 27-65 0-228-111-350-321-380-652-9-96 3-220 23-240 15-15 149-15 217 1 187 42 244 63 340 127 79 53 151 126 192 196 24 42 25 82 2 67-8-4-9-3-5 5 6 9 11 9 22 0 18-15 47 47 67 146 11 58 17 70 36 75l23 5-49 45-18-20-19-20-30 28c-17 15-57 47-88 70-32 23-75 66-96 95-22 28-49 61-61 71-19 17-20 21-6 36 13 15 12 19-15 45l-30 29v-32z"/><path d="m4e3 2173c-9-11-14-23-11-26 4-4-8-24-27-45s-51-60-72-85c-20-26-59-61-85-78-68-46-112-90-112-112 0-16-3-17-15-7-20 17-20-12 1-93 49-191 198-360 384-438 134-56 389-96 440-69 45 24 33 326-20 492-52 163-154 302-273 371-51 30-91 31-67 2 11-13 10-14-4-9-19 7-20 16-4 32 11 11-64 52-97 52-7 0-15 7-17 16-3 14-5 14-21-3z"/></g><g transform="translate(0 512) scale(.1 -.1)" fill="var(--icon-stroke, #24324B)"><path d="m2380 4746c-3-2-34-7-70-11-73-7-81-8-130-19-19-4-42-8-50-10-90-17-218-59-310-103-96-45-242-130-248-145-2-4-9-8-15-8-34 0-281-259-336-351-39-67-109-206-121-245-7-21-17-45-23-51-5-7-7-13-4-13s0-15-8-33c-12-30-40-160-51-242-19-132-5-410 26-559 10-47 9-51-19-80-71-76-97-198-67-316 25-97 76-165 169-227 44-29 44-30 30-57-8-15-15-47-15-71 0-38-2-43-26-48-26-5-77-28-149-66-79-40-253-231-253-276 0-7-7-26-15-43-9-17-18-40-20-52-2-11-6-24-9-28-5-9-11-35-27-122-12-69-10-309 3-333 18-35 279-12 394 34 46 18 158 72 164 78 3 4 31 25 63 49 31 23 57 46 57 50s10 18 23 32c64 69 130 214 143 315 6 41 8 44 50 54 24 6 44 15 44 20 0 29 37 17 87-26 139-121 279-206 443-267l65-24-4-69c-4-80 1-73-47-78-22-2-48-6-59-9s-29-7-41-10c-142-31-368-131-469-208-77-59-192-173-201-200-3-10-10-18-15-18s-9-6-9-14c0-7-9-24-19-38-11-13-32-55-47-91-35-86-27-103 65-145 146-67 180-82 186-82 3 0 25-8 48-19 68-30 183-72 212-77 15-3 43-11 61-19 19-8 34-12 34-9s8 0 19-5c16-9 229-56 304-67 140-21 218-26 377-26 138 1 207 5 302 18 24 3 54 8 68 10 14 1 45 7 70 13 25 5 61 12 80 15s60 13 90 21c30 9 60 17 65 19 178 50 329 107 535 202 90 42 102 56 89 112-10 44-63 151-94 188-5 7-21 27-34 44-114 149-405 327-596 365-22 5-44 9-50 11-30 8-64 15-100 20-22 3-41 7-43 9-6 5-6 134-1 138 2 2 27 12 54 22 142 51 292 135 379 210 89 78 126 104 140 99 9-3 16-10 16-14s20-13 45-20c34-9 45-17 45-32 0-40 31-140 68-216 46-96 175-232 262-276 139-69 288-106 430-106 78 0 96 8 98 40 8 140-1 300-19 374-5 23-11 46-12 51-1 6-6 16-10 23-5 6-6 12-2 12 3 0-2 14-11 31-8 17-17 40-19 51-10 52-120 187-211 258-49 39-138 82-191 94-21 4-26 14-30 63-2 27-10 57-17 67-11 18-7 23 46 59 31 21 68 53 80 70 12 18 25 34 28 37 4 3 19 34 33 70 49 121 23 282-59 363-19 19-23 32-19 54 47 225 52 514 14 682-12 50-13 56-29 116-6 22-12 45-13 50-1 6-5 15-8 20-4 6-12 28-19 50-16 49-107 230-124 248-7 7-26 33-41 57-47 74-241 260-338 324-99 64-272 151-345 171-26 8-72 21-102 30s-64 18-75 20c-54 12-73 16-105 21-19 3-48 8-65 11-37 6-439 15-445 9zm408-87c649-71 1120-486 1228-1081 29-158 19-552-15-607-5-8-24-9-61-4l-55 8-7 50c-29 197-38 219-90 230-298 64-600 374-717 737-39 118-64 116-139-12-139-236-313-410-509-509-35-17-63-29-63-26s9 32 20 65c27 80 42 188 29 212-20 37-51 21-121-61-203-239-481-369-857-403-160-15-152-7-178-168l-19-115-53-8c-30-4-56-6-58-4s-11 44-20 93c-24 127-23 397 1 524 112 576 551 983 1156 1069 41 6 86 13 100 15 57 8 338 5 428-5zm227-751c15-48 106-220 156-295 131-194 364-372 556-422 47-13 47-14 65-121 32-197 9-460-57-650-188-539-649-855-1220-837-684 21-1195 558-1198 1257 0 136 16 307 31 322 4 3 57 11 117 18 328 34 580 140 788 330l68 62-20-50c-11-27-34-73-51-101-115-186 235-58 482 177 83 80 227 256 251 309 13 29 24 29 32 1zm-1775-1097c0-122 37-333 75-433 23-58-169 12-225 82-134 169-63 427 118 430h32v-79zm2733 65c146-61 173-281 53-423-55-65-242-129-221-75 39 103 75 306 75 430v82h30c17 0 45-6 63-14zm-2594-643c31-64 101-178 145-233 43-54 31-80-36-80-48 0-68 10-136 68-117 98-163 193-128 260 16 30 20 32 74 32h58l23-47zm2516 17c32-61 14-115-71-208-99-110-184-147-242-106l-22 15 43 57c49 64 104 154 138 225l23 47h58c54 0 59-2 73-30zm-2646-272c29-31 77-74 107-94 63-44 64-50 29-162-76-240-297-398-586-419l-86-6-6 49c-3 27-1 91 4 143 28 296 151 479 387 577l57 24 20-27c11-15 44-53 74-85zm2854 50c130-68 240-218 282-382 20-81 36-246 28-302l-6-47-86 6c-318 23-570 231-607 500-6 43-6 44 43 75 51 33 156 136 187 184 20 31 45 26 159-34zm-1737-513c54-8 142-15 194-15s140 7 194 15c55 8 103 15 108 15 16 0 9-173-9-224-88-244-442-265-568-34-26 47-30 65-33 156-3 60 0 102 5 102s54-7 109-15zm-171-224c87-264 442-345 640-146 42 41 95 129 95 157 1 38 14 40 121 18 316-65 599-254 709-474 45-90 48-86-107-154-763-336-1419-338-2176-4l-149 65 6 30c17 84 135 235 257 327 144 108 416 216 576 229 6 1 19-21 28-48z"/><path d="m1862 3112c-89-32-157-97-133-126 20-24 48-19 90 15 68 54 147 69 238 46 57-15 83-8 83 23 0 54-171 80-278 42z"/><path d="m3e3 3120c-55-17-71-45-42-73 13-13 22-13 76 1 82 20 153 6 226-44 55-38 79-40 97-11 15 25-56 89-130 117-58 21-172 26-227 10z"/><path d="m1928 2844c-79-42-76-169 6-208s166 14 166 104c0 91-93 147-172 104z"/><path d="m3078 2844c-79-42-76-169 6-208 106-50 206 58 151 164-28 54-101 75-157 44z"/><path d="m2435 2526c-57-41 60-115 158-99 76 12 131 71 92 99-15 11-24 10-56-6-21-11-52-20-69-20s-48 9-69 20c-32 16-41 17-56 6z"/><path d="m2177 2223c-19-18-4-54 35-88 202-172 494-174 691-4 38 33 47 47 45 68-5 40-41 40-87-2-170-153-424-156-594-7-42 37-74 49-90 33z"/></g></svg>
