<svg fill-rule="evenodd" stroke-linecap="round" stroke-linejoin="round" viewBox="0 0 256 256" xmlns="http://www.w3.org/2000/svg"><g transform="translate(0 256) scale(.1 -.1)" fill="var(--icon-coral, #FF8A65)"><path d="m1727 1062-27-28 56-54h173c112 0 170-3 166-10-9-14 58-13 73 2 9 9 8 16-4 29-11 12-12 19-4 24s3 17-16 36l-28 29h-181-181l-27-28z"/><path d="m970 975-34-35 3-212 2-213 63-65h206 206l62 65 4 217 3 217-59 61h-211-211l-34-35z"/></g><g transform="translate(0 256) scale(.1 -.1)" fill="var(--icon-yellow, #FFD85A)"><path d="m1586 1611-38-39 5-262c4-181 9-265 17-276 10-11 10-17 0-29-7-9-11-16-9-18 55-31 86-36 107-15 10 10 75 14 240 15l227 3 65 73v252 251l-72 84h-252-252l-38-39z"/></g><g transform="translate(0 256) scale(.1 -.1)" fill="var(--icon-blue, #5EC8F8)"><path d="m472 2317-42-43v-183-184l87-87h550 549l74 76v195 195l-76 74h-550-550l-42-43z"/></g><g transform="translate(0 256) scale(.1 -.1)" fill="var(--icon-green, #66DDAA)"><path d="m1645 1870c-4-6-196-10-544-10h-537l-27-28c-15-16-24-31-20-35 11-12 1123-8 1123 3 0 6 6 10 13 10 8 0 21 8 31 18 15 18 15 20-2 35-21 20-28 21-37 7z"/><path d="m993 1e3c-9-11-7-18 11-35 21-20 33-21 197-21h175l27 28c15 16 24 31 20 35-14 14-417 7-430-7z"/></g><g transform="translate(0 256) scale(.1 -.1)" fill="var(--icon-purple, #BFA7FF)"><path d="m440 1865c-14-17 10-55 37-55 7 0 13-4 13-10 0-7 198-10 575-10 316 0 575 4 575 8 0 5-10 18-23 30-23 21-26 21-532 22-469 1-571 5-616 24-9 4-21 0-29-9z"/><path d="m1687 732-37-38v-210-210l76-74h205 205l74 76v210 210l-76 74h-205-205l-37-38z"/></g><g transform="translate(0 256) scale(.1 -.1)" fill="var(--icon-orange, #FFB84D)"><path d="m2165 1650c-4-6-13-9-20-6-20 7-72-51-57-66 17-17 17-509 0-526-9-9-7-16 7-32 13-15 15-23 6-33-14-17-5-27 25-27 33 0 74 25 90 55 16 32 19 130 4 120-12-8-7 418 5 448 10 23-48 87-60 67z"/></g><g transform="translate(0 256) scale(.1 -.1)" fill="var(--icon-skin, #F0D8C0)"><path d="m1530 1595c0-8-4-15-10-15s-10-93-10-260 4-260 10-260 10-11 10-23c0-24 27-57 46-57 24 0 31 22 18 58-9 27-13 107-14 288 0 230-2 252-18 267-23 21-32 21-32 2z"/><path d="m1081 1566c-35-37-31-273 5-307l24-22v21c0 12 5 22 10 22 16 0 12 271-4 292-12 16-14 16-35-6z"/><path d="m814 1266c-39-21-83-73-73-83 7-7 4-23-10-49-29-53-32-615-4-646 42-46 46-14 53 336 4 235 8 310 18 314 6 2 12 10 12 18s6 14 14 14c7 0 19 7 26 15s22 15 33 15c20 0 20 1-3 25-13 14-20 25-16 25 5 0 3 7-4 15-14 17-17 17-46 1z"/><path d="m1e3 1e3c0-5-11-10-24-10-36 0-53-26-32-49 16-18 20-18 54-4 47 20 404 15 441-6 20-11 26-11 38 1 18 19 9 39-28 61-35 20-449 27-449 7z"/></g><g transform="translate(0 256) scale(.1 -.1)" fill="var(--icon-slate, #606078)"><path d="m462 2365c-43-23-52-57-45-163 5-86 9-100 31-125l26-27 28 27c26 25 28 32 28 105v78h530 530v-170-170h-530-530v23c0 13-13 36-29 51l-28 27-32-36c-42-49-44-109-3-148l28-27h599c637 0 635 0 635 47 0 7 5 13 10 13 17 0 13 422-4 455-29 56-19 55-645 54-449-1-581-4-599-14z"/><path d="m1610 1670c0-5-6-10-13-10-16 0-67-52-67-68 0-7-4-12-10-12s-10-93-10-260 4-260 10-260 10-11 10-23c0-37 70-86 89-63 7 8 7 16 1 22-7 7-2 18 14 33l25 23-6 252-5 251-26 28-26 27h281 281l7-27c3-15 6-118 5-229 0-128 3-205 9-209 7-4 6-13-2-25-10-17-7-24 21-52l32-33v286 285l-76 74h-272c-175 0-272-4-272-10z"/><path d="m395 1631c-16-10-34-27-40-39-5-12-13-22-17-22-14 0-10-1e3 5-1061 36-68 37-69 204-69 245 0 233-19 233 370 0 184-4 290-10 296-13 13 2 59 28 87 14 16 14 19 0 33s-19 13-52-19c-20-20-39-49-42-66-4-17-11-34-15-37-5-3-9-137-9-299v-294l-36-7c-59-11-182 1-203 20-20 19-35 126-34 256 1 76 1 260 1 404 0 55 4 81 13 88 9 6 10 11 3 14-15 7-5 254 11 270 12 13 577 25 589 14 4-4 9-227 7-274-1-5-7-3-15 3-10 8-16 9-21 1-3-5-33-10-67-10-49 0-109-16-137-36-1-2 9-19 24-38 28-36 27-36 82-8 13 7 55 12 95 12 98 0 118 7 118 36 0 13 5 24 10 24 13 0 14 264 1 288-5 9-12 25-15 35-3 11-15 21-26 24s-20 9-20 14-143 8-317 8c-280-1-322-3-348-18z"/><path d="m934 999c-17-19-19-42-22-266-4-328-19-313 300-313 309 0 297-12 298 310v235l-25 28c-29 30-47 34-64 13-9-10-8-16 4-26 23-19 18-43-15-75l-30-29v-163-163h-170-170v172 172l-31 33c-31 31-31 33-16 56 27 41-24 55-59 16z"/><path d="m1692 785c-12-7-34-22-47-35l-24-23v-242-241l27-30 27-29h250 250l26 25 25 25v251 250l-41 32-42 32-214-1c-152-1-221-5-237-14zm418-300v-185h-180-180v185 185h180 180v-185z"/></g><g transform="translate(0 256) scale(.1 -.1)" fill="var(--icon-stroke, #24324B)"><path d="m449 2341c-14-15-24-32-21-39 2-7-1-12-7-12-19 0-15-370 5-408 38-76-1-72 637-72h570l67 51v228 228l-52 48-1173 3-26-27zm1185-37c14-13 16-47 16-214 0-194-1-199-22-214-34-24-1109-24-1132 0-19 19-17-7-22 215-4 176-3 187 17 207l20 22h554c490 0 555-2 569-16z"/><path d="m1584 1642c-41-35-43-50-44-333-1-297 3-319 59-327 12-2 19-8 16-13-4-5 99-9 259-9 171 0 266 4 266 10s7 10 16 10c19 0 40 23 55 60 12 28 14 514 3 546-4 10-18 31-32 47l-26 27h-275c-248-1-278-2-297-18zm569-62c18-26 14-514-4-536-19-23-516-20-541 3s-28 494-2 531c15 22 18 22 274 22 247 0 259-1 273-20z"/><path d="m398 1614c-15-8-32-23-38-34-14-26-14-1068 0-1085 5-7 8-15 5-18-3-4-2-5 1-2 4 2 16-2 28-10 16-12 55-15 170-15 203 0 186-30 186 323 0 184 4 293 12 318 12 42 70 109 93 109 7 0 15 5 17 12 3 8 39 14 110 16 99 4 107 6 112 26 4 16 9 264 6 322 0 6-8 21-19 32-18 22-23 22-337 22-262-1-324-3-346-16zm635-50c22-8 26-269 5-277-7-2-51-5-98-6s-86-6-88-12c-2-5-9-9-16-9-25 0-99-74-117-118-17-39-19-71-19-332 0-253-2-289-16-294-30-12-262-7-270 6-13 20-12 1e3 1 1e3 6 8 19 17 30 20 26 8 567-1 588-9z"/><path d="m975 1e3c-53-29-53-30-54-267-2-236 4-279 43-296 13-6 114-8 253-5 307 7 279-22 275 283-4 265-2 257-41 280-35 21-440 25-476 5zm463-273c2-198 1-221-15-232-21-16-394-18-424-3-18 10-19 23-19 223 0 154 3 216 12 225s69 12 228 10l215-3 3-220z"/><path d="m1665 753-25-28v-240c1-255 1-255 52-288 24-15 55-17 235-17 308 0 301-7 302 313 0 128-4 217-10 217-5 0-9 6-9 14s-12 24-26 35c-25 20-39 21-260 21h-233l-26-27zm487-40c26-24 28-426 1-455-23-26-422-28-447-2-14 13-16 48-16 229s2 216 16 229c24 24 419 24 446-1z"/></g></svg>
