<svg fill-rule="evenodd" stroke-linecap="round" stroke-linejoin="round" viewBox="0 0 256 256" xmlns="http://www.w3.org/2000/svg"><g transform="translate(0 256) scale(.1 -.1)" fill="var(--icon-yellow, #FFD85A)"><path d="m1246 2364c-3-9-6-60-6-113 0-85 3-100 20-116 20-18 21-18 45 5 23 22 25 30 25 117 0 55-4 93-10 93-5 0-10 7-10 15 0 21-56 20-64-1z"/><path d="m1146 2e3c-3-4-24-11-47-15-31-5-39-10-31-19s-3-20-44-41c-31-16-89-60-129-98-41-38-79-67-85-63s-18 1-26-6c-17-14-79-140-89-179-16-68-5-428 14-439 5-3 13-19 16-34 4-15 11-27 16-27s9-6 9-13c0-8 11-24 25-37 13-12 22-26 20-30-3-4 18-29 45-54 28-26 50-51 50-55 0-5 6-14 14-20 8-7 17-24 21-39s11-30 16-33c6-3 13-31 16-62 3-32 10-57 16-57 5 0 7-14 5-30-5-37 7-47 30-28 13 11 34 13 92 8 59-5 79-3 92 8 15 13 20 13 34 1 22-18 84-19 106-1 14 12 20 12 40-2 30-21 131-22 148-1 12 14 16 13 36-6 31-29 34-25 39 62 2 41 8 75 14 77s11 13 11 24c0 30 28 75 100 158 36 41 71 84 77 95 28 44 52 98 58 128 4 18 12 38 19 46 16 20 15 319-1 329-7 4-15 27-19 50s-10 42-14 42c-5 0-11 14-15 30-4 17-11 30-16 30s-9 5-9 11c0 33-167 199-200 199-5 0-10 4-10 8 0 5-18 17-40 28-22 10-40 22-40 25 0 4-20 10-45 13-24 4-47 11-50 17-8 11-262 12-269 0z"/><path d="m2107 1603c-51-3-73-9-87-23-22-22-26-40-10-40 6 0 10-7 10-15 0-12 13-15 60-15 33 0 60 4 60 10s13 10 29 10c46 0 61 10 61 40 0 25-28 46-50 38-3-1-36-3-73-5z"/></g><g transform="translate(0 256) scale(.1 -.1)" fill="var(--icon-blue, #5EC8F8)"><path d="m1e3 582c-53-54-52-103 1-155 22-22 48-37 61-37 23 0 23-1 8-18-29-32-20-62 32-114l50-50 232 7 45 47c45 48 57 91 32 116-9 9-6 12 13 12 35 0 88 57 96 102 5 32 1 41-37 82l-43 46h-226-227l-37-38z"/></g><g transform="translate(0 256) scale(.1 -.1)" fill="var(--icon-orange, #FFB84D)"><path d="m634 2124c-5-21 0-33 30-63 20-20 36-40 36-44 0-12 66-77 77-77 14 0 43 34 43 51 0 8-16 30-35 49s-35 39-35 45c0 21-56 65-83 65-20 0-28-6-33-26z"/><path d="m1832 2107c-23-23-42-46-42-51 0-4-11-17-25-28-47-37-22-103 30-80 14 7 25 16 25 21s20 30 44 55c48 49 61 75 51 106s-37 24-83-23z"/></g><g transform="translate(0 256) scale(.1 -.1)" fill="var(--icon-slate, #606078)"><path d="m1114 2e3c-39-9-94-33-94-42 0-3-13-9-30-13-16-4-30-11-30-16s-9-13-21-17c-26-10-179-162-179-178 0-29 27-34 50-9 16 17 27 22 35 15s28 5 66 37c30 25 77 61 104 79 65 42 152 131 140 142-6 5-24 6-41 2z"/><path d="m335 1590c-28-31-1-60 57-60 27 0 48-4 48-10 0-14 84-12 98 2 16 16 15 53 0 65-7 6-52 13-99 16-76 5-89 4-104-13z"/><path d="m695 1535c-4-28-12-56-19-64-13-17-12-271 2-280 5-3 13-25 17-48 8-50 13-52 45-18 19 21 21 28 12 52-24 64-23 266 2 325 5 11-2 27-22 49l-30 34-7-50z"/><path d="m1164 1226c-41-35-41-35-38-97 3-54 7-67 33-93l31-30 30 29c17 16 29 34 26 40-2 5 5 19 15 30 24 27 11 88-28 127l-29 28-40-34z"/><path d="m970 655c-9-10-9-15-1-15 15 0 14-47-1-52-9-3-13-29-13-84 0-83 8-99 61-130 10-6 20-22 22-35s6-31 9-39 5-19 4-23c-3-14 56-66 83-73 14-3 26-10 26-15s52-9 115-9c70 0 115 4 115 10s12 10 26 10c45 0 94 59 94 113 0 41 3 46 34 61 55 26 98 140 65 173-5 5-13 36-16 67-6 63-8 64-38 36-34-32-506-32-540 0-26 24-29 24-45 5zm520-150c0-13-29-15-205-15s-205 2-205 15 29 15 205 15 205-2 205-15zm-111-191c2-2-19-4-48-4s-50 4-47 9c5 8 85 4 95-5z"/></g><g transform="translate(0 256) scale(.1 -.1)" fill="var(--icon-stroke, #24324B)"><path d="m1260 2351c-16-32-13-186 5-201 32-26 45 5 45 104 0 106-22 149-50 97z"/><path d="m1115 1934c-22-8-54-21-72-29-17-8-36-15-42-15s-11-4-11-9-10-13-22-17c-12-3-33-17-47-30-13-12-27-22-30-20s-14-5-23-16c-10-10-15-18-12-18s-11-17-31-37c-61-64-135-239-135-320 0-21-4-33-8-26-4 6-7-17-7-52s3-61 7-59c3 2 9-22 12-53 10-97 11-101 19-96 4 2 7-2 7-10 0-16 46-103 68-129 8-10 12-18 8-18s13-22 39-49c86-90 143-186 131-218-3-8-1-11 4-8 6 4 10-7 10-25 0-16 5-39 12-49 9-14 8-23-5-42-41-58-8-203 48-211 11-2 21-10 22-18 8-67 17-91 44-121l30-34 123-3c108-4 130-1 170 17 50 22 83 74 71 112-7 22 10 49 32 49 52 0 84 106 57 185-17 49-19 108-3 85 8-11 9-8 5 15-7 34 16 109 29 98 4-5 5-3 1 4-6 11 4 35 26 67 12 17 111 140 124 152 6 7 24 38 40 70 16 33 31 61 34 64 5 5 9 21 17 82 3 21 8 36 12 34 3-2 6 49 6 114s-3 114-6 108c-6-9-17 34-22 89-1 12-4 19-6 17-5-5-40 65-41 80 0 5-11 24-26 43-14 18-23 33-20 33 2 0-23 28-57 63-34 34-64 62-65 60-2-1-26 12-52 28-105 64-161 79-299 78-80-1-141-6-166-15zm188-11c-13-2-35-2-50 0-16 2-5 4 22 4 28 0 40-2 28-4zm123-44c290-89 461-408 373-695-27-90-65-155-137-236-68-78-107-151-131-245l-17-68-49-3c-90-6-95-2-95 81 0 39 3 129 7 200l6 127 41 19c23 10 55 33 71 50 77 82 7 210-87 160-25-13-57-84-58-126 0-57-7-63-71-63-53 0-59 2-59 21 0 18-2 19-15 9-9-7-13-21-10-31 4-11 2-19-4-19s-11 3-11 8c-1 4-2 33-4 65-3 59 8 74 24 35 5-13 9-16 9-8 1 27-37 98-57 109-36 19-69 13-96-20-52-62-12-153 87-194 37-15 37-16 37-73 0-31 2-121 5-199s2-143-2-145c-5-2-38-2-74 0l-67 4-6 36c-16 96-67 187-174 314-343 407 60 1e3 564 887zm-380-2c-24-16-121-88-165-124-31-25-33-26-23-6 17 31 78 80 142 114 55 29 81 38 46 16zm544-32c34-22 90-77 60-60-20 12-112 76-125 87-17 15 27-4 65-27zm221-273c19-57 5-44-24 21-21 49-23 57-7 37 11-14 25-40 31-58zm-1052-3c-6-19-13-40-15-48-3-8-7-11-10-8s2 26 11 52c20 52 31 55 14 4zm1093-279-6-35-8 40c-4 22-4 58-1 80l7 40 7-45c4-25 5-61 1-80zm-380-67c27-24 22-48-17-88-36-35-65-46-65-22 1 32 20 90 36 108 21 23 23 23 46 2zm-328-15c24-36 32-108 13-108-42 0-97 96-70 123 14 14 43 6 57-15zm-354-153c18-33 42-71 53-85l22-25-28 25c-31 27-68 85-87 135-16 44 3 19 40-50zm545-29c0-1-2-89-5-195l-5-195-43-1c-24-1-45 1-47 4-3 5-9 376-6 393 1 5 106-1 106-6zm398-48c-17-23-36-44-42-46s5 19 26 47c20 27 39 48 42 45 2-2-9-23-26-46zm-748-201c11-47 1-38-28 27-28 61-28 61-3 31 14-16 28-43 31-58zm551-231c20-40 12-101-14-115-12-6-410-8-464-2-38 5-54 112-20 137 13 10 72 13 250 14h232l16-34zm31-98c-4-13-16-29-28-36l-22-14 22 30c11 17 21 36 21 43s3 10 6 6c4-3 4-16 1-29zm-117-107c0-71-38-91-172-91-108 0-110 0-139 29-26 26-40 77-25 92 3 2 79 5 170 6l166 2v-38z"/><path d="m351 1587c-16-16-13-35 7-41 49-15 161-18 175-5 24 22-5 39-67 39-30 0-66 4-79 9-16 6-28 6-36-2z"/><path d="m2105 1583c-62-4-85-15-85-41 0-20 166-10 188 12 18 18 7 37-21 34-12-1-49-3-82-5z"/></g></svg>
