<svg fill-rule="evenodd" stroke-linecap="round" stroke-linejoin="round" viewBox="0 0 256 256" xmlns="http://www.w3.org/2000/svg"><g transform="translate(0 256) scale(.1 -.1)" fill="var(--icon-coral, #FF8A65)"><path d="m860 2270c0-5-8-10-18-10-47 0-152-88-167-140-4-14-10-27-14-30-19-15-31-56-31-104 0-34-5-56-12-59-10-4-10-7 0-18 7-7 12-38 12-71 0-32 4-58 10-58s10-11 10-24c0-14 4-27 9-30s12-18 15-32c4-15 20-39 35-53s30-33 33-43c6-15 43-40 81-54 9-3 17-10 17-15s11-9 24-9c14 0 28-4 31-10 8-13 79-13 103-1 9 5 33 16 53 25 19 8 43 24 54 36 10 11 23 20 29 20 12 0 18 9 51 79 11 22 23 41 27 41 5 0 8 10 8 23s3 26 6 30c8 8 7 227 0 235-3 3-6 20-6 39 0 18-3 33-8 33-4 0-15 17-25 38-36 74-49 93-70 103-12 5-35 18-52 28-16 11-40 20-52 20-13 1-23 6-23 11 0 6-28 10-65 10s-65-4-65-10zm145-85c28-13 67-53 56-59-4-3-16 3-26 14-22 24-150 29-187 8-36-21-78-65-78-82 0-9-4-16-10-16-5 0-10-7-10-15s-4-15-10-15c-35 0 51 135 105 166 23 13 130 12 160-1zm-265-200c0-8-7-15-15-15s-15 7-15 15 7 15 15 15 15-7 15-15z"/><path d="m1550 2272c0-4-17-15-37-25-97-47-125-72-149-139-3-10-10-18-15-18s-9-11-9-24c0-14-4-27-10-31-5-3-7-21-5-40 3-19 0-37-5-40-12-7-14-138-2-149 4-4 7-20 8-34 1-57 104-222 138-222 8 0 69-25 98-41 24-12 88-12 88 1 0 6 11 10 24 10 14 0 28 5 31 10 3 6 14 10 24 10 18 0 131 102 131 118 0 5 7 15 15 22s15 23 15 36c0 12 4 25 8 28 10 6 8 313-1 339-20 52-39 82-73 118-15 16-33 29-40 29-6 0-17 7-24 15s-23 15-36 15-24 5-24 10c0 6-32 10-75 10-41 0-75-3-75-8zm143-84c40-19 34-23-40-23-100 0-181-48-198-117-7-29-19-36-30-18-6 10 12 47 36 70 8 8 18 23 22 33 4 9 15 20 24 24 10 4 20 9 23 12 27 31 115 41 163 19zm77-45c11-10 20-24 20-32 0-10-7-8-25 9-38 35-33 56 5 23zm-340-168c0-14-4-25-10-25-5 0-10 11-10 25s5 25 10 25c6 0 10-11 10-25z"/><path d="m325 1736c-52-27-92-67-101-100-3-15-10-29-15-32s-9-16-9-30c0-13-4-24-10-24s-10-43-10-110 4-110 10-110 10-11 10-24c0-14 4-27 9-31 5-3 12-19 16-35 4-17 11-30 16-30s9-6 9-13c0-16 72-87 88-87 7 0 12-4 12-10 0-5 9-10 20-10s20-4 20-10 29-10 68-10c89 0 159 32 121 55-6 4 8 27 35 55 58 62 81 134 73 234-4 61-2 72 15 86 20 16 15 43-12 70-3 3-12 19-19 35-24 48-112 135-138 135-13 0-23 5-23 10 0 20-142 10-185-14zm165-71c0-12-13-15-58-15-54 0-60-3-94-37-19-21-38-45-41-53-4-12-6-12-12 3-5 12-1 23 12 35 11 9 22 25 26 35 4 11 16 21 27 24s20 9 20 14 27 9 60 9c47 0 60-3 60-15zm-200-151c0-16-16-19-25-4-8 13 4 32 16 25 5-4 9-13 9-21z"/><path d="m2e3 1752c0-4-15-13-32-21-45-19-126-98-144-141-9-19-20-43-25-52-10-20 6-72 20-64 13 9 21-19 21-74 0-53-11-68-30-45-7 8-16 12-21 9-12-7-11-51 1-59 5-3 7-12 4-20-6-16 16-75 28-75 5 0 8-7 8-15 0-21 50-69 104-99 49-27 186-39 186-16 0 6 9 10 20 10s20 5 20 10c0 6 6 10 13 10 16 0 87 72 87 88 0 7 3 12 8 12 11 0 42 59 42 81 0 10 5 19 10 19 6 0 10 47 10 120s-4 120-10 120c-5 0-10 10-11 23 0 12-9 36-20 52-10 17-22 37-26 45-24 52-107 90-195 90-37 0-68-3-68-8zm146-86c21-21 21-21-65-21-77 0-81-1-115-34-19-19-38-47-41-63-7-29-35-40-35-13 0 8 5 15 10 15 6 0 10 7 10 16 0 8 24 38 53 65 50 47 54 49 110 49 37 0 64-5 73-14z"/><path d="m1195 1470c-4-6-12-10-18-8-31 6-147-28-147-43 0-4-11-10-25-13-14-4-25-11-25-16 0-6-6-10-13-10-13 0-127-110-127-123 0-10-12-25-72-92-27-28-48-56-48-61s-34-43-76-85c-73-73-96-103-110-141-3-10-10-18-15-18s-9-10-9-23-6-29-12-35c-32-32-9-302 24-302 5 0 8-9 8-20s5-20 10-20c6 0 15-11 20-25s18-28 27-32c10-4 30-19 44-34s38-31 53-35c14-3 29-10 32-15s16-9 30-9c13 0 24-4 24-10s47-10 120-10 120 4 120 10 13 10 29 10c26 0 100 29 76 30-41 2 42 22 108 27 112 8 203-3 186-23-9-12-6-14 20-14 17 0 31-4 31-10 0-5 16-10 35-10s35-4 35-10 47-10 120-10 120 4 120 10 11 10 24 10c14 0 27 4 30 9 3 4 21 11 40 14 60 10 186 157 186 217 0 11 5 20 10 20 6 0 10 40 10 100s-4 100-10 100c-5 0-10 9-10 20 0 10-11 39-25 64s-25 50-25 56c0 7-11 21-25 32s-25 25-25 31c0 7-31 44-70 82-38 38-70 74-70 79 0 17-230 266-246 266-3 0-36 14-72 31s-76 32-89 32-26 3-29 8c-7 13-171 11-179-1zm133-80c9-5 43-12 75-15 31-4 57-10 57-13 0-4 15-13 33-21 40-17 78-51 71-63-3-5-13-1-22 10-22 24-84 52-115 52-14 0-29 5-32 10-8 12-195 14-195 1 0-4-21-11-47-14-51-6-103-28-123-52-7-8-17-15-23-15-15 0-77-61-77-75 0-7-9-20-20-30s-20-23-20-30c0-6-16-26-35-45s-35-37-35-42c0-4-33-41-72-83-94-96-117-127-124-164-4-17-11-34-15-37-5-3-9-21-9-40 0-31-8-42-22-29-13 13 20 143 42 165 3 3 17 22 33 42 15 20 54 63 87 95s60 62 60 68 16 26 35 45 35 39 35 45 11 22 25 35 25 27 25 32c0 12 47 58 58 58 5 0 17 9 27 20 27 30 140 80 181 80 12 0 26 5 29 10 8 13 90 13 113 0zm-740-732c16-16 16-91 0-86-8 3-12 19-10 41s-1 37-7 37-11 5-11 10c0 14 13 13 28-2zm36-130c10-38 7-42-14-23-23 21-26 45-6 45 7 0 16-10 20-22zm1326-16c0-14-79-86-87-78-4 4 11 24 32 46 40 38 55 47 55 32zm-195-127c0-5-19-11-42-13-34-3-43 0-43 13s9 16 43 13c23-2 42-7 42-13z"/></g><g transform="translate(0 256) scale(.1 -.1)" fill="var(--icon-skin, #F0D8C0)"><path d="m1853 1544c-6-14-10-31-7-39 3-7 1-16-5-20-14-8-15-172-1-180 5-3 6-13 3-23-6-15-4-15 15 2 21 19 23 19 42 1 36-32 80 23 89 109l7 66-43 42c-24 23-43 38-43 33s-10 1-23 13l-22 21-12-25z"/></g><g transform="translate(0 256) scale(.1 -.1)" fill="var(--icon-slate, #606078)"><path d="m1861 2074c-15-19-18-31-11-38 13-13 13-229 0-242s34-59 49-49c6 3 11 19 11 35s5 32 10 35c6 3 10 50 10 106 0 59-4 99-10 99-5 0-10 10-10 23 0 12-7 30-14 40-13 17-15 16-35-9z"/><path d="m628 1530-46-40 5-73c7-86-14-170-52-215-22-27-23-30-8-45s15-18-2-37c-14-16-15-23-6-34 20-24 141 51 141 88 0 7 9 18 20 26s20 24 20 37c0 12 5 25 11 29 6 3 9 17 6 30-2 14 0 27 4 30 12 7 12 101 0 108-4 3-7 23-5 45 3 42-14 91-31 91-5 0-31-18-57-40z"/><path d="m1132 396c-25-7-57-27-79-49l-38-37h31c16 0 36 6 42 13 20 19 360 17 372-2 7-12 11-13 25-1 23 19-23 65-80 79-55 14-217 12-273-3z"/></g><g transform="translate(0 256) scale(.1 -.1)" fill="var(--icon-stroke, #24324B)"><path d="m1588 2262c-27-2-48-8-48-14 0-5-6-8-14-5s-22-3-31-13c-10-11-20-18-24-17-3 1-24-17-45-38-21-22-38-40-36-40s-4-13-12-30c-29-58-43-131-43-220 0-90 21-205 37-205 4 0 8-6 8-13 0-39 102-114 184-136 90-24 276 62 276 128 0 8 3 11 7 8 7-8 32 51 40 96 3 15 9 30 14 33 12 7 12 219 0 242-5 9-17 37-27 62-45 112-150 171-286 162zm92-63c0-5 4-8 10-4 30 19 114-67 141-146 65-189-16-417-163-458-153-43-268 80-276 297-3 70-1 102 7 102 6 0 11 14 11 30 0 17 5 30 10 30s9 3 8 8c-3 15 22 63 37 68 8 4 15 13 15 21s4 12 9 8c6-3 13 1 18 9 20 37 173 68 173 35z"/><path d="m810 2239c-56-32-128-110-136-147-3-18-10-35-15-38s-9-23-9-45-4-38-9-35-8-23-8-59 3-62 8-59 9-18 9-45c0-28 5-51 10-51 6 0 10-8 10-18s3-22 7-26c5-4 8-11 8-14 0-11 37-60 70-95 59-62 161-96 234-77 54 14 111 41 111 53 0 4 4 6 8 3 13-8 69 85 92 155 21 64 27 285 8 272-5-2-8 6-8 19-1 41-83 178-107 178-6 0-18 9-27 19-10 11-24 17-32 14s-14 0-14 6c0 21-170 12-210-10zm208-47c2-7 8-12 13-12 6 0 20-10 33-22 113-113 129-365 30-495-158-207-447 22-393 313 17 91 82 204 118 204 6 0 11 4 11 9 0 23 180 26 188 3z"/><path d="m400 1750c0-5-8-10-18-10-41 0-152-81-152-110 0-7-6-26-14-43-15-35-29-98-29-137 0-44 15-135 25-146 5-7 8-16 7-20-2-16 13-54 22-54 5 0 9-5 9-10 0-18 53-72 99-101 38-25 55-29 113-29 128 0 199 63 238 210 19 68-6 280-32 280-4 0-8 5-8 10 0 13-70 116-70 104 0-5-4-4-8 1-13 19-61 45-82 45-11 0-20 5-20 10 0 6-18 10-40 10s-40-4-40-10zm93-61c165-85 210-422 69-516-111-73-248-3-294 150-22 73-17 225 10 270 55 93 143 133 215 96z"/><path d="m2100 1750c0-5-13-10-30-10-16 0-30-5-30-11s-6-9-12-7c-24 8-110-85-142-152-29-61-31-71-30-180 0-153 29-215 128-278 47-29 171-37 200-12 9 7 16 9 16 5 0-14 106 99 122 130 58 112 67 233 25 335-36 89-82 149-114 150-7 0-13 5-13 10 0 6-11 10-24 10-14 0-28 5-31 10-3 6-19 10-36 10-16 0-29-4-29-10zm70-60c79-23 127-106 137-236 25-323-313-443-392-139-15 58-12 191 4 181 3-2 7 7 8 21 0 14 6 28 11 32 6 3 10 8 10 11 2 20 21 50 51 80 58 58 101 70 171 50z"/><path d="m1180 1453c-51-9-125-34-160-54-8-5-22-12-30-16-19-8-150-135-150-146 0-14-110-147-122-147-6 0-8-3-5-6 4-4-24-38-61-77-90-93-83-85-115-147-15-30-27-67-27-82 0-16-3-28-7-28-5 0-8-36-8-80s3-80 8-80c4 0 7-16 7-35s3-35 8-35c4 0 13-14 20-30 17-37 68-90 110-115 17-10 28-23 25-28-3-6-1-7 5-3 7 4 18 4 25-1 48-31 279-48 325-24 26 14 130 31 150 25 14-5 15-4 2 5-11 8 13 11 93 11s106-3 101-12c-5-8-2-9 9-5 16 6 136-15 156-28 17-10 236-8 257 2 11 6 44 22 74 37s64 34 75 44c33 28 85 113 85 138 0 8 5 14 10 14 7 0 10 43 9 120 0 68-5 117-10 114s-9 4-9 15-9 36-20 56c-11 19-17 35-14 35 2 0-4 10-16 22-11 12-20 25-20 30s-33 42-72 84c-40 42-74 82-76 90s-7 14-12 14-23 21-41 48c-40 59-208 224-220 216-5-3-12 2-15 10-3 9-11 13-16 10-6-4-13-2-17 3-20 30-213 53-311 36zm177-49c72-16 163-54 163-66 0-5 6-8 13-8 17 0 116-105 182-194 30-41 85-106 121-143 118-122 164-211 164-318 0-102-46-207-105-239-11-6-22-14-25-17-14-18-85-49-131-57-58-11-145-2-244 24-162 43-284 43-443 0-133-37-246-30-347 21-38 19-116 94-109 105 3 4 1 8-3 8-18 0-47 114-44 167 2 46 40 163 51 163 6 0 10 6 10 13 0 12 22 40 93 117 61 65 138 158 179 215 63 88 161 163 253 193 110 37 128 38 222 16z"/><path d="m2063 665c0-33 2-45 4-27s2 45 0 60-4 0-4-33z"/></g></svg>
