<svg fill-rule="evenodd" stroke-linecap="round" stroke-linejoin="round" viewBox="0 0 256 256" xmlns="http://www.w3.org/2000/svg"><path d="M34 130 L222 130 L222 196 C222 204 215 211 207 211 L49 211 C41 211 34 204 34 196 Z" fill="var(--icon-blue, #5EC8F8)" stroke="var(--icon-stroke, #24324B)" stroke-width="9"/><path d="M34 130 L34 86 C34 78 41 71 49 71 L207 71 C215 71 222 78 222 86 L222 130 Z" fill="var(--icon-purple, #BFA7FF)" stroke="var(--icon-stroke, #24324B)" stroke-width="9"/><line x1="38" y1="130" x2="218" y2="130" stroke="var(--icon-stroke, #24324B)" stroke-width="7"/><rect x="112" y="118" width="32" height="26" rx="5" fill="var(--icon-yellow, #FFD85A)" stroke="var(--icon-stroke, #24324B)" stroke-width="8"/><line x1="128" y1="124" x2="128" y2="138" stroke="var(--icon-stroke, #24324B)" stroke-width="6"/><path d="M102 71 L102 56 C102 50 107 45 113 45 L143 45 C149 45 154 50 154 56 L154 71" fill="none" stroke="var(--icon-stroke, #24324B)" stroke-width="9"/></svg>
