<svg fill-rule="evenodd" stroke-linecap="round" stroke-linejoin="round" viewBox="0 0 256 256" xmlns="http://www.w3.org/2000/svg"><g transform="translate(0 256) scale(.1 -.1)" fill="var(--icon-white, #FFFFFF)"><path d="m1176 1850c-38-72-43-116-9-89 9 8 19 13 22 12s16 14 27 33c17 28 23 32 28 19 9-24 7-37-4-30-5 3-13-7-16-22-9-35 69-193 121-243l35-34 58 56-34 81c-20 45-38 84-42 87s-21 32-37 65c-17 33-33 62-36 65s-12 19-20 35c-26 54-51 45-93-35z"/><path d="m1411 1186-23-24 31-7c17-4 29-11 26-16s-15-3-26 4c-16 10-21 9-29-3-10-16 34-71 54-69 30 4 48-4 80-31 19-17 48-35 65-41s31-15 31-20 16-27 37-49l36-41 28 27c27 26 27 28 13 55-8 16-12 29-8 29s1 7-6 15-10 15-6 15c12 0-21 54-48 79-14 13-23 27-21 31s-8 19-24 34c-25 24-29 25-41 11-10-12-10-15 0-15 8 0 11-2 8-5-2-3-38 6-78 20s-74 25-75 25-12-11-24-24z"/><path d="m1767 782-27-27-193 4c-105 1-196 7-202 11-5 5-140 11-300 15l-290 7-24-26c-14-14-21-29-17-33s116-11 249-15c390-12 399-14 72-16-224-1-306-5-298-13 7-7 65-10 166-10 89 1 158-2 161-8 4-5 55-7 126-4 105 5 123 4 139-11 11-10 30-16 43-15 13 2 28 0 33-3 6-4 106-4 222-1l212 6 26 28c29 30 26 48-19 97-37 41-50 43-79 14zm-259-89c-21-2-57-2-80 0-24 2-7 4 37 4s63-2 43-4z"/></g><g transform="translate(0 256) scale(.1 -.1)" fill="var(--icon-coral, #FF8A65)"><path d="m2130 1554c-127-9-286-28-300-35-8-4-85-22-170-38-167-32-174-32-193 22-3 8-10 7-25-7l-21-18 25-39c13-21 24-42 24-47s13-21 28-36c26-24 30-25 42-11 7 8 27 15 46 15 18 0 55 4 81 9 126 24 376 35 518 22 77-7 151-14 165-14 25-2 25-2 25 88v90l-100 1c-55 0-120-1-145-2z"/></g><g transform="translate(0 256) scale(.1 -.1)" fill="var(--icon-yellow, #FFD85A)"><path d="m2103 1922c-6-4-14-22-18-39-7-34-50-73-79-73-27 0-18-29 12-36 39-10 59-30 67-70 8-46 43-45 58 1 13 42 33 62 68 69 39 7 37 21-6 42-41 19-65 49-65 80 0 23-20 37-37 26z"/><path d="m1920 1494c-8-2-71-8-140-14-216-19-237-23-270-55-38-36-37-46 1-90 29-32 36-35 87-35 40 0 61-5 76-19 25-21 71-34 221-60 135-24 337-74 407-102 28-11 57-18 64-15 20 8 14 231-6 232-8 0-24 3-35 7s-72 16-135 27c-155 28-184 38-169 56 10 12 7 20-16 44-27 28-46 33-85 24z"/></g><g transform="translate(0 256) scale(.1 -.1)" fill="var(--icon-blue, #5EC8F8)"><path d="m1588 1243c-21-22-25-32-17-45 6-10 6-18 2-18s-1-5 7-11c13-9 12-10-2-5-30 9-31-15-2-45l28-29 26 25c33 31 41 31 70 0 13-14 28-25 33-25s36-13 70-28c34-16 91-36 127-46s74-26 85-36 58-35 105-55 116-52 154-71c105-52 103-54 104 75 1 84-3 112-14 122-8 6-14 9-14 5s-17 2-38 13c-87 44-546 189-622 196-73 7-76 6-102-22z"/></g><g transform="translate(0 256) scale(.1 -.1)" fill="var(--icon-green, #66DDAA)"><path d="m1546 1331-28-29 20-38c37-71 68-91 152-99 76-7 537-152 622-196 21-11 38-17 38-13s7 1 15-6c13-11 14 3 12 115l-2 127-65 25c-145 54-485 125-656 137-79 5-82 4-108-23z"/></g><g transform="translate(0 256) scale(.1 -.1)" fill="var(--icon-purple, #BFA7FF)"><path d="m1179 1833c-10-2-58-86-118-206-129-257-134-265-179-283-78-32-591-284-597-294-3-4 2-14 11-21 13-10 25-7 77 18 34 17 78 39 97 47 19 9 46 23 60 31s79 39 145 70 141 67 166 80c55 29 67 31 48 9-14-16-42-68-110-204-18-36-35-67-39-70-3-3-19-32-35-65-17-33-33-62-37-65-3-3-17-31-31-62-24-53-24-57-8-72 22-20 31-20 31-2 0 8 6 21 14 28 7 8 23 36 35 63s29 57 38 67 12 18 7 18-4 4 2 8 24 36 40 72c15 36 31 67 35 70s33 56 64 117c63 124 61 122 140 87 17-7 75-25 130-39 55-15 114-33 130-40 17-7 58-20 92-30s60-22 57-27-11-5-17 0c-13 10-126 37-197 47-25 3-55 12-66 20-31 20-138 55-169 55-19 0-31-9-43-31-9-17-27-47-39-65-12-19-21-34-19-34 3 0-52-110-123-244-20-38-44-85-54-104-13-25-15-38-8-45s103-14 254-19c392-12 399-14 58-16-260-2-322-4-312-14 9-10 66-13 210-14 109-1 203-4 208-7s161-7 346-9l336-2 26 24c15 14 30 23 33 20 4-3 8 2 10 11 3 15-16 54-116 242-57 108-60 117-34 95 9-9 42-25 72-36s91-39 135-63c44-23 116-60 160-83s98-54 119-69 44-27 50-27c7 0 27-11 46-25 63-46 71-39 69 71-2 78-5 97-18 101-9 2-47 20-86 38-38 19-104 48-145 65-41 18-85 41-97 52-11 11-56 30-100 43-102 30-182 67-212 99-26 27-69 34-88 15-8-8-14-5-23 12-39 72-87 163-121 229-21 41-42 80-46 85-5 6-18 31-30 57-14 30-27 46-36 42-8-3-23 17-42 55-31 66-99 144-88 101 4-16 3-21-5-16-7 4-16-9-24-36-6-24-15-45-19-48-3-3-21-39-39-80s-36-77-40-80-20-34-36-70-32-67-36-68c-5-2-6-8-2-13 3-5 1-9-4-9-6 0-13-11-16-25-6-23-25-33-38-20-5 6 7 31 166 339 42 83 74 147 70 143s-12-3-18 1c-6 5-18 7-27 5zm53-520c59-5 65-8 50-19-10-8-21-9-26-3-16 15-36 11-29-7 5-14 1-15-28-9-19 4-35 11-37 16s-13 9-25 9-29 5-37 10c-18 12 31 13 132 3zm276-620c-21-2-57-2-80 0-24 2-7 4 37 4s63-2 43-4z"/></g><g transform="translate(0 256) scale(.1 -.1)" fill="var(--icon-orange, #FFB84D)"><path d="m1935 1468-50-30-296 9-45-51c-53-61-52-57-11-101 30-33 37-36 110-42 76-6 79-5 107 22 16 15 26 33 23 38-4 7 22 8 78 3 46-4 107-8 134-10 97-6 329-57 351-77 39-37 43-26 42 107-2 123-5 136-38 140-292 33-339 32-405-8z"/></g><g transform="translate(0 256) scale(.1 -.1)" fill="var(--icon-skin, #F0D8C0)"><path d="m1516 1401-26-27 65-62 293-10 56 58-62 62-300 6-26-27z"/><path d="m263 1e3c-64-32-82-46-83-63 0-26 6-25 100 20 103 49 104 50 83 69-16 14-25 11-100-26z"/><path d="m601 752c-43-72-48-91-29-110 20-20 1301-17 1318 3 10 12 10 18 0 30-10 13-52 15-254 15h-242l-57 59-319 3c-209 2-317 0-315-7 6-17 85-25 367-33l275-9-704-3 19 44c18 42 18 45 1 60-17 16-21 13-60-52z"/></g><g transform="translate(0 256) scale(.1 -.1)" fill="var(--icon-slate, #606078)"><path d="m1845 750c-4-6-66-10-154-10-133 0-150-2-165-19-17-18-17-19 1-24 10-3-18-5-62-5-46 0-68 3-51 7 28 6 28 6 9 24-18 16-47 17-369 15-395-3-389-13 16-26l275-9-706-3 12 23c10 19 7 18-19-7-17-15-28-34-26-41 3-7 0-16-5-20-36-22 46-25 638-25 733 0 690-5 648 82-22 48-31 56-42 38z"/></g><g transform="translate(0 256) scale(.1 -.1)" fill="var(--icon-stroke, #24324B)"><path d="m1215 1900c-3-11-11-20-16-20-6 0-8-4-5-9 4-5 3-11-1-13-5-1-39-66-77-143s-74-143-80-147-11-11-10-15c1-16-50-123-58-123-5 0-6-4-3-10 3-5 2-10-3-10-6 0-13-12-16-26-5-19-20-31-59-48-81-35-91-39-99-38-5 1-8-2-8-7s-30-21-67-37c-38-16-70-31-73-34-5-5-121-63-322-160-70-33-130-65-133-70-14-23 35-5 175 65 82 41 150 71 150 67s4-2 8 4c8 11 366 184 382 184 6 0 10-4 10-10 0-5-4-10-10-10-5 0-10-4-10-8 0-9-140-274-149-282-3-3-23-39-43-80-21-41-58-115-84-163-39-74-45-90-33-100 11-9 176-11 662-9 640 3 647 3 647 23 0 17-117 257-139 285-5 6-46 83-91 170-78 149-143 273-196 372-12 23-19 42-16 42 4 0 2 4-5 8-6 4-44 70-83 147-120 234-131 249-145 205zm131-257c59-115 118-224 130-244 13-20 20-40 17-43-4-3-1-6 5-6 7 0 12-4 12-10 0-5 23-51 51-101 27-50 48-93 45-96s-27 2-53 11c-92 33-364 115-398 122-19 3-35 10-35 16 0 5-5 6-10 3-6-4-16-2-23 3-7 6-34 16-60 22-26 7-49 16-52 20-5 8 73 171 86 180 4 3 7 7 7 10-1 16 158 320 168 320 1 0 51-93 110-207zm-206-388c85-26 232-73 325-104l170-58 103-194c57-107 106-200 109-206 4-10-126-13-606-13-374 0-611 4-611 9 0 19 53 131 61 131 5 0 9 5 9 12 0 10 170 336 228 436 16 29 29 41 41 38 9-2 86-25 171-51z"/><path d="m2092 1869c-12-29-25-48-32-44-5 3-10 1-10-6s-3-9-6-6c-9 8-44-11-44-23 0-6 9-10 21-10 26 0 79-52 79-79 0-11 5-23 10-26 6-3 10 0 10 9 0 8 3 16 8 18 4 2 14 17 22 33 10 19 27 34 48 40 42 12 40 19-8 38-29 11-41 22-46 44-16 63-29 66-52 12zm38-24c0-7 11-22 25-33l25-20-25-16c-14-9-25-23-25-31 0-22-7-19-45 19l-34 34 24 16c13 8 26 25 30 36 7 22 25 18 25-5z"/></g></svg>
