<svg fill-rule="evenodd" stroke-linecap="round" stroke-linejoin="round" viewBox="0 0 256 256" xmlns="http://www.w3.org/2000/svg"><g transform="translate(0 256) scale(.1 -.1)" fill="var(--icon-green, #66DDAA)"><path d="m1350 2301c0-5-15-12-33-15-30-6-114-76-91-76 5 0 2-5-6-10-11-7-15-28-15-83 0-84 14-113 76-155 35-24 39-31 35-58-6-41 11-59 35-38 12 11 19 12 24 4 11-17 35 8 35 36 0 17 7 25 25 30 14 3 25 10 25 15s6 9 13 9c16 0 57 41 57 57 0 6 6 13 13 16 8 2 12 29 12 87s-4 85-12 88c-7 2-13 10-13 17 0 20-47 54-86 61-19 3-34 10-34 15s-13 9-30 9c-16 0-30-4-30-9z"/><path d="m633 1466c-58-62-131-187-125-214 4-15-22-10-72 14-81 39-214-36-232-131-3-19-10-35-15-35-19 0-10-194 11-235 11-22 20-45 20-52s5-13 10-13c6 0 10-5 10-12 0-16 51-68 66-68 7 0 14-6 16-12 6-17 120-17 141 1 21 17 38 1 58-52 7-20 17-37 21-37s8-6 8-13c0-8 9-22 20-32s20-22 20-27 18-27 40-48c37-36 40-37 55-20 11 12 13 20 5 25-5 3-8 10-5 15 6 9-21 59-38 71-10 7-32 43-49 82-7 15-16 27-20 27s-10 16-14 35c-3 19-10 38-15 40-4 3-6 12-2 20 3 9-1 23-8 31-18 22-17 277 1 299 7 8 10 21 7 30-4 8-2 17 2 20 5 2 12 21 15 40 4 19 11 35 16 35 4 0 11 14 15 30 4 17 10 30 14 30s13 16 21 35c7 19 19 36 27 39 7 3 13 11 13 19 0 7 11 24 25 37s23 30 21 37c-3 7-1 15 5 19 10 6-7 34-21 34-4 0-35-29-67-64z"/><path d="m2e3 1303c-4-5-18-8-29-8-25 0-26-26-1-73 7-15 14-37 14-49s4-24 9-27 7-15 4-26 0-20 6-20c14 0 16-226 2-234-5-4-8-17-6-31 1-14-1-28-5-30-4-3-11-19-14-37-6-33-63-153-84-179-60-72-67-93-44-122 12-14 19-11 58 28 24 25 44 47 44 50 0 6 40 65 50 75 7 6 33 62 35 75 1 6 3 15 4 20 1 6 6 3 11-5 12-20 161-22 168-2 2 6 9 12 16 12 16 0 56 42 56 58 0 7 7 15 14 18 8 3 20 31 27 62 7 32 16 61 21 67 10 11 11 145 0 145-4 0-13 24-20 53-7 28-17 54-23 56s-14 14-19 27c-10 26-99 74-137 74-12 0-38-9-58-20-50-28-62-25-69 15-7 34-15 42-30 28z"/></g><g transform="translate(0 256) scale(.1 -.1)" fill="var(--icon-slate, #606078)"><path d="m1375 1930c-17-18-20-19-35-5-16 14-18 13-24-22-3-21-6-52-6-68 0-54-24-75-84-75-28 0-56-4-61-9-6-5-45-14-88-20-42-6-85-15-95-20-61-31-129-61-140-61-6 0-12-4-12-10 0-5-6-10-14-10-20 0-166-139-177-168-7-19-6-29 6-42 15-17 19-14 67 36 28 30 55 54 60 54s28 15 51 33c51 41 111 72 157 82 19 4 40 11 46 17 7 5 35 11 63 15 28 3 51 10 51 14 0 5 63 9 140 9s140-4 140-9c0-4 23-11 51-14 28-4 56-10 63-15 6-4 29-14 51-21 68-22 108-42 152-77 23-19 45-34 50-34 12 0 99-92 106-112 4-10 10-18 15-18 4 0 14-16 22-35s17-35 21-35 11-14 14-32c13-57 26-70 48-50 11 9 22 15 25 12 20-15 9 39-19 98-34 72-231 282-263 282-9 0-19 7-22 15-4 8-11 15-17 15-10 0-85 33-141 62-10 5-58 15-106 21l-88 11 5 60c3 34 9 66 13 71 13 16 16 68 4 72-6 2-19-6-29-17z"/><path d="m820 1183c-43-16-100-101-100-148 0-14-4-25-10-25-5 0-10-18-10-40s4-40 9-40c4 0 11-19 14-42 3-24 11-44 16-46 6-2 11-9 11-16s13-25 30-41c53-51 197-42 217 13 4 9 16 31 27 47 31 44 31 206 0 250-11 17-24 38-27 47-12 35-124 60-177 41zm62-73c17-15 20-27 15-60-10-77-78-135-115-98-15 15-16 78-1 78 6 0 9 6 7 12-9 25 30 74 70 87 2 1 12-8 24-19zm75-160c8-12 9-21 3-25s-9-14-8-22c5-25-18-26-41-2l-21 23 22 23c26 28 30 28 45 3z"/><path d="m1610 1183c-32-12-90-78-96-110-3-18-10-33-15-33s-9-31-9-70c0-38 4-70 9-70s12-16 15-35c8-42 74-115 104-115 11 0 24-4 27-10 3-5 15-10 26-10 10 0 19 5 19 10 0 6 8 10 19 10 21 0 101 82 101 104 0 8 5 16 12 18 15 5 16 187 1 196-6 4-13 17-17 29-15 46-82 93-134 92-26 0-54-3-62-6zm58-85c31-31-12-150-56-156-53-8-69 55-31 128 22 42 60 55 87 28zm74-175c27-33 22-46-27-67-50-20-88-9-64 20 6 8 8 14 3 14-4 0 5 13 21 30 32 33 42 34 67 3z"/><path d="m1140 765c-41-50 54-122 151-113 86 9 161 107 95 124-28 7-46-1-46-19 0-7-15-20-33-30-36-20-74-9-112 33-21 24-38 25-55 5z"/><path d="m609 594c-10-12-10-20-1-34 7-11 8-21 3-25-9-5 81-105 94-105 4 0 25-15 48-33 23-19 58-39 77-46 37-14 92-37 124-53 10-5 58-15 107-21s89-15 89-19 61-8 135-8c83 0 135 4 135 10s18 10 40 10c44 0 140 18 155 30 6 4 25 11 43 15 17 3 32 10 32 14s18 14 40 21 40 17 40 22c0 4 4 8 10 8 34 0 148 108 161 153 16 57-24 77-53 27-10-17-25-33-35-37s-28-18-40-32c-25-26-50-43-95-63-16-7-28-15-28-19s-24-13-52-19c-29-7-58-17-64-21-6-5-32-12-58-15-26-4-49-11-52-15-7-12-331-12-338 0-3 4-31 11-62 14s-62 11-67 16c-6 6-20 11-32 11s-50 15-85 33c-94 48-113 60-135 83-11 11-28 23-38 27s-25 20-34 36c-24 41-48 54-64 35z"/></g><g transform="translate(0 256) scale(.1 -.1)" fill="var(--icon-stroke, #24324B)"><path d="m1330 2283c-72-14-132-129-110-211 14-52 60-107 96-116 17-5 24-13 24-32 0-15-4-23-10-19-7 4-9-2-4-19 3-14-2-49-11-81-20-62-17-60-135-70-103-9-282-61-301-89-4-5-12-5-18-2-6 4-11 3-11-2 0-4-19-19-42-32-50-28-213-188-223-219-3-11-11-21-16-21s-9-6-9-13-9-30-20-52-20-45-20-52-5-13-11-13c-5 0-7-4-4-10 10-16-8-12-35 7-41 29-147 25-184-7-61-53-101-157-97-250 2-44 27-146 41-163 57-72 76-88 112-98 42-11 114-4 124 12 13 22 32 5 59-53 16-35 38-76 50-93 23-35 145-162 145-151 0 4 12-4 27-18 14-13 50-35 80-48 29-12 53-26 53-31 0-4 4-5 10-2 5 3 22 0 37-8 106-53 415-76 568-43 78 17 147 38 190 57 28 13 53 22 58 21 4-1 7 2 7 8 0 5 5 10 10 10 31 0 164 120 206 187 10 15 21 30 25 33 7 5 42 81 53 114 4 13 11 16 24 11 85-35 157-23 212 35 52 57 59 67 53 74-3 3 0 13 8 22 25 31 19 229-9 288-29 60-72 102-113 111s-115-3-133-21c-21-21-35-17-42 12-10 39-73 153-104 188-15 17-41 47-58 66s-34 32-38 28 4-16 17-27c13-10 39-41 58-67 30-43 24-40-45 31-44 44-78 82-76 84 1 3 8-1 14-7 14-14 28-16 28-3 0 4-19 21-42 37-24 16-48 34-55 39-7 6-18 15-25 21-7 5-17 12-23 13-24 8-42 15-75 29-81 33-252 67-258 50-5-11-62-10-62 1 0 5 7 14 15 21s15 18 15 26c0 7 4 16 10 19 7 4 7-2 1-18-9-24-6-37 10-37 8 0 26 76 38 158 5 40 9 45 44 57 94 32 134 129 98 238-21 64-117 107-201 90zm116-53c42-27 78-99 69-139-10-48-77-101-126-101-78 0-139 53-139 122 0 108 107 172 196 118zm83-570c83-31 111-44 111-52 0-4 7-5 15-2 8 4 15 1 15-5s6-11 14-11c17 0 112-71 174-130 31-29 82-104 82-120 0-5 4-10 9-10s12-12 16-27c3-15 10-30 14-33 44-29 74-284 52-429-12-75-63-201-82-201-6 0-7-4-4-10 6-10-1-22-41-65-12-13-19-26-16-29s1-6-4-6-31-19-57-43c-89-82-254-151-398-165-164-17-462 15-477 50-2 5-8 6-13 2-11-6-129 55-129 67 0 5-3 8-7 7-14-4-68 30-90 56-13 14-28 26-35 26-6 0-9 3-6 6s-4 16-16 28c-117 126-167 331-133 546 10 66 68 208 90 222 7 4 9 8 4 8-12 0 57 96 94 131 107 99 272 189 354 194 6 0 16 4 23 9 47 29 349 20 441-14zm-771-121c-15-11-50-46-79-77-28-31-47-50-42-41 19 37 124 139 141 139 4 0-5-10-20-21zm-244-330c10 8 16 9 16 3s-4-14-10-17c-5-3-10-16-10-28 0-21-1-21-17 3-10 14-27 33-38 43-19 18-19 18 12 1 26-15 34-15 47-5zm-61-21c25-18 28-25 23-52-14-71-18-234-7-286s11-55-11-72c-68-52-178 10-207 117-55 203 71 386 202 293zm1788-5c96-81 96-293-1-390-38-38-61-47-104-39-53 10-70 36-56 85 13 50 14 187 1 261-10 54-9 55 22 83 42 37 94 37 138 0zm-2e3 -345c9-18 26-44 38-58 17-20 15-19-11 4-18 16-37 42-42 57-13 39-5 37 15-3zm307-171c3-9 4-17 2-17-7 0-45 78-45 92 1 12 28-36 43-75zm1390-85c-30-46-47-68-61-76-8-5 6 17 30 48 46 60 61 74 31 28zm-1173-159c0-11-46 24-97 73l-58 56 78-62c42-35 77-64 77-67zm1e3 11c-7-8-31-25-53-36-49-25-44-17 15 22 52 34 56 35 38 14z"/><path d="m793 1147c-134-132-63-399 101-385 117 10 175 147 125 297-17 52-69 131-69 104 0-4-5-2-12 5-26 26-110 14-145-21zm151-8c47-37 87-145 67-178-7-11-11-4-17 25-6 32-8 35-15 19-7-19-8-19-8 3-1 13-7 22-16 22s-15 9-15 25c0 36-18 69-48 88l-27 16 26 1c15 0 38-9 53-21zm-70-5c33-13 50-70 32-108-9-19-16-38-16-42 0-18-55-64-76-64-25 0-64 43-64 70 0 32 31 93 62 122 32 30 37 32 62 22zm-47-232c23 3 32 0 29-8-5-13 24-44 42-44 6 0 17-7 26-15 18-18 40-11 54 18 6 12 11 16 11 10 1-7-12-27-28-45-26-29-36-33-79-33-63 0-93 26-122 102-26 70-25 73 6 39 21-22 33-27 61-24z"/><path d="m1578 1142c-53-54-72-107-66-195 17-269 302-252 312 19 0 24-2 44-5 44-4 0-9 18-12 40-15 117-150 171-229 92zm151-7c13-13 11-14-16-6-52 15-75 34-33 26 19-3 41-12 49-20zm-55-21c35-35 17-125-36-174-62-57-124 29-82 113 36 72 83 96 118 61zm66-58c0-7-7-27-16-42-15-27-15-27-10-4 3 14 6 33 6 43 0 9 5 17 10 17 6 0 10-6 10-14zm60-78c0-20-4-40-10-43-5-3-10 3-10 14 0 12-4 21-8 21-12 0-30 42-25 58 3 6 9 10 14 6 5-3 9 5 10 18 1 39 28-30 29-74zm-230-114c0-52 87-89 140-59 36 21 49 18 21-5-45-38-128-21-161 32-22 37-25 48-10 48 6 0 10-7 10-16z"/><path d="m1152 757c-9-10-7-20 5-38 22-32 43-52 43-43 0 5 5 3 12-4 39-39 178 15 178 69 0 34-22 31-56-6-42-47-92-45-136 5-32 34-32 34-46 17z"/></g></svg>
