<svg fill-rule="evenodd" stroke-linecap="round" stroke-linejoin="round" viewBox="0 0 256 256" xmlns="http://www.w3.org/2000/svg"><g transform="translate(0 256) scale(.1 -.1)" fill="var(--icon-yellow, #FFD85A)"><path d="m787 2342c-16-10-31-29-34-44-3-16-9-28-13-28-5 0-11-22-15-50-4-27-11-52-15-55-5-3-11-23-15-45s-11-42-16-46c-5-3-9-18-9-34s-4-31-10-35c-5-3-7-12-4-19 3-8 1-17-5-21-6-3-11-19-11-36 0-16-5-29-11-29s-9-7-6-15c4-8 2-17-3-20-6-4-10-17-10-31 0-13-4-24-9-24s-11-22-15-50c-4-27-11-52-16-55s-12-28-16-56c-4-27-10-52-15-55-5-2-11-27-15-54-4-28-10-50-14-50s-11-20-14-45c-4-25-11-45-15-45-5 0-11-22-15-50-4-27-11-52-15-55-5-3-12-24-16-48-3-23-10-51-15-62-13-31-23-59-25-70 0-5-5-19-9-30-17-43-19-51-20-67-1-9-4-20-9-24-4-4-7-18-7-31 0-12-4-23-9-23s-12-20-15-45c-4-25-11-45-15-45-5 0-12-25-16-55-3-30-10-55-14-55-5 0-11-22-15-50-4-27-11-52-16-55s-12-28-16-55c-4-28-10-50-14-50-5 0-11-22-15-50-4-27-11-52-16-56-12-7-11-44 1-44 6 0 10-6 10-14 0-21 40-46 72-46 15 0 29-4 32-9 4-5 24-12 46-16s42-10 45-15c3-4 22-11 42-15 21-4 43-10 48-15 6-4 31-11 58-14 26-4 47-11 47-17 0-5 18-9 40-9s40 5 40 10c0 6 6 10 13 10 21 0 46 33 53 68 4 18 10 32 15 32s9 13 9 29c0 17 5 33 10 36 6 4 8 10 5 15s-1 18 5 30c5 11 15 29 20 40 6 12 8 26 4 31-6 10 1 30 28 82 5 10 6 22 3 27s-1 11 5 15c5 3 10 19 10 36 0 16 4 29 9 29s12 20 15 45c4 25 11 45 16 45 4 0 11 22 15 50 4 27 11 52 15 55 5 3 12 26 16 50 3 25 10 45 14 45s10 22 14 50c4 27 10 52 15 54 5 3 12 23 16 43 4 21 10 43 15 48 4 6 11 31 14 58 4 26 11 47 17 47 5 0 9 11 9 24 0 14 4 27 9 30s7 15 4 25 0 22 6 25c6 4 11 18 11 32 0 13 5 24 11 24s9 7 6 15c-4 8-2 17 3 20 6 4 10 17 10 31 0 13 4 24 9 24s11 22 15 50c4 27 11 52 16 55s12 28 16 55c4 28 10 50 15 50 4 0 11 25 14 55 4 30 11 55 16 55 4 0 11 20 15 45 3 25 10 45 14 45s10 21 14 46c3 26 11 53 17 60 6 8 12 45 13 83 1 82-10 100-73 108-22 3-41 9-41 14 0 4-20 11-45 15-25 3-45 10-45 14s-22 10-50 14c-27 4-52 10-54 15-3 5-28 11-56 15-27 4-50 11-50 16 0 15-52 10-83-8zm409-259c-4-9-10-36-13-60s-10-43-14-43c-5 0-9-13-9-29 0-17-4-32-10-36-5-3-7-12-4-19 3-8 1-17-5-21-6-3-11-15-11-26 0-10-4-19-10-19-12 0-13 37-1 44 5 3 7 15 4 25s0 22 6 25c6 4 11 18 11 31s5 27 11 31c6 3 9 15 6 25s-1 22 4 25 9 18 9 35c0 20 5 29 16 29s14-5 10-17z"/></g><g transform="translate(0 256) scale(.1 -.1)" fill="var(--icon-blue, #5EC8F8)"><path d="m1340 1740c0-5-6-10-12-10-16-1-44-61-53-115-4-22-10-44-14-50-14-18-19-69-12-112 6-30 5-46-4-53-19-16-48-98-42-120 3-11-1-24-8-30-8-6-11-18-8-25 2-8-7-39-22-68-14-30-27-70-28-89-1-20-7-42-13-49-19-24-46-119-40-142 3-13-1-29-11-40-20-21-53-120-53-159 0-15-4-29-9-32-14-9-53-145-46-165 3-10-1-24-10-31-8-7-22-37-31-67l-16-55 66-68h666 666l27 28c35 36 34 38-13 105-22 31-36 58-31 61 11 7 2 46-10 46-5 0-14 10-19 23-15 33-33 61-47 70-7 4-13 13-13 19 0 9-21 38-63 88-16 20-35 51-43 73-3 9-10 17-15 17s-14 10-19 23c-15 33-33 61-47 70-7 4-13 14-13 21s-11 23-25 36-25 29-25 36-6 17-12 21c-15 9-33 37-48 71-5 12-14 22-19 22s-11 8-15 18c-7 23-27 53-51 78-24 24-41 51-55 82-5 12-14 22-19 22s-12 8-15 18c-8 21-27 52-43 72-35 42-60 77-66 93-3 9-11 17-17 17-5 0-10 6-10 13 0 8-9 22-20 32s-20 23-20 28c0 6-18 32-40 58s-40 52-40 56c0 21-67 73-93 73-15 0-27-4-27-10zm194-743c34-47 44-69 39-86-4-16-1-26 11-33 9-5 16-14 16-20s14-27 30-47c41-48 45-53 53-71 17-35 36-63 45-69 5-3 12-16 16-28 7-23 6-23-88-23-52 0-97-4-100-9-8-13-158-11-173 1-16 13-17 58-2 58 6 0 9 7 6 15-4 8-2 17 3 20 6 4 10 17 10 31 0 13 4 24 9 24 4 0 11 21 15 46 3 26 11 53 18 61 6 8 12 42 14 76 2 57 17 117 28 117 3 0 25-28 50-63z"/></g><g transform="translate(0 256) scale(.1 -.1)" fill="var(--icon-orange, #FFB84D)"><path d="m817 2282c-15-15-27-31-27-36 0-4-9-27-20-51-33-73-32-99 5-135 22-22 35-28 40-20 5 7 19 10 39 6 27-5 37-1 60 23 15 16 24 31 19 34s-7 27-6 54c2 53-9 85-46 126-31 33-31 33-64-1z"/><path d="m1e3 1833c-27-30-31-41-55-171l-15-83 28-30 28-29 28 27c15 15 28 31 28 36s14 25 31 44c28 32 29 37 15 52-15 16-14 20 9 41 22 21 23 25 10 40-8 9-15 21-15 26 0 6-15 24-33 42l-33 32-26-27z"/><path d="m695 1710c-3-5-14-10-24-10-9 0-29-13-44-28l-27-28 33-31c17-18 46-35 62-39 17-4 36-11 43-17 17-13 72 39 72 68 0 21-35 59-77 83-27 15-30 15-38 2z"/><path d="m368 813c-14-16-32-47-39-71-12-41-11-44 16-72 50-53 76-50 151 16l66 59-41 36c-22 20-53 39-68 42-16 3-35 8-43 12-10 3-26-5-42-22z"/></g><g transform="translate(0 256) scale(.1 -.1)" fill="var(--icon-slate, #606078)"><path d="m1245 1510c-4-22-11-42-16-46-5-3-9-16-9-30 0-13-5-24-11-24s-8-8-4-19c3-11 1-29-5-40-5-12-15-30-20-41-6-12-8-25-5-30s1-11-5-15c-5-3-10-19-10-36 0-16-4-29-9-29s-12-20-15-45c-4-24-11-47-16-50-4-3-11-28-15-55-4-28-11-50-15-50-5 0-12-21-16-47-3-27-10-52-14-58-4-5-11-26-15-45s-11-39-15-45c-4-5-11-31-14-57-4-27-11-48-15-48-5 0-12-20-15-45-4-24-11-47-17-50-5-4-9-19-9-36 0-16-4-29-10-29-5 0-7-6-4-14s1-17-5-21c-6-3-11-17-11-31 0-13-5-24-11-24s-9-7-6-15c4-8 2-17-3-20-6-4-10-19-10-34s-5-32-11-38c-17-17 10-71 45-88 36-18 1386-23 1386-5 0 6 6 10 13 10 40 0 64 84 32 110-8 7-15 19-15 26 0 8-5 14-10 14-6 0-15 10-20 23-36 83-57 93-102 50l-38-37 23-30c13-17 27-37 31-44 6-9-118-12-603-12-536 0-611 2-611 15 0 8 6 15 13 15 14 0 77 61 77 75 0 5-9 19-21 31-28 30-19 85 12 77 20-6 79 40 79 61 0 5-13 24-30 41-27 28-29 33-18 66 8 29 15 35 30 31 13-3 31 6 54 29l34 33-35 36c-39 40-40 80-2 80 22 0 77 46 77 65 0 6-12 22-26 36-20 19-24 30-20 53 8 36 34 78 45 72 4-3 23 10 41 29l34 35-33 34c-34 35-35 64-2 47 14-8 26-2 56 29l39 40-54 55c-30 31-69 67-87 80l-31 25-7-40z"/><path d="m1423 1118c-25-27-47-63-58-97l-17-53 50-51 50-50 7 46c4 26 11 47 16 47s9 14 9 30c0 36 15 40 24 5 4-14 11-25 16-25 6 0 15-10 20-22 13-29 31-57 52-79 16-17 18-16 51 25l35 42-50 70c-64 87-128 154-148 154-9 0-34-19-57-42z"/></g><g transform="translate(0 256) scale(.1 -.1)" fill="var(--icon-stroke, #24324B)"><path d="m783 2321c-10-11-29-55-42-98s-27-82-31-88c-4-5-11-34-15-62-4-29-10-53-15-53-4 0-10-18-14-40-3-23-10-49-16-58-9-17-27-84-37-134-3-16-8-28-12-28s-7-8-8-17c-4-41-16-83-22-79-3 2-7-6-8-17-4-49-16-86-25-81-5 3-8 0-7-7 4-25-13-99-23-99-5 0-8-6-7-12 4-21-13-88-21-88-4 0-11-20-14-45-4-24-11-47-17-50-5-4-9-19-9-35s-4-31-10-35c-5-3-7-12-3-20 3-8 0-15-6-15s-11-13-11-30c0-16-5-30-11-30-5 0-7-5-4-10 4-6 2-16-3-23s-13-32-17-57c-4-24-11-51-15-60-4-8-16-42-26-75s-21-65-26-71c-4-6-11-32-14-57-4-26-11-44-15-41-5 3-9-5-9-18 1-36-11-88-20-88-4 0-7-6-7-12 2-24-15-88-23-88-5 0-9-8-9-17 0-10-3-37-7-60-6-39 22-104 38-87 7 6 88-19 88-27 0-4 23-10 50-14 28-4 47-11 44-17-3-5 0-8 7-7 18 4 81-11 94-22 6-4 41-11 78-15 95-10 104 0 152 171 20 70 45 152 109 360 68 218 71 230 104 340 57 189 93 310 102 335 12 35 64 206 100 330 47 163 63 214 71 225 4 6 7 12 7 15 0 16 16 87 21 95 14 20 13 85-2 99-18 18-83 46-108 46-11 0-19 5-19 11 0 5-4 8-8 5-9-5-77 16-88 27-4 4-18 7-30 7-13 0-25 4-29 10-3 5-12 7-20 3-9-3-21-1-28 5s-40 14-73 17c-54 6-63 5-81-14zm132-44c240-72 310-96 313-110 3-15-9-63-43-177-9-30-19-67-22-82-3-16-10-28-15-28s-7-4-4-8c3-5-1-28-8-53-8-24-34-109-59-189s-82-266-127-415c-45-148-94-310-110-360-16-49-61-196-100-324-38-129-75-241-82-248-13-12-102 10-343 84-73 23-76 35-35 163 28 92 27 91 98 75 53-12 46 30-8 46-45 14-46 18-24 97 23 82 29 86 93 61 57-21 81-20 81 5 0 10-22 21-61 32-69 19-76 29-59 79 9 28 16 35 29 30 49-21 68 5 21 30-25 13-29 19-20 35 5 10 10 28 10 39 0 25 18 27 86 6 47-14 73-8 60 14-4 5-31 18-61 27-48 15-55 21-55 43 0 38 14 53 45 49 36-4 44 19 11 32-29 11-30 15-15 59 13 36 8 35 75 15 50-17 84-14 84 5 0 5-29 19-65 31-66 22-68 25-56 70 5 19 15 26 41 30 40 6 45 21 13 35-13 5-23 17-23 26 0 14 19 79 23 79 1 0 26-9 56-21 57-21 81-20 81 6 0 9-21 21-60 32-63 19-72 32-49 74 7 14 16 18 30 14 23-8 27 22 4 31-18 7-20 44-2 67 11 16 16 15 70-5 44-16 61-18 69-10 17 17 0 31-63 53-64 23-62 20-51 60 8 31 12 34 47 34 50 0 56 20 12 39-35 14-35 14-24 55 13 47 22 49 92 26 25-9 50-13 55-10 24 15 6 35-47 53-67 22-69 30-40 137 17 62 41 90 67 81 8-2 38-11 65-19z"/><path d="m1329 1717c-9-7-20-28-24-47s-10-39-14-45c-7-12-6-8-16-62-4-24-11-43-16-43s-9-11-9-24c0-25-30-127-40-136-3-3-5-9-6-15 0-16-14-64-45-159-16-49-29-98-29-108s-5-18-11-18c-5 0-8-4-5-8 6-10-44-184-55-192-4-3-7-7-8-10-3-41-15-90-22-90-5 0-9-11-9-25 0-22-25-109-49-170-5-11-15-45-24-75s-23-78-31-107c-20-67-20-75 4-101l21-22h694 694l19 25c21 26 16 79-9 109-40 48-49 60-49 68 0 5-6 15-12 23-21 22-47 59-48 70-1 6-7 13-15 17-7 5-26 29-41 55s-31 52-36 58c-5 5-17 21-28 34s-20 30-20 38c0 7-4 13-10 13-5 0-12 11-16 24-3 14-12 27-20 30s-14 10-14 16-6 18-12 25c-29 32-41 48-84 110-24 36-44 68-44 71 0 2-5 10-10 17-41 48-50 62-50 73 0 7-4 14-8 16-8 3-70 85-110 144-7 11-28 42-47 69-19 28-56 82-82 120-26 39-55 79-65 90-9 11-39 49-65 85-51 69-88 86-124 57zm103-102c87-122 395-565 504-723 55-81 150-219 210-307 61-88 125-181 143-207 60-84 108-78-647-78-769 0-708-8-673 93 12 34 26 80 31 102s18 67 30 100 25 76 29 95c16 69 43 150 52 155 5 4 9 19 9 34 0 26 17 86 39 136 5 11 18 58 31 105 12 47 27 103 34 125 28 88 39 121 49 145 5 14 11 32 12 40 13 75 73 260 85 260 5 0 33-34 62-75z"/><path d="m1453 1088c-6-7-20-42-31-78s-46-145-77-243c-76-239-96-220 225-216 135 1 253 7 263 12 30 14 17 42-74 171-46 65-123 173-170 240-85 119-113 143-136 114zm66-90c13-23 28-47 33-52 25-31 134-186 161-230 17-28 37-57 44-64 46-47 40-52-64-53-54-1-153-3-220-5s-125 1-127 5c-3 5 8 46 24 92s30 92 30 102c0 9 4 17 9 17s8 6 8 13c-1 24 16 77 25 77 5 0 7 4 4 8-7 11 18 94 26 86 4-3 5 2 4 13-8 47 13 43 43-9z"/></g></svg>
