<svg fill-rule="evenodd" stroke-linecap="round" stroke-linejoin="round" viewBox="0 0 256 256" xmlns="http://www.w3.org/2000/svg"><g transform="translate(0 256) scale(.1 -.1)" fill="var(--icon-coral, #FF8A65)"><path d="m1e3 1569c-40-12-153-118-171-161-19-46-7-156 23-218 32-64 145-191 227-254 65-50 156-106 173-106 29 0 183 118 269 206 189 195 210 337 69 467-104 97-197 99-295 6l-51-49-40 41c-63 66-132 88-204 68z"/></g><g transform="translate(0 256) scale(.1 -.1)" fill="var(--icon-green, #66DDAA)"><path d="m1230 2370c0-5-5-10-11-10-9 0-86-55-99-71-3-4-16-10-30-14s-27-11-30-16c-14-20-241-128-282-133-3-1-10-4-14-8-4-5-20-8-35-8s-31-4-34-10c-3-5-28-12-56-16-27-4-52-11-55-15-3-5-25-9-49-9-43 0-65-12-45-25 8-5 6-13-4-24-9-10-14-20-11-22 7-7 166 11 190 21 11 5 37 11 59 15 21 3 46 10 55 15 19 10 52 23 66 26 30 6 55 17 55 25 0 5 6 9 13 9s29 9 50 20c20 11 44 20 53 20s24 8 33 19c9 10 27 22 41 26s34 17 46 29c23 24 49 42 81 55 11 6 24 15 28 20 12 20 54 11 87-16 35-30 63-49 88-60 8-4 17-9 20-12 9-10 44-31 63-37 9-4 17-10 17-14 0-5 14-11 30-15 17-4 30-11 30-16s5-9 11-9 25-6 42-14c42-18 70-29 82-31 13-2 46-14 68-26 9-5 38-12 62-16 25-3 48-10 51-14 6-10 74-12 74-2 0 3-7 15-16 25-13 14-14 21-5 32 10 12 3 16-43 21-31 4-56 11-56 16s-11 9-23 9c-13 0-27 3-31 8-4 4-11 7-14 8-39 4-326 141-341 161-8 10-40 30-68 43-12 5-28 18-35 30-14 21-108 31-108 10z"/><path d="m1250 2071c0-5-13-12-29-16-16-3-35-13-42-21s-60-37-118-65-114-54-123-59c-9-6-35-13-58-16-22-4-40-10-40-14 0-5-27-11-60-15s-63-11-66-16-25-9-49-9-47-4-50-10c-3-5-14-10-24-10-40 0-42-19-44-304-1-203 2-279 11-288 7-7 12-27 12-44 0-18 4-35 9-39 6-3 13-26 17-50 3-25 10-45 14-45 5 0 11-13 15-30 4-16 10-30 15-30 4 0 11-10 15-22 4-13 9-25 10-28s6-15 10-27c4-13 11-23 16-23s9-6 9-13c0-8 9-22 20-32s20-22 20-26c0-10 178-188 206-207 10-6 29-16 42-22 12-5 22-14 22-19s13-12 29-16c16-3 36-14 46-25 9-10 32-21 51-24 19-4 34-11 34-15 0-5 19-11 42-15s48-12 55-18c9-7 17-7 26 0 6 6 30 14 52 18 39 7 69 26 59 37-4 3 18 18 48 33 88 44 138 83 246 188 57 55 111 101 120 101s23 12 30 27c7 16 17 28 21 28 5 0 12 10 16 23 4 12 9 24 10 27s6 15 10 28c4 12 11 22 16 22 4 0 11 16 15 35 3 19 10 38 15 40 4 3 11 26 15 50 3 25 10 45 15 45s9 13 9 29c0 17 5 33 10 36 13 8 13 58 0 71-7 7-6 38 1 94 19 140 8 354-20 384-15 16-19 26-11 31 16 10-35 35-71 35-15 0-30 4-33 9-3 4-36 11-72 14-37 4-70 11-73 15-3 5-23 12-45 16-21 4-46 11-55 16s-74 37-144 72c-171 84-167 82-167 90 0 5-13 8-30 8-16 0-30-4-30-9zm-111-562c37-8 64-23 99-54l49-44 38 39c46 48 123 74 185 64 227-37 160-404-105-569-96-60-134-66-204-31-106 54-254 220-280 314-34 119-1 240 72 266 85 30 80 30 146 15z"/><path d="m384 1178c-24-26-39-74-25-83 5-3 8-17 5-30-2-14 0-25 6-25 5 0 10-11 10-24 0-14 4-27 9-30s12-21 15-40c4-20 13-48 21-63s15-34 15-40c0-7 3-13 8-13 4 0 16-18 26-40 11-22 23-40 27-40s10-13 14-30c4-16 17-38 31-49 13-10 24-23 24-28s22-31 50-58c27-27 47-51 45-54-7-7 36-51 51-51 6 0 27-17 46-38s41-42 49-45c8-4 28-16 44-27 17-11 38-23 48-26 9-4 17-10 17-14 0-7 138-80 160-85 39-10 60-19 60-25 0-4 20-11 45-14 25-4 45-11 45-17 0-5 23-9 50-9 28 0 50 4 50 9 0 6 20 13 45 17 25 3 45 10 45 14s10 10 22 13c17 5 19 9 10 20-8 10-9 16 0 25 16 16 2 47-16 33-8-7-18-11-22-10-10 2-36-6-73-24-29-14-134-12-139 3-2 5-13 10-24 10-21 0-81 29-86 43-2 4-8 7-14 7-11 0-139 60-148 70-12 12-70 50-77 50-12 0-212 203-228 231-8 13-17 31-21 39s-11 18-16 21c-17 11-119 225-124 261-4 21-10 38-15 38s-9 11-9 24c0 14-5 28-10 31-6 4-10 14-9 23 1 10-1 24-4 32s-7 21-9 28c-2 9-10 6-24-10z"/><path d="m2144 1188c-5-7-7-22-5-32 2-17-4-38-30-88-5-9-12-35-15-58-4-22-10-40-15-40s-9-8-9-17c0-10-21-59-46-110-43-87-49-121-18-109 7 3 16 1 19-4 9-15 25-12 25 5 0 8 4 15 8 15 5 0 17 18 28 40 10 22 22 40 26 40s11 18 14 40c4 22 10 40 15 40 4 0 11 16 15 35 3 19 10 38 15 41s9 16 9 30c0 13 4 24 10 24 5 0 8 10 6 23-2 12 1 27 6 34 13 16 0 58-27 83-18 17-25 19-31 8z"/></g><g transform="translate(0 256) scale(.1 -.1)" fill="var(--icon-slate, #606078)"><path d="m1865 2080c-4-6 1-20 11-31 9-10 14-19 9-19-4 0-2-6 4-14 7-8 43-17 86-21 41-4 77-11 81-16 3-5 25-9 50-9h44v-39c0-22 5-41 11-43 15-5 16-565 0-581-6-6-11-35-11-63 0-29-4-55-8-58-18-11 0-85 29-112 26-25 28-26 24-6-2 12 0 24 6 27 5 4 9 24 9 45s4 40 10 42c5 2 13 51 16 111 4 59 11 107 16 107 4 0 8 74 8 165 0 103-4 165-10 165s-10 41-11 103c-1 196-11 210-165 222-49 4-93 11-99 15-19 14-103 22-110 10z"/><path d="m450 2053c-106-9-130-39-130-164 0-46-4-79-10-79s-10-83-10-230c0-126 4-230 9-230 4 0 11-39 15-87 3-48 11-92 16-97 6-6 10-22 10-37s4-30 9-34c6-3 8-15 6-27-4-20-2-19 24 6 30 28 45 72 30 82-5 3-9 23-9 44 0 22-5 40-12 42-10 4-13 83-13 350 0 385-1 378 66 378 22 0 39 5 39 10 0 6 19 10 41 10 34 0 39 2 30 14-9 10-8 16 4 26 35 29 14 33-115 23z"/><path d="m1912 1828c-8-8-8-15-2-23 7-9 6-16-4-24s-11-22-5-54c12-61 11-263-2-354l-11-78 48-42c56-50 77-44 73 18-2 21 0 41 4 45s7 109 7 233c0 241-6 271-50 271-10 0-22 5-25 10-8 13-18 13-33-2z"/><path d="m557 1802c-12-13-17-37-17-75 0-31-4-59-10-62-5-3-10-46-10-96 0-53 4-89 10-89s10-33 10-80c0-44 3-80 8-80 4 0 28 18 55 41l47 41v169 170l-32 40c-36 45-39 46-61 21z"/><path d="m1471 1e3c-47-40-164-100-192-100-30 0-104 33-145 65l-31 24-54-56 49-46c69-63 145-101 194-94 48 6 169 81 226 139l42 44-27 26-28 26-34-28z"/><path d="m1700 840c-81-90-159-150-265-203-88-44-123-78-100-97 14-12 14-15-1-31-9-10-13-22-10-27 6-10 66-3 66 8 0 5 14 11 30 15 17 4 30 10 30 13 0 8 74 42 90 42 6 0 10 5 10 10 0 6 10 15 23 20 40 18 59 33 151 126 94 94 109 112 126 153 14 31-2 50-25 31-13-11-19-10-34 4-17 16-22 13-91-64z"/><path d="m2e3 786c-9-20-21-36-25-36-5 0-12-8-15-17-3-10-13-29-20-42-18-30-197-211-209-211-5 0-26-14-46-30-20-17-40-34-46-38-20-14-143-72-154-72-6 0-11-4-11-9 0-8-26-20-55-26-33-7-45-18-34-31 8-10 8-18 0-27-8-10-7-17 1-25 14-14 38-16 38-3 0 7 18 15 60 26 20 5 151 75 160 86 3 3 12 9 20 12 8 4 29 16 45 27 17 11 36 23 44 26 7 4 31 27 54 51 22 24 51 49 66 56 14 6 31 23 37 35 7 13 28 41 48 61s36 41 36 45 11 17 24 27 27 31 31 46c3 15 12 31 18 35 8 5 2 17-19 38l-31 32-17-36z"/></g><g transform="translate(0 256) scale(.1 -.1)" fill="var(--icon-stroke, #24324B)"><path d="m1240 2357c-14-7-54-34-89-60s-69-47-77-47-14-5-14-11c0-5-4-8-9-5-5 4-11 2-13-3-5-14-214-112-252-118-20-3-36-9-36-13 0-9-76-25-103-22-10 1-15-3-12-8 4-6-7-10-24-10s-31-5-31-11c0-7-18-10-49-7-27 1-47 0-44-4 2-5-21-8-53-8-72 0-93-20-96-94-4-93-5-111-13-128-4-9-4-131-1-270 4-139 7-271 7-292 0-23 4-34 9-27 6 11 18-42 23-106 1-13 5-23 10-23 4 0 7-13 7-29 0-17 4-32 9-35 8-6 26-73 23-88-1-5 3-8 8-8 6 0 10-9 10-19 0-11 5-23 11-26 6-4 8-14 4-23-3-9-3-13 1-9 8 7 64-89 77-133 1-5 26-35 52-64 6-6 28-33 50-60 43-55 88-98 152-150 23-18 39-36 36-40-4-3 1-6 10-6 8 0 22-6 29-14 8-7 24-17 36-20 12-4 22-12 22-17s5-9 11-9c7 0 33-13 58-28 25-16 63-34 84-41 20-7 37-17 37-22 0-6 5-7 10-4 6 4 16 2 23-3 7-6 29-13 50-17 20-4 40-11 43-16 16-27 186 18 314 81 30 15 58 27 61 26 3 0 13 6 22 16 9 9 33 26 54 39 71 43 233 178 233 195 0 2 8 12 18 22 33 35 57 67 82 107 13 22 27 42 30 45 6 5 66 125 82 165 25 63 58 162 58 178 0 10 4 16 8 13 5-3 6 9 4 25-3 17 0 40 6 52 32 68 58 527 31 554-7 7-10 54-8 137 2 69 1 118-3 108-5-14-7-12-7 6-2 41-22 50-129 57-56 4-102 11-102 15s-17 10-37 13c-58 9-133 31-133 39 0 5-11 8-25 8s-25 4-25 10c0 5-6 7-14 4s-17-1-21 5c-3 6-13 11-21 11-9 0-57 21-107 46-51 26-102 52-114 58-13 6-23 14-23 19 0 4-6 7-13 7-12 0-26 9-74 50-7 5-15 10-19 10-3 0-17 9-31 20-30 23-49 25-83 7zm127-92c43-30 83-59 88-63 6-4 55-29 110-55s108-52 117-57c10-6 25-10 33-10s15-5 15-11c0-5 4-8 10-4 5 3 38-4 73-15 67-22 122-33 252-54 44-6 85-15 91-19 6-3 16-50 22-104 16-141 25-326 15-320-4 3-6-18-4-46 9-130-33-382-88-532-18-48-113-234-131-256-11-13-24-29-30-36-5-7-10-16-10-20 0-10-172-183-182-183-4 0-19-10-34-23-14-12-29-21-32-21-4 1-13-7-20-17-7-11-19-19-27-19-7 0-15-4-17-9-5-13-174-95-260-125l-76-27-68 20c-37 12-104 40-148 63-45 22-91 46-103 52-13 6-23 14-23 19 0 4-5 7-11 7-11 0-79 48-91 65-4 5-8 6-8 1 0-14-189 176-213 214-12 19-27 41-34 48s-13 20-13 28-4 14-9 14-11 8-14 17c-3 10-19 41-34 68-80 141-157 434-137 523 4 21 3 24-5 12-8-11-11 45-10 200 0 139 4 208 10 195 6-15 8-5 7 35-5 149 1 159 108 176 43 6 108 18 144 25s75 13 87 13c11 1 19 4 17 7-3 6 37 17 78 22 9 1 14 5 12 9-3 4 1 8 9 8 7 0 31 9 53 19 21 11 42 17 46 14 5-2 8 0 8 5 0 9 26 20 43 18 4-1 11 4 15 10 4 5 25 18 47 28s63 36 92 57c29 22 57 39 63 39 5 0 10 4 10 10 0 5 11 12 25 16 14 3 22 10 19 15-16 27 45 2 113-46z"/><path d="m1225 2e3c-16-8-32-19-35-23s-18-11-33-14c-15-4-27-11-27-16s-7-9-15-9-15-4-15-9-13-12-30-16c-16-4-30-11-30-15 0-5-16-12-35-16-19-3-35-9-35-13 0-3-28-14-62-25-35-10-71-22-80-27-10-5-42-12-73-15-30-4-55-10-55-14s-25-10-57-12c-92-8-96-19-96-265 0-128 21-345 33-338 4 2 10-23 14-57 3-34 10-64 15-67 8-6 25-61 23-73-1-5 3-8 8-8 6 0 10-7 10-15s5-15 11-15 9-7 5-15c-3-8-1-15 4-15 6 0 10-7 10-15s4-15 9-15 11-8 14-17c15-47 221-277 252-281 6-1 18-9 28-17 9-8 21-15 26-15s16-6 23-13c7-6 32-21 55-32 24-11 43-24 43-28 0-5 4-6 10-2 5 3 17 1 27-4 76-42 150-42 226 0 10 5 22 7 27 4 6-4 10-1 10 4 0 6 7 11 15 11s15 5 15 10c0 6 5 10 10 10 6 0 28 11 50 25s40 23 40 20 10 3 22 14c11 11 24 19 27 17 7-3 213 206 212 214-1 3 5 12 13 21s17 26 21 38c3 12 11 21 16 21s9 5 9 11c0 10 33 90 50 121 6 10 10 27 10 38 0 12 4 19 8 16 4-2 8 3 9 12 0 9 6 40 13 67 6 28 14 69 17 92 3 24 8 41 12 39 9-6-2 467-12 482-5 6-15 12-23 12s-14 3-14 8c0 4-17 6-39 4-21-2-42 1-45 7-4 6-25 11-47 11-21 0-39 4-39 10 0 5-7 7-16 3-8-3-25-1-37 5s-47 18-77 28c-52 16-269 119-280 133-29 36-99 47-145 23zm111-58c132-84 389-179 541-199 90-12 88-6 88-227 0-200-6-245-56-428-72-259-306-501-575-595-66-23-106-13-237 59-235 130-367 289-445 536-52 165-57 201-57 420v204l25 12c14 7 64 20 112 28 157 30 370 115 488 194 57 38 49 39 116-4z"/><path d="m1e3 1551c-125-44-183-176-142-323 39-137 298-378 408-378 63 0 239 121 310 212 109 142 137 273 82 383-66 132-250 161-351 55l-37-38-32 33c-65 67-151 87-238 56zm160-47c15-8 44-34 65-59l37-45 51 54c79 86 175 96 264 29 151-115 50-372-214-549-96-63-90-62-156-23-288 169-405 426-257 566 55 52 139 63 210 27z"/></g></svg>
