<svg fill-rule="evenodd" stroke-linecap="round" stroke-linejoin="round" viewBox="0 0 256 256" xmlns="http://www.w3.org/2000/svg"><g transform="translate(0 256) scale(.1 -.1)" fill="var(--icon-coral, #FF8A65)"><path d="m1690 2370c0-5-13-10-28-10-41 0-81-23-132-76l-45-47v-96-97l40-39c54-54 117-85 176-85 26 0 51 5 54 10 3 6 16 10 28 10 23 0 100 73 125 117 35 64-7 229-66 259-12 6-30 18-40 27-10 10-33 17-50 17-18 0-32 5-32 10 0 6-7 10-15 10s-15-4-15-10z"/><path d="m1096 2333c-3-4-14-7-24-8-102-10-140-23-112-40 6-4 8-15 5-24-6-21 19-48 30-31 3 5 19 10 34 10s31 4 37 9c5 5 27 11 49 13 36 3 40 5 37 28-5 33-39 60-56 43z"/><path d="m2e3 1826-23-24 44-44 29 28c34 32 35 39 12 48-10 3-23 8-29 11-5 3-20-6-33-19z"/><path d="m391 664c-37-31-28-54 23-54 46 0 62 31 32 59l-23 22-32-27z"/><path d="m722 485c-36-20-81-66-81-84 0-9-3-30-7-47-13-66 54-154 118-154 10 0 18-4 18-10 0-5 7-10 15-10s15 5 15 10c0 6 10 10 23 10 30 0 103 74 99 101-2 10 2 19 7 19 6 0 11 9 11 20s-5 20-11 20c-5 0-9 8-8 18 9 74-127 147-199 107z"/></g><g transform="translate(0 256) scale(.1 -.1)" fill="var(--icon-blue, #5EC8F8)"><path d="m1218 1563c-15-16-34-46-42-68-11-27-41-61-92-105-42-36-93-80-115-99-21-18-37-36-34-41 2-4-11-22-30-40l-35-34 23-24c12-13 40-35 62-48s65-54 95-90c30-37 88-105 129-151l74-84 24 23c14 13 30 35 36 51 12 26 232 257 246 257 4 0 24 17 44 38l37 38-27 25c-16 14-53 41-84 61-86 55-161 135-197 208-31 60-67 110-82 110-3 0-18-12-32-27z"/></g><g transform="translate(0 256) scale(.1 -.1)" fill="var(--icon-green, #66DDAA)"><path d="m980 2310c-54-15-70-23-70-31 0-5-9-9-20-9s-20-4-20-10c0-5-6-10-13-10s-39-27-72-60l-59-60 23-24c28-30 60-18 114 44 19 22 39 40 43 40 5 0 31 11 58 25s60 25 73 25c24 0 31 14 12 25-6 4-8 13-5 20 5 14-13 36-28 34-6-1-22-5-36-9z"/><path d="m429 2e3c-83-75-87-114-21-183 27-28 46-50 44-50s1-7 8-15c15-18 52-19 83-3 35 20 97 81 97 95 0 7 5 13 10 13 6 0 10 20 10 45s-4 45-10 45c-5 0-10 6-10 13s-15 27-32 43c-52 48-124 47-179-3z"/></g><g transform="translate(0 256) scale(.1 -.1)" fill="var(--icon-purple, #BFA7FF)"><path d="m1217 1642c-15-15-27-37-27-49 0-28-62-148-108-208-30-40-57-60-134-100-54-27-109-61-123-74l-25-25 32-34c18-18 64-49 102-68 119-60 152-89 201-172 25-42 45-81 45-87s18-28 40-50l40-39 29 28c16 15 51 74 79 130 58 118 50 110 167 171 50 26 108 65 130 86l39 39-29 30c-16 16-35 30-43 30-19 0-93 43-152 87-57 44-121 135-150 216-21 55-63 117-80 117-3 0-18-13-33-28zm43-211c0-15 107-127 181-191l67-58-67-56c-37-30-94-89-127-130-32-41-61-75-64-75-3-1-15 14-28 32-12 19-66 76-119 128s-97 99-98 104c0 6 24 28 55 51 53 39 127 119 165 177 17 27 35 36 35 18z"/></g><g transform="translate(0 256) scale(.1 -.1)" fill="var(--icon-slate, #606078)"><path d="m440 2e3c-44-17-100-94-100-138 0-38 50-126 79-136 14-5 34-14 43-19 41-23 88-8 63 20-14 15-14 18 0 30s13 16-11 42c-15 15-34 28-41 28-15 0-17 38-4 59 5 8 20 12 38 9 23-3 39 3 69 29l39 32-22 22c-23 23-118 37-153 22z"/><path d="m2e3 1826-29-23 38-36c21-21 42-37 48-37 14 0 38-26 38-42 0-7 9-19 19-25 10-7 32-38 47-70 16-32 32-59 36-61s8-12 8-23c0-10 5-19 11-19s9-15 8-34c-2-19 0-38 4-42 9-9 9-178 0-188-4-4-6-25-4-46 1-24-2-40-8-40s-11-9-11-19c0-21-37-98-57-119-7-7-13-17-13-22 0-12-151-160-162-160-5 0-20-11-34-25-21-21-23-27-12-45 17-27 69-27 88 0 8 11 19 20 25 20 14 0 141 130 148 153 4 9 11 17 17 17 5 0 10 9 10 20s3 20 8 20c6 0 45 75 46 92 1 3 4 10 9 14 4 4 7 20 7 35s5 31 10 34c6 3 10 24 10 45s5 42 10 45c6 3 10 35 10 70s-4 67-10 70c-5 3-10 24-10 45s-4 42-10 45c-5 3-10 18-10 33-1 58-64 161-155 255-83 85-95 91-130 63z"/><path d="m1230 1820c0-5-9-10-20-10-16 0-20-7-20-33 0-19-3-37-7-41s-6-22-5-41c2-18-1-36-7-40-6-3-11-17-11-31 0-13-4-24-10-24-5 0-10-8-10-18 0-27-50-122-71-135-11-7-19-18-19-25 0-15-39-51-55-52-5 0-20-13-33-29-13-17-37-33-55-36-42-9-87-28-87-37 0-5-16-8-35-8s-35-4-35-9c0-6-21-11-47-13-63-4-85-39-56-88 15-26 23-30 60-30 23 0 45-4 48-10 3-5 17-10 31-10 28 0 104-31 104-42 0-5 9-8 20-8s20-4 20-9 8-12 18-15c66-24 115-73 151-154 6-12 18-25 26-28 8-4 15-15 15-25s9-35 21-55c11-21 18-46 16-56-3-10-1-21 4-24s9-25 9-50c0-24 4-44 9-44s11-9 14-20c7-26 48-26 72 0 10 11 20 42 23 70 2 28 9 53 13 56 5 3 9 16 9 30 0 13 5 24 10 24 6 0 10 11 10 24 0 14 4 27 9 31 5 3 12 19 16 35 4 17 11 30 16 30s9 8 10 18c1 14 93 104 151 147 29 22 105 55 141 61 20 3 40 10 43 15s22 9 43 9c65 0 105 65 63 103-10 10-33 17-50 17-18 0-32 5-32 10 0 6-15 10-34 10s-38 5-41 10c-3 6-17 10-31 10-13 0-24 4-24 9s-13 12-29 16c-16 3-37 15-47 26-9 10-22 19-28 19-15 0-106 92-106 106 0 6-9 19-19 28-11 10-23 31-26 47-4 16-11 29-16 29s-9 11-9 24c0 14-4 28-10 31-5 3-10 17-10 31 0 13-4 24-9 24s-12 30-16 67c-4 36-13 72-20 80-16 15-55 18-55 3zm177-521c33-30 81-69 107-86l46-31-52-32c-66-40-186-161-223-224l-27-46-57 72c-71 90-177 190-219 207-40 17-40 21 6 51 58 38 199 179 233 232l31 48 48-68c26-37 74-92 107-123z"/><path d="m356 1495c-25-25-46-50-46-56 0-7-8-19-18-28-19-17-35-46-37-71-4-28-17-60-26-60-5 0-9-16-9-35s-4-35-10-35-10-52-10-135 4-135 10-135 10-16 10-35 4-35 9-35c9 0 22-32 26-60 2-25 18-54 37-71 10-9 18-20 18-25 0-4 10-18 21-30 12-13 27-34 33-46 15-30 72-37 91-11 12 16 9 23-26 58-21 23-39 46-39 53s-7 15-15 18c-8 4-15 15-15 25s-3 19-7 19c-11 0-33 50-33 71 0 10-5 21-11 24-6 4-8 13-5 21 3 7 1 16-4 19-6 4-10 28-10 55s-4 52-10 55c-12 8-13 48-1 61 5 5 11 40 13 78 3 42 9 71 16 74 7 2 12 12 12 21 0 23 26 75 45 91 8 7 15 17 15 22 0 6 18 28 40 49 29 28 40 47 40 69 0 49-47 42-104-15z"/><path d="m1778 676c-10-7-18-18-18-25 0-6-4-11-10-11-5 0-10-11-10-24 0-14-4-27-9-30s-12-18-16-33c-6-27-114-143-133-143-5 0-17-9-27-20s-36-23-57-26c-21-4-38-10-38-15s-15-9-34-9-38-4-41-10c-3-5-39-10-79-10-77 0-96-9-96-47 0-31 31-37 149-30 89 6 151 22 151 40 0 4 10 7 23 8 12 0 36 9 52 20 17 10 37 22 45 26 68 32 201 222 203 290 2 51-24 73-55 49z"/></g><g transform="translate(0 256) scale(.1 -.1)" fill="var(--icon-stroke, #24324B)"><path d="m1651 2343c-18-2-40-10-47-16-86-72-104-104-104-182 0-88 60-185 114-185 8 0 18-4 21-10 3-5 30-10 60-10s57 5 60 10c3 6 14 10 24 10 20 0 71 43 93 80 40 64 27 194-23 243-16 15-29 32-29 38 0 5-5 7-11 3-6-3-14-2-18 4-7 12-93 21-140 15zm126-59c136-65 94-280-59-300-59-7-125 27-155 81-78 140 67 288 214 219z"/><path d="m1095 2314c-16-7-42-13-56-14-27 0-130-30-139-40-3-3-18-12-33-19-15-8-48-37-74-64-41-44-44-50-30-64 13-14 18-14 30-2 74 72 158 129 191 129 9 0 16 5 16 10 0 6 15 10 34 10s38 5 42 11c3 6 16 8 29 5 14-4 28 0 35 9 8 9 8 15 2 15s-12 6-14 13c-2 11-8 12-33 1z"/><path d="m411 2e3c-27-26-34-41-40-92-4-34-4-62 1-62 4 0 8-5 8-11 0-7 11-22 24-34 14-13 22-26 18-29-3-4 1-4 10-1 9 4 19 2 23-4 18-29 100-5 145 44 42 45 37 145-10 188-50 46-132 47-179 1zm148-35c63-63 26-159-61-159-74 0-116 66-83 130 34 66 95 78 144 29z"/><path d="m2e3 1816c-9-12-6-19 16-38 117-97 215-251 218-342 0-24 4-42 9-39 4 2 7-35 7-82 0-54-4-84-10-80-6 3-7-1-4-10 8-19-17-135-28-135-4 0-8-8-8-18s-8-27-18-38c-10-10-18-22-18-26 1-4-7-17-16-28-10-11-18-23-18-26 0-19-134-142-149-137-9 4-13 2-9-2 5-5-1-14-12-22-24-17-26-43-4-43 31 0 71 28 156 111 32 31 60 53 63 51 3-3 5 4 5 16 0 11 7 27 15 36 8 8 15 22 15 31s5 13 10 10c6-3 10 3 10 14 0 12 4 21 10 21 5 0 7 6 4 14s-1 17 5 21c6 3 11 19 11 35 0 15 5 30 12 32 8 3 11 21 9 52s1 46 8 42c6-4 9 17 6 61-5 102-16 183-26 183-5 0-9 12-9 26 0 23-58 147-85 182-21 28-120 122-128 122-5 0-5 5-2 10 10 16-31 12-45-4z"/><path d="m1216 1793c-3-10-8-36-11-58-11-67-54-198-78-236-36-59-99-129-115-129-9 0-12-3-9-6 6-7-29-39-48-44-5-2-15-10-21-18-7-9-16-12-24-7-9 5-11 4-6-3 4-7 2-12-4-12s-30-9-52-20c-23-11-54-20-68-20s-30-4-35-9c-6-5-25-11-44-13-65-6-59-78 7-78 68 0 242-76 289-126 13-14 23-22 23-18 0 13 90-92 107-126 10-19 21-37 24-40 15-14 51-123 47-145-3-13-1-22 3-19 5 3 9-6 9-20 0-41 18-76 39-76 24 0 33 13 42 65 21 108 22 113 65 200 76 158 221 264 419 308 52 12 60 17 60 37 0 26-11 33-75 50-121 31-190 59-190 78 0 7-5 10-11 7-5-4-18 3-28 14-10 12-23 21-29 21-14 0-122 120-122 136 0 8-3 14-8 14-9 0-42 74-42 94 0 8-4 17-9 20s-11 18-14 33c-3 16-10 48-16 73s-13 55-16 68c-7 27-51 31-59 5zm56-186c36-174 198-336 412-411 21-7 5-36-21-36-8 0-49-17-91-37-151-73-264-219-297-383-7-36-14-56-14-45-1 12-6 26-12 32s-22 41-34 78c-58 165-213 312-361 343-62 13-52 38 27 72 127 54 188 100 248 190 44 65 101 182 101 208 0 47 32 38 42-11z"/><path d="m373 1483c-32-32-66-72-75-88-26-47-58-138-58-163 0-13-4-21-9-18-21 13-1-323 21-351 5-7 7-16 4-22-3-5-3-11 1-13 5-1 19-25 33-53 14-27 35-61 47-75 13-14 23-29 23-35 0-14 52-43 68-38 18 7 15 19-13 47-14 14-25 30-25 36 0 5-4 10-10 10-5 0-12 11-16 25-3 14-9 25-13 25s-13 16-21 35-16 35-19 35c-9 0-30 72-46 157-15 80-2 239 17 211 6-9 7-5 3 9-5 19 28 110 46 123 3 3 9 14 13 26 3 11 31 49 61 84s52 66 48 69c-5 4-11 10-15 15-3 4-33-18-65-51z"/><path d="m1779 656c-9-6-14-16-12-23 13-39-131-225-198-255-16-7-29-17-29-22 0-4-9-6-20-3s-18 1-15-3c10-16-129-50-199-50-68 0-98-19-65-42 25-16 220 13 278 42 9 4 34 16 56 26 63 30 165 126 188 176 6 16 15 28 19 28 5 0 8 8 8 18 0 9 9 35 19 58 17 38 17 41 2 51-12 8-22 7-32-1z"/><path d="m735 468c-75-28-103-107-66-184 51-104 198-91 237 21 12 37 11 49-19 112-19 41-103 69-152 51zm93-54c61-42 54-121-13-153-64-30-139 46-111 113 23 55 78 73 124 40z"/></g></svg>
