<svg fill-rule="evenodd" stroke-linecap="round" stroke-linejoin="round" viewBox="0 0 256 256" xmlns="http://www.w3.org/2000/svg"><g transform="translate(0 256) scale(.1 -.1)" fill="var(--icon-coral, #FF8A65)"><path d="m455 2e3c-46-23-105-76-105-94 0-7-5-14-10-16-35-11-34-217 1-239 6-3 16-17 22-29 7-13 21-28 32-34s24-17 28-23c4-7 13-13 20-13s25-7 41-15c30-16 113-18 122-3 3 4 13 8 23 8 9 0 40 17 67 37 159 117 136 328-45 421-56 28-139 28-196 0zm-25-93c-13-14-28-25-33-25-6 0 0 11 13 25s28 25 33 25c6 0 0-11-13-25z"/><path d="m544 1489c-16-26-10-99 9-99 14 0 17 9 17 49 0 49-12 72-26 50z"/><path d="m543 1338c-12-16-2-62 15-65 14-3 17 44 3 65-6 11-10 11-18 0z"/></g><g transform="translate(0 256) scale(.1 -.1)" fill="var(--icon-yellow, #FFD85A)"><path d="m947 992-26-27 15-130c9-72 20-140 26-152s8-29 5-37c-4-9-2-16 3-16 6 0 10-18 10-39 0-32 6-44 31-65l31-26h223c277 0 315 12 315 99 0 22 4 42 9 45 4 3 6 17 3 31-2 14 0 31 6 38 5 6 15 60 22 120 9 77 17 107 26 107s14-12 14-35c0-48 17-44 22 5 3 39-19 80-35 64-3-3-18 6-34 20-18 18-35 25-48 21-11-3-39-8-63-12-23-3-45-10-48-14-7-12-307-12-319 0-13 11-97 31-133 31-18 0-38-10-55-28zm433-32c0-6-55-10-145-10s-145 4-145 10 55 10 145 10 145-4 145-10z"/></g><g transform="translate(0 256) scale(.1 -.1)" fill="var(--icon-blue, #5EC8F8)"><path d="m1782 2e3 -32-33v-174-174l54-56h176 176l54 56v180 180l-56 54h-170-170l-32-33z"/></g><g transform="translate(0 256) scale(.1 -.1)" fill="var(--icon-green, #66DDAA)"><path d="m1212 2e3c-17-27-36-61-41-75-6-15-14-27-19-27-4 0-13-12-20-27-7-16-26-50-42-78-16-27-37-66-46-85s-23-43-32-53c-16-18-15-20 18-48l35-28 206-1c168 0 209 3 219 14 6 8 18 12 26 9 24-9 17 49-11 87-14 19-25 39-25 45s-13 29-30 51c-16 21-30 44-30 51 0 6-7 19-16 28-10 9-26 33-37 53-10 20-26 49-34 65-8 15-18 27-23 27-4 0-10 9-13 20-10 38-50 25-85-28z"/><path d="m1695 1e3c-10-11-21-18-23-15-3 3-18-7-34-22-28-27-41-93-18-93 6 0 10 16 10 35 0 24 5 35 14 35 11 0 16-21 22-80 3-44 10-80 13-80 4 0 13-45 20-101 13-108 19-131 31-124 4 2 18-7 30-20l23-25h240 239l28 30c25 27 29 43 45 167 10 76 21 143 25 148 4 6 11 34 15 64 7 51 6 55-21 76-24 19-33 21-54 12-38-16-553-16-572 0-12 11-18 9-33-7zm595-39c0-14-273-24-429-16-234 12-160 25 144 25 161 0 285-4 285-9z"/></g><g transform="translate(0 256) scale(.1 -.1)" fill="var(--icon-purple, #BFA7FF)"><path d="m189 994c-12-14-2-164 11-164 4 0 13-53 20-117 13-115 13-117 53-160l40-43h232c219 0 233 1 250 20 10 11 24 20 30 20 16 0 20 18 35 140 7 52 16 103 21 112 5 10 9 46 9 81 0 56-3 66-27 90l-28 26-285 1c-157 0-300 2-318 4-18 1-37-3-43-10zm661-34c0-17-586-17-604 1-6 5 112 9 297 9 198 0 307-4 307-10z"/><path d="m1519 576c-3-3-90-7-193-10l-189-5-31-30-31-31h214c200 0 216 1 248 21s33 22 17 40c-17 19-27 23-35 15z"/></g><g transform="translate(0 256) scale(.1 -.1)" fill="var(--icon-orange, #FFB84D)"><path d="m1110 993c-14-3-37-16-53-31l-27-26 54-56h186 186l58 60-55 57h-162c-89 1-173-1-187-4zm270-33c0-6-55-10-145-10s-145 4-145 10 55 10 145 10 145-4 145-10z"/></g><g transform="translate(0 256) scale(.1 -.1)" fill="var(--icon-skin, #F0D8C0)"><path d="m2165 1649c-11-4-97-8-191-8-182-1-215-9-184-46 10-12 44-15 186-15 183 0 218 6 227 39 6 26-12 41-38 30z"/><path d="m2e3 1478c-18-18-15-75 4-82 30-11 34-6 34 44 0 51-12 64-38 38z"/><path d="m2e3 1328c-14-15-16-22-6-25 6-3 12-13 12-23s7-20 15-24c12-4 15 4 15 39 0 52-11 62-36 33z"/><path d="m1360 995-23-25h21c12 0 22-4 22-10 0-5-12-10-27-10h-28l60-59 84 9c71 8 88 13 112 36l29 28-27 28c-39 41-186 43-223 3z"/><path d="m1771 536c-32-34-21-36 240-36 249 0 285 6 253 41-16 18-33 19-244 19-225 0-227 0-249-24z"/></g><g transform="translate(0 256) scale(.1 -.1)" fill="var(--icon-slate, #606078)"><path d="m1788 2e3 -38-24v-182-181l23 19c82 68 77 57 77 176v109l295-6 1-175c2-170 2-175 23-178 33-5 40 31 42 230l1 183-53 55-167-1c-160 0-169-1-204-25z"/><path d="m1e3 1685c-21-28-23-56-6-73 9-9 80-12 259-12 267 0 259-2 259 53 0 43-16 54-43 29-22-21-31-22-216-22-192 0-192 0-214 25l-22 25-17-25z"/><path d="m1251 1486c-22-26-10-90 17-94 22-3 23-1 20 49-3 54-16 70-37 45z"/><path d="m545 1340c-4-7-8-32-8-55s4-48 8-55c12-19 25 9 25 55s-13 74-25 55z"/><path d="m1252 1338c-7-7-12-31-12-55 0-39 2-43 25-43 22 0 25 4 25 39 0 64-13 84-38 59z"/><path d="m2e3 1323c-11-13-11-17-1-20 6-3 12-18 12-34 0-19 5-29 15-29 11 0 15 12 15 50 0 53-15 65-41 33z"/><path d="m539 1186c-6-55 0-101 15-104 21-4 20 99-1 106-7 2-13 1-14-2z"/><path d="m1240 1142c0-39 14-62 37-62 9 0 13 16 13 50 0 47-2 50-25 50-22 0-25-4-25-38z"/><path d="m2e3 1160c-15-25-15-53 0-68 26-26 38-13 38 38 0 54-15 66-38 30z"/><path d="m197 1e3c-21-23-23-77-3-69 7 3 18 1 23-4 6-6 120-10 292-9 265 1 281 0 281-18 0-21 85-108 93-95 3 4 8 45 12 91 12 131 37 122-355 122-304 0-328-1-343-18zm653-42c0-17-586-17-604 1-6 5 112 9 297 9 198 0 307-4 307-10z"/><path d="m944 1e3c-19-13-24-42-18-98l7-55 27 26c19 19 26 33 22 50-6 31 13 33 45 3 22-21 29-21 280-19 164 2 262 6 271 13 9 8 18 6 32-7 18-16 20-16 20-2 0 10 7 17 15 17 9 0 15-9 15-22v-21l25 23c19 17 28 20 38 12 15-13 568-18 588-7 6 4 21-3 33-14l23-22 7 23c11 41 6 75-12 91-17 15-55 17-344 17h-325l-23-25c-13-14-26-25-30-25s-12 11-18 25l-12 25h-327c-181 0-333-4-339-8zm436-52c0-6-55-10-145-10s-145 4-145 10 55 10 145 10 145-4 145-10zm910 1c0-14-273-24-429-16-234 12-160 25 144 25 161 0 285-4 285-9z"/><path d="m233 625c5-52 11-64 41-92l36-33h235 234l30 29c34 33 49 75 31 86-6 4-17 2-24-4s-15-8-18-5c-4 3-106 5-227 4l-221-1-31 36c-25 28-34 33-45 24s-18-8-31 2c-15 13-16 9-10-46z"/><path d="m1713 595c10-93 17-95 298-95h241l30 30c24 25 28 33 18 45-7 8-17 12-22 9s-17 1-27 10c-17 15-474 27-489 12-3-4-17 4-30 16l-25 23 6-50z"/></g><g transform="translate(0 256) scale(.1 -.1)" fill="var(--icon-stroke, #24324B)"><path d="m1248 2057c-9-9-33-47-54-84-20-37-40-70-43-73s-14-21-24-40c-9-19-31-57-47-85-16-27-37-65-46-82-10-18-21-33-26-33-14 0-9-22 10-36 18-14 452-21 486-8 29 11 17 46-68 188-46 77-91 155-99 171-9 17-28 45-44 64-27 31-30 32-45 18zm44-79c9-18 54-98 102-177 47-79 86-145 86-147s-94-4-210-4c-115 0-210 4-210 8s25 50 55 102 74 130 97 172c48 87 57 92 80 46z"/><path d="m471 2e3c-88-31-142-104-149-202-19-266 355-351 449-102 72 191-107 372-300 304zm162-34c146-75 159-269 23-354-126-77-282 3-294 151-10 125 67 214 185 214 35 0 74-5 86-11z"/><path d="m1789 2e3c-25-6-29-33-29-225v-177l27-21c26-20 36-21 204-18 131 2 180 7 192 17 25 20 25 391 1 415-15 15-344 23-395 9zm377-34c10-16 4-352-6-363-17-17-336-18-350-1-18 22-27 339-10 360 16 19 354 23 366 4z"/><path d="m2e3 1474c-10-25-7-74 4-74 6 0 10 20 10 45 0 47-4 55-14 29z"/><path d="m540 1441c0-23 5-41 10-41 8 0 14 44 9 65-6 24-19 8-19-24z"/><path d="m1260 1440c0-22 5-40 10-40 6 0 10 18 10 40s-4 40-10 40c-5 0-10-18-10-40z"/><path d="m544 1317c-8-22-1-73 10-69 11 2 13 69 3 78-4 4-9 0-13-9z"/><path d="m1260 1285c0-25 5-45 10-45 6 0 10 20 10 45s-4 45-10 45c-5 0-10-20-10-45z"/><path d="m2e3 1323c-7-11-1-72 7-80 3-3 6 15 6 40 0 45-4 56-13 40z"/><path d="m547 1173c-10-10-8-66 3-83 7-11 10 0 10 38 0 53-1 57-13 45z"/><path d="m1260 1141c0-23 5-41 10-41 6 0 10 15 10 34s-4 38-10 41c-6 4-10-10-10-34z"/><path d="m2e3 1173c-11-10-8-71 3-78 6-4 10 12 10 39 0 47-2 51-13 39z"/><path d="m209 994c-16-17-19-30-14-60 3-22 12-86 21-144 25-172 37-223 62-250l23-25 247 5c246 5 272 8 272 36 0 8 3 14 8 14 4 0 8 10 8 23 2 37 35 261 41 277 3 8 7 36 9 61 7 80 14 78-344 81-308 3-314 3-333-18zm645-22c6-11-51-370-64-399-10-23-10-23-242-23-128 0-239 4-246 9-24 14-83 396-65 414 9 10 611 9 617-1z"/><path d="m940 995c-10-12-10-33 0-108 8-50 15-103 16-117s3-25 4-25c2 0 10-45 19-100 22-139 13-135 310-130 281 5 271 0 290 150 7 55 19 127 26 160 43 198 67 185-334 185-273 0-320-2-331-15zm639-24c17-11-49-398-70-412-8-5-114-9-236-9-267 0-240-20-277 207-35 219-36 211 17 216 88 8 553 6 566-2z"/><path d="m1680 992c-21-17-22-21-11-71 6-29 8-57 5-63-4-6-3-8 3-5 5 3 16-48 26-126 9-73 18-141 19-152 6-46 28-50 290-55l246-5 21 23c12 13 21 34 21 46 0 13 3 26 7 30 4 3 8 14 9 24 19 151 38 268 43 272 14 11 11 63-5 81-26 29-639 29-674 1zm638-21c13-8 5-80-33-291-8-47-15-88-15-92 0-34-31-38-261-38-268 0-236-19-269 160-31 164-37 250-19 261 17 11 579 11 597 0z"/></g></svg>
