<svg fill-rule="evenodd" stroke-linecap="round" stroke-linejoin="round" viewBox="0 0 256 256" xmlns="http://www.w3.org/2000/svg"><g transform="translate(0 256) scale(.1 -.1)" fill="var(--icon-blue, #5EC8F8)"><path d="m1225 2e3c-12-7-51-34-88-60l-68-48-19 23c-16 20-21 21-37 10-10-6-24-15-32-19-41-19-50-40-27-63l21-22-35-28c-19-15-95-76-168-134l-133-106-29 21c-27 21-36 22-151 15-67-4-130-11-141-17-14-8-25-7-42 5-22 14-25 13-51-14-23-24-26-32-15-44 6-9 12-40 11-70 0-31 4-58 9-61 13-8 13-92 0-100-17-11-13-240 5-255 8-7 15-20 15-30 0-9 9-25 20-35 12-10 19-24 16-31-2-6 8-23 23-38 26-25 31-26 148-26h121l32 36 32 37-5 241c-2 133-2 201 0 151 2-49 7-99 12-110s12-85 15-165l7-145 32-33c27-29 91-84 190-163 20-16 20-18 4-43-20-31-21-36-4-36 8 0 24-11 37-25s28-25 33-25c6 0 17-7 26-15s31-27 50-42l34-27 17 22c10 12 22 22 28 22 11 0 77-50 112-85 14-14 35-25 46-25 26 0 70 45 54 55-8 5-5 14 9 29 20 21 20 30 21 704v683l-46 49c-49 52-56 55-89 37z"/></g><g transform="translate(0 256) scale(.1 -.1)" fill="var(--icon-purple, #BFA7FF)"><path d="m1180 2e3c-19-12-54-37-77-57-24-19-43-31-43-27 0 5-9 0-20-10-16-14-23-16-32-7-18 18-34 15-65-13-54-48-101-85-108-85-4 0-18-11-31-25s-28-25-33-25c-18 0-31-36-19-48 9-9-2-24-43-61-54-49-54-49-75-30-27 25-267 28-314 4-20-10-31-12-36-4-4 7-19-2-40-22-30-29-32-34-19-49 11-12 12-24 6-48-5-17-6-34-1-37s4-22-2-42c-16-57-1-197 23-219 19-17 19-18-1-39-16-17-21-37-22-93l-2-72 49-50c58-59 88-64 128-22l27 28-28 27c-15 15-33 27-40 27s-12 3-12 8c-5 83-15 130-31 148-19 20-19 21 1 39 18 16 20 31 20 130 0 61-4 115-9 121-25 24 15 42 110 49l94 7v-283-284l24-27c29-32 38-34 62-12 17 15 22 13 70-27 108-90 150-132 140-142-20-20 91-106 114-87 19 16 89-36 80-58-6-15 40-72 58-72 5 0 25-13 44-30 20-18 45-30 61-30s33-5 40-12c9-9 12-9 12 0 0 7 13 12 30 12 32 0 57 29 40 46-6 6 2 23 20 46l30 37-31 36c-29 32-33 34-49 20-15-13-19-12-45 15-30 31-80 41-102 19-12-12-91 37-176 108-67 56-166 136-179 144-8 5-13 96-15 323l-3 315 88 68c48 37 110 86 137 108 92 76 225 165 246 165 11 0 28-4 38-10 14-7 24-3 45 18l26 28-38 36c-49 48-78 54-122 27z"/><path d="m1352 2e3c-21-22-22-33-22-188v-165l70-68v211c0 231-6 255-48 210z"/></g><g transform="translate(0 256) scale(.1 -.1)" fill="var(--icon-skin, #F0D8C0)"><path d="m192 1550c-18-29-16-488 2-512 12-17 14-17 30 0 25 29 24 491-2 515-16 15-19 15-30-3z"/></g><g transform="translate(0 256) scale(.1 -.1)" fill="var(--icon-slate, #606078)"><path d="m1153 2076c-13-7-31-20-41-29-10-10-22-17-26-17-5 0-17-11-28-25s-24-25-29-25c-6 0-21-8-34-17l-24-18 93-94 40 33c59 48 108 76 134 76h22v-667c0-608 1-668 17-685 15-17 15-20-7-43-13-14-20-25-15-25s-2-11-15-25-19-25-14-26c30-4 71 5 85 17 8 8 21 14 27 14s18 17 27 38c9 20 21 45 26 54 13 25 12 1345-1 1353-5 3-10 14-10 24 0 19-59 81-78 81-7 0-12 5-12 10 0 14-110 11-137-4z"/><path d="m2e3 2e3c-29-17-21-52 22-94 22-21 40-44 40-49 0-6 12-21 27-33 26-23 47-53 59-85 3-10 10-18 14-18 5 0 11-13 15-30 4-16 10-30 15-30 7 0 22-33 24-57 1-6 5-15 9-19s7-18 7-31 4-23 9-23c6 0 13-31 17-70 3-38 11-70 15-70 12 0 12-257 0-264-4-3-11-32-13-64-3-32-10-67-16-78-12-23-25-55-26-69-1-10-78-164-99-200-7-10-29-35-49-55-21-20-38-42-38-48 0-7-11-18-25-24-44-20-29-88 20-88 19 0 95 66 95 83 0 5 12 19 27 33 27 25 48 55 59 87 3 9 10 17 13 17 8 0 54 87 57 105 3 24 17 55 25 55 4 0 11 20 15 45 3 25 10 45 15 45 4 0 11 32 15 70 3 39 11 70 15 70 5 0 9 63 9 140s-4 140-9 140c-4 0-11 32-15 72-3 39-10 76-15 82-4 6-11 25-15 41-4 17-27 71-52 120-58 114-64 125-91 152-13 12-23 26-23 30 0 12-113 123-125 123-5 0-18-5-27-11z"/><path d="m790 1800c0-5-6-10-13-10s-26-13-42-30c-16-16-34-30-40-30s-22-11-34-24c-23-24-28-25-197-28l-173-3-46-45c-25-24-45-52-45-61 0-10-4-21-10-24-12-8-14-492-1-499 4-3 11-19 15-36 6-33 52-86 94-107 17-9 73-13 184-13h159l42-32c23-18 46-39 50-45 4-7 14-13 21-13s23-11 36-25 30-25 37-25c8 0 16-7 19-15 7-18 26-19 42-3 9 9 7 17-9 35-20 21-21 24-6 47 16 23 15 25-31 68-26 24-58 52-72 63l-25 20-3 319-2 319 55 50c44 38 53 52 44 63-6 7-8 18-5 23 4 5 2 12-4 16s-8 11-4 16c6 11-13 39-27 39-5 0-9-4-9-10zm-210-189c0-6-4-13-10-16-6-4-10-112-10-291v-284h-114-113l-7 31c-3 17-6 134-6 259 0 186-3 230-14 239-13 11-10 17 17 41 31 29 35 29 145 30 63 0 112-4 112-9z"/><path d="m1772 1768c-25-25-13-63 33-108 25-24 45-50 45-57s4-13 9-13c13 0 39-54 47-96 3-19 10-37 15-40s9-18 9-33 3-30 6-33c3-4 6-52 6-108s-3-104-6-108c-3-3-6-18-6-33s-4-30-9-33-12-22-15-41c-4-19-11-35-15-35-5 0-12-12-15-26-7-28-12-34-73-103-44-49-58-101-29-101 8 0 16-6 19-12 3-10 9-9 23 3 10 9 27 19 37 22 9 4 20 15 24 24 3 10 19 34 35 53s33 40 38 47c5 6 12 24 16 39s13 39 20 53c8 14 14 34 14 43s5 20 10 23c6 3 10 19 10 36 0 16 4 29 9 29 6 0 10 53 10 120s-4 120-10 120c-5 0-9 13-9 29 0 17-4 32-9 36-6 3-13 26-17 50-3 25-10 45-14 45-5 0-11 14-15 30-4 17-11 30-16 30s-9 6-9 13c0 8-11 24-25 37s-23 26-20 29c3 2-11 22-32 43-38 39-69 48-91 26z"/><path d="m1563 1528c-19-23-10-52 25-85 27-25 36-43 40-78 2-25 9-48 13-51 12-7 11-61-1-69-5-3-10-15-10-27 0-28-29-89-55-113-30-29-30-64 1-75 33-13 27-15 71 28 45 42 73 96 73 140 0 17 5 34 10 37 6 3 10 28 10 55s-4 52-10 55c-5 3-10 15-10 26 0 27-38 109-50 109-6 0-10 6-10 13 0 37-75 63-97 35z"/></g><g transform="translate(0 256) scale(.1 -.1)" fill="var(--icon-stroke, #24324B)"><path d="m1150 2055c-6-8-21-17-33-21s-30-17-40-30-23-24-28-24-15-5-22-10c-7-6-28-24-47-40s-38-30-41-30-16-9-28-19c-35-30-90-75-166-132-38-29-77-59-87-68-14-12-45-14-166-12-165 3-205-6-249-57-41-47-45-82-41-354l3-258 98-90h173c141 0 174-3 184-15 7-8 47-41 89-72 75-57 90-68 114-88 7-6 32-26 57-45s50-38 55-43c62-50 195-139 222-148 43-14 119 11 148 50 20 25 20 41 20 739v714l-37 34c-35 31-43 34-102 34-43 0-67-5-76-15zm138-15c17-11 32-22 32-25s-11 2-25 11-40 20-58 24c-27 7-28 8-7 9 14 0 40-8 58-19zm-102-3c-10-7-45-31-78-55s-62-41-65-39c-6 7 137 107 151 106 6 0 3-6-8-12zm108-48 26-31-2-680-3-680-28-24c-54-46-65-40-347 172l-260 197v343 343l96 73c401 306 418 317 456 318 28 0 42-7 62-31zm-412-172c-14-17-102-80-102-73 0 5 101 84 109 85 2 1-1-5-7-12zm-169-133c-29-25-53-53-53-61 0-14-2-15-17-1-10 9-25 18-33 21-9 3-5 6 10 6 14 1 50 19 80 41 73 52 77 50 13-6zm-93-394v-330h-146-146l-68 68v251c0 345-4 340 223 341h137v-330zm120-421c44-34 80-63 80-65 0-9-12-1-62 39-29 23-70 55-91 70-33 25-36 31-26 50 9 15 10 88 7 252-3 126-3 246 1 265 3 19 7-96 9-257l2-292 80-62zm-513 484c-2-16-4-5-4 22 0 28 2 40 4 28 2-13 2-35 0-50zm59-380c18-18 28-33 23-33-18 0-69 58-68 77 0 14 2 15 6 3 3-8 21-30 39-47zm849-400c32-24 54-43 48-43-12 0-133 87-133 96 0 7 13-1 85-53z"/><path d="m2e3 2e3c3-5-2-12-11-15-9-4-13-10-8-13 9-6 115-131 146-172 9-13 17-29 17-36s5-13 10-13c6 0 10-6 10-14s3-16 8-18c26-12 86-186 109-320 30-172-6-388-94-562-57-114-85-151-199-270-14-15 7-36 34-36 38 0 232 257 232 307 0 7 5 13 11 13 5 0 7 5 3 11-3 6-3 14 2 18 9 6 30 71 41 123 3 15 8 26 12 24 9-6 15 75 15 234 0 166-6 250-16 243-5-2-8 6-8 19 0 29-24 92-78 203-24 50-43 90-41 90 16 0-161 183-181 188-11 3-17 1-14-4zm73-77 35-47-46 40c-25 22-47 45-47 52-2 22 23 3 58-45zm171-259c11-30 20-57 20-61-1-7-110 199-110 208 0 18 73-103 90-147zm78-323c0-65-13-15-20 75l-5 70 12-50c7-27 13-70 13-95zm-28-320c-7-28-14-49-17-46s1 28 8 55c7 28 15 49 17 46 2-2-1-27-8-55zm-136-307c-42-62-144-174-144-158 1 6 19 28 41 50s61 70 86 107c26 38 49 66 51 63 3-3-12-31-34-62z"/><path d="m1787 1760c-25-25-22-33 38-102 30-34 55-69 55-75 0-7 3-13 8-13 8 0 22-30 49-105 22-62 27-325 6-347-7-6-13-20-13-30 0-30-57-130-110-191-53-63-54-65-41-86 38-60 173 131 221 311 22 86 27 215 9 282-37 144-58 193-120 276-66 90-80 101-102 80zm157-215c27-59 41-109 28-101-6 3-13 18-17 33-3 15-22 59-41 98-24 48-28 62-14 45 12-14 32-47 44-75zm33-429c-6-36-56-150-63-143-3 2 9 38 26 80 16 41 30 80 30 86s3 11 6 11c4 0 4-15 1-34zm-103-213c-28-44-64-79-64-64s60 89 74 90c4 1 0-11-10-26z"/><path d="m1570 1511c-8-16-4-25 20-50 17-16 30-33 30-37s7-16 17-26c12-14 16-39 17-106 0-97-9-122-72-197-35-42 10-70 51-32 65 60 100 191 77 289-29 124-110 215-140 159zm57-33c49-54 80-163 64-228-8-31-9-28-10 30-2 69-23 129-67 187-28 37-18 45 13 11z"/></g></svg>
