<svg fill-rule="evenodd" stroke-linecap="round" stroke-linejoin="round" viewBox="0 0 256 256" xmlns="http://www.w3.org/2000/svg"><g transform="translate(0 256) scale(.1 -.1)" fill="var(--icon-coral, #FF8A65)"><path d="m1261 887c-13-15-39-27-63-31-22-4-49-13-60-20-11-8-27-12-36-9-10 2-31-10-51-31-35-37-66-46-74-23-3 9-7 9-20-2-9-7-15-17-12-21 2-4-17-8-43-9-25-1-62-10-82-20-32-17-37-17-58-3-22 14-25 13-73-34-28-27-58-65-67-84-15-31-22-35-60-38-23-2-42-7-42-13 0-5-12-9-26-9-27 0-144-102-144-126 0-7-5-14-12-16-24-8-16-133 11-162 16-17 28-23 34-17s19 4 34-6c26-17 798-21 1378-7l260 6 31 30c20 19 34 26 38 19 11-18 26-13 26 8 0 11 4 22 9 25 10 7 9 31-2 42-4 4-7 20-7 36 0 15-4 28-10 28-5 0-10 6-10 13 0 18-99 111-139 131-19 9-46 16-62 16-20 0-35 10-57 41-19 26-33 36-37 29-5-8-23 4-54 34-61 60-120 86-198 86-55 0-62 2-56 18 6 15 5 15-10 3-16-12-21-11-45 12-16 15-33 27-40 27s-12 4-12 9c0 12-50 37-91 46-17 4-34 16-38 26-6 19-8 19-30-4zm-527-269c-3-12-11-26-16-32s-15-20-23-31c-25-35-18 9 8 49 25 40 42 47 31 14z"/></g><g transform="translate(0 256) scale(.1 -.1)" fill="var(--icon-green, #66DDAA)"><path d="m2e3 2370c-8-5-45-12-82-15-38-4-68-10-68-15 0-6-21-15-60-25-25-6-160-79-160-86 0-5-6-9-13-9s-26-13-42-30c-16-16-34-30-40-30-14 0-65-52-65-66 0-6-13-23-30-39-16-16-30-34-30-41s-4-14-8-16c-11-4-72-131-72-149 0-8-6-21-12-27-18-18-18-383 0-404 10-12 9-21-3-44-8-16-15-37-15-46s-4-20-10-23c-6-4-10 5-10 19s-3 26-7 26c-5 0-13 12-20 26-12 25-10 31 15 81 15 28 16 279 2 288-5 3-10 19-10 34s-3 31-7 35-8 13-9 19c-2 24-17 57-24 57-5 0-11 14-15 30-4 17-10 30-15 30-4 0-11 8-14 18-17 46-145 192-169 192-5 0-26 13-46 28-52 40-137 81-182 88-21 4-39 10-39 15s-18 9-39 9c-22 0-42 4-45 8-14 22-300 21-323-1-3-4-17-7-29-7-17 0-25-7-30-25-3-14-10-25-15-25s-9-25-9-55 4-55 8-55c5 0 12-46 15-102 4-56 11-106 17-112 5-5 10-22 10-37s5-31 10-34c6-4 10-12 9-18-2-18 12-57 21-57 4 0 10-18 14-40 3-22 10-40 15-40s12-8 15-17c13-37 38-74 57-86 10-6 19-17 19-23s28-37 62-68c87-80 89-81 126-97 17-8 32-17 32-21 0-3 13-9 30-13 16-4 30-10 30-15s25-12 55-15c30-4 55-12 55-17 0-7 5-7 13-1 6 4 66 6 132 3s122-2 123 3c6 11 57 8 70-5 7-7 12-22 12-34 0-22 22-38 35-26 13 13 90 9 106-5 15-12 17-10 23 22 4 19 11 35 16 35 6 0 10 7 10 15 0 16 45 12 64-6 13-12 266-12 266 0 0 4 24 11 53 14 54 6 211 78 252 117 12 11 26 20 31 20 11 0 94 86 94 98 0 5 9 17 20 27s20 23 20 29c0 7 9 18 20 26 10 8 22 27 25 42 4 15 11 28 16 28s12 18 15 40c4 22 9 40 13 40 11 0 32 57 26 73-4 8-2 18 4 22 6 3 11 19 11 35 0 15 4 30 10 32 5 2 13 51 16 111 4 59 11 107 16 107 4 0 8 29 8 65 0 37-4 65-10 65-5 0-10 6-10 14 0 16-30 26-77 26-18 0-33 5-33 10 0 13-219 12-240 0zm55-80c-3-5-21-10-40-10s-37 5-40 10c-4 6 12 10 40 10s44-4 40-10zm-95-10c0-5-13-10-29-10-17 0-33-4-36-10-3-5-15-10-26-10-10 0-19 5-19 10 0 6 9 10 19 10 11 0 23 5 26 10 3 6 19 10 36 10 16 0 29-4 29-10zm-160-50c0-5-7-10-15-10s-15-4-15-9-13-12-30-16c-16-4-30-11-30-16s-10-11-23-14c-13-4-31-17-41-31-11-13-24-24-29-24-16 0-87-71-87-87 0-6-6-16-13-20s-20-20-30-35c-24-38-39-36-21 2 9 17 19 30 24 30s12 10 16 22c7 23 56 73 114 117 19 14 37 28 40 32 3 3 12 9 20 12 8 4 33 18 55 31 44 26 65 31 65 16zm-786-161c17-15 27-31 24-35-4-3-18 6-31 20s-29 26-34 26c-6 0-17 7-24 16-24 29 32 6 65-27zm136-194c0-8 5-15 10-15 6 0 10-7 10-15s-4-15-10-15c-5 0-10 7-10 15s-4 15-10 15c-5 0-10 7-10 15s5 15 10 15c6 0 10-7 10-15zm814-226c-15-16-33-29-40-29s-14-4-16-9c-5-14-58-25-58-12 0 6 6 11 13 11s37 25 67 55c49 50 55 53 58 34 2-13-7-32-24-50zm184 64c-24-49-32-63-40-63-4 0-8-6-8-13 0-19-139-147-158-147-5 0-15-7-22-15s-19-15-27-15c-24 0-9 24 25 40 30 15 182 152 182 165 0 11 35 54 43 55 5 0 7-3 5-7zm-1511-190c18-13 35-23 38-23 12 0 37-31 31-38-4-3-10-2-14 4s-14 14-22 18c-58 27-113 74-104 88 3 5 13 1 22-9 10-10 31-28 49-40z"/></g><g transform="translate(0 256) scale(.1 -.1)" fill="var(--icon-skin, #F0D8C0)"><path d="m836 771c-3-5-22-12-41-15-19-4-35-11-35-16 0-6-6-10-13-10-8 0-23-10-35-23-22-23-22-24-4-40 10-10 22-14 25-10 4 3 20-6 35-20 27-26 29-27 60-12 17 9 57 16 90 16 68 1 128 42 103 72-9 11-8 17 4 27 20 17 11 28-20 22-15-2-25 0-25 7 0 13-136 15-144 2z"/></g><g transform="translate(0 256) scale(.1 -.1)" fill="var(--icon-slate, #606078)"><path d="m779 1374c-26-28-24-34 11-34 17 0 30-4 30-10s52-10 135-10 135 4 135 10 15 10 32 10h33l-26 25c-25 25-29 26-178 28-142 2-153 1-172-19z"/><path d="m1214 1349c-3-6-12-8-19-5-7 2-17 0-22-5-11-11-5-69 8-69 4 0 11-20 15-45 3-25 10-45 15-45s9-67 9-148c0-154-4-172-44-172-25 0-100-36-116-55-10-12-9-20 3-38 14-22 14-26-4-43-19-20-19-20 10-48l29-28 37 28c29 22 50 29 98 32 49 3 68 9 90 30l27 26-27 28c-25 26-25 29-10 46 22 24 21 29-3 35-19 5-20 14-20 156 0 95 4 160 12 174 43 84 45 108 8 135-26 19-31 20-35 7-15-46-19-50-22-23-4 28-28 44-39 27z"/><path d="m1442 778c-7-7-12-16-12-22 0-5-9-19-20-31l-20-21 40-39c36-35 42-37 65-27 73 33 217 1 274-62 23-24 26-25 43-10 13 13 21 14 31 5 24-19 45 14 23 37-9 10-16 23-16 28 0 14-83 94-98 94-7 0-12 4-12 10 0 5-18 13-40 16-22 4-40 10-40 15 0 14-134 11-148-3-9-9-16-8-30 5-22 20-24 21-40 5z"/><path d="m1290 625-44-45 44-45c54-55 66-55 113-7 46 47 46 47-5 99-52 53-54 53-108-2z"/><path d="m2066 321c-5-7-60-11-160-11h-152l-27-28c-15-16-24-32-20-35 4-4-286-6-644-5l-651 3-26 24c-25 23-27 24-43 8s-15-19 12-47c16-16 35-30 42-30s13-4 13-10c0-7 283-10 830-10s830 3 830 10c0 6 6 10 13 10 18 0 67 52 67 71 0 8 5 20 10 25 20 20-17 40-38 21-17-15-20-15-34-1-11 11-18 12-22 5z"/></g><g transform="translate(0 256) scale(.1 -.1)" fill="var(--icon-stroke, #24324B)"><path d="m1930 2350c-19-5-43-7-54-3-12 3-16 1-12-6 5-7-2-11-18-11-14 0-28-5-31-11-4-6-13-8-21-5-7 3-16 1-19-4-4-6-15-10-26-10-10 0-19-4-19-9s-12-12-27-16c-15-3-30-10-33-13-3-4-21-16-41-27-60-33-189-141-189-158 0-4-15-27-34-51-107-141-154-376-111-561 15-63 15-69-6-126-12-33-27-58-33-56-6 3-10 10-9 16 2 6-2 11-7 11-6 0-10 7-10 15 0 9-7 27-16 40-15 23-15 28 0 65 34 85 18 354-26 425-3 6-9 25-13 43-3 17-10 32-15 32-4 0-10 8-14 18-10 32-31 57-112 137-96 94-104 100-132 109-12 4-22 11-22 16 0 6-26 18-52 24-3 0-10 4-14 9-4 4-16 7-26 7s-18 4-18 9-24 12-52 16c-29 4-57 11-63 15-21 17-223 25-322 14-87-11-97-28-88-143 4-53 8-115 9-138 0-23 3-40 7-37 5 3 15-48 22-118 1-10 5-18 9-18s8-11 8-25 3-25 8-25c4 0 16-21 26-48 40-100 168-260 242-304 150-88 237-111 398-105 72 3 142 7 155 9 28 4 50-29 81-123 18-52 20-81 18-217l-3-157-40-9c-22-4-47-10-55-13-8-2-17-5-20-5-3-1-23-18-45-39l-39-37-86 5c-140 9-224-36-305-163-29-44-40-54-63-54-79 0-222-97-222-150 0-11-3-20-8-20-4 0-7-21-7-47 0-41 5-54 37-88l37-40h830 830l30 29c17 17 31 36 31 43s3 13 8 13c11 0 7 72-7 105-34 81-131 155-204 155-30 0-40 4-44 20-3 11-9 20-14 20s-9 6-9 14c0 25-89 113-138 137-47 22-212 43-212 27 0-17-25-6-62 27-43 39-62 49-125 65l-43 11v157c0 150 15 242 42 262 3 3 10 18 13 33 4 15 11 27 16 27s9 6 9 14c0 12 6 12 38 0 58-21 263-18 348 5 161 43 318 150 404 276 14 20 30 42 35 48 6 7 10 17 10 22 0 9 27 70 56 127 5 10 9 26 9 36s3 22 7 26c8 8 11 23 19 90 4 33 9 44 15 35s8 0 8 26c-1 22 2 92 5 155 10 161 18 154-187 157-89 1-178-2-197-7zm319-46c24-7 24-7 17-117-17-283-132-547-287-662-83-62-127-87-139-80-5 3-10 1-12-5-4-12-138-47-217-56-86-9-221 12-221 36 0 51 210 303 337 405 49 39 88 77 88 85 0 99-393-280-458-442-28-70-37 199-11 315 16 68 64 176 91 205 7 7 13 16 13 20s25 34 55 67 55 56 55 52 11 4 25 18 29 25 34 25c4 0 17 9 29 20 12 12 22 18 22 15 0-4 12 2 28 13 28 20 71 37 85 34 4-1 7 3 7 8 0 6 9 10 19 10 11 0 23 5 26 11 4 6 13 8 21 5 7-3 16-1 19 4 4 6 33 10 66 10 43 0 58 3 53 11-8 13 210 7 255-7zm-1607-60c133-27 263-93 349-178 55-53 129-154 129-175 0-6 5-11 10-11 6 0 10-7 10-15s4-15 8-15c21 0 45-158 40-269-5-114-12-140-32-107-103 175-381 445-419 407-9-10-6-18 19-39 17-15 59-51 93-81 98-84 281-311 281-348 0-18-76-33-163-33s-240 27-232 40c3 4-11 11-30 14-19 4-35 11-35 16 0 6-7 10-15 10s-15 5-15 10c0 6-6 10-13 10-45 0-187 159-238 267-72 154-128 473-86 500 38 24 216 23 339-3zm693-1445c27-7 56-28 88-61 45-48 48-50 76-38 116 48 276-27 331-156 17-39 23-44 52-44 138 0 260-146 191-229-18-20-21-20-768-21-412-1-778-1-812-1-95 1-123 43-87 129 32 77 129 133 204 117 27-6 30-4 41 34 7 23 16 41 21 41 4 0 8 7 8 15 0 9 7 18 15 21 8 4 15 12 15 20s6 14 14 14 16 7 20 15c3 8 12 15 21 15 8 0 15 4 15 9 0 32 156 51 217 26 39-16 57-10 68 26 4 10 13 19 21 19s14 4 14 8c0 9 38 30 75 43 32 11 116 10 160-2z"/><path d="m1155 620c-4-7-3-16 3-22 14-14 47-6 47 12s-40 26-50 10z"/><path d="m1324 589c-10-17 23-46 37-32 7 7 9 19 6 27-7 18-33 21-43 5z"/></g></svg>
