<svg fill-rule="evenodd" stroke-linecap="round" stroke-linejoin="round" viewBox="0 0 256 256" xmlns="http://www.w3.org/2000/svg"><g transform="translate(0 256) scale(.1 -.1)" fill="var(--icon-yellow, #FFD85A)"><path d="m1230 2350c0-5-8-10-18-10-30 0-74-26-115-68-40-41-150-248-141-264 3-5-2-18-12-29-9-10-13-19-9-19s1-8-8-17c-8-10-15-20-15-23 1-3-13-35-31-72l-32-68h-54c-30 0-57-4-60-10-3-5-39-10-80-10s-77-4-80-10c-3-5-30-10-60-10s-57-4-60-10c-3-5-28-10-54-10-80 0-166-52-191-115-8-19-17-35-22-35-10 0-11-164-1-173 3-4 14 0 24 9 16 14 18 14 24-5 3-11 80-92 171-180 103-99 161-162 154-166-8-5 0-20 24-44l35-36-13-65c-7-36-17-86-20-112-7-48-19-67-31-48-13 22-34-25-35-77 0-28-4-55-10-58-5-3-10-26-10-50s-4-47-10-50c-5-3-10-35-10-71s4-64 10-64 10-11 10-25c0-35 100-135 135-135 14 0 25-4 25-10s28-10 65-10 65 4 65 10 13 10 30 10c19 0 34 7 42 20 7 11 21 20 32 20 18 0 18 1 2 19s-12 21 101 85c110 62 118 65 135 49 11-10 18-11 18-5 0 7 9 12 20 12s20 5 20 10c0 6 9 10 20 10s20 5 20 10c0 6 9 10 19 10 11 0 22 6 25 13 5 9 7 9 12 0 3-7 14-13 25-13 10 0 19-4 19-10 0-5 8-10 18-10s24-9 32-20 22-20 32-20 18-4 18-10c0-5 8-10 18-10s24-9 32-20 22-20 32-20 18-4 18-10c0-5 9-10 20-10s20-4 20-10c0-5 9-10 20-10s20-4 20-10c0-5 8-10 18-10s24-9 32-20 22-20 32-20 18-4 18-10c0-5 9-10 20-10s20-4 20-10 32-10 75-10 75 4 75 10 9 10 20 10 20 5 20 10c0 6 7 10 16 10 15 0 74 55 74 69 0 4-5 12-11 18-9 9-8 21 5 46 23 49 21 79-9 215-4 14-1 21 7 20 16-4 24 70 9 85-6 6-11 35-11 63 0 29-4 56-10 59-5 3-10 15-10 27 0 16-3 18-14 9-8-7-16-8-19-4-7 11-27 121-27 146 0 12 68 85 177 191 237 230 260 270 214 366-11 23-15 42-10 46 13 7-60 98-90 112-14 7-42 12-62 12-21 0-41 5-44 10-3 6-34 10-69 10-34 0-67 5-72 10-14 14-150 9-147-6 1-7-22-7-78 0l-80 11-98 202c-97 197-99 202-80 219 17 15 18 19 4 34-8 9-15 21-15 26 0 26-105 104-140 104-11 0-20 5-20 10 0 6-22 10-50 10-27 0-50-4-50-10z"/></g><g transform="translate(0 256) scale(.1 -.1)" fill="var(--icon-slate, #606078)"><path d="m1453 2229c-20-21-20-22-3-58 45-91 52-112 40-126-9-11-7-25 10-62 54-115 85-174 96-184 7-6 11-16 8-23-8-20 62-80 83-71 25 10 111 6 151-8 31-11 34-9 70 26l37 37h-57c-31 0-60 5-63 10-3 6-30 10-60 10h-54l-32 68c-18 37-32 69-31 72 0 3-7 13-15 23-9 9-12 17-8 17s0 9-10 20-15 20-12 20-13 37-37 83c-23 45-41 87-39 93s-6 19-17 29-20 24-20 32c0 19-12 16-37-8z"/><path d="m2166 1708c4-7 12-19 18-27 5-7 11-19 12-27 2-14 71-101 99-124 23-19 15-152-9-142-3 1-10 2-15 2-10 0-411-393-411-403 0-3 14-22 31-42 22-25 33-49 37-80 4-37 12-52 46-82l41-38 3 29c2 16-1 33-7 39s-11 30-11 53c0 24-4 46-10 49-5 3-10 21-10 38 0 28 22 54 190 219 105 102 190 193 190 202s5 16 10 16c6 0 10 37 10 90 0 50-3 90-8 90-4 0-15 18-25 40-10 24-27 44-41 50-13 5-27 13-30 19-18 29-127 57-110 29z"/><path d="m180 1448c0-32 4-58 10-58s10-7 10-16 86-100 190-202c168-165 190-191 190-219 0-17-5-35-10-38s-10-26-10-50-5-47-10-50c-6-3-10-21-10-40s-5-37-10-40c-12-7-14-85-2-85 21 0 72 69 81 109 5 24 21 56 36 71 14 15 25 31 24 36s1 17 6 27c4 10 2 23-5 32-10 13-10 19 4 33 26 29 20 44-43 106-52 52-62 58-76 46-24-20-75 31-55 55 13 16-16 48-277 299l-43 41v-57z"/><path d="m2e3 672c-27-28-35-56-18-66 7-5 22-110 22-160 0-10-9-28-20-40-19-20-19-23-5-38 15-15 15-19-6-47-21-31-16-61 12-61 15 0 58 48 58 65 0 8 5 15 10 15 6 0 10 14 10 30 0 17 5 30 10 30 6 0 10 20 10 44 0 25-4 48-10 51-5 3-10 26-10 50s-4 47-10 50c-5 3-10 26-10 50 0 55-10 61-43 27z"/><path d="m1131 464c-26-11-37-11-48-3-26 22-234-105-217-133 3-5-3-20-15-32l-21-23 20-18c11-10 20-13 20-7 0 7 9 12 20 12s20 5 20 10c0 6 9 10 20 10s20 5 20 10c0 6 8 10 18 10s24 9 32 20 22 20 32 20 18 5 18 10c0 6 9 10 20 10s20 5 20 10c0 6 8 10 18 10s24 9 32 20 22 20 31 20c24 0 31 26 11 43-15 14-21 14-51 1z"/></g><g transform="translate(0 256) scale(.1 -.1)" fill="var(--icon-stroke, #24324B)"><path d="m1223 2328c11-7-23-13-47-9-17 3-92-86-118-140-15-30-47-97-72-149s-46-100-46-107-4-13-10-13c-5 0-10-9-10-20s-4-20-10-20c-5 0-10-9-10-20s-4-20-10-20c-5 0-10-9-10-20s-6-20-14-20-16-7-20-15c-4-11-21-15-60-15-30 0-58-4-61-10-3-5-37-10-75-10s-72-4-75-10c-3-5-30-10-60-10s-57-4-60-10c-3-5-28-10-55-10-54 0-111-25-146-65-12-13-25-21-29-17s-6 0-5-8c4-26 0-41-9-36-13 9-13-130 1-176 12-42 44-76 302-327 60-59 95-100 92-110-2-9-9-36-14-61-6-25-19-76-28-115-9-38-20-95-26-125-5-30-13-75-17-100-5-25-12-62-16-83-17-88 49-215 122-233 12-4 21-9 18-14-2-4 36-7 86-7 49 0 85 3 79 7-7 4 8 13 33 21 25 7 43 17 41 21-3 4 4 8 15 8 12 0 21 4 21 10 0 10 80 55 93 52 4-1 7 5 7 14 0 11 6 15 20 11 11-3 20-1 20 4s21 19 48 32c26 12 49 25 50 30 2 4 12 7 23 7 10 0 19 5 19 10 0 6 9 10 20 10s20 3 20 8c0 4 10 13 21 21 19 11 25 10 50-8 15-12 32-21 38-21 5 0 11-3 13-7 2-5 23-19 48-32 25-14 47-27 50-30s35-22 73-40c37-19 67-39 67-43s9-8 21-8c11 0 17-4 14-10-3-5 0-10 8-10s36-12 63-27c53-29 215-43 211-19-1 6 5 11 13 11s36 20 61 45c48 48 74 133 58 191-4 13-7 48-8 77-1 28-5 52-11 52-5 0-10 23-10 50 0 28-4 50-9 50s-11 21-14 48c-4 26-11 70-17 97-6 28-13 68-16 90l-6 41 182 179c211 208 223 227 218 340-2 40-6 71-11 68-4-2-11 6-16 19-21 54-104 108-168 108-21 0-43 4-48 9-6 5-37 12-70 15s-94 10-135 16c-41 5-104 13-140 17-44 5-64 12-62 21 1 6-3 11-10 10-6-2-14 6-16 17s-7 22-11 25c-16 12-152 300-146 309 3 6 2 11-4 11-12 0-42 60-35 71 3 5 1 9-4 9s-27 18-50 39c-22 22-55 42-73 46-17 4-27 10-21 14 5 3-21 6-58 6-38 0-63-3-57-7zm172-54c14-9 25-21 25-26 0-7-5-7-13 0-7 6-33 20-57 32-42 19-42 20-13 15 18-2 44-12 58-21zm-30-32c32-18 121-180 224-407 33-73 58-114 73-122 13-6 100-21 193-33 367-47 396-56 430-137 39-93 13-135-214-353-94-90-174-174-177-186s18-140 46-285c64-325 60-368-34-413-81-38-98-32-405 143-111 63-206 111-221 111-14 0-97-40-185-91-296-168-318-179-372-179-83 0-153 67-153 149 0 17 15 108 34 203 63 320 68 347 61 367-3 10-87 97-186 192-185 177-202 198-214 262-9 46 23 117 66 148 31 22 44 24 364 68 233 33 214 26 235 74 77 176 212 436 241 465 55 54 125 62 194 24zm-322-184c-18-46-62-128-69-128-5 0 6 26 43 103 37 75 52 90 26 25zm568-167c17-35 28-68 27-73-5-13-108 197-108 218 0 13 47-70 81-145zm-1273-243c-7-7-31-26-53-43l-40-30 24 34c13 18 33 36 45 41 31 13 39 12 24-2zm1922-1c23-18 60-68 60-81-1-6-8-2-18 9-9 11-34 35-55 53-37 31-24 49 13 19zm-1895-373c86-86 111-115 86-100-21 13-174 162-182 178-18 33 0 19 96-78zm1754-97c-86-84-164-167-173-184-19-38-22-39-30-17-6 16 342 369 353 358 3-3-65-73-150-157zm-1512-133c32-24 47-74 23-74-5 0-10 6-10 13s-14 29-31 50c-36 43-29 47 18 11zm729-535c47-28 43-34-6-9-22 11-40 23-40 25 0 9 13 5 46-16zm-256-94c0-8-144-85-160-85-18 0 11 21 83 60 49 27 77 36 77 25zm530-60c22-14 40-28 40-30 0-7-49 19-75 39-32 24-8 18 35-9z"/></g></svg>
