<svg fill-rule="evenodd" stroke-linecap="round" stroke-linejoin="round" viewBox="0 0 256 256" xmlns="http://www.w3.org/2000/svg"><g transform="translate(0 256) scale(.1 -.1)" fill="var(--icon-coral, #FF8A65)"><path d="m738 2e3c-41-21-78-67-78-98 0-20-5-21-82-21-80 0-81 0-63-20 15-16 15-22 5-35-11-13-5-15 48-15 76 0 92-6 92-36 0-14 7-27 15-30 8-4 15-12 15-20s7-14 15-14 15-4 15-9c0-17 62-41 107-41 50 0 83 18 132 72 28 31 63 45 47 19-6-9 47-59 81-78 56-32 183 3 209 56 17 34 34 49 34 30 0-20 62-79 82-79 9 0 20-4 23-10 9-14 101-12 128 3 35 19 67 49 67 63 0 6 7 17 15 24s15 21 15 31c0 11 5 19 10 19 6 0 10 16 10 35s-4 35-9 35-12 13-16 28c-6 29-50 76-92 100-56 31-172 5-183-40-4-14-13-23-25-23-11 0-20-6-20-12 0-14-15-18-16-5 0 13-53 63-83 77-16 8-57 15-91 15-60 0-64-2-111-45-55-52-56-52-69-23-27 59-152 85-227 47z"/></g><g transform="translate(0 256) scale(.1 -.1)" fill="var(--icon-yellow, #FFD85A)"><path d="m780 1451c0-4-14-12-32-17-34-10-87-74-88-106 0-13-8-18-30-18-16 0-30-2-30-4 0-3 14-25 30-49 17-25 30-51 30-59 0-17 61-78 77-78 6 0 13-6 16-12 6-21 140-17 164 5 11 9 25 17 31 17 7 0 12 4 12 9s12 24 27 42l27 32 11-34c7-19 21-39 32-44 12-6 28-17 36-24 28-23 120-26 158-5 51 28 89 65 105 102 13 32 16 33 61 30s48-5 56-38c23-96 185-141 270-76 20 15 37 34 37 41s7 15 15 19c8 3 15 17 15 31s5 25 10 25c6 0 10 5 10 12 0 6 10 22 22 35l21 23h-29c-25 0-32 7-49 46-11 25-29 50-40 55s-27 13-35 17c-45 26-63 32-90 32-16 0-30-4-30-9s-14-11-32-15c-43-8-86-52-94-93-6-32-7-33-60-33-51 0-54 1-70 35-20 42-78 95-104 95-10 0-22 5-25 10-24 38-195-47-195-97 0-7-7-13-15-13s-15 5-15 10c0 17-82 90-101 90-11 0-19 5-19 10 0 6-20 10-45 10s-45-4-45-9z"/></g><g transform="translate(0 256) scale(.1 -.1)" fill="var(--icon-green, #66DDAA)"><path d="m2336 2201c-14-16-16-100-16-807v-790l60-58v831c0 881 0 873-44 824z"/><path d="m217 1532-27-28v-240-240l60-58v297c0 163-1 297-3 297s-15-13-30-28z"/><path d="m360 1e3v-274l60 58v216 216l-60 58v-274z"/><path d="m334 1e3c0-121 2-169 3-107 2 62 2 161 0 220-1 59-3 8-3-113z"/><path d="m773 833c-13-2-23-9-23-14s-6-9-13-9c-17 0-50-35-74-80-19-33-23-35-83-40l-64-5 38-32c20-18 45-33 56-33 33 0 50-12 50-34 0-25 68-96 92-96 9 0 20-4 23-10 8-12 95-13 95-1 0 5 11 12 25 15 32 8 93 69 101 101 9 34 20 31 28-7 8-43 52-86 93-94 18-3 36-10 39-15 7-12 61-12 68 0 3 5 21 12 39 15 37 7 81 48 92 86 14 45 49 54 59 15 8-30 72-92 104-101 12-3 22-10 22-15 0-12 87-11 95 1 3 6 15 10 25 10s23 6 27 13c4 8 16 16 25 20 10 3 27 27 39 52 18 38 25 45 51 45h30l-36 41c-19 23-33 46-30 50 3 5 0 9-5 9-6 0-11 6-11 13 0 16-61 77-77 77-6 0-13 6-15 13-3 8-27 12-73 12s-70-4-72-12c-3-7-10-13-17-13-17 0-76-63-76-82 0-8-7-21-15-28-19-15-29-8-53 40-33 65-85 95-163 95-67 0-69-1-113-44-25-24-48-57-51-73-8-36-21-36-30 0-7 30-62 92-81 92-7 0-14 5-16 11-4 12-88 20-125 12z"/></g><g transform="translate(0 256) scale(.1 -.1)" fill="var(--icon-skin, #F0D8C0)"><path d="m2200 2290c0-5-6-10-13-10-42 0-52-36-52-189 0-80-4-152-8-158-6-10-65-13-237-13h-228l-7 30c-8 35-15 37-38 12-25-27-21-44 16-79l32-32 225 1c124 1 231 5 237 11 14 10 18-1087 4-1139l-7-29h-180c-138 0-178 3-177 13 2 6-2 12-7 12-6 0-10 7-10 15 0 20-13 19-33-3-23-25-21-34 8-62 17-16 22-27 15-35-7-9-5-16 6-26 13-10 17-10 24 1 10 16 342 21 357 6 4-4 9-61 11-126 3-110 5-120 28-141 30-28 73-36 49-9-20 22-23 1858-3 1878 7 7 30 12 52 12 38 0 39 0 21 20-15 16-15 22-5 35 11 13 6 15-34 15-25 0-46-4-46-10z"/><path d="m359 2233c-2-4-3-336-1-737 2-643 4-727 17-716 12 10 15 48 15 215 0 168 3 205 15 215 13 11 15 78 15 494v482l-29 28c-16 15-30 24-32 19z"/><path d="m1411 2e3c-31-17-81-64-78-73 1-4-2-8-8-9-5-2-10 3-10 10 0 6-7 12-15 12s-15-4-15-10c0-5-4-16-9-23-5-8-2-20 8-31 9-10 16-32 16-50 0-26 10-43 40-74l41-40 27 26c26 25 28 32 24 90-4 57-1 66 23 95l27 32-22 30c-12 16-22 30-23 29s-13-7-26-14z"/><path d="m334 1e3c0-121 2-169 3-107 2 62 2 161 0 220-1 59-3 8-3-113z"/><path d="m2223 465c1-55 2-74 4-42 4 52 23 84 23 37 0-11 4-20 8-20 31 0 46 83 16 94-23 9-24 8-24-14 0-33-18-23-23 13-2 17-4-13-4-68z"/><path d="m2310 495c0-50 2-56 15-45 8 7 15 27 15 45s-7 38-15 45c-13 11-15 5-15-45z"/></g><g transform="translate(0 256) scale(.1 -.1)" fill="var(--icon-slate, #606078)"><path d="m242 2285c-13-7-32-27-43-44-18-30-19-64-19-961 0-1e3 -4-970 65-1e3 29-15 115-20 115-6 0 4 10 12 22 17 40 17 48 51 48 196v136l69 7c58 6 72 11 96 36l28 29-188 6v270 270l99 3c102 3 126-4 126-39 0-27 19-33 40-14 20 18 17 38-8 67-12 15-13 20-2 33 11 14 10 20-8 38-19 19-22 19-22 4s-13-17-115-17h-115v259c0 281-1 275 55 276 127 3 129 3 110 25-14 16-15 23-6 34 11 13 2 16-71 18l-83 3-5 156c-5 162-16 199-57 199-7 0-13 5-13 10 0 14-90 11-118-5zm106-67c17-17 17-1859 0-1876s-67-15-85 3c-22 22-23 1844-2 1869 17 18 70 21 87 4z"/><path d="m334 1e3c0-121 2-169 3-107 2 62 2 161 0 220-1 59-3 8-3-113z"/><path d="m330 560c0-24-4-30-17-28-15 2-19-6-21-44-3-47 8-62 25-35 5 7 10-7 14-38 4-35 6-17 7 63 1 61 0 112-3 112s-5-14-5-30z"/><path d="m2200 2292c0-4 5-13 12-20 8-8 8-15-2-27-14-17-11-18 40-16 29 2 37-3 48-26 19-43 18-1839-2-1859-18-18-70-18-85-1-8 10-12 265-13 898-3 744-5 884-17 881-7-2-22 5-32 14-18 17-19 14-20-97-1-63-1-118 0-123s-99-6-228-4l-230 5-34-36c-58-61-84-118-64-138 15-16 18-15 37 2 11 10 20 24 20 30 0 7 7 18 15 25s15 20 15 30c0 17 15 18 223 17 122-1 228-6 235-10 16-11 18-497 1-497-8 0-8-5 1-15 11-13-7-15-149-15-144 0-161 2-161 17 0 14-4 12-25-7-19-18-22-26-13-37 8-10 7-18-5-31-32-36-49-94-33-111 17-16 46-1 46 24 0 7 7 15 15 19 8 3 15 17 15 31v26l315-6 3-157c2-103-1-158-8-158-13 0-13-97 0-105 6-3 10-34 10-68 0-55-3-64-32-94l-32-33h32 32v-137c0-147 8-180 48-198 12-5 22-13 22-17 0-14 86-8 118 7 20 10 33 26 37 45 4 17 11 30 16 30s9 370 9 930c0 613-3 930-10 930-5 0-10 6-10 13 0 33-65 77-113 77-26 0-47-4-47-8z"/><path d="m2223 465c0-91 1-94 6-35 4 36 4 81 0 100-4 21-7-4-6-65z"/><path d="m2260 488c0-44 2-49 15-38 8 7 15 27 15 45 0 20-6 35-15 39-12 4-15-4-15-46z"/></g><g transform="translate(0 256) scale(.1 -.1)" fill="var(--icon-stroke, #24324B)"><path d="m262 2279c-33-13-52-34-63-71-5-20-9-409-9-953l1-920 32-31c48-46 127-44 168 5 28 34 29 37 31 174l3 140 235 2 14-35c28-70 68-95 149-95 84 0 113 18 153 98 30 58 38 59 59 3 30-77 66-101 156-101 76 0 77 0 117 41 22 22 44 52 47 66 11 44 62 37 81-12 28-70 68-95 150-95 74 0 144 34 144 71 0 7 4 14 9 14s11 10 13 22c3 23 4 23 153 20 95-2 161 0 179 8 43 16 47 6 50-152 2-134 4-146 24-166 49-49 129-55 172-13l25 25 3 941c2 660-1 948-9 966-24 60-125 74-181 25-26-24-27-26-29-158-2-73-5-146-9-163l-6-30-465-4-16 37c-22 54-60 89-113 107-46 15-50 15-102-8-51-23-98-69-98-96 0-20-19-11-25 12-11 35-53 74-102 92-75 29-161-10-194-87-15-35-24-35-39 1-12 30-53 71-70 71-6 0-10 5-10 11 0 5-4 8-9 4-5-3-21 0-35 7-19 8-32 8-49 0-12-6-33-14-47-18-28-8-57-42-82-93l-16-36-109 4c-59 1-111 5-115 8-5 2-8 67-8 144 0 156-9 188-60 214-32 17-64 18-98 4zm73-41c14-6 25-17 25-25 0-7 5-13 10-13 7 0 10-313 10-918 0-910 0-918-20-940-25-26-76-29-102-5-17 15-18 57-18 935 0 631 3 926 11 939 8 16 28 30 56 38 1 1 14-4 28-11zm2e3 -14c20-15 20-28 23-936l2-921-22-24c-27-29-71-30-98-1-32 34-32 1842 0 1876 24 25 66 28 95 6zm-1398-220c86-56 81-198-8-246-94-50-199 14-199 122 0 115 116 184 207 124zm319 7c106-48 106-204 0-255-94-45-197 21-198 127-2 110 96 174 198 128zm332-1c107-48 104-203-4-255-160-75-273 166-119 252 49 28 68 28 123 3zm-879-186c26-71 78-105 169-108 42-1 52 3 89 38 24 21 45 47 48 57 7 21 25 26 25 7 2-29 77-90 119-98 82-15 165 25 186 88 7 23 23 27 27 7 10-47 90-95 158-95 79 0 113 24 155 106l20 39 230-4c127-2 231-4 232-5 4-4 5-84 4-313l-1-253h-161-160l-16 37c-13 33-64 104-67 95-1-2-14 2-31 8-82 32-179-12-211-96l-17-44h-57c-57 0-58 0-73 38-47 118-188 149-276 61-22-22-41-50-43-61-4-30-28-35-28-7 0 33-81 106-126 115-63 12-113-3-157-46-22-22-36-40-31-40 4 0 3-5-4-12s-12-20-12-30c0-17-9-18-117-16l-118 3-3 260c-1 143 0 270 3 282 5 21 11 22 108 25 125 4 120 5 136-38zm236-433c61-34 83-127 45-189-92-151-323-40-252 121 39 88 122 115 207 68zm348 2c63-31 86-127 47-191-76-124-260-78-260 66 0 117 106 179 213 125zm443 8c135-61 89-271-60-271-136 0-191 178-80 257 51 36 84 39 140 14zm-221-172c9-17 14-33 12-36-7-6 62-67 88-78 85-34 171 1 213 88l22 47h161c104 0 158-3 154-10-3-5-1-10 5-10 7 0 9-38 6-117-2-65-5-189-5-276l-1-157-187 2c-179 3-188 4-192 23-15 80-126 139-208 111-49-17-103-60-103-83 0-7-4-13-9-13s-8-8-7-17c2-34-56-23-67 12-22 65-117 123-182 110-45-8-115-45-115-60 0-8-7-20-15-29-9-8-16-18-15-21 3-49-31-49-49 0-27 77-116 125-191 105-44-12-110-64-110-86 0-8-4-14-10-14-5 0-10-9-10-20 0-20-5-21-117-18l-118 3v280 280l223 6 22-43c22-44 65-87 88-88 6 0 12-4 12-8 0-5 24-9 53-10 66-2 123 33 152 95 21 43 45 57 45 25 0-10 5-23 12-30s9-12 5-12c-14 0 38-45 68-59 90-43 210 6 234 95 6 23 15 30 42 35 68 13 78 10 94-22zm-578-449c84-51 91-168 15-232-91-76-222-15-222 104 0 117 112 186 207 128zm363 5c60-31 92-121 64-180-46-97-159-118-233-45-111 112 28 298 169 225zm396-1c44-21 74-70 74-123 0-184-253-201-276-19-14 111 99 191 202 142z"/></g></svg>
