<svg fill-rule="evenodd" stroke-linecap="round" stroke-linejoin="round" viewBox="0 0 256 256" xmlns="http://www.w3.org/2000/svg"><g transform="translate(0 256) scale(.1 -.1)" fill="var(--icon-yellow, #FFD85A)"><path d="m1230 2210c-8-5-28-15-45-22-39-17-65-70-65-133 0-47 4-54 43-92 84-81 125-84 200-16 29 26 54 49 56 50s6 23 9 49c8 74-46 154-105 154-7 0-13 5-13 10 0 12-59 12-80 0z"/></g><g transform="translate(0 256) scale(.1 -.1)" fill="var(--icon-blue, #5EC8F8)"><path d="m235 1187c-11-5-27-13-35-17-37-17-6-158 45-200 8-7 15-18 15-24s12-19 28-28c56-35 67-43 72-49 3-3 23-12 45-20 22-7 44-17 49-21 14-11 193-10 214 1 9 6 43 22 75 36s61 33 64 41c3 7 12 14 19 14 8 0 18 8 21 17 4 9 14 24 22 32 9 9 25 34 36 56s24 43 29 46c5 4 6 11 2 17-3 6-2 13 4 17 16 10 12 39-8 56-23 20-69 32-76 20-15-24-556-23-583 1-14 12-23 13-38 5z"/><path d="m2292 1188c-14-17-595-27-606-10-7 11-44 5-63-11-20-15-15-76 8-126 23-49 125-161 146-161 7 0 13-4 13-8 0-5 19-14 43-21 23-7 50-17 59-22 23-12 183-12 206 0 9 6 43 22 75 36s61 33 64 41c3 7 12 14 19 14 8 0 18 8 21 18 4 9 12 22 19 27 20 16 64 106 64 131 0 13 5 24 10 24 6 0 10 7 10 15s-4 15-10 15c-5 0-10 7-10 15 0 9-9 15-24 15-13 0-26 5-28 11-2 7-8 6-16-3z"/><path d="m1e3 683c-35-22-69-77-69-113 0-30-1-30-54-30-51 0-55-2-105-54-59-63-61-73-23-109l28-27h483c265 0 487-2 492-6 29-17 41 87 14 122-8 10-15 15-15 10 0-6-16 5-35 24-29 28-46 36-88 40-40 4-52 9-52 22 0 9-4 20-8 24s-7 15-7 24c0 17-39 56-77 78-34 18-117 16-109-3 4-12-6-15-63-15-49 0-72 4-81 15-18 21-194 20-231-2z"/></g><g transform="translate(0 256) scale(.1 -.1)" fill="var(--icon-purple, #BFA7FF)"><path d="m1230 1282v-582h-62-61l24-26c13-15 38-32 54-39 17-7 41-25 54-39 39-41 204-40 244 2l27 29-20 18c-14 13-17 22-10 29 22 22 7 26-90 26h-100v553 553l-60 58v-582z"/></g><g transform="translate(0 256) scale(.1 -.1)" fill="var(--icon-orange, #FFB84D)"><path d="m1263 2135c-24-30-40-42-47-35-14 14-66-37-66-64 0-37 79-106 121-106 41 0 119 71 119 109 0 11 3 26 6 35 5 14-69 106-87 106-4 0-25-20-46-45z"/></g><g transform="translate(0 256) scale(.1 -.1)" fill="var(--icon-skin, #F0D8C0)"><path d="m2e3 2e3c-4-10-68-14-257-18l-252-5 56-54 213-2c131-1 217 3 225 9 20 16 63 18 81 3 29-24 57 11 31 39-10 11-26 20-36 20s-21 5-24 10c-9 14-33 12-37-2z"/></g><g transform="translate(0 256) scale(.1 -.1)" fill="var(--icon-slate, #606078)"><path d="m1122 2e3c3-25 8-53 12-62 12-26-496-27-551-1-20 9-38 12-41 7-4-5-16-14-26-20-36-19-42-41-23-73 20-34 20-33-47-183-9-20-16-43-16-52s-5-16-10-16c-6 0-9-3-8-7 1-9-7-34-27-78-7-16-18-46-25-65-13-36-34-87-55-130-7-14-16-40-20-57-3-18-10-33-14-33-5 0-12-19-17-42-7-33-14-43-33-48-33-7-36-22-11-45 18-16 24-17 42-6 16 10 23 10 37-3 10-9 24-16 33-16 8 0 25-11 38-25 23-25 24-25 207-25h184l50 42c46 39 50 40 67 25 17-16 20-16 40 6 23 24 18 43-13 48-12 3-21 14-23 27-2 12-8 22-13 22s-9 6-9 14-5 27-12 43c-6 15-12 30-13 33s-7 18-13 33c-7 16-12 35-12 43s-4 14-9 14-13 15-16 33c-4 17-13 43-20 57-20 39-39 84-40 95-2 11-21 58-40 95-7 14-16 40-20 58-3 17-10 32-15 32-4 0-11 16-14 35-4 19-12 35-18 35s-3 9 7 20c17 19 31 20 317 20h298v-598-598l33-32c43-42 74-41 117 3l34 35h-62-62v590 590l23 5c12 3 157 4 322 3l300-3 3-23c2-12-5-37-16-55-11-17-23-47-27-64-3-18-11-33-15-33-5 0-12-16-16-35-3-19-10-35-15-35s-8-3-7-7c1-9-7-34-27-78-7-16-18-46-25-65-12-35-19-52-59-141-12-25-21-53-21-62s-4-17-9-17-14-20-20-45c-8-32-16-45-29-45-42 0-52-33-17-56 24-16 27-16 45 1 19 17 21 17 38 2 28-25 516-25 544 0 17 15 19 15 36 0 17-16 20-15 40 6 29 31 28 47-3 47-18 0-26 7-31 25-3 14-10 25-14 25s-11 16-15 36c-3 21-12 46-20 58-7 12-16 36-20 54-4 17-10 32-14 32s-13 25-20 55-16 55-21 55-12 16-16 35c-3 19-10 35-16 35-5 0-7 4-3 9 3 5 1 12-4 15-5 4-12 24-16 46s-11 40-15 40c-5 0-12 15-15 33-4 17-16 46-26 63-23 38-24 77-4 94 21 17 19 44-6 66-27 24-55 8-51-29 4-33-14-43-39-21-14 12-16 21-8 30 19 23-8 25-286 24-240 0-275 1-275 15 0 8 4 15 9 15 14 0 23 52 12 63-13 13-55-24-74-62-7-14-22-30-33-36-12-6-28-16-36-22-17-14-98 49-98 76 0 9-14 30-31 47l-31 29 4-45zm-542-135c-7-8-16-15-20-15s-10 7-14 15c-4 11 2 15 21 15 21 0 24-2 13-15zm-2-127c7-24 19-56 27-73 19-41 28-69 27-77-1-5 2-8 8-8s10-7 10-16c0-8 9-35 20-60 11-24 23-58 27-74 3-17 9-30 14-30s9-6 9-14 5-27 12-43c6-15 12-30 13-33s7-18 13-33c7-16 12-35 12-43s4-14 9-14 12-12 15-27c4-16 9-35 11-43 4-13-27-15-243-13-136 1-248 4-250 5-2 2 2 17 8 33 6 17 14 42 17 58 3 15 9 27 14 27s9 6 9 14 5 27 12 43c6 15 12 30 13 33s7 18 13 33c7 16 12 35 12 43s4 14 9 14 13 15 16 33c4 17 16 48 26 67 19 36 31 68 33 85 2 12 22 59 42 97 8 14 14 33 14 42 0 30 15 16 28-26zm1431-5c7-21 19-51 26-68 19-43 28-69 27-77-1-5 3-8 8-8 6 0 10-7 10-16 0-8 8-34 19-57 10-23 22-57 26-74 3-18 11-33 16-33s9-6 9-14 5-27 12-43c6-15 12-30 13-33s7-18 13-33c7-16 12-35 12-43s4-14 9-14 12-12 15-27c4-16 9-35 11-43 4-13-27-15-248-13-138 1-250 6-248 10s8 19 13 33c6 14 16 39 24 55 7 17 16 42 20 58 3 15 10 27 16 27 5 0 8 6 7 13-2 13 14 59 35 97 7 14 17 40 21 58 3 17 11 32 16 32s9 6 9 14 5 27 12 43c6 15 12 30 13 33s7 18 13 33c7 16 12 35 12 43s4 14 10 14c5 0 12 16 16 35 8 45 17 44 33-2z"/><path d="m1080 575c-28-30-84-34-112-8-17 15-18 15-18-5s-5-22-63-22c-61 0-117-16-117-33 0-5-9-20-20-34-23-29-27-102-8-121 21-21 1e3 -17 1052 4 20 52-15 154-59 170-11 4-47 10-80 13-47 5-60 10-60 23 0 25-13 32-30 18-13-10-19-10-33 4-16 14-48 16-224 16h-205l-23-25z"/></g><g transform="translate(0 256) scale(.1 -.1)" fill="var(--icon-stroke, #24324B)"><path d="m1252 2198c-57-9-106-40-116-73-14-49-6-132 14-150 11-10 20-22 20-27 0-16-550-10-566 7-25 24-124 9-108-16 3-5 1-9-4-9s-9-7-9-15 4-12 9-9c4 3 8-1 8-10 0-8 5-16 11-18 13-4-9-88-23-88-5 0-7-4-3-9 3-5 1-12-4-15s-12-22-15-41c-4-19-11-35-15-35-5 0-14-20-20-44-6-25-15-48-21-51-5-3-10-12-10-20s-5-26-12-42c-6-15-12-30-13-33s-7-18-13-33c-7-16-12-33-12-38s-4-9-10-9c-5 0-9-3-8-7 3-15-25-93-34-93-4 0-8-6-8-14s-5-27-12-43c-6-15-12-30-13-33s-5-13-8-22c-4-10-9-25-12-33-2-8-13-15-23-15-89 0 34-251 135-276 13-4 23-10 23-14 0-5 26-14 58-20 31-7 65-16 74-21 23-12 63-12 86 0 9 5 43 14 75 20s65 17 73 26c9 8 19 15 24 15 15 0 107 95 114 118 4 12 11 22 15 22 11 0 34 107 26 120-3 5-15 10-26 10s-23 8-26 18c-4 9-9 19-13 22s-19 41-35 85c-15 44-40 107-55 140-31 69-55 137-52 148 1 4-2 7-7 7s-12 18-16 40-10 40-14 40c-8 0-36 79-33 93 1 4-2 7-8 7-5 0-10 6-10 13s-9 29-20 49c-18 35-18 37-1 57 18 20 26 21 325 21h306v-610-610h-105-106l-32-32c-18-18-33-37-33-43-4-62-14-72-72-74-98-3-116-15-143-95-30-93-64-87 515-85 321 1 506 5 514 11 16 14 15 51-3 94-24 57-41 68-118 74l-70 5-12 40c-27 92-37 98-180 105l-110 5-3 585c-1 322 0 595 3 608l5 22h319c300 0 319-1 335-19 13-14 15-24 7-38-6-10-31-67-56-128-26-60-53-124-61-142-8-17-14-35-14-39 0-30-156-374-170-374-24 0-40-21-31-39 5-9 11-32 15-52 9-53 125-189 161-189 8 0 15-4 15-9s24-14 53-21c28-6 71-16 95-22 29-7 50-8 65-1 12 6 48 15 79 21 32 6 63 16 70 22 7 5 33 25 58 44 25 18 56 52 70 74 14 23 28 42 32 42s11 18 14 40c4 22 10 43 14 45 17 10-3 45-25 45-30 0-41 15-57 75-7 28-15 52-19 55-6 5-28 67-30 85 0 6-4 12-8 15s-20 41-36 85-32 85-37 91c-7 9-58 138-90 229-6 17-15 34-19 40-14 15-10 42 6 49 21 8 19 49-3 69-23 21-75 22-92 2-13-16-580-24-580-8 0 3 6 14 14 22 22 25 35 86 26 124-18 81-74 118-158 105zm75-50c45-22 63-89 38-138-45-88-167-76-196 19-29 98 62 166 158 119zm-751-335c4-16 10-32 15-38 4-5 8-14 9-20 1-5 6-20 11-33s9-29 9-37 5-17 10-20c6-3 15-26 21-51 6-24 15-44 19-44s10-13 13-30c4-16 16-50 27-74 11-25 20-52 20-60s4-17 9-20c5-4 15-29 22-56 7-28 16-50 21-50 4 0 8-6 8-13s9-30 20-51c10-22 17-43 14-47-8-13-521-11-529 1-4 6 0 22 9 35 8 13 20 44 27 69 6 25 15 46 19 46s13 25 20 55 17 55 21 55c5 0 11 16 15 35 3 19 10 35 16 35 5 0 7 4 3 9-3 5-1 12 4 15 4 3 11 18 14 33 3 16 16 51 28 78 13 28 24 52 24 55 1 3 7 18 13 33 7 16 12 33 12 38s5 9 11 9c5 0 8 4 4 9-6 11 15 61 26 61 5 0 12-12 15-27zm1437-5c7-29 34-103 51-143 8-16 37-91 66-165s70-177 91-229 36-98 33-103c-7-11-521-11-528 1-7 10 73 215 86 219 4 2 5 8 2 13-3 6-2 15 3 22s22 46 38 87 32 77 35 80 15 35 27 71c50 149 83 200 96 147zm-1132-703c-5-39-29-81-67-124-162-181-477-134-569 84-8 21-12 42-7 47 8 8 557 16 611 8 19-3 33-9 32-15zm1430 10c14-9-25-87-68-136-151-167-454-134-553 61-41 80-58 74 240 81 257 5 364 4 381-6zm-793-501c12-14 22-36 22-50v-24l-240-2c-132-1-252-2-267-2-39-1-45 49-11 81 29 28 80 32 303 27 167-4 170-5 193-30zm195-134c30-24 44-69 25-81-7-5-224-9-481-9-514 0-504-1-460 58 38 52 39 52 479 52 395 0 412-1 437-20z"/></g></svg>
