<svg fill-rule="evenodd" stroke-linecap="round" stroke-linejoin="round" viewBox="0 0 256 256" xmlns="http://www.w3.org/2000/svg"><g transform="translate(0 256) scale(.1 -.1)" fill="var(--icon-blue, #5EC8F8)"><path d="m1895 1152-389-2-56-54v-383-382l31-36 31-35h392 392l54 56v390 390l-32 30-33 29-390-3z"/></g><g transform="translate(0 256) scale(.1 -.1)" fill="var(--icon-green, #66DDAA)"><path d="m1324 2326c-31-17-50-39-59-66-4-14-10-27-14-30-8-7-25-35-52-87-13-24-26-43-30-43s-10-13-14-30c-4-16-10-30-14-30-3 0-15-17-26-37-11-21-22-40-26-43-3-3-9-12-12-20-4-8-16-28-27-45-11-16-23-38-26-47-4-10-10-18-14-18-5 0-11-13-15-30-4-16-11-30-16-30s-9-6-9-14c0-7-6-19-14-25-8-7-17-24-21-38-3-15-15-34-25-43s-22-28-25-43c-4-15-11-27-15-27s-11-12-15-27c-3-16-15-37-25-48-40-42-43-103-6-89 7 3 21-4 31-16 18-20 28-20 495-20h476l28 29 28 30-31 54c-23 40-28 56-19 65s7 16-5 30c-9 10-17 24-17 30 0 7-4 12-9 12s-12 8-15 18c-10 26-58 114-82 147-12 17-25 41-29 55s-16 31-26 38c-9 6-20 26-24 42-4 17-11 30-16 30-4 0-18 20-29 45s-24 45-28 45c-8 0-42 73-42 90 0 6-4 10-10 10-5 0-19 20-30 45s-24 45-28 45c-5 0-14 16-22 35-11 27-65 74-74 64-1-1-10-6-22-13z"/><path d="m2348 813-28-29-2-239-3-240-429-2c-355-1-431-4-443-16s-12-16 3-28c14-11 94-14 448-16l431-3 55 49-2 276-3 276-27-28z"/></g><g transform="translate(0 256) scale(.1 -.1)" fill="var(--icon-purple, #BFA7FF)"><path d="m570 1184c-98-26-236-131-291-221-16-25-24-31-34-23-13 11-14 10-34-53-19-58 3-289 34-352 51-105 231-265 298-265 16 0 17-3 7-15-11-13-7-15 24-15 20 0 36-4 36-10s30-10 70-10 70 4 70 10 16 10 36 10c29 0 34 3 25 13-9 11-3 16 27 25 57 17 125 66 190 137 180 196 171 435-23 631-130 130-283 179-435 138z"/></g><g transform="translate(0 256) scale(.1 -.1)" fill="var(--icon-skin, #F0D8C0)"><path d="m1e3 1375-33-34h216c120 0 217 3 217 8 0 4-13 19-28 34-28 27-29 27-183 27h-155l-34-35z"/><path d="m1472 1173c-10-4-8-11 9-29l22-24h407c389 0 408 1 424 19 17 19 17 20-3 30-20 11-832 15-859 4z"/><path d="m1426 1128c-3-13-6-180-6-372v-350l60 58v326c0 304-1 328-18 343-24 22-28 21-36-5z"/></g><g transform="translate(0 256) scale(.1 -.1)" fill="var(--icon-slate, #606078)"><path d="m1782 1608-21-21 29-53 28-54-481-2c-394-3-485-1-499 11-24 19-68-70-48-95 28-33 71-57 83-45 13 13 117 15 117 1 0-12 447-12 455 0 8 13 115 13 115 1s208-12 215-1c3 5 23 8 45 7 52-2 80 24 80 74 0 21-4 40-9 44-6 3-22 29-36 58-14 28-32 62-39 74l-12 22-22-21z"/><path d="m560 1210c-8-4-24-12-35-17-12-6-35-14-52-17-17-4-37-14-44-22-6-8-17-14-23-14s-40-29-75-64c-69-71-119-157-128-224-3-23-10-45-14-48-12-7-12-154 0-154 4 0 11-24 14-52 5-52 51-158 68-158 5 0 9-5 9-12 0-17 81-98 97-98 8 0 16-7 19-15 4-8 12-15 19-15s18-7 25-15 23-15 35-15c13 0 25-5 27-11s27-14 56-17c29-2 52-9 52-14 0-6 7-5 15 2 14 12 14 15 0 30s-14 18 0 30c23 19-23 65-78 79-151 38-237 166-237 351 0 85 0 86-35 120-37 36-34 70 3 37 17-16 20-15 48 16 17 17 42 50 56 72 56 88 214 147 343 128 181-26 285-121 321-294 42-201-53-376-233-429-57-17-100-62-78-80 14-12 14-15 0-30s-14-18 0-30c8-7 15-8 15-3 0 6 24 13 53 16 55 6 125 35 147 61 7 9 18 16 24 16 15 0 126 112 126 127 0 6 7 16 15 23s17 27 21 46c3 19 10 34 15 34s9 11 9 24c0 14 5 28 10 31 13 8 13 209 1 233-19 36-71 150-71 155 0 7-140 147-147 147-5 0-116 51-154 70-20 10-218 10-239 0z"/><path d="m1462 1170c-40-17-43-44-40-476 3-363 5-415 19-429s63-16 430-14c484 2 458 1 487 19l22 15v425 425l-33 23c-33 22-34 22-448 21-228 0-424-4-437-9zm788-465v-345h-350-350v345 345h350 350v-345z"/></g><g transform="translate(0 256) scale(.1 -.1)" fill="var(--icon-stroke, #24324B)"><path d="m1323 2312c-7-4-35-46-63-92-28-47-55-92-60-100s-27-47-49-86c-22-40-46-78-53-85-7-8-19-25-25-39-24-51-85-155-93-160-4-3-9-9-10-15-6-24-14-42-35-70-12-16-28-43-37-60-31-63-80-150-89-160-14-15-10-41 9-58 17-15 67-17 520-17 534 0 552 1 552 47 0 24-55 132-114 226-18 29-44 75-57 102-13 28-27 52-30 55-16 12-99 159-99 174 0 10-3 15-8 12-4-2-16 13-26 35-11 21-23 39-28 39-4 0-8 5-8 10 0 6-11 27-23 48-13 20-22 44-19 52s1 12-3 8-17 11-29 33c-49 90-89 123-123 101zm42-69c3-10 44-81 90-158 85-143 215-366 313-535 30-52 58-100 63-106s6-14 2-17c-12-12-963-8-963 4 0 6 43 86 96 177 204 353 328 569 351 610 27 46 37 51 48 25z"/><path d="m555 1189c-105-34-143-56-207-117-62-59-118-145-118-179 0-8-4-12-8-9-10 6-15-45-15-164-1-112 5-170 16-163 4 2 7-2 7-10 0-48 105-181 186-235 28-19 77-42 90-42 8 0 14-3 14-7 0-11 61-17 160-17 103 1 160 6 160 17 0 4 7 7 15 7 9 0 33 11 55 25s40 22 40 18c0-3 33 27 74 68 41 40 74 76 73 79s5 16 12 28c59 108 69 281 24 402-4 8-5 18-5 23 1 4-2 7-8 7-5 0-10 8-10 18s-5 23-12 30-9 12-4 12c4 0-28 35-71 79-43 43-81 77-85 74-7-4-48 16-58 28-28 33-251 52-325 28zm201-40c293-54 453-396 302-647-95-158-289-246-460-207-174 39-309 167-341 325-64 313 193 585 499 529z"/><path d="m1454 1145c-27-28-20-850 7-878 14-14 63-16 428-17 411-1 442 2 463 34 4 6 8 198 8 427 0 382-1 417-17 435-28 30-859 29-889-1zm851-440v-400l-394-3c-282-1-398 1-407 9-17 14-21 795-4 801 5 2 189 1 407-2l398-5v-400z"/></g></svg>
