<svg fill-rule="evenodd" stroke-linecap="round" stroke-linejoin="round" viewBox="0 0 256 256" xmlns="http://www.w3.org/2000/svg"><g transform="translate(0 256) scale(.1 -.1)" fill="var(--icon-green, #66DDAA)"><path d="m1064 1459-28-29h80c68 0 81 3 91 19 15 23-2 32-73 36-36 2-47-2-70-26z"/><path d="m1e3 1358c3-20 9-23 53-23s50 3 53 23c3 21 0 22-53 22s-56-1-53-22z"/><path d="m1e3 1252c-29-30 7-42 124-42 122 0 147 10 119 43-20 25-218 24-243-1z"/><path d="m1675 1200c-4-6 2-27 13-48 10-20 25-55 32-77s16-42 19-45 12-23 20-45c7-22 24-65 38-95 43-94 51-114 67-163 9-26 22-58 30-70s19-40 26-62 19-49 26-60c52-75-29-265-112-265-16 0-15-4 8-26 91-92 230 183 160 316-11 19-25 56-33 83-7 26-16 47-20 47s-10 12-14 28c-3 15-17 50-30 77-13 28-29 70-37 93-7 23-16 42-20 42-3 0-14 25-23 55-8 30-19 55-23 55s-15 26-25 58c-21 64-32 81-65 100-26 15-29 15-37 2z"/><path d="m818 1163c-19-10-31-28-44-71-10-31-21-59-25-62s-14-25-22-50-22-58-30-74c-9-16-21-49-29-72-7-24-16-44-20-44s-15-25-23-55c-9-30-20-55-23-55-4 0-13-19-20-42s-23-62-34-87c-52-115 13-277 134-332 36-17 38-17 63 3 24 19 25 21 8 34-10 7-26 14-35 14-23 0-85 56-94 83-4 12-12 25-18 29-18 12-13 140 7 168 9 14 17 30 17 37s13 41 29 75c16 35 33 75 36 91 4 15 10 27 15 27 4 0 12 19 19 43 7 23 18 51 25 62s21 43 31 70c10 28 24 59 30 70 7 11 18 39 25 63 7 23 17 42 22 42 12 0 10 26-4 37-9 6-22 5-40-4z"/><path d="m1145 1111c-6-6-44-11-85-13-59-2-75-6-75-18s18-16 94-18c105-3 128 6 95 38-13 13-23 17-29 11z"/><path d="m1395 1e3c-38-9-71-19-73-24-5-11-142-10-142 1 0 5-34 12-75 15s-109 9-150 12l-75 6-10-28c-6-16-29-65-50-109s-44-99-51-122c-7-24-16-43-20-43s-15-26-24-57c-9-32-21-63-25-68-36-43-50-171-26-228 28-69 40-72 341-75 148-2 274-7 280-12 7-6 16-5 23 2 9 9 15 9 24 0 15-15 54-16 63-2 4 6 80 10 196 10 206 0 228 5 268 56 12 15 21 35 21 45 0 11 5 19 10 19 6 0 10 14 10 30 0 17-4 30-9 30s-12 17-16 38c-3 20-15 52-26 70-10 18-26 57-34 87-9 30-19 55-23 55s-16 27-26 61c-11 33-23 62-27 65-4 2-15 30-25 62-10 31-20 59-23 62s-11 14-17 25-22 23-35 26c-42 12-182 7-254-9zm116-173c17-17 20-29 16-61-6-48-6-47-51-55-70-11-107 50-65 108 25 36 69 39 100 8zm130-255c10-13 10-17-2-25-22-14-49-11-56 7-11 30 36 45 58 18zm-241-54c41-41 8-120-51-120-31 0-69 40-69 72 0 53 82 86 120 48z"/><path d="m1424 836c-11-30 1-61 24-64 24-4 62 22 62 41 0 30-76 50-86 23z"/><path d="m1330 526c-22-28-8-61 25-61 24 0 31 5 33 23 4 25-13 52-33 52-7 0-18-7-25-14z"/></g><g transform="translate(0 256) scale(.1 -.1)" fill="var(--icon-skin, #F0D8C0)"><path d="m1866 281c-4-6-16-11-27-11-10 0-19-4-19-10 0-13-1066-14-1074-1-9 15-55 19-66 6-8-9-1-21 25-44l36-31 1099 5 32 32c30 30 31 34 16 49-10 11-18 12-22 5z"/></g><g transform="translate(0 256) scale(.1 -.1)" fill="var(--icon-slate, #606078)"><path d="m1089 2351c-60-60-14-171 71-171 27 0 101 52 98 68-1 4 2 15 6 24 5 11 0 28-13 47-12 16-21 33-21 39 0 33-105 28-141-7zm111-45c23-44-28-96-65-66-15 12-21 71-8 83 16 17 60 6 73-17z"/><path d="m1363 2125c-84-36-85-148-1-191 97-50 208 79 136 157-44 46-84 56-135 34zm81-51c22-9 21-73-1-90-54-40-106 13-78 79 7 17 48 23 79 11z"/><path d="m952 1842-24-7 25-23c28-27 158-40 262-27l58 7-24 23c-22 22-35 24-149 29-69 3-135 2-148-2z"/><path d="m1290 1841c-18-5-21-9-12-15 7-4 11-14 8-21-6-16 44-25 134-24 55 0 163 14 136 18-5 0-1 9 8 20 16 17 15 19-15 25-41 8-227 6-259-3z"/><path d="m1670 1841c-18-5-21-9-12-15s10-11 2-21c-8-9-2-14 26-18 74-12 84-45 22-71-77-33-78-36-78-252 0-104 4-194 8-200 5-5 15-25 22-44 26-70 42-100 52-94 5 3 15 0 23-6 26-22 29 16 4 67-12 26-25 71-27 100s-8 53-13 53c-12 0-11 57 1 65 6 3 10 37 10 75s-4 72-10 75c-14 9-12 82 3 92 6 4 26 13 42 18 17 6 34 20 40 33 5 12 13 22 17 22 5 0 8 16 8 35s-4 35-10 35c-5 0-10 7-10 15 0 26-72 48-120 36z"/><path d="m797 1833c-22-6-37-42-37-92 0-42 17-63 65-78l30-10 3-186c1-103-1-187-6-187-4 0-14-21-21-47-8-27-22-62-32-79-20-34-24-60-10-68 12-8 61 17 61 32 0 6 3 12 8 12 4 0 16 27 26 61 11 33 23 62 28 65 4 3 8 102 8 221 0 206-1 215-20 220-11 3-20 9-20 14 0 4-12 9-27 11-22 2-29 9-31 29-3 25 0 27 53 34l57 7-23 24c-22 23-63 30-112 17z"/><path d="m1e3 1475c-13-33 4-45 65-45 51 0 61 3 74 24 16 23 15 24-21 30-66 10-112 7-118-9z"/><path d="m1e3 1361c0-31 15-33 40-6l23 25h-31c-25 0-32-4-32-19z"/><path d="m1853 269c-40-18-69-19-566-19-289 0-533 2-543 6-11 3-30 10-43 15-20 8-28 6-45-10-11-11-18-22-15-23 2-2 26-14 54-28l49-25h541 540l58 34c56 32 58 34 41 52-20 22-18 23-71-2z"/></g><g transform="translate(0 256) scale(.1 -.1)" fill="var(--icon-stroke, #24324B)"><path d="m810 1827c-62-31-59-130 5-152 56-19 56-19 53-225-2-130-7-193-15-198-6-4-12-11-12-17-2-14-39-111-50-132-10-18-52-119-73-178-6-16-16-33-22-37s-7-8-2-8 4-6-1-12c-6-7-16-30-22-50-7-21-17-38-22-38s-8-3-7-7c3-10-21-81-35-108-6-11-12-22-13-25 0-3-9-23-19-45-28-61-43-177-26-200 5-5 11-23 15-38 11-44 89-121 138-137 24-7 46-15 50-17 12-6 1e3 -4 1064 3 162 51 229 187 174 352-12 37-27 73-32 80-6 6-7 12-2 12s4 4-2 8c-11 7-50 111-46 125 1 4-3 7-8 7s-9 3-8 8c1 4-7 25-17 47s-19 42-20 45c0 3-15 35-32 71-17 37-36 84-43 105-7 22-16 44-21 50s-6 14-2 17c3 4 2 7-4 7-5 0-16 19-23 42-7 24-18 52-26 63-11 15-14 65-14 217v197l40 11c66 18 86 108 34 149-26 21-36 21-478 21-343 0-457-3-476-13zm934-46c32-27 5-81-40-81-50 0-54-16-54-229 0-190 12-280 40-301 4-3 26-54 50-115 24-60 47-115 52-121 4-6 14-28 22-50 8-21 31-77 51-124 112-263 123-314 86-395-20-44-67-95-87-95-7 0-14-6-16-12-5-14-1e3 -25-1104-13-17 3-42 14-54 25-13 11-26 20-31 20-16 0-68 94-74 134-10 68 28 176 180 511 12 28 26 61 30 75s25 61 45 105c67 146 68 152 69 359 0 203-4 226-46 226-51 0-79 46-48 80 20 22 902 23 929 1z"/><path d="m1e3 1467c-8-14-1-16 82-18 76-2 85 0 85 19 0 11-160 9-167-1z"/><path d="m1068 1372c-53-5-47-22 7-22 25 0 45 4 45 9 0 14-11 17-52 13z"/><path d="m1e3 1244c-17-18 14-24 114-24 90 0 109 3 109 15 0 16-208 24-223 9z"/><path d="m1e3 1091c-15-16 7-21 87-21 68 0 90 3 86 13-4 11-161 19-173 8z"/><path d="m993 917c-10-16 6-19 86-18 111 0 106 0 96 10-13 12-175 19-182 8z"/><path d="m985 761c-3-6 0-14 8-17 24-9 182 0 177 11-7 13-176 19-185 6z"/><path d="m980 585c0-13 14-15 98-13 128 4 128 22 0 26-84 2-98 0-98-13z"/></g></svg>
