<svg fill-rule="evenodd" stroke-linecap="round" stroke-linejoin="round" viewBox="0 0 256 256" xmlns="http://www.w3.org/2000/svg"><g transform="translate(0 256) scale(.1 -.1)" fill="var(--icon-green, #66DDAA)"><path d="m850 685c-14-17 2-45 26-45 29 0 13-18-21-23-19-3-45-17-59-31-13-14-27-26-33-26-13 0-103-94-103-108 0-7-4-12-10-12-5 0-10-6-10-14 0-7-6-19-14-25-8-7-17-27-20-46-4-19-11-35-16-35-6 0-10-13-10-29 0-17-4-32-8-35s-6-21-4-40l4-36h695c543 0 697 3 706 13 13 13 16 52 4 63-4 4-7 20-7 36 0 15-4 28-10 28-5 0-10 7-10 16 0 22-41 104-52 104-4 0-8 6-8 13 0 17-110 123-137 131-11 4-27 13-33 21-7 8-23 15-36 15s-24 5-24 10c0 6 6 10 14 10 7 0 19 6 25 14 20 24-39 26-66 3-25-22-109-29-124-11-14 17-57-2-114-50l-44-37 43-43-40-18c-58-26-106-23-146 10-50 41-68 65-57 78 15 18-49 68-67 53-9-7-28-8-56-3-24 5-52 7-64 6s-32 10-49 28c-32 34-47 37-65 15z"/></g><g transform="translate(0 256) scale(.1 -.1)" fill="var(--icon-skin, #F0D8C0)"><path d="m1575 1760c-45-47-154-115-230-143-87-32-169-57-188-57-7 0-24-11-37-25-21-23-31-25-101-25-43 0-81 4-84 10-4 6-13 5-25-3-16-9-24-9-38 1-9 6-27 16-39 22-13 5-23 14-23 20s-4 9-9 6c-4-3-6-17-3-31 2-15 0-25-7-25-6 0-11 7-11 15 0 22-12 17-38-16-23-28-23-33-8-99 0-3-8-5-19-5-18 0-20-8-23-77-2-43-7-78-12-78-13 0-13 177 0 185 6 4 10 12 9 18-4 22 14 52 54 94 35 36 38 44 27 58-12 14-20 9-77-47-35-34-66-72-69-83-4-11-15-30-26-41-13-15-16-24-8-29 21-13-9-35-40-29-17 4-37 0-54-11-26-17-28-17-50 4s-50 31-29 10c12-12-11-69-27-69-5 0-12-16-16-35-3-19-10-38-15-41-12-7-12-94 0-94 4 0 11-19 14-41 3-23 11-45 17-49 7-4 17-18 23-30 7-13 21-28 32-34s23-15 27-21c10-13 153-20 144-7-3 6-1 14 5 18 12 7 31-18 35-45 2-7 15-26 29-41 15-16 24-33 20-40-4-6 3-22 15-35 18-20 21-27 11-39-8-10-9-16-1-21 6-3 8-11 5-16-4-5-1-9 6-9s25-12 40-26c29-28 62-49 92-60 26-9 21-22-10-26-24-4-25-5-10-12 13-6 25-2 40 12 22 21 23 21 62 3 22-10 57-21 78-25 37-7 75-45 63-64-3-5 17-30 43-56 27-26 51-43 55-38 4 6 20 7 43 2 71-16 129 6 189 72 21 24 43 42 48 40s21 8 35 22 42 32 62 40c35 15 37 14 58-8 24-25 51-25 72 0 9 11 6 14-15 14-30 0-35 14-8 24 66 24 196 148 207 197 4 16 10 29 15 29s11 13 15 29c7 35 34 48 104 54 29 2 57 10 61 17 4 6 18 17 31 24 13 6 28 21 34 34 5 12 13 22 17 22s11 18 14 40c4 22 10 40 15 40s9 27 9 60-4 60-10 60c-5 0-10 9-10 19 0 11-7 26-15 35-8 8-15 19-15 24s-7 15-15 22c-12 10-13 16-3 29 12 14 11 14-5 2-9-8-20-11-24-8-3 4-12 2-19-4-9-7-19-7-33 1-16 8-29 6-60-8l-39-19-5 41c-13 96-18 105-85 164-37 31-107 99-157 150-49 50-93 92-96 92s-18-13-34-30zm117-123c46-46 97-94 115-107 17-14 29-28 26-32-6-11-56 29-149 120l-74 73-29-20c-15-11-34-27-41-36-18-22-92-57-87-42 2 7 16 18 30 25 15 7 27 17 27 23 0 5 6 9 13 9s28 16 47 35 35 35 37 35 40-37 85-83zm-319-84c9-9-61-42-90-43-12 0-25-4-28-10-3-5-15-10-26-10-10 0-19 5-19 10 0 6 9 10 19 10 11 0 23 5 26 10 3 6 16 10 28 10s33 7 47 14c30 17 35 18 43 9zm-183-63c0-5-13-10-30-10-16 0-30-4-30-10s-40-10-100-10-100 4-100 10 40 10 100 10 100 4 100 10 14 10 30 10c17 0 30-4 30-10zm-275-20c-3-5-22-10-41-10s-34 5-34 10c0 6 18 10 41 10 24 0 38-4 34-10zm704-165c22-25 31-46 31-70 0-48-16-44-23 6-6 42-30 79-54 79-7 0-13 5-13 10 0 21 29 9 59-25zm261-13c0-36 25-72 50-72 6 0 10-4 10-10 0-5-7-10-15-10s-15 3-15 8c0 4-10 12-22 17-25 11-41 105-19 105 6 0 11-17 11-38zm-1316 12c17-7 22-54 6-54-5 0-10 9-10 21 0 18-5 21-35 17-34-4-43 1-28 15 8 9 46 9 67 1zm1522-18c7-8 11-16 8-18-7-7-73 25-74 36 0 12 49-2 66-18zm-90-2c-3-9-6-20-6-25s-4-9-10-9c-5 0-10 11-10 25 0 16 6 25 16 25 11 0 14-5 10-16zm-1066-60c0-59 10-77 58-102 14-7 28-9 31-4s17 13 31 17c22 7 23 6 11-9-7-9-19-16-26-16-8 0-15-6-18-12-6-19-78 17-84 42-3 11-9 20-13 20-11 0-19 50-13 87 9 53 23 38 23-23zm170 6c0-22-4-40-10-40-11 0-14 63-3 73 11 12 13 8 13-33zm370-18c0-41 23-82 46-82 8 0 14-4 14-10 0-5 8-10 17-10 14 0 15-2 4-12s-14-10-18 0c-3 6-11 12-18 12-27 0-65 60-65 101 0 21 5 39 10 39 6 0 10-17 10-38zm-860 18c0-5 7-10 15-10s15 5 15 11c0 5 5 7 10 4 8-5 7-11-1-21-13-16-39-19-39-4 0 6-7 10-15 10s-15 5-15 10c0 6 7 10 15 10s15-4 15-10zm-150-44c0-25 5-48 10-51 6-4 7-11 4-17-4-6 0-14 7-19 7-4 10-11 6-15s-15 0-24 9c-20 20-32 137-14 137 6 0 11-18 11-44zm1645-53c-7-40-42-86-57-77-5 4 0 16 11 28s24 36 27 54c4 18 11 32 16 32 6 0 7-15 3-37zm-1385-137c0-32 11-66 21-66 5 0 9 8 9 17 0 14 3 14 12 5 10-10 10-15-2-22-13-8-11-17 12-60 27-50 25-65-5-32-25 28-67 113-67 136 0 12-5 27-11 33s-8 16-4 23c10 16 35-7 35-34zm1143 2c-6-13-14-36-18-51-7-34-51-107-64-107-5 0-7 9-4 20s8 20 12 20c7 0 25 41 36 80 14 52 30 79 39 70 6-6 6-18-1-32zm-670-16c15-15 27-31 27-35 0-15-22-6-44 18-13 14-33 25-45 25s-19 4-16 10c12 19 51 10 78-18zm-93-41c0-22 75-91 99-91 11 0 12-3 3-12-11-11-57 17-104 64-19 19-25 58-8 58 6 0 10-9 10-19zm345-42c-13-34-88-73-147-77-39-3-58-1-58 7 0 6 19 11 46 11 53 0 101 20 134 56 25 25 34 26 25 3zm285-124c0-8-5-15-11-15s-27-13-46-30c-32-28-53-38-53-24 0 11 45 54 56 54 6 0 17 7 24 15s16 15 21 15 9-7 9-15zm-842-25c7 0 12-4 12-8 0-5 18-17 40-28 37-18 52-34 31-34-14 0-71 34-71 43 0 4-5 7-12 7-15 0-48 30-48 43 0 6 8 3 18-6 10-10 24-17 30-17zm267-100c4-6 54-10 116-10 71 0 108-4 104-10s-53-10-115-10-111 4-115 10c-3 6-15 10-26 10-10 0-19 5-19 10 0 6 11 10 24 10 14 0 28-4 31-10zm310 0c4-6-5-10-19-10s-26 5-26 10c0 6 9 10 19 10 11 0 23-4 26-10zm-91-109c3-5 0-11-7-13-19-7-87 3-87 13 0 12 87 12 94 0z"/></g><g transform="translate(0 256) scale(.1 -.1)" fill="var(--icon-slate, #606078)"><path d="m1116 2371c-3-5-35-12-71-16-36-3-67-11-70-16-4-5-16-9-28-9s-34-6-49-14-40-17-57-21-31-10-31-15c0-4-8-11-17-14-35-13-73-37-73-47 0-5-5-9-11-9-18 0-159-119-159-134 0-4-14-25-30-45-48-57-49-58-56-85-3-14-10-26-14-26-5 0-11-13-15-30-4-16-10-30-15-30-4 0-11-21-15-47-4-27-12-54-17-61-15-17-15-267 0-284 5-7 13-30 17-51 4-20 11-39 15-42 5-3 1-19-7-36-22-45-2-61 34-28 38 35 103 32 142-5l27-26 27 28c21 22 27 38 27 74 0 26 4 50 10 53 5 3 8 22 5 43-6 44 18 86 44 77 11-3 25 3 36 15 10 11 21 18 25 15 11-7 11-75 0-75-6 0-10 7-10 15 0 19-16 20-23 1-3-7 12-31 34-52l40-39 147-3c147-3 147-3 171 22 24 26 24 26 3 26-12 0-22-4-22-10s-40-10-100-10-100 4-100 10 40 10 100 10 100 4 100 10 13 10 30 10c21 0 28 4 24 14-4 9 6 16 33 21 21 4 66 20 101 36s67 29 71 29 38 20 76 45c46 31 72 42 79 35s19-1 38 17l28 27 28-27c22-21 31-24 40-15 7 7 12 8 12 2 0-5-5-15-10-20-8-8 8-28 51-68 40-37 65-54 71-48 24 24 68-21 90-93 28-89 59-125 107-125 25 0 45-8 64-26 16-15 32-22 40-17 6 4 19 8 27 8 21 0 25 33 7 53-13 15-14 20-1 36 8 11 14 30 14 42s6 24 13 26c9 4 12 50 12 188s-3 184-12 187c-7 3-13 11-13 19 0 23-39 104-50 104-6 0-10 6-10 13 0 16-62 77-78 77-7 0-12 5-12 10 0 6-12 15-26 20l-26 10 26 21c39 30 36 79-6 114-32 27-34 28-145 23-101-5-114-3-129 13-9 11-23 19-31 19-7 0-13 5-13 10 0 6-6 10-13 10s-29 9-50 20c-20 11-46 20-57 20s-20 4-20 9-29 13-65 16c-36 4-68 11-71 16s-61 9-129 9-126-4-129-9zm-201-901c-3-5-22-10-41-10s-34 5-34 10c0 6 18 10 41 10 24 0 38-4 34-10z"/><path d="m625 1e3c-10-11-26-20-35-20s-29-13-44-29l-29-30 54-3c51-3 53-4 62-38 5-19 12-37 15-40 9-7 30-40 41-65 5-12 16-27 25-34s16-19 16-25c0-18 51-38 66-25 7 6 11 16 8 24-3 7 0 16 6 20 7 4-1 22-24 50-45 54-86 131-86 161 0 13-5 26-11 29-6 4-8 14-5 22s1 11-5 8c-5-4-16-2-23 4-10 8-18 6-31-9z"/><path d="m724 970c3-19 10-36 14-40 4-3 16-24 27-47 11-24 23-43 28-43 13 0 7 20-17 58-14 20-28 49-31 65-11 41-30 47-21 7z"/></g><g transform="translate(0 256) scale(.1 -.1)" fill="var(--icon-stroke, #24324B)"><path d="m1105 2354c-154-37-198-50-240-67-48-20-137-70-162-92-37-31-43-35-43-31 0 3-25-19-55-49s-55-58-55-61c0-4-14-23-30-43-51-60-48-55-56-88-4-13-10-23-15-23s-6-6-3-14 1-17-5-21c-6-3-11-15-11-26s-3-18-7-16c-9 6-11-5-19-107-3-38-9-64-12-59-4 6-7-20-8-58 0-38 3-69 6-69 7 0 21-75 21-113 0-9 4-15 10-12 5 4 9 0 9-9 0-8 2-21 5-28 5-13-3-25-45-76-6-7-14-43-17-80-12-149 71-252 203-252 49 0 53-2 63-30 5-16 7-30 3-30s-2-4 3-8c12-8 31-38 44-67 5-12 16-27 25-34s16-17 16-22c0-10 38-50 44-46 2 1 17-9 33-23s42-32 58-40c43-23 40-32-23-65-80-41-195-157-208-210-3-14-10-25-14-25-5 0-11-18-15-40s-10-42-14-45c-4-2-8-22-9-45-3-73 51-64 61 10 31 235 356 451 452 301 89-140 273-146 356-12 29 47 33 49 85 56 72 9 160-31 243-110 82-78 106-126 136-267 6-29 23-36 42-17 14 14-10 129-43 196-37 76-115 157-193 200-36 20-68 38-70 40-6 4 40 43 50 43 27 0 149 125 174 179 11 22 23 41 28 41 4 0 7 9 7 19 0 33 26 49 79 49 65 1 99 22 165 102 39 48 30 221-13 260-30 27-32 38-11 91 11 30 20 67 20 82 0 16 4 26 8 23 4-2 8 58 9 135 1 81-3 137-8 133-5-3-9 4-9 15 0 67-84 193-159 240-56 34-60 43-31 68 29 26 27 78-5 99-26 17-205 27-205 12 0-5-10-8-22-8s-18 3-15 7c4 3-6 13-21 21s-37 20-49 27c-13 6-19 16-15 20 4 5 1 5-6 1s-18-4-25 2c-7 5-37 17-67 26-30 10-68 22-85 28-31 11-305 20-340 12zm377-93c79-21 122-39 165-69l58-41 103 6c112 6 113 6 77-41-36-48-33-72 12-87 51-17 114-78 164-161 42-70 43-72 47-182 4-112-17-264-40-293-6-7-31-13-57-13h-46l-19 65c-23 80-41 104-113 152-56 37-129 119-168 189-31 55-41 53-120-23-66-64-111-92-245-151-83-36-257-65-365-60-82 4-85 12-35 105 27 50 27 53 9 69-10 9-23 13-31 8-36-20-186-141-211-168-27-31-67-121-67-154 0-26-16-46-30-37-7 4-29 8-48 9-54 2-66 44-64 222 3 202 49 320 176 449 130 132 262 196 496 239 69 13 248-4 352-33zm504-242c19-11 39-30 45-40 7-14-5-9-40 17-28 20-51 38-51 40 0 8 14 3 46-17zm-340-316c35-46 80-91 142-141 99-79 101-82 111-227 6-83 8-90 29-93 16-2 22 2 22 15 1 47 69 83 109 57 43-29 51-41 63-97 12-58 7-97-18-121-8-9-12-16-7-16 4 0-7-13-25-29-39-35-93-47-133-31-39 16-56 8-64-32-19-90-152-263-217-284-13-4-25-10-28-14-19-26-192-72-290-77-113-6-243 3-235 17 3 4-1 7-8 7-32-3-106 16-100 26 3 5 2 7-4 4-11-7-73 13-73 24 0 4-11 9-23 13-30 7-140 117-171 171-13 22-32 65-41 95-23 71-27 75-64 56-104-54-238 95-189 211 15 36 48 73 65 73 7 0 13 5 13 10 0 6 12 10 27 10 14 0 23-3 20-7-4-3 3-11 15-17s25-22 28-36c4-16 13-25 25-25 18 0 21 9 25 95 7 118 17 140 91 213 60 57 85 66 70 24-16-46 1-71 54-80 65-11 285 7 356 28 105 32 195 68 237 96 24 16 46 29 50 29 4 1 27 21 52 45 54 54 51 54 86 8zm149-112c-3-3-22 12-43 33l-37 39 42-33c24-18 41-36 38-39zm-1164-236c-6-79-8-85-15-52-8 34-4 83 10 130 10 34 12 12 5-78zm1464 22c-5-26-1-38 19-60 14-16 26-32 26-37s-18 10-39 33c-22 23-36 44-32 47 5 3 11 15 15 28 11 33 18 27 11-11zm-1632-334c11-13 16-23 10-23-12 0-47 37-62 67-20 38-12 49 10 13 12-19 30-45 42-57zm1661 16c-11-18-25-34-32-37-7-2-1 14 15 36 33 47 44 47 17 1zm-1402-219c29-52 29-53 5-25-15 17-34 46-43 65s-24 52-34 72c-9 21-15 40-12 43s17-18 30-47 37-78 54-108zm1153 56c-20-41-46-83-57-93-24-21-20-10 24 54 15 23 28 47 28 53 0 15 33 71 38 65 2-2-12-38-33-79zm-1e3 -181c11-8 17-17 14-21-3-3-21 9-40 26-32 30-14 27 26-5zm911 23c-6-14-66-58-80-58-6 0 75 70 82 70 1 0 0-6-2-12zm-284-153c-27-19-38-22-53-14-32 17-9 29 71 38 8 0 0-10-18-24zm-198-26c57 0 111 3 120 7 22 8 22-8 0-33-56-63-180-63-235 0-17 19-15 43 3 32 5-3 55-6 112-6zm477-6c0-5 13-17 30-28 16-11 32-26 35-33 2-7-16 4-40 25-48 40-51 43-35 43 6 0 10-3 10-7zm-576-52c11-12 16-21 12-21-16 0-46 22-57 41-9 18-8 19 8 11 10-6 27-20 37-31z"/><path d="m968 1299c-14-8-18-24-18-73 0-58 2-65 27-81 51-34 101 25 87 103-11 56-51 78-96 51z"/><path d="m1507 1292c-42-46-10-162 44-162 49 0 78 108 43 158-19 27-64 29-87 4zm39-109c7-3 12-9 9-14-14-22-35 5-33 45 1 37 2 38 5 8 3-18 11-36 19-39z"/><path d="m1120 947c0-26 43-71 77-81 101-31 233 15 233 81 0 26-33 33-47 10-33-55-150-63-201-14-35 34-62 35-62 4z"/></g></svg>
