<svg fill-rule="evenodd" stroke-linecap="round" stroke-linejoin="round" viewBox="0 0 256 256" xmlns="http://www.w3.org/2000/svg"><g transform="translate(0 256) scale(.1 -.1)" fill="var(--icon-yellow, #FFD85A)"><path d="m580 925c-11-13-8-19 14-40l26-24-39-21c-22-11-42-29-46-40-3-11-11-20-16-20s-9-6-8-12c1-7-1-21-5-30-16-36 2-54 28-29 12 11 26 18 29 14 4-3 7 2 7 13 0 10 15 29 33 42 35 24 57 28 57 12 0-5-6-10-14-10-47 0-67-89-30-131 18-20 18-35 0-20-10 8-16 8-24-2-25-30 53-82 163-107 172-39 192-41 505-42 395-1 422 2 477 54 23 22 39 46 37 53-3 7 15 32 40 56 26 23 46 51 46 60 0 24-44 75-81 93-29 14-38 14-76-1-10-4-49-12-88-18-45-7-69-15-68-23 4-16-20-20-157-27-83-5-120-11-132-22-16-15-20-15-36 0-10 9-45 21-78 26-32 6-79 15-104 21-39 10-190 38-213 39-5 1-5 6-2 11 4 6-7 10-24 10s-31 4-31 9-8 11-17 15c-33 10-86 45-118 76-36 35-38 35-55 15zm679-299c18-22 64-24 185-10 132 16 156 17 156 6 0-5-46-14-102-20-128-15-352-16-343-2 3 6 17 10 29 10 13 0 29 7 36 15 15 19 24 19 39 1z"/></g><g transform="translate(0 256) scale(.1 -.1)" fill="var(--icon-blue, #5EC8F8)"><path d="m1325 1260c-16-17-34-45-40-63-6-21-17-33-31-35-12-2-36-19-54-38l-34-34 34-34c18-19 42-36 54-38 14-2 25-14 31-35 12-35 52-83 70-83s72 63 79 93c3 15 12 27 19 27 15 0 77 61 77 76 0 13-48 58-77 73-13 6-23 20-23 31 0 19-55 90-69 90-4 0-20-14-36-30z"/></g><g transform="translate(0 256) scale(.1 -.1)" fill="var(--icon-purple, #BFA7FF)"><path d="m1160 2370c0-5-17-10-37-10-40-1-114-15-148-29-48-19-175-85-175-90 0-4-14-13-32-20-18-8-42-25-54-38s-25-23-31-23c-11 0-93-83-93-94 0-5-11-19-25-32s-25-27-25-32-6-15-14-21c-19-16-108-198-111-226 0-5-4-16-8-22-4-7-11-35-14-63-3-27-10-50-14-50-5 0-9-58-9-130 0-71 4-130 9-130 4 0 11-30 14-66 4-37 11-72 17-79 5-6 7-15 3-18-3-4-1-12 4-19 6-7 13-26 17-43 4-16 11-32 14-35 4-3 16-23 26-45 11-22 30-54 43-72 13-17 23-34 23-38 0-9 66-75 74-75 4 0 25-15 46-32 109-93 240-140 282-101 21 19 28 20 90 9 36-6 70-14 74-19 4-4 22-7 40-7s36-4 39-10c8-13 142-13 150 0 3 6 35 10 70 10s67 5 70 10c10 16 81 12 95-5 23-27 144-3 188 38 12 11 22 17 22 12s13 3 28 18c16 15 31 25 34 22s28 15 56 40c27 25 56 45 64 45 20 0 52 42 88 115 11 22 24 47 28 55 28 48 42 81 42 99 0 12 5 21 11 21s9 7 6 15c-4 8-2 17 3 20 4 3 11 39 15 80 4 42 11 78 16 81 12 7 12 174 0 174-4 0-11 35-15 77-3 42-10 81-15 86s-7 16-4 23c3 8 1 14-5 14-5 0-13 15-16 33-6 30-22 67-64 143-7 13-17 24-23 24-5 0-9 5-9 10 0 37-213 250-250 250-5 0-10 4-10 9 0 10-26 26-100 61-25 12-58 28-73 35-15 8-66 20-112 27-47 7-85 16-85 20s-52 8-115 8c-70 0-115-4-115-10zm298-77c4-5 26-13 49-16 23-4 54-13 70-21 15-8 46-23 68-33s56-30 76-45c20-16 41-28 46-28 12 0 169-162 176-182 4-10 10-18 15-18 4 0 14-16 22-35s17-35 21-35 10-13 14-30c4-16 11-30 16-30s9-8 9-17c0-10 7-31 15-46 8-16 17-50 21-78 4-27 11-49 16-49s8-27 7-60 1-63 4-67c9-8 9-48 0-57-4-4-6-27-4-52 1-25-2-50-7-57s-12-34-16-61c-3-27-10-54-15-60-4-6-11-24-15-41-7-30-36-96-47-105-3-3-12-20-20-37-8-18-17-33-21-33-5 0-8-6-8-12 0-17-141-158-157-158-7 0-13-4-13-9s-17-12-37-16c-21-4-43-11-49-15-5-5-47-12-92-16-46-4-85-11-88-15-7-13-184-11-184 1 0 6 30 10 69 10s73 5 76 10c3 6 30 10 60 10s57 5 60 10c3 6 19 10 36 10 16 0 29 5 29 10 0 6 5 10 10 10 12 0 73 41 78 53 2 4 9 7 16 7 13 0 96 81 96 94 0 5 10 18 23 30s30 36 38 54c7 18 17 32 21 32 3 0 9 13 13 30 4 16 10 30 15 30s12 15 15 32c4 18 11 35 16 38 4 3 11 37 14 75 4 39 9 77 11 85 8 23 10 180 3 180-3 0-9 30-12 66-4 37-11 71-16 78-5 6-12 26-16 44-3 17-10 32-15 32s-11 14-15 30c-4 17-11 30-16 30s-12 8-16 18c-3 9-21 36-40 59-18 23-33 45-33 50 0 23-112 113-182 147-43 21-78 41-78 46s-15 12-32 15c-18 4-37 11-43 15-47 37-434 37-480 1-5-5-25-12-42-16-18-3-33-10-33-15s-13-11-30-15c-16-4-30-11-30-16s-15-16-32-24c-18-9-44-22-57-29-29-17-121-107-121-119 0-5-20-32-45-60-25-29-48-66-51-84s-10-33-15-33c-4 0-11-16-15-35-3-19-10-37-14-40-5-3-12-30-15-60-4-30-10-55-14-55-7 0-5-226 2-238 3-4 8-35 12-69 4-35 11-63 15-63 5 0 11-18 15-39 4-22 13-45 21-52 8-6 14-18 14-25 0-8 4-14 8-14 5 0 14-16 22-35 7-19 19-36 27-39 7-3 13-12 13-20 0-17 149-166 166-166 6 0 17-7 24-15 8-9 31-15 59-16 56-1 177-21 187-32 4-4 25-7 46-7s38-4 38-10c0-12-137-14-144-1-3 4-40 11-81 14-42 3-82 10-89 16s-34 14-60 17c-25 4-46 10-46 13s-12 12-27 18c-31 14-103 77-103 91 0 4-12 20-28 35-15 14-47 66-71 114-60 120-58 115-66 153-4 19-12 41-17 47-6 7-8 19-5 28 4 8 2 17-3 20-12 8-13 272-1 279 4 3 6 17 3 31-2 14 0 31 6 38 5 6 12 29 16 49 4 21 25 73 48 115 22 43 48 91 56 108 19 36 194 209 231 228 14 8 51 26 81 41l84 42c16 8 49 17 73 21 23 3 43 9 43 14 0 19 356 22 368 2zm-348-258c17-20 5-33-43-45-56-15-107-39-107-50 0-6-5-10-12-10-17 0-118-101-118-117 0-8-6-16-14-19s-17-17-21-32c-14-54-71-62-61-8 8 42 34 96 47 96 5 0 9 5 9 12 0 16 71 88 87 88 6 0 16 6 20 13 10 14 34 30 88 56 73 35 106 39 125 16zm477-66c4-20-17-48-24-31-2 6-12 12-20 12-14 0-13 3 2 20 20 22 39 22 42-1zm-203-74c4-19 11-35 16-35 6 0 10-7 10-15s17-22 38-31c30-14 33-18 17-21-38-9-85-64-85-100 0-23-5-33-15-33s-15 10-15 30c0 34-18 57-68 86-35 20-37 37-6 42 31 6 72 51 79 88 7 42 20 37 29-11zm-585-368c7-17 24-34 41-40 38-15 38-20-6-43-35-19-71-74-60-93 4-5 2-12-4-16-5-3-10 2-10 13 0 34-28 77-65 96-39 21-44 33-17 43 23 8 62 44 62 58 0 6 6 23 12 37l12 26 12-27c6-14 16-39 23-54zm939-46 50-50-102-106-97 99 46 46c25 25 42 49 39 53-4 4-2 7 4 7s33-22 60-49zm-610-58c-3-30-25-42-34-19-6 17 11 46 28 46 5 0 8-12 6-27zm-193-303c18-20 18-21-3-42l-22-22-25 24c-31 29-31 32-2 46 31 16 32 16 52-6zm453-3 22-23-50-47-50 47 22 23c12 13 24 23 28 23s16-10 28-23z"/></g><g transform="translate(0 256) scale(.1 -.1)" fill="var(--icon-orange, #FFB84D)"><path d="m1940 935c-19-20-40-33-46-31s-29-13-50-35c-21-21-44-39-51-39s-13-4-13-9-18-12-40-16c-42-7-49-15-26-34 8-7 13-23 11-37-1-13 2-27 7-30 12-8-21-44-40-44-9 0-12 3-9 7 10 9-43 63-62 63-8 0-22 7-32 16-15 14-23 14-56 3-26-9-101-12-238-12-158 1-203-2-216-13s-26-12-73-3c-56 12-57 11-86-16-27-26-28-30-15-46 14-15 14-17-7-22-30-8-34-2-21 33 10 26 8 31-21 59-18 17-38 31-45 31s-42 14-78 30c-73 34-86 36-102 16-10-12-8-13 8-9 12 3 21 1 21-6 0-6-6-11-14-11-20 0-56-48-56-75 0-12 10-34 21-49 30-38 17-43-15-6-31 38-35 93-8 118 10 10 13 13 6 9s-15-3-19 3c-5 8-11 8-20 0-7-6-21-7-30-3-14 5-17 3-12-10 3-9 2-19-3-22-13-8-13-52 1-60 6-4 8-13 5-21-3-7-1-16 4-19 18-11 10-23-20-30-16-4-33-12-37-18-5-7-17-17-28-23-27-15-65-91-65-131 0-53 55-126 105-139 14-3 25-10 25-14 0-5 18-11 40-15s42-10 45-15c3-4 29-11 58-15 28-4 57-11 62-15 58-46 1078-46 1140 0 6 4 32 11 59 15 27 3 56 10 65 15 9 4 42 21 74 36 31 16 66 33 76 38 10 6 25 25 32 43s16 33 21 33c4 0 8 16 8 35s-4 35-9 35-12 12-15 26c-9 36-60 88-102 104-35 14-42 24-24 35 6 4 7 11 4 17-4 5-1 20 6 33 7 14 9 31 5 42-5 10-7 22-6 26 0 4-3 13-9 20s-19 24-31 40c-11 15-27 27-35 27-24 0-15 32 17 61 27 24 30 31 19 44-17 21-22 20-60-20zm-1440-405c0-6-7-13-15-16s-17-21-21-40c-3-19-11-34-16-34-15 0-2 55 19 79 19 23 33 27 33 11z"/></g><g transform="translate(0 256) scale(.1 -.1)" fill="var(--icon-slate, #606078)"><path d="m1647 1682c-17-18-30-47-37-81-13-67-20-76-79-96-26-8-61-29-76-45l-29-30 39-40c22-22 48-40 60-40 36 0 64-29 80-84 10-34 28-64 51-87l35-34 40 42c21 23 39 52 39 63 0 47 26 86 66 98 22 6 55 27 74 47l34 35-38 39c-21 21-51 41-66 44-40 9-57 30-70 89-11 55-51 108-80 108-9 0-28-13-43-28zm47-158c9-3 16-11 16-17 0-16 41-57 57-57 24 0 14-20-34-68l-47-47-34 37c-19 21-41 38-48 38-24 0-15 20 15 38 28 16 57 57 53 75-2 9 2 9 22 1z"/><path d="m985 805c28-7 64-14 82-14 17-1 35-5 38-11 3-5 24-10 46-10 21 0 39-4 39-10 0-12-132-13-145-1-11 10-141 21-150 13-9-9 57-72 76-72 10 0 21-4 24-10 3-5 14-10 24-10s26-10 37-21c17-19 27-21 102-16 49 3 85 1 88-5 4-7 53-7 138-3l131 7 62 55c35 31 60 59 57 64-7 12-111 11-119-1-3-5-46-10-96-10-53 0-89 4-89 10s30 10 69 10 73 5 76 10c3 6 31 10 61 10 40 0 55 4 52 13-6 16-57 22-71 8s-463-15-472-1c-3 6-30 9-58 9l-52-1 50-13z"/><path d="m1107 542-27-28 28-27c28-27 29-27 173-27h145l54 56-28 27c-28 27-29 27-173 27h-145l-27-28z"/><path d="m945 230-29-30h42c23 0 42-4 42-10s98-10 275-10 275 4 275 10 19 10 42 10h43l-60 58-120-10c-110-9-413-4-460 8-14 3-30-5-50-26z"/></g><g transform="translate(0 256) scale(.1 -.1)" fill="var(--icon-stroke, #24324B)"><path d="m1135 2353c-49-8-98-15-107-16-10-1-18-4-18-8 0-7-56-23-77-22-7 0-13-3-13-7s-12-11-27-15c-15-3-30-10-33-14s-27-20-54-35c-97-56-246-202-278-272-6-13-15-24-20-24-4 0-8-7-8-15s-5-15-11-15c-5 0-7-4-4-10 3-5 2-10-4-10-5 0-12-13-16-30-4-16-10-30-15-30-4 0-11-17-15-37-4-21-11-44-17-50-6-7-7-13-4-13 4 0 2-8-3-18-23-43-32-244-16-357 18-133 19-138 27-150 3-6 9-27 13-48 4-20 11-37 15-37 5 0 11-13 15-30 4-16 11-30 16-30 6 0 7-4 4-10-3-5-2-10 2-10 5 0 17-17 28-37s41-60 67-88c58-61 58-59 5-84-60-29-85-111-57-185 9-24 6-28-38-50-77-39-117-103-110-173 6-58 110-134 206-149 23-4 42-9 42-13 0-3 10-7 23-7 12-1 65-9 117-19 173-30 273-38 505-38 226 0 296 6 505 39 58 9 113 17 123 17 9 1 17 5 17 9s8 8 18 8c24 0 120 41 164 70 75 50 77 144 4 216-25 25-46 45-48 45-33-4-49 14-43 48 4 20 10 37 15 39 4 2 1 29-7 61-13 50-20 61-54 82-46 28-46 32-14 67 14 15 38 47 52 72s29 47 32 50c17 14 69 141 95 233 35 119 30 346-9 477-9 30-17 62-17 70-1 8-4 17-7 20-4 3-18 28-31 55-14 28-27 52-30 55s-23 31-44 62c-34 50-197 220-200 209-1-5-55 28-66 39-3 3-27 16-55 30-27 14-52 28-55 31-7 8-124 38-215 54-97 18-152 17-270-2zm280-43c38-6 74-15 79-20 6-6 19-10 31-10 11 0 40-10 65-22s48-20 53-20c4 1 7-2 7-7s12-12 26-15c24-6 71-35 100-61 6-5 34-30 63-55 290-250 361-692 167-1e3 -41-75-42-76-116-156-75-82-109-101-225-127-133-30-175-43-175-52 0-4-10-10-22-12-13-2-4-5 19-6 105-3 334 58 380 101 23 22 24 22 57 4 129-69 59-188-141-241-314-84-954-59-1153 45-48 25-83 91-67 128 31 74 66 83 152 42 76-36 219-69 330-74 44-3 67-3 50 0-16 3-40 9-52 14-56 24-73 30-153 50-47 12-103 30-125 39-37 17-165 134-165 152 0 4-6 14-13 21-21 22-74 111-82 138-4 14-11 30-15 35-8 10-34 92-35 110 0 6-4 13-10 17-18 13-12 355 7 408 9 25 19 60 23 78 4 17 10 32 15 32 4 0 11 12 15 28 6 24 54 108 80 139 5 7 19 24 30 39 30 39 98 104 164 157 29 23 93 57 108 57 7 0 13 5 13 12 0 6 3 9 6 5 3-3 20 2 37 12 112 62 298 86 472 61zm-789-1744c290-135 1070-135 1301 0l41 24 44-19c90-38 131-119 89-173-131-166-1e3 -214-1496-77-182 56-229 129-136 212 66 58 91 64 157 33z"/><path d="m1585 1387c23-13 48-37 57-57 17-33 18-34 18-9 0 28-18 48-67 73-48 24-54 19-8-7z"/><path d="m1223 693c15-2 37-2 50 0 12 2 0 4-28 4-27 0-38-2-22-4z"/></g></svg>
