<svg fill-rule="evenodd" stroke-linecap="round" stroke-linejoin="round" viewBox="0 0 256 256" xmlns="http://www.w3.org/2000/svg"><g transform="translate(0 256) scale(.1 -.1)" fill="var(--icon-yellow, #FFD85A)"><path d="m1462 995c-51-27-63-65-35-114 24-41 25-41 299-41h241l27 25c35 32 35 73-1 107l-28 26-240 4c-172 3-246 1-263-7z"/></g><g transform="translate(0 256) scale(.1 -.1)" fill="var(--icon-blue, #5EC8F8)"><path d="m530 1741c0-6-6-11-13-11-8 0-22-9-31-19-16-18-18-51-17-403l1-383 87-83 588 10 74 73 2 364 1 364-36 35-35 36-295 2c-220 1-300 5-311 14-10 9-15 9-15 1z"/></g><g transform="translate(0 256) scale(.1 -.1)" fill="var(--icon-green, #66DDAA)"><path d="m350 2055c-19-19-30-35-24-35h929c546 0 933-4 952-9 47-14 52 4 12 45l-33 34h-901-901l-34-35z"/><path d="m530 1740c0-5-6-10-13-10-8 0-24-11-37-25-22-23-22-27-8-41 14-15 18-15 41 1 22 14 63 16 352 14 356-1 376 2 320 47l-30 24h-312c-202 0-313-4-313-10z"/><path d="m440 1206c0-306 5-340 44-297 14 15 16 52 16 272v255l-60 58v-288z"/><path d="m677 922-27-28 55-53 424-6 61 59-54 56h-216-216l-27-28z"/><path d="m405 490-29-30h910c954 0 955 0 917 42-15 17-59 18-893 18h-876l-29-30z"/></g><g transform="translate(0 256) scale(.1 -.1)" fill="var(--icon-purple, #BFA7FF)"><path d="m241 2e3 -41-45v-548-548l70-68v576c0 564 3 630 32 649 5 3 3 11-5 17-12 10-22 3-56-33z"/><path d="m1470 1711c0-5-9-11-20-14-12-3-20-14-20-25 0-12-4-24-10-27-12-7-14-55-2-55 4 0 12-15 17-32l10-33 304-3c304-2 304-2 329 20 21 20 23 30 20 81-7 100 2 97-338 97-161 0-290-4-290-9z"/><path d="m1207 1642c-15-17-17-56-17-359v-340l23-21c13-12 27-19 30-15 4 3 7 169 7 368 0 384-3 411-43 367z"/></g><g transform="translate(0 256) scale(.1 -.1)" fill="var(--icon-orange, #FFB84D)"><path d="m1555 950c-23-24-37-30-70-30-51 0-67-14-53-45 15-33 27-35 294-35 239 0 241 0 266 24l26 23-40 47-40 46h-177-177l-29-30z"/></g><g transform="translate(0 256) scale(.1 -.1)" fill="var(--icon-skin, #F0D8C0)"><path d="m2310 1727c0-25-4-49-10-52-6-4-10-68-10-161 0-96 4-154 10-154s10-10 10-22v-23l24 25c23 24 24 31 28 202l4 178-56 54v-47z"/><path d="m1455 880c-10-11-15-23-11-28 12-11 519-14 536-2 12 7 12 13 4 27-18 30-502 32-529 3z"/></g><g transform="translate(0 256) scale(.1 -.1)" fill="var(--icon-slate, #606078)"><path d="m340 2101c0-5-12-12-27-16-34-8-100-74-108-108-4-15-11-27-16-27s-9-282-9-665 4-665 9-665 12-12 16-27c9-37 76-102 114-109 17-4 34-11 37-15 7-12 1841-12 1848 0 3 4 20 11 37 15 38 7 105 72 114 109 4 15 11 27 16 27s9 282 9 665c0 398-4 665-9 665s-12 14-16 31-13 33-21 36-14 11-14 19-6 14-14 14-16 6-19 14-19 17-36 21-31 11-31 16-374 9-940 9c-544 0-940-4-940-9zm1907-111c28-22 41-43 47-75 1-5 6-18 11-29s4-26-3-36c-6-10-7-21-1-27 5-5 12-100 15-211 7-190 6-203-12-223-14-16-15-23-6-26 15-6 18-318 2-328-6-4-10-53-10-116 0-66 4-109 10-109 13 0 13-127 0-135-6-4-10-12-9-18 3-24-14-53-44-77l-31-25-911-3c-915-3-967-1-1e3 31-22 23-29 54-34 167-4 84-9 114-18 113-20-4-19 1e3 0 1e3 8 6 19 30 26 52 28 93-33 88 1e3 86l921-2 31-25z"/><path d="m1142 1728c-8-8-8-15-1-24 7-8 7-14-1-19s-7-12 4-24c15-16 14-19-4-36-19-17-20-30-20-360 0-413 16-375-162-375-120 0-125 1-148 25-22 24-29 25-132 25h-108v343 344l-24 22c-14 13-22 29-20 35 3 7-2 19-11 26-19 15-55-11-55-41 0-10-4-21-10-24-13-8-14-735-1-735 5 0 12-13 16-30 12-53 29-56 375-58 270-3 320-1 346 13 38 18 58 40 50 54-4 5-2 12 4 16 14 9 14 731-1 740-6 4-8 13-5 20 5 13-55 75-72 75-5 0-13-5-20-12z"/><path d="m1434 1288c-20-20-20-23-5-50l16-28h311c300 0 312 1 329 20 15 16 17 26 9 47l-9 26-315 3c-311 3-315 3-336-18z"/><path d="m1434 975c-22-29-24-38-14-50 12-14 15-14 30 0 25 22 93 19 115-5 17-19 31-20 203-20 154 0 183-2 173-13-8-11-7-18 7-31 50-44 100 86 52 134-19 19-33 20-279 20h-260l-27-35z"/></g><g transform="translate(0 256) scale(.1 -.1)" fill="var(--icon-stroke, #24324B)"><path d="m365 2091c-84-21-148-84-165-163-15-72-14-1234 2-1296 17-68 87-135 153-148 30-5 422-7 965-4l915 5 35 24c19 14 38 31 43 38 4 6 13 18 20 25 34 33 37 102 37 720 0 594-3 669-31 702-5 6-17 21-27 33-10 11-38 32-62 45l-45 23-905 2c-498 0-918-2-935-6zm1838-22c40-11 127-86 127-110 0-8-18 7-40 33-67 77-8 73-1e3 73-838 0-902-1-934-18-19-9-36-15-39-12-4 4 25 19 78 38 29 11 1783 7 1823-4zm12-45c35-16 76-57 89-89 12-28 16-1231 4-1278-5-21-21-51-35-67-56-63-3-60-988-60h-898l-44 22c-94 47-88-5-90 723l-3 640 23 40c12 22 40 50 62 62l40 23h903c799 0 908-2 937-16zm132-261c-2-16-4-5-4 22 0 28 2 40 4 28 2-13 2-35 0-50zm-2058-1195c39-37 39-49 1-28-29 16-58 62-65 105l-6 40 15-40c8-22 33-57 55-77zm1464-65c-238-2-628-2-865 0-238 1-44 2 432 2s670-1 433-2z"/><path d="m498 1701-33-29v-395-395l25-21c14-11 39-21 55-21 26-1 27-3 10-10-12-5 110-8 290-7 306 1 307 1 100 7l-210 6 223 2c206 2 223 3 242 22 30 30 31 41 28 438l-3 374-65 58h-315-315l-32-29zm668-46c11-15 14-91 14-375 0-342-1-358-20-375-33-30-587-33-624-4l-26 20v350c0 365 2 383 43 398 12 5 152 8 311 6 268-2 290-3 302-20z"/><path d="m1440 1275c-10-12-10-18 0-30 20-24 628-18 644 7 5 9 7 20 3 24-16 16-634 15-647-1zm565-15c-4-6-60-10-135-10s-131 4-135 10 43 10 135 10 139-4 135-10z"/><path d="m1446 968c-17-23-20-55-10-82 11-27 24-17 24 17 0 50 28 71 81 62 29-5 40-4 35 4-5 7 2 11 16 11 18 0 20-2 8-10-10-6 47-10 171-10 199 0 209-2 209-52 0-15 5-28 10-28 14 0 12 84-2 98-9 9-83 12-269 12-255 0-258 0-273-22z"/></g></svg>
