<svg fill-rule="evenodd" stroke-linecap="round" stroke-linejoin="round" viewBox="0 0 256 256" xmlns="http://www.w3.org/2000/svg"><g transform="translate(0 256) scale(.1 -.1)" fill="var(--icon-yellow, #FFD85A)"><path d="m1806 948c-24-24-27-34-19-48 7-10 8-22 2-31-5-8-9-100-9-205v-190l30-29c27-26 31-27 60-15 22 9 34 9 43 2 19-16 123 88 105 106-9 9 18 40 122 139 73 71 151 150 172 177l39 49-34 35c-33 33-36 34-70 23-53-18-373-13-388 5-15 19-19 17-53-18z"/></g><g transform="translate(0 256) scale(.1 -.1)" fill="var(--icon-green, #66DDAA)"><path d="m390 2172c0-5 10-18 23-30l23-22h815 815l58 60h-867c-477 0-867-4-867-8z"/><path d="m620 1812c-8-2-21-10-29-16s-23-11-35-11c-36 0-41-32-40-269l1-227 77-79h199 199l78 78v224 224l-81 79-177 1c-97 1-184-1-192-4z"/><path d="m1312 1748c-19-19 34-68 73-68 17 0 36 5 41 10 10 10 493 9 539-1 24-5 34 33 15 57-17 19-649 21-668 2z"/><path d="m1750 677v-197h-32-32l58-60 66 64v166 166l-60 58v-197z"/></g><g transform="translate(0 256) scale(.1 -.1)" fill="var(--icon-purple, #BFA7FF)"><path d="m285 2109c-36-33-43-45-34-56 7-7 9-16 5-20-3-3 2-15 11-25 16-18 18-17 60 24l44 43 899 3c495 1 900 6 900 9 0 4-12 20-27 35l-27 28h-846c-593 0-857-3-879-11-23-8-35-8-46 1s-23 3-60-31z"/><path d="m533 1778c-21-27-24-59-24-273 0-225 3-247 31-278 16-16 18-16 35 3 13 15 15 23 7 33-8 9-11 92-9 258 1 229-2 269-22 269-5 0-13-6-18-12z"/><path d="m1387 1753c-4-3-2-12 4-19 7-8 7-14-1-19-15-9 37-65 60-65 9 0 25 9 35 20 16 17 31 20 110 20s94-3 110-20c15-17 31-20 99-20h81l49 43c30 27 47 48 42 55-8 13-577 18-589 5z"/><path d="m242 1407c-31-32-32-36-32-119 0-64-4-89-15-98-8-7-15-29-15-50s7-43 15-50 15-26 15-42c0-26-2-29-15-18-22 18-23-404-1-425 12-12 16-11 30 4 13 14 16 43 16 156 0 137 0 138 20 120s20-17 20 268c0 158-1 287-3 287s-17-15-35-33z"/><path d="m635 881 30-29 773-7 26 24c20 18 23 27 14 33-7 4-206 8-443 8h-430l30-29z"/><path d="m259 529-21-31 33-34c18-19 39-34 46-34s13-4 13-9 15-13 33-16c17-4 37-11 43-16 7-6 16-4 24 6 11 13 74 15 472 15 408 0 459-2 448-15s16-15 237-15c137 0 253 3 256 7 10 9-33 53-51 53-13 0-12 3 1 18 16 17 15 20-13 47l-30 29v-27-27l-1379 5-38 38c-47 45-46 45-74 6z"/></g><g transform="translate(0 256) scale(.1 -.1)" fill="var(--icon-skin, #F0D8C0)"><path d="m2297 1e3c-4-18-16-19-228-23-217-3-225-4-247-25-42-43-17-71 45-49 30 11 89 14 232 13l191-2 30 31 31 30-24 23c-24 21-25 21-30 2z"/></g><g transform="translate(0 256) scale(.1 -.1)" fill="var(--icon-slate, #606078)"><path d="m390 2170c0-5-12-10-26-10-27 0-134-92-134-115 0-7-7-15-15-19-9-3-15-19-15-41 0-19-4-35-10-35-7 0-10-230-10-670 0-375 4-670 9-670s11-18 15-40c3-22 11-40 16-40 6 0 10-6 10-13 0-16 71-87 87-87 6 0 13-7 17-15 3-8 17-15 31-15s25-4 25-10c0-13 1446-14 1454-1 3 5 21 12 39 15 22 4 52 25 92 66 33 33 66 60 74 60s11 3 7 7c-7 7 52 73 66 73 17 0 228 221 234 245 3 14 10 25 15 25 14 0 12 1085-3 1113-6 12-15 29-20 37-4 8-12 24-17 35-13 31-62 70-111 90-8 4-23 11-32 16-25 13-1798 12-1798-1zm40-75c16-20 518-23 538-3 9 9 15 9 24 0 18-18 88-15 110 5 17 15 19 15 36 0 23-21 65-22 82-2 16 19 54 19 70 0 10-12 76-14 435-15 233 0 437-3 455-6 40-9 90-58 96-98 3-17 10-40 15-51 6-12 8-206 7-475l-3-455-50-3c-78-4-82-8-49-43 25-26 35-30 72-27 36 3 42 0 42-16 0-11-3-16-7-12-12 12-334-316-323-329 14-16-45-73-98-96-51-22-93-26-74-7 7 7 12 41 12 82 0 51 4 74 17 88 21 23 19 135-3 159-19 21-18 29 7 55 14 15 18 27 13 36-5 7-9 21-9 32 0 27-29 43-47 25-46-48-48-60-48-263 0-194 0-195-22-198-13-2-22-9-20-16 3-17-23-15-38 3-16 19-34 19-50 0-20-24-1165-23-1191 1-10 9-36 17-59 18-32 0-39 4-35 17 3 8-4 24-16 35-35 32-40 61-42 254-2 142-5 184-14 183-18-4-16 27 3 49 13 14 14 21 5 32-8 10-9 16-1 21 16 10 12 101-5 115-20 16-22 151-2 148 9-2 12 64 14 301 1 167 5 306 8 309s5 15 5 27 11 32 25 45c19 18 22 26 13 37-14 17-11 19 38 37 50 19 49 19 64 1z"/><path d="m548 1793c-32-35-40-57-25-72 8-8 16-6 31 8 18 17 39 19 166 21 268 4 286 3 267-18-15-16-17-47-17-220v-202h-177c-167 0-178-1-200-21-17-17-26-19-36-11-10 9-17 8-25 0-18-18-15-27 17-59l29-29h221c122 0 221 4 221 9s9 11 20 14c34 9 39 49 40 294 0 244-3 283-25 283-7 0-18 7-25 15-10 13-49 15-234 15h-222l-26-27z"/><path d="m1302 1737c-26-27-13-72 23-81 28-8 615-7 643 0 18 5 22 13 22 44 0 52-23 70-53 41-35-32-463-33-492-1-27 30-114 28-143-3z"/><path d="m1300 1365c0-8-4-15-10-15-16 0-12-18 10-40 19-19 33-20 344-20 353 0 351 0 344 57l-3 28-342 3c-301 2-343 0-343-13z"/><path d="m537 892c-19-21-22-42-7-42 6 0 10-7 10-15 0-13 58-15 460-15 300 0 460 3 460 10 0 6 7 10 15 10 21 0 20 56-1 64-27 10-72 7-77-6-3-10-9-10-26 0-16 9-118 12-419 12-374 0-400-1-415-18z"/></g><g transform="translate(0 256) scale(.1 -.1)" fill="var(--icon-stroke, #24324B)"><path d="m364 2144c-24-9-61-35-86-62-83-87-79-48-75-817 4-689 5-715 19-715 4 0 8-5 8-10 0-15 44-66 82-95 59-46 47-46 818-42 399 1 734 5 745 7 17 4 63 42 130 107 7 7 15 9 19 6 3-4 6-1 6 5 0 17 37 52 46 44 4-4 4-2 1 4-8 13 16 37 26 27 4-3 7-2 7 3 0 14 229 241 237 235 3-3 3 0-1 7s-3 18 2 25 12 30 15 52c9 56 10 983 2 1e3 -21 96-78 169-155 198-64 24-1779 25-1846 1zm469-11c-73-2-193-2-266 0-72 1-13 3 133 3s205-2 133-3zm240 0c-13-2-35-2-50 0-16 2-5 4 22 4 28 0 40-2 28-4zm395 0c-32-2-84-2-115 0-32 2-6 3 57 3s89-1 58-3zm535 0c-83-2-223-2-310 0-87 1-18 3 152 3 171 0 242-2 158-3zm303-99c14-24 24-48 20-51-3-4-6-1-6 6s-24 37-52 68c-48 50-50 54-21 39 18-9 44-37 59-62zm-112 51c49-23 91-74 110-129 22-69 25-956 2-975-10-8-67-10-200-6-323 10-334 0-338-307l-3-203-682-3c-439-1-683 1-683 8 0 5-7 7-15 4-19-8-119 92-111 111 3 8 1 15-4 15-19 0-13 1334 5 1378 21 49 52 81 100 103 56 26 1765 29 1819 4zm-2e3 -942c0-21-5-45-10-53-7-11-10 0-10 38 0 28 5 52 10 52 6 0 10-17 10-37zm2052-243c-8-33-358-384-416-417-45-26-46-24-46 178 0 204 4 223 49 242 40 17 417 13 413-3zm8-61c0-11-207-214-256-251-16-11 34 43 111 120 149 151 145 148 145 131zm-499-127c1-34-1-65-4-69-4-3-7 27-7 67 0 88 8 90 11 2zm-1490-217c40-36 42-43 8-24-25 13-79 87-79 108 0 9 8 1 16-16 9-18 34-49 55-68z"/><path d="m695 1800-129-5-22-32c-21-31-22-43-22-265v-232l58-56h217c156 1 223 4 234 13 35 27 39 53 39 282 0 300 5 291-160 297-47 2-143 1-215-2zm316-59c17-21 19-42 19-237 0-277 21-254-229-254-256 0-235-23-234 253 0 228 2 240 48 257 11 4 100 7 199 6 174-1 178-2 197-25z"/><path d="m1311 1723c-12-9-14-16-5-30 17-27 636-33 666-7 17 16 17 18 1 37-17 18-32 19-331 16-227-3-319-7-331-16zm126-20c-20-2-52-2-70 0-17 2 0 4 38 4 39 0 53-2 32-4zm416 0c-23-2-64-2-90 0s-7 3 42 3c50 0 71-1 48-3z"/><path d="m1310 1360c-12-7-12-13-4-27 15-24 645-33 669-9 12 12 12 16-3 29-20 18-635 25-662 7zm158-17c-15-2-42-2-60 0s-6 4 27 4 48-2 33-4zm190 0c-21-2-57-2-80 0-24 2-7 4 37 4s63-2 43-4zm292-1c0-4-17-6-37-4-65 6-70 10-15 11 28 0 52-3 52-7z"/><path d="m590 890c-37-4-45-9-45-25 0-20 7-20 460-20h460l3 23c2 12 0 22-5 22-4 0-192 1-418 3-225 1-430 0-455-3zm513-27c-84-2-222-2-305 0-84 1-16 3 152 3s236-2 153-3z"/></g></svg>
