<svg fill-rule="evenodd" stroke-linecap="round" stroke-linejoin="round" viewBox="0 0 256 256" xmlns="http://www.w3.org/2000/svg"><g transform="translate(0 256) scale(.1 -.1)" fill="var(--icon-blue, #5EC8F8)"><path d="m1697 1372c-13-15-17-39-17-111 0-51-4-90-9-87-17 11-22-65-15-214 7-148 7-150 31-156 16-4 31 0 43 11 28 25 31 559 4 569-21 8-19 9-37-12z"/><path d="m2108 1323c-14-15-17-53-19-221-3-197-3-203 19-224 39-39 43-17 40 227-3 233-7 255-40 218z"/><path d="m1907 1102-27-28v-160-160l60-58v217c0 119-1 217-3 217s-15-13-30-28z"/></g><g transform="translate(0 256) scale(.1 -.1)" fill="var(--icon-purple, #BFA7FF)"><path d="m1853 1575c-23-25-18-934 5-951 14-10 20-10 35 3 16 15 17 50 17 468v452l-22 20c-19 18-25 19-35 8z"/><path d="m2063 1323c-20-41-17-421 2-447 14-19 15-19 35-1 29 27 31 432 2 458-24 22-25 22-39-10z"/></g><g transform="translate(0 256) scale(.1 -.1)" fill="var(--icon-skin, #F0D8C0)"><path d="m812 2225c28-26 47-35 72-35 19 0 37-4 40-9 3-4 25-11 49-14 24-4 57-13 73-21s43-20 59-27c17-7 48-27 70-44s48-34 58-38c9-4 20-15 24-24 4-10 21-36 40-59 18-23 33-46 33-53 0-6 4-11 10-11 5 0 12-16 16-35 3-19 10-38 15-40 4-3 11-26 15-51 3-25 8-43 11-41 2 3 22-14 44-37l41-41-6 74c-3 41-10 79-16 85-5 5-10 16-10 24 0 20-59 139-76 153-8 6-14 17-14 23 0 15-102 116-116 116-6 0-19 9-30 21-28 31-153 89-206 96-27 3-48 10-48 14 0 5-42 9-92 9l-93-1 37-34z"/><path d="m1860 1585c0-8-4-15-10-15-7 0-10-163-10-470 0-496 0-499 43-452 21 23 27 913 6 938-15 18-29 18-29-1z"/><path d="m2062 1320c-18-29-16-419 2-442 12-17 14-17 30 0 25 29 24 422-2 445-16 15-19 15-30-3z"/></g><g transform="translate(0 256) scale(.1 -.1)" fill="var(--icon-slate, #606078)"><path d="m736 2251c-3-4-27-11-53-14-41-5-113-36-212-92-32-18-130-115-142-140-5-11-29-56-54-100-24-44-44-90-44-102-1-12-6-23-11-25-6-2-13-43-17-91-3-48-10-87-14-87-5 0-9-7-9-15s5-15 10-15c6 0 10-7 10-15 0-23 28-30 49-11 14 12 20 38 26 99 4 45 10 87 15 92 4 6 11 31 14 58 4 26 10 47 14 47 7 0 15 13 45 75 8 17 24 39 36 49 11 11 21 24 21 30 0 13 44 56 57 56 6 0 18 9 28 20 23 25 110 70 135 70 10 0 20 5 22 10 2 6 30 14 63 17s65 10 72 15c7 6 41 8 77 7 80-5 86 0 41 40-33 28-42 31-105 31-38 0-71-4-74-9z"/><path d="m755 1931c-77-18-199-112-225-173-5-12-14-30-18-38-23-41-31-60-37-94-4-20-11-39-16-42s-9-36-9-74 4-71 9-74 12-22 15-41c4-19 11-35 16-35 6 0 10-5 10-12 0-6 23-35 51-65 48-50 51-57 46-93-5-39-38-81-82-106-51-28-82-153-52-207 21-39 60-77 78-77 10 0 21-4 24-10 16-25 107 2 157 47 11 10 34 46 50 81 29 61 61 89 96 83 6-1 12 2 12 7s8 13 18 16c55 20 97 61 128 126 4 8 12 18 18 22 15 10 15 236 0 246-6 4-14 14-18 22-28 60-82 116-120 126-14 3-26 10-26 14 0 13-142 9-165-4-56-31-70-61-40-86 12-10 22-9 51 5 38 18 144 14 144-6 0-5 6-9 13-9 18 0 77-63 77-82 0-9 4-19 9-22s7-15 4-27c-4-12 0-25 8-29 11-7 11-13 0-33-7-13-12-33-11-43 3-25-10-64-21-64-5 0-9-6-9-13 0-16-42-57-58-57-7 0-12-4-12-9s-13-12-30-16c-16-4-30-11-30-16s-6-9-13-9c-16 0-92-76-92-93-3-46-56-97-100-97-31 0-65 25-65 48 0 7-4 12-10 12-23 0 15 99 38 100 6 0 12 3 12 8 0 4 10 12 22 17 12 6 26 19 32 30s15 23 20 27c5 3 12 34 14 68 6 76-18 129-81 186l-42 38v107c0 96 3 111 29 165 38 77 110 152 153 160 18 3 36 10 39 15s43 9 89 9 86-4 89-9 22-12 41-15c19-4 35-11 35-16s12-15 27-22c14-7 31-22 37-33s13-22 16-25c26-24 41-70 46-137 9-103 35-131 78-84 19 20 15 131-4 156-4 6-11 25-15 43-3 17-11 32-16 32s-9 6-9 13c0 16-101 117-118 117-7 0-12 4-12 9s-12 12-27 16c-15 3-31 11-34 17-8 12-192 20-234 9z"/><path d="m1379 1826c-7-8 14-116 23-116 4 0 8-52 8-115s-4-115-9-115-12-27-16-60-11-60-15-60-11-12-14-27c-8-36-38-93-48-93-5 0-8-5-8-10 0-14-38-67-67-96-13-12-23-26-23-31s-16-24-35-43-35-40-35-47-4-13-9-13c-10 0-34-38-47-72-3-10-10-18-14-18-5 0-11-14-15-30-4-17-11-30-17-30s-8-7-5-15c4-8 2-17-3-20-6-4-10-19-10-35s-5-32-11-35c-6-4-9-27-8-51 2-24 0-46-4-50s-7-20-7-36c0-15-4-28-9-28s-12-13-16-30c-4-16-11-30-16-30s-12-8-16-17c-9-26-54-73-70-73-8 0-16-6-19-14s-27-17-55-21c-27-4-51-11-55-16-7-12-81-11-89 1-3 6-17 10-30 10-48 0-165 75-165 106 0 7-5 14-11 16-5 2-13 22-16 46-3 23-10 42-14 42-5 0-9 13-9 28 0 16-9 37-20 47s-20 13-20 7c0-7-7-12-15-12s-16-8-16-17c-3-34 3-88 11-98 4-5 11-25 15-43 3-17 11-32 16-32s9-6 9-14c0-11 68-79 123-123 9-7 34-15 56-19 23-4 41-10 41-15 0-12 157-11 165 1 3 5 16 10 27 10 89 0 268 176 268 264 0 9 4 16 9 16s12 36 16 80 11 83 16 86 9 16 9 29c0 21 29 85 63 140 7 10 24 30 40 44 15 14 27 30 27 36s20 31 45 55 45 50 45 57 4 13 9 13c10 0 34 38 47 73 3 9 10 17 14 17 5 0 11 14 15 30 4 17 10 30 15 30s12 15 15 33c4 17 11 37 16 43 5 7 12 42 16 78 3 37 10 69 14 72 13 7 11 144-1 144-5 0-10 21-10 47 0 25-2 44-6 41-3-3-24 14-47 39-23 24-45 42-48 39z"/><path d="m1890 1610c0-5-7-10-15-10s-15-7-15-15-4-15-10-15c-7 0-10-162-10-465 0-452 1-466 20-485 25-25 42-25 64-1 15 16 16 63 16 491s-1 475-16 491c-19 21-34 25-34 9z"/><path d="m1670 1376c-14-18-20-226-12-429 5-135 6-138 29-143 16-4 31 0 43 11 28 25 31 559 4 569-26 10-51 7-64-8z"/><path d="m2090 1354c-33-10-40-54-40-258 1-206 2-213 43-245 15-12 20-11 37 4 30 27 31 462 2 488-10 10-20 16-23 16-2-1-11-3-19-5z"/><path d="m2300 1172c-69-22-67-130 2-144 33-6 78 34 78 70 0 45-44 86-80 74z"/><path d="m1523 1148c-7-13-15-31-19-40-3-10-10-18-15-18-17 0-9-44 12-66 40-42 107 15 96 82-10 60-52 83-74 42z"/></g><g transform="translate(0 256) scale(.1 -.1)" fill="var(--icon-stroke, #24324B)"><path d="m745 2239c-58-9-155-38-171-50-6-5-14-6-17-2-4 3-7 1-7-5 0-7-7-12-15-12s-15-4-15-10c0-5-10-12-22-15-37-10-179-161-194-207-4-10-11-18-16-18s-6-4-3-10c3-5 2-10-3-10-6 0-13-16-16-35-4-19-11-35-15-35-5 0-12-17-16-37-4-21-10-42-15-48-5-5-10-50-12-100-3-84-2-90 17-90 17 0 22 14 38 110 11 61 23 112 27 115s10 22 14 43c4 20 11 37 16 37 6 0 10 6 10 14s6 21 14 28c7 8 17 24 21 36 9 30 143 164 156 157 5-4 9-2 9 3s24 20 53 34c154 76 314 86 457 29 47-19 87-37 90-41s14-10 26-14c11-3 53-38 92-78 186-184 227-468 108-738-8-19-15-30-16-25 0 6-9-8-19-30-19-40-42-71-93-127-16-17-28-33-28-37 0-3-16-24-35-46s-38-45-43-51c-21-30-33-51-38-66-4-10-11-18-17-18s-7-3-4-7c4-3 3-11-2-17-10-13-38-134-45-199-13-115-137-277-212-277-12 0-24-4-26-9-1-6-30-10-63-11-82-2-97 0-110 9-5 5-24 12-41 15-17 4-41 16-53 27-11 11-21 17-21 14 0-2-9 3-20 12-11 10-20 21-20 26s-7 15-15 23c-8 9-15 24-15 35 0 10-4 19-9 19s-13 24-16 54c-5 35-13 57-22 61-25 9-43-14-37-48 3-18 6-40 8-49 1-10 5-21 9-24 4-4 7-16 7-26s5-18 10-18c6 0 10-6 10-13 0-19 99-119 138-140 75-39 295-43 318-5 3 5 10 6 15 3 5-4 9-1 9 4 0 6 6 11 14 11 49 0 185 199 186 272 1 46 36 188 45 181 4-4 5-3 1 4-12 22 110 213 137 213 6 0 8 3 4 6-5 5 16 31 68 88 96 103 176 358 160 510-4 39-8 83-9 99 0 15-4 27-8 27-5 0-8 11-8 25 0 93-173 322-286 380-22 11-40 23-42 28-2 4-10 7-17 7-8 0-26 5-42 12-30 12-37 14-128 28-69 11-119 11-190-1z"/><path d="m704 1895c-47-23-85-51-115-84-63-70-65-73-80-117-8-21-18-42-24-46-15-11-13-250 2-268 7-8 35-41 63-73 47-54 50-60 50-112 0-48-4-58-27-78-100-83-128-139-105-214 20-68 62-98 137-98 76 0 101 18 146 108 16 31 34 57 41 57 6 0 9 3 5 6-7 7 60 44 80 44 7 0 13 4 13 9s10 13 22 17c53 16 111 104 129 193 26 132-35 266-141 313-86 38-228 20-230-30 0-19 30-27 51-14 10 7 26 9 35 5 12-4 15-3 10 5-11 18 36 15 86-4 94-37 138-105 138-216 0-115-39-175-148-230-65-33-122-82-122-105 0-7-4-13-10-13-5 0-9-3-8-7 4-13-23-56-46-75-68-56-169 31-136 118 12 29 42 64 58 64 12 0 62 54 62 68 0 7 4 12 9 12 13 0 10 132-3 149-6 8-30 33-53 57-65 66-76 94-71 188 3 77 31 163 67 208 52 66 86 98 112 103 16 4 29 10 29 15 0 15 111 32 164 26 58-8 141-43 169-72 68-72 97-133 104-222 6-66 15-81 37-62 15 12 27 90 14 90-5 0-8 13-8 29 0 65-64 171-132 217-23 16-45 31-48 34-18 18-118 40-181 40-64 0-84-5-145-35z"/></g></svg>
