<svg fill-rule="evenodd" stroke-linecap="round" stroke-linejoin="round" viewBox="0 0 256 256" xmlns="http://www.w3.org/2000/svg"><g transform="translate(0 256) scale(.1 -.1)" fill="var(--icon-yellow, #FFD85A)"><path d="m2e3 1510c-19-17-46-42-60-55-14-14-30-25-36-25-16 0-84-74-84-91 0-9 11-26 25-39s25-18 25-12c0 7 5 12 11 12 10 0 35 19 126 100 12 11 26 20 31 20 4 0 26 18 47 40 32 33 38 44 29 58-19 30-74 26-114-8z"/><path d="m2e3 1135-24-25 22-22c31-32 184-28 220 5l22 21-22 23c-24 25-58 30-88 11-16-10-24-10-40 0-31 19-64 14-90-13z"/></g><g transform="translate(0 256) scale(.1 -.1)" fill="var(--icon-orange, #FFB84D)"><path d="m2e3 1510c-19-17-46-42-60-55-14-14-30-25-36-25-15 0-84-74-84-90 1-22 42-68 47-52 3 6 9 12 15 12 9 0 34 20 125 100 12 11 26 20 31 20 4 0 26 18 47 40 32 33 38 44 29 58-19 30-74 26-114-8z"/><path d="m1893 1146c-54-26-18-83 49-78 10 0 20-3 23-9 8-11 72-12 79 0 3 5 49 9 101 10 112 2 125 6 125 35 0 40-79 69-120 44-16-10-24-10-40 0-25 15-186 14-217-2z"/><path d="m1858 905c-10-13-18-30-18-38 0-15 31-47 46-47 5 0 24-16 43-35s38-35 43-35 22-16 39-35c34-38 89-55 113-35 22 17 14 63-13 76-12 6-37 26-55 43-17 17-35 31-39 31-3 0-20 13-36 29s-43 35-60 42c-17 8-31 17-31 21 0 15-15 7-32-17z"/></g><g transform="translate(0 256) scale(.1 -.1)" fill="var(--icon-skin, #F0D8C0)"><path d="m890 2370c0-5-15-10-34-10s-38-5-41-10c-4-6-10-8-15-5s-17 2-27-4c-10-5-44-21-75-37-32-16-58-32-58-36s-6-8-13-8c-8 0-24-11-37-25s-28-25-35-25c-6 0-32-22-59-49-44-45-63-70-82-111-4-8-16-22-26-31s-18-20-18-24-6-21-14-38c-21-47-30-71-31-82-4-27-19-71-27-82-17-21-5-175 15-187 28-18 52 4 55 53 2 22 7 41 13 41 5 0 9 18 9 39 0 22 4 42 9 45 4 3 6 16 4 30-3 13 0 27 6 30 6 4 11 18 11 32 0 13 4 24 9 24 8 0 21 28 25 53 0 5 9 14 19 21 9 7 17 18 17 23s11 20 25 33 25 29 25 35c0 14 52 65 66 65 6 0 21 11 34 25s29 25 37 25c7 0 13 3 13 8 0 8 73 42 90 42 6 0 10 5 10 10 0 6 11 10 23 10 13 0 27 3 31 7 11 11 36 15 149 20 104 5 107 6 92 23-10 11-14 23-11 29 4 5 2 12-3 16-6 3-8 12-4 20 4 13-10 15-86 15-54 0-91-4-91-10z"/><path d="m1440 2143c0-6 16-25 35-42s35-35 35-40c0-14 18-23 24-13 3 5-17 31-44 57-28 27-50 44-50 38z"/><path d="m707 2102c-5-7-14-12-20-11-20 3-47-12-47-27 0-8 4-14 9-14s11-9 14-21 10-18 17-14c6 4 17 1 25-5 13-10 15-8 15 14 0 14 5 26 10 26 6 0 10 7 10 15s-4 15-9 15-11 8-13 18c-3 13-5 14-11 4z"/><path d="m1440 2080c0-11-4-20-10-20-5 0-10 5-10 12 0 6-10 2-22-9-13-11-31-23-40-26-11-4-18-17-18-32 0-16-6-25-15-25-20 0-19-12 3-31 28-24 122 44 122 90 0 18 4 21 21 16 20-7 20-6-2 19-27 31-29 32-29 6z"/><path d="m935 2e3c-4-6-13-8-21-5-7 3-16 1-19-4-4-6-17-10-31-10-13 0-24-4-24-9s-8-11-17-15c-40-13-120-80-134-111-10-23-31-58-40-65-8-8-39-77-39-89 0-6-4-11-10-11-5 0-10-18-10-39 0-22-4-43-10-46-13-8-13-152 0-160 5-3 10-19 10-34 0-28 35-71 58-71 7 0 12-10 12-23s13-36 30-52c21-20 30-38 30-59 0-23 6-34 23-41 27-12 34-54 16-107-10-30-15-36-26-26-7 6-14 9-16 7-37-64-37-96-2-105 27-7 32-18 13-30-6-4-14-2-16 4-9 27-22 9-22-28 0-22 5-40 10-40 6 0 10-5 10-12 0-6 7-20 17-30 9-10 13-21 9-25-12-13-41 13-44 41-2 14-8 26-13 26s-9 7-9 15c0 10-10 15-30 15-37 0-37-10-4-69 58-101 123-133 194-96 48 25 124 104 145 153 15 32 22 39 32 31 10-9 13-7 13 7 0 11 12 30 25 43 14 13 25 29 25 35 0 7 11 23 25 36s25 29 25 36c0 6 7 14 15 18 8 3 15 11 15 19 0 7 23 35 50 62 28 27 50 54 50 61 0 6 7 17 16 24 8 8 23 30 33 51 19 38 19 38-5 60s-34 79-14 79c6 0 10-12 10-26 0-80 89-60 106 24 4 18 11 35 15 38 5 3 9 23 9 44s4 41 9 44c11 7 11 105 0 112-5 3-9 18-9 34 0 31-14 47-25 30-5-8-11-7-21 1-7 6-12 15-9 19 3 5 1 20-5 35-7 20-7 31 1 41 13 15-51 104-74 104-7 0-18 9-24 19-17 27-110 68-140 63-6-2-14 2-18 8-8 13-162 13-170-1zm135-89c0-5 16-10 35-10s35-4 35-9 13-12 29-16c30-6 58-31 48-41-3-3-27 7-54 22-44 26-56 28-155 28-59 0-105 3-102 8 3 4 18 8 34 8s32 5 35 10c3 6 26 10 51 10 24 0 44-4 44-10zm-260-90c0-5-4-10-9-10s-11-8-15-17c-11-35-53-89-62-81-6 7 29 68 39 68 4 0 7 6 7 13 0 14 20 37 32 37 4 0 8-4 8-10zm478-55c-9-9-48 27-48 44 0 11 8 7 27-11 15-15 24-30 21-33zm22-27c0-7 3-30 6-50 4-21 3-38-2-38-10 0-33 87-26 95 10 9 22 5 22-7zm-420-147c0-5 11-12 25-15 24-6 36-36 15-36-5 0-10 5-10 10 0 6-7 10-15 10s-15 5-15 10c0 6-9 10-21 10-11 0-17 5-14 10 8 12 35 13 35 1zm112-78c21-20 38-43 38-50s5-13 10-13c6 0 10-9 10-19 0-11 5-23 10-26 6-4 8-11 5-16-11-17-23-9-30 18-6 25-30 61-75 110-43 48-18 44 32-4zm-92-73c17-17 30-35 30-41 0-15-68 43-69 59-1 19 7 15 39-18zm16-492c0-39-6-63-13-65-14-5-19 117-7 130 15 15 22-7 20-65zm114 27c0-14-4-25-10-25-5 0-10 11-10 25s5 25 10 25c6 0 10-11 10-25z"/><path d="m1607 1933c-6-11 16-139 26-149 4-4 7-48 7-97 0-78 2-88 15-77 8 7 15 19 15 28 0 8 7 24 17 34 15 17 15 19 0 36-20 21-22 53-6 69 18 18-10 108-42 139-15 14-29 22-32 17z"/><path d="m1570 1858c0-16-5-28-10-28-6 0-23-11-38-25s-32-25-39-25-13-10-13-21c0-18-2-19-15-9-12 10-15 10-15-3 0-9 5-19 10-22 6-3 11-34 11-68 1-34 4-50 6-34 4 25 23 39 23 16 0-6 19-9 48-7s47 8 47 16c0 6 5 11 10 10 6-2 9-11 8-20-2-10 2-18 7-18 13 0 13 137 0 145-5 3-10 23-10 44 0 20-7 46-15 57-14 18-14 18-15-8z"/><path d="m564 1725c-3-20-4-39 0-42 3-4 6 6 6 20 0 15 5 27 10 27 6 0 10 7 10 15 0 30-19 14-26-20z"/><path d="m1640 1541c0-17-4-31-9-31s-11-23-15-51c-6-46-21-86-37-99-3-3-9-20-12-39-4-18-17-42-29-53-19-17-20-20-7-34 14-13 20-10 57 30 23 25 42 52 42 59 0 18 36 51 48 43 11-7 22 16 22 45 0 10 5 19 10 19 6 0 10 15 10 34s5 36 12 38c22 8-21 44-62 52-3 1-11 5-17 9-10 6-13 0-13-22z"/><path d="m1413 1433c-15-31-10-41 12-23 12 10 15 10 15-4 0-9-4-16-10-16-5 0-10-9-10-20 0-16 7-20 35-20 19 0 35-4 35-10 0-5 7-10 15-10s15-7 15-15c0-27 18-16 25 15 4 16 11 32 16 35 16 10 10 41-11 60-19 18-90 27-90 13 0-5-4-8-10-8-5 0-10 7-10 15 0 23-14 17-27-12z"/><path d="m1252 1218c-17-17-15-38 4-38 10 0 14-6 10-15-4-10 1-15 15-15 11 0 22-8 25-17 3-10 10-25 15-33s12-23 16-33c5-16 8-16 34 9 16 15 29 32 29 37s9 18 21 28c23 20 18 39-12 39-11 0-19 7-19 16 0 11-5 14-16 10-10-4-25 1-35 10-15 14-21 14-34 4-11-9-19-10-28-1-10 8-17 7-25-1z"/><path d="m1462 1157c-12-13-22-26-22-30 0-3-17-24-37-47-74-79-121-140-140-180-3-8-9-17-13-20-10-9-40-77-40-93 0-9-4-19-10-22-5-3-10-24-10-45s-5-42-10-45c-6-4-10-12-8-18 6-37-17-135-47-191-24-47-30-66-21-69 14-6 96 71 96 89 0 6 16 28 35 50 30 34 35 46 35 91 0 28 4 54 9 57 4 3 11 25 14 50 6 42 51 137 69 144 4 2 8 9 8 16s16 27 35 46 35 38 35 43 16 27 36 49c27 31 33 42 24 53-9 10-7 20 6 39 13 21 14 29 4 41-17 20-23 19-48-8z"/><path d="m1152 968c-7-7-12-24-12-39s-5-31-11-35c-6-3-7-9-3-13 12-8 33-42 40-63 9-26 21-22 29 10 3 15 15 36 25 47 29 32 32 59 11 83-20 24-60 29-79 10z"/><path d="m1140 636c0-26-23-41-65-45-10-1-15-12-15-35 0-19-5-38-10-41-14-8 6-35 25-35 8 0 16-8 18-17 4-17 5-17 6 0 0 9 6 17 11 17 6 0 10 10 10 23s4 27 9 33c11 11 26 124 17 124-3 0-6-11-6-24z"/></g><g transform="translate(0 256) scale(.1 -.1)" fill="var(--icon-slate, #606078)"><path d="m970 2372c0-4 5-13 12-20s8-12 4-12c-5 0-3-6 3-14s10-20 9-27c-2-11 15-15 72-17 41-1 82-5 90-9 8-3 20-7 25-8 13-2 46-14 67-26 10-5 26-9 37-9s32-10 48-22c30-24 60-44 80-54 17-8 93-85 93-93 0-4 11-18 24-31 14-12 28-35 31-51 4-16 10-29 13-29 13 0 33-57 39-109 3-28 10-54 14-57 15-9 11-272-3-277-10-3-10-7 0-20 8-9 19-14 27-11 19 8 29-14 14-32-6-8-14-12-17-9-8 8-62-46-62-62 0-7-4-13-9-13-4 0-11-16-14-36s-14-43-25-52c-10-10-22-24-26-32-16-34-35-62-56-85-13-14-20-25-15-25s-2-11-14-24c-15-16-19-26-11-31 6-4 8-15 5-24-12-40 23-46 60-11 19 19 35 38 35 42 0 5 10 19 23 31 24 24 42 50 56 84 6 11 14 24 20 28 17 10 71 127 77 168 4 20 10 37 15 37s9 16 9 35 5 35 10 35c6 0 10 58 10 155s-4 155-10 155c-5 0-10 16-10 35s-4 35-9 35-11 18-15 40c-3 22-10 40-14 40-6 0-42 72-42 85s-161 185-172 185c-5 0-19 11-32 25s-26 25-30 25c-14 0-86 35-86 42 0 5-11 8-24 8-14 0-27 4-31 10-3 5-12 7-19 4-8-3-17-1-21 5-3 6-19 11-35 11s-32 5-35 10c-7 12-185 14-185 2z"/><path d="m1175 2e3c-11-12-13-20-5-25 6-4 8-15 5-25-4-12 6-27 31-49 27-24 33-35 25-45-8-9-3-20 19-41 21-20 27-32 20-40s-4-18 11-31c20-18 20-18 10 8-9 25-6 38 10 38 4 0 11-24 14-54 5-42 14-61 36-82 16-15 29-24 29-19 0 4 8 1 19-9 14-13 20-14 28-4 13 17 14 56 2 63-5 4-9 19-9 35s-4 32-10 35c-5 3-10 13-10 22 0 40-87 173-113 173-7 0-18 9-24 19-22 35-69 52-88 31zm113-195c-9-9-48 27-48 44 0 11 8 7 27-11 15-15 24-30 21-33z"/><path d="m1576 1855c8-37 24-57 24-29 0 11-7 29-15 40-14 18-15 17-9-11z"/><path d="m1592 1737c1-38 6-71 11-74 4-2 5-13 2-24-4-11-2-19 4-19 17 0 13 123-4 156-15 28-16 27-13-39z"/><path d="m1440 1748c0-8 4-18 9-23 5-6 11-21 14-35 3-19 5-16 6 11 0 22-5 42-14 49-12 10-15 10-15-2z"/><path d="m829 1676c-1-3-2-12-3-18-1-7-7-12-13-11-7 2-21-10-32-26l-21-29 35-31c20-17 42-31 50-31s15-8 15-17c0-14 2-15 9-4s15 7 40-18c41-42 40-63-1-25l-33 29 29-32c16-18 32-31 36-30s19-13 35-31l28-33 27 26c36 34 27 66-36 142-24 28-44 57-44 65 0 10-3 9-11-2s-12-12-16-2c-2 6-11 12-19 12s-14 4-14 9-10 11-22 14c-21 3-21 4-4 12 10 4 21 4 25-2 8-13 44-26 36-13s-65 43-65 34c0-4-7-1-15 6s-16 10-16 6z"/><path d="m1e3 1549c12-14 22-31 22-37 0-7 5-12 10-12 6 0 10-9 10-19 0-20 17-37 26-28 8 7-40 79-67 102l-24 20 23-26z"/><path d="m734 1312c-21-18-24-112-3-112 12 0 12-97 0-105-25-15-42-68-27-83 13-13 22-8 77 38l61 54-4 73c-3 41-1 76 4 79 13 8-52 74-71 74-9 0-25-8-37-18z"/><path d="m948 1113c-24-26-26-33-21-98 4-67 4-71-25-98-19-19-28-35-25-47 3-11-4-31-16-46-11-14-18-30-15-35 9-15-23-10-36 6-7 8-22 15-35 15-16 0-29 13-50 52-17 31-30 47-33 38-3-8 0-16 7-18 6-2 11-9 11-15s7-19 17-29c9-10 13-21 9-25-12-13-41 13-44 41-2 14-8 26-13 26s-9 7-9 16c0 23-60 14-74-11-6-11-15-23-21-27-6-5-5-8 3-8 6 0 12-10 12-23 0-37 90-114 127-108 6 1 14-3 18-9 8-12 82-13 89-1 3 4 20 11 38 15 34 7 108 71 108 93 0 7 4 13 9 13s12 13 16 30c4 16 11 32 16 35 5 4 9 18 9 33s9 35 20 45c21 18 27 52 10 62-5 3-10-3-10-14 0-12-5-21-11-21-8 0-9 14-5 43 6 38 4 46-22 70l-28 27-26-27z"/><path d="m887 1e3c-11-10-8-51 3-58 6-4 10 8 10 29 0 37-2 41-13 29z"/><path d="m930 738c-19-13-43-27-52-31-10-3-18-11-18-17 0-14 13-13 29 3 11 10 14 10 18 0 7-19 63-17 63 2 0 8 7 15 15 15s15 5 15 10c0 6-6 10-14 10s-16 7-18 16c-2 13-8 12-38-8z"/><path d="m1204 578c-26-29-61-78-76-108-16-30-50-77-76-103-42-44-63-58-112-75-13-5-219-7-263-3-10 1-23 11-30 22-6 10-17 19-22 19-15 0-85 73-85 88 0 7-4 12-9 12-8 0-23 32-25 57-1 6-5 15-9 19s-7 23-7 43c0 48-39 70-76 43-24-18-33-65-14-77 6-3 10-17 10-31 0-28 31-104 42-104 5 0 8-6 8-13 0-16 121-137 138-137 6 0 12-4 12-10 0-5 18-13 40-16 22-4 40-10 40-15s52-9 115-9 115 4 115 9 12 11 28 14c55 11 61 13 80 30 10 9 23 17 28 17s36 26 68 59c54 54 75 83 92 121 3 8 12 29 20 47 8 17 14 42 14 56s5 29 10 32c12 8 13 65 1 65-4 0-30-24-57-52z"/></g><g transform="translate(0 256) scale(.1 -.1)" fill="var(--icon-stroke, #24324B)"><path d="m875 2348c-16-5-52-16-80-24-75-23-114-42-185-92-60-43-170-148-170-164 0-4-6-13-13-20-18-19-67-117-67-135 0-8-5-11-11-7-7 4-10 1-7-7s-1-32-9-54c-19-54-41-205-31-211 5-3 5-10 2-16-4-6-2-8 4-4 6 3 14 1 17-5 13-20 32 25 40 91 14 129 69 266 138 343 18 19 37 43 43 53s18 22 28 28 33 25 51 42c41 38 147 90 235 115 139 40 391 11 460-53 11-10 20-16 20-13 0 15 93-57 153-119 67-70 128-173 131-221 0-13 4-21 7-19 24 15 36-276 15-359-24-95-98-264-125-287-3-3-20-23-36-45s-37-49-47-60c-94-112-146-180-163-212-11-21-22-40-26-43-17-14-33-83-60-250-11-68-48-157-83-198-40-48-89-91-98-86-4 3-8-1-8-8 0-25-92-48-194-48-54 0-95 4-92 9s-6 8-20 8c-15 0-29 5-33 11-3 5-9 9-13 9-3-1-23 12-44 28-78 62-103 101-125 190-19 81-21 84-48 74-22-9-23-13-16-62 4-28 8-60 8-69 1-10 5-18 9-18s8-7 8-15 3-15 8-15c4 0 13-14 20-30 20-44 104-124 154-144 24-10 53-23 65-29 34-16 227-14 247 2 9 7 22 11 30 8s16-3 18 1 23 20 48 34c53 31 175 148 155 148-3 0 4 15 14 34 24 42 51 146 51 195 0 63 64 233 102 272 8 8 30 36 50 62 20 27 57 71 82 99 26 27 46 53 46 57s8 16 18 27c31 34 100 149 114 192 8 23 18 39 22 35s4 1 0 10c-4 10-2 28 4 40 41 88 42 377 2 457-4 9-11 31-15 50s-10 37-14 40c-3 3-15 21-25 40-70 127-267 300-341 300-8 0-15 4-15 8s-10 9-22 9c-13 1-24 6-26 11-1 5-15 7-31 4-16-2-32 1-35 7-9 14-248 13-291-1zm413-63c-6-6-88 19-88 26 0 4 20 1 46-8 25-8 44-17 42-18zm-488 11c0-6-112-57-117-53-2 3 20 16 48 31 50 25 69 31 69 22zm-135-65c-10-17-125-101-125-93 0 13 102 93 128 101 2 1 1-3-3-8zm849-101c57-59 95-108 112-144 34-74 74-238 73-295-1-37-4-28-15 44-30 194-116 348-258 463-24 19-32 29-19 26 11-3 59-45 107-94zm-1085-154c-21-35-29-44-29-28 0 12 41 74 46 69 3-2-5-21-17-41zm1249-501c-5-28-15-54-20-60-7-7-8-3-5 10 3 11 11 40 17 64 15 58 21 48 8-14zm-93-233c-31-59-96-140-84-105 6 18 114 181 117 178 2-2-13-35-33-73zm-173-229c-36-50-94-110-81-84 11 23 87 111 96 111 2 0-5-12-15-27zm-172-313c-10-41-18-63-19-49-1 26 28 134 34 127 2-1-5-37-15-78zm-766-252c8-18 25-49 38-67 12-19 17-31 10-27-13 8-72 105-72 119 0 16 11 5 24-25zm688-30c-36-62-82-111-135-145-61-39-65-21-4 19 57 38 113 100 141 156 10 19 20 31 23 29 3-3-9-30-25-59zm-413-184c15-14-15-14-46 0l-38 16 40-6c22-4 42-8 44-10z"/><path d="m922 2e3c-13-5-28-7-33-3-5 3-9 0-9-5 0-6-7-11-15-11-38 0-166-106-179-147-4-13-12-23-17-23s-9-7-9-15-4-15-10-15c-5 0-10-9-10-20s-4-20-10-20c-5 0-7-6-4-14s1-17-5-21c-6-3-11-19-11-36 0-16-3-29-7-29-5 0-9-47-9-105-1-58 3-105 7-105 5 0 9-8 9-19 0-39 50-51 64-15 3 8-1 30-8 49-19 45 11 76 81 82 125 12 220-65 243-198 10-60 9-70-20-164-24-78-30-116-29-175 2-124-27-181-115-227-56-29-166 17-166 71 0 26-25 37-47 19-17-14-18-20-8-51 15-42 76-102 104-102 12 0 21-3 21-7 0-10 93-11 100-1 3 3 14 8 25 10 25 4 115 93 115 114 0 9 5 12 11 8 7-4 10-1 7 7s-2 21 3 30 10 59 12 110c3 66 13 119 32 179 34 108 31 195-10 283-62 130-211 196-344 152-23-8-24-7-17 31 19 105 89 234 127 234 7 0 9 3 6 7-4 3 8 17 27 29 166 113 395 61 494-114 36-64 37-289 1-326-15-17-10-66 8-73 52-20 106 188 79 307-20 84-39 140-48 140-5 0-8 6-8 13 0 17-73 97-88 97-7 0-12 3-12 8 0 10-54 37-113 56-52 17-178 20-215 5zm38-28c-14-4-38-11-55-14l-30-7 25 15c14 8 39 14 55 14 29-1 29-1 5-8zm225-20c22-10 47-26 55-36 12-15-100 33-119 51-12 11 29 1 64-15zm-446-116c-43-57-49-62-49-45 0 10 78 100 87 100 2 0-15-25-38-55zm612-47c11-21 22-59 24-85l6-48-25 68c-13 37-31 79-40 92-45 70-49 81-16 45 17-19 40-52 51-72zm-701-244c0-21-4-33-10-29-5 3-10 22-10 41 0 21 4 33 10 29 6-3 10-22 10-41zm233 7c38-15 86-61 107-102 30-58 23-70-10-17-31 49-73 86-136 119-40 21-16 21 39 0zm475-114c-11-34-28-51-28-27 0 15 30 73 35 68 3-2-1-21-7-41zm-376-464c1-89-22-151-70-195-24-22-22-9 3 22 31 38 51 123 54 229 2 66 11 23 13-56zm-298-207c26-23 60-36 92-36 14 0 22-4 19-10-26-41-165 43-165 99l1 26 16-30c9-16 25-38 37-49z"/><path d="m743 1254c-3-8-1-26 6-40 22-50 0-164-31-164-5 0-8-6-8-14s-6-16-12-19c-17-6 21-38 42-34 24 3 79 125 80 175 0 59-23 112-50 112-11 0-23-7-27-16zm46-93-2-66-7 55c-4 30-11 66-16 80-7 23-6 24 9 11 13-10 17-29 16-80z"/></g></svg>
