<svg fill-rule="evenodd" stroke-linecap="round" stroke-linejoin="round" viewBox="0 0 256 256" xmlns="http://www.w3.org/2000/svg"><g transform="translate(0 256) scale(.1 -.1)" fill="var(--icon-yellow, #FFD85A)"><path d="m1451 2e3c-12-15-21-35-21-45s-4-20-9-23c-8-6-19-48-27-111-2-20 3-36 18-52 25-27 38-16 38 30 0 15 5 27 11 27s9 7 6 15c-4 8-2 17 3 20 4 3 11 23 15 45s10 40 15 40c18 0 22 54 4 67-25 18-30 17-53-13z"/><path d="m2e3 2e3c-8-9-13-24-11-34 2-9-2-20-8-24-5-3-10-16-10-28-1-26-39-107-61-129-8-8-33-21-54-29-22-7-44-16-50-20-5-3-22-9-37-13-45-11-28-75 20-76 64-1 168-84 177-141 4-22 10-39 15-39 4 0 10-23 12-51 6-54 21-72 53-63 27 9 24 3 36 75 10 69 32 120 64 153 25 26 103 65 131 66 55 1 71 66 19 76-19 3-35 10-35 14s-16 11-35 14c-71 14-121 82-145 196-14 70-49 93-81 53z"/><path d="m1700 1355c-11-13-3-25 46-73 32-31 57-62 56-68-1-5 14-25 33-44s35-38 35-43 16-28 35-51c35-44 43-74 25-92-7-7-4-19 10-37 22-28 40-35 40-16 0 6 9 22 20 36s20 36 20 48-9 34-20 48-20 30-20 35c0 13-203 225-240 252-25 17-29 18-40 5z"/></g><g transform="translate(0 256) scale(.1 -.1)" fill="var(--icon-blue, #5EC8F8)"><path d="m1e3 2094c-21-24-10-269 13-292 13-13 20-14 34-6 20 13 31 209 12 228-5 5-10 21-10 34s-6 30-14 38c-18 17-18 17-35-2z"/><path d="m573 2e3c-3-8 6-39 21-69 14-30 26-58 26-64 0-5 3-11 8-13 4-1 18-25 32-52 14-26 31-51 38-53 19-8 61 35 45 45-6 4-15 20-18 35-4 15-10 27-14 27s-13 17-20 38c-33 94-51 122-82 122-18 0-32-6-36-16z"/><path d="m1405 1906c-4-20-12-36-18-36s-7-3-4-7c4-3 3-11-2-17-28-36-12-96 25-96 43 0 65 136 28 171l-23 21-6-36z"/><path d="m955 1573c-16-3-34-8-40-12-5-5-39-14-75-21-36-8-76-20-90-27s-33-13-42-13c-10 0-18-4-18-8 0-5-18-15-40-22s-40-17-40-22c0-4-5-8-12-8-6 0-26-11-44-25s-38-25-44-25c-17 0-290-275-290-292 0-8-9-23-20-33-25-23-25-63 0-95 11-14 20-30 20-37 0-6 13-23 30-36 16-14 30-30 30-35 0-14 201-202 216-202 7 0 14-3 16-7 4-10 72-53 123-78 22-11 43-24 46-28s29-11 57-16c46-7 54-6 73 15 21 23 21 24 3 30-10 3-28 10-39 14-11 5-37 14-57 21-21 7-38 16-38 20s-14 10-30 14-30 11-30 16-15 15-32 24c-45 20-67 35-99 68-16 15-32 27-37 27-8 0-78 73-140 145-64 74-72 114-31 143 11 7 19 19 19 25 0 16 181 197 197 197 6 0 13 3 15 8 5 12 76 62 87 62 6 0 11 4 11 8s17 14 38 21c20 8 39 17 42 20 9 11 74 40 105 47 17 3 41 13 54 21 14 9 59 18 107 21 46 2 84 9 84 13 0 12 137 12 144 0 3-5 37-12 76-16 38-4 70-10 70-14s25-13 56-20c49-11 109-36 124-51 3-3 16-11 30-18 79-41 97-52 109-66 8-9 19-16 26-16s15-7 19-15c3-8 11-15 18-15s38-26 70-57c52-52 59-56 73-42s11 21-34 69c-28 29-48 57-46 61 8 12-84 81-152 114-18 8-33 19-33 24 0 4-18 14-40 21s-40 17-40 22c0 4-7 8-16 8-8 0-35 9-59 20-25 11-66 23-92 27-27 3-54 11-61 16-14 11-273 19-327 10z"/><path d="m965 1428c-22-6-54-21-72-34-17-13-36-24-40-24-12 0-82-72-98-102-68-119-70-127-70-253 0-95 4-126 18-150 9-16 17-34 17-38 0-39 169-197 211-197 8 0 21-6 28-12 8-9 50-13 139-12 135 0 128-2 241 65 55 32 105 93 148 179 26 51 28 64 28 170 0 120-3 131-69 248-20 35-78 92-93 92-8 0-16 6-19 14s-19 18-35 21c-16 4-29 10-29 15 0 26-220 39-305 18zm306-249c30-30 7-72-41-77-58-6-78 33-38 75 27 29 52 29 79 2zm-158-30c-7-26 81-119 113-119 19 0 21-4 14-37-21-108-103-150-210-107-102 41-102 236 0 271 58 20 89 17 83-8z"/><path d="m1940 1e3c0-17-7-36-15-43s-15-18-15-26c0-7-9-18-20-24s-20-16-20-23c0-15-141-157-157-157-7 0-17-9-23-20s-15-20-21-20-25-11-43-25c-45-35-117-71-154-80-18-3-32-11-32-16s-10-9-22-9h-21l23-25c17-18 29-23 44-18 12 3 30 6 41 5 10-1 33 9 50 22 16 12 46 28 65 36s39 20 43 27 15 13 23 13 75 60 149 133c164 162 186 203 133 254l-28 27v-31z"/></g><g transform="translate(0 256) scale(.1 -.1)" fill="var(--icon-slate, #606078)"><path d="m1491 601c-7-5-22-6-32-4-10 3-19 1-19-4 0-6-28-16-62-23-35-7-69-18-77-24-19-15-379-15-389 0-4 6-35 17-70 24-34 7-65 17-68 22s-11 4-19-2c-10-8-15-8-20 0s-15 4-31-11c-32-30-30-36 9-44 17-4 43-13 57-20 30-16 109-35 144-35 14 0 26-4 26-10 0-12 322-14 335-1 6 4 39 14 75 21 36 6 70 15 75 19 6 4 30 14 55 21 75 23 94 39 74 61-18 20-41 24-63 10z"/></g><g transform="translate(0 256) scale(.1 -.1)" fill="var(--icon-stroke, #24324B)"><path d="m1e3 2083c-5-10-8-21-7-25s2-56 3-117c1-91 4-112 18-126 32-28 39 0 31 134-8 126-26 179-45 134z"/><path d="m1450 2e3c-11-24-20-49-20-55 0-7-4-13-9-13-6 0-10-8-9-17 0-10-9-44-20-75-18-49-18-58-6-69 21-17 40 4 55 62 7 27 17 49 21 49 5 0 7 4 4 8-2 4 4 35 15 67 29 89 5 122-31 43z"/><path d="m593 2e3c-12-15-13-48-2-48 7 0 33-60 30-72 0-5 3-8 8-8s12-13 16-30c4-16 11-30 17-30s8-3 5-7c-9-9 23-43 40-43 25 0 24 26-1 75-15 26-26 56-26 66 0 9-4 19-8 21s-17 21-28 42c-23 44-36 53-51 34z"/><path d="m2054 1943c-25-111-41-151-78-192-24-26-63-45-86-42-8 2-11-1-7-5 5-5-11-14-35-19-66-16-59-42 19-70 117-42 169-104 180-214 8-68 24-89 53-68 11 7 17 16 15 19-3 3 2 38 11 78 19 84 82 161 143 175 30 6 58 18 88 38 22 14 2 35-38 42-21 4-39 11-39 16s-3 8-7 7c-15-4-53 13-53 23 0 6-4 8-9 4-24-14-118 181-97 202 8 8-21 33-38 33-9 0-18-12-22-27zm112-224c21-21 50-41 65-44 40-9 45-23 12-36-68-26-127-98-147-182-7-30-26-28-26 4 0 57-65 137-137 169-53 23-53 26-3 46s96 72 127 143l24 55 24-59c13-32 41-75 61-96z"/><path d="m954 1561c-10-11-108-32-142-32-13 1-21-3-18-8s-9-12-27-15-51-15-72-26c-22-11-45-20-52-20s-13-4-13-8c0-8-27-24-55-32-5-2-15-8-22-14-27-24-40-34-59-44-32-17-164-144-210-202-56-70-55-69-83-108l-23-32 23-38c13-20 25-39 29-42 3-3 25-30 50-60 61-75 128-140 203-195 34-25 70-53 80-61 9-8 19-14 21-14s46-20 98-45c51-25 100-45 109-45s19-3 23-7c3-4 14-8 24-9 9-2 55-10 102-18 157-28 292-20 455 29 44 13 84 23 88 22s11 3 15 8c4 6 42 28 86 50 43 22 90 50 105 62 14 13 30 23 35 23 11 0 226 218 226 230 0 4 7 15 15 24 43 42 46 126 7 156-4 3-20 23-36 45-32 44-203 215-214 215-6 0-34 21-82 62-8 7-17 12-20 12-10-2-50 19-50 28 0 4-3 7-7 6-5-1-21 4-36 10-16 7-33 12-38 12s-9 4-9 9-16 12-35 15c-19 4-35 10-35 14s-8 8-17 9c-10 1-47 9-83 19-72 18-340 30-356 15zm314-56c270-61 463-187 639-413l57-73-19-31c-19-33-27-43-89-117-106-125-270-240-428-299-226-84-461-78-683 17-65 28-159 78-176 94-10 10-19 15-19 11 0-27-236 203-282 275-37 59-38 55 43 152 99 117 175 187 248 229 14 8 28 18 31 22 8 10 140 74 192 94 176 65 323 77 486 39z"/><path d="m1e3 1428c-33-4-66-8-72-9-7-1-13-6-13-11 0-4-7-8-15-8-36 0-113-66-195-167-5-7-15-32-22-57-7-26-15-46-19-46s-7-52-7-115 4-115 8-115 11-16 14-35c4-19 11-35 16-35s12-10 16-22c23-72 153-164 268-188 55-11 186-10 186 1 0 4 18 9 40 13 22 3 40 10 40 15s11 12 26 15c60 15 184 180 184 245 0 12 4 20 9 17s9 42 9 99c0 59-4 102-9 99s-9 4-9 15-5 32-11 48c-6 15-9 28-7 28 9 1-122 137-153 160-60 44-182 67-284 53zm223-72c284-146 274-539-17-675-84-39-212-37-296 4-179 86-258 294-185 480 30 78 125 174 201 204 81 32 223 26 297-13z"/><path d="m1e3 1210c-170-51-178-296-13-371 145-66 310 85 261 239-7 22-36 31-36 12 0-18-39-11-65 12-29 25-31 45-10 75 14 20 13 22-17 32-35 13-81 13-120 1z"/></g></svg>
