<svg fill-rule="evenodd" stroke-linecap="round" stroke-linejoin="round" viewBox="0 0 256 256" xmlns="http://www.w3.org/2000/svg"><g transform="translate(0 256) scale(.1 -.1)" fill="var(--icon-coral, #FF8A65)"><path d="m1152 2368c-9-9-8-16 5-30 15-17 15-20-6-42-16-17-21-31-16-45 11-36-6-203-20-197-8 3-15-9-19-35-4-22-10-48-15-57-19-35-41-90-41-101 0-6-4-11-9-11s-11-8-15-17c-8-25-28-55-48-74-10-9-18-21-18-26 0-6-6-16-14-22-8-7-18-26-21-42-9-38-23-45-35-17-25 54-86 128-107 128-5 0-18 9-28 20-42 47-85 19-85-56 0-29-4-56-10-59-5-3-10-16-10-29 0-31-67-163-100-196-30-30-100-164-100-191 0-9-4-19-10-21-10-3-31-94-23-102 2-2 6-89 8-192 4-230 4-224 16-224 5 0 9-8 9-18 0-17 42-106 73-156 7-11 26-34 43-50 17-17 33-39 37-49 4-9 15-20 24-24 10-4 35-23 55-42 53-50 89-77 118-86 14-4 27-11 30-14 7-10 76-41 89-41 6 0 20-5 30-12 24-14 59 8 41 26-7 7-3 17 12 33l22 23-36 38c-103 107-135 307-78 482 25 74 67 153 79 146 14-9 161 160 149 172-7 7 6 23 44 52 111 88 122 89 131 8 9-71 34-144 67-193 43-63 125-135 154-135 32 0 68-38 96-104 12-28 26-59 31-68 11-23 11-141 0-191-5-21-26-58-48-82-21-24-50-59-65-78l-27-34 22-21 21-22-27-28c-35-37-34-52 3-52 17 0 30 5 30 10 0 6 11 10 24 10 14 0 28 5 31 10 3 6 13 10 22 10 16 0 85 30 93 41 3 3 16 10 30 14 35 11 67 37 163 131 79 79 100 102 114 134 3 8 17 28 30 43 13 16 23 37 23 48 0 20 19 60 34 70 5 4 6 16 3 28s-2 23 3 26c4 2 8 84 8 182 1 98 2 180 2 183 4 12-2 86-8 95-4 5-5 20-3 33 1 12-2 22-8 22s-11 9-11 19c0 11-11 41-25 67s-25 53-25 61-4 19-10 26c-46 56-60 76-60 84 0 5-13 21-28 36-34 33-71 22-91-28-7-16-17-37-22-45s-13-24-18-35-25-35-45-54c-31-30-36-32-42-16-4 10-2 26 4 36 15 23 16 146 1 154-6 4-9 24-8 46 2 21 0 41-4 45s-7 20-7 35-4 31-10 34c-5 3-10 16-10 29 0 12-3 26-7 30s-8 13-9 19c-2 25-17 57-25 57-5 0-9 4-9 10 0 17-34 90-42 90-5 0-8 6-8 13 0 8-11 24-25 37s-25 28-25 34c0 15-152 166-166 166-6 0-21 11-34 25s-29 25-36 25-17 6-21 13c-9 15-74 47-96 47-9 0-19 5-22 10-8 13-18 13-33-2z"/></g><g transform="translate(0 256) scale(.1 -.1)" fill="var(--icon-yellow, #FFD85A)"><path d="m1195 1257c-308-244-439-541-338-765 51-110 188-237 288-267 32-9 54-21 52-28-1-9 24-13 91-15 50-1 92 1 92 6s39 12 87 15c48 4 89 11 91 17 2 5 10 10 18 10 11 0 8 9-10 33-26 33-26 34-7 51 11 10 24 15 29 12 20-12 108 104 91 121-6 6-4 24 5 49 49 141 10 283-109 393-24 22-61 45-83 50-68 19-142 165-142 280 0 39-5 52-28 74-37 36-36 36-127-36z"/></g><g transform="translate(0 256) scale(.1 -.1)" fill="var(--icon-slate, #606078)"><path d="m1122 2357c-23-24-29-61-12-72 6-3 10-46 10-95s-4-92-10-95c-5-3-10-21-10-38 0-18-4-47-9-64-13-46 0-48 41-5 44 47 61 115 57 225-4 74-2 85 19 112 22 28 23 30 5 33-10 2-22 8-27 13-17 15-42 10-64-14z"/><path d="m416 1225c-3-9-6-27-6-40s-4-27-10-30c-12-8-14-322-1-329 9-6 25-64 22-81-1-5 12 4 29 21 27 27 30 35 21 52-15 28-15 324 0 339 13 13 1 39-29 66-18 16-20 16-26 2z"/><path d="m2112 1217c-23-24-23-30-24-216-1-162 1-195 14-208 22-22 38-8 38 33 0 19 5 34 10 34 13 0 14 282 1 296-5 5-11 26-13 47l-3 39-23-25z"/><path d="m1626 791-27-28 15-61c9-33 16-69 16-79 0-11 13-32 29-47l28-27 31 35c17 20 33 51 37 75 6 39 4 44-45 101-29 33-53 60-54 60s-15-13-30-29z"/><path d="m824 729c-27-29-29-35-29-114 0-82 1-85 34-119l35-36 28 27c25 24 28 33 23 66-4 23-2 43 5 52 8 10 8 18-2 34-10 17-10 25-1 40 11 17 8 24-23 50-42 37-34 37-70 0z"/><path d="m1e3 330c-12-5-25-13-29-19-3-6-16-11-29-11-12 0-33-11-46-25-23-25-23-25-2-25 11 0 24-4 27-10 3-5 17-10 30-10s25-5 27-10c2-6 43-13 91-17 48-3 87-10 87-14 0-5 30-9 67-9h67l-34 35c-19 19-39 35-45 35-7 0-20 9-30 20s-42 27-72 36c-29 8-55 20-58 25-7 11-23 11-51-1z"/></g><g transform="translate(0 256) scale(.1 -.1)" fill="var(--icon-stroke, #24324B)"><path d="m1131 2346c-9-11-10-25-2-53 29-102 1-272-67-413-15-30-29-57-32-60s-21-30-40-60-38-56-42-58c-5-2-8-10-8-18s-10-24-22-36c-13-13-22-24-20-25 1-2 0-3-3-3h-14c-5 0-14 15-22 33-7 17-32 52-56 75-24 24-43 48-43 54 0 5-4 7-10 3-5-3-18 0-29 7-30 18-45-2-42-56 1-24-3-47-9-51-5-3-10-17-10-31 0-13-4-24-9-24s-11-13-14-29c-7-35-100-184-110-176-4 3-5 2-2-2 3-3 1-11-4-17-17-21-61-109-61-122 0-8-4-14-9-14s-13-25-16-55c-4-30-11-58-16-61-16-10-10-304 7-354 9-25 16-53 17-62 1-10 5-18 9-18s8-6 8-14 15-44 34-80 33-66 31-66 6-10 18-23 38-42 57-65 38-42 43-42c4 0 15-8 25-17 10-10 35-31 56-48 21-16 44-34 50-40 6-5 16-10 21-11 23-3 55-17 55-25 0-5 3-8 8-7 8 2 47-9 77-22 45-20 136-40 179-40 25 0 46-4 46-10 0-12 226-14 234-1 3 4 36 11 74 14 37 3 81 11 97 17 17 7 39 16 50 20 22 9 65 27 133 56 23 10 42 21 42 26 0 4 4 8 10 8 30 0 220 196 220 227 0 7 3 13 8 13 8 0 27 36 55 100 80 185 76 483-9 677-8 17-14 38-14 47s-4 16-10 16c-5 0-10 5-10 10 0 15-68 121-93 144-25 24-46 13-62-33-6-18-14-29-18-24-5 4-5 0-2-9 4-11-14-37-57-82-62-64-97-85-84-49 25 64 10 303-24 388-4 11-16 43-25 70-10 28-22 55-27 62s-7 17-3 23c3 5 2 10-3 10s-15 12-22 28c-35 69-240 305-240 275 0-3-10 3-22 15-30 28-173 102-197 102-10 0-24-6-30-14zm116-78c237-136 408-397 433-660 8-83 0-235-14-269-12-28 19-44 56-28 79 32 134 85 194 185 16 28 34 8 83-89 67-133 85-216 84-392 0-130-3-160-24-230-60-197-211-369-393-450-81-36-95-33-56 12 56 63 91 151 96 240 3 68 2 74-7 43l-12-35-12 60c-7 33-16 74-20 90-11 42 2 26 26-31l20-49-6 43c-12 95-113 232-170 232-80 0-175 179-175 331 0 74-16 89-68 65-105-51-298-240-372-366-124-210-116-473 18-612 48-50 35-58-40-22-291 137-437 373-426 691 6 158 30 229 142 406 74 118 116 215 116 269 0 35 10 35 42 1 44-49 68-90 81-142 17-67 30-80 57-56 11 10 20 25 20 33s36 69 79 136c141 214 179 318 186 501 2 61 4 111 4 113 2 7 24-1 58-20zm-411-612c13-28 13-29 0-11-9 11-19 25-24 30-22 27-26 40-8 26 9-8 24-28 32-45zm464-435c0-127 116-331 188-331 91 0 187-192 163-326-20-109-94-219-174-261-128-66-322-57-430 20-279 198-212 599 147 883 98 78 106 79 106 15zm-210-74c0-2-19-21-42-42l-42-40 33 43c27 34 51 53 51 39zm-571-512c2-20-28 33-34 61-4 25-2 23 14-11 11-22 20-44 20-50zm344-32c2-51 1-90-3-88-14 8-22 100-14 151 9 61 11 52 17-63zm-138-197c37-34 37-36 10-22-16 8-48 33-70 57-47 50-10 28 60-35zm915 19c0-8-14-29-31-47-32-34-28-17 9 40 17 26 22 28 22 7zm-575-144c3-5 31-17 63-27 31-9 51-19 44-21-7-3-36 3-65 12-29 10-61 19-72 20-38 5-40 6-20 15 27 12 43 12 50 1zm445-9c0-13-48-32-78-31-25 1-24 2 13 20 43 20 65 24 65 11z"/></g></svg>
