<svg fill-rule="evenodd" stroke-linecap="round" stroke-linejoin="round" viewBox="0 0 256 256" xmlns="http://www.w3.org/2000/svg"><g transform="translate(0 256) scale(.1 -.1)" fill="var(--icon-white, #FFFFFF)"><path d="m1843 2e3c7-14 15-25 20-25 11 0 9-38-3-45-6-4-10 5-10 19s-4 26-10 26c-5 0-10 7-10 15 0 20-13 19-33-3s-22-53-5-70c9-9 9-30 0-89-7-43-22-161-32-263-11-102-27-234-34-295l-14-110v264c0 250-1 265-20 290l-21 26v-27c-1-44-21-32-21 12 0 47-7 49-43 12l-26-27 6-478c5-381 9-479 20-488 7-6 13-16 13-21 0-6-6-6-14 1-10 9-16 9-21 1s-11-8-19-1c-9 8-20 2-41-19-16-17-37-30-46-30-10 0-20-4-23-9-3-4-49-11-103-15-101-7-124-15-106-38s10-48-24-78c-31-28-40-30-109-30-62 0-76 3-81 18-3 9-13 25-20 34-8 9-12 22-8 29 6 9-16 10-91 4-97-7-127-16-104-30 8-5 7-12-4-23-8-10-15-20-15-24-1-8-3-8-33 0-20 5-23 17-8 27 6 3 10 10 10 16 0 11-170 0-186-12-6-5-68-12-138-15-96-5-126-10-122-20 3-7-2-18-10-25-27-22 3-39 73-39 51 0 65-3 70-18 22-57 96-102 172-103 31 0 88-4 126-8 83-10 93-6 65 24-19 20-19 23-5 29 27 10 69 6 87-8 16-12 16-15-8-37l-26-24 29-6c92-21 171-1 173 44 1 27 35 35 186 47 112 9 166 17 184 28 18 12 52 17 123 18 94 1 99 2 138 33 94 76 98 98 214 1186 34 314 37 288-36 346-37 29-37 29-26 4zm-83-1e3c0-14-4-25-10-25-5 0-10 11-10 25s5 25 10 25c6 0 10-11 10-25zm-43-373c-1-15-7-27-12-27-12 0-19 31-11 51 9 24 25 7 23-24zm-17-47c0-12-54-55-69-55-10 0-3 11 19 30 34 28 50 36 50 25zm-700-35c0-5-20-10-45-10s-45 5-45 10c0 6 20 10 45 10s45-4 45-10zm-110-10c0-5-16-10-35-10s-35 5-35 10c0 6 16 10 35 10s35-4 35-10zm-120-20c0-5-16-10-35-10s-35 5-35 10c0 6 16 10 35 10s35-4 35-10zm-90-10c0-5-13-11-30-11-42-2-47-3-56-11-4-5-15-8-25-8-12 0-16-5-13-15 8-21-2-19-26 5-27 27-26 30 19 30 22 0 43 5 46 10 3 6 24 10 46 10 21 0 39-4 39-10zm75-70c-3-5-26-10-50-10s-47 5-50 10c-4 6 15 10 50 10s54-4 50-10z"/></g><g transform="translate(0 256) scale(.1 -.1)" fill="var(--icon-coral, #FF8A65)"><path d="m1144 1818c-16-18-45-57-64-85-20-30-62-73-97-99-70-51-108-93-95-106 11-11 62 7 62 22 0 5 6 10 13 10 8 0 22 9 32 20s23 20 29 20c14 0 96 82 96 95 0 5 9 18 19 29 40 44 64 98 49 113-12 11-19 8-44-19z"/><path d="m1148 1402c-67-40-37-158 41-164 63-5 122 62 102 115-24 62-86 83-143 49z"/></g><g transform="translate(0 256) scale(.1 -.1)" fill="var(--icon-blue, #5EC8F8)"><path d="m695 973c-11-3-42-21-68-40l-48-36 27-28c15-16 30-27 33-25 80 47 190 59 212 25 7-12 11-11 25 3 17 16 17 18-1 38-14 16-15 23-6 34 24 29-94 49-174 29z"/><path d="m1198 942c-69-62-163-94-183-62-11 17-41 11-63-13l-22-24 25-28c26-27 29-27 108-23 79 5 147 28 147 49 0 5 6 9 13 9 27 0 79 66 75 96-5 46-47 45-100-4z"/></g><g transform="translate(0 256) scale(.1 -.1)" fill="var(--icon-green, #66DDAA)"><path d="m1567 1944c-4-4-7-268-7-588v-580l-27-28c-26-27-26-29-9-46 17-16 20-15 62 31l44 49-3 559-4 560-24 25c-14 13-28 21-32 18z"/><path d="m1168 1893c-33-39-42-82-23-103 24-27 27-26 48 18 30 63 12 127-25 85z"/><path d="m2164 1668c-17-18-30-38-28-44 3-6-5-19-16-29s-20-25-20-34-20-106-45-216-77-355-115-545c-92-455-88-442-148-457-37-9-150-107-128-111 9-2 16-8 16-13s57-9 130-9c75 0 130 4 130 9 0 6 12 16 27 23 14 7 31 22 37 33s19 27 29 36c10 10 15 23 11 33-3 9-1 16 5 16s11 11 11 25 5 25 11 25 8 8 4 19c-3 11-2 28 4 38 12 22 24 54 26 68 2 13 15 47 24 65 5 9 12 31 16 50s11 40 15 45c4 6 11 26 15 45s11 40 15 45c4 6 11 31 14 57 4 26 11 50 16 53 4 3 11 23 15 45s10 42 15 45 11 23 15 45 10 42 15 45 11 23 15 45 10 42 15 45c4 3 11 22 15 42 4 21 10 43 15 48 4 6 11 31 14 58 4 26 11 47 17 47 5 0 9 32 9 70 0 40-4 70-10 70-5 0-10 8-10 17 0 27-85 101-124 108-31 6-35 11-38 42l-3 34-31-33z"/></g><g transform="translate(0 256) scale(.1 -.1)" fill="var(--icon-purple, #BFA7FF)"><path d="m1e3 2291c0-5-42-12-92-16-51-4-97-11-103-15-5-4-52-11-103-15-63-5-92-11-89-19 3-6-10-26-27-45l-31-33 95 7c52 4 99 11 105 16 5 5 30 9 56 9s51 5 54 10c4 6 12 10 18 9 29-5 174 15 190 26s16 14 2 25c-11 9-12 16-5 25 5 6 7 15 3 18-10 10-73 8-73-2z"/><path d="m1621 2186c-7-8-10-19-7-24s-3-17-14-27c-28-25-31-367-3-397 22-24 20-244-3-269-11-13-14-74-14-346 0-374 3-358-80-429-46-39-57-44-100-44-27 0-56-3-65-7-14-5-16-2-10 15 6 20 3 22-34 22-22 0-42-4-45-9-4-5-56-13-116-16-61-4-113-12-116-16-3-5-28-9-56-9-49 0-50-1-34-19 9-10 14-25 10-35-5-13 1-16 30-16 20 0 36-4 36-10 0-5-12-10-26-10h-25l18-33c10-17 26-41 35-53 17-20 17-21-7-44-14-13-25-29-25-36 0-32-31-38-58-11l-26 27 39 40c21 22 35 40 31 40-5 0-3 6 3 13 12 15-8 37-62 71-27 16-27 19-13 35 9 10 16 21 16 24 0 11-88 8-95-3-3-5-27-10-53-11-57-1-92-12-73-23 9-6 7-14-10-32-19-20-20-24-6-24 9 0 17-4 17-10 0-5-12-10-27-10h-26l23-25c18-19 33-25 67-25 27 0 42-4 38-10-3-6-23-10-42-10h-37l29-30c26-27 30-29 46-14 21 19 37 1 19-21-10-12-9-15 8-15 12 0 23-4 26-9s54-12 113-15c60-4 115-11 124-15 8-5 70-12 138-16 67-4 124-11 126-15 3-5 43-11 90-15s87-11 90-15c3-5 48-11 100-15s95-11 95-16c0-10 43-12 53-2 4 3 0 14-8 23-15 16-12 19 27 35 69 27 158 128 158 179 0 21 156 735 221 1e3 24 103 36 139 45 133 7-7 17-3 29 10 10 11 13 20 7 20-8 0-11 36-9 114 2 96-1 117-15 133-10 11-18 24-18 29-1 10-66 54-81 54-5 0-17 4-27 9-20 11-53 24-67 27-34 7-55 18-55 30 0 8-4 14-9 14-4 0-12 14-17 31-5 18-18 37-29 43s-31 19-44 29c-13 9-41 17-62 17-22 0-39 5-39 10 0 6-19 10-43 10s-48 5-53 10c-8 8-15 6-23-4zm196-122c18-14 33-32 33-40 0-7 5-14 10-14 6 0 10-9 10-19 0-11-4-23-10-26-6-4-10 5-10 19s-4 26-10 26c-5 0-10 7-10 16s-9 18-20 21-20 9-20 14-11 9-25 9-25 5-25 10c0 19 43 10 77-16zm281-190c12-8 22-22 22-30 0-12-7-10-29 8-45 35-39 54 7 22zm-428-84c0-40-4-70-10-70s-10 30-10 70 4 70 10 70 10-30 10-70zm90-785c0-14-4-25-10-25-5 0-10 11-10 25s5 25 10 25c6 0 10-11 10-25zm-44-362c-3-8-1-11 4-8 15 9 12-32-5-65-19-36-42-49-75-40-23 6-24 7-6 17 17 10 18 13 4 41-21 41 3 73 34 45 17-15 18-15 18 4 0 11 3 23 6 26 11 11 26-4 20-20zm-486-63c0-5-13-10-30-10-16 0-30 5-30 10 0 6 14 10 30 10 17 0 30-4 30-10zm-340-40c0-5-16-10-35-10s-35 5-35 10c0 6 16 10 35 10s35-4 35-10zm-120-20c0-5-16-10-35-10s-35 5-35 10c0 6 16 10 35 10s35-4 35-10zm335-140c-3-5-15-10-26-10-10 0-19 5-19 10 0 6 12 10 26 10s23-4 19-10z"/><path d="m1138 1900c-10-11-20-31-24-45-3-14-10-25-14-25s-11-8-14-17c-16-45-90-127-156-173l-22-15 21-19c20-19 21-18 105 64 123 120 193 242 141 247-11 1-28-7-37-17z"/><path d="m680 1853c0-6-14-13-30-17-24-4-32-12-36-36-4-16-10-30-15-30s-9-7-9-15 5-15 10-15c6 0 10-6 10-13 0-27 40-52 81-51 39 1 73 19 64 34-3 5-1 11 5 15 30 18-2 115-39 115-9 0-22 5-29 12-8 8-12 8-12 1z"/></g><g transform="translate(0 256) scale(.1 -.1)" fill="var(--icon-orange, #FFB84D)"><path d="m795 1519c-4-6-14-8-22-5-17 7-150-31-158-45-3-5-15-3-25 4-27 16-120-72-120-114 0-44 75-44 87 1 6 21 72 60 103 60 11 0 20 4 20 9s20 12 45 15c25 4 45 11 45 17 0 5 9 9 21 9 11 0 29 5 40 11 20 10 20 11 3 30-19 22-30 24-39 8z"/><path d="m668 1249c-22-24-23-65-2-73 9-3 44-6 79-6s66-4 69-9c16-25 106-20 106 5 0 8 5 14 10 14 15 0 12 36-4 49-8 7-30 15-50 18s-39 10-42 14c-11 19-148 9-166-12z"/></g><g transform="translate(0 256) scale(.1 -.1)" fill="var(--icon-skin, #F0D8C0)"><path d="m1410 2351c0-5-43-12-95-16s-97-11-100-15-51-11-107-15c-106-8-128-17-102-46 10-12 12-19 4-24-5-3-8-11-5-16 8-12 52-12 59 0 4 5 45 12 94 16 48 4 92 11 98 16s65 12 130 15c119 6 119 6 147-20l27-27v-197l1-197 69 75v110c0 84 3 110 13 110 7 0 26 14 42 30l29 30h-31c-35 0-57 21-49 47 4 12-1 24-14 33-11 8-20 20-20 27 0 6-9 15-20 18s-20 10-20 15-16 12-35 16c-19 3-38 10-41 15-7 12-74 12-74 0z"/><path d="m1143 1901c-13-20-4-31 45-59 21-12 22-10 22 21 0 54-42 78-67 38z"/></g><g transform="translate(0 256) scale(.1 -.1)" fill="var(--icon-slate, #606078)"><path d="m606 2231c-4-5-49-12-101-16s-95-11-95-15-28-10-61-13c-56-5-66-9-105-48-24-24-44-51-44-61s-4-18-10-18c-7 0-10-242-10-705 0-392 4-705 9-705 4 0 11-19 14-41 9-66 82-129 150-129 21 0 28 4 24 14-3 8 3 22 14 32 29 26 23 34-25 34-78 0-96 28-96 149 0 56-4 103-10 106-13 8-13 45 0 45s13 37 0 45c-12 7-14 1135-2 1135 4 0 12 10 17 22 17 37 68 55 180 63 50 3 94 11 100 16 5 5 26 9 46 9 43 0 71 9 64 20-2 4 7 18 20 30 14 13 25 27 25 32 0 11-97 10-104-1z"/><path d="m680 1853c0-6-14-13-30-17-24-4-32-12-36-36-4-16-10-30-15-30s-9-7-9-15 5-15 10-15c6 0 10-6 10-13 0-27 40-52 81-51 39 1 73 19 64 34-3 5-1 11 5 15 30 18-2 115-39 115-9 0-22 5-29 12-8 8-12 8-12 1z"/><path d="m1565 1740c-4-6-4-224 0-483 7-458 8-473 28-494 25-28 48-29 71-4 15 17 17 49 16 322l-1 303-24 26c-24 25-25 31-25 156v130l-29 28c-20 19-31 24-36 16z"/><path d="m927 1640c-14-11-30-20-36-20s-11-4-11-9-13-12-30-16c-16-4-30-11-30-15 0-5-16-12-35-16-19-3-38-10-41-15s-12-9-21-9c-8 0-31-7-51-16-136-59-156-75-129-101 14-15 20-14 69 9 73 35 115 43 135 26 13-10 17-10 20 0 3 6 13 12 23 12 46 0 192 91 169 105-7 5-1 17 15 34 42 44 3 70-47 31z"/><path d="m2088 1633c-19-22-32-59-57-163-60-261-221-998-221-1e3 0-10-9-33-21-52l-20-34 55-57 24 23c36 33 69 97 77 147 8 56 123 577 185 845 16 66 36 155 45 199l17 78-58 58-26-27z"/><path d="m1858 1533c-24-27-27-42-67-388-49-426-48-395-13-428l28-27 26 27c22 25 27 43 41 173 9 80 28 250 43 378l27 233-29 30-30 29-26-27z"/><path d="m487 1402c-17-19-24-72-9-72 5 0 21 13 37 30 23 24 26 32 15 45-16 19-23 19-43-3z"/><path d="m695 973c-11-3-34-16-52-29-17-13-36-24-40-24-24 0-87-81-87-112 0-55 50-52 106 5 58 59 107 81 170 75 28-3 53-9 57-14 7-11 31-26 96-60 45-23 58-25 125-21 72 4 140 28 140 48 0 5 6 9 13 9 27 0 79 66 75 96-5 46-47 45-100-4-51-46-101-72-139-72-26 0-127 45-140 63-27 37-146 59-224 40z"/></g><g transform="translate(0 256) scale(.1 -.1)" fill="var(--icon-stroke, #24324B)"><path d="m1370 2331c-25-5-48-7-52-4-4 2-15-1-25-6s-56-15-103-21-116-16-155-21c-38-6-86-11-105-13s-42-5-50-8-69-13-135-23c-66-9-144-21-172-27-29-5-58-6-64-2-7 4-9 3-6-3 4-6-24-13-73-17-114-9-167-32-205-85l-30-43-3-256c-6-537 11-1206 31-1226 9-10 17-23 17-29 0-25 60-47 130-47 48 0 71-4 80-15 7-8 9-15 5-15-5 0 12-20 37-45 35-34 54-45 78-45 18 0 29-4 25-10s5-10 20-10 24 4 20 10c-3 6 3 10 14 10 12 0 21-4 21-10 0-5 12-9 28-8 36 1 163-12 182-20 17-6 20-7 158-17 56-4 102-12 102-17s8-8 18-7c32 5 202-12 202-21 0-4 45-11 100-15s100-10 100-14 15-8 33-9c17-1 64-7 102-13 180-30 226-22 295 51 32 33 70 124 70 165 0 8 4 15 9 15s8 6 8 13c-1 22 15 77 23 77 5 0 6 8 3 19-3 10 0 22 6 25 6 4 11 16 11 27 0 10 4 19 9 19s8 6 8 13c-1 22 15 77 23 77 4 0 7 6 7 13-1 24 16 97 23 97 3 0 7 6 8 13 6 46 16 76 24 71 5-3 8 0 7 7-3 23 13 79 23 79 5 0 8 6 7 12-3 20 13 78 21 78 4 0 8 10 8 23 0 24 35 137 55 176 7 14 12 65 12 122v98l-41 39c-23 21-63 46-88 56-44 17-46 19-46 57 0 22 4 38 8 35 5-3 8 26 8 65 0 38-3 69-7 69s-10 12-14 28c-6 26-70 82-94 82-6 0-11 4-11 10 0 5-6 7-14 4s-17-1-21 5c-3 6-18 11-33 11-41 0-73 22-86 56-25 70-115 124-208 124-56 0-78 11-84 39-11 49-30 78-78 119-20 16-118 23-176 13zm148-58c66-43 61 16 62-775 0-472-3-718-10-718-5 0-10-6-10-13 0-42-93-85-190-88-30-1-60-6-66-10-6-5-56-12-112-15-56-4-102-10-102-14 0-8-152-25-187-22-13 2-23-1-23-6 0-9-140-26-193-23-16 1-26-3-23-7 5-9-141-26-201-23-18 0-33-4-33-9 0-6-22-10-50-10-27 0-50 4-50 9s-10 11-23 15c-57 14-56 4-63 766l-7 699 27 41c15 22 31 38 36 35 4-3 10 0 12 6 4 11 224 49 305 52 24 1 43 5 43 8 0 4 21 9 48 12 151 19 362 51 597 91 117 20 181 19 213-1zm264-175c20-6 50-24 65-40 35-36 37-123 10-368-10-85-24-213-32-285-51-473-95-798-112-825-39-67-73-75-523-115-579-51-601-52-645-25-38 23-55 58-34 71 7 4 47 10 89 14 41 3 95 10 120 16 25 5 83 13 130 18 47 6 128 15 180 20 52 6 113 15 135 21 22 5 90 14 150 20 135 14 192 26 212 45 8 8 20 15 26 15 7 0 23 17 37 38l25 37 6 365c4 201 7 508 8 684l1 318 58-7c31-3 74-11 94-17zm238-173c61-20 99-44 100-62 0-6 6-13 13-16 32-10 11-164-73-522-61-261-176-789-185-845-12-74-42-117-102-145l-53-26-237 21c-131 12-294 25-362 31-68 5-128 12-132 15-21 13 6 23 79 29 42 3 131 13 197 20 66 8 176 19 245 25 212 20 258 59 279 238 6 53 36 308 66 567 31 259 60 515 66 570 12 117 15 129 32 122 6-2 37-12 67-22zm277-424c35-51 31-70-83-426-59-181-133-418-167-525-80-261-108-295-235-288-63 3-68 16-12 35 45 16 96 71 109 120 6 21 43 193 81 383s90 435 115 545 45 208 45 217 6 18 13 21c21 8 110-46 134-82z"/><path d="m1140 1875c-27-71-207-274-230-260-6 4-10 2-10-4 0-12-106-63-189-91-144-48-256-132-227-172 18-25 21-24 62 17 55 55 159 105 186 89 4-3 8 0 8 5 0 6 7 11 15 11s38 11 66 25c29 13 56 22 62 18 6-3 7-1 3 5-4 7-2 12 4 12 21 0 124 73 176 124 74 74 143 197 130 231-9 24-45 18-56-10z"/></g></svg>
