<svg fill-rule="evenodd" stroke-linecap="round" stroke-linejoin="round" viewBox="0 0 256 256" xmlns="http://www.w3.org/2000/svg"><g transform="translate(0 256) scale(.1 -.1)" fill="var(--icon-white, #FFFFFF)"><path d="m1780 1232c-109-1-199-7-204-12-7-7 87-10 269-10 169 0 275 4 270 9-14 13-107 16-335 13z"/><path d="m1537 1183c-4-4 5-19 20-35l27-28h261 261l27 28c15 16 24 31 20 35-8 9-608 9-616 0z"/></g><g transform="translate(0 256) scale(.1 -.1)" fill="var(--icon-coral, #FF8A65)"><path d="m1308 2333c-30-31-38-54-13-33 8 7 15 8 15 3 0-6 48-13 106-16s111-10 117-15c7-5 27-13 45-17s45-13 60-21 35-14 45-14c9 0 17-4 17-9s14-12 30-16c17-4 30-10 30-14s21-18 48-31c29-15 91-69 161-139 127-129 129-130 156-183 11-21 23-38 26-38 4 0 10-13 14-30 4-16 10-30 15-30s11-13 15-30c4-16 10-30 15-30s12-20 16-45c3-25 10-45 14-45 5 0 12-29 15-65 4-36 11-68 16-71s9-33 9-66v-61l23 20c12 11 28 18 35 16 9-3 12 11 12 51 0 31-4 56-9 56-4 0-11 28-15 61-3 34-10 67-15 73s-12 25-16 43c-3 18-30 78-58 133-75 147-77 150-98 163-10 6-19 17-19 23 0 14-216 224-231 224-6 0-28 13-48 28-45 35-129 78-170 87-17 4-31 10-31 15s-21 12-47 16c-27 3-53 11-59 15-6 5-54 12-105 15l-94 6-27-29z"/><path d="m1330 1807c0-256 3-472 6-481 9-24 895-24 914-1 7 8 8 15 3 15-6 0-13 46-16 101-3 56-10 105-15 108s-13 25-17 49c-4 23-11 42-15 42-5 0-11 14-15 30-4 17-11 30-16 30s-9 11-9 24-9 35-20 49-20 28-20 32-13 24-30 45c-16 21-30 42-30 47 0 11-152 163-163 163-5 0-29 18-55 39-26 22-59 43-74 46-16 4-28 11-28 15 0 5-13 11-30 15-16 4-30 11-30 15 0 5-16 12-35 16-19 3-38 10-40 15-3 4-27 11-53 15s-49 10-52 15c-3 4-40 11-83 15l-77 7v-466z"/></g><g transform="translate(0 256) scale(.1 -.1)" fill="var(--icon-yellow, #FFD85A)"><path d="m1070 2353c-19-3-39-8-45-12-5-5-29-11-53-15-24-3-51-10-60-15s-57-28-106-52c-48-24-99-50-112-57-33-18-254-232-254-246 0-6-9-17-19-23-11-7-26-23-33-37-61-113-98-191-98-207 0-11-4-19-9-19s-12-19-16-42c-4-24-13-46-19-50-7-5-11-54-12-145v-138l60-65h461 462l22 24c22 23 22 24 28 532l5 509-31 29c-32 31-89 40-171 29z"/></g><g transform="translate(0 256) scale(.1 -.1)" fill="var(--icon-green, #66DDAA)"><path d="m1232 2368c-9-9-8-16 4-29 10-11 12-19 5-24-7-4-11-66-11-174v-167l60-58v192c0 116 4 193 10 197 6 3 10 1 10-4 0-6 16-11 35-11 36 0 43 8 23 28-8 8-8 15 2 27 10 13 9 15-9 15-11 0-21 5-21 10 0 14-94 12-108-2z"/><path d="m1332 2118c2-155 6-137 10 50 2 56 0 102-4 102-5 0-7-69-6-152z"/><path d="m1257 1692-27-28v-170-170l60-58v227c0 125-1 227-3 227s-15-13-30-28z"/><path d="m1334 1500c0-96 2-136 3-87 2 48 2 126 0 175-1 48-3 8-3-88z"/><path d="m1251 1226-33-34 2-409c1-224 2-432 1-462l-1-54-87 7c-48 3-90 10-93 15-3 4-24 11-46 14-23 4-54 14-70 22s-37 15-46 15c-10 0-18 3-18 8 0 4-9 12-19 17-11 6-45 23-75 38-54 26-256 208-256 229 0 5-10 19-23 31s-27 29-31 37-18 33-32 55c-13 22-27 48-30 58-4 9-10 17-15 17s-9 8-9 18c0 9-7 30-15 45s-17 43-21 63c-3 19-10 36-14 39-5 3-12 41-16 85-3 44-11 80-16 80-6 0-8 12-5 26l4 25-29-28c-29-28-29-29-23-113 3-46 9-87 14-90s12-24 16-47c4-24 11-43 16-43s9-8 9-19c0-10 19-56 42-101 24-45 49-94 57-108 17-34 268-284 303-303 14-8 66-34 114-58 49-24 96-47 105-51 9-5 34-12 55-16 22-4 42-11 45-15 3-5 40-12 82-15 43-4 80-11 83-15 3-5 54-9 115-9 112 0 132 8 94 40-9 7-13 21-10 31 5 16 1 19-29 19-20 0-36-5-36-11 0-5-4-7-10-4-6 4-10 174-10 476 0 464 0 470 20 477 21 8 20 8-3 30l-23 22-33-34z"/><path d="m1175 1231c-6-6-35-12-65-14-46-3-42-4 24-5 69-2 77 0 66 13-15 18-14 17-25 6z"/><path d="m418 1213c56-2 148-2 205 0 56 1 10 3-103 3s-159-2-102-3z"/><path d="m1175 1180c-4-6-159-10-431-10h-425l7-62c4-35 10-65 14-68s10-26 14-52 11-50 15-53c5-2 12-21 15-40 4-19 11-35 16-35 4 0 11-13 15-30 4-16 10-30 15-30 4 0 11-12 15-27 3-16 24-49 46-75 21-26 39-50 39-55 0-11 103-113 114-113 4 0 35-25 68-54 33-30 73-58 89-61 16-4 29-10 29-15s14-11 30-15c17-4 30-10 30-15s20-12 45-16c25-3 45-10 45-14 0-5 19-11 43-15 23-4 44-11 47-15s31-11 63-15l57-7v451c0 248-2 451-4 451-3 0-8-4-11-10z"/><path d="m1332 818c-1-238-6-379-12-383-15-9-11-107 5-129 8-11 16-18 17-15 2 2 1 207-2 454l-5 450-3-377z"/></g><g transform="translate(0 256) scale(.1 -.1)" fill="var(--icon-purple, #BFA7FF)"><path d="m1257 2e3c-27-28-27-29-27-173v-145l60-58v202c0 111-1 202-3 202s-15-13-30-28z"/><path d="m1334 1820c0-85 2-120 3-77 2 42 2 112 0 155-1 42-3 7-3-78z"/><path d="m2326 1271c-13-14-23-18-31-11-7 6-200 10-510 10-454 1-499-1-516-16-18-16-20-16-37 0-17 14-65 16-487 16h-469l-28-27c-36-34-36-62 0-97 26-24 30-25 42-11 11 13 11 18 1 24-7 5-11 17-9 27 3 18 22 19 471 22l467 2v-21c0-18 2-19 15-9 12 10 18 10 30 0 18-15 23-734 5-745-15-9-11-107 5-129 13-17 15 35 17 440l3 459h490 490l3-52c2-29-1-53-6-53s-12-27-15-60c-4-33-11-68-16-77-12-22-24-55-25-68-2-21-65-141-80-154-9-7-13-17-10-22s0-9-5-9c-6 0-11-6-11-13 0-8-11-24-25-37s-23-26-20-29c7-7-136-151-150-151-6 0-24-13-40-30-16-16-35-30-42-30s-13-4-13-9-8-12-17-15c-10-3-40-19-68-36-27-16-60-29-72-29-13-1-23-5-23-10s-19-12-42-16c-24-4-46-12-49-17s-59-12-123-15c-65-3-116-10-116-16 0-5-7-4-15 3-23 19-18-4 5-25 13-11 18-25 14-37-5-16 1-18 40-18 25 0 46 4 46 9 0 4 34 11 76 14s81 10 87 16 23 11 37 11 34 6 45 14c11 7 35 17 53 21 17 3 32 11 32 16s5 9 11 9c23 0 105 45 151 82 26 21 50 38 55 38 12 0 163 154 163 166 0 6 9 19 20 29s20 24 20 32c0 7 4 13 9 13 10 0 34 38 47 73 3 9 10 17 14 17 5 0 11 13 15 30 4 16 10 30 15 30s12 15 15 33c4 17 14 41 21 52 8 11 14 30 14 42 0 13 4 23 9 23s12 28 16 63c4 34 11 67 16 73 6 7 8 56 7 109-3 96-3 97-22 76z"/><path d="m1174 1180c-6-6-172-11-434-13l-425-2 438-3c383-2 437 0 437 13 0 18-3 18-16 5z"/><path d="m1330 816c0-239-4-377-10-381-15-9-12-107 4-128 12-16 24-17 90-11 42 4 76 10 76 14s19 10 43 13 56 13 72 21c17 9 38 16 48 16 9 0 17 4 17 9s14 12 30 16c17 4 30 10 30 15 0 4 8 11 18 14 32 12 72 37 72 45 0 5 8 12 18 15 9 3 28 13 41 20 30 18 171 157 171 169 0 5 13 26 29 46 16 21 33 49 36 64 4 15 11 27 15 27 5 0 11 14 15 30 4 17 11 30 16 30s9 8 9 18c0 9 6 29 14 44s17 42 21 60 12 39 18 46c5 7 12 46 15 87l5 75h-457-456v-374zm360-271c0-8-6-15-14-15-17 0-28 14-19 24 12 12 33 6 33-9z"/></g><g transform="translate(0 256) scale(.1 -.1)" fill="var(--icon-skin, #F0D8C0)"><path d="m1330 1806c0-255 3-471 6-480 9-24 895-24 914-1 9 10 9 15 1 15-6 0-11 9-11 20 0 20-7 20-425 20h-425v428c0 403-1 430-18 445-42 38-42 38-42-447z"/><path d="m1285 1785c0-253 1-355 2-227 2 128 2 335 0 460-1 125-2 20-2-233z"/><path d="m2325 1430c-10-12-24-19-31-16-13 5-26-142-13-150 3-2 16 8 29 21s27 22 31 19c5-3 9 29 9 70 0 85 0 84-25 56z"/><path d="m1335 1270c4-6 167-10 455-10s451 4 455 10c4 7-150 10-455 10s-459-3-455-10z"/><path d="m802 1213c49-2 127-2 175 0 49 1 9 3-87 3s-136-2-88-3z"/><path d="m695 1140 29-30h166 166l58 60h-224-224l29-30z"/><path d="m1147 1092-27-28v-370c0-347 1-372 18-387 10-10 26-17 35-17 16 0 17 34 17 409 0 226-4 412-8 415-5 3-21-7-35-22z"/><path d="m1223 695c-1-209 2-369 6-355s5 185 1 380l-7 355v-380z"/></g><g transform="translate(0 256) scale(.1 -.1)" fill="var(--icon-slate, #606078)"><path d="m1235 2370c-3-5-35-10-71-10-75 0-75 0-29-56l35-42v-466-466h-415-415v28c0 18-10 38-29 56s-27 34-24 47c6 22-34 72-48 63-5-3-9-20-9-39s-4-37-10-40c-13-8-13-309-1-333 6-9 13-39 16-66l7-48 24 23c19 18 25 33 23 59-1 19 2 43 6 54 5 11 3 21-4 26-7 4-11 16-10 26 2 11 1 24-3 29-5 8 929 5 940-3 1-1 2-213 2-472v-470h-35c-43 0-44-8-5-45l30-29 69 67 2 336c3 556 2 611-18 635-16 18-15 18 8-2l25-22h487c333 0 488-3 492-11 9-14 45 19 39 35-3 7 2 19 11 26 23 19 18 43-15 75l-30 29v-42-42h-494-493l-6 68c-4 37-7 265-7 508 0 284-4 444-10 450-7 7-2 18 15 34 14 13 25 27 25 32 0 12-68 10-75-2z"/><path d="m1340 1320c0-7 156-10 449-10 289 0 452 4 456 10 4 7-148 10-449 10-297 0-456-3-456-10z"/><path d="m1177 1183c-12-11-8-881 3-888 7-4 10 147 10 444 0 248-1 451-3 451s-7-3-10-7z"/><path d="m1330 1180c0-7 158-10 455-10s455 3 455 10-158 10-455 10-455-3-455-10z"/></g><g transform="translate(0 256) scale(.1 -.1)" fill="var(--icon-stroke, #24324B)"><path d="m1217 2358c-7-4-42-8-79-8s-69-4-72-9c-4-5-29-12-56-16-28-4-72-18-99-31s-61-26-75-30c-14-3-26-10-26-14 0-5-13-11-30-15-16-4-30-11-30-16s-6-9-14-9-21-6-28-13-33-28-58-46c-69-52-147-130-198-196-25-33-49-62-52-65s-14-23-25-44c-11-22-24-44-30-50-10-11-43-94-52-133-3-13-9-23-13-23-5 0-12-25-15-55-4-30-11-52-16-50-4 3-8-3-7-12 0-10-5-68-13-129-13-112 2-374 22-374 4 0 11-25 14-55 4-30 10-55 14-55s18-29 32-65c13-36 27-65 31-65 3 0 9-14 13-30 4-17 10-30 15-30s12-10 16-22c7-25 5-21 82-113 60-71 120-130 180-175 19-14 40-30 47-37s32-22 56-35c24-12 46-24 49-27 6-7 95-40 128-48 12-3 22-9 22-13 0-5 23-11 50-15 28-4 50-10 50-14 0-11 72-15 230-16 152 0 240 6 240 18 0 4 11 7 24 7 12 0 54 12 92 26s84 31 102 37c17 5 32 14 32 18s12 10 26 13c15 4 32 12 39 19s23 19 35 27 28 21 36 27c7 7 17 13 22 13 8 0 167 162 198 202 32 42 84 125 84 135 0 7 4 13 9 13s12 13 16 30c4 16 11 30 16 30s9 8 9 18c0 9 6 29 14 44s17 42 21 60 11 38 15 43c4 6 15 80 25 166 16 144 16 162 1 249-9 51-16 106-16 121s-7 40-15 55c-8 16-15 39-15 52 0 12-4 22-9 22s-12 16-15 35c-4 19-11 35-16 35s-12 16-16 35c-3 19-9 35-13 35s-12 12-18 28c-12 27-34 63-43 72-3 3-27 32-52 65-63 82-248 252-248 228 0-4-4-3-8 3-11 16-108 73-137 80-14 3-25 10-25 14 0 5-18 11-40 15s-40 10-40 15c0 4-25 11-57 15-31 4-63 11-72 16-21 12-249 27-264 17zm8-568v-515h-475-475l-3 40c-4 51 24 220 49 293 124 362 419 619 788 687 131 24 116 88 116-505zm240 505c22-3 47-9 55-12 8-4 20-5 27-4 6 1 14-3 18-9 3-5 15-10 26-10 24 0 122-40 127-52 2-4 8-8 12-8 13 0 131-69 155-90 70-62 175-165 175-171 0-5 10-19 23-33 33-36 59-74 79-116 7-14 22-41 34-60 23-39 64-162 64-195 0-11 5-26 11-32 16-16 25-223 11-232-7-4-234-7-504-7l-493 1-3 523-2 524 72-5c40-3 91-8 113-12zm-234-1088c1-22-3-892-5-922-1-29-2-30-51-29-53 1-156 19-190 33-11 5-48 19-82 32-35 13-63 27-63 31 0 5-5 8-11 8-17 0-151 82-156 97-3 7-10 13-17 13-13 0-128 116-173 175-114 150-187 331-208 512l-7 63 204 2c396 6 758-2 759-15zm1e3 14c16-10 9-157-9-175-6-6-10-25-10-43s-4-33-9-33-7-8-4-19c3-10 0-22-6-25-6-4-11-16-11-27 0-10-4-19-10-19-5 0-7-7-4-15 4-8 2-15-4-15-5 0-13-12-17-27-3-15-10-30-13-33-4-3-18-26-32-52-13-27-28-48-32-48-5 0-8-6-8-12 0-22-89-120-178-198-72-62-147-112-156-103-3 4-6 1-6-5 0-7-7-12-15-12s-15-5-15-11-7-9-15-5c-8 3-15 2-15-2 0-13-105-54-196-76-49-12-160-20-221-17-10 1-13 105-13 485 0 378 3 485 13 489 23 9 972 7 986-2z"/></g></svg>
