<svg fill-rule="evenodd" stroke-linecap="round" stroke-linejoin="round" viewBox="0 0 256 256" xmlns="http://www.w3.org/2000/svg"><g transform="translate(0 256) scale(.1 -.1)" fill="var(--icon-yellow, #FFD85A)"><path d="m970 2371c0-4-25-11-56-14-30-3-61-10-67-15-7-5-27-13-44-17-18-3-33-10-33-15 0-4-8-11-17-14-52-19-147-103-179-157-33-59-64-129-64-148 0-11-5-23-10-26-13-8-13-222 0-230 6-3 10-17 10-30 0-56 133-265 169-265 5 0 14-6 21-14 18-22 148-86 175-86 13 0 27-4 30-10 4-6 60-10 136-10 79 0 129 4 129 10s7 10 16 10 30 6 47 14c18 8 39 17 47 20 72 31 204 158 215 206 4 16 10 30 15 30 8 0 23 38 21 53-1 4 4 7 9 7 6 0 10 13 10 29 0 17 5 33 10 36 6 4 9 14 8 23-2 13 5 16 40 13 58-4 91 22 66 51-12 12-31 18-61 18h-43v49c0 28-4 53-10 56-5 3-10 19-10 34s-3 31-7 35-8 13-9 19c-2 25-17 57-25 57-5 0-14 10-19 23-20 44-109 147-128 147-5 0-17 9-27 20s-24 20-32 20c-7 0-13 4-13 9s-12 12-27 16c-15 3-30 11-34 16-3 5-35 12-72 16-37 3-67 10-67 14 0 5-27 9-60 9s-60-4-60-9z"/><path d="m1756 1822c-15-18-15-20 3-36 25-22 77-18 73 6-1 9 2 19 8 23 21 13 8 25-28 25-25 0-45-7-56-18z"/></g><g transform="translate(0 256) scale(.1 -.1)" fill="var(--icon-purple, #BFA7FF)"><path d="m1320 1213c-231-36-439-272-440-498-1-179 134-375 316-462 78-38 80-38 205-38h126l85 42c211 105 334 327 297 534-7 41-12 88-11 105 2 18-3 38-12 46-8 9-18 27-22 42-6 27-18 33-29 17-3-5-38 23-78 63-124 124-274 175-437 149z"/></g><g transform="translate(0 256) scale(.1 -.1)" fill="var(--icon-slate, #606078)"><path d="m1761 1818c-12-32 4-48 48-48 52 0 81 10 81 28 0 44-113 61-129 20z"/><path d="m1948 1814c-11-11 5-44 21-44 10 0 28-11 41-25 27-29 45-32 54-9 8 22 9 19-25 53-28 28-75 41-91 25z"/><path d="m2e3 1658c-18-18-15-113 3-128 12-10 18-10 30 0 22 18 21 126-1 134-20 8-18 8-32-6z"/><path d="m2e3 1458c-23-12-24-110-2-128 27-23 45 5 45 70 0 61-11 76-43 58z"/><path d="m2e3 1248c-6-13-20-27-32-33-13-5-23-15-23-22s-5-13-11-13c-8 0-8-5 1-15 16-19 32-19 69 2 42 25 60 103 23 103-9 0-22-10-27-22z"/><path d="m1276 1231c-3-5-21-12-40-15-20-4-48-13-63-21s-33-15-39-15c-7 0-14-7-18-15-3-8-11-15-18-15-18 0-144-130-152-157-4-11-13-27-21-33-8-7-15-23-15-35 0-13-5-25-11-27-5-2-13-22-16-46-3-23-10-42-14-42-12 0-12-177 0-184 5-4 12-29 16-56 4-28 11-50 15-50 5 0 11-13 15-30s10-30 15-30c4 0 11-8 14-17 17-49 98-143 121-143 7 0 20-9 30-20s24-20 32-20c7 0 13-4 13-9s15-13 33-16c17-4 37-11 43-17 7-5 35-11 63-15 28-3 54-10 57-14 7-12 131-12 138 0 3 4 28 11 55 15 80 11 171 63 266 153 48 45 105 139 105 173 0 11 5 20 10 20 6 0 10 11 10 25s3 25 8 25c8 0 6 219-3 228-3 3-5 18-5 34 0 15-4 28-10 28-5 0-10 9-10 19 0 11-6 26-14 33-7 8-17 24-21 37s-25 41-46 62-39 44-39 49c0 6-5 10-10 10-6 0-21 10-33 23-37 37-151 97-186 97-11 0-23 5-26 10-8 12-242 14-249 1zm226-122c88-19 156-55 222-118 58-56 63-59 79-44 13 14 19 14 32 3 14-12 13-16-14-44l-29-31 15-70c25-120 1-240-68-344-36-54-50-65-126-103l-86-43h-126c-124 0-127 1-201 36-118 56-171 124-206 262-31 119 3 280 78 371 85 104 273 158 430 125z"/><path d="m1400 906c-74-41-145-85-157-98l-23-24 58-56 112 61c127 70 117 67 146 41l21-21 32 27c56 47 58 61 15 105-21 21-45 39-54 39-8 0-76-34-150-74z"/><path d="m507 892c-15-15-27-33-27-40s-5-12-12-12c-8 0-6-6 5-17 15-16 18-16 35 0 10 9 22 17 26 17 21 0 50 41 40 58-17 27-37 25-67-6z"/><path d="m471 736c-29-34 59-115 94-86 8 7 15 18 15 24 0 13-36 46-50 46-6 0-10 7-10 15 0 19-34 20-49 1z"/><path d="m657 693c-4-3-7-17-7-30 0-21 4-23 54-23 56 0 83 17 72 45-6 15-105 22-119 8z"/></g><g transform="translate(0 256) scale(.1 -.1)" fill="var(--icon-stroke, #24324B)"><path d="m927 2350c-16-5-35-6-43-3s-14 1-14-5c0-9-55-27-72-23-5 0-8-3-8-9 0-5-5-10-10-10-18 0-112-74-158-124-24-25-41-46-37-46 3 0-5-17-18-37-29-47-57-127-57-164 0-15-4-31-10-34-12-8-13-92-1-99 7-5 19-62 24-118 1-10 4-18 8-18s10-13 14-30c4-16 10-30 15-30s10-7 12-15c3-17 109-143 120-144 4-1 26-14 50-30 84-56 160-75 293-75 89 1 130 5 159 17 21 9 42 14 47 11s9 0 9 5c0 6 5 11 11 11s31 14 56 30c24 17 48 30 54 30 5 0 9 3 9 8 0 4 18 25 39 47 60 63 94 134 137 282 1 7 26 13 56 15 69 4 68 22-2 28l-55 5-6 70c-6 70-48 196-76 223-7 7-13 18-13 23 0 11-108 119-119 119-4 0-16 9-26 20s-24 20-32 20c-7 0-13 4-13 8 0 5-6 9-12 10-7 0-46 10-87 21-77 22-192 27-244 11zm248-62c329-107 433-507 197-759-255-273-712-154-806 208-90 348 260 665 609 551z"/><path d="m854 2e3c-10-24 6-36 160-115 80-41 146-79 146-85-1-5-69-45-153-87-115-58-153-81-155-97-6-35 24-35 90 2 35 19 113 61 173 92 130 67 154 87 136 109-16 19-357 196-378 196-7 0-16-7-19-15z"/><path d="m1767 1813c-17-16-3-23 48-23 42 0 55 3 55 15 0 16-89 23-103 8z"/><path d="m2e3 1800c0-6 8-13 18-17 26-9 52-34 46-44-8-13 10-11 24 3 9 9 6 18-15 40-26 27-73 39-73 18z"/><path d="m2e3 1595c0-40 4-55 12-53 7 3 12 24 12 53s-5 50-12 53c-8 2-12-13-12-53z"/><path d="m2e3 1400c0-45 3-61 13-58 17 6 19 94 1 109-12 10-14 1-14-51z"/><path d="m2e3 1213c-34-36-35-43-5-47 20-3 64 43 64 68s-22 17-59-21z"/><path d="m1310 1220c-154-21-299-125-377-268-13-22-23-48-23-56 0-9-4-16-8-16-20 0-25-315-6-328 7-4 15-22 19-39 3-18 10-33 15-33 4 0 10-8 14-17 28-85 211-233 287-233 10 0 19-3 19-7 0-20 297-25 309-5 3 5 23 13 44 17 20 4 37 11 37 16s6 9 14 9c7 0 19 7 26 15 7 9 15 13 18 11 10-11 139 134 164 185 54 107 58 126 58 245 0 63-4 122-9 132-5 9-19 44-32 77-22 58-42 87-105 149-49 49-80 73-103 81-12 3-21 10-21 14 0 30-239 66-340 51zm250-66c238-79 373-355 291-593-106-306-503-414-758-205-312 255-177 740 227 818 48 9 186-2 240-20z"/><path d="m1490 894c-25-14-101-55-170-91-138-72-153-83-145-104 5-14 346-201 377-207 26-5 35 28 12 42-22 13-249 134-281 150-13 6-23 16-23 23 0 9 210 125 280 154 23 10 43 37 35 49-10 16-37 12-85-16z"/><path d="m518 889c-10-5-23-19-29-31-18-33 9-41 38-12 13 13 28 24 33 24 6 0 10 7 10 15 0 17-27 19-52 4z"/><path d="m482 723c-12-20 34-63 67-63 27 0 28 27 1 35-11 3-20 10-20 15 0 20-39 31-48 13z"/><path d="m666 681c-14-22 7-41 44-41 25 0 40 5 44 16 10 25-2 34-44 34-21 0-41-4-44-9z"/></g></svg>
