<svg fill-rule="evenodd" stroke-linecap="round" stroke-linejoin="round" viewBox="0 0 256 256" xmlns="http://www.w3.org/2000/svg"><g transform="translate(0 256) scale(.1 -.1)" fill="var(--icon-white, #FFFFFF)"><path d="m250 245c-17-20 3-45 36-45 13 0 24-4 24-10 0-14 807-14 815 0 3 6 16 10 28 10h21l-20 21c-21 20-32 21-439 24-229 2-420 6-423 9-10 11-29 6-42-9z"/></g><g transform="translate(0 256) scale(.1 -.1)" fill="var(--icon-yellow, #FFD85A)"><path d="m1253 2316-35-39 4-109c4-107 5-110 36-141 30-29 34-30 65-19 137 50 240-68 197-227-21-79-88-116-172-94-36 10-40 9-68-24-30-33-30-35-30-147 0-85-4-116-14-125-19-16-10-43 25-77l29-28 350 6-12-29c-6-15-15-32-20-38-4-5-8-31-8-58 0-47 3-52 64-115l64-66 63-4c76-4 137 28 189 100 33 45 35 77 15 176l-7 32h139c139 0 139 0 165 28l26 27 3 473 3 472-29 29-30 29-977 7-35-39z"/></g><g transform="translate(0 256) scale(.1 -.1)" fill="var(--icon-blue, #5EC8F8)"><path d="m247 2312-37-38v-471-471l81-73 112 7c100 6 115 9 139 31 25 24 25 27 12 59-16 39-18 90-4 99 5 3 10 17 10 30 0 71 164 110 260 60 52-27 76-120 50-191-9-24-7-31 17-56l27-28h147 147l28 33 29 32v167c0 93 3 168 7 168s33-7 65-15c76-20 107-9 171 59 81 85 81 179 2 268-60 69-98 78-215 53l-30-7 3 121 3 120-37 40-36 41h-457-457l-37-38z"/></g><g transform="translate(0 256) scale(.1 -.1)" fill="var(--icon-green, #66DDAA)"><path d="m1280 2372c0-5 10-18 23-30 22-21 32-22 208-22h185l58 60h-237c-130 0-237-4-237-8z"/><path d="m635 1595c-41-21-114-103-123-140-8-28-3-69 13-122 7-23 7-23-114-23h-121l-80-72v-466-466l84-86h434c286 0 431-3 427-10-4-6 10-10 34-10 22 0 43 5 47 11 3 6 20 9 36 7 36-6 45 7 23 32-14 15-16 39-14 155l2 137-29 29-29 28-54-15c-97-29-170 9-192 98-22 95 5 194 61 223 32 17 132 20 159 5 14-7 25-2 51 25l33 34-10 262-67 69h-163c-90 0-163 1-163 3 0 1 9 20 20 42 37 73 23 130-47 196-71 68-151 88-218 54z"/><path d="m2337 692-27-28v-175c0-158 2-178 18-192 40-36 42-27 42 203 0 121-1 220-3 220s-15-13-30-28z"/></g><g transform="translate(0 256) scale(.1 -.1)" fill="var(--icon-purple, #BFA7FF)"><path d="m1268 1283-35-38 2-153 2-154-26 7c-14 4-52 9-83 12-57 5-57 4-108-43-116-108-119-208-9-318l58-58 63 5c35 3 75 9 91 13l27 6v-134-134l76-74h462 462l47 42 46 43-6 464-5 463-25 26c-25 25-28 25-159 23-127-2-134-3-160-28-23-22-25-29-17-52 12-29 4-82-18-124-42-82-256-78-299 5-11 20-15 50-12 88 5 93-17 110-142 110-84 0-99 3-115 20-30 33-75 26-117-17zm337-38c0-6-59-11-152-13-133-2-153 0-153 13s20 15 153 13c93-2 152-7 152-13zm663 3c-4-10-38-13-128-13s-124 3-127 13c-4 9 26 12 127 12s131-3 128-12z"/><path d="m627 222c-15-16-24-31-20-35 8-9 468-9 476 0 4 4-5 19-20 35l-27 28h-191-191l-27-28z"/></g><g transform="translate(0 256) scale(.1 -.1)" fill="var(--icon-orange, #FFB84D)"><path d="m1407 2332-27-28 56-54h410 410l54 56-56 54h-410-410l-27-28z"/><path d="m1295 2300c-41-42-42-188-1-228 36-36 118-33 159 6l27 26-27 28c-15 16-37 28-51 28-24 0-25 1-18 57 6 52 5 58-21 85-33 35-33 35-68-2z"/><path d="m2247 2202-27-28v-361c0-276-3-363-12-371-7-5-50-12-95-14-58-3-88-10-101-21-10-10-23-17-28-17-6 0-25-15-42-33l-32-33 24-23c23-22 31-23 173-22l148 2 38 36 37 37v411 411l-56 54-27-28z"/><path d="m1290 1405c-36-37-36-36 19-97l25-28h157c129 0 159-3 169-15 12-14 16-13 41 11 26 25 28 29 13 45-11 12-12 19-4 24s-1 21-27 47l-38 39-152-2c-83 0-156 2-161 5s-24-10-42-29z"/></g><g transform="translate(0 256) scale(.1 -.1)" fill="var(--icon-skin, #F0D8C0)"><path d="m268 2366c-17-12-17-14 0-30 17-14 66-16 479-16 447 0 460 1 478 20 16 18 16 20 2 20-10 0-17 5-17 10 0 17-920 13-942-4z"/><path d="m1261 1676-34-35-10-252 29-30c34-36 43-36 76-1 26 26 27 32 29 160l2 133-29 30-30 29-33-34z"/></g><g transform="translate(0 256) scale(.1 -.1)" fill="var(--icon-slate, #606078)"><path d="m261 2365c-13-7-34-24-47-38l-23-25-1-491c0-379 2-495 12-511s10-24 0-40c-9-15-12-136-12-503v-483l69-67 906 4 55 53-54 56h-437c-295 0-440 3-444 10-5 8-11 8-20 0-15-12-21 885-6 909 7 10 37 13 129 12l121-2 37 34c33 30 35 36 25 56-29 53-30 123-4 158 65 84 262 78 292-9 20-57 8-164-14-128-8 13-65-35-65-55 0-6 21-32 48-58l47-46 340-6 6-242-44 14c-65 21-114 5-179-60-106-105-102-229 10-327 62-55 111-69 170-47 26 9 47 15 48 14s4-57 7-124 8-127 12-133-3-22-15-35c-28-30-19-45 24-38 19 3 36 1 40-6 5-8 147-11 494-10 530 1 531 1 557 57 5 12 13 22 17 22 5 0 8 216 8 480 0 313-3 480-10 480-5 0-10 11-10 25s-5 25-10 25c-7 0-7 7 0 20 5 11 14 28 19 39 6 12 6 22-2 30-9 9-12 134-13 473l-1 462-33 33-34 33h-498c-325 0-498-3-498-10 0-5-16-10-35-10s-35 5-35 10c0 16-919 11-949-5zm2e3 -54 24-6-21-19c-21-19-21-25-21-463v-443h-128c-128 0-128 0-155-28s-27-29-7-47c15-14 17-21 8-32-8-10-8-23 1-52 14-49 14-103 0-135-36-78-261-73-288 6-18 52-11 138 12 138 6 0 24 12 39 27l28 27-94 96h-165c-139 0-167-3-183-17-17-16-18-11-18 140 0 87 1 157 3 157s25-7 51-16c72-25 103-14 174 59 93 98 96 186 7 285-64 71-122 87-212 57-23-7-23-7-24 114-1 66-2 127-3 134-1 16 917 34 972 18zm-1079-177-1-116 43-45c40-40 47-44 79-38 140 25 164 17 175-58 17-109-25-148-129-122-73 18-83 16-135-39l-34-35 2-110c1-61-1-131-4-156l-7-45h-89-89v45c0 66-19 102-92 172-92 87-174 105-273 60-58-28-159-131-150-155 3-8-2-23-11-33-11-12-15-30-12-52l4-35-51-6c-27-3-58-6-67-6-17 0-18 28-18 445v445h430 431l-2-116zm296-876c177-4 189-22 17-26-140-3-162-22-26-22h84v-50c0-64 15-91 82-157 113-110 242-117 356-18 60 52 95 117 96 176l1 49h76 76l6-182c4-99 7-300 7-445v-263h-445-445v125 125l-42 46c-39 42-45 45-78 40-123-22-157-20-176 10-25 38-25 130-1 168 20 29 55 31 167 11 33-6 39-3 76 37l41 44-2 145c-3 170-1 159-20 159-8 0-15 6-15 14 0 20-26 40-35 26-5-8-11-8-21 1-13 10-12 14 3 31 16 18 17 18 47-11l31-30 140-3zm803-10c-4-10-38-13-128-13s-124 3-127 13c-4 9 26 12 127 12s131-3 128-12z"/></g><g transform="translate(0 256) scale(.1 -.1)" fill="var(--icon-stroke, #24324B)"><path d="m1585 2363c-179-2-303-7-309-13-13-13-46-13-46 0 0 7-167 10-481 10h-480l-30-28c-24-22-32-40-38-87-13-99 2-938 17-943 16-5 16-39 0-45-10-3-13-109-13-488 0-516 2-538 49-545 10-1 23-7 29-13 15-15 913-15 922-1 4 6 10 8 15 5 4-3 13 2 20 10 16 19 39 19 46 0 4-8 11-12 16-9 6 4 13 2 17-3 4-7 125-7 346-2 187 4 405 8 483 8l144 1 58 62v482c0 456-1 482-19 506-19 24-19 25 0 51 18 26 19 50 19 473 0 433-6 526-32 526-5 0-8 6-8 14 0 24-92 36-263 34-89-2-297-4-462-5zm-365-72c5-11 10-78 10-149 0-146 6-159 62-147 119 25 169 13 206-47 45-75 40-158-15-219-44-48-84-57-153-34-40 13-57 15-76 6-24-11-24-11-24-184 0-123-4-178-12-189-10-13-41-18-153-23-162-7-176-3-157 48 28 77 8 154-52 204-163 134-418-18-341-204 21-49 13-53-122-53-104 0-113 1-127 22-24 34-24 949 0 972 14 14 71 16 479 16 449 0 465-1 475-19zm1054-3c25-35 24-923-1-950-14-16-33-18-163-18-166 0-178-4-166-62 26-124 14-169-56-208-135-76-289 54-222 189 14 29 14 34 0 56-16 25-17 25-184 25-221 0-207-11-207 167 0 171 2 177 49 158 188-79 343 196 201 354-57 63-122 80-216 56-31-8-39 20-39 143 0 124-53 112 505 112h484l15-22zm-1483-748c74-38 95-102 62-192-16-45-16-48 2-68 17-19 30-20 187-20 151 0 169-2 175-17 16-40 9-288-7-283-103 31-208-4-255-84-102-175 37-395 216-343 29 9 55 14 58 12 10-11-1-270-12-277-7-4-218-8-469-8h-457l-15 22c-14 20-16 83-16 490 0 452 1 468 19 478 11 5 81 10 155 10 157 0 170 7 141 77-63 150 72 276 216 203zm818-269c12-8 13-16 3-49-41-137 41-241 191-242 154 0 237 102 195 242-16 54-8 58 139 58 179 0 163 51 163-513 0-459 0-461-22-484l-21-23h-473-473l-12 22c-8 14-14 77-15 161-2 76-6 142-9 147-9 15-48 12-91-6-129-54-250 87-200 231 31 88 111 129 197 101 93-31 92-33 90 158-3 208-12 200 229 204 52 1 101-2 109-7z"/></g></svg>
