<svg fill-rule="evenodd" stroke-linecap="round" stroke-linejoin="round" viewBox="0 0 256 256" xmlns="http://www.w3.org/2000/svg"><g transform="translate(0 256) scale(.1 -.1)" fill="var(--icon-coral, #FF8A65)"><path d="m1581 1740c-18-4-53-27-78-51-103-101-101-182 6-282 28-26 50-53 48-60-3-15 112-22 126-8 6 6 17 11 23 11 43 0 124 94 124 144 0 9 5 16 10 16 6 0 10 16 10 35s-4 35-9 35c-4 0-11 18-14 40-5 41-50 95-73 86-6-2-33 6-60 20-50 25-59 27-113 14z"/><path d="m1670 1131c0-5 7-14 15-21 9-7 13-15 10-18s0-11 6-19c6-7 8-13 3-14-19-1 32-18 58-18 14-1 28-6 30-11 2-6 37-12 78-15 66-4 77-2 97 17 28 26 13 41-54 53-24 4-45 10-48 15-3 4-29 11-60 15-30 3-57 11-60 16-8 12-75 12-75 0z"/></g><g transform="translate(0 256) scale(.1 -.1)" fill="var(--icon-yellow, #FFD85A)"><path d="m1637 2322-27-28v-170-170l33-32c22-21 43-32 62-32 16 0 39-10 51-21 29-27 171-37 282-20 61 10 83 16 121 38 2 2-2 10-9 18-10 12-10 19-2 27 7 7 12 26 12 44 0 17 7 37 15 44 10 8 15 30 15 65s-5 57-15 65c-8 7-15 29-15 49 0 67-40 93-147 95-64 2-109 10-168 29-109 36-173 36-208-1z"/></g><g transform="translate(0 256) scale(.1 -.1)" fill="var(--icon-blue, #5EC8F8)"><path d="m1785 652c-43-27-95-89-102-123-4-22-9-27-18-19-18 15-25 2-25-45s7-60 25-45c9 8 14 4 19-13 3-13 28-45 55-70 31-29 46-49 39-54-20-11 23-22 94-22 62-1 92 9 69 24-5 3 13 27 41 52 104 98 107 183 11 274-21 20-48 42-60 48-34 17-114 13-148-7z"/></g><g transform="translate(0 256) scale(.1 -.1)" fill="var(--icon-green, #66DDAA)"><path d="m407 630c-14-11-28-20-31-20-23 0-86-98-86-132 0-10-4-18-10-18-5 0-10-20-10-45s4-45 9-45 12-16 15-36c9-43 92-134 124-134 11 0 24-4 27-10 8-13 135-13 135 0 0 6 9 10 19 10 11 0 26 7 35 15 8 8 18 15 22 15s15 7 25 16c22 20 46 12 51-16 3-20 4-20 32 9l30 31h-33-34l7 46c3 25 9 51 13 57 13 21 10 77-4 88-7 6-13 8-13 3 0-4-13 12-28 37-16 24-45 58-65 76-19 17-33 34-29 38 36 35-156 50-201 15z"/></g><g transform="translate(0 256) scale(.1 -.1)" fill="var(--icon-purple, #BFA7FF)"><path d="m2065 2311c-3-5-1-12 5-16s8-10 5-14c-2-5 7-19 20-31 28-26 32-61 10-80-11-9-15-32-15-80s4-71 15-80c21-17 19-67-5-100-27-37-7-58 35-36 49 25 55 53 55 235 0 162-1 168-23 189-24 23-90 31-102 13z"/></g><g transform="translate(0 256) scale(.1 -.1)" fill="var(--icon-slate, #606078)"><path d="m1608 2362-28-17v-288c0-247-2-288-15-292-69-22-108-55-141-122-5-10-70-13-274-13-148 0-271-4-274-8-3-5-49-12-102-15-54-4-100-11-103-16s-24-12-46-16c-115-20-289-172-277-242 2-6-2-14-8-18-13-8-13-82 1-90 6-4 8-13 6-19-3-7 5-26 19-42 13-16 23-34 24-40 0-12 42-54 55-54 5 0 16-6 24-14 26-23 108-64 143-71 18-4 38-11 43-15 6-4 39-11 75-15s70-11 75-15c8-6 220-33 265-33 8 0 20-3 25-7 6-4 36-11 67-14 32-4 60-11 63-16 3-4 23-11 44-15 22-4 45-13 52-21 6-8 15-14 20-14 26 0 49-37 49-76 0-37-5-46-39-73-21-17-46-31-54-31-9 0-18-4-21-9s-34-12-68-16c-35-4-66-12-69-17-11-17-446-23-466-6-30 25-102 58-129 58-23 0-24-2-12-22 7-13 12-27 13-32 0-4 21-27 46-50 25-22 69-69 99-104 29-34 54-61 57-59 9 9 11 67 2 72-5 4-9 13-9 21 0 11 23 14 129 14 72 0 132 4 135 9 3 4 54 11 113 15s110 11 113 15c3 5 19 12 37 15 18 4 50 16 72 27 22 10 44 19 49 19 10 0 63 57 80 87 14 27 16 123 2 123-5 0-10 6-10 13 0 16-62 77-78 77-7 0-15 7-18 15-4 8-14 15-23 15s-28 7-43 14c-16 8-49 18-75 22-27 3-53 10-59 15-5 4-47 11-92 15s-82 11-82 15c0 5-16 9-36 9-48 0-174 19-199 30-11 5-41 11-67 15-27 3-48 10-48 14 0 5-20 12-45 15-25 4-45 11-45 16 0 4-11 11-25 14-28 7-50 27-80 71-23 34-28 156-7 163 7 2 12 9 12 16 0 15 72 86 88 86 7 0 12 4 12 9 0 6 20 13 45 17 25 3 45 10 45 14s28 11 63 15c34 4 67 12 74 17 12 10 504 27 584 20 46-4 47-4 52-44 3-23 11-44 18-49 23-14-7-17-210-22-107-3-197-10-200-15s-20-13-37-16c-50-11-104-72-104-115 1-46 22-71 85-100 28-13 57-27 66-31 9-5 58-11 110-15s99-11 104-16c6-4 61-11 123-15 61-4 112-10 112-14s38-11 85-15 87-10 90-15c3-4 34-11 70-15 36-3 65-10 65-15 0-4 22-10 50-14 27-4 52-10 54-15 3-5 20-12 38-15 58-11 172-75 218-124l45-46v-83-82l-50-51c-56-57-62-59-75-26-31 83-155 146-245 124-71-17-165-97-165-141 0-9-4-19-10-22-5-3-10-30-10-60s5-57 10-60c6-3 10-15 10-25s8-23 17-29c24-13 13-22-36-28-23-3-41-9-41-13s-35-11-77-15c-43-4-84-12-91-18-9-7-133-12-357-15-319-4-343-3-347 13-3 14-6 14-26-7l-22-25 22 1c18 1 24-5 26-27 3-25 6-27 53-27 27 0 49-4 49-10s78-10 215-10c118 0 215 4 215 8 0 5 55 12 122 15 67 4 124 11 127 15 3 5 35 12 70 15 35 4 71 13 79 20 11 8 52 11 141 10 77-2 138 2 156 9 48 18 114 87 121 127 5 27 27 54 96 119 48 47 91 95 94 108s10 24 15 24c22 0 10 146-16 191-14 24-28 51-31 59-9 19-41 50-52 50-5 0-17 9-27 20s-24 20-32 20c-7 0-13 5-13 10 0 6-6 10-13 10s-42 15-78 33c-71 37-125 52-134 37-3-6-15-6-30 0-16 6-34 6-51 0-14-6-23-6-20-2 14 23-50 60-114 67-36 4-69 11-75 15-5 4-55 11-110 15s-104 10-110 15c-5 4-62 11-125 14-63 4-119 11-125 15-5 5-31 11-58 14-39 6-63 15-105 43-2 1 6 12 18 24 16 16 38 23 93 27 40 3 77 9 82 13 18 15 378 17 382 3 5-15 113-19 113-5 0 12-44 52-72 66-80 40-94 187-25 264 11 12 16 22 11 22-8 0 16 16 53 36 7 3 24-4 39-15 15-12 35-21 45-21 9 0 32-12 49-26 27-23 33-25 46-13 12 13 10 19-14 44-33 36-76 65-97 65-11 0-15 12-15 51v52l58-6c31-4 79-10 107-13l49-7-68 76c-39 43-78 77-88 77-16 0-18 11-18 126 0 169 5 175 129 131 116-40 199-47 225-18 11 11 24 21 31 21 16 0 67 55 58 63-10 11-81 8-88-3-8-12-72-13-79-1-3 4-29 11-57 14-28 4-56 10-63 15-6 5-32 13-58 16-27 4-48 11-48 17 0 16-123 9-152-9zm332-1812c15-15 20-33 20-71 0-49-2-54-50-97s-49-46-33-64c15-17 15-20 0-35-18-19-52-1-43 23 3 7-11 26-30 43-18 17-43 46-53 65l-19 34 24 23c13 12 24 33 24 45 0 38 26 54 86 54 41 0 59-5 74-20z"/></g><g transform="translate(0 256) scale(.1 -.1)" fill="var(--icon-stroke, #24324B)"><path d="m1612 2348c-9-9-12-88-12-292 0-155-4-286-8-292s-24-17-45-24c-42-13-84-50-107-96l-16-29-269-6c-360-8-484-24-612-80-24-11-45-19-48-19-13 0-115-109-115-123 0-8-6-17-12-19-23-8-17-167 7-203 34-52 119-125 144-125 6 0 11-5 11-10 0-6 3-9 8-8 6 2 79-20 172-50 8-2 26-6 40-7 14-2 77-11 140-20s134-19 158-22c23-3 42-8 42-13 0-4 11-5 25-2 14 2 31 0 38-5 6-6 32-13 57-17 51-8 100-27 100-39 0-5 4-6 9-3 5 4 28-11 50-32 58-54 58-96 0-146-23-19-46-33-50-30-5 3-9 1-9-3 0-12-89-35-102-27-6 4-8 3-5-3 8-12-165-34-212-26-24 4-32 2-27-6 14-22-271-15-300 8-13 10-20 22-16 26s0 6-8 5c-21-3-61 11-56 19 8 12-132 4-166-10-37-14-98-73-98-94 0-7-6-15-12-17-18-6-18-180 0-185 6-3 12-10 12-16 1-16 39-58 73-80 38-24 120-37 169-25 46 10 138 67 138 85 0 6 6 18 13 25 6 7 13 22 15 33 13 92 14 106 2 120-30 36-7 45 127 46 150 1 288 12 358 29 134 31 245 107 245 166 0 12 6 25 13 28 10 5 10 7 0 12-7 3-13 17-13 31 0 31-74 109-113 118-15 4-24 11-21 16s-1 6-9 3-18-1-22 5c-3 6-17 11-31 11s-33 4-43 9c-10 6-80 20-157 31-349 54-530 104-598 168-33 31-66 96-66 132 0 56 81 180 117 180 7 0 13 4 13 8 0 18 198 72 315 86 105 13 384 22 528 18 46-2 47-3 47-34 1-18 7-44 15-58 26-46 24-47-142-54-306-11-403-45-403-140 0-25 66-103 78-92 3 3 10 1 17-4 6-5 45-15 86-21 135-20 273-39 377-50 56-7 102-16 102-22 0-5 6-7 13-4 15 5 166-17 222-34 151-45 277-93 309-120 6-5 24-19 40-31 60-45 86-95 86-165 0-40-4-62-10-58-5 3-7 0-4-9 6-16-102-136-123-136-11 0-18 14-10 23 1 2-5 10-13 19s-22 26-30 38c-19 29-84 70-110 70-11 0-20 4-20 8 0 12-99-10-136-30-97-52-137-205-76-288 12-16 22-31 22-34 0-13-175-50-193-40-7 4-8 3-4-2 11-11-182-34-243-28-33 3-40 2-25-5 13-6-52-10-195-10-142-1-210 3-200 9 11 7 1 10-35 9-37 0-45-3-30-9 18-8 17-9-6-9-25-1-47-26-34-39 3-3 105-7 228-10 281-5 495 14 663 59 116 31 133 33 159 19 21-11 111-11 155 1 32 9 108 95 119 136 8 29 21 47 49 65 81 54 146 143 158 216 7 44-10 136-29 158-6 7-25 31-42 52-16 22-42 44-56 51-14 6-34 19-45 29-10 10-23 20-29 21-25 8-62 22-80 31-33 16-104 37-200 60-49 11-108 26-130 32s-74 14-115 18c-480 50-617 84-594 145 8 20 70 49 85 39 7-4 9-3 6 3-8 13 282 37 369 30 45-3 57-3 34 2l-35 8 40 2c22 0 53-6 69-14 38-20 148-20 186 0 17 9 30 13 30 10 0-18 59 67 73 105 21 57 21 70 0 136-19 63-62 108-118 126l-40 13v60c0 73 8 76 151 50 85-15 101-15 205-1 164 23 159 16 159 245 0 208 1 206-85 190-78-15-156-3-298 48-47 16-159 17-175 1zm20-135c-4-211-8-231-10-55-1 94 1 172 6 172 4 0 6-53 4-117zm217 97c42-11 105-26 141-34 63-14 64-14 21-15-48-1-129 18-206 48-64 26-51 26 44 1zm-7-36c62-21 106-28 173-30l90-2 6-302-28-11c-46-18-190-21-313-7l-115 14-3 174c-1 96 0 181 3 189 8 19 82 9 187-25zm308-185c0-44-4-68-10-64-17 10-11 135 6 135 2 0 4-32 4-71zm-523-271c-2-24-4-7-4 37s2 63 4 43c2-21 2-57 0-80zm418 72c-3-5-27-9-53-8l-47 1 50 7c28 4 51 8 53 8 2 1 0-2-3-8zm-355-212c132-68 83-277-65-278-163-1-201 253-43 290 52 12 61 11 108-12zm-185-4c-44-44-56-134-31-224 4-14-1-5-12 20s-23 59-28 75c-9 29-11 30-89 35l-80 5 47 9c27 4 63 5 81 2 26-5 35-2 47 15 30 44 62 79 72 79 5 0 2-7-7-16zm304-129c0-16-9-46-19-65-20-34-20-34-13-5 5 17 8 59 7 94 0 61 1 63 13 35 6-16 12-42 12-59zm-736 38c-13-2-35-2-50 0-16 2-5 4 22 4 28 0 40-2 28-4zm-163-9c-38-8-90-9-90-2 0 4 24 7 53 7 28-1 45-3 37-5zm-365-82c-70-38-113-79-141-132-12-25-23-39-24-32-2 56 140 192 200 192 8 0-8-13-35-28zm1177-93c-18-12-54-23-80-25l-47-3 48 9c27 5 58 15 70 24 12 8 27 15 32 15 6 1-5-9-23-20zm-317-8c-16-4-55-4-85-1-50 7-48 7 30 8 54 0 74-3 55-7zm-369-27c-27-9-61-22-75-30l-26-16 24 19c29 22 79 41 106 42 11 0-2-7-29-15zm164-190c60-6 119-23 80-23-35 0-191 27-198 34-4 4 7 5 23 2 17-3 59-9 95-13zm-687-91c16-8 26-17 23-20-9-10-90 44-113 76-34 45-28 46 19 0 23-22 55-47 71-56zm1269 1c20-3 54-13 75-20l38-15-40 6c-50 8-145 35-145 41 0 3 8 3 18 0 9-3 34-8 54-12zm-822-115c47-6 88-14 93-18 11-11-140 8-198 25-34 9-39 12-15 9 19-3 73-10 120-16zm1236-83c24-26 44-56 43-65 0-13-2-12-12 4-7 11-41 49-77 84-50 50-57 60-31 45 18-10 53-41 77-68zm-883 4c23-10 56-31 72-45l30-25-40 22c-21 13-62 33-90 45-27 12-42 22-32 23 10 0 37-9 60-20zm107-219c-13-26-78-68-117-77-18-4-9 4 26 22 29 16 63 41 75 55 24 30 33 30 16 0zm348-41c-9-6-28-25-42-43-14-17-26-29-26-25 0 13 62 78 74 78 6 0 3-5-6-10zm180-20c169-103 13-363-159-264-90 52-94 211-6 264 43 27 121 26 165 0zm272 10c0-13-61-82-68-76-3 3 10 23 29 45 38 44 39 45 39 31zm-1473-82c49-1 52-2 16-5-28-3-47-11-56-24-13-18-14-18-25 6-6 13-23 31-37 41-14 9-25 21-25 26 0 6 15-1 34-16 27-20 47-26 93-28zm-160 25c89-42 116-157 59-244-88-132-296-65-296 96 0 123 125 202 237 148zm1449-170c-10-28-50-70-76-78-17-5-12 2 18 30 23 20 44 46 47 57 4 11 9 17 12 15 3-3 2-14-1-24zm-308-86c-23-10-46-16-52-13-6 2-4 5 4 5 9 1 23 10 33 21 16 19 16 23 1 53-16 31-15 31 19-8l35-40-40-18zm-323-68c-22-4-56-8-75-7h-35l30 8c17 4 50 8 75 8h45l-40-9zm-253-16c-40-2-103-2-140 0s-4 3 73 3 107-2 67-3z"/><path d="m1583 1945c0-38 2-53 4-32 2 20 2 52 0 70-2 17-4 1-4-38z"/></g></svg>
