<svg fill-rule="evenodd" stroke-linecap="round" stroke-linejoin="round" viewBox="0 0 256 256" xmlns="http://www.w3.org/2000/svg"><g transform="translate(0 256) scale(.1 -.1)" fill="var(--icon-blue, #5EC8F8)"><path d="m2e3 1511c-8-10-19-24-22-32-4-8-16-27-27-44-11-16-23-38-26-47-4-10-10-18-14-18-5 0-11-13-15-30-4-16-11-30-16-30s-17-18-26-40c-10-22-21-40-25-40-8 0-48-83-48-99 0-6-4-11-9-11s-12-13-16-30c-4-16-10-30-15-30-7 0-17-23-25-55-9-34-18-55-25-55-5 0-12-25-15-55-4-30-11-55-16-55-12 0-12-167 0-174 5-3 12-27 16-52 3-26 12-53 18-61 42-53 122-133 134-133 7 0 13-4 13-9s14-12 30-16c17-4 30-11 30-16s13-9 29-9c17 0 33-4 36-10 8-13 149-13 173-1 9 5 38 18 63 29s51 28 59 37 24 21 37 26 23 15 23 22 11 24 25 37 25 29 25 37c0 7 5 13 11 13s7 5 2 13c-4 6-6 19-5 27 1 9-9 27-23 40l-25 23v-21c0-12-4-22-10-22-5 0-10-9-10-21 0-53-122-149-189-149-11 0-23-4-26-10-8-13-112-13-120 0-3 5-15 10-27 10-54 0-170 88-183 139-4 14-12 29-18 33-17 10-16 243 1 260 6 6 12 21 12 31s6 31 14 45c23 43 46 99 46 111 0 6 3 11 8 11 8 0 12 7 52 89 14 28 28 51 32 51 5 0 8 6 8 14 0 7 6 19 14 25 8 7 18 26 21 42 4 16 10 29 15 29 4 0 10 8 14 18 6 19 28 54 38 62 3 3 7 8 7 13 2 16 17 11 26-10 5-13 13-23 17-23 5 0 8-6 8-14 0-7 6-19 14-25 8-7 17-24 21-39s10-29 13-32c10-8 32-43 38-62 4-10 10-18 14-18 5 0 11-13 15-30 4-16 10-30 15-30s11-13 15-30c4-16 11-30 16-30s9-4 9-10c0-16 34-90 42-90 4 0 10-16 14-35 3-19 10-38 15-41s9-15 9-26v-21l24 22c24 23 41 71 25 71-5 0-9 9-9 21 0 11-6 33-14 47-8 15-22 44-31 65-9 20-20 37-25 37-6 0-10 5-10 11 0 16-68 156-77 161-8 3-38 54-75 128-12 25-26 48-31 51-5 4-14 17-21 30-15 30-64 36-87 10z"/><path d="m2e3 1315c-7-6-15-22-19-36-4-13-10-26-14-29-18-15-181-340-181-362 0-9-5-18-11-20-20-7-15-188 7-229 45-85 100-127 177-136 29-3 58-10 65-16 8-6 16-6 25 0 6 6 29 13 49 16 37 6 137 96 138 124 0 6 6 13 13 15 16 6 17 175 0 209-14 29-26 61-28 74-1 11-11 35-31 82-8 17-14 36-14 42s-3 11-8 11c-4 0-12 9-17 20-104 209-133 255-151 235z"/></g><g transform="translate(0 256) scale(.1 -.1)" fill="var(--icon-green, #66DDAA)"><path d="m1584 2256c-12-6-28-17-37-24-8-7-46-16-85-21s-75-12-81-15c-5-4-12-2-15 3-4 5-2 12 4 16s8 11 5 16c-8 11-52 12-59 0-3-4-49-11-103-15s-99-11-101-16c-2-6-21-10-42-10s-42-4-45-10c-3-5-28-12-55-16-28-4-50-10-50-14s-18-10-39-14c-36-5-140-52-151-67-3-4-17-10-32-14s-32-13-39-21c-6-8-15-14-20-14-15 0-49-39-39-45 17-11-5-41-86-118-71-67-83-75-94-62-12 14-16 13-42-11-15-15-28-34-28-41 0-8-6-16-14-19s-18-18-21-34-13-34-21-41c-8-6-14-18-14-25 0-8-4-14-10-14-5 0-10-11-10-25s-5-25-10-25c-6 0-10-6-9-12 3-17-11-70-22-84-5-6-12-50-15-97-4-48-11-87-15-87-5 0-9-38-9-85s4-85 9-85c4 0 11-35 15-77 3-42 10-79 14-82 5-3 12-24 15-46 4-22 11-41 17-43 5-2 10-12 10-21 0-21 58-134 71-139 5-2 9-9 9-15s7-18 16-28c11-12 14-24 8-36-4-10-9-22-9-28-3-14-15-47-25-66-5-9-12-44-16-78s-11-64-15-67c-13-8-11-68 3-82 33-33 68 0 75 73 3 30 9 55 13 55s10 23 13 51c11 90 36 126 66 97 9-10 67-13 218-13 156 0 207 3 211 13 2 6 14 12 27 12s26 4 29 9 22 12 41 15c19 4 35 11 35 15 0 5 15 12 34 15 19 4 39 13 46 21s18 15 24 15 18 9 26 20 19 20 25 20 24 13 40 30c16 16 34 30 40 30 14 0 75 62 75 76 0 6 11 21 25 34s25 29 25 37c0 7 4 13 10 13 10 0 80 139 80 159 0 6 4 19 9 29 11 20 23 53 26 67 2 13 14 46 26 67 5 10 12 49 15 88 4 39 11 73 15 76 13 7 11 164-1 164-6 0-10 49-10 126 0 111 2 125 15 114s15-2 15 68c0 45 4 83 9 86 4 3 11 37 15 76 3 39 10 78 15 88 36 70 36 71 11 97-26 28-26 28-56 11zm-429-136c-3-5-15-10-26-10-10 0-19 5-19 10 0 6 12 10 26 10s23-4 19-10zm-80-15c0-5-10-11-22-13-16-2-23 2-23 13s7 15 23 13c12-2 22-7 22-13zm-515-614c0-5 3-16 6-25 7-18-30-23-41-6-3 6-1 10 4 10 6 0 11 7 11 15s5 15 10 15c6 0 10-4 10-9z"/></g><g transform="translate(0 256) scale(.1 -.1)" fill="var(--icon-skin, #F0D8C0)"><path d="m1550 2261c0-5-51-12-112-16-120-8-161-22-133-45 12-10 13-16 4-27-16-18 47-87 71-77 46 19 130 20 147 2 16-18 17-18 44 8 19 18 29 22 34 14s13 0 22 21c8 19 20 44 26 57 15 32-24 72-70 72-18 0-33-4-33-9z"/><path d="m620 2e3c0-6-8-13-17-17-33-12-146-115-212-193-28-33-31-43-21-55 7-9 10-18 6-22-3-4 6-20 21-35l28-29 75 78c41 43 102 101 135 129l60 52-22 21c-25 24-28 36-13 46 8 5 7 11-1 21-13 16-39 19-39 4z"/></g><g transform="translate(0 256) scale(.1 -.1)" fill="var(--icon-slate, #606078)"><path d="m1487 1892c-27-28-27-29-27-173v-145l30-29c17-16 30-25 30-20s11-2 24-14c36-33 38-21 44 208l5 206-22-19c-20-18-22-18-39-3-17 16-20 15-45-11z"/><path d="m2304 968c-28-31-35-53-21-67 16-16 17-269 1-279-15-10-12-76 5-96 15-18 41-5 41 20 0 8 4 14 9 14s13 25 16 55c4 30 11 55 16 55s9 38 9 85-4 85-9 85-12 25-16 55c-3 30-10 55-15 55s-10 9-12 21c-3 21-3 21-24-3z"/></g><g transform="translate(0 256) scale(.1 -.1)" fill="var(--icon-stroke, #24324B)"><path d="m1521 2245c-41-7-83-10-93-7-10 2-18 0-18-5 0-6-39-13-87-18-124-10-136-12-153-18-8-3-31-8-50-11-67-10-155-30-160-36-5-7-53-20-82-23-10-1-18-5-18-9s-8-8-18-8-22-3-26-7c-4-5-11-9-14-9-26-6-52-18-52-24 0-5-14-11-30-15s-30-10-30-15-10-12-22-16c-12-3-26-10-32-15s-27-23-46-39-38-30-41-30c-9 0-97-89-137-138-19-23-42-51-53-63-10-12-19-28-19-36 0-7-3-13-7-13-19 0-103-213-103-260 0-12-4-19-8-16-10 6-16-81-16-224 0-136 5-200 14-200 7 0 17-41 22-92 1-10 6-18 10-18s8-9 8-19c0-11 4-22 9-26 5-3 12-19 16-35 4-17 11-30 16-30s9-5 9-11 14-32 32-58c31-45 42-105 21-120-4-3-9-15-11-26-9-53-15-75-21-75-4 0-8-12-8-27-1-16-5-49-11-75-13-64 2-89 36-60 21 19 31 39 13 28-9-6 9 81 35 168 8 26 14 54 14 61 0 25 29 39 56 27 119-55 452-21 612 62 15 8 31 13 35 12 4 0 11 4 15 9 4 6 27 26 52 45 102 79 116 92 160 150 19 25 37 47 41 50 13 10 66 118 85 171 10 30 22 56 25 59s9 23 13 45c5 22 11 44 14 50 15 23 42 185 43 255 1 50 3 67 8 50 4-14 6 27 3 90-8 202 20 456 60 537 14 29 3 69-19 69-10 0-51-5-92-11zm59-50c0-3-12-49-26-102-22-86-26-129-34-358-12-343-27-438-98-605-126-299-354-472-665-505-68-7-294 11-310 25-5 4 20 68 55 141l64 134 175 19c176 18 212 28 187 51-10 9-48 8-168-5-85-10-157-16-159-14-5 5 1 16 73 134l65 104 223 67c163 49 224 71 226 83 6 27-22 28-104 3-44-14-118-37-167-51-48-15-94-29-102-32-8-4-15-1-15 5 0 13 162 238 285 396 47 61 104 134 127 163 31 40 38 56 30 64-19 19-83-51-270-297-46-60-87-110-90-110-4 0-8 16-9 35-5 112-16 218-23 231-20 31-40-11-30-62 5-25 12-94 15-155l7-109-34-45c-19-25-74-105-122-178-48-72-89-132-90-132-2 0-9 57-15 128-18 195-21 212-37 212-17 0-17-8-3-240l10-175-73-152c-40-84-76-152-80-153-13 0-68 118-99 212-85 262-51 538 97 774 45 73 213 244 238 244 8 0 16 7 20 15 3 8 15 15 26 15 12 0 19 4 16 9-4 5 7 12 24 16 16 4 30 10 30 15 0 8 38 23 53 21 4-1 7 3 7 7 0 5 26 17 58 28 31 10 59 22 62 25 4 5 30 13 80 23 8 2 22 6 30 8 15 6 137 24 350 52 63 9 126 18 140 20 43 6 50 6 50 1z"/><path d="m2e3 1502c-17-15-34-37-37-49-4-13-11-23-16-23-4 0-10-8-14-17-5-18-26-53-36-63-3-3-16-27-30-55-13-27-27-52-31-55-3-3-33-59-65-125s-62-122-67-123c-4-2-4-8-1-13 3-6 2-15-4-22-39-51-53-230-25-331 23-87 117-206 162-206 6 0 11-4 11-9s18-12 40-16 42-11 46-16c17-28 247 2 282 37 7 8 17 14 22 14 16 0 77 67 101 112 13 24 27 45 30 48 18 15 29 160 18 226-6 38-11 77-11 87 0 9-3 15-9 12-5-4-9 7-9 22 0 16-5 34-12 41s-9 12-5 12c3 0-12 34-33 76-22 42-40 83-40 92 0 8-3 12-6 9-4-4-22 24-41 61s-39 69-44 70c-5 2-9 8-9 13s-11 27-24 48c-14 21-22 42-19 45 4 3 2 6-3 6s-18 20-29 45-23 45-27 45-13 7-21 14c-13 13-18 12-44-12zm44-72c3-11 8-20 12-20 3 0 18-21 31-47 14-27 27-50 30-53s14-23 25-45 22-42 25-45c5-5 28-47 65-120 52-100 65-132 65-150 0-11 4-20 9-20 10 0 25-56 21-84-1-11 3-16 9-12 8 5 11-18 11-73 0-50-4-81-11-81-5 0-8-4-5-8 7-11-15-82-25-82-4 0-9-10-13-23-23-91-213-177-328-148-137 35-251 151-252 258 0 20-3 28-8 20-4-7-8 9-8 36 0 34 3 46 12 41 8-5 9 1 5 22-6 31 15 139 25 129 3-4 9 12 13 34 4 23 11 41 16 41s9 9 9 20 5 20 10 20c6 0 10 3 9 8-3 17 14 51 22 46 5-3 9 2 9 12 0 18 40 97 53 102 4 2 7 10 7 18s5 14 12 14c6 0 9 3 5 6-3 3 5 24 19 45 13 21 24 43 24 49 0 5 4 10 9 10s12 8 15 18c6 15 16 34 39 70 12 18 28 15 34-8z"/></g></svg>
