<svg fill-rule="evenodd" stroke-linecap="round" stroke-linejoin="round" viewBox="0 0 256 256" xmlns="http://www.w3.org/2000/svg"><g transform="translate(0 256) scale(.1 -.1)" fill="var(--icon-yellow, #FFD85A)"><path d="m1190 2100c0-5-8-10-19-10-28 0-121-32-121-42 0-4-6-8-14-8-28 0-141-125-161-176-10-27-23-52-29-56-7-5-11-52-11-130 0-118 1-125 32-189 18-37 40-72 48-79s15-18 15-24c1-6 19-23 41-39 22-15 43-35 46-45 4-9 11-20 16-23 5-4 11-38 12-75 2-62 5-69 23-69 11 0 24-3 28-8 12-11 112-8 120 4 4 8 9 8 17 0 15-15 60-14 75 1 9 9 15 9 24 0 13-13 110-17 122-4 4 4 17 7 28 7 19 0 21 7 22 69 1 44 6 71 14 74 7 2 12 9 12 16 0 6 27 38 61 71 49 48 87 105 104 155 1 3 6 14 11 25 14 32 11 229-4 247-7 9-12 20-11 24 9 39-127 214-166 214-8 0-18 6-22 14-9 15-92 46-123 46-11 0-20 5-20 10 0 6-35 10-85 10s-85-4-85-10zm-5-169c0-7-18-20-40-29-22-8-44-21-48-29-4-7-15-13-23-13s-19-11-24-25-13-25-18-25-15-18-22-40-17-40-22-40-8-7-6-16c2-10-3-19-11-22-23-8-5 85 24 130 14 21 25 41 25 45 0 5 24 25 52 46 53 39 113 49 113 18z"/></g><g transform="translate(0 256) scale(.1 -.1)" fill="var(--icon-blue, #5EC8F8)"><path d="m932 657c-26-26-32-41-32-75s-3-42-18-42c-10 0-30-13-45-28l-27-28 33-32c18-18 38-32 45-32 8 0 12-25 12-83 0-81 1-84 33-115s36-32 117-32c77 0 86 2 112 27l28 27v196 196l-28 27c-26 25-34 27-113 27-83 0-86-1-117-33z"/></g><g transform="translate(0 256) scale(.1 -.1)" fill="var(--icon-green, #66DDAA)"><path d="m1067 1152c-29-30-35-69-14-92 6-8 3-7-9 3-18 15-45 17-210 17h-190l-58-60h227 227v-24c0-35 10-55 24-50 7 3 19-2 26-11 10-12 41-15 184-15h172l58 60-23 24c-13 14-20 29-16 35 9 16 28 13 22-3-3-8 1-20 9-26 10-9 14-9 14-1 0 15 501 16 516 1 8-8 14-7 22 3 9 11 6 19-16 40l-28 27-489 5-3 24c-2 13-16 34-30 46-26 22-34 23-207 25l-181 1-27-29z"/><path d="m2e3 732c0-284 5-272-126-272-73 0-85-2-75-14 8-10 9-16 1-21-25-16 7-25 89-25 94 0 102 3 145 61l26 36v205 204l-60 58v-232z"/></g><g transform="translate(0 256) scale(.1 -.1)" fill="var(--icon-purple, #BFA7FF)"><path d="m1e3 1119-3-34-257-5c-141-3-260-8-264-12-4-5 1-17 11-28 17-19 31-20 265-20h246l68 70-31 32-32 31-3-34z"/><path d="m1177 662-27-28v-189-189l-74-76h272c259 0 272 1 272 19 0 10 7 24 15 31 12 10 15 47 15 209v197l-28 27c-25 24-36 27-99 27-40 0-75-4-78-10-3-5-17-10-30-10s-27 5-30 10c-3 6-46 10-94 10-83 0-89-1-114-28zm258-32c4-6-8-10-30-10s-34 4-30 10c3 6 17 10 30 10s27-4 30-10z"/></g><g transform="translate(0 256) scale(.1 -.1)" fill="var(--icon-orange, #FFB84D)"><path d="m1240 2291c0-73 3-90 16-95 34-13 54 22 54 94 0 71-10 90-47 90-22 0-23-3-23-89z"/><path d="m914 2275c-4-9 5-32 19-53 14-20 28-47 31-59 11-36 34-49 50-28 11 16 11 24 0 51-36 86-85 129-100 89z"/><path d="m1558 2231c-34-71-36-94-6-89 23 3 94 121 83 138-18 29-51 8-77-49z"/><path d="m670 2e3c0-19 11-28 72-62 88-49 127-16 44 37-54 34-116 47-116 25z"/><path d="m1810 2e3c-63-30-90-53-90-74 0-29 28-30 63-3 14 11 29 20 34 20 4 0 22 11 38 25 43 36 11 59-45 32z"/></g><g transform="translate(0 256) scale(.1 -.1)" fill="var(--icon-skin, #F0D8C0)"><path d="m2072 997c-35-37-34-462 1-495 13-12 27-19 30-15 9 9 8 493-2 516-6 17-8 16-29-6z"/></g><g transform="translate(0 256) scale(.1 -.1)" fill="var(--icon-slate, #606078)"><path d="m1e3 1158-9-73-255-5c-260-5-310-13-310-47 0-7-5-13-11-13s-9-7-6-15c4-8 2-17-3-20-14-8-13-492 0-500 6-4 8-10 6-14-3-4 8-21 25-37 30-29 31-29 175-32 140-3 144-4 144-25 0-22 47-57 76-57 10 0 14-12 14-39 0-29 7-47 29-70l29-30 330-1h331l26 25c19 20 25 36 25 70 0 33 4 45 14 45 28 0 86 42 86 61 0 17 8 19 97 19 92 0 95 1 80 18-13 14-14 21-5 30s-9 12-80 12c-82 0-92 2-92 18 0 27-42 62-73 62-26 0-27 2-27 53 0 45-4 57-28 80l-28 27h-326-326l-31-31c-26-26-31-38-31-80 0-44-2-49-23-49-34 0-67-28-67-56v-24h-130c-183 0-170-21-170 278 0 313-32 282 290 282h250v-24c0-46 17-74 49-81 18-4 40-20 52-37 57-79 212-77 269 2 11 16 34 31 51 35 32 7 49 35 49 81v24h253c233 0 255-1 270-18 15-16 17-50 17-263v-245l-35-41c-35-41-36-53-4-53 18 0 90 56 87 68-1 4 2 14 6 23 13 30 2 522-11 527-7 2-13 10-13 18 0 32-52 39-310 44l-255 5-9 73c-9 78-13 83-41 52-17-19-31-20-190-20s-173 1-190 20c-28 31-32 26-41-52zm391-528c4-6-8-10-30-10s-34 4-30 10c3 6 17 10 30 10s27-4 30-10zm-345-190v-150h-45-45v72c0 64-3 75-27 100l-27 28 27 28c15 15 27 38 27 50 0 19 5 22 45 22h45v-150zm460-1v-149h-150-150v150 150l300-2v-149z"/></g><g transform="translate(0 256) scale(.1 -.1)" fill="var(--icon-stroke, #24324B)"><path d="m1133 2079c-24-6-43-15-43-20 0-6-4-7-10-4-5 3-10 2-10-4 0-5-7-11-15-13-54-12-151-123-189-218-24-58-35-231-17-255 4-5 14-31 21-57 6-25 22-59 34-74 29-39 106-114 116-114 17 0 53-139 40-155-5-6-10-28-12-50l-3-40-260-5c-279-5-297-9-316-58-11-28-13-520-3-547 12-31 49-40 194-45 137-5 145-6 145-25-1-29 22-48 64-54 36-6 36-6 39-61 5-94-12-90 373-84 216 3 338 9 346 16 7 6 13 31 13 57 0 58 7 69 49 73 20 2 37 10 42 21 5 9 13 25 18 35 7 15 26 17 142 20 134 2 171 10 186 41 10 21 20 541 11 541-5 0-8 6-8 13 0 8-9 22-21 33-19 17-44 19-288 24l-266 5-3 40c-2 22-7 45-12 50-5 7-3 35 5 70 12 51 22 68 72 117 58 58 94 96 92 101 0 1 5 16 11 32 7 17 14 45 17 63 3 17 9 32 13 32s7 41 7 90c-1 50-5 90-8 90-4 0-10 17-14 38-4 20-20 58-36 85-16 26-29 51-29 55-1 13-104 89-159 118-50 25-66 28-170 31-64 1-135-3-158-8zm231-34c129-34 205-96 263-213 35-71 38-82 37-161-1-119-26-179-113-273-82-88-89-100-97-172l-7-56h-53-54v58c0 109 13 242 23 242 19 0 57 43 57 63 0 26-28 57-51 57-25 0-49-38-49-78 0-33 0-33-42-30s-43 4-46 39c-4 44-32 74-61 64-51-16-51-84-1-110 28-15 30-19 30-78 0-34 3-99 7-144l6-83h-55-55l-7 52c-10 70-29 103-101 173-173 168-140 471 64 600 91 57 206 75 305 50zm21-511c0-19-6-30-17-32-18-4-27 46-11 62 14 13 28-1 28-30zm-185-4c0-32-26-43-36-15-9 21 3 45 21 45 10 0 15-10 15-30zm115-207c-8-158-7-153-45-153h-28l-6 108c-4 59-9 124-11 145l-5 37h51 51l-7-137zm148-190c3-5 2-22 0-40l-5-32-177-3c-97-2-182 1-188 6-14 9-18 58-6 69 9 10 371 9 376 0zm-419-109c3-9 6-27 6-42 0-31 26-62 52-62 10 0 38-20 61-45 42-44 45-45 105-45 75 0 100 11 131 56 13 18 31 34 40 34 35 0 60 29 63 73l3 42 506 5 49-49v-249c0-316 14-294-178-290l-137 3-3 28c-4 29-34 52-59 43-28-11-43 14-43 73 0 31-5 62-12 69-9 9-100 12-349 12-390 0-369 5-369-91v-59h-32c-43-1-79-30-71-59 5-21 3-21-135-21-194 0-182-20-182 291v238l59 61h245c213 0 245-2 250-16zm247 6h170l-3-32-3-33h-179-180l-7 29c-10 34-3 50 18 42 8-3 91-6 184-6zm79-117c15-14-54-53-95-53-45 0-105 36-93 56 6 9 178 6 188-3zm-220-473v-210h-94c-65 0-97 4-104 13-13 15-12 374 1 395 6 8 38 12 103 12h94v-210zm455 0v-205l-415-5v203c0 112 3 207 7 211 4 3 97 5 207 4l201-3v-205zm-699 5c7-49-5-75-34-71-22 4-39 81-21 102 24 30 47 17 55-31zm802-11c3-48 1-52-22-56-33-7-36-3-36 52 0 53 6 62 35 58 17-3 20-11 23-54z"/></g></svg>
