<svg fill-rule="evenodd" stroke-linecap="round" stroke-linejoin="round" viewBox="0 0 256 256" xmlns="http://www.w3.org/2000/svg"><g transform="translate(0 256) scale(.1 -.1)" fill="var(--icon-white, #FFFFFF)"><path d="m2e3 2276c0-14-4-28-10-31-19-12-3-43 58-111 34-38 62-72 62-76 0-20-71-3-96 23s-27 26-54 11l-27-16 21-18 21-17-22-1c-12 0-25 5-28 10-5 8-11 7-21-1-8-6-14-8-14-4 0 5-9 0-20-10-27-24-25-45 4-45 13 0 29-7 36-15s17-15 22-15c16 0 37-26 44-54 3-14 10-29 15-32s9-18 9-33c0-52 27-91 64-91 42 0 61 25 69 90 7 55 61 130 94 130 7 0 13 3 13 8 0 7 37 25 78 37 44 13 11 105-39 105-8 0-27 7-43 15-20 11-32 12-41 5-17-14-43-3-51 23-9 28-113 137-131 137-7 0-13-11-13-24zm80-65c0-5-6-14-14-20-16-13-32 2-21 19 8 12 35 13 35 1z"/></g><g transform="translate(0 256) scale(.1 -.1)" fill="var(--icon-yellow, #FFD85A)"><path d="m1213 2167c-4-8-16-16-26-20-9-4-20-14-24-24s-17-27-30-39-23-26-23-31-12-20-26-34c-14-13-30-34-35-46-7-20-16-23-58-23-27 0-53 5-56 10-3 6-37 10-75 10s-72-4-75-10c-3-5-16-10-28-10-33 0-57-34-57-80 0-22 3-40 8-40 7 0 42-72 42-86 0-4 8-14 19-23 10-9 19-20 21-26 7-25 14-41 26-55 14-17 8-90-7-90-5 0-9-11-9-24 0-14-5-28-10-31-6-4-8-11-5-16 4-5 1-9-4-9-6 0-11-11-11-24 0-14-4-28-10-31-5-3-10-28-10-55 0-43 4-51 36-79 29-26 34-35 24-46-27-33 29-14 58 19 41 47 237 96 278 70 13-9 22-19 19-22s2-16 10-29c9-13 13-23 10-23s-1-9 5-20c8-15 17-18 38-14 20 4 33 0 46-15 11-12 25-21 33-21 7 0 13-4 13-10 0-5 20-10 45-10 59 0 109 45 103 91-3 16-1 32 4 35 4 3 8 52 8 110 0 80 3 104 13 104 8 0 24 11 37 25s28 25 32 25c15 0 128 104 128 117 0 7 5 13 10 13 16 0 12 76-5 90-28 23-130 70-152 70-12 0-24 4-27 9-3 4-20 11-37 15-42 8-59 23-59 52 0 14-5 34-12 47-23 45-28 57-28 69 0 30-62 136-83 142-37 10-76 7-84-7z"/></g><g transform="translate(0 256) scale(.1 -.1)" fill="var(--icon-blue, #5EC8F8)"><path d="m1e3 1345c-100-25-128-49-217-180l-40-60 49-43c26-24 75-61 107-83l59-40 39 38c35 34 198 284 198 303 0 9-92 90-100 89-3 0-45-11-95-24z"/></g><g transform="translate(0 256) scale(.1 -.1)" fill="var(--icon-green, #66DDAA)"><path d="m1881 1186c-12-12-21-30-21-39s-4-19-10-22c-5-3-10-17-10-30 0-27-45-85-66-85-8 0-14-4-14-9 0-4-16-11-35-14-38-6-65-27-65-50 0-17 42-57 59-57 43 0 107-46 117-84 3-14 10-26 15-26 4 0 9-19 11-42 2-33 8-45 26-53 12-5 22-14 22-19s9 1 20 14 20 29 20 37c0 7 4 21 9 31 5 9 15 31 22 47 21 47 87 95 131 95 22 0 38 22 38 51 0 31-14 45-55 55-53 13-89 40-109 80-10 21-22 47-27 56-5 10-9 29-9 42 0 43-38 55-69 22zm44-165c-5-18 35-63 68-74 15-6 11-13-28-52-26-25-44-45-40-45 3 0 3-5 0-11-8-13-55 28-55 48 0 7-5 13-12 13-14 0-48 30-48 42 0 4 6 8 13 8 15 0 67 51 67 66s22 34 32 28c5-3 6-13 3-23z"/></g><g transform="translate(0 256) scale(.1 -.1)" fill="var(--icon-purple, #BFA7FF)"><path d="m2e3 2361c-10-10-18-27-18-39s-4-22-10-22c-5 0-10-8-10-17 0-60-77-150-135-160-51-8-75-30-75-69 0-28 4-33 30-39 17-4 30-10 30-15 0-14 90-22 106-9 12 10 20 7 44-16 17-16 30-23 30-17 0 7 5 12 11 12 5 0 8-4 4-9-3-6 4-9 15-8s20 7 20 15c0 7 5 10 10 7 6-4 8-11 5-16-10-15 2-10 47 20 59 40 87 71 65 71-10 0-17 5-17 10 0 6 8 10 18 10s29 11 41 24l23 24-38 18c-65 31-92 70-101 145-3 27-10 49-14 49-5 0-9 7-9 15s-7 15-15 15-15 5-15 10c0 16-23 11-42-9zm42-150c0-5-6-14-14-20-16-13-32 2-21 19 8 12 35 13 35 1zm-119-157c11-14 10-15-11-12-13 1-25 9-28 16-5 17 23 15 39-4z"/><path d="m766 1121c-15-15-70-84-122-152s-141-185-198-259-122-157-145-185c-75-90-69-161 19-247 62-60 101-76 163-64 67 13 100 51 257 301 31 50 106 169 166 265 133 212 129 201 96 233-32 30-188 137-200 137-4 0-21-13-36-29z"/></g><g transform="translate(0 256) scale(.1 -.1)" fill="var(--icon-slate, #606078)"><path d="m1125 1383c-125-26-193-48-216-69-25-24-26-24-43-6-19 22-58 19-78-5-10-13-8-19 11-34l24-20-26-27c-15-16-27-32-27-36 0-5-11-17-25-28s-25-25-25-32-11-23-25-36-25-27-25-31c0-5-12-22-27-38-41-44-73-88-73-98 0-5-13-22-30-38-16-16-30-33-30-38 0-4-16-23-35-41-19-19-35-38-35-43s-11-20-25-33-25-29-25-36-6-17-13-21-21-21-31-38c-11-16-25-34-33-38-7-4-13-14-13-21s-11-23-25-36-25-34-25-47-4-23-10-23-10-28-10-65 4-65 10-65 10-9 10-19c0-31 85-111 125-118 19-3 35-10 35-14 0-5 18-9 40-9s40 4 40 9c0 4 16 11 35 14 36 6 125 87 125 114 0 7 4 13 9 13s11 8 15 18c5 15 16 34 38 66 4 6 19 25 32 42 14 17 28 42 31 57 4 15 10 27 14 27s17 19 30 43c30 58 43 79 61 97 19 19 37 48 51 80 6 14 19 34 29 45s21 31 25 45 15 32 25 40c9 8 20 22 23 30 4 8 16 29 27 45 11 17 23 38 26 48 4 9 10 17 14 17s10 8 14 18c6 20 25 50 44 70 6 7 12 20 12 28s5 14 10 14c6 0 10 6 10 13 0 25 37 50 64 43 31-8 43 10 22 33-9 10-13 21-9 25 7 7-106 117-117 115-3-1-14-3-25-6zm-98-243c-45-72-89-143-97-157-18-32-197-321-300-483-40-63-82-129-92-147-34-55-147-57-176-3-20 39-10 114 21 152 15 18 81 103 146 188 66 85 150 193 186 240 37 47 73 94 81 104 10 15 16 17 27 8 21-18 75 41 57 63-11 13-7 24 24 69 36 53 38 54 119 74 45 11 83 20 84 21 1 0-35-58-80-129z"/></g><g transform="translate(0 256) scale(.1 -.1)" fill="var(--icon-stroke, #24324B)"><path d="m2e3 2348c-6-7-13-31-17-53-14-72-82-174-107-159-4 3-8 0-8-5 0-6-9-11-20-11s-20-4-20-10c0-5-9-10-19-10-25 0-50-35-44-60 3-11 18-21 41-25 21-4 39-10 42-13 3-4 21-15 42-26 40-20 88-98 88-145 0-53 51-92 77-58 6 6 13 36 16 66 8 72 44 117 127 158 89 44 94 50 78 75-7 11-30 26-51 33-56 19-114 61-123 87-3 13-11 25-15 29-5 3-12 27-15 55-9 69-44 105-72 72zm38-97c0-11 4-22 9-25 4-3 11-19 14-35 8-36 70-101 98-101 13 0 18-4 13-12-5-7-2-9 8-6 8 4 21 2 29-3 17-11-13-39-43-39-32 0-103-81-117-133-16-55-22-53-56 16-35 69-67 102-115 116-50 15-51 34-2 54 53 22 81 52 113 124 29 63 49 81 49 44z"/><path d="m1246 2159c-22-5-48-20-58-32-9-12-42-53-73-92-30-38-55-77-54-85 3-32-2-40-23-40-17 0-19 3-9 9 24 15-4 21-126 27-150 7-183-7-183-81 0-26 5-45 11-45s9-6 6-14 1-17 10-20c9-4 13-13 9-22-3-8-2-12 4-9s10-1 10-9c0-9 5-16 12-16 6 0 8-3 5-6-6-7 23-55 51-83 17-18 28-6 12 14-7 9-10 18-7 21 8 9 39-55 33-69-2-7-5-3-5 8-1 23-31-26-31-51 0-8-4-14-10-14-5 0-10-12-10-26 0-16-4-23-12-18-6 4-8 3-5-3 4-6-2-34-13-64-36-97-19-159 42-159 10 0 18-3 18-6 0-6-59-84-70-94-4-3-26-32-50-65s-48-64-52-70c-23-29-81-102-92-116-8-9-15-21-17-26-5-12-74-97-109-133-13-14-23-27-23-30 1-3-8-16-20-30s-40-51-62-83c-21-32-46-62-55-67-8-5-12-10-8-10s-4-16-17-36c-34-50-36-157-3-215 12-22 24-39 27-39 4 0 17-10 31-22 31-29 105-39 190-27 29 5 89 60 116 107 10 17 22 32 26 32s8 6 8 13 20 44 45 81c25 38 45 73 45 77 0 5 3 9 8 9 4 0 16 18 26 40 11 22 23 40 28 40 4 0 8 6 8 13s20 41 44 76c24 34 50 75 56 92 7 16 16 29 21 29s9 6 9 13c0 20 56 98 64 90 4-5 6-3 4 3s36 74 84 151 90 148 94 157c8 21 30 21 43-1 6-10 11-15 11-11s16-4 36-17c47-32 105-34 132-5 22 24 32 87 32 210v85l38 25c20 14 41 27 46 29 10 4 59 46 113 97 41 39 45 89 10 122-13 12-29 22-35 22-7 0-12 4-12 8 0 5-6 9-12 10-44 5-78 16-78 23 0 5-15 9-32 9-26 0-30 3-18 11s12 10-5 8c-49-4-75 17-75 60 0 15-4 31-8 36-5 6-17 37-28 70-21 68-51 125-66 125-5 0-6 5-3 10 7 11 4 11-49-1zm43-78c11-21 34-85 51-142s34-106 38-110c4-3 44-18 90-33 129-40 183-66 180-85-2-9-56-56-121-104l-117-89-1-91c-1-136-11-201-30-205-16-3-62 26-185 116l-72 53-127-31c-204-48-203-49-140 123 25 69 45 131 45 138s-27 55-61 107c-110 171-107 175 90 167l136-6 93 116c52 63 98 115 103 115s17-17 28-39zm-134-776 29-24-23-32c-13-18-72-111-131-208-58-97-144-234-190-306-45-71-126-199-179-283-111-177-132-197-212-197-149 0-209 160-104 275 21 23 80 100 343 445 261 342 226 306 318 332 102 27 113 27 149-2zm90-29 30-24-37 11c-21 7-38 18-38 24 0 19 11 16 45-11zm-521-223c-26-27-27-27-12-3 8 14 18 32 23 40 6 9 10 10 13 2 2-6-9-24-24-39zm316-50c-1-5-12-21-26-38-23-27-24-27-14-5 20 40 41 62 40 43z"/></g></svg>
