<svg fill-rule="evenodd" stroke-linecap="round" stroke-linejoin="round" viewBox="0 0 256 256" xmlns="http://www.w3.org/2000/svg"><g transform="translate(0 256) scale(.1 -.1)" fill="var(--icon-white, #FFFFFF)"><path d="m963 2105c-107-23-189-70-278-160-136-135-199-236-189-300 5-33 4-38-7-27-25 24-29 11-29-104 0-74-4-113-10-109s-10 58-10 129c0 126-4 144-26 125-11-9-15-7-19 5-3 9-7 23-10 31-7 23-24 18-22-7 1-13-2-23-8-23-5 0-10 17-11 38 0 30-7 42-34 62-47 35-48 34-56-45-3-38-11-70-15-70-13 0-11-237 1-245 6-3 10-24 10-45s5-42 10-45c6-4 7-12 4-18-4-7 4-2 18 11s32 22 39 20c12-2 13 24 10 156-2 115 0 157 8 152 7-5 11-46 11-114 1-105 17-172 35-143 5 9 11 8 25-4 15-14 18-14 30 0 7 8 18 15 25 15s19 7 26 16c12 14 15 10 26-32 7-27 10-56 8-65-15-47 202-283 306-332 99-47 226-60 350-37 184 34 385 234 454 450 10 30 21 59 26 65 12 13 11 122-1 130-5 3-10 26-10 51 0 50-20 61-21 12-1-28-4-23-21 30-18 61-18 65-2 83 10 11 12 19 6 19-7 0-12 9-12 20s-4 20-9 20-12 14-16 30c-6 29-19 39-28 23-2-5-2-2-1 5 6 22-79 122-100 117-10-2-44 15-79 41-34 24-68 45-77 45-8 1-28 2-45 4-16 1-61 9-100 18-83 20-100 20-182 2zm199-116c152-32 263-129 325-281 23-55 25-249 4-323-36-128-109-225-198-265-199-88-360-74-535 46-68 47-148 234-148 346 0 102 55 301 74 269 10-15 26-14 26 2 0 18 89 101 124 116 22 9 26 15 18 23-7 7-12 15-12 19 0 12 83 38 150 47 92 13 112 13 172 1z"/><path d="m1466 2051c-16-18-14-22 43-80 34-33 61-64 61-67 0-4 7-15 16-25 8-9 17-23 19-31 15-64 22-69 53-35 27 29 28 49 2 72-11 10-22 25-25 35-3 9-39 47-79 83-71 64-74 66-90 48z"/><path d="m1665 1710c-10-11-13-20-7-20 7 0 12-15 12-35 0-19 5-35 10-35 13 0 13-173 0-186-8-8-6-15 5-24 8-7 15-20 15-29 0-10 11-28 25-41l25-23v21c0 12 3 22 8 22 10 0 12 319 1 326-5 3-9 15-9 26 0 20-1 20-18 5-16-15-20-15-33-1-14 13-17 12-34-6z"/><path d="m1770 1713c0-6 6-13 13-16 17-5 16-322-1-339-13-13-16-68-4-68 16 0 70 66 76 94 5 21 2 34-13 50-17 18-20 37-22 134-3 102-5 114-26 134-13 12-23 17-23 11z"/><path d="m610 1127c0-11 90-101 95-95 3 2-18 26-45 53-28 27-50 46-50 42z"/><path d="m576 1091c-17-18-16-20 15-55 25-29 29-39 19-51-15-19 24-55 96-89 28-13 59-33 69-43 16-15 18-16 13-1-4 9-1 21 6 27 16 13 14 44-3 65-10 12-17 13-27 5-9-7-19-7-35 2-22 11-22 12-4 25 13 10 15 14 5 14-8 0-42 27-75 60-60 59-62 60-79 41z"/><path d="m599 926c13-14 20-29 17-35-6-9 106-111 123-111 4 0 16 9 25 19 19 21 14 41-10 41-8 0-14 5-14 10 0 6-5 10-11 10-21 0-83 34-111 62-35 34-50 37-19 4z"/></g><g transform="translate(0 256) scale(.1 -.1)" fill="var(--icon-purple, #BFA7FF)"><path d="m1146 2102c-4-6-13-9-22-5-22 8-200-16-242-34-105-43-276-205-320-303-13-30-38-69-55-87-30-32-30-34-30-135 0-120 22-209 61-250 14-16 31-28 37-28s19-16 30-36c63-117 280-253 418-261 151-10 288 46 408 166s163 210 175 366c4 44 12 87 19 95 15 17 23 85 12 96-4 4-7 16-7 26 0 30-85 142-101 133-6-5-39 25-225 207-45 44-58 51-102 56-29 2-52 0-56-6zm-83-144c21-10 27-20 27-44 0-35-13-44-66-44-19 0-42-4-52-9-9-5-33-16-52-25-54-23-135-111-156-168-3-10-10-18-15-18s-9-12-9-27c0-56-10-73-42-73-51 0-76 56-49 108 5 9 13 26 17 37s8 22 9 25c2 3 6 15 10 28 4 12 11 22 16 22s9 6 9 13c0 42 188 167 251 167 16 0 29 5 29 10 0 14 41 13 73-2z"/></g><g transform="translate(0 256) scale(.1 -.1)" fill="var(--icon-skin, #F0D8C0)"><path d="m960 2371c0-4-31-12-70-15-38-4-72-11-75-17-4-5-17-9-31-9-13 0-24-4-24-10 0-5-5-10-11-10-13 0-82-31-89-40-3-4-21-15-40-26-75-41-220-181-220-211 0-6-9-18-20-28s-20-24-20-31-6-17-13-21c-14-8-47-73-47-92 0-6-4-11-10-11-5 0-10-10-10-23s-4-27-9-32c-4-6-11-27-14-48-5-34-3-39 28-60 24-17 31-27 24-34-8-8-8-13 0-17 21-13 14-220-8-240-10-9-25-16-32-14-16 3-24-35-13-60 4-9 8-21 9-27 2-13 14-46 26-67 5-10 9-26 9-35 1-10 12-36 26-58 13-22 27-48 30-57 4-10 10-18 15-18s9-6 9-14c0-22 28-40 43-28 9 7 34-9 96-65 76-68 85-73 99-59 15 15 14 18-13 39-74 56-148 146-182 220-10 20-21 37-25 37s-11 18-14 40c-4 22-10 40-15 40s-9 11-9 25 5 25 10 25c6 0 10-11 10-25s4-25 9-25 12-12 15-27c9-37 58-133 68-133 4 0 8-6 8-13 0-31 161-171 243-211 31-16 57-32 57-37s7-9 15-9 15-4 15-10c0-5-4-10-8-10-15 0-62 25-62 33 0 4-6 7-12 7-7 0-25 6-40 14-21 11-29 12-37 2-12-14 50-82 62-70 4 4 7 2 7-4s-4-14-10-17c-15-9-12-25 5-25 8 0 15-4 15-10 0-5 18-13 40-16 22-4 40-11 40-15 0-5 30-9 68-8 37 1 115 1 173 0 59 0 130 4 159 9 39 7 57 7 67-2 10-8 17-8 25 0 7 7 18 12 26 12s29 7 48 15 50 22 70 31c19 8 42 13 50 10 18-7 18-1-2 29-14 22-14 24 6 35 16 9 25 9 35 0 20-17 116 73 98 91-19 19 91 156 112 139 14-12 25 0 46 48 8 17 17 32 21 32s11 18 14 40c4 22 10 40 15 40s9 11 9 24c0 14 5 28 11 32 7 4-2 20-25 43-29 29-36 45-39 86l-3 50-2-57c-1-31-6-60-12-63-5-3-10-19-10-35s-4-32-10-35c-5-3-10-13-10-22 0-16-30-85-41-93-3-3-9-15-13-27-4-13-12-23-17-23-12 0-1 43 12 48 5 2 9 12 9 23 0 10 4 19 9 19s11 18 15 40c3 22 11 40 16 40 6 0 10 16 10 35s3 35 8 35c10 0 12 319 1 326-12 7-12 64 1 64 6 0 10-11 10-25s5-25 10-25c6 0 10-10 10-22 0-21 0-21 26 2 16 16 24 34 23 50-1 14 2 33 6 44 5 11 3 26-3 37-7 10-12 25-12 33 0 20-61 136-71 136-5 0-9 6-9 13 0 8-11 24-25 37s-25 28-25 35c0 12-121 135-134 135-5 0-24 14-43 30-18 17-40 30-47 30s-21 9-30 19c-10 11-32 23-49 27-17 3-46 15-64 25s-65 22-104 25c-38 4-72 11-75 15-7 12-194 12-194 0zm298-109c49-26 62-32 72-32 25 0 125-55 151-82 9-10 21-18 27-18 14 0 132-122 132-136 0-6 11-20 25-30s25-22 25-26c0-16 35-88 42-88 5 0 8-7 8-15 0-25-17-17-35 18-29 55-39 72-72 114-18 22-33 45-33 49 0 11-82 94-93 94-8 0-28 14-84 60-7 6-20 10-30 10s-27 7-37 15c-11 8-29 15-41 15s-25 4-30 9c-36 34-243 50-345 27-79-18-120-20-120-6 0 6 10 10 23 10s27 4 33 9c23 23 340 25 382 3zm-448-42c0-5-5-10-11-10-20 0-84-33-104-55-11-11-36-28-55-37-33-16-130-108-130-123 0-4-14-24-30-44-17-20-34-40-38-46-15-20-42-83-42-98 0-9-4-19-10-22-5-3-10-19-10-34s-3-31-7-35c-5-4-8-18-8-29 0-12-4-24-10-27-14-7-19 60-6 73 6 6 11 21 11 34s4 23 9 23 11 18 15 40c3 22 10 40 14 40s16 18 26 40c11 22 23 40 27 40s9 7 11 15c4 18 167 185 181 185 6 0 18 7 27 15 42 38 140 76 140 55zm345-60c4-6-30-10-94-10-61 0-101-4-101-10 0-5-16-10-35-10s-35-4-35-9-18-11-40-15c-22-3-40-10-40-14s-18-15-40-25c-44-19-190-152-190-173 0-8-4-14-8-14-5 0-17-18-28-40-10-22-22-40-26-40s-11-18-14-40c-4-22-10-40-15-40s-9-11-9-25-4-25-10-25c-12 0-14 43-3 54 4 4 8 13 9 19 2 24 17 57 24 57 5 0 11 13 15 29 3 16 15 37 26 47 10 9 19 22 19 28 0 34 198 196 239 196 6 0 11 4 11 10 0 5 16 12 35 16 19 3 38 10 41 15s21 9 40 9 34 5 34 10c0 6 38 10 94 10 53 0 98-4 101-10zm89-19c3-5 22-12 41-15 19-4 35-10 35-14s17-15 38-25c20-9 46-23 56-30 26-16 156-144 156-153 0-4 7-15 16-25 8-9 16-23 18-31 1-7 9-28 19-47 19-39 21-51 7-51-5 0-10 7-10 15s-4 15-10 15c-5 0-10 9-10 20s-4 20-9 20-12 12-15 26c-4 14-20 40-37 58-16 17-39 46-52 63-12 18-26 33-31 33-6 0-20 10-32 21-25 24-59 45-86 55-10 3-18 10-18 15s-18 12-40 15c-22 4-40 10-40 15s-16 9-35 9-35 5-35 10c0 12 67 13 74 1zm-62-75c169-45 259-104 322-212 16-27 28-51 28-54s4-10 8-15c12-14 31-90 37-145 5-45 55-116 75-104 4 3 8-2 8-11s-4-14-9-11c-17 11-71-63-71-95 0-39-46-173-75-219-13-20-47-59-78-86-49-45-75-61-152-94-91-38-257-50-349-25-211 58-309 155-377 370-12 41-33 83-50 100-37 39-36 54 1 90 16 16 30 37 30 46 0 34 41 169 64 214 104 196 369 309 588 251zm473-357c-4-11-2-19 4-19s11-16 11-35 5-35 10-35c6 0 10-36 10-89 0-50-4-93-10-96-5-3-10-19-10-35s-4-31-10-35c-5-3-7-12-4-19 3-8 1-17-5-21-6-3-11-17-11-31 0-13-4-24-10-24-5 0-10-5-10-11 0-21-34-84-57-104-13-11-23-25-23-30 0-12-71-85-83-85-5 0-18-9-27-20-10-12-21-17-24-12s33 46 79 92c51 51 87 95 90 112 4 15 10 28 13 28 10 0 32 53 39 94 3 20 10 36 14 36 5 0 9 18 9 39 0 22 5 43 10 46 6 3 10 33 10 65s-4 62-10 65c-5 3-10 24-10 46 0 21-5 48-12 58-13 21-4 56 12 46 6-4 8-15 5-26zm-1195-185c0-81-4-123-10-119s-10 57-10 126c0 73 4 119 10 119s10-49 10-126zm-110 4c0-56 5-117 12-135 12-33-1-67-19-49-13 13-17 300-4 292 7-5 11-45 11-108zm130-163c0-14 4-25 9-25s11-18 15-40c3-22 11-40 16-40 6 0 10-9 10-20s4-20 9-20 12-8 15-17c15-41 131-173 152-173 4 0 15-7 24-15 31-28 135-76 178-82 23-3 45-10 48-14 7-12 191-12 198 0 3 5 31 12 61 16 30 3 55 10 55 13 0 8 74 42 89 42 5 0 11 6 14 13 2 6 8 9 12 5 24-22-106-93-190-103-5-1-18-5-28-9-26-12-256-1-270 13-6 6-21 11-34 11s-23 5-23 10c0 6-11 10-24 10-14 0-28 5-31 10-5 8-11 7-20 0-10-8-20-8-36 1-22 11-22 12-4 25 13 10 15 14 5 14-18 0-170 150-170 167 0 7-4 13-9 13-12 0-76 131-73 147 1 6-2 14-8 18-13 8-13 55 0 55 6 0 10-11 10-25zm1190-264c0-5-7-14-15-21s-15-17-15-23c0-11-124-137-135-137-5 0-17-7-27-17-10-9-21-13-25-9-4 3 4 14 17 24 41 30 130 115 130 123 0 10 52 67 63 68 4 1 7-3 7-8zm-266-229c2-4-10-14-27-22-18-7-34-17-37-22-10-13-70-22-70-9 0 6 4 11 10 11 17 0 90 34 90 42 0 10 27 10 34 0zm-429-72c4-6 12-10 18-9 45 5 177-3 177-11 0-6-43-10-109-10-63 0-112 4-116 10-3 6-22 10-41 10s-34 5-34 10c0 13 97 13 105 0z"/></g><g transform="translate(0 256) scale(.1 -.1)" fill="var(--icon-slate, #606078)"><path d="m960 2141c0-5-30-21-67-36-38-15-82-35-99-46-20-12-34-15-40-9-12 12-137-97-129-111 3-5-12-35-33-66-68-100-68-101-36-134l28-29 29 27c16 16 48 58 72 94 77 119 217 183 396 181 104-1 107 0 133 27l26 27-29 28c-36 34-251 75-251 47z"/><path d="m1802 1827c-12-13-22-30-22-38s-5-20-11-26c-7-7-7-13 0-17 5-4 7-14 4-22-3-9 0-20 8-25 11-6 14-41 14-161 0-84 3-158 7-164s3-28-3-48c-9-34-8-41 12-62 29-30 39-30 39 0 0 14 4 28 10 31 12 8 13 13 13 225 0 218-1 221-12 245-5 11-15 35-23 52l-15 33-21-23z"/><path d="m1745 1564c3-141 8-172 20-106 9 58 2 222-11 233-8 6-10-28-9-127z"/><path d="m1731 1124c-17-19-35-33-40-30-11 7-51-22-51-37-1-7-23-34-50-62-32-32-48-56-44-66 3-11-7-25-26-40-78-59-115-98-104-109 8-8 19-8 38 0 39 14 40 14 80-25 32-31 35-37 24-55-10-15-10-22 0-32 6-6 12-22 12-35s3-23 8-23c4 0 12-10 17-22 6-12 19-26 29-32 25-14 96-82 96-92 0-13 53-64 67-64 7 0 13-6 13-12 0-16 141-158 156-158 7 0 14-7 18-15 3-8 15-15 26-15s20-4 20-10c0-17 136-12 150 5 7 8 17 15 22 15 23 0 110 102 115 135 3 19 10 35 14 35 5 0 9 18 9 40s-4 40-9 40c-4 0-11 15-14 34-5 29-40 69-199 228-190 190-223 218-258 218-10 0-20 5-22 11-3 8-10 8-26-2-19-12-24-11-52 16-33 32-37 47-17 67 7 7 16 20 20 28s16 29 26 45c13 21 15 34 8 43-14 18-22 15-56-24zm-61-199c0-8 4-15 9-15 25 0 19-34-13-66-39-39-56-42-81-14-18 20-18 21 25 65 47 48 60 54 60 30z"/><path d="m1621 884c-17-19-20-29-12-37 14-14 67 35 57 52-10 16-18 13-45-15z"/><path d="m370 1075c-9-10-9-15-1-15 6 0 11-6 11-13s16-29 36-48c20-18 40-44 45-57 5-12 19-26 31-31 13-5 39-25 57-45 19-20 40-36 46-36s17-9 25-20 18-20 23-20c15 0 82-33 89-44 5-7 13-5 25 6 16 17 16 19-11 47-17 18-24 31-17 35 14 9 14 26 0 26-44 0-117 56-247 192-28 29-39 35-49 26-10-8-17-8-25 0-16 16-23 15-38-3z"/><path d="m530 1e3c37-42 120-112 158-132 36-19 17 1-45 47-32 24-78 62-103 84l-44 41 34-40z"/><path d="m1e3 800c-4-6 15-10 50-10s54 4 50 10c-3 6-26 10-50 10s-47-4-50-10z"/><path d="m816 759c-30-24-17-49 26-49 13 0 30-6 36-12 9-9 62-13 181-13 165 0 175 2 243 36 10 5 25 9 35 9 14 0 13 4-7 25-25 26-50 31-79 16-11-6-76-7-167-2-82 4-153 4-158-1-14-11-54-10-61 2-9 15-19 12-49-11z"/></g><g transform="translate(0 256) scale(.1 -.1)" fill="var(--icon-stroke, #24324B)"><path d="m960 2350c-8-5-29-10-46-10-58 0-180-42-236-82-16-11-28-17-28-13 0 3-10-3-22-15-12-11-25-20-30-20-22 0-143-119-188-185-19-27-40-56-47-63s-13-20-13-28-4-14-10-14c-5 0-10-7-10-15s-5-15-11-15c-5 0-8-4-4-10 3-5 2-17-3-27-37-71-55-182-55-323 0-127 19-280 35-280 4 0 8-5 8-10 0-6 14-41 31-78 18-37 32-69 31-72 0-3 3-7 7-10 3-3 25-31 48-62 43-57 89-108 99-108 3 0 15-10 27-21 28-27 152-109 165-109 6 0 12-3 14-7 4-10 99-43 121-43 8 0 17-4 19-10 10-28 316-21 423 10 22 6 48 12 58 13 9 1 17 5 17 9s9 8 20 8 20 5 20 10c0 6 6 10 14 10s30 9 48 20l34 20 48-49c29-29 45-54 41-61-18-29 6-99 48-142 23-23 41-46 39-50-1-4 2-7 6-6 4 2 71-60 147-138 181-182 196-190 305-173 60 9 168 107 162 147-2 12 1 22 7 22 13 0 15 73 2 98-5 9-14 28-20 42-7 14-96 111-199 216-170 173-192 191-229 197-23 4-49 4-58 1-11-5-29 6-56 32-45 44-47 52-18 85 17 20 75 131 100 194 58 143 60 411 5 574-21 62-41 100-119 226-11 19-156 165-163 165-2 0-22 13-46 29-41 28-117 65-185 91-74 28-324 50-353 30zm-65-39c-6-5-26-12-45-15l-35-6 35 14c42 17 58 20 45 7zm350-31c85-24 206-84 247-122 17-15 33-28 38-28 11 0 160-162 160-175 0-3 11-22 23-43 30-46 70-155 92-247 19-76 16-200-6-305-35-171-167-375-294-455-16-11-32-22-35-25-9-11-174-88-210-99-176-51-342-34-529 56-81 38-87 42-138 91-19 17-39 32-44 32s-13 8-16 17c-4 9-22 30-40 46s-33 35-33 43-4 14-8 14c-13 0-88 140-102 190-7 25-19 65-26 89-8 27-14 89-14 153 0 360 203 648 531 753 46 15 89 28 94 30 39 13 247 3 310-15zm95 5c32-18 5-19-35 0-23 10-25 13-10 14 11 0 31-6 45-14zm-650-55c-14-11-54-41-90-66-65-46-65-46-30-9 30 31 124 95 140 95 3 0-6-9-20-20zm1e3 -220c23-30 46-66 50-80s-16 9-45 50c-28 41-66 91-83 110l-32 35 34-30c18-17 52-55 76-85zm-1256-10c-42-61-71-91-49-49 13 25 79 109 85 109 2 0-15-27-36-60zm-124-249c-7-29-16-56-19-59-10-9-7 23 5 59 6 19 13 40 15 48 12 38 11-2-1-48zm1533-161v-55l-8 50c-4 28-10 68-14 90l-6 40 14-35c8-19 14-60 14-90zm-53-366c-8-20-18-35-21-32-2 3 3 25 12 49 10 23 19 38 21 32s-3-28-12-49zm-1421-64c21-41 31-68 23-60-20 20-67 111-67 129 0 19 1 17 44-69zm1310-139c-7-35 57-120 90-121 20 0 20 0 0-15-25-19-34-19-34 3 0 26-75 96-95 88-17-6-14 1 20 47 25 33 26 33 19-2zm-1135-86c18-16 39-35 45-40 6-6 24-20 40-33 16-12 24-22 19-22-6 0-20 9-33 20s-26 20-29 20c-9 0-81 69-101 95-14 19-14 19 5 5 11-8 35-28 54-45zm1e3 -11c-52-46-59-43-11 6 21 22 41 37 44 34s-12-21-33-40zm80 28c-3-5 8-19 24-31 38-28 38-31-13-85-49-53-61-56-99-19-37 35-37 35 24 93 46 44 79 65 64 42zm284-184c156-143 288-291 295-329 17-92-96-203-186-184-23 5-77 53-199 175-265 267-257 248-144 358 98 97 108 96 234-20zm-279 18-54-54-34 31c-34 31-60 67-48 67 4 0 24-18 46-40l40-40 47 45c65 62 67 56 3-9zm-236 34c-7-12-97-52-103-46-2 3 20 16 49 30 62 29 62 29 54 16zm-395-90c21-7 19-8-15-8-22 0-51 4-65 8-21 7-19 8 15 8 22 0 51-4 65-8z"/><path d="m960 2118c-25-5-60-14-77-19-18-6-38-7-44-3-8 4-9 3-5-4 5-8 0-12-13-12-12 0-21-5-21-11s-6-9-13-6-19-4-25-14c-7-10-18-19-25-19-13 0-149-135-161-160-21-45-53-99-57-96-2 3-5-5-5-17-1-12-9-48-18-80-54-192 11-435 155-579 164-163 429-214 636-122 17 8 38 14 47 14s16 4 16 8 12 15 28 24c81 48 221 226 222 281 0 10 3 16 8 14 4-3 8 5 9 16 1 12 7 47 14 77 18 85 11 251-12 275-5 5-9 21-9 35 0 90-160 290-275 344-126 59-259 78-375 54zm272-66c387-130 494-632 196-924-158-155-397-195-596-101-64 30-178 134-222 203-177 275-68 660 226 800 138 66 247 72 396 22z"/></g></svg>
