<svg fill-rule="evenodd" stroke-linecap="round" stroke-linejoin="round" viewBox="0 0 256 256" xmlns="http://www.w3.org/2000/svg"><g transform="translate(0 256) scale(.1 -.1)" fill="var(--icon-green, #66DDAA)"><path d="m1293 378c-18-19-33-42-33-53 0-17-1-17-20 0-20 18-20 17-20-13v-32h-188c-168 0-190-2-203-17-20-25-18-58 3-58 10 0 23-6 30-13 19-19 242-17 258 3 7 9 29 15 54 15 32 0 48 6 66 25l24 25 26-25c26-25 27-25 217-25 123 0 194-4 198-10 10-16 32 6 30 29-3 48-15 51-216 51h-188l-3 66-3 65-32-33z"/></g><g transform="translate(0 256) scale(.1 -.1)" fill="var(--icon-purple, #BFA7FF)"><path d="m1183 2330c-79-16-155-62-239-145-137-135-155-196-149-510 3-115 4-217 5-225 0-8-3-39-6-69-28-250 223-521 481-521 205 0 422 180 469 390 25 109 14 677-14 752-86 230-323 372-547 328z"/></g><g transform="translate(0 256) scale(.1 -.1)" fill="var(--icon-slate, #606078)"><path d="m1186 2371c-3-4-26-11-51-14-39-6-79-21-95-37-8-8-43-29-65-39-31-14-142-133-150-161-4-14-10-27-14-30-15-13-32-54-38-95-3-25-10-48-14-51-12-7-12-671 0-678 4-3 11-28 15-55 4-28 11-53 16-56 6-3 10-17 10-31 0-13 4-24 9-24s12-8 15-17c17-49 98-143 121-143 7 0 20-9 30-20 17-19 114-70 145-77 8-2 37-6 63-10 26-3 50-10 53-14 7-12 67-11 80 0 5 5 29 11 54 14 69 7 174 51 200 82 7 8 18 15 24 15 14 0 83 69 101 102 7 12 23 43 36 68 12 25 27 48 33 52 5 3 12 34 14 67 2 34 8 61 13 61 12 0 12 637 0 644-5 3-12 31-16 61-3 30-11 55-16 55s-9 11-9 25-4 25-9 25-12 8-15 18c-21 59-144 188-188 197-15 4-28 10-28 13 0 12-53 33-98 39-23 3-45 10-48 14-3 5-43 9-89 9s-86-4-89-9zm231-155c107-38 165-96 209-206 24-59 25-69 29-378 4-348-1-401-52-495-99-181-368-232-561-107-87 56-152 193-152 320 0 39 1 40 33 40 23 0 41 8 60 28l27 28-33 32c-18 18-42 32-54 32-28 0-33 17-33 106v74h107c107 0 107 0 140 32 42 41 41 54-4 100l-37 38h-104-104l7 48c32 220 179 339 405 327 41-2 94-10 117-19z"/><path d="m1412 1527c-41-42-40-55 6-100 51-50 95-51 140-4 22 23 29 36 22 43-8 8-6 15 5 24 14 12 13 16-11 42-42 43-118 41-162-5z"/><path d="m530 1384c-31-9-60-154-31-154 4 0 11-30 14-67 4-38 11-69 17-71 5-2 10-11 10-20 0-22 80-182 91-182 5 0 9-6 9-13s14-26 30-42c17-16 30-35 30-42s6-13 13-13 31-18 52-40 45-40 52-40 13-4 13-9 10-13 23-17c12-4 24-10 27-14 11-15 138-70 163-70 14 0 29-4 32-10 3-5 19-10 36-10 16 0 29-4 29-10 0-5 18-10 40-10h40v-135c0-124-1-135-18-135-26 0-34-11-21-27 21-24-273-19-295 6-40 44-87-2-61-61 11-28 889-28 900-1 24 55-20 101-60 63-27-25-47-25-70 0-27 29-163 29-190 0-14-16-31-20-82-20h-64l36 31 35 31v124 124h40c22 0 40 5 40 10 0 6 13 10 29 10 17 0 33 5 36 10 3 6 18 10 33 10 15 1 45 9 67 20s48 19 57 20c9 0 23 8 30 19 7 10 23 21 36 25 12 4 22 12 22 17s6 9 13 9c16 0 177 161 177 178 0 6 4 12 9 12 11 0 91 160 91 182 0 9 5 18 10 20 6 2 13 33 17 71 3 37 10 67 14 67 30 0 0 145-31 153-52 12-70-21-70-129 0-41-4-74-9-74s-12-25-16-55c-3-30-10-55-13-55-7 0-42-73-42-88 0-4-9-13-20-20-12-7-18-16-16-21 3-5-3-16-14-26s-20-22-20-28c0-10-67-77-78-77-3 0-16-10-28-21-25-24-59-45-86-55-10-3-18-10-18-15 0-4-16-11-35-15-19-3-38-10-41-15s-18-9-33-9-33-6-40-12c-9-9-59-13-178-13-124 0-167 3-171 13-2 6-13 12-25 12s-31 7-41 15c-11 8-30 15-43 15s-23 4-23 9-8 11-17 15c-10 3-31 15-48 26-16 11-36 23-44 26-19 10-101 90-101 100 0 4-10 18-21 30-24 25-45 59-55 87-3 9-10 17-15 17s-9 11-9 25-4 25-10 25c-5 0-12 17-15 38-3 20-10 45-16 54-5 10-9 58-9 106 0 106-15 131-70 116z"/></g><g transform="translate(0 256) scale(.1 -.1)" fill="var(--icon-stroke, #24324B)"><path d="m1170 2349c-14-5-33-8-42-5-10 2-18 0-18-5s-9-9-19-9c-11 0-21-3-23-7-1-5-21-17-43-28-38-18-174-142-175-158 0-4-11-25-25-47s-25-49-25-60c0-12-3-19-7-17-15 9-18-69-17-413 0-360 3-422 16-414 4 3 8-4 8-14 0-45 132-232 163-232 3 0 25-13 49-29 140-93 375-95 521-4 20 13 37 21 37 18 0-2 27 21 59 53 32 31 57 60 55 63s6 15 16 27c11 12 20 24 20 27s9 25 19 49c37 79 42 155 37 496-5 374-5 372-17 364-5-3-9 6-9 20s-4 26-10 26c-5 0-10 7-10 16 0 71-210 264-287 264-8 0-12 3-10 8 6 8-7 10-138 17-60 3-110 1-125-6zm59-23c-2-2-26-6-54-10-34-4-43-3-30 3 19 9 93 15 84 7zm198-11c28-8 56-22 63-30 9-11-8-7-56 11-99 37-102 47-7 19zm-39-29c154-41 291-190 320-347 18-97 15-615-4-690-36-141-126-253-251-312-101-48-255-48-356 0-130 62-233 190-257 322-16 88-13 624 5 699 57 240 306 391 543 328zm-333-14c-6-5-33-25-62-45-30-22-71-66-99-107-52-77-67-86-34-19 27 53 70 97 139 143 48 33 79 48 56 28zm685-295c5-26 9-74 9-105-2-57-2-57-9 18-4 41-17 98-28 125-33 85-34 91-8 50 14-21 30-61 36-88zm-931-249c0-143-4-194-10-173-15 47-9 375 7 375 2 0 4-91 3-202zm938-135c-2-38-3-7-3 67s1 105 3 68c2-38 2-98 0-135zm3-318c-16-78-19-67-12 50 6 94 6 97 15 53 6-30 5-65-3-103zm-917-81c8-23 23-56 32-74 9-17 14-34 12-37-8-7-65 118-76 167-5 25-7 65-3 90 7 44 7 43 13-30 3-41 13-94 22-116zm858-86c-24-39-28-30-5 13 8 17 18 28 21 25s-4-20-16-38zm-654-162c72-43 105-53 228-73l50-7-38-4c-90-8-238 50-318 125-27 25-49 50-49 55s11-4 25-20c14-17 60-51 102-76zm523 15c0-12-110-68-150-75-28-6-24-2 20 17 30 13 71 33 90 45 40 25 40 25 40 13z"/><path d="m522 1359c-23-36-1-222 36-312 7-16 12-35 12-43s5-12 10-9c6 3 10 1 10-5 0-10 22-44 105-168 14-22 45-53 45-46 0 3 6-1 14-8 46-45 101-85 129-94 9-4 17-10 17-15s9-9 20-9 20-5 20-12c0-6 3-8 7-5 3 4 11 3 17-2 17-13 172-53 251-64 19-2 20-10 20-152v-150l-194-3c-217-3-250-12-205-57 15-14 61-16 441-13 233 1 429 6 435 9 6 4 8 18 4 33l-6 26h-200-201l3 153 3 152 30 3c34 3 147 29 185 42 44 15 55 17 63 16 4 0 11 4 15 10 4 5 23 18 42 27 111 55 255 201 300 304 8 17 19 29 24 26 5-4 7 1 3 10-3 9-2 19 3 22 6 4 10 15 10 26 0 10 4 19 8 19 10 0 34 131 40 218 2 38 0 62-6 62s-12 7-14 15c-3 14-5 14-25 0s-23-25-23-87c0-71-4-88-43-203-39-110-154-254-258-322-24-15-46-30-49-33-14-14-52-30-60-25-6 4-10 1-10-4 0-6-7-11-15-11s-23-4-33-9c-62-34-334-59-316-29 5 8 2 9-10 5-24-9-104 10-183 43-37 16-63 30-58 30 6 0-10 10-35 22-77 38-253 230-232 253 4 5 2 6-3 2-6-3-17 9-24 26-7 18-16 39-21 48-19 37-40 146-40 213 0 66-2 74-23 83-19 9-26 8-35-8zm1485-106c-4-47-12-91-18-97-9-8-10-7-6 5 3 9 9 53 12 98 4 44 10 81 13 81s2-39-1-87zm-1387-235c17-34 41-79 53-98l21-35-21 18c-31 27-90 145-97 192-5 31-4 34 3 13 5-14 23-55 41-90zm1315-26c-22-42-55-89-55-77 0 15 63 125 69 120 3-3-4-22-14-43zm-119-170c-50-46-56-35-9 17 21 24 39 37 42 30 2-6-13-27-33-47zm-981-66c17-12 32-23 35-27 31-34 234-107 345-123 17-3-2-3-41 0-78 4-108 13-202 55-35 16-68 29-73 29s-9 5-9 10c0 6-6 10-12 10-7 0-33 18-58 41-45 41-40 43 15 5zm840-46c-10-16-116-67-155-74-34-6-33-6 10 14 25 12 65 32 90 45 49 27 65 31 55 15zm-398-347c-2-37-3-9-3 62 0 72 1 102 3 68s2-93 0-130zm-229-140c-32-2-84-2-115 0-32 2-6 3 57 3s89-1 58-3zm495 0c-24-2-62-2-85 0-24 2-5 4 42 4s66-2 43-4z"/></g></svg>
