<svg fill-rule="evenodd" stroke-linecap="round" stroke-linejoin="round" viewBox="0 0 256 256" xmlns="http://www.w3.org/2000/svg"><g transform="translate(0 256) scale(.1 -.1)" fill="var(--icon-white, #FFFFFF)"><path d="m1226 1428c-9-12-16-27-16-33s-13-29-29-51c-27-36-28-40-14-56 13-14 13-21 3-33s-8-16 16-25c16-5 37-15 46-20 32-18 46-11 93 48 25 31 49 62 53 67 13 17 22 46 13 40-5-3-12-1-16 5s-10 8-14 5c-5-2-19 7-31 20-13 14-30 25-38 25-9 0-23 7-33 16-16 14-18 13-33-8z"/><path d="m1390 1315c-6-19-17-38-24-42-7-5-18-24-26-43s-19-38-24-42c-7-5-3-15 11-30 28-27 30-25 89 78l45 79-22 18c-30 24-36 22-49-18z"/><path d="m1131 1216c-12-15 25-55 74-80 26-14 31-14 47 1 17 15 16 17-14 38-63 41-96 54-107 41z"/><path d="m1644 423-25-33h75c74 0 154-28 128-44-6-3-12-1-14 5s-26 11-53 12c-56 2-62-13-26-63 26-36 107-42 120-8 4 13 12 22 17 20s14 4 19 13c8 13 2 23-28 51-21 19-35 39-32 44 4 6-1 10-9 10-9 0-16 4-16 9s-30 11-66 13c-64 3-66 2-90-29z"/></g><g transform="translate(0 256) scale(.1 -.1)" fill="var(--icon-yellow, #FFD85A)"><path d="m1649 1774c-22-21-29-23-52-15-33 13-118-8-148-35-12-10-30-19-42-19-14 0-21-7-22-23-1-13-8-27-15-32-23-14-20-56 4-79l23-22 6 30c7 34 85 121 109 121 9 0-3-19-32-47-59-60-69-106-42-188 22-63 14-71-19-19l-22 36-21-21-20-21 42-43c40-40 41-44 25-60-26-26 7-60 34-35 18 17 73 14 73-3 0-12 77-11 85 1 14 22 41 8 63-32 34-65 46-153 34-245-11-78-9-98 9-87 5 3 16 0 24-6 12-10 16-5 21 29 4 23 10 41 15 41 10 0 9 150-1 170-5 8-14 36-21 63-6 26-14 47-18 47-3 0-11 12-18 26-13 27-3 64 17 64 6 0 10 5 10 11 0 5 11 27 25 47s25 45 25 55c0 14 6 11 30-15 17-18 30-38 30-45s4-13 9-13c26 0 81-164 81-242 0-26 5-50 10-53 12-8 13-49 1-73-12-23-31-153-25-164 3-5 12-4 19 2 8 7 18 9 24 6 10-7 21 16 21 45 0 10 5 19 11 19s9 18 8 45c-2 24 0 47 4 51 10 10 9 84-1 84-4 0-6 18-4 40s0 46-6 53c-5 6-13 30-17 52-12 71-63 163-129 233-53 57-72 83-81 112-7 22-43 71-56 75-32 11-53 43-39 60 11 13 11 19-1 30-13 13-18 12-40-11zm-34-239c0-40 0-40-40-43-34-2-42 1-50 20-17 38 9 70 54 66 35-3 36-4 36-43z"/></g><g transform="translate(0 256) scale(.1 -.1)" fill="var(--icon-blue, #5EC8F8)"><path d="m1590 2373c-21-6-70-86-70-114-1-36-35-72-63-65-46 11-64-3-106-86-31-61-38-84-30-94 15-18 64 19 78 58 5 15 15 28 20 28 6 0 11 7 11 15 0 20 17 19 49-5 16-10 42-22 58-25 17-3 59-21 94-41l64-36 40 44c22 24 48 47 58 51s20 15 24 24c4 10 11 21 16 25 20 13 14 89-8 102-11 6-22 14-25 17s-22 12-44 20c-21 8-41 20-43 26-3 7-11 13-17 13-7 0-27 11-46 25s-36 24-39 24c-3-1-13-3-21-6z"/><path d="m1514 1596c-24-24-44-51-44-61 0-23 82-105 105-105 9 0 35 17 56 39 53 53 53 86-1 135-51 46-63 45-116-8z"/><path d="m884 1279-28-29 25-27c19-22 20-24 2-10-12 11-23 14-27 8-4-5-2-12 3-15 5-4 1-23-10-46-10-21-19-44-19-50 0-5-4-10-10-10-19 0-10-39 15-64 13-13 40-30 60-37 19-7 35-17 35-22s6-7 13-4c6 2 48-14 91-36l80-39 40 44c23 24 46 53 52 63 10 17 14 18 39 7 26-12 30-11 67 25l38 37-27 28c-51 49-301 182-318 168-12-10-23-8-54 13l-39 26-28-30z"/><path d="m1710 1e3c0-14-5-38-12-54-6-15-12-32-12-38-2-17-80-124-92-125-6 0-19-9-29-20-33-36-78-44-126-21-24 12-51 21-60 21-10 0-20 4-23 9-4 5-23 5-47 0-33-8-45-6-58 5-13 12-68 16-281 20-284 6-283 6-307-44-26-56-25-62 14-102l37-38h204c159 0 203-3 199-12-4-13-13-14-56-4-33 8-54-10-40-35 5-10 16-19 24-19 20 0 19-6-5-41l-21-28 42-46 42-45h257 257l24 26c15 16 23 35 21 49-3 18 4 28 29 41 73 37 213 193 257 286 49 101 50 107 18 137l-24 22-6-37c-4-20-16-53-27-73-10-20-19-40-19-44 0-35-131-197-159-197-5 0-16-8-23-18-12-16-59-42-77-42-15 0-105 134-93 138 7 2 19 10 26 18 8 8 19 14 25 14 20 0 117 109 145 161 30 58 48 148 27 135-7-5-21 0-32 10-18 16-19 16-19-9zm-591-511c-12-26-29-35-29-16 0 6 5 10 12 10 6 0 9 3 5 6-6 6 15 35 21 29 1-1-3-14-9-29z"/></g><g transform="translate(0 256) scale(.1 -.1)" fill="var(--icon-green, #66DDAA)"><path d="m870 775 34-35h212c176 0 214-3 224-15 17-21 33-19 58 8 24 26 20 37-13 37-12 0-30 9-40 20-17 19-31 20-264 20h-245l34-35z"/></g><g transform="translate(0 256) scale(.1 -.1)" fill="var(--icon-purple, #BFA7FF)"><path d="m1546 2101c-22-24-21-26 24-41 22-7 40-17 40-22 0-13-28-9-33 5-3 7-7 5-12-8-18-49-50-112-72-141-13-17-23-36-23-42 0-7-4-12-9-12s-17-22-27-50c-10-27-21-50-25-50-8 0-23-43-27-77-1-6-11-14-21-18-12-3-18-12-15-20 3-7-3-16-14-19-11-4-25-23-32-46-7-22-16-40-20-40s-25-35-46-77c-20-43-47-91-59-108-42-57-41-84 2-101 21-8 46-19 55-24 32-18 46-11 93 48 25 31 49 62 53 67 21 26 20 45 0 59-12 9-19 19-15 22 4 4 17-4 29-17l23-24-23-47c-12-27-26-48-31-48-4 0-14-18-21-39-7-22-19-42-26-45-8-3-14-13-14-22 0-13-6-15-27-9l-28 7 29-31c28-29 31-30 48-14 10 9 18 13 18 8 0-13 34 36 69 100 45 81 60 97 85 89 20-6 20-6 4 13-10 11-18 24-18 30 0 5-9 18-20 28-121 110-53 320 102 314 43-2 63 2 76 15 17 15 21 15 32 1 7-8 16-12 22-9 5 4 5 11-1 18-8 9-2 28 19 67 112 210 113 192-16 262-124 68-129 69-148 48zm176-158c-11-16-23-38-26-50-4-13-11-23-15-23s-14-18-21-39c-7-22-19-42-26-45-17-6 2 49 28 83 10 13 18 28 18 33 0 13 42 68 53 68 4 0 0-12-11-27z"/><path d="m1335 2063c-19-20-38-47-41-60-4-13-9-23-14-23-4 0-15-17-24-37-9-21-29-60-45-88-15-27-47-86-71-130s-46-82-50-85-13-22-21-42c-7-21-17-38-21-38s-8-6-8-13-11-28-23-47c-36-52-38-75-13-99l23-21 13 40c7 22 16 40 20 40s20 26 36 58c16 31 47 86 70 122s48 82 55 103c7 20 16 37 20 37s9 8 13 18c3 9 21 44 40 77 65 114 108 204 101 214-10 18-22 13-60-26z"/><path d="m1071 1256c-9-11-2-22 34-54 43-38 47-40 72-27 15 8 31 12 37 9s2 2-8 10c-11 9-24 16-29 16-4 0-28 13-52 30-35 24-45 27-54 16z"/><path d="m2e3 942c-14-15-29-40-33-57-4-16-10-34-14-40-3-5-14-30-23-55s-48-83-86-130c-63-76-68-87-55-100 14-13 23-7 85 60 38 41 69 81 69 88 0 6 4 12 9 12s17 21 27 48c10 26 21 49 25 52 11 8 38 140 30 145-5 2-20-8-34-23z"/><path d="m1740 441c0-6 5-13 10-16 18-11 10-24-17-28-26-4-26-4 4-6 38-1 100-35 84-45-6-4-11-3-11 3 0 13-89 26-101 14-5-5 0-26 12-51 21-42 22-42 75-42 48 0 54 2 54 21 0 11 5 17 10 14 6-3 10-15 10-25 0-25-34-34-105-28-53 4-54 4-38-14 10-11 30-18 53-18 21 0 43-7 50-15 17-21 56-19 80 5 20 20 30 110 12 110-4 0-14 16-21 35-13 36-57 75-85 75-9 0-16 5-16 10 0 6-13 10-30 10-16 0-30-4-30-9z"/></g><g transform="translate(0 256) scale(.1 -.1)" fill="var(--icon-orange, #FFB84D)"><path d="m1655 1701c-3-6-10-9-14-7-4 3-20-7-35-23l-26-28 21-19c46-40 60-125 26-152-7-5-33-12-58-15-44-6-47-5-53 19-4 15-2 32 5 40 9 11 9 20 0 38-11 19-10 29 4 56 16 31 16 33-2 52-19 19-20 19-55-20-46-51-55-103-30-177 21-62 14-71-17-21-27 43-29 130-4 166 16 24 16 24 0 11-9-7-17-10-17-5 0 4-13-5-30-21-31-29-43-96-20-110 5-3 7-11 4-18-2-7 9-26 26-42 16-16 30-25 30-20s15-5 33-22c97-92 207-73 298 51 33 45 40 126 15 174-21 40-92 106-101 93z"/></g><g transform="translate(0 256) scale(.1 -.1)" fill="var(--icon-skin, #F0D8C0)"><path d="m1e3 513c-11-15-23-36-26-45-6-16-24-18-177-18-107 0-170-4-170-10 0-5-9-10-19-10s-34-14-52-31c-29-27-31-31-16-46 14-15 19-15 50 1 27 12 66 16 175 16 88 0 143 4 147 10 5 8 11 8 20 0 10-8 23 0 54 33 72 75 77 86 54 109-20 20-20 20-40-9z"/></g><g transform="translate(0 256) scale(.1 -.1)" fill="var(--icon-slate, #606078)"><path d="m1546 2231c-19-20-24-31-16-36s0-20-25-45l-37-38 31-13c17-8 31-17 31-21 0-5 6-8 13-8 6 0 41-14 77-32s70-32 75-33c6 0 24-10 42-23 28-20 32-20 44-6 11 14 10 19-10 35-21 17-22 21-10 54 7 19 18 35 25 35 6 0 17 6 23 13 14 18-21 52-43 44-9-4-18-2-21 3-6 10-131 85-157 95-8 3-26-8-42-24z"/><path d="m1504 1606c-58-57-57-79 4-139s78-59 137 4c56 60 56 84-5 142-53 50-81 49-136-7z"/><path d="m1e3 1488c-8-13-18-32-22-43-14-39-51-85-69-85-53 0-97-99-64-145 12-15 12-23-1-47-21-43-2-55 36-24 16 14 32 26 35 26 19 0 177-99 167-105-8-5-7-12 6-26 31-35 4-34-70 3l-74 37-23-25c-28-29-35-64-14-64 8 0 15-5 15-10 0-6 11-15 24-20s50-24 83-42c93-53 102-51 147 33 23 43 24 44 70 41 66-4 111 41 102 101-5 30-2 44 10 58 23 26 1 58-25 36-9-8-22-12-28-10-7 3-13-2-13-11s-4-16-9-16c-16 0-133 64-180 98-24 18-49 32-56 32-25 0-63 39-58 60 3 11 9 20 13 20s17 26 29 57c21 55 21 57 3 76-18 18-19 18-34-5z"/><path d="m667 779c-48-39-51-88-10-131l27-28h136c124 0 139-2 155-20 10-11 24-20 31-20s14-5 16-11 17-17 34-24c30-12 33-11 78 27 25 22 46 45 46 51s9 20 20 32l20 21-24 23c-24 23-29 23-233 22l-208-2-12 27c-8 18-9 31-3 39 5 7 7 15 3 18-14 14-40 6-76-24zm453-168c0-15-16-22-34-15-25 9-19 24 9 24 14 0 25-4 25-9z"/><path d="m1775 621c-3-6-47-38-96-71l-90-60h-239c-153 0-240-4-240-10 0-5-5-10-11-10s-9 6-6 14c3 7 0 19-6 25-12 12-77-42-77-65 0-7-8-10-18-8-22 6-79-50-62-61 6-4 17-2 23 4 7 7 14 7 23 0 8-7 14-7 19 1 4 7 124 10 361 10h355l48 55-42 5c-50 6-60 29-20 48 16 6 50 31 76 55 48 42 49 42 29 60-13 12-22 15-27 8z"/><path d="m570 364c-18-25-29-51-26-59s1-17-4-20c-16-10-11-51 8-74 17-21 18-21 680-22 629 0 665 1 677 18 11 15 11 21-1 34-13 14-83 16-661 18-356 1-649 4-652 6-2 3 0 5 6 5s13 18 17 41c5 29 12 43 26 46 25 7 25 15 2 36-28 25-38 21-72-29z"/><path d="m1734 288c8-14 24-18 64-18 76 0 64 23-15 30-55 5-59 4-49-12z"/></g><g transform="translate(0 256) scale(.1 -.1)" fill="var(--icon-stroke, #24324B)"><path d="m1582 2353c-15-6-54-79-50-96 4-24-41-97-57-91-8 4-15 10-15 15 0 19-50 8-64-13-15-26-68-121-100-183-12-22-24-41-28-43-5-2-8-8-8-14s-45-91-100-189c-55-99-100-183-100-189 0-5-5-10-11-10-5 0-7-4-4-10 3-5 2-10-3-10-6 0-12-10-16-22-3-13-12-32-21-43-8-11-26-40-38-65-19-35-30-46-57-51-19-4-40-15-47-25-18-24-16-84 3-105 14-15 13-22-13-70-15-30-31-55-36-57-14-7 58-67 113-95 30-15 84-43 119-62 72-40 92-36 120 21 8 16 17 31 21 34 3 3 9 13 13 23 7 19 32 23 42 7s50-11 73 9c25 21 40 75 24 85-11 6 63 147 80 154 5 2 6 7 4 11-3 4 5 20 17 35 22 27 24 28 67 16 25-7 67-10 95-6 42 5 54 2 67-13 31-36 61-134 62-201 1-66-30-200-45-200-5 0-9-6-9-13 0-24-108-139-122-131-4 3-8 1-8-5 0-22-65-32-103-16-20 8-48 15-61 15-15 0-30 8-36 20-10 19-21 20-335 20-370 0-365 1-365-80 0-72 18-80 175-80h135l54-42c65-51 65-53 21-111l-35-46-173-3c-166-3-175-4-210-28-37-26-57-57-57-90 0-11-4-20-8-20-14 0-1-64 16-77 12-10 160-13 663-13h648l25 24c26 23 35 56 16 56-5 0-10 9-10 20 0 80-68 130-175 130-48 0-85 21-85 49 0 7 34 26 53 30 14 2 157 137 157 149 0 4 15 23 33 42 19 19 42 58 52 85 11 28 22 52 26 55s14 48 23 100c43 257-6 438-162 595-27 28-54 66-60 85-7 20-32 53-58 76l-47 41 44 79c24 43 53 99 64 123l19 43-33 30c-30 27-32 31-17 47 9 10 16 25 16 34 0 10 8 17 20 17 14 0 25 11 34 30 7 17 15 28 18 25s9 7 13 22c7 28 8 27-62 83-7 6-16 10-20 10-5 0-39 18-77 40-68 40-79 43-104 33zm123-87c50-27 92-51 94-52 8-7-11-55-24-60-14-6-189 88-200 106-6 10 24 62 34 58 3-2 47-25 96-52zm-49-98c41-23 74-46 74-50 0-16-31-69-38-66-21 10-149 79-160 86-16 11 15 72 37 72 7 0 47-19 87-42zm-196-39c0-5 5-7 10-4 6 3 10 3 10-2 0-4 15-14 33-22 17-8 34-17 37-20 3-4 43-26 90-50 101-53 115-64 97-83-7-7-20-31-30-53s-33-64-50-93l-32-54-60-2c-186-5-280-221-157-358l24-27-19-28c-11-15-32-54-49-86-49-97-64-111-99-96-17 8-32 16-35 19-6 6-40 26-108 62-30 15-66 37-82 48-15 11-33 20-38 20-19 0-22 18-8 51 21 50 97 183 110 191 6 4 8 8 4 8s22 51 57 114c36 63 65 119 65 124 0 6 4 12 8 14 9 3 64 100 108 189 15 30 30 56 33 59 4 3 15 24 25 48 18 39 56 61 56 31zm198-441c82-39 117-150 73-236-87-171-342-110-341 81 1 145 130 219 268 155zm183-220c22-24 45-58 51-75 7-18 15-33 19-33 7 0 35-86 44-133 2-9 7-22 10-28 10-15 8-221-2-228-4-3-9-13-10-21-13-97-83-230-163-310-54-55-144-120-164-120-7 0-106 147-106 157 0 4 24 21 53 37 49 27 132 115 150 159 4 11 15 36 25 56 21 45 25 278 5 303-7 8-10 18-6 21 3 4 1 7-5 7-7 0-12 6-12 13s-9 23-20 35c-26 27-25 30 9 61 32 29 61 81 61 109 0 18 8 32 18 32 2 0 22-19 43-42zm-783-246c75-44 161-91 190-107 54-29 56-32 46-59s-33-19-204 74c-205 112-204 112-196 144 9 36 10 35 164-52zm45-146c37-20 67-42 67-48 0-18-43-88-54-88-17 0-250 127-254 138-1 5 4 17 13 25 8 9 15 19 15 24s7 18 15 30l15 22 58-33c31-18 87-50 125-70zm135-326c2 0-18-20-45-45l-47-45h-215c-228 0-251 5-251 51 0 42 13 44 291 42 145-2 265-3 267-3zm171-34c15-8 44-33 63-54 35-38 158-215 158-227 0-3-128-5-285-5-190 0-285 3-285 10 0 10 22 48 42 75 5 6 29 42 54 80 61 92 73 105 109 121 40 18 109 17 144 0zm-279-94c0-5-6-17-14-27-14-19-14-19-50 0-49 26-45 35 14 35 28 0 50-4 50-8zm706-263c29-29 37-45 38-75l1-39-641-3c-508-2-643 0-646 10-8 22 10 72 38 103l26 30 156 5c86 3 345 5 574 5h418l36-36z"/><path d="m1509 1601c-40-40-41-101-3-136 61-56 164-12 164 70 0 27-8 44-29 66-22 21-39 29-66 29s-44-8-66-29zm104-13c27-22 31-61 7-91-26-33-56-34-87-5-57 54 17 143 80 96z"/></g></svg>
