<svg fill-rule="evenodd" stroke-linecap="round" stroke-linejoin="round" viewBox="0 0 256 256" xmlns="http://www.w3.org/2000/svg"><g transform="translate(0 256) scale(.1 -.1)" fill="var(--icon-coral, #FF8A65)"><path d="m2203 2e3c-16-17-20-27-13-34 8-8 6-15-5-24-13-11-15-83-15-605 0-325-3-595-7-598-3-4-12-2-20 5-11 9-19 7-36-10-19-19-19-22-4-22 12 0 17-8 17-30 0-28-3-30-34-30-19 0-38 5-41 10-8 12-382 14-389 1-3-4-40-11-82-15s-84-12-95-19c-14-9-21-9-30 0-16 16-4 43 18 43 10 0 30 6 45 14 30 16 146 36 207 36 23 0 41 5 41 10 0 13 153 13 166 1 12-13 129-17 130-5 1 5-9 21-21 36-21 25-29 27-141 33-123 7-265-5-324-28-8-3-31-8-50-11-32-5-99-68-93-87 1-4-9-17-22-29-23-22-24-25-8-42 15-17 15-19 0-36-24-26-21-45 9-73l26-24h439c241 0 439 3 439 8 0 4 6 7 13 7 8 0 19 12 26 28 8 15 18 35 23 45 6 12 5 23-3 33s-8 14 0 14c7 0 11 21 11 55 0 30-4 55-10 55s-10 70-10 190 4 190 10 190 10 37 10 90-4 90-10 90-10 116-10 329v329l-31 26c-19 17-43 26-64 26-26 0-34 4-37 21-3 21-3 20-25-3z"/></g><g transform="translate(0 256) scale(.1 -.1)" fill="var(--icon-yellow, #FFD85A)"><path d="m595 1373c-41-11-55-34-55-88 0-28-3-54-6-57-8-8-10-158-3-158 4 0 9-9 12-20 5-18 14-19 162-19 87 0 161-4 164-8 9-14 153-31 179-22 21 8 22 12 22 158 0 173-1 175-82 186-29 4-59 12-66 18-14 11-293 20-327 10z"/><path d="m1e3 779c-4-6 2-21 14-33s18-25 15-29c-4-3 5-9 20-13 14-3 26-12 26-20s5-14 12-14c9 0 9-3 0-12-8-8-15-8-27 2-26 22-17 0 20-44 43-53 44-72 3-107-18-16-27-28-20-29 6 0 12-10 12-23s4-27 9-32c5-6 11-26 13-45 4-43 35-52 74-21 15 12 32 21 39 21s18 7 25 15c11 13 15 13 29 2 18-16 103-57 117-57 26 0 35 45 33 151-2 107-2 110 24 137 27 28 27 29 5 28-34-1-31 35 4 45 26 7 77 54 78 72 0 16-30 18-60 4-16-9-44-18-62-22s-42-13-53-19c-36-23-65-26-65-8 0 13-6 10-26-10l-27-26-46 28c-25 15-61 31-79 35s-45 13-60 21c-33 17-39 17-47 3zm165-219c0-22-4-40-10-40-5 0-10 18-10 40s5 40 10 40c6 0 10-18 10-40z"/></g><g transform="translate(0 256) scale(.1 -.1)" fill="var(--icon-blue, #5EC8F8)"><path d="m320 2e3c0-12-9-17-27-17-45 0-75-11-69-26 3-7 1-16-5-19-5-4-7-11-4-16 4-5-1-19-9-31-14-20-16-101-16-682v-659l87-87h230c126 0 312-3 411-7 181-6 182-6 182-29 0-35 14-36 45-4 27 28 28 31 11 48-15 17-15 20-1 32 18 15 20 61 3 78-8 8-8 15 1 26 14 16-10 68-44 96-8 7-13 16-10 20 7 11-57 40-87 40-14 0-28 3-32 7-3 4-14 8-24 10-170 26-301 30-417 11-38-6-81-11-95-12s-31-5-38-10c-35-22-37 5-39 591-2 400-6 580-14 589-6 7-8 17-5 22s-3 17-14 27c-18 16-20 16-20 2zm504-1266c3-4 38-12 78-15 40-4 87-14 103-21 17-7 45-16 63-20s32-13 32-21 5-14 12-14c9 0 9-3 0-12-8-8-15-8-24-1-7 6-43 14-80 18-37 3-70 11-73 16-8 13-412 12-420-1-3-5-24-10-46-10-36 0-39 2-39 29 0 30 34 41 126 41 18 0 36 5 39 10 8 12 222 14 229 1z"/></g><g transform="translate(0 256) scale(.1 -.1)" fill="var(--icon-green, #66DDAA)"><path d="m465 2189c-33-5-61-13-63-19-2-5-12-10-21-10-35 0-61-42-61-98 0-52 0-52-32-52h-32l64-66v-570-570l30-29c31-29 95-44 129-29 9 4 26 6 37 5 23-2 98 55 90 68-6 10-167-7-190-20-11-6-22-7-27-2s-8 287-7 654l3 644 47 10c25 5 50 13 54 18 4 4 17 7 30 7 32 0 55 10 48 22-3 5 2 18 12 29 17 18 16 19-17 18-19-1-61-5-94-10z"/><path d="m365 510-29-30h309 309l-58 60h-251-251l-29-30z"/></g><g transform="translate(0 256) scale(.1 -.1)" fill="var(--icon-purple, #BFA7FF)"><path d="m620 2210c0-5-20-10-44-10-52 0-78-8-70-22 3-5-2-18-12-29-20-23-28-22 124-9 117 9 327-2 359-19 10-5 38-14 63-20 56-13 72 0 42 32-12 13-22 28-22 34 0 12-32 20-125 29-36 4-65 11-65 15 0 5-56 9-125 9-77 0-125-4-125-10z"/><path d="m623 1923c-24-2-43-8-43-12 0-5-9-11-21-14-17-5-20-12-17-44l3-38 201-5c127-4 207-10 215-17 8-6 31-14 51-18 34-6 38-5 53 25 15 28 15 34 1 55-15 23-28 28-116 41-25 3-49 10-55 14-12 10-213 19-272 13z"/><path d="m605 1650c-3-5-18-10-32-10-16 0-27-7-30-20-3-11-9-20-14-20-15 0-10-27 7-41 12-10 62-13 199-14 128 0 186-4 197-12 8-7 40-15 71-19 50-6 57-4 64 12 3 11 11 22 17 26 8 5 8 8 0 8-7 0-14 9-17 20s-13 23-24 26c-10 3-26 10-37 16-10 5-43 12-72 15-30 3-54 10-54 14 0 13-267 11-275-1z"/></g><g transform="translate(0 256) scale(.1 -.1)" fill="var(--icon-orange, #FFB84D)"><path d="m595 1373c-41-11-55-34-55-88 0-28-3-54-6-57-8-8-10-158-3-158 4 0 9-9 12-21 4-16 12-20 39-17l33 3 1 95c0 52 1 113 2 134l2 39 150-5c85-3 153-2 156 3s18-1 34-13c28-22 29-26 29-116 1-89 0-92-19-82-11 6-68 13-128 17l-108 6-37-33c-20-17-35-35-33-39 3-4 49-8 102-9 54-2 101-6 104-10 8-13 153-30 176-21 20 7 21 15 23 157 2 173 1 176-81 187-29 4-59 12-66 18-14 11-293 20-327 10z"/><path d="m1178 660c-43-44-42-193 0-233l28-27 32 33c31 32 32 36 32 118 0 80-2 87-28 112-34 33-31 33-64-3zm12-100c0-22-4-40-10-40-5 0-10 18-10 40s5 40 10 40c6 0 10-18 10-40z"/></g><g transform="translate(0 256) scale(.1 -.1)" fill="var(--icon-skin, #F0D8C0)"><path d="m976 2182c-3-5 6-19 19-32s22-27 19-32c-3-4 9-11 26-14 17-4 33-10 36-15 2-5 24-14 47-20s44-14 47-18c3-3 19-14 35-23l30-17 3-652 2-653 60 58v622 621l-50 47c-28 26-66 54-85 62s-35 18-35 23-15 13-32 16c-18 4-35 11-38 15-8 13-77 23-84 12z"/></g><g transform="translate(0 256) scale(.1 -.1)" fill="var(--icon-slate, #606078)"><path d="m1720 2210c0-5-19-10-41-10-48 0-172-21-179-30-3-4-27-13-55-20-27-7-52-16-55-19-3-4-16-12-30-19s-37-20-53-28c-24-13-31-13-55-1-39 19-76 41-82 47-10 12-91 31-101 24-16-9 37-60 87-83 92-44 84 22 84-713 0-356-3-648-8-648-4 0-18 7-30 16-29 20-80 35-86 25-8-12 65-78 98-91 24-9 32-8 45 4 13 14 17 14 33-1 17-16 20-15 53 17 39 38 38 52-5 40l-30-9v645 644l33 20c17 10 37 23 43 29 7 5 30 15 52 21 23 6 44 15 47 19 3 5 24 12 48 16 23 4 48 12 56 19 10 7 85 11 236 11s226-4 236-11c8-7 33-15 57-19l42-7v-654c0-575-2-654-15-654-8 0-15 4-15 9 0 6-8 10-17 9-10 0-58 3-107 8l-89 7 28-35c26-34 33-36 101-43 73-7 73-7 76-38l3-31 97 113 1 585 2 584 24 26c24 26 24 26 3 26-20 0-22 5-22 50 0 28-4 50-10 50-5 0-10 6-10 14 0 30-141 76-235 76-24 0-47 5-50 10-3 6-50 10-106 10-59 0-99-4-99-10z"/><path d="m237 2e3c-9-4-26-22-37-40-19-32-20-53-20-721v-689l80-72h352 351l-23 25c-13 14-20 25-15 25s-4 14-20 30l-29 30h-293-293v649c0 421 4 659 10 677 8 21 7 31-5 44-9 10-15 23-13 31 4 15-20 21-45 11z"/><path d="m1675 1853c-22-2-44-9-49-14-6-5-21-9-34-9-58 0-102-22-102-51 0-15 6-29 13-32 18-7 70 4 78 15 3 5 47 12 98 15 50 3 94 10 97 15 7 11 71 10 79-2 3-5 32-10 65-10 66 0 85 19 52 52-19 20-202 33-297 21z"/><path d="m1665 1553c-27-2-52-8-55-13-3-4-30-12-60-16-53-9-55-10-58-42-3-30-2-32 30-32 19 0 38 4 44 10 17 17 195 31 306 24 96-6 108-5 114 11 19 48-131 76-321 58z"/><path d="m1690 1250c-8-4-48-13-88-19s-81-17-92-23c-20-13-27-52-11-62 12-8 123 14 140 28 9 7 75 11 179 11 126 0 166 3 170 13 7 22-19 42-54 42-19 0-34 5-34 10 0 12-188 13-210 0z"/><path d="m1705 570-29-30h-120c-117 0-121-1-148-27-38-37-38-80 1-117l30-29 6 108 429 5c331 4 430 8 434 18 2 6 10 12 18 12 19 0 18 14-4 33-12 11-22 13-28 7-7-7-20 0-39 20l-29 30h-246-246l-29-30z"/></g><g transform="translate(0 256) scale(.1 -.1)" fill="var(--icon-stroke, #24324B)"><path d="m695 2203c-41-3-218-23-245-28-8-1-28-7-43-14-16-6-32-11-37-11-19 0-50-53-44-76 12-49-3-74-45-74-29 0-44-7-64-30l-26-29-1-681c0-729-2-710 49-753 20-16 56-17 450-17h428l7-62c10-81 20-94 53-68 14 11 30 20 35 20s16 7 24 15c21 21 51 19 81-5 14-11 32-20 39-20 8 0 14-4 14-10 0-16 47-11 54 6 3 9 6 40 6 70v54h424c476 0 473 0 496 70 8 25 10 227 8 712l-3 678-27 25c-16 15-39 25-57 25-54 0-61 8-61 65 0 48-19 85-43 85-3 0-18 5-34 12-31 13-28 12-133 27-95 13-265 13-355 0-38-5-77-10-85-11-8 0-19-4-25-8-12-10-99-33-103-29-1 2-6 0-10-6-4-5-32-23-62-38s-62-33-70-38c-12-8-28-3-70 25-30 20-60 36-67 36s-13 4-13 9-15 12-32 16c-18 4-61 15-95 25-34 11-97 22-140 25s-91 7-108 9c-16 1-48 1-70-1zm217-58c94-14 278-78 278-97 0-4 6-8 13-8 6-1 22-9 35-19l22-19v-646c0-407-4-647-10-651-5-3-38 5-72 19-176 68-353 100-513 92-126-6-168-10-181-18-5-3-31-8-59-9l-50-4v660 659l57 18c81 24 263 48 328 42 30-3 99-12 152-19zm1e3 5c99-11 207-38 216-52 7-11 8-1307 2-1314-2-2-53 4-113 13-145 21-425 23-425 2 0-4-19-9-42-12-50-7-186-51-240-77-34-16-39-16-50-2-10 12-10 16 0 19 8 3 11 30 10 91l-2 87-6-75c-4-41-6 206-6 549l1 625 55 33c171 103 369 140 600 113zm-1630-778v-592l27-28c20-20 26-35 25-62-4-65-3-65 183-51 209 17 388 7 528-30 35-9 38-13 35-42l-3-32h-423-424l-19 24c-18 22-19 48-19 692 0 439 3 669 10 669 6 0 10 7 10 15 0 16 35 35 58 32 11-2 13-115 12-595zm2e3 571c27-24 28-1355 1-1385s-863-28-863 2c0 24 20 34 115 54 75 16 317 38 350 32 11-2 58-7 105-10 47-4 96-9 110-12 39-7 62 16 66 65 1 27 11 52 23 65 21 22 21 30 21 614v592h27c14 0 35-7 45-17zm-1434-1172c24 0 41-4 38-9s7-9 23-9c57 0 199-52 205-76 8-32-6-39-55-27-119 31-383 41-580 24l-79-7v36c0 34 3 37 39 47 21 5 47 7 57 3 11-4 15-3 10 5-8 14 70 20 204 16 52-1 115-2 138-3zm1055 2c4-4 32-5 63-4 32 1 54-1 50-7-3-5 15-9 40-10 55 0 72-13 67-49l-5-28h-261c-215 0-275-3-334-17-98-24-103-24-103 12 0 24 5 31 28 36 15 3 41 12 57 19 33 14 120 30 148 26 9-1 17 2 17 8 0 14 221 27 233 14zm-665-125c18-9 30-9 55 1 73 30 73 30 80-46 11-109 9-193-5-193-6 0-30 11-54 25-46 27-56 26-116-12-20-12-39-19-42-15-3 6-1 203 3 259 1 13 30 6 79-19z"/><path d="m1304 1725c0-132 2-185 3-117 2 68 2 176 0 240-1 64-3 9-3-123z"/><path d="m1677 1839c-7-4-32-10-57-14-77-11-133-36-118-51 10-10 23-11 58-3 158 36 390 46 390 17 0-5 7-2 16 6 8 9 13 20 10 25-11 18-271 35-299 20z"/><path d="m1697 1538c2-5-13-8-34-8-45 0-153-26-168-41-6-6-3-15 8-27 13-12 20-14 25-5 8 13 109 36 165 37 20 1 37 5 37 10 0 11 167 0 201-12 29-11 49-5 49 13 0 17-22 25-68 25-20 0-32 4-25 8 6 4-35 7-92 7s-101-3-98-7z"/><path d="m1304 1145c0-77 2-107 3-67 2 40 2 103 0 140s-3 4-3-73z"/><path d="m1670 1234c-51-8-155-37-168-47-21-17 13-45 36-30 51 31 227 51 377 42 48-3 60-1 60 11 0 24-201 39-305 24z"/></g></svg>
