<svg fill-rule="evenodd" stroke-linecap="round" stroke-linejoin="round" viewBox="0 0 256 256" xmlns="http://www.w3.org/2000/svg"><g transform="translate(0 256) scale(.1 -.1)" fill="var(--icon-coral, #FF8A65)"><path d="m305 1676c-53-23-113-98-120-150-8-53 9-132 31-140 8-3 14-12 14-20 0-63 184-86 254-32 94 71 102 213 17 297-57 56-131 73-196 45z"/><path d="m2127 1679c-145-56-171-261-44-351 51-36 170-33 220 5 20 15 37 35 37 43 0 7 4 14 9 14 15 0 34 88 28 131-15 113-148 197-250 158z"/><path d="m354 1163c1-40 11-63 27-63 18 0 6 94-12 98-13 2-16-5-15-35z"/><path d="m2177 1194c-11-12-8-59 5-72 25-25 39-14 36 30-3 41-22 60-41 42z"/><path d="m2166 1e3c-19-27-21-58-3-58 15 0 49 58 41 71-9 15-22 10-38-13z"/><path d="m2078 952c-34-21-41-37-23-52 11-9 18-7 32 9 9 12 23 21 30 21 19 0 27 21 12 31-17 11-18 11-51-9z"/></g><g transform="translate(0 256) scale(.1 -.1)" fill="var(--icon-yellow, #FFD85A)"><path d="m664 1661c3-5-1-14-9-21-12-10-15-40-15-149 1-189-8-181 198-181h160l1 164c1 105-2 167-9 171-6 3-8 11-5 16 4 5-60 9-160 9-94 0-164-4-161-9z"/><path d="m814 1187c-10-28 0-82 16-82 11 0 15 12 15 44 0 44-19 68-31 38z"/><path d="m778 1e3c-16-29-15-60 2-60 10 0 50 63 50 79 0 23-36 10-52-19z"/></g><g transform="translate(0 256) scale(.1 -.1)" fill="var(--icon-green, #66DDAA)"><path d="m1223 1673c-13-2-23-8-23-13s-12-15-27-22c-60-28-92-154-59-231 16-38 76-94 112-103 106-27 234 48 234 136 0 11 5 20 10 20 12 0 13 47 1 54-5 3-12 21-15 41-7 35-57 95-81 95-7 0-15 5-17 12-4 12-97 20-135 11z"/><path d="m1272 1153c2-35 7-48 18-48 24 0 21 89-3 93-16 3-18-3-15-45z"/><path d="m1222 997c-34-35-41-57-18-57 17 0 66 56 66 76 0 22-13 17-48-19z"/><path d="m1118 929c-10-5-18-7-18-3s-9-1-20-11-17-22-14-26c15-24 94 4 94 33 0 20-16 23-42 7z"/></g><g transform="translate(0 256) scale(.1 -.1)" fill="var(--icon-purple, #BFA7FF)"><path d="m1571 1657c-21-23-21-31-19-188l3-164h180 180l6 318-55 57h-136c-130 0-138-1-159-23z"/><path d="m1727 1194c-11-11-8-82 3-89 19-12 37 14 36 52-1 36-21 55-39 37z"/><path d="m1740 1e3c0-5-6-7-13-4-22 8-61-54-46-72 11-13 15-11 33 19 21 33 46 39 46 11 0-15 25-19 34-5 9 15-18 61-36 61-10 0-18-4-18-10z"/><path d="m1804 958c-8-12 42-58 64-58 21 0 13 37-13 54-29 19-41 20-51 4z"/><path d="m2078 951c-34-20-41-36-23-51 11-9 18-7 32 9 9 12 23 21 30 21 17 0 17 15 1 27-9 7-22 5-40-6z"/><path d="m1603 941c-31-15-46-51-22-51 21 0 79 41 79 56 0 17-15 16-57-5z"/><path d="m1440 915c-17-21-9-26 45-32 37-5 45-3 45 11 0 10-9 16-24 16-14 0-28 5-31 10-9 14-21 12-35-5z"/><path d="m1922 914c-20-22-5-34 44-34 32 0 44 4 44 15 0 10-10 15-30 15-16 0-30 5-30 10 0 14-13 12-28-6z"/></g><g transform="translate(0 256) scale(.1 -.1)" fill="var(--icon-slate, #606078)"><path d="m1554 1667c-2-7-3-91-2-187l3-175h180 180l3 174c2 119-1 178-9 187-16 20-347 20-355 1zm266-177v-90h-105-105v90 90h105 105v-90z"/><path d="m652 1658c-8-8-12-63-12-180v-168h41c26 0 38 4 34 11-4 6-6 74-6 152 2 139 3 143 28 169l27 28h-50c-28 0-55-5-62-12z"/><path d="m912 1643c26-27 27-32 29-169 1-78-1-146-5-153-5-7 4-11 27-11 44 0 43-7 39 193l-3 167h-56-57l26-27z"/><path d="m772 1e3c-12-20-7-50 9-50 18 0 32 42 17 56-11 12-15 11-26-6z"/><path d="m688 944c-28-15-39-54-16-54 19 0 78 44 78 58 0 16-29 15-62-4z"/><path d="m947 933c-22-21 45-62 69-42 15 12 0 44-16 34-5-3-11-1-15 5-7 11-28 13-38 3z"/><path d="m1120 930c-8-5-17-7-21-5-3 3-14-4-24-15-16-18-16-20-1-26 24-9 63 3 70 23 9 21-5 35-24 23z"/><path d="m525 920c-11-18 16-40 51-40 39 0 54 18 28 34-27 15-71 19-79 6z"/></g><g transform="translate(0 256) scale(.1 -.1)" fill="var(--icon-stroke, #24324B)"><path d="m322 1665c-199-61-160-355 47-355 121 0 191 82 179 209-11 110-118 179-226 146zm89-26c161-54 129-299-39-299-169 0-196 251-33 300 36 11 34 11 72-1z"/><path d="m2103 1652c-130-72-123-269 11-330 36-16 109-15 150 2 35 14 99 84 90 98-3 4 0 8 6 8 8 0 11 20 9 58-7 146-146 232-266 164zm168-35c134-90 44-303-116-273-104 20-145 159-74 250 41 52 131 63 190 23z"/><path d="m1564 1661c-2-2-4-82-4-178v-173l173 2 172 3v168c0 102-4 171-10 175-11 7-324 10-331 3zm316-171v-150h-144-144l-3 38c-2 20-2 88-1 150l4 112h144 144v-150z"/><path d="m666 1652c-7-12-9-322-2-330 10-9 318-4 325 5 3 4 4 80 1 168l-5 160-157 3c-86 1-159-2-162-6zm298-74c8-68 8-157 0-197l-6-31h-134-133l-3 136c-2 75-1 138 1 140s64 4 136 4h132l7-52z"/><path d="m1205 1646c-156-69-115-322 54-334 134-10 216 75 196 203-5 39-51 125-64 123-3-1-19 4-34 10-37 16-115 14-152-2zm146-29c96-64 105-178 20-250-60-50-170-32-211 36-80 130 69 296 191 214z"/><path d="m360 1155c0-22 5-35 13-35 9 0 12 11 9 35-2 19-8 35-13 35s-9-16-9-35z"/><path d="m820 1149c0-24 4-38 10-34 6 3 10 22 10 41s-4 34-10 34c-5 0-10-18-10-41z"/><path d="m1280 1149c0-24 4-38 10-34 6 3 10 22 10 41s-4 34-10 34c-5 0-10-18-10-41z"/><path d="m1730 1156c0-19 5-38 10-41 6-4 10 10 10 34 0 23-4 41-10 41-5 0-10-15-10-34z"/><path d="m2190 1149c0-23 3-40 6-36 9 9 11 68 2 73-4 3-8-14-8-37z"/><path d="m2165 1e3c-13-26-13-31-1-31 7 0 17 12 20 26 10 38 0 41-19 5z"/><path d="m788 1e3c-9-17-13-30-8-30s16 14 25 30c20 39 5 39-17 0z"/><path d="m1750 1e3c0-12 28-48 33-42 8 8-11 50-23 50-5 0-10-4-10-8z"/><path d="m1697 1e3c-10-16-14-30-8-30 10 0 41 39 41 52 0 17-17 6-33-22z"/><path d="m1221 989c-13-17-20-33-16-37 7-7 55 46 55 61s-16 5-39-24z"/><path d="m1834 934c15-14 31-22 35-19 7 7-39 45-54 44-5 0 3-11 19-25z"/><path d="m2088 942c-38-23-36-36 2-17 17 9 30 20 30 25 0 13 0 13-32-8z"/><path d="m685 929c-16-10-24-19-17-19 15 0 72 28 72 35 0 10-26 3-55-16z"/><path d="m1616 935c-8-8-19-15-25-15s-11-4-11-8c0-5 7-9 15-9s15 4 15 8 9 11 20 14 20 11 20 16c0 14-17 11-34-6z"/><path d="m952 922c2-9 5-15 8-13s15-1 28-8c34-18 26 2-9 21-29 17-30 17-27 0z"/><path d="m1113 917c-18-6-33-15-33-20 0-4 10-5 23-1 12 4 28 7 35 7 6 0 12 6 12 14 0 7-1 12-2 12-2-1-18-7-35-12z"/><path d="m540 900c20-13 73-13 65 0-3 6-23 10-43 10-28 0-33-3-22-10z"/><path d="m1450 900c0-6 16-10 35-10 45 0 45 14 0 17-19 2-35-2-35-7z"/><path d="m1920 901c0-15 60-25 73-12 6 6 9 11 7 12-50 8-80 8-80 0z"/></g></svg>
