<svg fill-rule="evenodd" stroke-linecap="round" stroke-linejoin="round" viewBox="0 0 256 256" xmlns="http://www.w3.org/2000/svg"><g transform="translate(0 256) scale(.1 -.1)" fill="var(--icon-blue, #5EC8F8)"><path d="m905 1747-45-44v-427-427l43-45c38-40 48-46 99-51l56-6 102 96v429 429l-39 41c-36 40-42 42-105 46l-66 4-45-45z"/><path d="m1429 1742-50-50 6-852 43-42c41-42 44-43 108-43h66l44 48 44 49v420 419l-44 46c-41 44-47 47-105 51l-61 4-51-50z"/></g><g transform="translate(0 256) scale(.1 -.1)" fill="var(--icon-green, #66DDAA)"><path d="m1698 1383-28-29v-255c0-235 1-257 18-272 38-34 43 6 40 306l-3 278-27-28z"/><path d="m2250 1208c0-48-4-89-9-92-4-3-11-37-15-76-4-38-11-70-17-70-5 0-9-11-9-24 0-14-4-27-9-31-5-3-12-19-16-35-4-17-10-30-13-30-8 0-42-74-42-90 0-6-4-10-9-10s-12-8-15-17c-3-10-12-28-19-40-19-32-230-243-244-243-17 0-9-27 17-55 30-31 42-31 66 0 10 14 24 25 30 25s45 37 88 83c109 115 122 132 153 200 10 20 21 37 25 37 10 0 53 92 50 107-2 6 2 14 8 18 5 3 10 17 10 31 0 13 5 24 10 24 6 0 10 11 10 24 0 14 4 27 9 30 4 3 6 16 4 30-3 13 0 27 6 30 6 4 11 29 11 57 0 27 5 49 10 49 6 0 10 18 10 41 0 26-4 39-12 37-6-2-28 14-49 36l-38 41-1-87z"/></g><g transform="translate(0 256) scale(.1 -.1)" fill="var(--icon-purple, #BFA7FF)"><path d="m1380 1755c0-8-3-15-7-15-5 0-14-12-20-27-16-34-19-873-3-873 6 0 10-11 10-24 0-39 27-54 52-28 16 16 19 24 10 34-15 19-17 844-2 883 8 22 7 31-6 46-21 23-34 24-34 4z"/><path d="m1655 1750c-14-16-15-24-6-51 7-21 11-163 11-429s-4-408-11-429c-9-27-8-35 6-51 22-24 35-26 35-5 0 8 3 15 8 15 28 0 32 63 32 470s-4 470-32 470c-5 0-8 7-8 15 0 21-13 19-35-5z"/><path d="m1173 1318-33-34v-200c0-198 0-201 23-223 44-40 48-17 45 248l-3 242-32-33z"/></g><g transform="translate(0 256) scale(.1 -.1)" fill="var(--icon-slate, #606078)"><path d="m1175 2370c-3-5-30-10-60-10s-56-4-59-9c-3-4-29-11-58-15-51-7-270-105-284-127-3-6-16-14-27-20-12-5-31-15-41-21-30-19-206-195-206-205 0-5-11-20-25-33s-25-29-25-36c0-6-6-17-14-24-15-11-89-156-91-175-1-13-14-45-26-67-5-10-9-27-9-37 0-11-4-22-10-26-5-3-7-12-4-19 3-8 1-17-5-21-6-3-11-30-11-60s-4-57-10-60c-13-8-13-242 0-250 6-3 10-26 10-50s5-47 11-51c6-3 9-17 6-30-2-14 0-27 4-30 5-3 9-21 9-40s4-34 9-34c8 0 22-30 25-55 3-21 78-164 92-175 8-7 14-18 14-24 0-7 11-23 25-36s25-28 25-33c0-10 197-206 226-224 10-7 37-22 59-34 22-11 42-24 45-28 7-10 75-41 89-41 6 0 11-4 11-10 0-5 11-10 24-10 14 0 28-4 31-10 3-5 28-12 56-16 27-4 52-11 55-15 3-5 27-9 55-9 27 0 49-4 49-10s52-10 135-10 135 4 135 10 22 10 49 10c28 0 52 4 55 9 3 4 28 11 55 15 28 4 53 11 56 16 3 6 17 10 31 10 13 0 24 5 24 10 0 6 4 10 10 10 16 0 90 34 90 42 0 3 13 9 29 13 16 3 37 15 47 26 9 10 22 19 28 19 7 0 20 9 29 21 17 19 17 22 3 38-9 10-14 20-11 23 15 15-26 30-43 16-9-8-33-22-52-32-39-18-72-38-80-47-10-10-78-39-93-39-9 0-19-5-22-10-3-6-17-10-30-10s-25-4-27-10c-1-5-31-13-65-16-35-4-63-11-63-15 0-5-70-9-155-9s-155 4-155 9c0 4-28 11-62 15-35 3-64 11-66 16-2 6-12 10-22 10-11 0-40 11-66 25s-55 25-65 25c-11 0-19 4-19 10 0 5-11 12-25 16-14 3-25 10-25 15s-6 9-13 9c-8 0-24 11-37 25s-28 25-33 25c-13 0-157 143-157 156 0 5-14 23-30 39-17 16-30 34-30 41s-9 19-19 26c-11 8-23 26-26 41-4 15-11 30-16 33s-9 16-9 30c0 13-4 24-10 24-5 0-13 18-16 40-4 22-10 40-15 40s-9 10-9 23-5 28-11 34-14 41-16 77c-3 36-10 66-14 66-12 0-12 237 0 244 4 3 11 38 15 78s11 77 16 82c6 6 10 20 10 32s7 35 15 50c8 16 15 39 15 52 0 12 3 22 8 22 4 0 15 18 25 40 9 22 21 40 27 40 5 0 10 9 10 19s7 21 15 25c8 3 15 12 15 19 0 8 9 22 20 32s20 23 20 28c0 14 132 147 146 147 6 0 20 10 32 23s38 29 57 37 35 17 35 21c0 9 95 56 133 65 15 3 30 10 33 15s18 9 33 9 33 6 40 13c9 9 72 12 246 12s237-3 246-12c7-7 25-13 40-13s31-4 34-10c3-5 14-10 24-10 21 0 158-66 167-81 3-6 16-14 27-20 42-17 62-34 147-119s102-105 120-148c5-12 17-25 25-28 8-4 15-10 15-15 0-15 34-89 42-89 3 0 9-15 13-32 6-32 18-64 36-101 5-9 12-39 15-65s10-56 15-67 10-74 11-140c2-66 6-118 9-115s18-9 33-27c48-57 56-39 56 118 0 86-4 139-10 139-5 0-10 22-10 49 0 28-5 53-11 57-6 3-9 17-6 30 2 14 0 27-4 30-5 3-9 16-9 30 0 13-4 24-10 24-5 0-10 8-10 18 0 18-80 183-101 209-13 15-32 46-46 73-9 18-202 210-229 228-10 6-29 16-41 21-11 6-24 14-27 20-9 14-189 101-209 101-10 0-17 4-17 9s-25 13-55 16c-30 4-58 11-61 16s-29 9-59 9-57 5-60 10c-3 6-48 10-100 10s-97-4-100-10z"/><path d="m911 1813c-18-7-62-53-78-81s-19-912-3-912c6 0 10-6 10-13 0-16 52-67 68-67 7 0 12-4 12-10 0-18 157-12 188 8 43 27 82 71 82 92 0 10 5 22 10 25 6 4 10 155 10 421 0 269-3 414-10 414-5 0-10 11-10 25s-4 25-10 25c-5 0-10 6-10 13 0 8-9 25-21 38-19 22-29 24-122 26-56 1-108 0-116-4zm149-543v-420h-34c-71 0-66-32-66 426v414h50 50v-420z"/><path d="m1430 1813c-20-8-50-43-50-59 0-7-6-14-12-17-9-3-10-8-3-15s8-170 5-469c-6-511-9-482 64-518 68-34 236-5 254 44 3 9 10 19 15 22 6 4 7 15 3 24-9 24-8 867 1 891 4 10 2 19-5 22-7 2-12 9-12 16s-9 24-21 37c-19 22-29 24-122 26-56 1-109 0-117-4zm155-543v-415h-50-50l-3 418-2 418 105-6v-415z"/></g><g transform="translate(0 256) scale(.1 -.1)" fill="var(--icon-stroke, #24324B)"><path d="m1165 2351c-11-5-36-10-55-11-65-1-183-38-300-93-36-16-150-88-180-112-95-77-270-285-270-322 0-7-3-13-8-13-8 0-19-24-57-120-14-35-25-72-25-82 0-11-3-17-7-15-5 3-9-5-10-16-1-12-9-67-18-122-17-108-15-240 5-360 6-38 11-80 12-92 0-13 4-20 9-17s9-8 9-25c0-16 5-33 11-36 6-4 8-13 5-20-3-8-1-15 4-17 4-2 10-12 12-23 1-11 5-22 8-25s18-30 34-60c49-95 136-208 233-300 51-49 93-87 93-84s13-4 29-15c16-12 34-21 41-21 6 0 8-5 5-10-3-6 3-10 14-10s26-6 33-14c8-7 25-17 38-21 14-4 43-15 65-25 113-48 204-63 385-63 80 0 174 6 210 13s73 13 82 13c9 1 14 5 12 9-3 4 4 8 16 8 11 0 29 5 40 10 11 6 29 15 40 20 12 6 25 8 30 5 6-4 10-1 10 4 0 6 6 11 14 11s16 3 18 8c2 4 28 20 58 35 66 33 111 68 208 163 39 39 74 68 77 66 3-3 5 2 5 12 0 9 11 28 25 41 13 14 22 25 19 25s4 13 15 29c12 16 21 34 21 41 0 6 5 8 10 5 6-3 10 0 10 8s13 42 30 75c16 34 30 68 30 77 0 8 4 23 9 33 5 9 16 44 24 77 9 33 20 79 26 101 14 53 15 334 1 334-5 0-10 16-10 35 0 39-26 160-40 186-5 9-12 33-15 53-4 20-11 33-16 30s-9 4-9 15c0 12-4 21-10 21-5 0-10 5-10 10 0 6-19 41-42 78-104 164-264 309-433 392-16 8-33 19-37 25-4 5-8 7-8 3s-17 0-37 9c-125 52-427 91-488 64zm105-31c-63-4-137-11-165-15s-46-4-42 1c12 13 99 21 217 21h105l-115-7zm166-41c32-5 73-14 89-19 17-5 49-14 72-21 24-7 40-16 36-22-3-6-1-7 5-3 19 11 218-98 230-126 2-5 9-8 15-8 11 0 115-103 162-161 100-120 166-265 214-462 26-109 8-373-34-492-25-71-82-190-120-250-47-75-232-265-258-265-10 0-15-4-12-10 3-5-1-10-9-10-9 0-16-4-16-9s-14-12-31-16-28-9-25-12c9-9-85-53-97-46-5 3-7 2-4-4 4-6-12-16-36-23-23-7-54-17-69-22-15-6-31-7-37-4-5 3-11 2-13-4-1-5-22-11-45-12s-40-5-37-10-57-7-143-4c-153 4-236 13-229 25 2 3-6 7-17 8-45 4-87 16-87 24 0 5-5 9-12 9-19 0-178 81-178 91 0 5-5 9-10 9-41 0-270 227-270 268 0 5-7 12-14 15-37 15-156 319-159 407-1 26-6 45-11 42-15-8 2 267 20 333 8 33 18 72 21 88 3 15 9 30 14 33s9 11 9 19c0 38 73 169 165 294 37 51 182 180 203 181 6 0 12 4 12 8 0 7 44 37 65 43 6 2 18 10 27 18 20 18 120 60 168 72 19 4 62 15 95 23 72 17 268 20 351 5zm184-9c58-24 31-24-35 0-27 10-41 19-30 19s40-9 65-19zm-786-58c-137-71-175-100-293-221-61-63-87-84-75-62 45 81 245 243 378 307 116 56 109 38-10-24zm991-39c57-37 127-94 121-100-2-3-28 13-58 34-67 50-166 113-176 113-5 0-17 7-28 15-28 22 94-31 141-62zm314-313c29-44 51-85 49-91-2-7-23 17-45 52-23 35-51 79-63 97-15 21-17 30-8 27 8-3 38-42 67-85zm-1711-2c-8-13-25-43-37-66-12-24-25-42-27-39-7 7 62 127 73 127 3 0-1-10-9-22zm-124-268c-13-41-25-83-25-95-1-17-2-17-6-2-6 23 42 185 52 175 2-2-7-37-21-78zm2e3 -115c0-11-7 3-15 30-18 65-17 93 2 35 7-25 13-54 13-65zm20-135c0-32-2-41-9-30-5 8-9 42-9 75 2 71 16 33 18-45zm-2e3 -295 6-50-14 35c-7 19-13 53-13 75 0 50 12 17 21-60zm2e3 -56c-16-62-20-73-26-67-3 3 2 31 11 63 19 65 32 68 15 4zm-1879-216c23-43 49-89 57-103 12-21 10-20-12 5-31 35-69 100-84 144-17 49-7 37 39-46zm1750-70c-17-26-31-41-31-32s7 22 15 29 15 18 15 24c0 14 22 38 28 31 3-2-9-26-27-52zm-1474-260c27-24 0-13-36 14-47 36-131 123-131 137 0 6 35-23 77-64s83-81 90-87zm1323 67c-6-11-14-20-18-20s-18-10-32-23c-30-28-80-62-80-54 0 5 131 117 138 117 1 0-2-9-8-20zm-250-175c0-6-73-39-119-54-36-12-58-7-25 6 10 4 44 17 74 29 59 24 70 27 70 19zm-755-52c114-33 163-43 207-43 25 0 38-4 33-9-23-22-297 38-330 72-7 7-5 8 5 5 8-3 47-14 85-25zm418-50c-13-2-35-2-50 0-16 2-5 4 22 4 28 0 40-2 28-4z"/><path d="m920 1792c-19-9-45-32-57-51l-23-34v-434c0-471 0-468 56-512 40-32 177-30 225 2 59 39 60 52 57 531-3 481-2 472-75 502-46 20-141 18-183-4zm174-63 26-20v-435-435l-25-24c-38-38-126-36-166 4l-29 29v431 430l26 20c20 16 41 21 84 21s64-5 84-21zm13-944c-23-20-38-25-80-24l-52 1 55 9c30 5 64 16 75 24 32 22 33 17 2-10z"/><path d="m1445 1796c-83-37-86-52-85-537 1-458 1-457 61-500 49-35 208-25 242 15 45 53 48 84 45 516-3 456-5 465-79 502-41 21-140 23-184 4zm181-80 24-27v-419-419l-23-27c-39-44-135-48-177-6l-30 30v425 424l26 28c36 39 143 34 180-9z"/></g></svg>
