<svg fill-rule="evenodd" stroke-linecap="round" stroke-linejoin="round" viewBox="0 0 256 256" xmlns="http://www.w3.org/2000/svg"><g transform="rotate(38 128 128)"><path d="M108 104 L148 104 L148 196 L128 224 L108 196 Z" fill="var(--icon-blue, #5EC8F8)" stroke="var(--icon-stroke, #24324B)" stroke-width="9"/><path d="M122 210 L134 210 L130 234 C129 237 127 237 126 234 Z" fill="var(--icon-stroke, #24324B)" stroke="var(--icon-stroke, #24324B)" stroke-width="5"/><path d="M104 42 C104 35 110 29 118 29 L138 29 C146 29 152 35 152 42 L152 104 L104 104 Z" fill="var(--icon-slate, #606078)" stroke="var(--icon-stroke, #24324B)" stroke-width="9"/><path d="M150 48 L150 98 C150 101 147 104 144 104 L137 104 L137 48 C137 44 140 41 144 41 C147 41 150 44 150 48 Z" fill="var(--icon-yellow, #FFD85A)" stroke="var(--icon-stroke, #24324B)" stroke-width="8"/></g></svg>
