<svg fill-rule="evenodd" stroke-linecap="round" stroke-linejoin="round" viewBox="0 0 256 256" xmlns="http://www.w3.org/2000/svg"><g transform="translate(0 256) scale(.1 -.1)" fill="var(--icon-coral, #FF8A65)"><path d="m950 1825c-7-8-19-15-26-15-18 0-18-9 2-31 15-17 15-20-5-45-21-26-21-34-21-458 0-358 2-436 14-452 13-16 12-21-1-36-20-22-8-38 42-58 19-7 35-17 35-22 0-4 18-8 40-8 41 0 49 7 28 28-9 9-9 12 2 12 7 0 55 27 107 60 81 52 96 58 113 48 15-10 22-9 38 5 10 9 24 17 30 17 7 0 12 4 12 9s8 11 18 15c9 3 31 15 47 26 17 11 37 23 45 27 8 3 22 14 31 24 8 10 27 21 41 24 15 4 34 15 44 26 9 10 23 19 31 19 7 0 16 7 19 15 4 8 12 15 19 15 6 0 20 9 29 19 10 11 29 22 43 26 27 6 53 28 53 43 0 5 7 15 15 22s15 23 15 36 5 24 10 24c6 0 10 18 10 40s-4 40-10 40c-5 0-10 8-10 18-1 22-46 56-56 41-4-7-18 0-38 19-17 16-56 45-86 64s-74 47-98 62c-35 22-41 30-32 41 23 28-54 71-83 47-13-11-229 118-226 135 4 24-3 41-18 47-10 3-31 14-48 25-39 25-156 29-175 6z"/></g><g transform="translate(0 256) scale(.1 -.1)" fill="var(--icon-skin, #F0D8C0)"><path d="m860 1260v-324l60 58v266 266l-60 58v-324z"/></g><g transform="translate(0 256) scale(.1 -.1)" fill="var(--icon-slate, #606078)"><path d="m1160 2370c0-5-22-10-49-10-28 0-52-4-55-9s-33-12-66-16-63-11-66-16-16-9-30-9c-13 0-24-4-24-10 0-5-5-10-11-10-13 0-82-31-89-40-3-4-12-10-20-13-8-4-28-16-45-27-16-11-37-23-45-27-40-19-244-223-263-263-4-8-16-28-27-45-11-16-23-37-27-45-3-8-9-17-13-20-9-7-40-76-40-89 0-6-4-11-10-11-5 0-10-9-10-20s-4-29-10-40c-5-11-14-29-20-40-5-10-7-26-4-35 3-8 1-15-5-15s-11-19-11-45c0-25-4-45-10-45s-10-70-10-190 4-190 10-190 10-20 10-45c0-26 5-45 11-45s8-7 5-15c-3-9-1-26 6-38 25-48 28-57 28-77 0-11 5-20 10-20 6 0 10-5 10-11 0-13 31-82 40-89 4-3 10-12 13-20 4-8 16-28 27-45 11-16 23-37 27-45 19-40 223-244 263-263 8-4 29-16 45-27 17-11 37-23 45-27 8-3 17-9 20-13 7-9 76-40 89-40 6 0 27-9 47-20 19-11 56-23 80-27 25-3 47-10 50-14 3-5 27-9 55-9 27 0 49-4 49-10s52-10 135-10 135 4 135 10 22 10 49 10c28 0 52 4 55 9 3 4 28 11 55 15 28 4 53 11 56 16 3 6 17 10 31 10 13 0 24 5 24 10 0 6 5 10 11 10 14 0 82 31 89 41 3 4 23 17 45 28 67 36 78 44 120 87 22 22 48 43 58 47s20 14 24 24c4 9 27 37 53 62 25 25 50 53 54 61 12 26 31 57 45 73 21 26 101 191 101 210 0 9 5 17 10 17 6 0 10 15 10 34s4 37 9 40c4 3 6 16 4 30-3 13 0 27 6 30 6 4 11 27 11 51s5 47 10 50c6 4 10 57 10 125s-4 121-10 125c-5 3-10 26-10 50s-5 47-11 51c-6 3-9 17-6 30 2 14 0 27-4 30-5 3-9 21-9 40s-4 34-10 34c-5 0-10 8-10 18 0 18-75 172-89 182-4 3-14 21-24 41-9 19-25 43-37 54-11 10-20 22-20 27 0 12-166 178-177 178-5 0-22 14-38 30-30 32-238 140-268 140-9 0-17 4-17 9s-25 13-55 16c-30 4-58 11-61 16s-29 9-59 9-57 5-60 10c-3 6-52 10-111 10-63 0-104-4-104-10zm390-130c46-24 60-30 74-30 17 0 126-55 135-68 3-4 22-15 42-25 19-9 43-25 54-37 10-11 23-20 29-20 14 0 146-133 146-147 0-5 11-20 25-33s25-29 25-37c0-7 9-18 20-25s20-16 20-20c0-16 35-88 42-88 5 0 8-10 8-22 0-13 7-36 15-52 8-15 15-38 15-50s5-27 11-33c5-5 13-36 16-67s10-59 14-62c12-7 12-274 0-274-4 0-11-34-14-75-4-41-11-83-16-92-23-44-41-93-41-112 0-12-3-21-8-21-7 0-42-73-42-89 0-5-7-11-15-15-8-3-20-16-25-28-6-13-16-32-22-43-19-30-184-195-195-195-5 0-18-10-29-21-10-12-28-25-39-30-23-10-58-31-65-40-10-10-78-39-93-39-9 0-19-4-22-10-3-5-17-10-31-10-13 0-24-4-24-9s-29-12-65-16c-36-3-65-11-65-16s-67-9-155-9c-85 0-155 4-155 9 0 4-28 11-62 15-35 3-64 11-66 16-2 6-14 10-27 10s-27 5-30 10c-3 6-13 10-22 10-16 0-84 30-93 40-3 4-12 10-20 13-8 4-28 16-45 27-16 11-39 24-50 29s-37 28-58 50c-20 23-42 41-47 41s-14 9-20 20c-6 12-29 38-51 58s-45 46-50 57-18 34-29 50c-11 17-23 38-26 48-4 9-10 17-15 17s-9 11-9 25-4 25-9 25-12 15-16 32c-7 36-25 80-37 89-5 3-11 33-14 67-4 34-11 62-15 62-5 0-9 81-9 180s4 180 9 180c4 0 11 28 15 63 3 34 11 64 16 65 6 2 10 14 10 27s4 26 9 29 12 18 15 33c10 38 30 83 37 83 4 0 9 8 13 18 3 9 15 31 26 47 11 17 23 37 27 45 13 29 218 228 243 235 14 4 34 15 45 24 26 23 142 81 161 81 8 0 22 4 32 9 75 38 87 39 352 37 158-2 222-6 240-16z"/><path d="m928 1813c-62-31-63-43-63-533 0-469 2-491 47-527 48-38 89-12 49 31-25 26-27 58-6 76 25 21 21 221-5 245-25 23-25 43 0 70 30 32 34 473 4 506-22 25-20 53 8 92s8 61-34 40z"/><path d="m1121 1797c-8-11-6-18 9-32 12-10 18-25 16-32-13-32 223-194 244-168 14 17 82-12 76-31-7-18 49-65 159-136 55-36 108-75 119-86 10-12 23-19 28-16s15 1 22-5c10-8 17-7 27 6 11 13 11 17 2 20-7 3-13 15-13 28 0 12-7 28-15 35s-15 17-15 22c0 15-26 37-53 43-14 4-33 15-43 26-9 10-23 19-31 19-7 0-13 4-13 10 0 5-19 19-42 30-56 27-79 41-98 62-9 9-28 20-42 23-15 4-34 15-44 26-9 10-23 19-30 19s-17 6-21 13-24 21-43 30c-41 20-73 40-80 48-5 6-98 59-104 59-2 0-9-6-15-13z"/><path d="m1170 877c-74-38-192-141-183-163 3-8 19-14 39-14 31 0 45 5 94 31 8 5 31 16 50 26 19 9 39 23 43 30s14 13 21 13 21 9 31 20 22 20 27 20c6 0 21 8 34 19 23 18 23 19 4 36-18 16-23 17-45 5-18-9-28-10-38-2-9 8-29 3-77-21z"/></g><g transform="translate(0 256) scale(.1 -.1)" fill="var(--icon-stroke, #24324B)"><path d="m1179 2356c-5-6-139-27-181-29-10-1-18-5-18-9s-9-8-19-8c-34 0-230-90-265-122-10-10-24-15-29-11-6 3-7 2-4-4 4-6-9-18-27-28s-66-50-105-90c-39-39-73-70-76-67s-5-2-5-12c0-9-11-28-25-41-13-14-22-25-20-25 3 0-15-32-40-70-25-39-45-75-45-80 0-6-4-10-10-10-5 0-9-3-8-7 2-9-8-46-22-78-22-55-45-157-61-275-11-82-3-297 12-306 5-3 9-19 9-36 0-37 27-125 64-210 9-20 16-41 16-47s3-11 8-11c4 0 12-10 18-23 24-52 61-111 82-133 12-13 22-30 22-39s3-15 8-13c9 4 140-130 134-137-3-3 2-5 11-5s27-11 41-25 29-25 35-25c5 0 16-6 23-13 7-6 32-21 55-32 24-11 43-23 43-26 0-4 12-10 26-13 14-4 45-15 68-25 49-22 112-41 181-54 76-14 336-20 348-8 6 6 24 11 41 11 59 0 157 30 254 79 34 17 69 31 78 31 8 0 13 3 10 8-2 4 14 16 35 26 41 20 93 62 160 128 20 20 39 36 40 35 2-1 3 0 2 2-2 2 10 18 25 35 15 18 36 45 47 60 11 16 28 37 38 48 9 10 15 18 12 18s5 17 18 38c12 20 29 51 37 67 8 17 19 33 25 37 5 4 7 8 3 8s2 21 12 46c11 25 20 57 20 70 0 14 4 23 9 20s9 4 9 17c0 12 5 54 12 92 16 89 16 288 0 385-7 41-12 85-12 97 0 13-4 20-9 17s-9 3-9 13-9 43-21 73c-11 30-23 63-26 73-3 9-8 17-12 17s-15 20-26 45-23 45-27 45c-5 0-8 6-8 13 0 26-141 186-225 257-52 43-156 110-204 131-157 69-185 77-286 91-99 13-258 21-266 14zm266-42 50-13-50 6c-27 3-72 9-100 13l-50 7 50 1c28 0 73-6 100-14zm15-39c62-13 107-25 157-40 13-4 20-12 16-18-3-6-1-7 5-3 12 7 90-30 104-49 4-5 8-6 8-2 0 8 59-29 70-44 3-3 10-8 16-10 46-16 225-195 243-242 2-6 13-20 23-31 21-23 98-176 98-195 0-6 4-19 9-29 16-29 41-125 43-164 2-21 6-38 11-38 11 0 9-218-3-225-6-3-7-17-4-30 5-22-29-180-46-214-5-9-16-38-26-66-9-27-28-67-41-87-12-21-23-40-23-42 0-17-100-142-157-197-73-71-178-149-200-149-7 0-13-4-13-10 0-5-7-10-15-10s-15-3-15-7c0-11-51-33-61-27-5 3-9 0-9-5 0-6-9-11-19-11-11 0-22-4-25-9s-16-11-28-14c-13-3-58-15-102-26-81-22-336-31-336-13 0 5-8 9-17 9-56-1-84 4-78 13 3 6-1 7-10 4-14-6-33-1-107 30-16 6-28 14-28 19 0 4-6 7-12 5-17-3-100 37-93 44 3 3-7 9-22 13-15 3-30 10-33 13-3 4-23 19-45 34-64 42-190 170-231 233-10 17-27 39-37 50-9 10-15 26-12 34 3 9 3 12-1 8-14-14-110 225-98 244 4 7 3 9-3 6-17-10-24 52-30 231-4 159 7 260 36 327 5 11 22 52 37 90 16 39 32 72 36 73 5 2 8 10 8 17s3 15 8 17c4 2 16 21 27 43s28 47 37 57c10 10 15 18 11 18s38 45 92 99c55 55 103 97 107 95 4-3 8-1 8 4 0 15 150 102 222 128 165 61 402 82 548 49zm151 1c52-16 133-55 127-62-4-3-97 32-173 66-31 14-5 11 46-4zm-661 0c0-3-50-30-110-60-61-31-127-67-147-81-20-13-39-22-42-20-2 3-2 6 0 8 2 1 22 16 44 33 67 52 255 140 255 120zm1058-255c51-51 74-81 59-81-1 0-38 37-82 81-91 93-72 92 23 0zm-1518-70c0-5-6-16-13-23s-34-46-61-86c-47-71-72-92-43-35 18 33 105 153 112 153 3 0 5-4 5-9zm1650-100c0-6 4-11 9-11 9 0 75-139 69-145-2-3-13 12-24 33-11 20-35 63-52 94-35 63-40 77-17 54 8-8 15-19 15-25zm-1855-306c-16-63-25-80-25-48 0 23 30 116 36 110 3-2-2-30-11-62zm2e3 -85c-1-43-17-1-23 60l-6 55 14-45c8-25 15-56 15-70zm18-160c0-47-2-58-8-40-4 14-8 54-8 90 0 47 2 58 8 40 4-14 8-54 8-90zm-2e3 -324c22-76 15-78-12-2-13 38-26 92-29 120l-5 51 16-60c8-33 22-82 30-109zm109-236c32-52 65-106 74-120 27-41-4-14-47 42-22 29-55 85-72 123-38 86-30 78 45-45zm1744-22c-26-50-100-146-143-186-66-62-57-39 19 47 36 41 78 94 93 118 28 44 52 60 31 21zm-1534-240c35-36 36-38 10-21-36 25-72 63-59 63 6 0 28-19 49-42zm1228-82c-49-41-199-113-211-102-2 3 27 20 64 39 38 19 89 46 114 60 56 33 70 34 33 3zm-953-83c25-12 40-22 33-22-19-1-133 51-133 60s21 1 100-38zm159-49c36-8 67-17 70-21 13-14-102 8-141 27-24 11-32 18-18 14 14-3 54-12 89-20zm376-30c-85-16-115-17-115-4 0 8 58 14 155 17 17 0-1-5-40-13z"/><path d="m975 1819c-41-10-85-59-85-94 0-9-3-14-7-12-5 3-8-192-8-433s3-436 8-433c4 2 7-6 7-19 0-26 60-96 77-91 6 2 14-1 18-6 10-18 82-12 119 8 19 11 37 17 40 14 3-4 6-2 6 4 0 5 17 18 37 29 21 10 46 27 57 36 10 10 23 15 28 12 4-3 8-1 8 4 0 9 111 82 124 82 4 0 16 9 28 20 12 10 24 17 28 15 3-2 13 5 20 16 8 10 20 19 27 19s13 3 13 8c0 4 18 16 40 26 22 11 40 23 40 27s10 11 22 15c12 3 30 15 41 25s24 16 29 13c4-3 8 0 8 5 0 6 7 11 15 11s15 4 15 8c0 5 10 14 23 21 43 23 80 166 48 186-5 3-12 19-16 35-4 17-11 28-16 24-5-3-9-1-9 4s-43 35-95 68c-52 32-95 62-95 66 0 5-5 8-11 8-13 0-234 137-255 157-8 8-14 12-14 9s-42 21-92 53c-100 63-151 76-223 60zm185-113c561-347 584-364 583-419-1-69-8-75-346-290-356-227-372-233-422-182l-25 24v433c0 468 0 466 54 488 32 14 63 3 156-54zm140-37c44-28 80-55 80-59 0-11-115 56-160 94-50 41-12 25 80-35zm-380-306-7-178v245c0 145 3 218 7 178 3-37 4-147 0-245zm721 91c53-34 100-68 105-75 6-10 1-10-16 2-14 9-69 44-122 79-54 34-98 64-98 66 0 9 43-15 131-72zm48-318c-17-15-92-57-95-53-6 6 89 66 95 61 2-2 2-6 0-8zm-772-213c-2-32-3-6-3 57s1 89 3 58c2-32 2-84 0-115zm548 72c-16-14-46-33-65-43s-47-26-62-36c-16-10-28-15-28-12 0 8 162 115 175 116 6 0-3-11-20-25zm-230-146c-4-5-17-15-28-20-12-5-40-23-62-39-40-29-65-38-65-22 0 8 37 30 126 77 35 18 37 18 29 4z"/></g></svg>
