<svg fill-rule="evenodd" stroke-linecap="round" stroke-linejoin="round" viewBox="0 0 512 512" xmlns="http://www.w3.org/2000/svg"><g transform="translate(0 512) scale(.1 -.1)" fill="var(--icon-coral, #FF8A65)"><path d="m2485 3736c-88-17-187-55-282-107-130-72-358-251-349-275 6-15-45-63-61-57-6 2-49-41-95-97-89-107-96-112-207-126-37-5-55-3-60 5s-20-4-43-33c-102-131-102-765-1-1241 16-78 32-128 45-141 14-16 16-24 8-29s-3-16 16-36c34-35 47-37 34-5-11 30 5 36 114 36 77 0 79-1 138-45 33-25 67-45 76-45 10 0 37-12 61-25 303-174 1391-152 1574 31 70 70 98 194 63 278-22 53-22 53 37 70 183 53 261 329 128 450l-21 19 32 23c17 13 34 21 39 19 4-3 21 8 37 25 107 106 108 311 2 410l-30 28 102 6c57 3 182 11 278 16 242 14 376 28 437 46 258 75 270 364 18 447-106 35-510 63-1063 73l-358 7-28 39c-35 49-124 120-138 111-6-3-8-1-5 4 9 14-110 75-195 101-89 28-215 35-303 18z"/></g><g transform="translate(0 512) scale(.1 -.1)" fill="var(--icon-blue, #5EC8F8)"><path d="m467 3149c-75-234-101-462-94-836 6-347 37-558 120-823l33-105 40 1c159 6 912 79 931 90l22 14-18 65c-17 59-17 65-2 65 13 1 11 5-6 19-44 37-116 470-129 776-8 191 31 625 56 610 4-2 18 7 30 20l23 25h-21c-25 0-26 5-11 66 7 26 8 49 3 54s-139 14-299 19c-159 6-371 14-470 17l-181 7-27-84z"/></g><g transform="translate(0 512) scale(.1 -.1)" fill="var(--icon-slate, #606078)"><path d="m390 2578c-25-20-25-21-25-188s0-168 25-188l25-21 55 53v156 156l-55 53-25-21z"/></g><g transform="translate(0 512) scale(.1 -.1)" fill="var(--icon-stroke, #24324B)"><path d="m2450 3725c-63-16-177-62-233-94-67-38-161-97-184-116-7-5-27-21-44-35-131-103-253-227-331-336-21-28-43-51-50-51-7-1-44-8-83-15-102-20-106-18-89 44 15 60 10 73-31 74-55 2-399 14-535 19-74 3-179 8-232 11-135 9-141 6-164-63-10-32-19-60-19-63-1-3-6-23-13-45-6-22-13-56-16-75s-8-48-12-65c-3-16-7-39-9-50-1-11-5-31-8-45-31-130-38-586-12-770 3-19 7-55 11-80 3-25 7-54 9-65s6-38 10-60c15-90 25-141 44-210 6-22 12-49 14-60 4-25 26-100 40-140 16-47 28-52 104-43 37 4 99 10 138 13 38 3 90 8 115 11s70 7 100 9c30 3 82 7 115 10 121 11 191 17 225 20 95 7 176 16 188 20 12 5 12 51-1 72-3 4-8 25-11 46l-6 37h103c106 0 120-4 172-53 22-20 155-87 173-87 6 0 32-7 58-16s57-18 68-20c12-2 32-6 46-9s41-8 60-11 37-7 40-9c44-27 819-26 862 1 4 3 20 7 35 9 267 40 355 81 409 190 26 55 27 179 1 219-21 31-18 39 20 44 72 9 142 66 182 147 53 108 35 264-36 308-21 13-15 23 27 42 35 16 59 38 110 102 6 7 10 19 10 27s4 17 8 20c14 9 20 133 9 189-8 38-42 91-78 121s-36 31-1 32c106 3 394 19 522 28 339 23 451 79 467 233 11 105-39 190-135 230-38 16-42 17-115 27-27 4-59 9-70 12-105 20-634 45-1e3 48l-230 2-85 84c-73 72-180 145-230 156-7 1-42 14-70 26-41 17-267 20-330 3zm305-51c158-39 289-139 403-306 270-399 311-544 180-641-38-28-132-34-193-14-116 40-339 258-441 432-22 38-40 10-52-83-46-346-261-615-564-708-56-17-76-42-49-59 15-8 126 31 212 76 227 118 399 367 444 644l7 40 21-26c149-180 150-182 134-191-142-79-168-281-50-384l36-32-29-15c-141-74-163-293-39-393l36-29-44-31c-104-74-118-247-26-331 38-34 146-81 244-104 137-33 139-35 52-47-492-74-1081 1-1273 161-55 46-71 49-188 46l-110-4-23 100c-78 343-104 831-60 1100 25 154 17 141 95 148 137 12 168 24 214 86 102 135 298 318 448 418 230 154 411 197 615 147zm1245-284c249-13 490-37 557-56 182-51 200-252 28-330-83-39-400-67-895-80l-235-6-18 58c-19 62-94 198-191 348l-58 89 308-7c170-3 397-11 504-16zm-3e3 -224c188-7 345-15 347-18 3-3-3-45-14-94-92-417-71-907 63-1442 16-64 20-95 12-97-6-2-193-20-416-39-223-20-419-38-437-41-36-6-34-11-82 178-125 491-132 989-20 1431 16 66 32 123 35 128 7 11 101 10 512-6zm2603-312c176-52 214-308 61-409-147-97-699-74-853 36-82 58-92 197-21 272 59 62 75 64 140 11 155-127 336-149 430-51 35 36 62 94 62 132 0 24 2 25 63 25 35 0 88-7 118-16zm-614-488c107-24 306-35 444-25 139 10 153 5 194-66 57-96 19-249-75-307-136-84-598-38-771 77-95 62-106 208-22 286 67 62 88 66 230 35zm8-450c61-14 173-31 250-37 148-12 157-15 182-62 43-83-7-218-97-265-129-67-543 25-617 137-54 80-21 194 67 239 51 26 57 26 215-12z"/></g></svg>
