<svg fill-rule="evenodd" stroke-linecap="round" stroke-linejoin="round" viewBox="0 0 256 256" xmlns="http://www.w3.org/2000/svg"><g transform="translate(0 256) scale(.1 -.1)" fill="var(--icon-green, #66DDAA)"><path d="m1213 1930c-68-13-170-51-224-86-81-50-279-259-279-293 0-6-4-11-10-11-5 0-13-18-16-40-4-22-11-43-15-46-5-3-9-23-9-45 0-21-4-39-10-39s-10-45-10-115 4-115 10-115 10-16 10-35 5-35 11-35c5 0 10-8 9-17-3-25 10-63 21-63 5 0 9-9 9-20s4-20 9-20 12-14 16-30c4-17 15-36 26-43 10-6 19-17 19-23 0-15 74-91 114-119 68-47 82-56 99-61 9-4 17-10 17-14 0-7 35-20 65-25 12-1 42-13 73-28 35-17 324-16 329 1 3 6 15 12 28 12s27 5 30 11c4 5 12 8 18 6 15-5 137 60 158 84 9 11 20 19 26 19 13 0 113 103 113 117 0 6 4 13 8 15 36 14 83 178 52 178-5 0-10 7-10 15s-20 24-45 36c-43 20-47 21-80 5-20-10-33-21-30-25 2-5-2-15-11-22s-31-36-49-65c-49-76-194-165-240-148-8 3-15 1-15-5 0-14-206-15-215-1-3 6-17 10-31 10-13 0-32 4-42 9-9 6-29 12-44 16-85 17-214 193-211 285 1 22-2 42-8 45-11 7-13 115-1 115 4 0 8 20 8 45 4 145 189 329 331 330 24 0 43 3 43 8 0 11 118 8 125-3 3-6 16-8 29-4 43 10 168-46 254-114l44-35 64 64c35 35 64 69 64 75 0 18-117 117-186 159-120 72-308 109-441 85z"/><path d="m2253 1063c-7-15-13-36-13-48s-4-25-9-31c-12-13-21-83-12-88 4-3 25 12 46 34s42 37 47 34c4-3 8 2 8 10 0 9 5 16 11 16s9 14 7 33c-2 17-8 31-14 30-7-1-20 7-29 17-23 26-28 25-42-7z"/><path d="m391 816c-19-20-21-28-11-46 8-16 8-25 0-35s-6-21 10-46c11-19 23-41 27-49s26-34 50-57 43-47 43-52 14-20 30-33c17-13 52-43 78-68 54-51 69-61 130-90 23-11 42-24 42-28 0-6 72-42 84-42 5 0 56 75 56 83 0 4-9 7-20 7-19 0-58 17-70 31-3 3-12 9-20 12-8 4-28 16-45 27-16 11-37 23-45 27s-34 26-57 50-47 43-53 43c-5 0-10 4-10 10 0 5-24 33-52 62-59 59-64 66-109 156-17 34-33 62-34 62s-12-11-24-24z"/></g><g transform="translate(0 256) scale(.1 -.1)" fill="var(--icon-slate, #606078)"><path d="m1230 2370c0-6-28-10-64-10s-67-4-70-9-31-12-61-16c-30-3-55-11-55-16s-11-9-24-9c-14 0-28-4-31-10-3-5-13-10-22-10-19 0-161-68-169-82-3-5-16-13-27-19-55-23-122-81-237-206-51-56-61-71-90-130-11-24-24-43-28-43-9 0-32-49-32-67 0-7-12-37-26-66-15-28-30-59-35-68-4-9-5-26-2-37 2-11 0-23-6-26-6-4-11-25-11-46s-4-42-10-45c-13-8-13-342 0-350 6-3 10-24 10-45s5-42 11-46c6-3 9-15 6-25-5-20 13-69 26-69 4 0 7-10 7-22 0-13 7-32 15-42 8-11 15-28 15-38 0-20 18-56 36-73 6-5 18-25 25-43 16-38 20-39 44-12 15 16 16 22 5 35-10 13-10 19 3 33 14 16 14 20-1 52-9 19-19 37-23 40s-11 18-14 33c-4 15-11 30-16 33s-9 16-9 29-4 25-10 27c-5 2-13 31-16 65-4 35-11 63-15 63-12 0-11 337 0 344 5 3 12 37 16 76 4 38 11 70 16 70s9 11 9 24c0 14 4 27 9 30s12 18 16 33c3 15 10 30 14 33 3 3 21 35 39 71 17 36 41 74 52 84s20 22 20 28c0 10 165 175 196 194 10 7 36 21 57 30 20 10 37 21 37 25 0 10 60 38 82 38 10 0 18 4 18 10 0 5 18 13 40 16 22 4 40 10 40 15s10 9 23 9 29 6 35 13c10 9 75 12 254 12 184 0 242-3 245-12 3-7 20-13 39-13s34-4 34-10c0-5 17-12 38-16 20-4 44-15 53-26 9-10 20-18 24-18 10 0 77-32 94-45 53-40 209-193 210-206 2-28 81-43 81-16 0 21 35 48 54 41 13-5 16-21 16-78 0-40 4-76 9-82 5-5 12-64 16-131l7-123h-40c-23 0-44 5-47 10-4 6-55 10-120 10-70 0-116 4-120 11-4 6-24 9-46 8-54-4-56 4-10 46 24 22 41 46 41 59 0 23-96 126-117 126-6 0-13 4-15 9-3 9-74 51-128 76-19 9-43 21-53 26-9 5-38 12-62 16-25 3-48 10-51 14-7 12-251 12-258 0-3-5-31-12-61-16-30-3-55-10-55-13 0-8-74-42-90-42-6 0-10-4-10-9s-8-12-17-15c-49-18-173-126-173-152 0-6-11-20-25-30s-25-23-25-27c0-15-33-82-44-89-7-5-5-13 6-24 13-13 20-15 31-6 9 8 17 8 24 1 11-11 29 9 111 121 59 80 144 139 255 174 85 27 244 48 253 34 3-4 18-8 34-8 71 0 266-83 320-136 12-12 12-16-2-30-15-15-20-13-67 24-55 43-130 82-199 103l-43 12-44-43-43-43-51 43c-44 37-54 42-84 36-160-30-389-264-413-421-5-37-3-43 40-85l46-44v37c0 20 5 37 10 37 6 0 10 16 10 35s9 50 19 69c11 19 17 37 14 40-4 3-1 6 5 6 7 0 12 8 12 18 0 9 9 23 20 30s20 18 20 25c0 20 72 85 103 92 15 4 27 10 27 14 0 11 54 31 103 37 26 4 47 11 47 15 0 12 117 12 124 0 3-4 31-11 62-14 33-3 64-13 76-24 11-10 30-22 43-28 47-20 105-83 105-113 0-47 27-62 108-62 39 0 74-4 77-10s48-10 100-10 97-4 100-10c4-6 52-10 113-10 104 1 108 1 140 30 30 28 44 70 22 70-6 0-10 30-10 69s-5 73-11 76c-6 4-9 34-8 71 1 35-1 67-4 71-4 3-7 35-7 70s-4 63-10 63c-5 0-10 21-10 47 0 89-70 130-125 73-16-16-35-30-42-30s-13-5-13-11c0-19-24-3-40 27-9 16-27 34-39 40-13 7-42 30-65 53s-47 41-53 41c-7 0-16 6-20 13-10 15-35 31-85 54-21 10-38 21-38 25 0 3-15 9-32 13-32 6-64 18-101 36-9 5-38 12-62 16-25 3-48 10-51 14-3 5-32 9-65 9s-59 4-59 10-32 10-75 10-75-4-75-10z"/><path d="m820 1202-43-38 13-39c28-87 73-155 160-239 124-119 135-124 189-79l43 36-39 18c-21 10-43 18-48 19-6 0-17 9-25 20s-19 20-24 20c-14 0-66 51-66 64 0 6-14 22-30 35s-28 27-25 31c3 5 1 11-5 15-5 3-10 17-10 31 0 13-4 24-10 24-5 0-10 15-10 34 0 18-6 46-14 60l-13 26-43-38z"/><path d="m1748 1093c-32-17-48-33-53-51-10-41-133-161-172-168-18-3-36-10-39-15s-16-9-30-9c-13 0-24-4-24-10 0-5-14-10-32-10h-32l44-45c49-50 50-50 139-8 94 45 303 268 270 289-7 4-6 10 0 18 7 9 7 16-1 24-15 15-14 15-70-15z"/><path d="m2255 1068c-15-31-15-34 4-49 22-18 15-38-14-36-15 2-21-7-27-42-4-25-12-49-18-55-5-5-10-20-10-33s-4-23-9-23-12-12-16-27c-3-15-14-34-24-42-10-9-21-23-24-31-4-8-16-28-27-45-11-16-23-37-27-45-10-23-126-140-139-140-6 0-21-11-34-25s-28-25-33-25-23-11-41-25c-59-48-90-65-114-65-10 0-27-7-38-15-10-8-29-15-41-15-13 0-23-4-23-9s-26-12-57-16c-32-3-66-10-75-15-22-12-335-13-342-1-3 5-31 12-61 16-30 3-55 11-55 16s-10 9-22 9c-13 0-32 7-42 15-11 8-29 15-41 15s-26 5-31 10c-7 7-20-2-42-29l-31-39 33-16c19-9 39-16 45-16s26-9 45-19c34-20 96-36 128-33 10 0 20-3 23-9 4-5 24-9 46-9 21 0 39-4 39-10s52-10 135-10 135 4 135 10 22 10 49 10c28 0 52 4 55 9s31 12 61 16c30 3 55 11 55 16s8 9 18 9c18 0 183 80 209 101 15 13 46 32 73 46 21 10 190 180 190 191 0 5 11 19 24 32 14 12 28 35 31 49 3 15 15 33 25 41 11 8 20 18 20 23 0 9 11 35 46 112 10 22 17 45 16 52-1 6 2 14 8 18 5 3 10 22 10 41s5 34 10 34c18 0 12 97-6 104-33 13-53 5-69-26z"/><path d="m1120 655c-25-27-25-35-1-35 11 0 23-4 26-10 3-5 28-10 56-10 27 0 49-4 49-9s32-9 70-9c39 0 73 4 76 9s23 9 45 9c21 0 39 5 39 10 0 6 11 10 24 10 35 0 39 14 13 38-21 19-27 20-104 10-55-8-113-8-178-2-91 9-97 8-115-11z"/></g><g transform="translate(0 256) scale(.1 -.1)" fill="var(--icon-stroke, #24324B)"><path d="m1248 2355c-3-4-43-10-89-15-149-15-416-120-495-195-6-5-25-21-43-35-76-59-231-239-231-268 0-7-4-10-10-7-5 3-10 0-10-8 0-22-36-98-43-91-3 4-5-2-5-12 1-11-6-35-15-54-46-97-69-229-69-398 0-107 4-168 11-175 6-6 11-22 11-36 0-28 29-141 40-156 4-5 11-26 15-45s10-37 14-40c12-10 41-69 41-84 0-9 5-16 10-16 6 0 10-7 10-15s4-15 9-15 12-8 16-19c16-52 235-266 311-306 22-11 41-22 44-25 5-5 39-22 126-63 28-13 79-30 113-38 33-7 61-16 61-19 0-7 34-9 218-16 91-3 152-2 152 4 0 8 77 20 153 25 9 1 17 5 17 9s9 8 20 8 28 4 38 9c25 14 56 24 65 23 4-1 7 2 7 8 0 5 9 10 20 10s20 5 20 10c0 6 5 10 10 10 6 0 28 11 50 25s40 23 40 20 8 3 19 13c10 9 29 25 42 35 33 25 203 191 201 197 0 3 9 16 21 30 13 14 23 27 23 30s19 43 42 90c75 155 112 294 84 322-17 17-52-18-52-51 0-39-25-113-35-104-4 4-5 2 0-5 4-8 3-24-3-35-5-12-18-40-27-62-25-57-124-205-137-205-6 0-9-3-5-6 7-7-92-114-105-114-5 0-21-11-36-25s-30-25-33-25c-4 0-21-14-39-30-18-17-43-33-56-36s-24-9-24-13-17-13-37-20c-21-7-51-19-68-26-53-23-97-35-106-29-5 3-9 1-9-3 0-18-113-33-253-33-81 0-147 4-147 8s-15 9-32 10c-18 2-35 7-36 12-2 6-7 8-12 5-13-8-201 61-208 77-2 5-10 8-18 8s-14 4-14 10c0 5-7 7-15 4-8-4-15-1-15 5s-5 11-11 11-16 6-23 13c-7 6-25 21-41 32-265 189-415 483-415 814 0 132 3 156 47 340 10 41 99 206 147 273 48 68 177 198 195 198 6 0 11 4 11 8 0 13 113 77 130 74 8-2 12-1 8 4-22 22 247 116 288 100 8-3 13-2 9 3-18 30 277 24 409-8 76-19 266-107 266-123 0-4 5-8 10-8 30 0 168-124 225-202 30-42 41-41 90 9 31 31 49 43 56 36 9-9 31-208 33-298 1-22 4-42 7-45 4-3 8-32 10-65l4-60-35 2c-235 12-427 26-434 33-5 5 14 33 43 64 43 45 51 58 43 73-17 29-83 88-142 125-49 31-78 46-155 79-76 32-141 41-269 36-134-5-164-12-271-63-84-39-234-160-235-188 0-5-6-17-14-25-86-100-145-380-106-505 5-17 17-59 27-93 10-35 21-63 26-63 4 0 7-5 7-10 0-47 179-250 221-250 5 0 7-5 4-10-4-6-3-10 2-8 4 1 38-12 75-30s75-32 86-32c10 0 22-4 28-10 16-16 213-23 284-10 36 7 75 13 88 14 12 0 22 4 22 8 0 3 17 12 38 19 20 6 39 15 42 18s20 15 39 25c61 34 152 118 184 168 37 59 57 99 57 114 0 8 5 12 10 9 6-3 10 3 10 15s-4 18-10 15c-5-3-10 2-10 12 0 19-59 63-85 63-38 0-86-36-119-90-32-51-114-132-122-120-2 3-9-4-17-14-9-12-19-16-27-11s-11 4-7-2c14-22-145-57-233-50-85 6-114 13-180 45-68 33-179 143-204 203-10 24-23 55-30 68-6 13-11 73-11 135 0 108 1 113 39 190 94 194 291 300 493 266 84-15 162-50 215-98 18-17 43-39 56-50 12-11 22-31 22-44 0-36 16-45 90-51 36-3 117-10 180-16 318-27 308-26 336 0 17 16 23 30 19 44-10 34-34 297-28 314 4 13 3 13-5 2-7-10-12 3-16 50-18 214-44 242-139 154-50-46-37-50-112 35-22 25-40 43-41 40s-22 14-46 36c-24 23-54 45-66 48-12 4-22 11-22 16s-10 12-22 16c-13 3-34 14-48 24-14 9-47 24-75 34-27 10-59 21-70 26-22 10-129 34-221 50-65 11-147 13-156 5zm349-70c71-23 159-64 140-65-4 0-24 7-45 16-20 9-80 29-132 45-53 15-83 28-68 28 15 1 62-10 105-24zm-661-40c-60-24-137-61-170-81-81-49-80-49-72-36 22 36 270 160 321 161 21 0-4-13-79-44zm1e3 -183c30-29 52-55 49-58-5-6-30 15-132 110l-40 38 34-19c19-10 59-42 89-71zm267-187c4-40 3-55-3-45-6 8-12 56-15 105-6 99 7 55 18-60zm-1760 35c-47-61-65-77-45-39 19 34 75 99 86 99 3 0-16-27-41-60zm1e3 -42c91-28 166-67 234-123 69-57 69-59 13-114l-44-44-44 36c-93 77-229 127-343 127-424 0-652-495-371-807 101-112 206-157 366-158 170 0 312 73 406 210 49 73 81 88 122 58 52-38 30-98-79-217-186-203-477-254-737-129-105 50-224 168-276 274-187 381 42 834 462 909 68 13 215 1 291-22zm-1170-224c-34-88-45-105-36-58 7 37 55 149 62 143 2-3-9-41-26-85zm1945-90c8-92 1-98-85-86l-64 10 56 1c75 1 83 12 74 98-4 44-3 64 3 58 5-5 12-42 16-81zm-359-54c65-8 62-8-42-7-66 1-117 7-123 13-12 12 22 10 165-6zm-1658-247c-2-16-4-5-4 22 0 28 2 40 4 28 2-13 2-35 0-50zm42-258c20-68 23-81 11-63-15 24-40 109-39 133 1 20 6 8 28-70zm1910-200c-23-47-44-83-47-80-2 2 9 30 25 62 17 32 36 76 44 98 8 25 14 34 17 23 2-10-16-56-39-103zm-1629-269c21-24 22-27 5-18-25 13-66 58-90 97-18 31 19-4 85-79zm1500 70c0-15-118-136-134-136-5 0 15 26 45 58 30 31 61 65 69 74 18 21 20 22 20 4zm-1278-233c21-13 42-23 48-23 5 0 10-4 10-10 0-14-2-13-47 11-50 27-96 62-68 52 11-3 37-17 57-30zm1058 32c0-19-193-115-206-102-4 4 183 104 199 106 4 1 7-1 7-4zm-745-146c13-13-23-10-70 6l-40 13 50-5c28-3 54-10 60-14z"/></g></svg>
