<svg fill-rule="evenodd" stroke-linecap="round" stroke-linejoin="round" viewBox="0 0 256 256" xmlns="http://www.w3.org/2000/svg"><g transform="translate(0 256) scale(.1 -.1)" fill="var(--icon-coral, #FF8A65)"><path d="m928 2333c-27-34-38-58-43-99-3-30-10-56-15-59-4-2-11-29-15-60-3-30-10-57-15-60-4-3-11-29-15-58-4-28-11-57-15-62-5-6-11-35-15-64-5-47-3-57 16-77l22-24 13 25c7 14 16 45 20 70 3 25 10 45 14 45s11 25 15 55c3 30 10 57 15 60 4 2 11 34 15 70 3 36 10 65 15 65 4 0 11 25 15 56 9 72 30 94 89 94 25 0 47-4 50-9 4-5 60-12 126-16s123-11 125-15c3-5 61-11 130-15s125-11 125-15 30-10 66-13c91-9 97-16 90-97l-7-65 42 43c39 41 41 46 37 92-7 72-51 100-160 100-26 0-49 4-52 9-3 4-52 11-108 15s-107 11-113 16c-5 4-61 11-123 15s-115 11-118 16-47 9-97 9l-92-1-37-46z"/><path d="m1313 2e3c-48-55-10-153 59-153 40 0 88 50 88 93 0 78-97 118-147 60z"/><path d="m1062 1904c-38-26-21-71 34-88 34-10 81-65 65-75-17-11-6-30 23-40 15-6 24-3 33 9 13 19 45 17 71-3 7-6 45-12 85-15 64-4 74-2 91 17 18 20 18 22 1 41-10 11-31 20-47 20-15 0-28 4-28 9 0 4-19 11-43 14-41 6-127 45-158 73-8 8-19 14-23 14s-19 9-33 20c-31 24-42 25-71 4z"/></g><g transform="translate(0 256) scale(.1 -.1)" fill="var(--icon-yellow, #FFD85A)"><path d="m1779 2244c-7-8-13-25-14-37-5-62-18-137-25-137-4 0-11-27-15-60s-10-60-15-60c-4 0-10-22-14-50-4-27-11-50-15-50-5 0-12-27-16-60s-11-60-15-60-11-27-15-60-11-60-16-60c-4 0-11-23-15-50-4-28-10-53-15-55-4-3-11-30-14-60-4-30-11-55-15-55s-11-28-15-62c-4-35-11-68-16-74-6-7-8-18-7-25 4-17-70-25-85-10-6 6-51 11-102 11-79 0-94 3-110 20-10 11-26 20-35 20s-20 4-26 9c-15 16-340 18-355 4-7-7-28-13-47-13h-34l7 58c4 31 10 62 15 67 4 6 6 18 5 27-2 10 1 20 6 24 5 3 9 18 9 34s4 31 8 34c5 3 7 19 4 36-2 16 0 30 6 30 5 0 13 27 17 60s11 60 15 60 11 21 15 48c4 26 11 52 17 59 14 18 0 67-27 93l-23 22-7-41c-4-23-11-43-16-47-5-3-9-18-9-33 0-50-16-59-118-63-53-2-96-9-100-15s-20-15-35-18c-15-4-27-11-27-16s-6-9-13-9c-15 0-112-98-120-122-3-9 1-22 9-28 8-7 14-9 14-5s6 2 14-4c10-9 17-6 30 13 19 30 67 76 79 76 5 0-9-21-30-47-45-56-82-128-90-178-3-19-10-35-16-35-12 0-1 88 13 105 7 9 6 16-4 24-10 9-16 9-21 1s-11-8-21 1c-11 9-14 7-14-10 0-11-4-21-9-21-26 0-15-56 16-86 38-36 42-64 12-82-18-12-24-11-45 9l-24 22v-107c0-102 1-107 23-115 13-5 29-16 36-25s24-16 37-16c25 0 34-25 12-32-14-5-25-346-12-377 12-30 17-251 5-251-7 0-11 29-11 84 0 47-5 88-10 91-6 3-10 23-11 43l-1 37-14-32c-7-17-18-34-24-38-10-6-14-174-4-210 10-37 58-55 167-61 56-3 109-8 117-11 25-10 27-10 238-24 111-7 202-16 202-20 0-3 65-10 145-14s147-11 150-15 66-11 140-15 138-11 141-16 33-9 68-9c58 0 98 13 169 57 4 3 2 12-5 21-11 13-10 15 9 10 13-4 26-2 29 3 3 6 14 7 23 4 30-9 183 73 176 95s21 34 58 25c30-8 101 27 86 42-6 6 2 20 21 38l30 29v320c0 280-2 322-16 337-15 17-15 20 10 49 26 31 26 34 26 188 0 156-13 291-29 302-4 3-13 21-20 40-13 38-58 90-78 90-7 0-13 4-13 9 0 24-68 41-186 47-68 4-124 11-124 16 0 4-14 8-31 8-24 0-29 3-21 13 5 6 13 35 17 62 4 28 11 52 15 55s12 36 17 74c15 108-10 176-48 130zm-1055-671c-36-167-43-194-54-228-7-20-10-45-7-56 5-18-1-19-74-19h-79v30c0 45 54 195 85 235 15 20 52 49 83 64 32 16 57 29 58 30 0 0-5-25-12-56zm1352 2c7-22 13-83 13-136l1-97-96-42c-52-23-97-40-100-37-16 15 69 270 112 335 24 36 56 26 70-23zm-1716-388c0-24 5-48 12-55 17-17 2-28-17-12-17 14-22 110-5 110 6 0 10-19 10-43zm490 14c0-6-4-13-10-16-6-4-10-80-10-196 0-119-4-189-10-189-15 0-13 383 2 398 14 14 28 16 28 3zm180-185c0-47-23-64-44-34-27 38-21 68 14 68 27 0 30-3 30-34zm-312 8 32-5v-111-112l48-46c54-52 42-49 279-66l91-6 84 78-1 124c-2 103 0 121 12 112 7-6 58-14 113-17 54-3 113-8 129-10l30-5-6-192c-4-106-7-220-8-254l-1-60-132 13c-73 7-250 24-393 38s-309 29-368 34c-60 5-111 11-113 14-2 2-7 113-11 246l-6 241 94-6c52-3 109-7 127-10zm1362-217v-204l-92-43c-51-23-99-45-105-47-15-6-18 202-7 340l7 75 96 41c53 22 97 40 99 40 1 1 2-91 2-202zm-320-22c0-95-3-135-11-135-9 0-10-30-7-105 4-72 2-107-6-114s-12 53-15 231c-2 176 0 239 8 234 6-4 11-1 11 8s5 16 10 16c6 0 10-52 10-135z"/><path d="m510 2164c-17-17-21-27-13-32 6-4 15-20 18-35 4-15 11-27 15-27 5 0 11-13 15-30 4-16 11-30 16-30s9-5 9-12c0-22 41-56 61-51 27 7 24 28-16 106-19 38-35 75-35 83 0 12-34 54-43 54-2 0-14-11-27-26z"/><path d="m319 1933c-7-45 12-70 65-83 22-6 50-15 61-20 59-25 85-18 85 24-1 22-76 67-112 66-10 0-18 5-18 10 0 11-79 14-81 3z"/></g><g transform="translate(0 256) scale(.1 -.1)" fill="var(--icon-purple, #BFA7FF)"><path d="m2e3 1628c-67-69-86-104-122-218-45-145-46-153-13-184l28-26 102 44c57 24 116 57 133 72l30 29-6 106c-6 121-13 143-56 193-40 45-36 46-96-16z"/><path d="m2e3 1e3c-140-64-153-80-153-192 0-52 5-96 11-102 8-8 8-17 0-31-6-11-11-61-11-109 0-84 2-91 28-116l27-26 100 49c146 71 166 95 162 197-1 49-8 87-16 97-12 14-11 19 3 34 12 14 16 39 16 103 0 80-2 87-28 112-35 34-29 34-139-16z"/><path d="m490 985c-28-29-30-35-30-116 0-48 5-90 11-96 8-8 8-13 0-17-7-5-11-45-11-105 0-97 0-97 33-129 27-26 41-32 77-32 25 0 83-5 130-10s186-19 310-30 288-26 365-34l140-14 54 51v217 217l-27 26c-26 24-33 26-145 28-116 2-118 2-146-25-24-23-29-37-33-91-6-99-7-99-178-91-139 7-214 17-228 31-4 4-9 46-10 93-4 82-6 89-35 120-17 18-36 31-42 29-5-3-54-2-108 2l-98 6-29-30z"/></g><g transform="translate(0 256) scale(.1 -.1)" fill="var(--icon-orange, #FFB84D)"><path d="m2e3 1785c-19-19-39-35-45-35s-22-11-35-25c-14-15-30-23-40-20-20 6-62-36-67-67-5-30 45-82 64-67 7 6 13 8 13 4s23 14 51 39c61 55 75 56 119 11l34-35 23 22c61 58 59 83-15 161-55 56-59 57-102 12z"/><path d="m544 1664c-33-22-43-25-70-16-30 9-35 7-71-32-40-42-83-120-83-150 0-9-4-16-10-16-5 0-12-27-16-60s-11-60-15-60c-5 0-9-28-9-62v-61l24 22c13 12 27 18 30 13s27-13 52-17c42-6 49-4 75 21 16 16 28 33 25 40-2 6 0 16 5 21 6 6 4 14-6 23-21 17-19 30 8 59 13 15 32 48 41 74 10 27 42 77 72 111l53 63-28 27c-33 32-30 32-77 0zm-71-101c-45-56-82-128-90-178s-27-45-20 6c7 54 52 141 95 184 51 51 60 43 15-12z"/><path d="m1819 1533c-44-49-83-203-95-373l-6-95 29-28 29-27 24 25c17 18 27 22 36 14 10-8 42 2 126 39 62 27 139 60 171 73 33 13 72 38 87 56l28 32-4 128c-5 122-6 129-31 156l-27 27-28-27c-27-26-28-30-28-126 0-81-3-98-14-94-28 11-143-64-130-84 7-12-3-11-24 2-13 8-29 7-62-5-55-19-55-19-40 51 6 32 18 96 27 142l15 83-58 58-25-27z"/><path d="m855 1241c-55-24-60-44-55-206l6-150 2 151c2 122 5 154 17 164 19 16 34 5 17-12-8-8-12-61-12-168 0-178 6-197 52-153 28 26 28 29 28 145v118h88c84 0 90 1 115 28l27 28-27 26c-25 23-38 26-133 32-58 3-114 2-125-3z"/><path d="m1177 1192-27-28v-190-190l56-54 54 56v190 190l-56 54-27-28z"/><path d="m387 1064c-3-3-3-13 0-21s0-19-8-24c-15-9-27-346-13-378 4-9 6-27 5-41-2-24-2-24 33 10l35 35 6 164c4 134 9 168 22 183 15 17 15 20-12 48s-54 38-68 24z"/><path d="m2141 976-33-34 3-210 4-211-21 20c-11 10-27 19-35 19-21 0-90-38-121-68-26-24-27-27-11-44 9-10 13-21 9-25-10-10 45-62 60-56 10 4 12 0 8-11-12-31 23-26 105 15l83 41-31 32c-37 38-44 71-8 38l23-22 54 56v220 220l-56 54-33-34z"/><path d="m1767 988c-10-5-21-7-25-4-3 4-18-6-34-21-28-27-28-27-28-157 0-107 3-133 17-148 14-16 16-41 14-186l-2-167 30-29c17-16 28-32 26-36-3-4 1-12 8-18 9-8 35 0 95 29 79 39 90 48 75 63-4 4-8 19-10 34-2 16-20 42-46 66l-42 38-3 248-4 248-26 25c-21 20-31 24-45 15zm-7-203c0-83-4-135-10-135s-10 52-10 135 4 135 10 135 10-52 10-135z"/><path d="m328 809c-2-100 0-183 5-186 4-2 7 79 7 181s-2 186-5 186c-2 0-5-81-7-181z"/></g><g transform="translate(0 256) scale(.1 -.1)" fill="var(--icon-skin, #F0D8C0)"><path d="m1823 1647c-60-61-143-388-143-559 0-60 2-66 35-98l35-34 35 34c19 18 32 37 28 43-17 28 5 265 28 293 5 6 13 39 18 75 9 63 42 162 63 187 8 10 1 22-29 52l-39 40-31-33z"/><path d="m380 1e3c-16-10-29-345-14-379 4-9 6-25 5-36-3-17 1-16 28 9l31 30v176c0 157-2 179-18 193-12 11-22 13-32 7z"/><path d="m322 998c-19-19-17-352 3-368 13-11 15 10 15 184 0 108-1 196-3 196s-8-5-15-12z"/><path d="m1646 971-28-29 8-572 29-30c16-16 31-28 34-25 2 3 15-5 28-17l23-22 29 28c32 31 37 63 44 254 3 79 2 83-25 109s-28 26-28 5c0-12-4-22-10-22s-10 56-10 148v148l-28 27c-35 33-32 33-66-2z"/></g><g transform="translate(0 256) scale(.1 -.1)" fill="var(--icon-slate, #606078)"><path d="m1161 1791c-13-8-13-12-1-26 12-15 12-18-3-26-9-6-17-16-17-23s-13-25-30-41c-16-16-30-25-30-21s-6 2-12-3c-63-50-88-75-88-86 0-7-6-15-12-18-21-7 21-47 49-47 12 0 40 16 62 35 21 19 46 35 54 35 16 0 84-76 80-89-1-3 6-14 14-23 22-24 66-23 88 2 18 20 18 21-18 58-20 21-37 41-37 46 0 4-13 21-30 38-46 46-32 134 20 121 29-8 25 15-7 49-27 28-56 35-82 19z"/><path d="m2e3 1637c-58-62-89-119-125-232-41-130-42-156-7-190l29-28 113 47c62 27 126 60 142 74l28 27-5 110c-6 128-15 157-65 208-46 48-49 47-110-16zm67-214 1-52-47-21c-25-11-48-18-51-16-6 6 47 165 67 199l16 28 7-43c3-24 7-66 7-95z"/><path d="m2231 1656c-20-21-22-31-16-63 4-21 7-109 6-195 0-161-9-207-44-237-15-12-17-48-17-337 0-217-3-325-11-329-7-5-5-13 5-24 15-16 14-19-4-36-15-13-17-21-9-31 15-19 107 29 120 63 6 15 9 178 9 397-1 254 2 372 9 374 14 5 15 338 1 347-5 3-10 21-10 38 0 51-13 61-39 33z"/><path d="m270 1148c0-26 5-50 10-53 6-3 10-15 10-26 0-10-4-19-10-19s-10-90-10-250 4-250 10-250 10-10 10-22v-21l50 46v249 248h25c26 0 35-25 13-32-10-4-14-53-16-193-3-170-2-187 12-176 13 11 16 43 18 185l2 171 3-146c3-141 4-147 28-169 21-20 25-32 25-85 0-55 3-64 31-91 33-32-1-27 469-68 102-9 230-21 285-26 55-6 141-14 190-19l90-9 33 33c29 28 34 40 39 96 4 42 12 71 24 84 16 18 19 42 22 180 2 129 3 113 5-81l2-240 56-54 55 57-7 227c-5 148-4 226 3 226 10 0 23-219 23-380 0-71 2-78 28-104 26-24 30-25 42-11 7 8 17 15 22 15 24 0 226 105 255 132l32 31v212 212l-65 63-104-47c-128-56-170-92-170-144 0-54-29-75-32-23 0 22-2 44-2 51-2 17-47 63-57 58-4-3-11 0-14 6-5 7-15 3-31-12l-24-23-30 29c-27 26-33 28-51 17s-24-11-38 2c-12 11-50 18-135 22l-117 7-34-33c-35-34-35-35-35-121 0-48-5-100-10-114l-10-27-159 6c-229 8-221 2-221 165v107l-32 31c-32 30-37 31-151 38-87 5-122 3-133-6s-18-8-32 5c-10 9-27 16-37 16s-27-7-37-16c-20-19-48-5-48 25 0 10-16 32-35 51l-35 34v-46zm1770-241c0-40-3-45-37-64-75-41-83-40-83 11 0 44 1 46 48 70 66 35 72 33 72-17zm-1356-3c12-5 16-20 16-59 0-64-18-85-45-55-12 13-31 20-57 20h-38v50 50h54c30 0 61-3 70-6zm786-110v-47l-77 7c-91 8-81 2-75 49l4 37h74 74v-46zm-725-109c21-4 52-13 68-22 16-8 35-12 42-10 7 3 16 2 21-3 14-13 295-24 324-12 17 6 50 5 105-4 44-7 99-13 123-13l42-1v-55c0-64 6-62-140-45-47 5-184 18-305 29s-275 25-342 32l-123 12v54 53h39c22 0 44 6 51 15 12 14 15 14 34-3 12-11 39-23 61-27zm1293-17c3-36 1-38-51-62-69-33-67-34-67 19 0 42 2 45 43 64 58 27 71 23 75-21z"/></g><g transform="translate(0 256) scale(.1 -.1)" fill="var(--icon-stroke, #24324B)"><path d="m973 2360c-45-23-52-36-80-150-10-41-21-77-24-80-4-3-10-29-14-57-4-29-10-55-15-58-4-3-11-30-15-60-3-30-10-55-15-55-4 0-11-27-15-60-4-38-11-58-18-53-6 3-7 1-3-6 21-33-4-51-71-51-68 0-174-23-200-43-45-35-143-134-143-144 0-7-4-13-10-13-5 0-9-3-8-7 1-5-4-21-10-36-7-16-12-35-12-43s-4-14-8-14c-11 0-32-190-29-272 1-38 4-68 7-68s3-114 2-252c-5-352 3-468 33-490 24-18 184-42 360-53 55-3 125-10 155-15s109-15 175-21 158-15 205-20 96-9 110-9 52-4 85-9c33-6 113-15 179-21 116-10 119-10 171 15 30 14 59 25 64 25 6 0 11 5 11 11s6 9 12 7c7-3 21 4 32 14s25 17 30 15c6-2 19 5 30 15s25 17 30 15c6-2 20 5 30 15 11 10 26 16 33 14 7-3 13-1 13 4 0 4 14 11 30 15 17 4 30 11 30 16s11 11 25 15c14 3 25 10 25 14s12 11 26 14c14 4 37 18 50 31l24 25v370c-1 204 2 375 5 380 10 17 6 343-5 385-6 22-15 57-21 78-5 21-14 44-19 50-6 7-20 25-31 40-35 46-93 77-144 77-32 0-44 3-39 12 4 6 3 8-4 4-6-3-63-1-127 6l-117 12 7 35c6 34 16 75 50 195 11 39 13 61 5 80-5 14-7 26-3 26 7 0-34 30-64 48-13 6-45 12-71 12-27 0-52 3-55 6-3 4-26 8-49 10-24 1-95 10-158 19s-142 18-175 21-67 7-75 10-35 7-60 8c-25 2-56 6-70 10-17 4-39 0-67-14zm312-65c61-8 187-24 280-36 176-22 215-36 215-78 0-18-57-244-90-356-11-38-23-85-27-102-3-18-10-33-15-33-6 0-8-6-5-14 3-7-3-44-14-82s-22-84-26-101c-3-18-10-33-15-33s-7-3-5-7c4-7-14-101-41-213l-8-35-139 4c-129 3-142 6-171 28-43 32-346 55-406 30-38-16-74-12-95 9-16 16-16 30 1 85 7 24 21 80 31 124 25 110 58 240 116 450 12 44 24 97 26 118 3 20 9 37 15 37 5 0 7 4 4 8-10 16 36 177 58 201 24 26 85 26 311-4zm484-481c-13-14-25-20-27-14-7 20 7 40 29 40h22l-24-26zm191 11c0-2-22-26-49-53-91-91-173-298-209-527l-7-50-45-3c-79-4-78-10-16 238 53 210 58 226 98 278 82 105 105 121 176 122 28 0 52-2 52-5zm172-51c73-69 92-138 96-350 3-152 1-192-10-201-8-7-77-39-153-71-196-84-256-110-288-127-40-21-47-13-47 62 0 190 104 566 170 613 4 3 12 15 19 28 42 80 151 103 213 46zm-1412-103c0-5-17-15-37-22-41-13-122-85-152-133-26-41-71-181-71-218v-29l-57 3c-32 1-61 7-65 13-8 11-1 79 12 110 4 11 16 41 25 68 9 26 23 53 30 61 8 7 12 16 9 18-16 17 109 108 176 129 36 11 130 11 130 0zm-32-457 72-6-6-66c-4-37-7-68-8-68 0-1-55 2-121 7s-156 11-199 13c-49 3-83 10-88 18-8 13-11 111-4 119 4 4 208-6 354-17zm356 9c178-9 166 9 166-248s4-251-134-241c-209 15-225 18-251 42l-25 23v193c0 231 11 258 95 242 11-2 78-7 149-11zm511-69c139-5 135-3 135-79 0-35-3-66-7-68-10-5-393 21-410 27-9 4-13 27-13 72v67l103-7c56-5 143-10 192-12zm663-331-3-328-234-118c-129-64-236-116-238-113-14 13-27 663-14 684 6 10 76 42 92 42 5 0 9-123 9-274 0-235 2-275 16-286 13-11 16-10 20 6 4 14 45 39 135 81l129 62v250c0 254-3 273-35 242-13-13-204-91-221-91-54 0 21 42 213 121 43 17 82 36 88 40 5 5 17 9 27 9 17 0 18-17 16-327zm-1760-43c1-145 6-268 10-271 4-4 68-12 142-18 120-10 237-21 794-76 81-8 152-12 157-9s9 129 9 280c0 309-9 280 84 268l47-7-1-251c-1-138-4-295-7-348l-6-98h-36c-20 0-144 11-276 25-132 13-332 33-445 45-113 11-269 27-348 35-78 8-158 15-178 15-63 0-62-5-70 354l-7 327 128-6 3-265zm295 243c4-2 7-55 7-116 0-186 14-198 246-211 233-13 246-4 254 174l5 105 124-2c68-1 128-6 133-11 13-13 16-498 3-510-10-9-66-6-290 18-55 5-183 17-285 26s-243 21-315 28l-130 11-5 105c-3 58-4 172-2 253l3 149 122-7c67-4 125-9 130-12zm1344-207 2-217-113-54c-63-30-117-55-120-55-4 0-5 102-4 226l3 226 105 48c58 26 110 47 115 46 6-2 11-85 12-220z"/><path d="m2e3 1638c-60-61-126-234-155-405-9-56-7-56 158 17 75 33 139 60 144 60s7 48 5 108c-7 223-65 307-152 220zm93-40c13-27 20-71 24-150l6-113-114-48c-137-57-131-57-123-4 14 103 79 266 130 326 33 40 54 37 77-11z"/><path d="m940 1080c-25-25-26-70-1-102 14-17 21-44 23-84l3-59 75-6v59c0 46 4 63 20 77 24 22 27 81 4 113-21 30-95 31-124 2z"/><path d="m515 2160c-8-13 4-70 15-70 5 0 11-13 15-30 4-16 10-30 15-30s13-15 20-34c14-43 47-55 56-20 4 15 0 29-10 39-9 9-16 23-16 31s-4 14-9 14-12 12-16 27c-13 54-55 97-70 73z"/><path d="m331 1921c-25-16 2-37 84-67 66-25 87-29 95-19 19 23 0 41-73 64-95 31-92 30-106 22z"/></g></svg>
