<svg fill-rule="evenodd" stroke-linecap="round" stroke-linejoin="round" viewBox="0 0 256 256" xmlns="http://www.w3.org/2000/svg"><g transform="translate(0 256) scale(.1 -.1)" fill="var(--icon-white, #FFFFFF)"><path d="m1127 2e3 -27-28 30-29c27-26 36-28 92-26 35 1 87-3 117-9 52-10 56-9 83 17l28 27-23 24c-36 40-78 52-180 52-89 0-94-1-120-28z"/><path d="m1777 1462-27-28 28-27c22-21 38-27 75-27 51 0 142-30 180-60 24-19 24-19 51 9l27 28-55 50c-94 86-225 111-279 55z"/></g><g transform="translate(0 256) scale(.1 -.1)" fill="var(--icon-purple, #BFA7FF)"><path d="m1110 2e3c-135-38-317-186-386-316-20-37-35-54-46-52-12 2-15-3-11-17 2-10 0-22-6-25-6-4-11-25-11-47 0-21-4-39-10-39-5 0-10-11-10-24 0-21-5-24-71-30-59-5-106-22-129-46-7-7-41-28-59-37-32-14-125-126-136-163-4-14-12-28-17-31s-12-25-15-48c-3-22-10-41-14-41-13 0-11-227 1-235 6-3 10-16 10-28 0-16 3-18 11-10 9 9 18 0 35-35 59-119 195-229 316-257 96-22 1588-29 1596-7 2 6 11 12 20 12 12 0 13 3 5 11-9 9 6 29 56 78 84 83 104 124 109 222 5 100-19 158-96 231-51 48-56 57-58 100-4 70-38 136-107 206-83 85-142 114-233 114-31 0-34 3-34 28 0 175-209 415-419 480-73 23-218 26-291 6zm-60-866c0-43-3-50-20-50-13 0-22 9-26 25-10 38 3 75 26 75 17 0 20-7 20-50zm460 0c0-51-12-64-38-38-25 25-11 88 19 88 16 0 19-8 19-50z"/></g><g transform="translate(0 256) scale(.1 -.1)" fill="var(--icon-skin, #F0D8C0)"><path d="m542 547c-29-31-28-37 7-37 17 0 33-4 36-10 9-14 1465-14 1465 0 0 6 8 10 17 10 16 0 15 2-2 19-19 19-47 20-730 26-390 3-724 8-741 11-23 3-36-2-52-19z"/></g><g transform="translate(0 256) scale(.1 -.1)" fill="var(--icon-slate, #606078)"><path d="m1210 2061c0-4-32-11-72-15-39-3-76-10-82-15s-26-12-43-16c-18-3-33-10-33-14s-16-13-35-21c-20-8-43-22-52-32s-21-18-27-19c-37-2-210-262-198-298 2-6-2-18-8-26-20-25 7-51 30-30 15 14 18 14 30 0 19-23 54 14 95 102 118 256 476 336 732 164 92-63 173-212 173-322 0-65 56-118 124-118 154 2 245-81 250-228 2-55 3-57 63-112 73-66 93-108 93-192 0-99-16-136-87-203-59-56-62-61-46-78 15-17 15-19-2-38-12-13-15-24-9-30 10-10 54-2 54 10 0 4 12 11 27 15 27 6 133 105 133 123 0 5 7 15 15 22s17 27 21 46c3 19 10 34 15 34s9 43 9 95-4 95-9 95-12 15-15 34c-4 19-13 39-21 46s-15 18-15 24c0 15-72 86-87 86-5 0-13 26-16 58-14 143-167 312-284 312-17 0-35 5-38 10-3 6-15 10-26 10-12 0-19 7-19 19 0 11-4 22-9 25-4 3-11 25-14 48-8 55-61 152-112 203-11 11-25 29-31 39-6 11-19 24-30 30-10 6-28 20-40 31-25 25-54 44-76 51-10 4-18 10-18 14 0 5-15 12-32 15-18 4-38 11-44 16s-48 12-93 16c-44 3-81 10-81 14 0 5-13 9-30 9-16 0-30-4-30-9z"/><path d="m955 1250c-46-47-50-54-50-100s4-53 50-100c63-64 83-65 146-1 46 45 49 51 49 100 0 48-4 56-46 101-62 66-84 66-149 0z"/><path d="m1417 1252c-63-64-72-110-32-152 17-18 33-26 44-22 13 5 14 3 4-9-10-13-8-20 17-44 37-36 64-29 119 30 61 67 60 126-5 195-61 66-84 66-147 2z"/><path d="m1191 987c-19-6-59-35-89-64l-55-54 56-58 33 29c41 36 99 53 153 44s79-27 63-46c-9-12-6-20 18-43l30-29 35 34c47 46 45 58-23 123-77 73-138 91-221 64z"/><path d="m190 895c-8-10-9-19-2-27 5-7 13-29 17-48 10-46 72-147 97-158 5-2 8-10 8-18s8-18 18-21c9-4 26-16 37-27 53-55 219-110 242-80 7 10 13 12 18 5 4-7 81-11 224-11h217l54 56-57 55-219-1c-120-1-226 1-234 3-8 3-37 10-65 17-99 23-168 80-210 175-31 67-67 102-85 80-12-14-15-14-30 0s-18 14-30 0z"/><path d="m1505 590c-22-23-38-30-65-30-37 0-99-47-83-63 11-11 391-8 398 3 3 6 49 10 104 10 94 0 98 1 124 28l27 28-56 54h-210-210l-29-30z"/></g><g transform="translate(0 256) scale(.1 -.1)" fill="var(--icon-stroke, #24324B)"><path d="m1181 2e3c-19-6-45-9-58-6-12 2-20 0-17-4 3-5-5-9-17-9-28 0-119-32-119-42 0-5-5-8-10-8-45 0-250-212-250-259 0-6-5-11-11-11-5 0-7-4-4-10 3-5 1-18-5-29-9-19-28-115-33-171-1-19-8-26-27-28-85-8-173-35-215-64-99-72-174-171-198-263-30-120-39-164-32-175 8-13 26-107 27-137 0-13 4-20 9-17s9-2 9-11c0-43 115-186 162-201 10-3 18-10 18-15s7-9 15-9 15-4 15-10c0-5 7-7 15-4 8 4 15 1 15-5s12-11 26-11 23-4 20-8c-8-14 15-14 764-19 672-4 742-3 813 13 42 10 77 22 77 27s6 7 13 4c11-4 149 122 139 126-2 1 6 25 18 52 60 137 13 310-106 393-28 19-32 28-37 85-14 153-124 265-287 291-74 12-75 12-82 46-28 144-86 256-168 326-14 12-38 34-55 50-80 74-330 141-424 113zm232-72c206-75 366-269 367-446 0-52 8-58 77-58 155-2 295-138 298-291 0-52 2-55 46-87 85-61 113-125 107-238-6-115-66-203-173-257l-50-25-710-2c-429-2-739 1-784 7-224 30-382 252-342 479 36 202 196 355 385 367 72 4 66-2 71 76 14 212 175 413 384 478 88 28 243 26 324-3zm215-85c24-19 52-49 64-66 18-26-32 17-127 107-21 20 21-7 63-41zm-729 12c-13-14-37-35-54-46s-8 1 20 26c54 50 72 61 34 20zm906-314c5-23 4-32-3-25-5 6-12 30-15 55-7 49 5 29 18-30zm-1390-219c-3-5-24-24-48-41l-42-32 42 41c40 38 62 53 48 32z"/><path d="m984 1219c-44-49-14-159 43-159 39 0 63 34 63 88 0 83-59 123-106 71zm79-45c12-43-6-84-38-84-24 0-25 3-25 55 0 30 4 55 9 55s7-10 4-21c-5-19-4-20 16-9 19 10 20 14 9 27-11 14-11 15 2 11 8-2 18-18 23-34z"/><path d="m1445 1220c-67-74 15-210 85-140 25 25 27 105 4 138-19 28-64 29-89 2zm79-54c6-26 5-28-8-17-9 8-16 22-16 32 0 24-24 15-38-14-9-18-11-19-11-4-1 9 8 26 20 38 25 25 42 14 53-35z"/><path d="m1196 926c-57-21-104-70-86-91 12-14 16-13 39 8 69 64 156 63 215-2 15-16 22-18 33-10 62 52-105 130-201 95z"/></g></svg>
