<svg fill-rule="evenodd" stroke-linecap="round" stroke-linejoin="round" viewBox="0 0 256 256" xmlns="http://www.w3.org/2000/svg"><g transform="translate(0 256) scale(.1 -.1)" fill="var(--icon-coral, #FF8A65)"><path d="m630 1245c-12-13-26-22-30-20-8 5-20-92-20-156 0-21-4-40-9-43-4-3-12-42-15-86-4-44-11-82-16-85-4-3-11-21-14-40-5-27-12-35-28-35h-21l21-23c25-26 71-30 82-7 4 8 12 25 19 38s15 47 18 75c3 29 10 54 14 57s11 54 15 113 11 107 15 107c5 0 9 29 9 65 0 72-5 77-40 40z"/><path d="m862 1087c-12-13-22-28-22-34 0-20 80-83 104-83 13 0 26-6 29-12 5-18 269-17 275 0 4 14 138 17 146 3 4-5 24-12 46-16s42-11 46-16c11-19 133-10 154 11 45 45 3 90-86 90-37 0-70 6-89 17-37 21-268 24-287 5-15-15-148-16-148-2 0 6-9 10-21 10-22 0-81 29-87 43-7 15-39 6-60-16z"/><path d="m1880 860v-74l30 29c17 16 30 36 30 45s-13 29-30 45l-30 29v-74z"/><path d="m787 702c-13-3-17-11-15-30 3-27 4-27 88-30 46-2 89-7 95-11 5-5 101-12 213-16 111-4 205-11 208-16 10-17 214-11 220 6 9 23-15 45-47 45-15 0-30 4-33 9-3 4-97 11-208 15-112 4-207 11-213 16-10 8-274 18-308 12z"/></g><g transform="translate(0 256) scale(.1 -.1)" fill="var(--icon-yellow, #FFD85A)"><path d="m500 2371c0-5-17-12-37-15-52-10-112-78-92-102 12-15 11-16-8-10s-23 2-29-29c-3-19-10-38-15-41-14-8-11-119 4-147 11-20 17-23 25-15 15 15 15 3 0-21-20-32 49-88 76-61 5 5 22 10 36 10 16 0 37 11 53 28l27 28-28 27c-15 15-33 27-40 27-19 0-24 62-9 105 8 22 12 45 10 52-6 18 39 26 100 19 49-6 54-5 82 24l29 30-29 30c-16 17-35 30-44 30-8 0-12 3-8 6 3 4 0 13-8 20-15 15-95 19-95 5z"/></g><g transform="translate(0 256) scale(.1 -.1)" fill="var(--icon-green, #66DDAA)"><path d="m990 2294c-43-37-20-53 76-54 38 0 74-4 80-9 5-5 65-11 133-15l124-6-39 44c-39 44-40 44-106 45-37 1-70 6-73 11-3 6-42 10-85 10-70 0-82-3-110-26z"/><path d="m897 1922c-22-24-22-55 1-74 13-12 53-18 165-23 81-4 150-11 153-16s42-9 88-9c45 0 86-4 92-9 18-19 309-17 328 1 19 20 20 26 4 60-14 28-67 38-215 38-40 0-73 4-73 9 0 4-87 11-192 15-106 4-197 12-202 17-19 18-131 11-149-9z"/><path d="m930 1554c-44-13-51-99-12-137 37-35 66-34 105 4 73 73 11 161-93 133z"/><path d="m1527 1482c-52-54-19-122 59-122 68 0 98 80 47 125-37 33-73 32-106-3z"/></g><g transform="translate(0 256) scale(.1 -.1)" fill="var(--icon-purple, #BFA7FF)"><path d="m1265 1533c-31-8-75-54-75-80 0-34 46-73 85-73 37 0 85 39 85 68 0 24-28 82-40 82-5 0-14 2-22 4-7 2-22 1-33-1z"/></g><g transform="translate(0 256) scale(.1 -.1)" fill="var(--icon-orange, #FFB84D)"><path d="m520 2373c0-3 7-15 17-25 15-17 15-18-14-18-17 0-43-10-58-22-23-18-31-19-47-9-24 15-48-3-73-55-17-37-13-54 12-54 12 0 13-6 7-27-5-16-8-45-8-65 0-35-1-36-18-21-23 21-37-6-20-40 6-12 14-33 18-47 12-46 61-80 115-80 15 0 31-4 34-10 17-27 92-11 137 30 45 39 46 41 53 115 4 41 11 77 16 81 5 3 9 15 9 28s11 43 23 67l24 44 114-4c63-1 118-7 123-12 20-19 57-8 98 29l41 37-54 7c-30 3-84 6-121 7s-69 5-72 10-69 12-146 16-140 11-140 16-16 9-35 9-35-3-35-7z"/><path d="m2e3 2213-32-33h42c51 0 52-4 7-46-20-19-38-47-42-66-3-18-10-36-15-39s-12-48-15-100-11-97-16-101c-7-4-6-12 3-22 7-9 15-14 18-11s16-5 29-17l23-21v21c0 22 24 30 35 12 3-6 50-10 104-10h98l52 54c34 37 51 63 51 80 0 14 5 26 10 26 6 0 10 33 10 80 0 44-4 80-9 80s-12 15-15 33c-7 38-79 116-90 98-5-7-13-8-24-2-9 5-57 10-105 12l-88 4-31-32z"/><path d="m1887 893c-4-3-7-35-7-69 0-35-4-65-8-68-4-2-7-23-5-45 1-23-2-41-8-41-5 0-9-11-9-24 0-14-4-27-9-30s-12-23-16-43c-4-21-12-44-18-52-21-25-16-220 6-232 9-6 17-14 17-18 0-10-141-1-155 9-6 5-70 12-143 16s-135 11-138 15c-7 11-144 12-144 1 0-4 5-13 12-20 8-8 8-15-1-26-18-21-8-24 147-32 78-4 142-10 142-14s68-11 150-15c83-4 150-11 150-16s50-9 110-9c61 0 110 4 110 9s11 12 25 15c37 9 64 40 102 116 14 27 18 59 18 136v101l-34 33c-49 49-75 60-147 60-36 0-64 4-64 10s-7 10-15 10c-17 0-22 76-6 82 12 4 17 120 7 137-6 9-11 9-22 0-10-8-18-9-27 0-8 6-17 8-20 4z"/><path d="m1545 620-29-30h37c42 0 59 22 35 46-12 12-18 10-43-16z"/></g><g transform="translate(0 256) scale(.1 -.1)" fill="var(--icon-skin, #F0D8C0)"><path d="m647 2122-26-27-2-327c-1-233 2-332 10-342 9-10 8-16-3-25-7-6-17-37-20-69-4-31-10-76-13-100-7-60 1-80 26-58 13 11 21 14 26 7 19-31 25 0 25 122 0 74 2 136 5 139 6 6 8 698 2 704-2 2-15-9-30-24z"/></g><g transform="translate(0 256) scale(.1 -.1)" fill="var(--icon-slate, #606078)"><path d="m1230 2292c0-4 16-24 36-43 35-34 35-34 145-37 60-2 109-8 109-13s62-9 138-10c75-1 195-4 265-7 71-4 131-4 134 1 8 13 119 8 164-8 38-14 44-14 58 0s13 18-12 43l-27 27-220 3c-121 2-220 7-220 11s-102 11-227 15c-126 4-232 11-237 17-12 11-106 12-106 1z"/><path d="m520 1935c-41-42-39-45 30-45h60v-249c0-156-4-252-10-256s-10-58-10-128v-122l32 32c31 31 32 37 36 125 4 85 2 95-17 112l-21 19 24 26c25 26 25 27 26 235l2 208-32 33c-45 47-82 50-120 10z"/><path d="m1930 1863c0-17-5-33-11-35-8-3-13-136-17-446-3-244-9-445-14-448-11-7-10-121 1-128 5-3 14 1 21 9 12 14 15 14 30 0 25-23 30 35 30 402 0 208 4 314 11 318 6 5 9 60 8 155l-2 149-57 55v-31z"/><path d="m520 796c0-12-16-14-89-9l-88 6-47-43c-25-23-46-48-46-55 0-8-5-15-11-17s-14-27-17-56c-2-29-8-52-13-52s-9-13-9-30c0-16 4-30 9-30s11-23 13-52c3-29 11-54 17-56s11-9 11-16c0-32 59-69 116-74 43-4 55-2 49 7-4 7 0 20 9 30 16 18 15 19-29 26-76 11-110 62-110 164 0 66 19 125 53 164 17 19 142 26 142 7 0-22 57-9 83 18 35 37 36 100 1 71-8-7-14-7-19 1-9 15-25 12-25-4z"/><path d="m772 673c3-27 5-28 68-31l65-3-29 30c-42 44-109 46-104 4z"/><path d="m479 363c-1-5-1-12 0-17 1-4-4-14-10-22-9-11-7-14 10-14 11 0 21-4 21-8 0-5 114-12 253-16 138-4 256-11 261-17 6-5 54-9 107-9 55 0 101-4 104-10 3-5 36-10 72-10h66l-21 23c-20 22-21 24-5 40s13 17-48 17c-36 0-69 4-75 9-5 6-105 13-221 17-117 4-213 11-213 16 0 10-300 11-301 1z"/></g><g transform="translate(0 256) scale(.1 -.1)" fill="var(--icon-stroke, #24324B)"><path d="m485 2351c-11-5-24-6-28-4-7 4-65-51-107-103-11-14-15-46-15-135v-117l32-30c33-32 52-37 167-46 38-3 74-10 79-15 14-14 4-537-16-751-15-174-21-209-30-203-6 3-7 1-4-5 9-13-13-112-25-112-4 0-8-10-8-22 0-47-11-51-88-38-92 15-146-5-177-66-11-21-22-41-25-44-17-17-19-232-2-238 7-2 12-8 12-14 0-13 70-81 90-88 8-3 102-6 208-8 105-2 192-7 192-12s60-10 133-13c228-8 507-29 613-47 33-5 89-10 123-10 44 0 60-3 55-11s3-10 27-7c30 5 166-9 286-28 24-4 48-2 55 3 7 6 26 13 42 17 39 9 116 103 116 142 0 8 4 13 8 10 5-3 9 40 10 95 0 61-3 97-9 94-5-4-9 0-9 8 0 35-60 72-128 78-70 7-134 18-141 25-2 2 2 23 8 48s11 68 11 96c0 30 4 49 9 45 6-3 8 4 5 17-8 41 18 893 27 896 5 2 9 14 9 26 0 23 1 23 118 18l118-4 34 33c91 91 97 273 13 362-15 15-33 27-40 27-8 0-12 4-9 8 3 5-41 9-97 10-300 5-537 16-537 25 0 5-16 8-37 5s-108 1-193 9-191 16-235 19-82 9-85 12c-3 4-25 8-50 9-121 4-240 17-229 24 8 4-8 7-36 6s-88 2-135 6-94 3-105-2zm173-48c39-3 72-9 72-12s21-6 48-6c26-1 97-6 157-13 61-7 151-17 200-22 152-17 471-39 650-45 391-13 414-15 451-47 67-59 67-212 1-285-45-51-107-16-107 60 0 49 15 77 41 77 14 0 19 5 17 18-6 33-58 22-79-18-20-37-26-115-9-125 6-3 10-13 10-22 0-13-9-14-57-8-32 4-59 8-61 10-2 1 2 42 8 90 10 83 34 149 68 188 27 31-21 21-49-10-50-55-89-241-89-424 0-66-3-88-12-83-6 4-8 3-5-3 3-5 2-194-3-419-10-446-13-473-76-663-33-99-44-194-25-211 38-33 42-90 6-90-5 0-3 4 5 10 10 6 5 9-20 8-53-2-182 12-205 22-11 5-58 11-105 14-110 6-261 18-485 40-22 2-140 7-262 11-133 5-220 12-216 17 3 6-27 9-73 8-105-3-100-4-133 28-36 34-42 56-43 140-1 79 6 105 39 150 34 46 58 52 134 38 81-15 96-12 115 25 19 38 54 173 54 211 0 15 3 28 8 28 4 0 8 19 9 43 1 23 7 103 13 177 7 74 14 275 16 445 6 514 6 507 55 598 8 14 5 17-15 17-48 0-74-67-85-215l-6-90-90 3c-122 5-155 38-155 156 0 40 27 116 42 116 4 0 8 6 8 14 0 28 81 68 125 61 22-3 73-8 113-12zm1330-1717c3-4-2-20-11-35-9-16-17-43-17-59 0-36-14-47-55-43-45 4-47 11-22 85l22 68 38-5c21-3 41-8 45-11zm138-30c31-31 34-39 34-93 0-135-66-223-166-223-83 0-123 35-138 123-9 48 0 51 94 38 40-5 78-7 86-4 24 9 16 31-16 42-33 11-35 18-19 74 22 81 71 97 125 43z"/><path d="m785 681c-3-8-3-17 1-20 7-7 152-19 252-20 40-1 71-5 68-10s48-9 115-10 126-4 131-7c6-4 46-6 89-5 49 1 85-3 99-11 17-11 22-11 30 2 23 36-21 47-181 49-47 1-88 4-92 7-3 4-30 7-59 9-29 1-127 6-218 10-92 5-156 11-145 16 12 4 0 6-32 6-35-1-54-7-58-16z"/></g></svg>
