<svg fill-rule="evenodd" stroke-linecap="round" stroke-linejoin="round" viewBox="0 0 256 256" xmlns="http://www.w3.org/2000/svg"><g transform="translate(0 256) scale(.1 -.1)" fill="var(--icon-coral, #FF8A65)"><path d="m1230 2241c0-5-10-11-21-13-12-2-36-20-53-41l-31-39-3-857-2-857 30-42c17-24 41-44 57-48s34-11 41-17c8-6 12-6 12 2 0 6 13 11 28 11 44 0 81 22 88 52 3 16 10 28 15 28s9 345 9 865c0 570-3 865-10 865-5 0-10 5-10 12 0 19-52 68-72 68-10 0-18 5-18 10 0 6-13 10-30 10-16 0-30-4-30-9zm50-116c9-11 17-1236 10-1667 0-24-4-28-30-28h-30v819c0 810 0 819 20 824 25 6 26 35 3 53-16 12-16 13-2 14 9 0 22-7 29-15z"/></g><g transform="translate(0 256) scale(.1 -.1)" fill="var(--icon-blue, #5EC8F8)"><path d="m810 1850c0-5-6-10-13-10-8 0-24-12-38-26l-24-26-6-1e3 37-37c34-33 43-37 89-37 54 0 105 27 105 55 0 7 6 15 13 18 9 3 12 113 12 506 0 468-1 503-17 512-10 6-18 17-18 24 0 8-6 15-14 15-7 0-19 7-26 15-14 17-100 21-100 5zm75-110c14-16 16-23 7-32-15-15-16-94-2-103 14-8 14-702 0-710-6-3-10-23-10-44 0-47-22-71-45-48-20 21-23 925-3 945 17 17 32 15 53-8z"/></g><g transform="translate(0 256) scale(.1 -.1)" fill="var(--icon-green, #66DDAA)"><path d="m1586 1707-47-44 3-404c3-450 1-437 73-455 17-4 36-12 44-18 11-8 15-8 18 2 3 6 17 12 32 12 35 0 65 22 80 57 8 21 11 139 9 425-3 436-1 418-67 451-59 28-96 22-145-26zm105-67c18-10 19-25 19-368 0-371-1-382-41-382-28 0-29 17-29 376 0 379 3 399 51 374z"/></g><g transform="translate(0 256) scale(.1 -.1)" fill="var(--icon-purple, #BFA7FF)"><path d="m952 1747c-22-23-22-25-22-448v-425l60-58v465c0 255-4 470-8 477-6 9-14 6-30-11z"/><path d="m788 1663-28-29v-395-395l29-28c16-15 30-24 32-19 2 4 2 207-1 451l-5 443-27-28z"/><path d="m2e3 1455c-35-20-39-35-39-189l-1-139 36-33c33-32 84-46 84-24 0 6 6 10 13 10 39 0 47 32 47 186v150l-28 27c-31 30-71 34-112 12zm60-179c0-53-4-98-10-101-6-4-10 30-10 94 0 61 4 101 10 101s10-38 10-94z"/><path d="m2290 1333c-36-14-45-79-15-113 23-25 67-26 88-2 18 20 23 82 7 82-5 0-10 6-10 14 0 22-36 32-70 19z"/></g><g transform="translate(0 256) scale(.1 -.1)" fill="var(--icon-skin, #F0D8C0)"><path d="m1205 2150-29-30-22 20-21 21-7-32c-10-51-7-1692 4-1709 7-12 12-11 29 5 21 18 22 18 45-4 20-19 24-20 36-6 8 10 9 15 1 15s-11 220-11 819c0 810 0 819 20 824 25 6 26 35 3 53-15 11-16 13-2 14 23 0 39-21 39-53 0-25 2-28 15-17 24 20 18 46-20 79-44 38-45 38-80 1z"/><path d="m1296 1808c-8-30-8-1176 0-1206l7-23 47 44v582 582l-47 44-7-23z"/></g><g transform="translate(0 256) scale(.1 -.1)" fill="var(--icon-slate, #606078)"><path d="m1556 1678c-13-18-16-54-16-183 0-183 6-202 52-158l28 27v146c0 144-10 190-40 190-5 0-16-10-24-22z"/><path d="m467 1452c-10-10-17-24-17-30 0-7-4-12-10-12s-10-54-10-143c0-137 1-144 23-165 32-30 117-27 117 4 0 8 5 14 11 14 5 0 8 4 4 9-3 5-1 12 5 16s10 58 10 135c0 124-1 130-26 159-30 36-81 42-107 13z"/><path d="m201 1304c-27-45-27-50 7-79 32-29 40-30 78-10 16 8 25 15 20 15-6 0-5 5 2 12 19 19 14 51-12 76-36 34-70 29-95-14z"/></g><g transform="translate(0 256) scale(.1 -.1)" fill="var(--icon-stroke, #24324B)"><path d="m467 1432c-26-29-25-302 1-325 24-22 69-22 90 0 25 25 31 283 8 319-20 30-75 33-99 6zm58-157c0-86-3-119-12-122-10-4-13 25-13 122s3 126 13 123c9-4 12-37 12-123z"/><path d="m2282 1313c-7-7-12-30-10-51 6-67 98-54 98 14 0 25-7 32-48 43-19 6-31 4-40-6z"/><path d="m210 1303c-29-34-5-83 39-83 34 0 51 17 51 50 0 49-59 70-90 33z"/></g></svg>
