<svg fill-rule="evenodd" stroke-linecap="round" stroke-linejoin="round" viewBox="0 0 256 256" xmlns="http://www.w3.org/2000/svg"><g transform="translate(0 256) scale(.1 -.1)" fill="var(--icon-yellow, #FFD85A)"><path d="m1333 1918c-17-18-34-44-38-58-11-35-90-201-108-225-15-19-16-19-36-1-18 16-21 17-21 3 0-9-10-23-22-31-21-15-21-16-4-35s17-21-3-50c-47-65-181-164-295-217-40-18-79-40-86-48-7-9-17-13-22-10-12 8-79-56-72-68 3-5 0-15-6-23-10-13-8-15 14-15 14 0 26-4 26-10 0-5 14-10 30-10 17 0 30-4 30-10 0-5 9-10 20-10s20-4 20-10c0-5 10-10 23-10s28-5 35-12c18-18 47 9 30 30-42 50 181-108 240-170 27-29 31-37 19-46-19-16-10-56 19-83 13-12 24-28 24-34 0-7 9-20 19-29 11-10 23-31 26-47 4-16 11-29 16-29s9-9 9-20 5-20 10-20c6 0 10-9 10-20s5-20 10-20c6 0 10-13 10-30 0-16 5-30 10-30 6 0 10-15 10-34s5-38 10-41c6-3 10-40 10-81 0-43 4-74 10-74s10-7 10-16c0-44 54-57 88-21 18 19 22 35 22 95 0 39 5 74 10 77 6 3 10 21 10 40 0 18 6 35 13 38 9 4 9 8-1 23-24 37-24 46 3 107 79 179 202 331 340 420 63 41 72 44 87 30 15-13 20-13 49 1 18 9 40 16 49 16 26 0 31 12 13 32-15 17-15 20 10 46 15 16 27 33 27 38 0 13-53 64-66 64-33 0-207 113-282 184-98 92-204 258-241 376-13 40-64 110-81 110-3 0-20-15-37-32z"/><path d="m582 678c-7-7-12-38-12-71 0-73-13-87-78-87-55 0-82-20-82-62 0-37 18-47 90-50l65-3 3-65c3-62 28-110 59-110 22 0 48 57 53 114l5 61 50 3c63 4 115 45 91 71-8 9-14 21-13 26 1 6-28 11-65 13l-68 3v63c0 52-4 66-23 84-26 24-57 28-75 10z"/></g><g transform="translate(0 256) scale(.1 -.1)" fill="var(--icon-green, #66DDAA)"><path d="m2082 2177c-28-29-32-39-32-89 0-31 5-60 10-63 27-17 2-25-73-25-92 0-107-8-107-55 0-54 33-75 118-75 66 0 88-9 62-25-16-10-10-97 9-130 22-38 60-44 94-15 22 19 25 29 24 93l-1 72 73 3c164 7 165 127 0 134l-72 3v80c0 81-9 105-41 105-9 0-16 5-16 10 0 18-16 11-48-23z"/></g><g transform="translate(0 256) scale(.1 -.1)" fill="var(--icon-purple, #BFA7FF)"><path d="m383 2311c-7-11-11-54-11-102l2-84-75-3c-97-3-119-15-119-62s22-59 119-62l75-3-2-85c-1-119 30-151 90-93 25 24 28 33 28 93 0 83 7 90 90 90 75 0 100 16 100 65 0 42-25 54-112 55h-78v85c0 50-4 85-10 85-5 0-10 9-10 20 0 28-70 29-87 1z"/></g><g transform="translate(0 256) scale(.1 -.1)" fill="var(--icon-orange, #FFB84D)"><path d="m582 678c-7-7-12-38-12-71 0-73-13-87-78-87-55 0-82-20-82-62 0-37 18-47 90-50l65-3 3-65c3-61 28-110 57-110 27 0 54 53 57 112l3 63 56 3c71 4 114 39 86 69-8 10-15 23-14 28 1 6-28 11-65 13l-68 3v63c0 52-4 66-23 84-26 24-57 28-75 10zm53-208c11-17-5-32-21-19-7 6-11 15-8 20 7 12 21 11 29-1z"/></g><g transform="translate(0 256) scale(.1 -.1)" fill="var(--icon-slate, #606078)"><path d="m1345 2197c-31-15-45-54-45-119 0-32-4-58-10-58-5 0-10-22-10-50 0-27-4-50-10-50-5 0-10-9-10-20s-9-35-20-55-20-44-20-55c0-10-5-22-10-25-6-3-19-25-30-49-10-23-26-49-35-56-8-7-15-17-15-22 0-12-206-218-218-218-5 0-16-7-23-16s-22-20-34-25c-11-5-33-18-50-28-16-11-38-20-47-20-10-1-33-10-53-21s-53-20-75-20c-21 0-42-4-45-10-3-5-29-10-56-10-48 0-99-30-99-58 0-23 48-52 88-52 22 0 44-5 47-10s26-10 50-10c26 0 45-5 48-12 6-17 42 4 42 24 0 9 6 22 14 31 7 9 10 21 7 26-4 5-2 12 4 16s8 10 6 14c-3 4 18 18 47 31s64 31 78 41c23 16 28 17 38 5 18-21 93 29 182 121 66 68 71 76 56 90-14 15-12 20 21 60 20 24 42 41 48 39 26-10 144 145 144 190 0 34 18 39 26 7 7-30 92-125 105-117 17 10 83-105 69-121-16-20 4-47 122-161 118-115 172-152 199-136 19 12 94-13 84-28-3-4 4-15 15-25 16-15 18-21 8-33-7-8-13-22-13-31 0-26-86-63-105-45-49 43-253-149-403-379-73-112-85-143-64-164 11-12 13-23 6-46-8-28-5-35 21-62l30-30v28c0 15 5 27 10 27 6 0 10 14 10 30 0 17 5 30 10 30 6 0 10 8 10 18 0 23 46 116 65 132 8 7 15 18 15 25 0 6 9 20 20 30s20 23 20 29c0 20 213 222 252 240 20 9 40 21 43 26 7 12 64 40 81 40 7 0 29 9 49 20s49 20 65 20c17 0 30 5 30 10 0 6 19 10 43 10 51 0 67 13 67 55 0 43-16 55-76 55-29 0-56 5-59 10s-17 10-31 10c-13 0-24 5-24 10 0 6-9 10-20 10s-20 5-20 10c0 6-9 10-20 10s-20 5-20 10c0 6-11 10-24 10s-29 7-36 15-20 15-29 15-23 9-31 20-20 20-26 20c-15 0-187 176-196 201-4 11-14 22-23 25-8 4-15 14-15 23s-9 23-20 31-20 22-20 32-4 18-10 18c-5 0-10 9-10 20s-4 20-10 20c-5 0-10 9-10 20s-3 20-7 20c-11 0-33 50-33 71 0 10-4 21-10 24-5 3-10 21-10 40s-4 37-10 40c-5 3-10 34-10 69 0 65-16 116-37 116-7 0-13 5-13 10 0 12-8 11-35-3zm39-254c7-46-7-65-29-42-11 11-12 24-3 63 11 55 21 48 32-21z"/><path d="m790 1105c-23-24-23-25-3-25 11 0 26-7 33-15 7-9 32-24 54-35 23-10 57-35 75-54 19-20 40-36 46-36 14 0 95-82 95-96 0-6 14-23 30-39 29-27 31-28 47-12 14 14 15 21 6 36-10 15-9 22 2 31 27 22-136 199-231 252-28 16-32 16-47 1s-18-15-41 0c-33 22-38 22-66-8z"/><path d="m2063 675c-7-8-13-21-13-30 0-8-4-15-9-15s-4-11 2-25c7-14 20-25 29-25s19-6 22-12c5-10 7-10 12 0 3 6 12 12 21 12 23 0 43 26 43 55 0 15-6 33-14 41-19 18-77 18-93-1z"/></g><g transform="translate(0 256) scale(.1 -.1)" fill="var(--icon-stroke, #24324B)"><path d="m1342 2168c-6-13-14-48-17-78-15-120-63-284-91-306-8-6-11-14-8-17 7-7-74-129-93-140-7-5-11-12-9-16 6-10-167-191-183-191-6 0-11-4-11-10 0-5-7-10-15-10s-15-4-15-10c0-5-7-10-15-10s-15-4-15-10c0-5-7-10-15-10s-15-5-15-11-6-9-14-6-17-1-20-10c-4-8-13-13-21-9-8 3-15 2-15-2 0-23-163-72-241-72-87 0-98-60-14-72 76-11 148-24 170-32 55-21 223-111 219-118-3-4 2-8 12-8 19 0 90-60 86-73-1-5 2-5 8-2 6 4 20-4 31-17 68-78 107-125 128-157 42-61 102-184 96-199-2-7-1-11 4-8 12 8 41-88 53-179 15-116 17-125 34-132 31-12 54 26 54 90 0 33 4 74 9 91s15 51 22 76c20 70 63 162 114 242 50 77 217 254 249 264 11 4 29 15 40 25 11 11 35 24 53 31s33 16 33 20 7 8 15 8 15 5 15 10c0 6 7 10 15 10s34 8 58 18c68 30 111 42 150 42 34 0 37 2 37 29 0 32-14 41-65 41-106 0-333 129-461 261-67 71-163 199-147 199 4 0 0 6-9 13-24 19-73 115-92 182-9 33-21 74-26 90-5 17-10 59-11 95-3 88-40 131-67 78zm31-55c-8-52-13-54-13-5 0 23 4 42 9 42 6 0 7-17 4-37zm28-273c81-233 281-460 514-584 27-14 56-26 62-26 32 0 8-31-42-54-137-63-297-194-395-325-49-65-135-227-149-279-11-41-31-32-50 23-89 251-380 550-583 599-44 10-34 23 46 59 247 115 453 351 550 630 10 30 27 15 47-43zm-90 7c-6-6-11-21-11-32 0-20-73-145-84-145-3 0 19 49 47 109 29 59 54 102 55 94 2-8-1-20-7-26zm169-87c1-41-50 38-55 85l-6 50 30-60c17-33 30-67 31-75zm340-387c31-20 49-38 41-41-21-7-115 64-196 149-104 109-95 123 13 16 48-48 112-104 142-124zm-729 130c-22-40-183-170-180-146 0 8 178 163 186 163 2 0-1-8-6-17zm943-250c4-5 38-15 74-24 61-15 64-17 37-23-16-4-46-11-66-16-62-17-76-14-53 11 19 21 18 21-5 40-15 12-18 19-9 19 8 0 18-3 22-7zm-1359-47c26-11 51-38 33-36-13 2-110 39-115 44-12 12 48 6 82-8zm1155-137c-188-156-285-269-359-418-18-34-35-61-38-58-30 30 211 369 311 436 78 53 132 78 86 40zm-788-83c61-62 85-99 44-70-14 11-26 22-26 25s-34 33-75 65-75 62-75 66c0 17 85-38 132-86zm139-158c24-30 102-169 96-174-2-2-10 8-17 24-8 15-33 54-55 87s-44 66-48 73c-13 20 4 13 24-10z"/><path d="m2070 645c-12-22-11-27 5-45 26-29 52-21 67 20 16 46-48 69-72 25z"/></g></svg>
