<svg fill-rule="evenodd" stroke-linecap="round" stroke-linejoin="round" viewBox="0 0 256 256" xmlns="http://www.w3.org/2000/svg"><g transform="translate(0 256) scale(.1 -.1)" fill="var(--icon-purple, #BFA7FF)"><path d="m550 2052c-45-33-130-115-130-125 0-6-17-27-39-47-21-20-42-48-46-61s-15-33-25-44c-19-21-60-107-60-125 0-5-5-20-12-33-6-12-15-30-20-41-6-10-12-43-15-72-3-30-10-54-14-54-5 0-9-65-9-145s4-145 9-145c4 0 11-25 14-56s11-62 16-67c6-6 11-21 11-34s4-23 9-23 12-14 16-30c4-17 10-30 15-30 4 0 11-12 15-27 5-23 18-42 65-100 6-7 10-16 10-21 0-4 18-26 40-47 38-37 50-68 31-79-4-3-11-28-15-55-4-28-11-53-16-56-6-3-10-17-10-31 0-13-4-24-9-24s-11-8-15-17c-3-10-21-46-41-81l-34-63 30-30c28-28 72-39 83-20 3 4 33 11 67 14s66 10 72 16 21 11 34 11 23 5 23 10c0 6 9 10 20 10s37 9 57 20c21 11 43 20 50 20s13 5 13 10c0 6 6 10 14 10 7 0 19 7 26 15 12 15 77 12 90-4s51-29 100-36c30-4 58-13 62-19 10-16 486-16 496 0 4 6 32 15 62 19s62 11 72 16 27 14 38 19c11 6 26 10 33 10 14 0 188 86 197 98 6 8 38 29 60 39 28 13 111 103 105 114-4 6 3 21 16 35 21 23 22 25 6 41s-20 14-75-40c-32-31-62-57-68-57s-19-9-29-20-23-20-29-20c-7 0-18-9-26-20-8-10-27-22-42-25-15-4-28-11-28-16s-5-9-11-9c-13 0-82-31-89-41-3-3-22-9-44-13-21-4-46-11-55-16-19-10-90-24-108-21-7 1-13-3-13-9s-35-10-94-10c-53 0-98-4-101-10-8-13-72-13-80 0-3 6-33 10-65 10s-62 5-65 10c-4 6-12 10-18 9-23-4-138 14-142 22-3 4-26 11-50 15-25 3-45 10-45 15 0 15-77 10-90-6-7-8-19-15-26-15-8 0-14-4-14-9s-13-12-30-16c-16-4-30-10-30-13 0-8-74-42-90-42-6 0-19-4-30-10-11-5-29-14-40-20-21-11-73-14-82-5-7 7 14 55 24 55 3 0 9 14 13 30 4 17 11 30 16 30s12 18 15 40c4 22 10 40 15 40s9 11 9 25 4 25 9 25 12 23 15 52c7 51 7 52-38 97-25 26-46 51-46 55 0 5-9 17-20 26-25 22-110 185-110 211 0 11-4 19-10 19-5 0-10 18-10 39 0 22-5 43-11 46-6 4-9 24-8 46 2 21 0 41-4 45-9 9-9 128 0 138 4 4 6 26 4 50-1 24 2 47 8 51 6 3 11 19 11 35s4 31 9 35c6 3 13 26 17 50 3 25 10 45 14 45s11 10 15 23c4 12 8 24 10 27 1 3 5 14 10 25s14 24 22 28c7 4 13 14 13 21s9 21 20 31 20 22 20 27c0 14 163 178 176 178 6 0 17 7 24 16 29 34-50 66-90 36z"/><path d="m2e3 2057c-6-6-11-7-11-2 0 4-9 0-20-10-23-21-26-35-7-35 7 0 47-33 90-73 74-69 79-72 94-55s15 20-11 47c-19 20-24 31-16 36s-2 21-30 50c-46 47-72 59-89 42z"/><path d="m705 1411c-42-25-56-57-52-119 5-71 35-103 104-109 52-5 113 29 113 63 0 8 4 14 8 14 13 0 6 74-9 105-28 58-106 80-164 46z"/><path d="m1217 1412c-15-10-30-27-33-39-4-13-10-23-15-23-16 0-10-80 8-108 33-51 44-57 103-57s70 6 103 57c18 28 24 108 8 108-5 0-11 10-15 23-13 49-103 72-159 39z"/><path d="m1750 1412c-50-34-79-76-75-107 4-33 17-65 26-65 5 0 9-7 9-15s6-15 14-15 16-6 19-12c8-27 103-16 136 16 41 40 46 140 9 172-56 47-96 55-138 26z"/></g><g transform="translate(0 256) scale(.1 -.1)" fill="var(--icon-slate, #606078)"><path d="m1130 2291c0-4-37-11-82-15-46-4-87-11-92-16-6-6-20-10-33-10s-23-4-23-10c0-5-10-10-23-10s-32-7-43-15c-10-8-25-15-32-15-16 0-85-31-92-41-3-4-23-17-45-28-97-53-142-95-124-117 7-8 18-13 24-10 7 2 17 0 21-4 6-6 20-3 34 5s35 19 48 24c12 6 22 14 22 18 0 9 73 43 90 43 6 0 10 4 10 9s14 12 30 16c17 4 30 11 30 16s11 9 24 9c14 0 28 4 31 10 3 5 28 12 56 16 27 4 52 11 55 15 3 5 20 9 39 9s37 5 40 10c4 6 78 10 190 10s186-4 190-10c3-5 24-10 45-10s41-4 44-9c4-5 25-12 49-16 50-8 97-26 97-39 0-4 6-6 14-3 7 3 27-3 43-13 16-9 40-21 54-25 13-4 31-15 39-25 8-9 22-19 30-23s29-16 47-27c20-12 35-15 39-9 4 7 10 6 18 0 20-17 53 23 36 44-7 8-18 15-25 15s-21 11-31 25-24 25-30 25-17 6-23 14c-7 8-24 17-39 21s-29 10-32 13c-11 15-119 63-153 69-21 3-37 10-37 14 0 5-10 9-23 9s-28 5-33 10c-6 6-47 13-92 17-45 3-82 10-82 14 0 5-67 9-150 9-82 0-150-4-150-9z"/><path d="m2e3 2e3c-11-13-9-20 13-43 18-19 24-31 17-38s-4-16 10-29c11-10 20-23 20-29s9-17 20-24c12-7 25-23 30-35 11-25 32-60 41-67 16-13 59-103 65-134 3-20 10-39 15-42s9-18 9-34 5-32 11-36c6-3 9-20 7-36-3-16-1-31 4-34 4-3 8-56 8-119s-4-116-8-119c-5-3-7-18-4-34 2-16-1-33-7-36-6-4-11-20-11-36s-4-31-9-35c-5-3-13-20-17-37-7-33-23-69-36-78-3-3-7-9-8-15-6-26-15-42-35-60-12-11-24-27-28-35-19-38-37-64-62-90-17-18-23-30-16-35 8-4 5-15-9-32-18-24-19-28-6-42 22-21 158 114 182 182 3 9 10 17 14 17s11 8 14 18c4 9 18 37 31 62 14 25 25 53 25 63 0 9 5 17 10 17 6 0 10 10 10 23s5 28 11 34c5 5 13 36 16 67s10 56 14 56c12 0 12 297 0 304-4 3-11 33-15 66s-11 60-16 60c-6 0-10 11-10 24 0 14-5 28-10 31-6 4-10 12-9 18 2 18-12 57-21 57-4 0-10 8-14 18-10 30-58 107-72 115-8 4-14 14-14 20 0 12-130 147-142 147-3 0-11-7-18-15z"/></g><g transform="translate(0 256) scale(.1 -.1)" fill="var(--icon-stroke, #24324B)"><path d="m1095 2269c-16-5-46-7-65-4-26 4-31 3-20-4 12-9 9-11-15-11-44 0-293-96-315-121-3-3-32-23-65-45-157-103-325-317-361-458-3-15-10-29-15-32s-9-16-9-30c0-13-3-24-7-24-5 0-9-10-9-22-1-13-7-65-14-117-10-75-10-114 0-195 7-55 13-109 13-118 1-10 5-18 9-18s8-8 8-19c0-10 7-32 15-47 8-16 15-37 15-46 0-10 4-18 9-18 7 0 12-11 22-50 0-3 4-7 8-10s24-30 43-61c20-31 50-70 67-88 17-17 27-31 23-31s-1-4 6-8c8-6 10-22 6-55-4-28-11-44-17-40s-8 0-4-11c4-10-2-35-13-59-11-22-20-47-20-54s-4-13-10-13c-5 0-10-6-10-14s-6-21-12-28c-79-86-54-146 54-133 35 4 73 7 86 7 12 0 22 4 22 9s11 9 25 9 25 4 25 9c0 8 56 25 73 22 4 0 7 3 7 8s16 12 35 15c19 4 35 11 35 16 0 6 7 10 15 10s15 4 15 9 10 13 23 17c12 4 25 11 28 16s21 1 40-8c62-31 69-34 87-34 10 0 22-3 26-7 8-9 27-13 91-20 28-3 55-9 60-13 13-11 345-11 345-1 0 5 26 11 58 15 78 9 91 11 98 19 4 4 20 7 35 7s31 4 34 10c3 5 13 10 21 10s42 13 76 30c33 16 66 30 74 30s14 5 14 10c0 6 5 10 11 10s31 13 56 30c24 16 46 30 49 30 18 0 237 224 228 233-3 2 2 10 11 17 8 7 15 19 15 26 0 8 3 14 8 14 4 0 16 20 27 45s23 45 27 45c5 0 8 9 8 19 0 11 5 23 10 26 6 4 8 10 5 15s-1 11 5 15c5 3 10 16 10 29 0 12 3 26 7 30 4 3 8 14 9 24 22 162 24 208 15 313-12 128-14 145-24 155-4 4-7 15-7 24 0 22-79 192-92 198-5 2-8 8-8 13 0 29-154 201-232 258-11 9-31 26-44 38s-24 19-24 16-6-1-12 5c-49 39-299 142-346 142-13 0-21 3-19 8 6 9-18 11-243 17-108 2-197 0-215-6zm410-58c126-28 305-94 305-112 0-5 3-8 8-7 10 4 72-35 72-45 0-4 4-6 8-3 5 3 21-6 37-20 15-13 31-24 34-24 8 0 116-101 116-109 0-3 11-18 25-33 42-44 110-149 110-168 0-6 3-10 8-10 20 0 90-248 77-271-4-5-1-9 4-9 7 0 11-35 11-95 0-52-4-95-8-95s-8-17-9-38c-2-43-61-225-74-230-5-2-9-10-9-18s-5-14-10-14c-6 0-9-3-8-7 3-8-38-79-57-99-5-7-19-25-30-40-34-48-160-164-178-164-6 0-17-8-26-19-21-25-194-113-225-115-13 0-22-4-19-8 2-5-4-8-14-8s-36-7-58-15-59-14-82-15c-23 0-45-5-48-10-12-19-306-11-413 11-54 11-109 23-124 26-16 3-28 9-28 14s-10 9-22 9c-13 0-35 7-51 15-27 14-84-3-95-27-2-5-10-8-18-8s-14-4-14-9-13-12-30-16c-16-4-30-11-30-15 0-5-16-12-35-16-19-3-35-10-35-14 0-7-48-22-77-24-6-1-15-5-19-9-12-11-84-8-84 4 0 10 29 68 40 79 3 3 6 10 7 15 1 6 15 47 32 92 53 148 52 152-18 231-34 38-61 74-61 80 0 7-4 12-9 12-13 0-83 149-75 162 4 6 3 8-3 5-6-4-13 5-16 21-3 15-10 45-16 67-5 22-12 63-15 90-2 28-7 57-11 66-9 23 22 230 45 300 20 62 48 119 65 131 6 4 6 8 2 8-7 0 47 91 73 123 73 91 228 227 259 227 5 0 11 3 13 8 6 15 144 81 213 102 126 39 141 42 221 50 90 10 309 4 369-9z"/></g></svg>
