<svg fill-rule="evenodd" stroke-linecap="round" stroke-linejoin="round" viewBox="0 0 256 256" xmlns="http://www.w3.org/2000/svg"><g transform="translate(0 256) scale(.1 -.1)" fill="var(--icon-coral, #FF8A65)"><path d="m1113 2359c-10-3-24-4-31-1-7 2-26-8-43-24-27-26-29-33-29-101 0-42 4-73 10-73s10-6 10-13c0-22 34-47 62-47 34 0 52-21 35-41-6-8 4 1 23 19 35 31 39 32 125 32 87 0 90-1 124-32 19-18 30-26 23-17-15 21 2 39 38 39 49 0 85 51 85 123 0 75-21 129-50 125-11-1-31 4-44 11-24 13-300 13-338 0z"/></g><g transform="translate(0 256) scale(.1 -.1)" fill="var(--icon-blue, #5EC8F8)"><path d="m1269 2143c-79-5-135-46-112-83 11-17 8-20-45-30-272-54-531-261-660-527-29-61-42-79-51-70-8 8-11 6-11-9 0-11-5-25-12-32-9-9-13-68-13-207-1-107-4-197-7-200-7-7 10-126 21-145 5-9 12-30 16-48 3-18 10-32 15-32 4 0 10-8 12-18 3-9 6-21 7-27 2-5 6-12 10-15 9-6 41-75 41-88 0-5 7-12 15-16 8-3 15-11 15-19 0-20 66-80 79-72 7 3 37-17 69-46 194-178 369-250 612-252 248-3 424 69 610 249 167 161 235 278 285 489 108 450-223 963-696 1079-52 12-88 26-81 30 20 12 13 41-16 69-15 15-30 26-33 25-2-1-34-3-70-5zm211-343c322-108 483-336 484-685 0-415-279-695-693-695-330 0-576 185-667 500-30 105-26 331 8 432 83 249 257 404 517 463 94 21 265 14 351-15z"/></g><g transform="translate(0 256) scale(.1 -.1)" fill="var(--icon-skin, #F0D8C0)"><path d="m1242 1618c-8-8-12-67-12-199 0-177-1-189-20-202-20-14-20-14 0-32s21-18 50 10l30 29v191c0 181-5 215-30 215-3 0-11-5-18-12z"/></g><g transform="translate(0 256) scale(.1 -.1)" fill="var(--icon-slate, #606078)"><path d="m1090 2370c0-5-6-10-13-10-8 0-22-9-32-20-25-28 0-59 33-41 35 19 377 15 407-5 19-13 28-14 39-5 21 17-2 59-36 67-16 3-28 10-28 15s-79 9-185 9c-117 0-185-4-185-10z"/><path d="m1105 2130c-27-28-27-30-8-30 11 0 25-6 32-13 16-20-6-37-50-37-21 0-41-5-44-10-4-6-10-8-15-5-9 6-16 3-77-29-17-9-41-16-52-16-12 0-21-4-21-9s-12-12-26-15c-14-4-31-11-37-16-58-47-76-60-84-60-12 0-181-171-199-201-7-13-17-32-20-41-3-10-9-18-13-18s-22-30-41-67c-19-38-37-70-41-73-3-3-9-23-13-45s-12-46-18-52c-18-23 10-48 32-28 15 14 18 14 30 0 21-25 53 14 109 129 89 185 178 276 357 365 338 167 771 82 990-193 281-353 237-908-94-1182-309-255-778-238-1103 39-70 60-78 64-92 50-12-13-19-14-30-5s-18 8-30-6c-16-17-15-20 13-47 17-16 30-32 30-37 0-10 38-48 48-48 4 0 26-18 47-40s45-40 52-40c8 0 16-6 19-14s17-17 32-21 34-13 42-20c28-24 88-54 124-61 20-3 38-10 41-14 3-5 34-12 70-15 36-4 68-11 71-16 7-12 271-12 278 0 3 4 34 12 68 15 35 4 67 11 73 15 5 5 23 11 40 15 16 4 32 11 35 15 7 10 135 71 149 71 6 0 11 5 11 10 0 6 8 13 18 17 20 7 212 194 212 207 0 5 11 19 25 32s25 26 25 30c0 10 33 79 41 84 4 3 8 7 8 10 10 39 15 50 21 50 4 0 11 20 14 45 4 25 11 45 16 45s12 32 16 70c3 39 11 70 15 70 5 0 9 56 9 125s-4 125-9 125c-4 0-11 33-15 72-4 40-11 77-16 82-6 6-10 16-10 24 0 25-89 212-101 212-4 0-10 8-13 18-3 9-13 28-20 41-20 33-178 191-192 191-6 0-19 10-30 21-10 12-32 28-49 36-63 31-75 38-75 45 0 5-9 8-21 8-11 0-33 6-47 14-32 17-61 29-82 32-78 14-97 18-108 27-17 13 3 37 32 37 19 0 18 3-11 32-27 27-34 30-48 18-12-10-19-10-27-2-19 19-173 16-188-3-12-14-15-14-30 0-15 13-19 12-45-15z"/><path d="m1129 1915c-165-37-277-104-420-251-169-175-223-303-223-534-1-250 56-384 243-571 179-178 317-239 542-239 223 0 362 58 537 224 181 172 256 340 256 571-1 250-64 395-256 581-116 114-194 161-348 211-67 21-251 26-331 8zm333-132c7-6 27-14 45-18 29-6 66-23 133-60 35-20 167-137 174-155 3-8 15-28 26-45 11-16 29-50 41-75 11-25 26-55 31-67 6-12 8-29 5-37s-2-18 3-21c6-4 10-21 10-40s5-37 10-40c6-3 10-52 10-110s-4-107-10-110c-5-3-10-21-10-40s-5-37-10-40c-6-4-8-10-5-15s1-17-4-27c-18-35-41-91-41-102 0-6-5-11-10-11-6 0-15-10-20-22-20-46-128-168-149-168-4 0-16-9-26-20s-24-20-32-20c-7 0-13-3-13-8 0-15-129-72-163-72-14 0-27-6-29-12-6-16-296-16-306-1-4 5-26 13-49 17-38 5-130 48-143 66-3 3-12 10-20 14-68 32-185 151-206 208-3 10-10 18-14 18s-11 12-15 27c-3 15-15 39-26 55-11 15-18 32-14 37 3 5 1 12-5 16-5 3-10 19-10 35s-5 32-10 35c-13 8-13 265 0 265 6 0 10 18 10 39 0 22 5 43 10 46 6 4 8 10 5 15s-1 17 4 27 19 38 30 63c36 76 143 218 165 219 6 1 20 11 32 22 13 12 34 28 46 35 63 36 102 53 131 59 18 4 37 11 42 15 26 21 352 23 377 3z"/><path d="m1251 1626c-19-20-21-37-23-211-3-185-4-190-25-200-12-5-25-22-28-37-4-15-11-30-16-33-23-15 20-124 53-133 10-2 18-8 18-13s20-9 45-9 45 3 45 8c0 4 10 12 23 17 12 6 26 20 32 33 5 12 13 22 17 22 5 0 8 20 8 45s-4 45-9 45-11 10-15 23c-3 13-17 29-31 35l-25 12v197 198l-24 11c-21 10-28 8-45-10zm63-452c28-11 17-47-24-81-21-18-43-33-48-33-20 0-20 29 0 47 11 10 26 30 34 45 16 31 16 31 38 22z"/><path d="m367 1338c-4-13-7-35-7-50s-4-30-10-33c-6-4-10-62-10-140s4-136 10-140c6-3 10-22 10-41 0-43 5-43 60 5l44 38 1 147v146l-46 46c-45 44-46 45-52 22z"/></g><g transform="translate(0 256) scale(.1 -.1)" fill="var(--icon-stroke, #24324B)"><path d="m1061 2334c-30-25-31-29-31-103 0-89 12-108 73-118 65-10 54-67-15-78-23-4-70-18-104-30-35-13-65-20-68-17s-6 0-6-6c0-7-7-12-15-12-60 0-286-187-372-309-26-36-50-67-54-69-5-2-5-10-2-18s1-14-5-14-13-13-17-30c-4-16-11-30-16-30s-9-11-9-25-4-25-8-25-9-8-10-17c-6-55-15-94-21-85-10 16-15-70-14-235 1-179 5-233 15-227 5 3 8-6 8-20s6-40 14-58c15-33 27-69 28-78 0-3 3-7 6-10 7-5 23-33 59-100 10-19 20-37 23-40s34-39 69-80c74-87 87-101 76-80-7 12 56-39 75-61 3-4 15-9 28-13 12-4 22-12 22-17s7-9 15-9 15-5 15-10c0-6 3-9 8-8 7 2 103-42 112-51 3-3 14-7 25-9s35-6 52-9c18-3 31-9 28-13s5-8 18-9c12 0 88-3 168-7 116-5 160-3 220 10 112 25 189 49 189 59 0 5 7 7 15 3 8-3 15-1 15 4 0 6 7 10 15 10s15 5 15 10c0 6 5 10 10 10 6 0 28 11 50 25s40 23 40 19c0-16 174 161 218 221 63 87 142 264 142 318 0 10 3 16 8 14 8-6 10 9 18 173 3 76 1 148-6 185-6 33-14 74-17 90-3 17-9 35-13 40-4 6-11 24-15 42-11 52-77 179-130 252-20 28-181 186-200 198-11 7-46 28-78 47-32 20-64 36-70 36-7 0-23 6-37 13-14 8-47 20-73 27-26 8-47 17-47 20 0 4-8 7-17 7-63-1-71 3-78 34-8 37-7 39 44 46 60 8 76 32 76 113 0 64-19 125-36 114-4-2-10 0-14 6s-78 10-195 10c-188 0-189 0-219-26zm398-33c24-24 30-108 9-129-20-20-362-17-382 4-22 22-21 96 2 116 25 22 28 23 196 27 146 3 155 2 175-18zm-99-219v-29l-82-2c-45 0-87-6-92-11-6-6-16-10-23-10-8 0-6 7 7 20 11 11 20 29 20 40 0 18 7 20 85 20h85v-28zm15-82c643-74 983-824 621-1369-287-431-870-518-1272-190-283 231-393 618-274 964 111 324 394 556 725 595 89 11 102 11 200 0zm-771-285c-15-20-29-33-32-30-5 5 46 65 55 65 2 0-8-16-23-35zm1280-1266c-10-11-28-25-39-31-12-5-7 3 13 21 37 35 55 42 26 10zm-93-72c-6-8-34-26-63-42-63-33-53-20 17 24 56 34 62 37 46 18z"/><path d="m1195 1864c-11-2-43-9-72-15-291-58-531-310-574-601-78-533 367-961 887-854 209 43 402 198 499 400 50 106 66 180 66 316 0 160-13 225-74 350-115 236-352 391-619 404-51 3-102 3-113 0zm250-60c100-24 277-119 258-138-3-3 0-6 8-6 24 0 159-152 159-179 0-6 5-11 10-11 6 0 10-6 10-12 0-7 7-26 15-41 29-56 65-218 65-292-1-151-48-294-138-415-69-93-91-115-167-165-33-22-62-42-65-45-13-13-51-29-84-35-20-4-36-10-36-14s-45-15-99-25c-95-18-103-18-203 0-56 9-105 21-108 24-3 4-23 10-44 13-22 4-42 10-45 14s-22 16-41 26c-81 41-240 196-240 234 0 7-4 13-8 13-40 0-112 238-112 371 0 77 45 289 62 289 4 0 8 5 8 11 0 43 134 206 225 276 148 113 372 155 570 107z"/><path d="m1262 1618c-9-9-12-68-12-206 0-176-2-194-17-198-10-3-29-21-42-41-49-76-2-163 88-163 97 0 140 123 66 189l-35 30-5 192c-6 215-9 231-43 197zm23-60c-8-58-15-61-15-5 0 26 4 47 10 47s8-17 5-42zm-53-398c-12-21-18-25-20-14-4 16 15 44 29 44 4 0 0-13-9-30z"/></g></svg>
