<svg fill-rule="evenodd" stroke-linecap="round" stroke-linejoin="round" viewBox="0 0 256 256" xmlns="http://www.w3.org/2000/svg"><g transform="translate(0 256) scale(.1 -.1)" fill="var(--icon-white, #FFFFFF)"><path d="m1115 251c-3-6-104-10-233-11l-227-1-30-29-30-30h253c161 0 252 4 252 10s9 10 21 10c11 0 29 5 40 11 20 10 20 11 3 30-18 20-39 25-49 10z"/><path d="m1545 220c-16-18-16-20-2-20 10 0 17-4 17-10 0-16 651-13 672 4 17 12 17 14 0 30-31 27-661 24-687-4z"/></g><g transform="translate(0 256) scale(.1 -.1)" fill="var(--icon-yellow, #FFD85A)"><path d="m1511 924-34-31-1-302c-1-167 3-305 7-308 5-3 1-13-7-22-15-16-14-19 3-35 28-26 91-38 98-20 7 19 632 21 663 2 24-15 87 36 70 57-5 7-9 137-9 315v303l-64 66-692 6-34-31z"/></g><g transform="translate(0 256) scale(.1 -.1)" fill="var(--icon-green, #66DDAA)"><path d="m1170 1688c0-9-3-18-7-20-22-9-51-87-38-98 8-7 18-9 24-6 18 11 21-29 21-288v-263l50-47 51-47 594 12 80 79-2 260c-1 152 2 262 8 265 5 4 9 25 9 49 0 48-46 106-67 85-8-8-13-8-17 0-5 8-104 11-314 11h-306l-30-27c-17-16-25-21-18-12 10 13 7 20-13 39s-25 20-25 8z"/><path d="m507 983c-4-4 5-19 20-35l27-28h281 281l28 29c26 27 26 29 7 24-12-3-21-1-21 6 0 12-611 17-623 4z"/><path d="m479 234c-22-23-16-34 18-34 12 0 23-4 23-10s103-10 290-10 290 4 290 10 8 10 17 10c14 0 13 4-7 25l-23 24-294 3c-287 3-295 2-314-18z"/><path d="m1511 236c-24-25-15-36 30-36 10 0 19-4 19-10 0-14 657-14 665 0 3 6 14 10 24 10 30 0 44 24 23 41-14 12-77 13-370 9-194-3-356-2-361 3-4 4-17-3-30-17z"/></g><g transform="translate(0 256) scale(.1 -.1)" fill="var(--icon-purple, #BFA7FF)"><path d="m636 2371c-3-5-23-12-43-15-46-9-93-28-93-38 0-5-6-8-13-8s-26-13-42-30c-16-16-34-30-39-30-13 0-66-54-66-68 0-5-9-17-19-26-11-10-23-31-26-47-4-16-10-29-15-29-7 0-22-33-24-57-1-6-5-15-9-19s-7-22-7-41c0-18-4-33-10-33-13 0-13-137 0-145 6-3 10-24 10-45s5-42 10-45c6-4 8-10 5-15-5-8 11-46 25-60 8-8 29-43 39-65 14-31 133-141 169-156 17-8 32-18 32-23 0-4 6-3 14 3 11 9 26 7 67-9 85-32 138-27 179 15l34 35h-92c-51 0-92 4-92 9s-18 11-40 15c-22 3-40 10-40 14s-15 13-32 21c-46 19-136 109-143 143-4 15-10 28-13 28-16 0-34 60-39 125-3 39-11 74-17 78-8 6-7 10 2 14 7 3 12 25 12 58 0 30 4 56 9 59s7 15 4 26 0 20 6 20 11 9 11 20 4 20 9 20 11 8 15 18c19 57 77 111 159 149 20 10 37 21 37 25s18 11 40 14c22 4 40 10 40 15s45 9 100 9 100-4 100-9 19-12 43-16c23-4 56-15 72-26 17-10 37-22 45-26 62-30 170-184 170-244 0-16 5-29 10-29 6 0 10-10 10-22v-21l25 23c29 27 43 84 26 104-7 8-11 18-10 22 2 10-14 49-33 78-27 42-154 164-178 171-14 4-27 11-30 14-9 13-78 41-99 41-12 0-21 5-21 10 0 13-237 14-244 1z"/><path d="m502 1888c-17-17-15-42 7-66 18-21 26-22 241-22s223 1 241 22c22 24 24 49 7 66s-479 17-496 0z"/><path d="m472 917-42-43v-291-290l45-42 46-42 590 6 40 42 39 42v288 287l-84 86h-296-296l-42-43z"/></g><g transform="translate(0 256) scale(.1 -.1)" fill="var(--icon-orange, #FFB84D)"><path d="m1537 932-27-28 56-54h317 317v-265-265h-308-308l-54-56 56-54h311c172 0 314-4 317-9 8-13 53-1 72 20 14 15 14 21 4 34-11 13-10 19 5 35 16 18 18 47 20 292l2 273-44 53-45 52h-332-332l-27-28z"/></g><g transform="translate(0 256) scale(.1 -.1)" fill="var(--icon-skin, #F0D8C0)"><path d="m476 1431c-16-18-16-19 13-32 17-8 31-17 31-21s18-11 40-14c22-4 40-10 40-15s16-9 35-9 35-4 35-10c0-16 149-13 165 4 27 27-20 53-105 58-44 3-106 16-151 32-90 31-82 30-103 7z"/><path d="m1911 1e3c-37-43-39-64-7-94 23-22 31-23 175-22 125 2 155-1 176-15l25-16v-291c0-256 2-293 16-309 16-17 18-17 30 0 17 21 20 602 4 602-5 0-10 6-10 13 0 16-52 67-68 67-7 0-12 5-12 10 0 6-53 10-140 10h-140v40c0 49-9 50-49 5z"/><path d="m1150 1e3c0-6 6-13 13-16 8-3 5-7-7-13-13-5-21-3-24 4-5 15-632 17-632 3 0-5-14-12-30-16-17-4-31-13-32-21 0-8-1-20-2-26-1-18 37-18 85-1 32 10 107 13 327 13l285-1 26 25c24 24 24 27 8 43-9 10-17 12-17 6z"/></g><g transform="translate(0 256) scale(.1 -.1)" fill="var(--icon-slate, #606078)"><path d="m1218 2e3c-14-16-23-34-21-41 3-7-1-20-9-29-10-13-10-17 0-20 14-5 18-178 3-187-4-3-11-24-14-47s-9-45-14-48-17-22-26-42c-35-75-174-189-231-189-8 0-18-4-21-10-3-5-44-10-90-10-97 0-107-7-62-46 17-16 32-33 32-39 0-5 15-11 33-13s32 1 32 7 18 11 39 11c22 0 42 4 46 9 3 5 19 12 35 16 17 4 30 10 30 13 0 4 15 13 33 21 17 8 47 27 65 43 18 15 37 28 42 28 6 0 10 7 10 15s5 15 10 15c6 0 10-91 10-254 0-194 3-255 13-259 8-3 6-7-7-12-11-5-21-3-27 6-7 11-12 12-28 2-14-9-104-13-320-13-310-2-341-4-341-25 0-6-9-20-20-30-19-17-20-31-20-317 0-220 3-304 13-321 24-43 61-77 84-77 13 0 23-5 23-12 0-9 3-9 12 0s93 12 316 12h304l29 30 30 29-3 336c-3 308 0 353 17 325 4-6 54-10 118-10h112l-3-325-3-326 31-31c28-28 33-29 47-16 11 12 13 20 5 34-9 15-5 25 16 47l27 28 2 534-116 120h-110c-122 0-134 5-103 38 21 23 22 31 22 267v244l-27 28c-25 26-28 27-44 12-21-19-46-10-29 11 6 7 8 19 5 27-7 17 50 74 59 60 4-6 1-14-5-17-7-5-1-18 17-36l28-29h285c277 0 285 1 308 21 19 19 25 20 38 9s19-11 33 3c15 16 14 19-18 52l-34 35h-313c-319 0-337 2-302 37 14 14 14 236 0 241-6 2-11 14-11 27s-5 27-11 30c-6 4-8 13-5 21 8 20 3 18-26-13zm-130-1455-3-273-555-5v275 275h280 280l-2-272z"/><path d="m2257 942c-15-16-15-21-2-38 23-30 22-604-2-640-15-23-15-26 0-42 15-15 18-14 42 8 14 13 25 31 25 41s5 21 10 24c6 4 10 115 10 301 0 189-4 294-10 294-5 0-10 6-10 13 0 8-10 23-23 35-23 22-24 22-40 4z"/></g><g transform="translate(0 256) scale(.1 -.1)" fill="var(--icon-stroke, #24324B)"><path d="m665 2359c-79-15-135-33-135-41 0-4-5-8-10-8-22 0-108-68-150-118-25-29-50-58-56-65s-12-16-13-22c-8-25-15-40-20-45-4-3-14-36-24-75-23-95-22-197 4-271 11-32 23-69 26-81 3-13 9-23 13-23 5 0 12-9 15-21 16-50 124-152 200-188 122-59 224-73 345-47 89 19 94 20 100 26 3 3 22 14 44 25 21 11 61 41 89 68 79 73 74 86 74-225 0-218 2-249 17-273 29-44 74-56 181-51 98 5 135-8 107-36-17-17-17-587 0-622 28-64 44-66 424-66h344l80 80v307 307l-83 77-153-3c-139-3-154-1-154 14 0 9 7 23 15 32 18 18 23 582 5 571-6-3-10 4-10 18 0 13-13 36-31 53l-30 29-307 1c-320 0-339 2-322 34 5 10 10 42 10 70s3 49 8 47c8-6 8 41-1 63-5 14-17 86-20 123-1 9-4 17-8 17-7 0-44 84-37 86 1 0-35 39-82 85-78 78-113 105-132 101-5-1-8 3-8 8 0 6-9 10-20 10s-20 4-20 8-8 9-17 10c-10 1-45 6-78 11-72 11-126 11-180 0zm187-53c102-27 209-91 253-151 11-15 28-36 39-48 20-24 42-77 38-91-2-5 1-12 5-15 11-7 33-116 33-159 0-41-22-125-35-134-5-4-6-8-2-8 9 0-34-83-45-88-5-2-8-10-8-17s-25-38-56-69-62-56-69-56-15-3-17-7c-6-15-67-43-92-43-14 0-26-4-26-10 0-17-212-12-256 6-98 39-121 53-183 115-60 60-83 96-116 184-20 54-27 240-9 253 5 4 10 18 12 31 3 31 32 91 43 91 5 0 9 7 9 16 0 22 96 115 154 149 99 58 227 78 328 51zm1e3 -684c22-18 22-21 23-315 1-250-1-299-13-311s-72-16-313-21l-297-6-30 30-31 30 1 277 2 277 56 57h290c264 0 292-2 312-18zm378-737c18-23 19-40 17-303-2-214-6-283-16-300-21-34-685-35-715-1-31 34-35 574-4 607 21 22 22 22 360 22h339l19-25z"/><path d="m497 959c-10-6-21-8-24-5s-17-9-30-26c-23-32-23-32-23-345 0-187 4-313 9-313s12-8 15-18c15-46 57-52 375-52 164 0 301 3 305 8 4 4 12 7 18 7s20 13 32 28c20 27 21 41 24 330 4 432 37 397-380 397-195 0-310-4-321-11zm633-61c19-21 20-34 20-310v-289l-25-24-24-25h-289c-278 0-290 1-316 21l-26 20v292c0 285 0 291 22 314l21 23h298c294 0 299 0 319-22z"/></g></svg>
