<svg fill-rule="evenodd" stroke-linecap="round" stroke-linejoin="round" viewBox="0 0 256 256" xmlns="http://www.w3.org/2000/svg"><g transform="translate(0 256) scale(.1 -.1)" fill="var(--icon-blue, #5EC8F8)"><path d="m1125 2e3c-245-58-477-298-517-535l-12-69 39-40c50-51 76-51 125-2 27 27 39 49 44 82 10 64 78 200 123 244 203 199 596 138 710-111 26-55 23-72-13-73-5 0-24-15-42-33l-32-33 32-31c32-31 138-86 189-98 22-6 35 4 99 72 40 43 84 93 98 111l25 33-33 34c-31 32-34 33-68 21l-36-13-39 81c-58 121-186 245-321 312l-99 49-126 2c-69 1-135-1-146-3z"/><path d="m581 1096-33-34 15-152c15-143 17-154 43-181 36-37 40-37 89 11l40 39 78-73c319-301 814-199 1e3 209 51 104 51 113-4 164-64 59-108 34-170-94-94-195-319-289-548-229-69 18-187 89-213 129-17 26-17 26 24 68 49 50 51 64 15 99-23 21-50 30-153 48-69 12-134 23-145 26-14 3-31-6-54-30z"/></g><g transform="translate(0 256) scale(.1 -.1)" fill="var(--icon-skin, #F0D8C0)"><path d="m1176 2371c-3-5-44-12-91-16-91-7-94-9-68-37 12-14 14-21 5-30-8-8-9-15-1-25 14-16 36-17 42 0 3 9 57 12 224 12 218 0 225-1 294-35 9-5 34-12 55-16 22-3 54-18 72-31 36-27 71-25 105 4 22 20 22 29 0 37-18 5-53 26-63 36-13 13-52 30-68 30-10 0-27 7-38 15-10 8-30 15-44 15-15 0-30 4-36 10-5 5-45 13-87 16-42 4-77 11-77 15 0 12-217 12-224 0z"/></g><g transform="translate(0 256) scale(.1 -.1)" fill="var(--icon-slate, #606078)"><path d="m1e3 2352c-19-1-44-7-55-11-11-5-36-16-57-25-20-9-40-16-45-16-13 0-123-57-142-73-9-8-24-17-33-20-10-4-18-11-18-17 0-5-6-10-13-10s-29-16-48-36c-18-20-44-40-57-45-12-5-26-19-31-32-5-12-29-41-54-64s-48-52-52-65-15-32-25-43-21-31-25-45-11-27-14-30c-10-7-41-76-41-89 0-6-4-11-10-11-19 0-10-37 15-60l25-23 25 23c15 14 27 39 31 67 4 25 14 49 24 56s22 25 25 39c4 15 15 34 26 44 10 9 19 23 19 31 0 7 7 16 15 19 8 4 15 12 15 18 0 7 37 48 83 90 110 104 113 107 139 121 90 50 150 77 181 82 21 3 37 10 37 14 0 5 16 9 35 9s35 5 35 10c0 6 10 10 22 10 20 0 20 1 5 18s-15 19 0 35c22 22 8 33-37 29z"/><path d="m1735 2250c-62-24-53-50 33-90 23-12 48-29 55-40 6-11 17-20 23-20s21-12 35-26c13-14 34-30 47-35 12-5 26-19 31-31 5-13 18-32 30-42 21-19 22-19 46 4 14 13 25 31 25 40 0 17-129 150-146 150-6 0-21 11-34 25s-29 25-37 25c-7 0-13 5-13 10 0 6-6 10-14 10-7 0-19 7-26 15-14 17-25 18-55 5z"/><path d="m1090 2e3c0-5-17-11-38-15-46-7-152-59-177-86-10-11-23-20-30-20-13 0-125-113-125-127 0-6-9-18-19-27-11-10-23-31-26-47-4-16-10-29-13-29-8 0-28-44-38-83-3-15-10-30-15-33s-9-23-9-45c0-21-4-39-10-39-31 0-5-83 42-132 60-62 178-6 178 85 0 20 4 37 9 37s12 19 16 43c4 23 15 56 26 72 10 17 22 36 25 44 9 16 92 94 108 100 6 2 17 12 24 22 6 9 27 21 45 24 17 4 38 12 46 19 20 16 253 15 259-1 2-7 11-13 20-13 23 0 97-38 117-60 10-11 23-20 30-20 6 0 22-11 35-25s20-25 15-25 1-10 12-22c28-31 39-78 18-78-8 0-15-4-15-9s-12-12-27-15c-17-4-33-17-40-33-27-56-12-85 55-114 17-8 32-17 32-21 0-5 6-8 13-8 6 0 26-7 42-16 17-9 56-18 88-21l58-6 55 54c30 29 54 57 54 63 0 5 14 22 30 38 17 15 30 35 30 43s5 15 10 15c6 0 10 14 10 30 0 17-4 30-10 30-5 0-10 5-10 11 0 7-8 18-17 25-21 16-63 18-63 4 0-16-36-11-52 8-16 17-58 104-58 119 0 5-11 17-25 27s-25 24-25 30c0 15-92 106-107 106-6 0-13 7-17 15-3 8-12 15-19 15-8 0-22 9-31 19-10 11-31 23-47 26-16 4-29 10-29 15 0 4-20 11-45 14-24 4-47 11-50 17-8 11-315 12-315 0zm58-116c-156-34-320-169-397-325-23-47-39-71-35-55 43 199 269 392 459 393 18 0 8-5-27-13zm347-39c139-69 216-158 264-308 7-20 27-50 45-66l33-29-22-27c-21-27-24-27-64-15-49 15-49 15-10 55l31 32-37 77c-76 159-241 289-406 321l-74 14 73-4c64-3 87-10 167-50z"/><path d="m566 1121c-26-27-27-34-28-120-1-50 2-94 6-98 3-3 6-37 6-74s5-71 10-74c6-3 10-14 10-24 0-25 42-61 70-61 14 0 40 15 61 36l37 36 35-36c20-20 39-36 44-36s20-11 33-25c12-13 27-22 31-19 5 2 14-4 21-16 7-11 17-20 21-20 9 0 69-25 101-42 10-5 52-12 92-15 41-3 74-10 74-14 0-12 107-12 114 0 3 4 36 11 72 14 37 4 70 10 73 14 8 10 49 30 81 39 14 3 35 16 48 28 13 11 24 19 25 16 6-16 157 122 157 143 0 7 8 17 19 24 20 13 81 129 81 156 0 9 5 17 10 17 6 0 10 19 10 43 0 35-6 49-36 80-69 71-136 40-201-92-32-64-135-181-160-181-7 0-13-4-13-10 0-5-18-13-40-16-22-4-40-10-40-15s-11-9-24-9c-14 0-28-4-31-10s-48-10-101-10c-56 0-94 4-94 10s-11 10-24 10c-14 0-27 4-30 9s-21 12-40 15c-19 4-36 10-38 14s-20 20-40 35c-21 15-38 34-38 42 0 7-6 15-12 18-8 3 3 21 30 49 77 80 43 142-86 154-40 4-75 11-78 15-3 5-23 9-44 9s-42 5-45 10c-15 24-100 11-129-19zm183-116c101-18 98-15 61-50-41-40-39-47 38-127 138-145 250-193 427-186 55 3 89 1 75-3-44-12-183-9-247 6-111 26-190 71-281 159l-82 80-68-66-6 74c-4 40-9 85-12 101-6 32-12 31 95 12zm965-122c-67-117-185-205-304-227-31-6-30-5 11 12 96 39 235 156 295 248 29 43 27 18-2-33z"/><path d="m2172 1088c-7-7-12-24-12-39s-4-30-9-33c-4-3-11-28-15-55-4-28-11-53-16-56-6-3-10-17-10-31 0-13-4-24-9-24s-11-18-15-40c-3-22-10-40-15-40s-11-8-15-17c-6-19-27-54-37-63-3-3-9-12-13-20s-13-26-21-39c-19-34-197-211-212-211-7 0-16-6-20-13-4-8-15-17-23-20-8-4-28-16-45-26-16-11-36-20-43-20-14-1-70-24-106-43-10-5-43-12-73-15-29-3-56-10-59-14-3-5-45-9-94-9-95 0-111-10-95-60 6-18 15-20 110-20 57 0 106 4 109 9s31 12 62 16c32 4 64 11 73 15 36 19 90 40 103 41 7 0 27 9 43 20 17 11 38 22 48 25 9 4 17 10 17 15s6 9 13 9c8 0 24 11 37 25s28 25 34 25c13 0 167 156 160 162-2 3 7 15 21 28s25 29 25 37c0 7 9 18 20 25s20 16 20 20c0 15 35 88 42 88 4 0 11 18 14 40 4 22 9 40 13 40 11 0 29 53 36 103 4 26 11 47 16 47 15 0 10 100-5 116-18 17-38 18-54 2z"/></g><g transform="translate(0 256) scale(.1 -.1)" fill="var(--icon-stroke, #24324B)"><path d="m1135 2348c-27-6-84-19-125-30s-83-20-92-21-14-5-12-9c3-4-1-8-8-8-18 0-121-51-130-64-4-6-10-7-14-3s-13-2-21-13-18-20-23-20c-10 0-44-27-82-62-10-10-20-18-23-18-6 0-30-26-91-98-45-52-103-142-104-159 0-7-4-13-10-13-5 0-10-6-10-14s-3-16-7-18c-5-1-16-27-26-57-17-48-17-55-4-69 19-18 47 3 47 36 0 19 114 218 141 244 8 8 28 30 44 49 37 41 139 129 180 155 17 10 32 21 35 25 8 10 210 89 229 89 9 0 36 8 61 17 62 22 306 22 405-1 69-16 205-64 215-75 3-3 22-15 43-25 20-11 37-23 37-28 0-4 6-8 13-8 12 0 54-32 112-86 19-17 37-29 40-26s5-1 5-9c1-19 48-52 66-45 29 11 12 44-61 115-41 40-75 70-75 67 0-4-15 4-33 18-19 15-39 26-45 26s-12 4-14 9c-1 5-31 23-65 39s-60 32-57 35-3 3-14 0c-11-2-23 0-26 6-4 6-21 11-37 11-19 0-28 4-24 11 4 6 1 10-6 8-30-4-70 1-66 9 6 8-21 10-193 16-69 2-147-1-175-6zm-275-116c-41-21-99-55-127-76-29-21-53-34-53-29 0 11 123 91 185 119 80 37 77 27-5-14zm901-13c33-18 57-34 55-36-3-3-33 11-68 31-78 44-68 48 13 5zm-1196-207c-21-20-32-28-25-17 26 37 53 65 59 60 3-3-12-22-34-43zm-141-202c-15-28-29-48-32-46-5 6 46 96 54 96 3 0-7-23-22-50z"/><path d="m1155 2e3c-192-27-390-167-472-333-21-42-41-77-45-79s-4-10-1-18 1-20-5-27c-5-6-13-32-16-57-4-25-10-59-13-76-8-49 37-94 91-94 51 0 96 37 96 78 0 108 110 279 225 349 112 69 276 81 398 29 37-15 67-32 67-36 0-5 8-11 18-14 19-7 98-76 86-76-4 0-1-6 8-12 23-19 67-103 59-115s-71-34-81-28c-12 7-32-40-28-69 2-18 13-33 33-44 17-9 32-20 33-24 2-5 13-8 23-8 13 0 18-4 13-12-5-7-3-8 5-3 7 4 23 3 34-3 35-17 88-32 112-32 23 0 110 86 155 153 14 20 28 37 33 37 4 0 7 17 7 38 0 52-31 71-90 53-49-15-56-11-64 34-4 19-11 35-16 35-6 0-10 7-10 15s-4 15-10 15c-5 0-10 5-10 11 0 16-93 140-127 169-54 46-162 104-216 115-17 4-36 11-42 15-12 9-206 20-250 14zm236-40c194-57 365-216 419-389 17-55 23-59 58-41 45 23 92 21 92-4 0-34-159-202-184-194-57 17-171 73-180 88-13 20 15 46 49 46 48 0 61 22 41 74-95 248-400 365-643 247-158-77-229-173-283-378-17-68-74-83-113-31-21 28-21 28-2 100 45 177 144 314 297 412 120 76 320 108 449 70z"/><path d="m580 1111c-24-19-25-25-25-124 0-58 3-100 7-93 4 6 8-28 8-75 0-76 2-88 23-107 34-32 68-28 111 15l37 37 45-47c24-26 47-47 50-47s25-13 48-29c94-65 150-83 334-108 42-6 231 23 242 37 7 9 76 40 89 40 6 0 11 5 11 11s5 9 11 7c14-5 53 28 138 112 107 107 182 285 139 328-7 7-8 12-3 12 6 0-3 7-19 15-66 35-104 14-157-85-19-36-43-76-54-89-38-47-98-101-112-101-7 0-13-4-13-9 0-12-83-51-145-67-128-35-290 3-393 92-69 58-71 69-23 118 73 75 52 116-69 136-41 6-95 15-120 20-122 21-134 22-160 1zm238-52c105-20 112-23 112-45 0-16-13-32-45-54-25-17-45-36-45-43 0-6 29-39 65-74 249-238 636-164 791 152 36 75 41 80 74 83 108 11 61-164-87-319-261-273-677-257-922 36l-24 28-43-46c-71-76-78-66-94 141-16 197-32 186 218 141z"/><path d="m2187 1073c-3-5-12-37-21-73-24-96-84-260-96-260-3 0-14-17-25-37-11-21-22-40-25-43s-17-23-32-46c-30-47-178-197-186-189-3 2-11-4-19-15s-21-20-29-20-14-4-14-10c0-5-11-12-25-16-14-3-25-9-25-13 0-6-23-17-95-46-64-25-97-34-112-28-11 4-14 2-9-5 5-8-4-12-28-12-19 0-38-5-41-10-4-7-40-10-86-9-88 2-115-9-87-37 14-14 27-15 114-4 55 6 114 12 132 13 17 1 32 5 32 10 0 4 16 7 35 7s35 5 35 10c0 6 9 10 19 10 11 0 23 5 26 11 4 6 13 8 21 5s14-1 14 4c0 6 6 10 13 10 6 0 23 9 36 19 14 10 31 16 40 13s12-1 7 6c-4 7-2 12 5 12s27 11 46 26c18 14 33 23 33 20s42 36 93 87c52 50 92 94 90 96-2 3 6 14 16 25 27 29 124 220 141 279 8 26 17 47 20 47s6 12 7 28c0 15 6 47 11 71 5 25 8 51 5 58-6 14-29 18-36 6zm-72-318c-15-31-29-54-32-51s7 30 23 60c37 71 43 65 9-9zm-238-321c-15-13-33-24-40-24s4 14 23 29c42 35 57 30 17-5zm-142-94c-8-13-66-43-71-37-3 3 12 14 33 25 45 25 46 25 38 12z"/></g></svg>
