<svg fill-rule="evenodd" stroke-linecap="round" stroke-linejoin="round" viewBox="0 0 256 256" xmlns="http://www.w3.org/2000/svg"><g transform="translate(0 256) scale(.1 -.1)" fill="var(--icon-green, #66DDAA)"><path d="m1490 2370c0-5-16-10-35-10s-35-4-35-9-13-12-29-16c-33-7-72-47-92-92-8-18-17-33-21-33-5 0-8-10-8-23 0-30-18-47-51-47-32 0-52-21-47-52 3-20 10-23 51-26 33-2 47-7 47-18 0-39 98-150 142-159 15-4 28-11 28-16 0-6 29-9 68-7 46 2 66 7 65 15-2 7 10 19 25 27s50 39 79 69c76 80 89 152 44 232-13 23-15 35-7 47 14 22-34 74-75 83-16 4-29 11-29 16s-11 9-24 9c-14 0-28 5-31 10-3 6-19 10-36 10-16 0-29-4-29-10z"/><path d="m970 2132c-97-4-150-48-108-90 15-15 64-16 73-2 3 6 35 10 69 10 68 0 85 10 82 49-1 31-23 37-116 33z"/><path d="m695 2083c-16-3-34-9-39-14-6-5-20-9-33-9s-23-4-23-10c0-5-6-10-13-10-8 0-24-11-37-25l-23-25 23-20c30-26 49-23 132 21 10 5 28 9 41 9 29 0 47 18 47 45 0 23-18 46-34 44-6-1-24-4-41-6z"/><path d="m402 1946c-30-17-81-68-82-82 0-6-9-19-20-29-23-21-26-60-6-81 22-21 45-17 56 10 5 13 17 30 28 37 10 8 21 22 25 32 4 11 16 21 27 24s22 15 26 27c4 11 11 24 17 28 7 4 2 14-14 27-28 23-27 23-57 7z"/><path d="m1205 1713c-28-7-104-83-99-98 3-7 1-16-5-20-14-8-14-102 0-111 6-3 9-20 7-36-3-16-1-31 4-34 4-3 8-16 8-29s5-27 10-30c6-3 10-19 10-35s5-32 11-35c5-4 9-17 8-28-2-22 5-48 22-79 5-10 9-29 9-42 0-14 4-27 9-31 5-3 13-34 16-70 4-36 11-65 16-65s9-7 9-15c0-19-6-19-55 5-77 37-226 16-241-35-4-11-9-22-13-25-18-15-31-56-31-100 0-28 6-60 13-72 15-26 95-108 105-108 5 0 23-16 42-35s39-35 45-35 26-16 45-35 39-35 46-35c6 0 20-11 30-25s24-25 30-25 21-11 34-25 29-25 35-25 24-13 40-30c16-16 34-30 41-30s19-8 26-19c20-28 113-75 133-67 17 6 17 7 0 26-15 16-15 22-5 35 10 12 10 15-2 15-7 0-20 9-28 20s-19 20-25 20c-7 0-22 11-35 25s-29 25-35 25-22 11-35 25-28 25-33 25-22 11-36 25c-45 43-98 85-108 85-5 0-20 11-33 25s-28 25-34 25-24 16-41 35c-16 19-35 35-40 35-15 0-75 63-75 78 0 7-4 12-10 12-5 0-10 16-10 36 0 49 47 94 97 94 32 0 102-25 113-41 3-4 24-16 46-28 23-12 50-31 59-41 23-25 31-25 58 0 16 15 18 23 9 29-6 4-15 35-18 69-4 34-11 62-15 62-5 0-9 16-9 35s-4 35-9 35-13 25-16 55c-4 30-11 58-16 61s-9 18-9 33-5 32-10 37c-6 6-13 34-17 62-3 29-10 52-14 52-5 0-9 16-9 35s-4 35-9 35-13 25-16 55c-4 30-11 58-16 61-12 7-11 54 1 54 6 0 10 11 10 24 0 33 26 51 74 51 54 0 96-39 103-96 3-22 10-42 14-45 5-3 9-18 9-34s5-32 10-35c6-3 10-17 10-30s4-26 9-29c4-3 6-17 3-31-2-15 0-25 7-25 6 0 11-16 11-35s5-35 10-35c6 0 10-11 10-24 0-14 5-28 11-31 6-4 8-14 4-22-16-44 45-95 73-60 10 13 10 52-1 63-4 4-7 24-7 45s-4 41-10 44c-17 10-11 41 10 60 14 13 17 22 10 29s-3 17 11 32c31 34-6 65-38 33-15-15-33-3-33 21 0 10-4 22-10 25-5 3-10 19-10 35s-5 32-11 35c-5 4-9 17-8 28 3 25-27 93-51 117-41 41-126 59-195 43z"/><path d="m243 1645c-15-17-17-85-3-85 6 0 10-12 10-27 0-78 77-150 98-92 10 25 3 79-9 79-5 0-9 19-9 43 0 82-48 127-87 82z"/><path d="m392 1358c-21-21-13-58 18-88 17-17 34-30 39-30 4 0 18-11 31-25 14-15 35-25 51-25 49 0 66 51 24 74-11 6-30 21-42 34-12 12-26 22-31 22s-19 11-32 25c-26 28-40 31-58 13z"/><path d="m650 1164c-13-13-20-24-15-24 6 0 15-10 20-22 6-14 21-24 38-26 15-2 27-8 27-13s5-9 11-9 27-8 46-17c43-20 67-9 71 33 2 25-2 31-38 47-22 9-45 17-50 17-6 0-10 3-10 8 0 8-49 32-64 31-6 0-22-11-36-25z"/></g><g transform="translate(0 256) scale(.1 -.1)" fill="var(--icon-slate, #606078)"><path d="m1638 2274-36-37 21-35c52-87 10-212-70-212-9 0-29-12-45-27-25-24-26-28-13-43 14-15 14-18 0-30-8-7-15-16-15-21 0-12 87-12 94 0 3 5 21 12 39 15 36 7 112 79 137 130 17 33 20 183 5 194-6 4-17 21-25 37-16 33-40 65-49 65-4 0-23-16-43-36z"/><path d="m1480 1413c0-6 9-18 20-28l20-18-21-24c-22-22-22-23-4-43 17-19 17-21 2-38-31-34-17-172 17-172 38 0 65 57 36 75-5 3-10 24-10 45s-4 42-10 45c-36 22 17 85 71 85 49 0 78-33 86-98 3-29 9-52 14-52 4 0 9-12 11-26 4-35 31-53 56-38 18 12 30 64 14 64-20 0-25 90-6 111 44 49 134 7 134-63 0-10 5-18 10-18 6 0 10-13 10-29 0-17 5-33 10-36 6-4 8-11 5-16-7-11 42-32 56-23 5 3 9 38 9 77 0 68 2 73 27 85 39 17 46 16 80-20 25-26 33-45 38-91 4-31 11-60 16-63s9-18 9-34 4-31 9-35c6-3 13-37 17-75 3-39 11-70 15-70 5 0 9-16 9-35s5-35 10-35c6 0 10-31 10-74 0-41-4-78-10-81-5-3-10-26-10-50s-4-46-9-49c-4-3-11-23-14-43-4-23-15-43-27-51-11-7-20-18-20-25 0-24-83-95-132-113-10-3-18-10-18-14s-20-11-45-14c-24-4-47-11-50-17-4-5-24-9-45-9s-42-4-45-10c-8-13-142-13-150 0-3 5-17 10-31 10-13 0-24 4-24 9 0 4-16 11-36 14s-45 16-55 28c-18 21-21 22-36 6-16-15-15-18 2-37 14-15 16-23 7-32-14-14 89-68 131-68 15 0 27-4 27-10s40-10 100-10 100 4 100 10 13 10 29 10c17 0 33 5 36 10 4 6 12 10 18 9 20-4 65 12 125 43 58 29 192 152 192 175 0 7 3 13 8 13 12 0 31 50 25 66-3 8 0 14 6 14s11 16 11 35 5 35 10 35c6 0 10 48 10 125s-4 125-10 125c-5 0-10 18-10 39 0 22-5 43-11 47-6 3-9 17-6 30 2 14 0 27-4 30-5 3-9 21-9 40s-4 34-10 34c-5 0-10 16-10 35s-4 35-9 35-11 23-15 51c-10 70-42 119-108 162-28 18-118 24-118 8 0-23-46-19-72 6-37 35-127 44-182 18-34-16-38-16-55-1-9 9-23 16-29 16-7 0-12 5-12 10 0 14-123 13-138-2-8-8-15-8-27 2-8 7-15 8-15 3z"/></g><g transform="translate(0 256) scale(.1 -.1)" fill="var(--icon-stroke, #24324B)"><path d="m1485 2350c-3-5-17-10-31-10-42 0-144-78-144-110 0-6-4-10-9-10s-11-18-15-40c-7-42-27-60-70-60-14 0-26-5-26-11 0-5-4-7-10-4-5 3-10 2-10-3 0-13 25-22 65-22 36 0 49-11 59-53 12-49 81-114 141-132 160-46 290 35 311 195 12 94-47 210-122 237-97 35-128 40-139 23zm78-51c99-27 167-144 137-234-51-155-256-185-344-50-10 15-20 54-23 85-13 139 99 236 230 199z"/><path d="m1e3 2122c20-7 12-10-40-15-77-7-100-14-100-32 0-24 17-26 106-14 108 15 133 51 44 64-27 4-29 3-10-3z"/><path d="m675 2054c-77-22-125-46-125-60 0-25 39-25 101 1 34 14 71 25 81 25 13 0 18 7 18 25 0 28-6 29-75 9z"/><path d="m403 1927c-6-7-27-27-47-46-19-18-41-46-48-61-7-16-16-26-20-24-14 9-9-7 7-22 14-15 57-11 53 4-3 10 45 82 55 82 22 0 58 51 47 65-15 18-31 19-47 2zm-45-92c-17-25-34-43-36-40-4 4 56 85 64 85 2 0-11-20-28-45z"/><path d="m1205 1693c-50-12-95-82-95-147 0-38 25-159 40-191 5-11 11-33 13-50 6-37 26-113 37-140 16-42 31-125 24-136-4-7-3-9 3-6 6 4 13-6 17-23 22-107 26-103-60-60-57 30-174 41-174 18 0-5-5-8-10-8-14 0-60-46-60-60 0-5-4-10-10-10-5 0-10-17-10-37 0-28-3-34-10-23s-10 6-9-20c0-29 2-31 9-15s9 13 9-17c1-21 6-38 11-38 6 0 10-6 10-14s19-29 42-48c66-51 90-71 115-95 13-13 27-23 31-23s23-15 42-33 49-42 67-52 30-22 27-27c-3-4 2-8 10-8s26-11 40-25 27-25 30-25 33-21 67-47c33-27 77-57 97-68 21-11 39-23 42-26s32-13 66-22c117-33 264-17 409 43 26 11 49 18 55 17s48 34 94 78c96 92 125 173 133 369 3 69 0 113-6 119s-11 24-11 41c0 27-7 58-42 191-6 22-15 52-20 67-6 16-8 39-6 53 3 13 1 22-3 19-5-3-9 4-9 16 0 11-5 26-10 33-6 7-18 21-28 32-46 54-115 70-174 39-29-15-31-15-57 9-48 46-138 54-197 17-19-12-25-10-56 13-42 32-132 38-173 11-24-16-25-15-35 11-5 14-10 32-10 40s-4 16-9 19-11 20-14 38c-27 172-103 235-242 201zm141-75c26-26 37-53 58-133 14-55 35-134 47-175s22-87 23-102c1-16 4-28 8-28s10-16 14-35c5-26 11-35 26-35 17 0 19 4 14 28-4 15-11 45-15 67-5 22-12 48-16 57-8 20 29 78 51 78 8 0 14 5 14 10 0 22 61 9 93-20 27-24 36-44 51-110 15-65 22-80 37-80 20 0 27 34 10 45-6 3-13 26-17 51-7 50 22 99 54 87 10-4 13-2 8 5-15 25 52 12 83-15 29-27 60-98 61-138 0-11 7-28 14-37 12-17 14-17 31 2 10 11 13 20 8 20-12 0-22 65-15 93 2 9 11 17 19 17s12 4 9 9c-5 8 35 31 55 31 24 0 88-66 95-98 13-57 35-148 44-177 39-128 61-288 50-368-11-85-38-177-52-177-4 0-8-7-8-16 0-20-125-144-145-144-8 0-15-4-15-8 0-12-68-34-81-26-7 4-9 3-6-3 4-6-5-14-21-17-164-40-207-43-284-15-35 12-66 27-70 33s-11 10-15 9c-17-4-73 30-66 40 3 5 1 7-4 4-6-4-24 7-42 23-17 17-34 30-38 30-5 0-24 14-43 30-52 45-53 45-108 85-29 20-52 41-52 46s-4 8-9 6c-5-1-23 10-40 26-17 15-31 25-31 22 0-6-34 22-103 86-45 41-50 50-55 97-4 49-3 53 32 88s39 36 88 32c29-3 54-11 56-17s10-11 18-11 14-4 14-9 10-11 23-15c12-3 31-14 42-24s27-21 35-25 23-13 33-19c22-16 43 8 25 29-5 7-8 25-5 40 4 16 3 21 0 13-4-9-14 17-24 60-9 41-24 102-34 135-9 33-21 76-26 95-30 126-53 208-62 227-5 12-7 29-3 38 3 9 2 13-4 10s-10 3-10 14-5 31-11 45c-13 28-6 68 17 90 8 9 12 16 8 16-10 0 28 35 46 43 32 13 84-3 116-35zm419-284c-11-8-25-21-31-29-10-13-14-12-27 9-15 22-15 24 3 19 10-3 27 0 37 6 27 16 41 13 18-5zm-461-466c9-36 7-41-9-28s-21 50-6 50c5 0 11-10 15-22zm-204-253c56-43 92-79 59-60-24 15-130 105-124 105 4 0 33-20 65-45zm327-259c10-11-10 2-44 29-35 26-63 50-63 52 0 7 89-60 107-81z"/><path d="m257 1633c-10-9-8-81 2-87 4-3 11-24 14-47 6-47 32-72 58-56 15 10 15 13-2 51-10 23-19 62-19 87 0 50-28 77-53 52z"/><path d="m391 1334c-7-8-10-18-7-21 3-4 6-4 6-1 0 2 23-18 52-45 54-51 84-68 106-60 24 10 3 63-25 63-4 0-19 10-33 23-29 27-72 57-80 57-3-1-11-8-19-16z"/><path d="m662 1153c-11-19 7-43 32-43 9 0 16-4 16-9s10-11 23-14c12-3 37-11 55-18 28-12 34-12 42 1 12 20 9 23-70 64-80 41-86 42-98 19zm148-65c0-8-70 19-85 33-5 6 12 2 38-8 26-9 47-21 47-25z"/></g></svg>
