<svg fill-rule="evenodd" stroke-linecap="round" stroke-linejoin="round" viewBox="0 0 256 256" xmlns="http://www.w3.org/2000/svg"><g transform="translate(0 256) scale(.1 -.1)" fill="var(--icon-white, #FFFFFF)"><path d="m286 1191-29-30 7-183c3-101 2-237-3-303l-9-120 27-34c51-65 74-76 158-74 70 2 79 4 106 31l29 30v318l-1 319-40 38c-40 37-40 37-129 37-85 0-89-1-116-29zm154-351v-260h-30-30v260 260h30 30v-260z"/><path d="m2e3 1162-27-28v-300-300l40-39c69-68 128-62 221 22l39 35v287 287l-28 27c-35 34-42 34-75-1l-27-28v-272-272h-25-25v278 278l-28 27c-34 33-32 33-65-1z"/></g><g transform="translate(0 256) scale(.1 -.1)" fill="var(--icon-coral, #FF8A65)"><path d="m678 2058c-97-116-134-224-145-422l-4-89 65-67h272c212 0 287 3 342 16 59 13 80 14 133 3 39-7 179-14 353-16l289-4 29 28c26 25 28 31 28 112 0 223-36 351-122 438l-52 53h-572-572l-44-52z"/><path d="m1556 1221-27-28 42-37 43-36h156 156l58-60 28 27c38 36 36 71-5 111l-32 31-185 1c-102 1-190 6-196 11-7 5-20-2-38-20z"/><path d="m563 1206-33-28v-332-332l56-54 55 57-1 302-1 301h159 158l54 56-30 29-30 28-355 2-32-29z"/></g><g transform="translate(0 256) scale(.1 -.1)" fill="var(--icon-yellow, #FFD85A)"><path d="m438 2112c-10-2-18-8-18-13s-6-9-13-9c-16 0-97-82-97-98 0-7-3-12-8-12-4 0-16-17-26-37-10-21-22-46-27-56-6-10-7-22-4-27s1-12-5-15c-6-4-11-25-10-48 0-23-3-87-6-143l-7-100 33-37c30-35 34-36 78-30 31 3 57 15 75 31l27 26-27 28c-15 15-33 28-41 28-10 0-12 7-8 23 3 13 8 56 11 97 5 68 25 131 65 205 16 30 83 75 95 64 10-11-17-62-53-101-36-38-56-118-34-132 7-4 9-30 5-72-6-61-5-66 22-94l29-30 32 31c18 18 36 48 42 72 16 63 45 209 47 232 2 26 49 118 69 134 23 19 20 34-12 65-28 26-33 27-123 24-52-1-102-4-111-6z"/><path d="m2087 2113c-4-3-32-5-63-4-51 2-60-1-89-29l-32-31 28-54c15-30 33-81 39-112 7-32 16-66 21-75 7-14 22-182 22-248 0-8 13-30 30-47 31-33 31-33 132-33s101 0 132 33c29 31 31 36 36 144 4 69 3 114-3 118-6 3-10 21-10 40s-5 37-10 40c-6 4-9 12-8 18 3 15-43 107-54 107-4 0-8 6-8 13 0 40-141 143-163 120z"/><path d="m1217 1549c-21-5-47-13-57-19-13-7-21-7-25 0-5 8-11 7-21-1-8-6-14-8-14-3 0 4-14-5-31-22-21-20-29-36-26-51 3-14-4-30-19-44-13-13-24-19-24-15 0 25-29-28-36-65-20-111 0-226 50-292 22-29 31-48 24-55-6-6 8-24 38-51 28-25 51-38 56-33 6 6 30 1 61-10 68-26 150-20 211 16 30 18 47 22 52 15 4-7 27 9 60 42 36 36 50 56 44 64-6 7-2 27 12 55 14 27 24 70 26 110 3 36 8 70 14 77 5 7 5 14-1 17-5 4-13 27-17 51-3 25-10 45-15 45s-9 7-9 16c0 8-5 12-11 8-6-3-36 18-67 49-84 83-184 118-275 96zm103-276c0-52-35-90-62-66-12 11-18 30-18 60v43h40c39 0 40-1 40-37z"/></g><g transform="translate(0 256) scale(.1 -.1)" fill="var(--icon-green, #66DDAA)"><path d="m755 2110 29-30h546 546l58 60h-604-604l29-30z"/><path d="m277 1182-27-28v-285-285l56-54 29 30 29 31v280l-1 280-29 30-30 29-27-28z"/><path d="m1095 460-29-30h576c609 0 617 1 569 44-16 14-77 16-552 16h-535l-29-30z"/></g><g transform="translate(0 256) scale(.1 -.1)" fill="var(--icon-purple, #BFA7FF)"><path d="m1765 1220c29-30 29-30 143-30 99 0 113-2 102-15-9-10-12-98-11-337l1-322 25-26c24-25 56-32 71-17 4 4 28 7 54 7 41 0 50 5 88 43l42 43v269c0 230 2 271 16 286 14 16 13 20-21 58-21 23-44 41-52 41-13 0-13 3-3 15 11 13-16 15-236 15h-248l29-30z"/><path d="m307 1172-27-28v-287-287l41-45c41-44 43-45 103-45 55 0 65 3 89 28l27 28-2 309c-3 299-4 309-23 315-11 3-20 12-20 20 0 12-17 16-80 18-77 3-82 2-108-26z"/></g><g transform="translate(0 256) scale(.1 -.1)" fill="var(--icon-orange, #FFB84D)"><path d="m469 2070c-99-52-216-258-206-360 1-8-2-43-7-78-6-45-5-67 4-77 7-8 9-15 4-15-4 0 5-13 21-30 28-29 31-30 124-30 89 0 97 2 123 27 31 29 38 87 16 122-20 33 14 217 48 252 14 15 36 50 49 77l23 50-35 41c-41 48-99 55-164 21z"/><path d="m2167 1922c-15-15-27-36-27-46s-5-36-12-58c-9-31-9-44 0-59 23-36 15-56-11-31l-23 22-26-28c-39-40-44-149-9-186 38-41 185-39 224 2l27 28-28 27c-15 15-34 27-42 27-10 0-10 4 3 18 8 9 18 40 22 67 4 28 10 54 13 60 18 30-16 121-60 162l-24 23-27-28z"/><path d="m577 1182-38-38 1-316 1-315 27-26 27-25 1393-7 25 23 25 24-5 331-5 332-26 28-26 27h-186-186l-27-28c-16-16-27-39-27-55 0-18-14-42-40-71s-37-47-30-51c20-12-29-53-89-76-90-34-190-24-240 25-28 27-40 33-49 24-21-21-92 102-92 161 0 9-13 29-28 44l-28 27h-170-170l-37-38z"/></g><g transform="translate(0 256) scale(.1 -.1)" fill="var(--icon-skin, #F0D8C0)"><path d="m219 1214c-11-13-11-18-1-21 9-4 12-54 12-206v-201l60 58v166 166l-28 28c-27 25-30 26-43 10z"/><path d="m2297 1202-27-28v-301c0-245-3-306-15-329-13-25-13-30 2-46 16-18 17-17 39 3 12 12 20 27 18 34-3 7-1 16 5 20 8 4 11 108 11 320 0 241 3 314 13 318 9 3 8 9-3 21-15 15-18 14-43-12z"/></g><g transform="translate(0 256) scale(.1 -.1)" fill="var(--icon-slate, #606078)"><path d="m500 2131c0-5-18-11-40-15-44-7-51-23-22-49 21-19 48-22 57-7 3 6 33 10 67 10 51 0 65-4 97-29 27-22 41-27 53-20 11 6 19 6 23-1s200-10 569-10c494 0 565-2 576-15 12-14 15-13 35 5 12 11 24 17 28 14 3-4 33-6 66-6 57 0 64 2 108 41 46 39 47 42 29 56-11 8-30 15-43 15s-23 5-23 10c0 7-270 10-790 10-443 0-790-4-790-9z"/><path d="m548 1862c-31-35-37-48-43-110-5-50-12-76-26-88-11-10-19-30-19-51v-33h-86c-57 0-83 3-79 11 4 5 0 18-9 28-17 18-11 127 8 173 5 11-3 27-24 50-18 18-29 28-26 21 4-6 2-14-4-18-5-3-10-19-10-34s-5-32-11-38c-7-7-13-65-15-145-2-78-8-134-14-136s-10-54-10-133c0-126 1-131 25-153l25-23v-311c0-210 3-313 11-317 6-4 8-13 5-20-5-14 63-85 82-85 7 0 12-4 12-10 0-7 320-10 940-10s940 3 940 10c0 6 5 10 12 10 19 0 87 71 82 85-3 7-1 16 5 20 8 4 11 107 11 317v311l25 23c24 22 25 27 25 154 0 71-4 130-8 130-5 0-12 61-15 137-7 149-15 170-50 135-19-20-22-33-22-100v-77l-175-6v51c0 28-5 59-12 69-6 11-8 26-3 37 4 11 7 28 6 39-3 21-51 78-59 70-3-3-10 0-17 5-8 7-24-1-52-25l-41-35 6-105 5-105h-262c-170 0-269 4-283 11-17 9-25 6-49-17l-29-28 26-27c15-15 39-33 55-39 15-7 27-16 26-20-3-12 83-111 92-105 5 2 16-4 25-14 12-13 14-21 6-26-7-4-9-18-5-35 4-16 1-37-7-49-19-30 36-89 62-66 25 22 236 21 261-1 11-10 35-16 59-16 42 1 50-7 25-28-18-15-23-444-5-455 6-3 10-14 10-24s9-26 20-36c14-13 20-31 20-62v-43h-83c-79 0-85 1-112 30l-29 30h-591-591l-29-30c-28-29-32-30-120-30-136 0-129-11-133 222l-3 193 25 24c24 22 26 32 26 103v78h73c43 0 78-5 85-12 9-9 17-7 35 10 13 12 28 22 34 22 5 0 18 9 28 20 17 18 31 20 185 20 98 0 170-4 176-10 7-7 19-1 38 19 24 25 26 31 15 49-10 17-10 23 0 36 12 14 11 19-2 34-14 16-13 20 17 52 17 19 36 37 41 39 13 5 57 38 101 76l35 30-76 74-565 2v36c0 27 10 47 40 83 38 45 50 82 31 94-4 3-6 16-4 28 3 16-5 32-25 51l-29 28-35-39zm469-430c-15-15-27-33-27-40s-4-12-9-12c-4 0-11-16-14-36-3-19-12-49-19-65l-13-29h-337-338v105 105h392 392l-27-28zm1283-77v-105h-338-337l-13 29c-7 16-16 46-19 65-3 20-10 36-14 36-5 0-9 5-9 12s-12 25-27 40l-27 28h392 392v-105zm-94-238c2-2 4-126 4-277 1-294 2-290-52-290-59 0-58-3-58 184v172l-30 29c-16 16-30 36-30 45s14 29 30 45c23 22 30 37 30 68v40l51-6c29-4 53-8 55-10z"/><path d="m1325 1300c-4-6-14-9-22-6-9 4-22 1-29-5-8-6-20-9-28-6-7 3-26-7-41-23-26-27-26-29-11-58 9-17 16-37 16-43 0-19 51-69 70-69 25 0 70 53 70 81 0 14 9 34 20 44 27 24 25 36-9 69-19 19-31 24-36 16z"/></g><g transform="translate(0 256) scale(.1 -.1)" fill="var(--icon-stroke, #24324B)"><path d="m494 2109c-3-6-17-9-30-6-13 2-24 0-24-4 0-5-5-9-10-9-16 0-38-20-105-94-6-6-19-30-30-53-11-24-23-43-26-43-4 0-10-21-13-47-4-27-11-59-16-73-12-31-28-270-18-264 4 3 5-2 2-10-3-9-10-16-15-16s-9-60-9-134c0-132 1-135 25-154l25-20v-312c0-347 2-361 65-400 49-30 1875-32 1926-1 65 40 64 33 67 390l3 325 25 21c23 20 24 25 24 153 0 89-4 132-11 132s-10 33-7 104c1 57 0 102-4 99-5-2-8 14-8 36s-4 42-9 45c-4 3-11 25-13 48-9 80-111 248-151 248-5 0 7-18 27-40 49-54 46-61-3-9-23 23-37 47-34 55 3 10-5 16-26 20-17 4-34 11-37 15-8 14-1581 12-1590-2zm1437-9c20 0 27-4 23-14-4-11 10-15 64-18 159-9 258-162 269-418 5-102 8-118 30-144 30-36 23-45-13-17-15 11-23 22-18 23s-45 4-111 8l-120 5-6 130c-10 186-31 281-85 373-19 32-29 41-37 33s-16-6-30 7c-28 25-1129 32-1177 7-17-9-30-11-30-6s-10 13-22 18c-22 8 1096 23 1191 16 24-2 57-3 72-3zm-1281-44c0-7-6-19-14-25-45-37-104-245-114-405l-7-101-245-6v89c0 203 83 391 195 443 50 23 185 27 185 5zm1245-20c62-81 108-271 103-421l-3-90-288-3c-255-2-291 0-320 15-42 22-156 22-217 0-38-14-90-17-319-17h-273l4 121c3 101 2 118-9 103-7-10-13-27-13-38 0-10-3-17-6-14-10 11 8 127 23 145 13 16 14 14 8-22-9-58 8-33 35 49 25 77 54 132 93 176l27 30h565 564l26-34zm137-281c3-59-1-169-7-163-7 7-23 201-17 211 9 17 21-9 24-48zm-888-260c-10-8-23-15-27-15-5 0-17-10-28-22-10-13-18-18-19-13 0 15 12 29 40 48 31 22 63 24 34 2zm246-17c99-42 151-121 158-239 19-314-349-438-505-172-51 87-43 238 16 320 82 113 204 146 331 91zm-343-14c3-8-3-25-13-37-28-32-41-58-48-97-4-19-14-50-22-67l-15-33h-340c-282 0-343 2-355 14-20 21-20 212 0 223 8 4 188 9 401 10 337 2 387 0 392-13zm1260 0c17-17 18-205 1-222-9-9-103-12-360-12-342 0-348 0-348 20 0 11-4 28-10 38-5 9-14 36-20 60-6 23-25 58-42 78-26 29-29 37-17 45 24 15 780 9 796-7zm-2e3 -254c5 0 9-4 9-10 0-16-26-12-41 7-12 15-12 16 4 10 10-4 23-7 28-7zm309-10c0-10-19-14-52-11-9 1-20-3-24-10s-3-10 2-7c8 5 10-196 6-553l-2-116-61-7c-70-8-121 5-142 37-15 23-34 607-21 641 5 13 25 16 109 16 59 0 107 4 110 10s22 10 41 10 34-4 34-10zm1460 2c0-5 46-10 102-11s106-5 110-7c17-11 9-593-8-630-24-49-61-66-142-62l-67 3-1 275c-2 393-3 412-14 405-5-3-11-21-11-38l-2-32-4 30c-7 48-29 65-85 63-27 0-52 2-55 6-3 3 35 6 85 6 51 0 92-4 92-8zm-1102-21c6-1 12-12 12-26s9-48 19-75c82-216 358-279 522-119 50 49 99 139 99 182 0 40 12 42 204 39l186-3v-339-340h-705-705v339c0 223 4 340 10 343 9 2 317 2 358-1zm1072-427c0-83-4-134-10-134s-10 54-10 141c0 91 4 138 10 134s10-62 10-141z"/><path d="m1215 1335c-33-32-35-103-5-130 16-14 20-31 20-80 0-70 12-88 57-83 27 3 28 5 33 73 4 55 10 75 28 93 32 32 30 91-4 126-36 35-95 36-129 1zm106-119c-12-12-21-34-21-49 0-40-32-36-46 6-6 17-14 40-18 49-6 13-3 15 14 11 13-4 26 0 31 8 8 12 10 12 18 1 7-12 11-11 22 1 8 8 16 11 18 5 2-5-6-20-18-32z"/></g></svg>
