<svg fill-rule="evenodd" stroke-linecap="round" stroke-linejoin="round" viewBox="0 0 256 256" xmlns="http://www.w3.org/2000/svg"><g transform="translate(0 256) scale(.1 -.1)" fill="var(--icon-green, #66DDAA)"><path d="m1212 2365c-13-7-41-29-61-49s-41-36-46-36c-6 0-50-41-99-90-48-50-94-90-102-90-7 0-11-6-8-14s0-17-6-21c-8-5-7-11 2-23 11-15 11-15-3-5-13 10-22 6-53-26-25-26-34-41-26-46 14-8-4-29-73-87-36-31-50-38-61-29-10 8-17 6-31-9-10-11-21-17-26-15-11 7-170-152-168-168 1-6-1-20-6-30-4-9-4-33 0-53l6-36 23 21 22 21 58-60h153 153v-235-235l72-80h358 357l43 46 42 46-3 137c-2 75-2 178-1 229l2 92h154 154l31 35c17 20 31 40 31 45 0 21 2 25 16 41 18 20-7 74-41 93-11 6-73 64-139 129-66 64-123 117-128 117s-61 52-124 115-119 115-124 115-38 29-74 65c-35 36-72 65-80 65-9 0-16 5-16 10 0 6-9 10-20 10s-20 5-20 10c0 14-111 11-138-5z"/></g><g transform="translate(0 256) scale(.1 -.1)" fill="var(--icon-purple, #BFA7FF)"><path d="m759 711c-63-62-69-118-18-176l31-35h-144-144l-47-48c-41-42-47-53-47-90 0-73 89-150 160-140l30 5-43-47h273 273l-46 50h525 525l41 44c68 74 66 123-9 191l-39 35h-142-142l27 28c18 19 29 44 33 76 7 47 7 48-47 102l-53 54h-475-474l-48-49z"/></g><g transform="translate(0 256) scale(.1 -.1)" fill="var(--icon-skin, #F0D8C0)"><path d="m810 1274c0-244 6-272 49-218 19 25 21 39 21 195v169l-69 75-1-221z"/><path d="m1151 216-35-36h384 385l-60 59-640 13-34-36z"/></g><g transform="translate(0 256) scale(.1 -.1)" fill="var(--icon-slate, #606078)"><path d="m916 2107c-11-7-75-67-143-134-68-68-128-123-133-123-13 0-70-57-70-69 0-24 31-34 51-15 16 14 24 16 38 7 22-14 109 65 91 83-16 16 55 80 73 66 10-9 23-2 56 32 29 30 39 46 31 51s0 20 26 46c31 32 35 41 24 54-15 18-19 18-44 2z"/><path d="m2e3 1670-49-50h-134-133l-96-90-6-137c-4-75-3-142 1-147 4-6 6-48 4-93l-4-83h-334-334v229 228l-99 93h-154c-91 0-157 4-163 10-7 7-16 4-29-10l-18-20-23 21c-21 20-24 20-30 5-12-31 6-80 41-113l35-33h145 145v-214c0-133 4-217 10-221 6-3 10-15 10-26s10-30 23-42c51-51 52-51 451-51h373l93 93v231 230h146 146l29 31c16 17 29 37 29 45s5 14 10 14c16 0 12 86-5 100-8 7-15 18-15 26 0 28-19 21-65-26z"/><path d="m764 786c-64-35-84-76-84-170v-71h-114-115l-45-48c-25-26-46-56-46-67 0-10-4-22-10-25-5-3-10-26-10-51 0-24 5-44 10-44 6 0 10-6 10-13 0-16 82-97 98-97 7 0 12-5 12-10 0-7 128-9 378-8 295 2 376 6 374 15-1 10 33 13 148 13s149-3 147-12c-2-15 562-25 572-10 3 4 23 16 44 26 26 12 43 29 55 57 9 21 20 39 24 39 5 0 8 25 8 55s-4 55-10 55c-5 0-10 7-10 15s-19 35-43 59l-42 45-215 4v62c0 86-32 140-107 183-32 17-998 16-1e3 -2zm996-161v-35h-475-475v35 35h475 475v-35zm308-230c13-5 17-51 4-59-5-3-362-6-793-7l-784-1-3 36-3 35 143 3c204 4 1421-2 1436-7z"/></g><g transform="translate(0 256) scale(.1 -.1)" fill="var(--icon-stroke, #24324B)"><path d="m1233 2347c-42-16-72-39-157-119-108-101-140-127-148-122-4 3-8-2-8-10s-6-19-14-23-64-56-125-115c-61-60-114-108-117-108-4 0-47-39-96-87-118-116-135-173-72-236 26-27 28-27 168-27 99 0 147-4 159-13 16-11 17-33 15-234-2-121 0-219 5-216 4 2 7-5 7-16s11-28 25-39c13-11 22-22 19-25-7-7-44-6 381-9 193-2 356-7 364-12 9-6 12-5 8 1s4 14 18 17c74 19 87 76 84 359-1 91 2 170 5 176 5 7 58 11 156 11h149l30 37c31 38 46 123 21 123-5 0-10 7-10 15s-4 15-8 15c-5 0-15 11-22 25s-17 25-22 25-50 39-100 88c-50 48-108 104-129 124-22 21-39 35-39 33 0-4-85 74-187 173-30 28-57 52-60 52-2 0-10 6-17 13-90 86-127 117-140 117-9 0-16 3-16 8 0 12-93 12-127-1zm114-64c44-25 677-606 708-651 14-19 14-24-1-47-16-25-17-25-169-25-213 0-196 23-196-267-1-216-2-235-21-258l-19-25h-359-359l-15 22c-13 19-16 61-16 260 0 292 18 268-194 266-144-1-150-1-167 21-29 36-26 42 99 156 64 60 151 140 192 179 190 178 406 373 420 379 29 11 66 7 97-10zm313-232c0-3-19 13-42 34-22 22-49 48-60 58-10 9-18 20-18 24s27-19 60-52 60-62 60-64zm-630 86c0-2-19-19-42-37l-43-33 34 36c30 32 51 46 51 34zm955-379 60-62-60 54c-33 29-64 57-69 62-6 5-6 8 0 8 5 0 36-28 69-62zm-1395-21c0-2-18-21-40-42s-40-36-40-32 17 23 37 42c35 33 43 39 43 32zm1109-733c-32-34-44-30-18 6 12 16 26 27 31 24 5-4-1-17-13-30z"/><path d="m765 761c-51-30-64-60-67-153l-3-83-93 3c-51 2-107-2-125-8-41-13-97-62-97-84 0-10-4-14-10-11-6 4-10-12-10-41 0-48 33-134 51-134 6 0 7-5 4-10-4-6-3-10 2-9 17 3 52-14 47-22-3-6 332-9 816-8 505 0 818 4 815 10-4 5 1 9 9 9 20 0 76 49 76 67 0 7 5 13 10 13 6 0 10 24 10 53 0 54-23 105-63 140-11 9-20 18-21 18-1 1-55 4-121 8l-120 6-1 75c-1 90-12 120-57 154l-34 26h-494c-464 0-496-1-524-19zm1e3 -73c28-30 30-37 25-86-3-29-10-59-16-65-7-10-133-13-510-15-578-3-541-10-541 92 0 48 3 57 31 80l31 26h475 475l30-32zm319-256c42-46 40-93-5-138l-34-34h-790-790l-30 25c-38 32-48 72-29 118 28 66 0 64 910 63l739-1 29-33z"/></g></svg>
